<svg xmlns="http://www.w3.org/2000/svg" viewBox="0 0 61.1 59.34"><defs><style>.cls-1{fill:#f8c5dc;}.cls-2{stroke:#f8c5dc;stroke-miterlimit:10;stroke-width:0.1px;}</style></defs><g id="Layer_2" data-name="Layer 2"><g id="BG"><rect class="cls-1" width="61.1" height="59.34"/></g><g id="Main"><path class="cls-2" d="M40.86,18.06H42V15.42a.67.67,0,0,0-.68-.68H30.88a.52.52,0,0,1-.52-.52V13.05a.53.53,0,0,0-.52-.52H26.46a.52.52,0,0,0-.52.52v1.17a.52.52,0,0,1-.53.52H15a.67.67,0,0,0-.67.68v2.64h1.1V33.54h-1.1v2.64a.67.67,0,0,0,.67.68h2.77a.68.68,0,0,1,.66.82L16.58,46a.68.68,0,0,0,.66.82h2a.67.67,0,0,0,.66-.53l2-8.9a.68.68,0,0,1,.66-.52h3.31a.67.67,0,0,1,.68.67v8.6a.67.67,0,0,0,.67.68h2a.68.68,0,0,0,.68-.68v-8.6a.67.67,0,0,1,.67-.67H33.8a.68.68,0,0,1,.66.52l2,8.9a.67.67,0,0,0,.66.53h2a.67.67,0,0,0,.66-.82l-1.84-8.31a.67.67,0,0,1,.65-.82h2.77a.67.67,0,0,0,.68-.68V33.54H40.86ZM27,13.64h2.21v1.1H27ZM15.43,15.85H40.86V17H15.43Zm24.33,2.88V32.87a.67.67,0,0,1-.68.67H17.21a.67.67,0,0,1-.67-.67V18.73a.67.67,0,0,1,.67-.67H39.08A.67.67,0,0,1,39.76,18.73Zm-20.9,27H17.78l2-8.84h1.07Zm9.84,0H27.59V36.86H28.7Zm9.81,0H37.44l-2-8.84h1.08Zm2.35-10H15.43v-1.1H40.86Z"/><path class="cls-2" d="M35.33,31.33H18.81a.06.06,0,0,1-.06-.06V20.33a.06.06,0,0,1,.06-.06H37.48a.07.07,0,0,1,.07.06v11H36.44v1.1h2.15a.06.06,0,0,0,.06-.06V19.23a.06.06,0,0,0-.06-.06H17.7a.06.06,0,0,0-.06.06V32.37a.06.06,0,0,0,.06.06H35.33Z"/><path class="cls-2" d="M32.87,26.91,36,30.58l.84-.72L33.38,25.8h-.86a3.41,3.41,0,0,0,0-.55A3.87,3.87,0,0,0,25,24.14H24l-4.59,5.74.87.69,4.23-5.3.05,0h3.81l.05,0,3.69,5.27.9-.63L31,27l.13-.12ZM30.68,25.8l-.31.31L29,24.17a.05.05,0,0,0-.05,0H26.18a2.75,2.75,0,0,1,5.28,1.11,2.57,2.57,0,0,1-.06.55Z"/><path class="cls-2" d="M48.05,18.16l-1.9-2.84,0,0H44.47l0,0-1.89,2.84A3.29,3.29,0,0,0,42,20v.27a3.3,3.3,0,0,0,1.09,2.45.06.06,0,0,1,0,0V44.42A2.34,2.34,0,0,0,45,46.78,2.21,2.21,0,0,0,47.5,44.6V22.76a0,0,0,0,1,0,0,3.33,3.33,0,0,0,1.08-2.45V20A3.36,3.36,0,0,0,48.05,18.16ZM46.39,44.6a1.11,1.11,0,0,1-2.21,0V43.49h2.21Zm-.06-2.21H44.24a.07.07,0,0,1-.06-.07V25.86a.06.06,0,0,1,.06-.06h2.09a.06.06,0,0,1,.06.06V42.32A.07.07,0,0,1,46.33,42.39Zm.06-17.7H44.18V23.4a3.31,3.31,0,0,0,2.21,0Zm1.11-4.42A2.22,2.22,0,0,1,45,22.46a2.34,2.34,0,0,1-1.89-2.36V20a2.12,2.12,0,0,1,.38-1.22l1.28-1.93v2.87h1.11V16.85l1.29,1.93A2.19,2.19,0,0,1,47.5,20Z"/></g></g></svg>