<svg xmlns="http://www.w3.org/2000/svg" viewBox="0 0 61.1 59.34"><defs><style>.cls-1{fill:#46a86e;}.cls-2{stroke:#5cb85c;stroke-miterlimit:10;stroke-width:0.1px;}</style></defs><g id="Layer_2" data-name="Layer 2"><g id="BG"><rect class="cls-1" width="61.1" height="59.34"/><path class="cls-2" d="M52.39,27.47a.58.58,0,0,0-.82,0l-1.14,1L44.22,22.3a.58.58,0,0,0-.82.83l6.16,6.1L46.51,32,36.38,21.7l10.07-9.53a.58.58,0,0,0-.8-.84L35.14,21.26a.64.64,0,0,0-.18.42.63.63,0,0,0,.17.42l.93.94L34,25.19l-4-.42a.57.57,0,0,0-.47.17L28,26.53l-3-3,1-1a.58.58,0,0,0,0-.83L15.45,11.78a.57.57,0,0,0-.82,0,.58.58,0,0,0,0,.82l7.09,6.7L11.36,29.52,9.53,27.88a.57.57,0,0,0-.82,0,.6.6,0,0,0,0,.83l5.47,4.91a.58.58,0,0,0,.39.15.55.55,0,0,0,.41-.18l1-1L21.47,38l-1,1a.58.58,0,0,0,0,.82l2,2h0l2.05,2,2,2,2,2a.58.58,0,0,0,.82,0l1.06-1.06L31.61,48a.58.58,0,0,0,.41.17.62.62,0,0,0,.41-.17l1.63-1.64.24.25a.58.58,0,0,0,.82,0L36.75,45l.25.24a.56.56,0,0,0,.82,0l1.63-1.63.24.24a.54.54,0,0,0,.41.17.58.58,0,0,0,.42-.17l2-2a.57.57,0,0,0,0-.82l-3-3L45,32.1l1.06,1.08a.59.59,0,0,0,.81,0l5.47-4.91A.57.57,0,0,0,52.39,27.47Zm-29.48.32a2.55,2.55,0,0,1-4.08,2l3.57-3.57A2.54,2.54,0,0,1,22.91,27.79Zm.32-2.36,1-1,.52.52-1.07,1.09A4.41,4.41,0,0,0,23.23,25.43Zm-8.64,7L12.23,30.3,22.59,20.14l2.14,2ZM18,30.65a3.69,3.69,0,0,0,.67.44l-.57.59-.68.69-.57-.56Zm4.3,8.17L23.53,40l-.6.62-1.22-1.22ZM25,42.67l-1.22-1.2.61-.62,1.23,1.21Zm1.45.21,1.22,1.21-.62.63L25.8,43.5Zm2.64,3.88-1.22-1.22.63-.63,1.23,1.21Zm11-4.17-.24-.24h0L37.51,40h0l-.72-.71a.58.58,0,1,0-.82.82l2.66,2.66L37.41,44,34.1,40.67a.59.59,0,0,0-.83,0,.59.59,0,0,0,0,.82l.72.72,1.94,1.94-1.22,1.22L32.8,43.45l-.68-.68h0l-.72-.71a.58.58,0,1,0-.82.82l1.34,1.34,1.31,1.32L32,46.76,18.25,33.19c.23-.22.45-.46.69-.7l1-1a3.25,3.25,0,0,0,.44,0,3.73,3.73,0,0,0,3.72-3.72,3.4,3.4,0,0,0,0-.45l1.5-1.54,1.58,1.55-5.5,5.46a.58.58,0,0,0,.05.87c.13.11,3.32,2.53,8.87-3.09L41.32,41.37ZM38.7,37.1,31,29.35a.51.51,0,0,0-.42-.17.56.56,0,0,0-.42.18c-3.57,3.8-6,3.92-7,3.67L30.19,26l2.8.3-.42.44a.58.58,0,0,0,.84.8L36.76,24l7.35,7.35Zm1-16.74a1.82,1.82,0,1,0,1.82-1.82A1.82,1.82,0,0,0,39.72,20.36Zm2.48,0a.66.66,0,1,1-1.32,0,.66.66,0,0,1,1.32,0Z"/></g></g></svg>