<svg xmlns="http://www.w3.org/2000/svg" viewBox="0 0 61.1 59.34"><defs><style>.cls-1{fill:#74b9ff;}</style></defs><g id="Layer_2" data-name="Layer 2"><g id="BG"><rect class="cls-1" width="61.1" height="59.34"/><path d="M48.82,26.1l-3.3-.33a15.19,15.19,0,0,0-1.63-3.93L46,19.27a.59.59,0,0,0,0-.8l-4.2-4.21a.61.61,0,0,0-.8,0l-2.57,2.11a15.19,15.19,0,0,0-3.93-1.63l-.33-3.3a.6.6,0,0,0-.6-.54H27.58a.6.6,0,0,0-.6.54l-.33,3.3a15.12,15.12,0,0,0-3.92,1.63l-2.57-2.11a.62.62,0,0,0-.81,0l-4.2,4.21a.59.59,0,0,0,0,.8l2.1,2.57a15.54,15.54,0,0,0-1.63,3.93l-3.3.33a.6.6,0,0,0-.54.59v5.95a.61.61,0,0,0,.54.6l3.3.33a15.63,15.63,0,0,0,1.63,3.92l-2.1,2.57a.6.6,0,0,0,0,.81l4.2,4.2a.6.6,0,0,0,.81,0L22.73,43a15.48,15.48,0,0,0,3.92,1.63l.33,3.3a.61.61,0,0,0,.6.54h5.94a.61.61,0,0,0,.6-.54l.33-3.3A15.54,15.54,0,0,0,38.38,43L41,45.11a.59.59,0,0,0,.8,0l4.2-4.2a.6.6,0,0,0,0-.81l-2.1-2.57a15.27,15.27,0,0,0,1.63-3.92l3.3-.33a.6.6,0,0,0,.54-.6V26.69A.6.6,0,0,0,48.82,26.1Zm-.66,6L45,32.42a.6.6,0,0,0-.53.46,14.16,14.16,0,0,1-1.8,4.35.59.59,0,0,0,0,.69l2,2.48-3.43,3.44-2.48-2a.6.6,0,0,0-.7,0,14.16,14.16,0,0,1-4.35,1.8.61.61,0,0,0-.46.52L33,47.28H28.12l-.32-3.19a.59.59,0,0,0-.46-.52A14.16,14.16,0,0,1,23,41.77a.6.6,0,0,0-.7,0l-2.47,2L16.38,40.4l2-2.48a.59.59,0,0,0,0-.69,14.16,14.16,0,0,1-1.8-4.35.62.62,0,0,0-.53-.47l-3.18-.31V27.24l3.18-.32a.61.61,0,0,0,.53-.46,14.06,14.06,0,0,1,1.8-4.35.6.6,0,0,0,0-.7l-2-2.48,3.44-3.43,2.47,2a.6.6,0,0,0,.7.05,14.16,14.16,0,0,1,4.35-1.8.6.6,0,0,0,.46-.53l.32-3.18H33l.32,3.18a.61.61,0,0,0,.46.53,14.16,14.16,0,0,1,4.35,1.8.6.6,0,0,0,.7-.05l2.47-2,3.44,3.43-2,2.48a.6.6,0,0,0,0,.7,14.06,14.06,0,0,1,1.8,4.35.61.61,0,0,0,.53.46l3.18.32V32.1Z"/><path d="M30.55,16.58a13.08,13.08,0,0,0-13,11.83.6.6,0,1,0,1.19.11,11.89,11.89,0,1,1,0,2.29.6.6,0,0,0-.65-.54.59.59,0,0,0-.54.65,13.09,13.09,0,1,0,13-14.34Z"/><path d="M30.55,19A10.69,10.69,0,1,0,41.24,29.67,10.7,10.7,0,0,0,30.55,19Zm4.2,19.19a9.47,9.47,0,0,1-3.6,1V34A.6.6,0,1,0,30,34v5.15a9.52,9.52,0,0,1-3.6-1v-6h8.4v6ZM32.58,27.38l1.8,3.6H26.72l1.8-3.6Zm-3.46-1.2h0l1.43-2.85L32,26.18ZM36,37.46V31.37s0,0,0-.05h0l-4.8-9.6a.6.6,0,0,0-.54-.33.62.62,0,0,0-.54.33l-4.79,9.6h0l0,.05v0s0,0,0,0v0a.09.09,0,0,0,0,.05v0a.13.13,0,0,0,0,.06v5.88a9.49,9.49,0,1,1,10.8,0Z"/></g></g></svg>