<svg xmlns="http://www.w3.org/2000/svg" viewBox="0 0 61.1 59.34"><defs><style>.cls-1{fill:#ff7775;}.cls-2{stroke:#ff7775;stroke-miterlimit:10;stroke-width:0.3px;}</style></defs><g id="Layer_2" data-name="Layer 2"><g id="BG"><rect class="cls-1" width="61.1" height="59.34"/><path class="cls-2" d="M44.07,10.51H20.39a6.31,6.31,0,1,0,5.86,8.68h12a6.31,6.31,0,1,0,5.86-8.68Zm0,11a4.76,4.76,0,0,1-4.54-3.38.8.8,0,0,0-.76-.56H25.69a.8.8,0,0,0-.76.56,4.73,4.73,0,1,1-4.54-6.08H44.07a4.73,4.73,0,0,1,0,9.46Z"/><path class="cls-2" d="M46.43,46H44.85V43.65a.78.78,0,0,0-.78-.79H42.49V31h1.58a.78.78,0,0,0,.78-.79V26.28a.76.76,0,0,0-.24-.57.81.81,0,0,0-.59-.22h-.35a5.78,5.78,0,0,1-5.8-4.12.79.79,0,0,0-.77-.61H27.36a.78.78,0,0,0-.77.61,5.78,5.78,0,0,1-5.8,4.12,7.45,7.45,0,0,1-1.06-.08.82.82,0,0,0-.64.18.81.81,0,0,0-.28.6v4a.79.79,0,0,0,.79.79h1.58V42.86H19.6a.79.79,0,0,0-.79.79V46H17.24a.78.78,0,0,0-.79.78V50a.79.79,0,0,0,.79.79H46.43a.79.79,0,0,0,.79-.79V46.8A.78.78,0,0,0,46.43,46Zm-5.52-3.16H37.75V31h3.16Zm-6.31,0V31h1.57V42.86Zm-7.1,0V31h1.57V42.86ZM30.65,31H33V42.86H30.65ZM20.39,27.07A7.57,7.57,0,0,0,28,22.34H36.5a7.45,7.45,0,0,0,6.78,4.73v2.38H20.39ZM22.76,31h3.16V42.86H22.76ZM20.39,44.44H43.28V46H20.39Zm25.25,4.73H18V47.59H45.64Z"/><rect class="cls-1" x="11.19" y="7.42" width="40.91" height="24.15"/><path d="M26.23,39.72a1.13,1.13,0,0,1-.57-.15l-1.57-.87-1.56.87a1.16,1.16,0,0,1-.57.15,1.21,1.21,0,0,1-.59-.16,1.18,1.18,0,0,1-.58-1V35.91c-.52,0-1,.05-1.48.05a4.65,4.65,0,0,1-3.61-1.19,1.16,1.16,0,0,1,.86-2,1.19,1.19,0,0,1,.85.37c.28.31.89.45,1.91.45.56,0,1.19,0,1.87-.08s1.74-.11,2.73-.11a17.1,17.1,0,0,1,7.71,1.66,17.12,17.12,0,0,1,7.71-1.66c1,0,1.91.06,2.73.11s1.31.08,1.87.08h0c1,0,1.62-.14,1.9-.45a1.19,1.19,0,0,1,.86-.37,1.17,1.17,0,0,1,.79.31,1.14,1.14,0,0,1,.37.81,1.1,1.1,0,0,1-.31.84A4.65,4.65,0,0,1,44,36c-.62,0-1.3,0-2-.08s-1.7-.11-2.62-.11a14.58,14.58,0,0,0-7.12,1.67,1.17,1.17,0,0,1-1.11,0,13.06,13.06,0,0,0-3.69-1.34v2.45a1.19,1.19,0,0,1-.57,1A1.21,1.21,0,0,1,26.23,39.72Zm-3.1-3.15.4-.22a1.14,1.14,0,0,1,1.13,0l.4.22V35.8l-1.11,0-.82,0Zm8.5-1.81a1.27,1.27,0,0,1-.56-.14A14.85,14.85,0,0,0,23.89,33c-.93,0-1.83.06-2.55.1s-1.41.08-2,.08A4.65,4.65,0,0,1,15.7,32a1.17,1.17,0,0,1-.31-.79V10.9a1.17,1.17,0,0,1,.57-1,1.16,1.16,0,0,1,.6-.17,1.18,1.18,0,0,1,.55.14,14.51,14.51,0,0,0,7.12,1.67c.92,0,1.78,0,2.62-.11s1.4-.08,2-.08a5.84,5.84,0,0,1,2.75.53,5.88,5.88,0,0,1,2.76-.53c.62,0,1.29,0,2,.08s1.7.11,2.62.11a14.47,14.47,0,0,0,7.12-1.67,1.19,1.19,0,0,1,.56-.14,1.1,1.1,0,0,1,.59.17,1.16,1.16,0,0,1,.58,1V31.16a1.18,1.18,0,0,1-.32.79A4.65,4.65,0,0,1,44,33.14c-.62,0-1.3,0-2-.08s-1.7-.1-2.62-.1a14.55,14.55,0,0,0-7.12,1.66A1.22,1.22,0,0,1,31.63,34.76Zm-7.71-4.14a17.34,17.34,0,0,1,6.55,1.15V13.91a4.15,4.15,0,0,0-1.6-.23c-.56,0-1.19,0-1.88.08s-1.74.11-2.73.11a17.53,17.53,0,0,1-6.54-1.14V30.58a4,4,0,0,0,1.6.23c.56,0,1.19,0,1.87-.08S22.94,30.62,23.92,30.62Zm8.88,1.15a17.33,17.33,0,0,1,6.54-1.15c1,0,1.91.06,2.73.11s1.31.08,1.88.08a3.88,3.88,0,0,0,1.59-.23V12.73A17.53,17.53,0,0,1,39,13.87c-1,0-1.91-.06-2.73-.11s-1.31-.08-1.87-.08a4.08,4.08,0,0,0-1.6.23Zm4.84-5.18a1.17,1.17,0,1,1,0-2.33H40.7a1.17,1.17,0,1,1,0,2.33Zm-15.08,0a1.17,1.17,0,0,1,0-2.33h3.07a1.17,1.17,0,0,1,0,2.33Zm13.69-2.8a1.17,1.17,0,0,1,0-2.33h5.84a1.17,1.17,0,0,1,0,2.33Zm-15.07,0a1.17,1.17,0,1,1,0-2.33H27a1.17,1.17,0,1,1,0,2.33ZM36.25,21a1.17,1.17,0,0,1,0-2.33h5.84a1.17,1.17,0,0,1,0,2.33ZM21.18,21a1.17,1.17,0,1,1,0-2.33H27A1.17,1.17,0,1,1,27,21Z"/><path class="cls-1" d="M16.56,10.23a.68.68,0,0,1,.31.08A14.88,14.88,0,0,0,24.23,12c.94,0,1.82-.06,2.65-.11s1.38-.08,2-.08a4.88,4.88,0,0,1,2.75.61,4.92,4.92,0,0,1,2.76-.61c.61,0,1.28,0,2,.08S38.1,12,39,12a14.86,14.86,0,0,0,7.36-1.73.72.72,0,0,1,.32-.08.61.61,0,0,1,.34.1.65.65,0,0,1,.32.57V31.16a.66.66,0,0,1-.17.45,4.15,4.15,0,0,1-3.25,1c-.61,0-1.28,0-2-.08s-1.72-.1-2.65-.1A15,15,0,0,0,32,34.18h0a.66.66,0,0,1-.3.07.75.75,0,0,1-.32-.08,15.24,15.24,0,0,0-7.42-1.72c-.91,0-1.78,0-2.58.1s-1.38.08-2,.08a4.11,4.11,0,0,1-3.24-1,.63.63,0,0,1-.18-.45V10.9a.64.64,0,0,1,.33-.57.59.59,0,0,1,.34-.1m2.76,21.08c.57,0,1.21,0,1.9-.08s1.73-.11,2.7-.11a16.71,16.71,0,0,1,7,1.4V13.63a3.57,3.57,0,0,0-2.1-.45c-.57,0-1.21,0-1.91.08s-1.72.11-2.69.11a16.71,16.71,0,0,1-7-1.4v18.9a3.63,3.63,0,0,0,2.1.44M39,13.37c-1,0-1.88-.06-2.7-.11s-1.33-.08-1.9-.08a3.55,3.55,0,0,0-2.1.45V32.52a16.64,16.64,0,0,1,7-1.4c1,0,1.88.06,2.7.11s1.33.08,1.9.08a3.63,3.63,0,0,0,2.1-.44V12h0a16.64,16.64,0,0,1-7,1.4m3.09,5.79a.66.66,0,0,1,.66.67.65.65,0,0,1-.66.66H36.25a.65.65,0,0,1-.66-.66.66.66,0,0,1,.66-.67h5.84M27,19.16a.67.67,0,0,1,.67.67.66.66,0,0,1-.67.66H21.18a.66.66,0,0,1-.67-.66.67.67,0,0,1,.67-.67H27M42.09,22a.67.67,0,0,1,0,1.33H36.25a.67.67,0,0,1,0-1.33h5.84M27,22a.67.67,0,1,1,0,1.33H21.18a.67.67,0,1,1,0-1.33H27m13.69,2.8a.66.66,0,0,1,.67.66.67.67,0,0,1-.67.67H37.64a.67.67,0,0,1-.67-.67.66.66,0,0,1,.67-.66H40.7m-15.08,0a.66.66,0,0,1,.67.66.67.67,0,0,1-.67.67H22.56a.67.67,0,0,1-.66-.67.66.66,0,0,1,.66-.66h3.06m21.09,8.55a.67.67,0,0,1,.49,1.12,4.15,4.15,0,0,1-3.25,1c-.61,0-1.28,0-2-.08s-1.72-.11-2.65-.11A14.86,14.86,0,0,0,32,37a.68.68,0,0,1-.64,0,13.78,13.78,0,0,0-4.42-1.5v3a.67.67,0,0,1-.32.58.72.72,0,0,1-.34.09.68.68,0,0,1-.33-.09l-1.81-1-1.81,1a.62.62,0,0,1-.32.09.69.69,0,0,1-.34-.09.68.68,0,0,1-.33-.58V35.38c-.7,0-1.37.08-2,.08a4.11,4.11,0,0,1-3.24-1,.67.67,0,0,1,.49-1.12.68.68,0,0,1,.49.21,3,3,0,0,0,2.27.61c.57,0,1.21,0,1.9-.08s1.73-.11,2.7-.11a16.43,16.43,0,0,1,7.71,1.72,16.48,16.48,0,0,1,7.71-1.72c1,0,1.88.06,2.7.11s1.33.08,1.9.08a3.06,3.06,0,0,0,2.28-.61.67.67,0,0,1,.49-.21M22.63,37.42l1.14-.64a.72.72,0,0,1,.32-.08.73.73,0,0,1,.33.08l1.14.64V35.33h0c-.55,0-1.08-.06-1.6-.06s-.9,0-1.33,0v2.11M16.56,9.23a1.64,1.64,0,0,0-.86.24,1.67,1.67,0,0,0-.81,1.43V31.16a1.69,1.69,0,0,0,.44,1.13,2.91,2.91,0,0,0,.31.3,1.16,1.16,0,0,0-.21.16,1.67,1.67,0,0,0-.1,2.36,5.11,5.11,0,0,0,4,1.35l1,0v2.11A1.66,1.66,0,0,0,22,40.22a1.66,1.66,0,0,0,.81-.21l1.32-.74,1.33.74a1.66,1.66,0,0,0,2.47-1.46V36.72a13.12,13.12,0,0,1,2.95,1.16,1.68,1.68,0,0,0,.79.2,1.72,1.72,0,0,0,.8-.2,13.7,13.7,0,0,1,6.88-1.61c.9,0,1.76.06,2.59.11s1.41.08,2.05.08a5.1,5.1,0,0,0,4-1.35,1.67,1.67,0,0,0-.09-2.36l-.21-.16.3-.3a1.64,1.64,0,0,0,.44-1.13V10.9a1.68,1.68,0,0,0-.81-1.43,1.61,1.61,0,0,0-.85-.24,1.72,1.72,0,0,0-.8.2A13.7,13.7,0,0,1,39,11c-.9,0-1.76,0-2.59-.1s-1.41-.09-2-.09a6.78,6.78,0,0,0-2.76.47,6.73,6.73,0,0,0-2.75-.47c-.65,0-1.33,0-2.06.09s-1.68.1-2.59.1a13.73,13.73,0,0,1-6.88-1.61,1.68,1.68,0,0,0-.79-.2Zm1.66,21V13.44a18.25,18.25,0,0,0,6.05.93c1,0,1.93-.06,2.75-.11s1.31-.08,1.85-.08a5.48,5.48,0,0,1,1.1.09V31.05a18.29,18.29,0,0,0-6-.93c-1,0-1.93.06-2.76.11-.67,0-1.3.08-1.84.08a5.48,5.48,0,0,1-1.1-.09ZM39,14.37a18.23,18.23,0,0,0,6-.93V30.22a5.33,5.33,0,0,1-1.1.09c-.53,0-1.17,0-1.84-.08s-1.76-.11-2.76-.11a18.23,18.23,0,0,0-6,.93V14.27a5.33,5.33,0,0,1,1.1-.09c.53,0,1.17,0,1.84.08s1.76.11,2.76.11Zm3.09,3.79H36.25a1.67,1.67,0,0,0-.9,3.07,1.64,1.64,0,0,0-.76,1.39,1.66,1.66,0,0,0,1.66,1.67h.17a1.66,1.66,0,0,0,1.22,2.8H40.7a1.66,1.66,0,0,0,1.22-2.8h.17a1.66,1.66,0,0,0,1.66-1.67A1.64,1.64,0,0,0,43,21.23a1.67,1.67,0,0,0-.9-3.07ZM27,18.16H21.18a1.67,1.67,0,0,0-.91,3.07,1.64,1.64,0,0,0-.76,1.39,1.67,1.67,0,0,0,1.67,1.67h.16a1.7,1.7,0,0,0-.44,1.13,1.66,1.66,0,0,0,1.66,1.67h3.06a1.67,1.67,0,0,0,1.67-1.67,1.7,1.7,0,0,0-.44-1.13H27a1.66,1.66,0,0,0,.91-3.06,1.7,1.7,0,0,0,.76-1.4A1.67,1.67,0,0,0,27,18.16Z"/></g></g></svg>