<svg xmlns="http://www.w3.org/2000/svg" viewBox="0 0 61.1 59.34"><defs><style>.cls-1{fill:#f0ad4e;}.cls-2{stroke:#f0ad4e;stroke-miterlimit:10;stroke-width:0.2px;}</style></defs><g id="Layer_2" data-name="Layer 2"><g id="BG"><rect class="cls-1" width="61.1" height="59.34"/><path class="cls-2" d="M48.69,43.46a.63.63,0,0,0,.62-.63V24a.63.63,0,0,0-.62-.63H46.18a.63.63,0,1,0,0,1.25h1.88v2.09H44.3V21.31H46a.63.63,0,0,0,.63-.63V17.34a.63.63,0,0,0-.63-.63.63.63,0,0,0-.63.63v.21H42.45L30,10.11a.66.66,0,0,0-.64,0L16.9,17.55H14v-.21a.63.63,0,1,0-1.25,0v3.34a.63.63,0,0,0,.62.63h1.68v5.43H11.28V24.65h1.89a.63.63,0,0,0,0-1.25H10.66A.63.63,0,0,0,10,24v18.8a.63.63,0,1,0,1.25,0V28h3.77V41.37H13.37a.63.63,0,0,0-.62.63v2.71H10.66a.63.63,0,0,0-.63.63v3.34a.63.63,0,0,0,.63.63h38a.63.63,0,0,0,.62-.63V45.34a.63.63,0,0,0-.62-.63H46.6V42a.63.63,0,0,0-.63-.63H44.3V28h3.76V42.83A.63.63,0,0,0,48.69,43.46Zm-19-32.08L40,17.55H37.67L30,13a.64.64,0,0,0-.63,0l-7.68,4.52H19.35Zm5.53,6.17H24.15l5.52-3.25ZM48.06,46v2.09H11.28V46Zm-2.72-3.35v2.09H14V42.62ZM16.3,23.4V21.31H43.05V23.4Zm26.75,1.25V38H41.79V24.65ZM35.8,26.74V24.65h4.74v2.09ZM40.54,28V38H35.8V28Zm-6-3.35V38H33.29V24.65ZM29.67,35.1a.63.63,0,0,0-.62.63V38H27.3V28H32V38H30.3v-2.3A.63.63,0,0,0,29.67,35.1ZM27.3,26.74V24.65H32v2.09Zm-1.25-2.09V38H24.8V24.65Zm-7.24,2.09V24.65h4.73v2.09ZM23.54,28V38H18.81V28Zm-6-3.35V38H16.3V24.65Zm25.5,14.63v2.09H16.3V39.28ZM14,20.06V18.8H45.34v1.26Z"/></g></g></svg>