<svg xmlns="http://www.w3.org/2000/svg" viewBox="0 0 61.1 59.34"><defs><style>.cls-1{fill:#aee8fe;}</style></defs><g id="Layer_2" data-name="Layer 2"><g id="BG"><rect class="cls-1" width="61.1" height="59.34"/></g><g id="Main"><g id="Group_17" data-name="Group 17"><path id="Path_9" data-name="Path 9" d="M42.88,14.87H18.23a2.49,2.49,0,0,0-2.48,2.48V42a2.49,2.49,0,0,0,2.48,2.48H42.87A2.49,2.49,0,0,0,45.35,42V17.35a2.48,2.48,0,0,0-2.47-2.48Zm1,27.13a1,1,0,0,1-1,1H18.23a1,1,0,0,1-1-1h0V17.35a1,1,0,0,1,1-1H42.87a1,1,0,0,1,1,1h0V42Z"/><path id="Path_10" data-name="Path 10" d="M27.5,33.17a.74.74,0,0,0-1,0h0l-2.2,2.2-2.2-2.2a.73.73,0,1,0-1,1h0l2.2,2.2L21,38.6a.73.73,0,0,0,0,1,.7.7,0,0,0,.52.21.74.74,0,0,0,.51-.21l2.2-2.2,2.2,2.2a.72.72,0,0,0,.52.21.73.73,0,0,0,.51-1.25h0l-2.19-2.19,2.19-2.2A.73.73,0,0,0,27.5,33.17Z"/><path id="Path_11" data-name="Path 11" d="M28.11,22.89H25v-3.1a.73.73,0,0,0-1.46,0v3.1H20.44a.73.73,0,0,0,0,1.46h3.11v3.11a.73.73,0,0,0,1.46,0V24.35h3.1a.73.73,0,1,0,0-1.46Z"/><path id="Path_12" data-name="Path 12" d="M40.34,37.47H33.8a.73.73,0,0,0,0,1.46h6.54a.73.73,0,0,0,.73-.73.73.73,0,0,0-.72-.73Z"/><path id="Path_13" data-name="Path 13" d="M40.34,33.88H33.8a.73.73,0,0,0,0,1.46h6.54a.73.73,0,0,0,0-1.46Z"/><path id="Path_14" data-name="Path 14" d="M39.78,24.35a.73.73,0,1,0,0-1.46H33.23a.73.73,0,0,0,0,1.46h6.55Z"/></g></g></g></svg>