<svg xmlns="http://www.w3.org/2000/svg" viewBox="0 0 27 26"><defs><style>.cls-1{fill:#b2b9c4;}</style></defs><g id="Main"><path class="cls-1" d="M21.27,12.83l2-2a1.11,1.11,0,0,0-1.57-1.57l-2,2-2-2a1.11,1.11,0,0,0-1.57,1.57l2,2-2,2a1.11,1.11,0,0,0,1.57,1.57l2-2,2,2a1.11,1.11,0,0,0,1.57-1.57Z"/><path class="cls-1" d="M12.54,7.24l-3.81,2v7.5l3.81,2a.67.67,0,0,0,1-.59V7.83A.67.67,0,0,0,12.54,7.24Z"/><path class="cls-1" d="M6.85,9.58H4.1a.66.66,0,0,0-.66.66v5.52a.66.66,0,0,0,.66.66H6.85a.67.67,0,0,0,.67-.66V10.24A.67.67,0,0,0,6.85,9.58Z"/></g></svg>