<svg xmlns="http://www.w3.org/2000/svg" viewBox="0 0 61.1 59.34"><defs><style>.cls-1{fill:#a29cfe;}.cls-2{stroke:#a29cfe;stroke-miterlimit:10;stroke-width:0.3px;}</style></defs><g id="Layer_2" data-name="Layer 2"><g id="BG"><rect class="cls-1" width="61.1" height="59.34"/><path class="cls-2" d="M42.47,43H42.1V22a5.22,5.22,0,0,0-2.92-9.54H20.86a.75.75,0,0,0-.74.75v9.68a.74.74,0,0,0,.74.75h.75v1.86a.75.75,0,0,0,.75.75h2.23a.76.76,0,0,0,.75-.75V23.59h.74a.75.75,0,0,0,.75-.75V17.63H34a5.23,5.23,0,0,0,2.18,4.23V37.75H31.3A2.23,2.23,0,0,0,29.06,40v3H26.45v-6.7h5.22a1.49,1.49,0,0,0,1.49-1.49V32.9a.74.74,0,0,0-.75-.74H17.88a.74.74,0,0,0-.74.74v1.87a1.49,1.49,0,0,0,1.49,1.49h1.86V43H18.63a2.25,2.25,0,0,0-2.24,2.24v3a.75.75,0,0,0,.75.74H44a.74.74,0,0,0,.75-.74v-3A2.24,2.24,0,0,0,42.47,43ZM23.85,24.71H23.1V23.59h.75Zm1.49-2.61H21.61V19.49h3.73Zm0-4.1H21.61V13.9h3.73Zm1.49-1.86V13.9h8.69a5.32,5.32,0,0,0-1.34,2.24Zm8.62,1.49a3,3,0,0,1,.06-.61v0A3.73,3.73,0,1,1,41,20.88a3.71,3.71,0,0,1-3.72-.06h0A3.74,3.74,0,0,1,35.45,17.63Zm5.16,5v15.1h-3V22.61a5.39,5.39,0,0,0,1.55.23A5.25,5.25,0,0,0,40.61,22.65ZM30.55,40a.75.75,0,0,1,.75-.74h9.31V43H30.55ZM18.63,34.77V33.65h13v1.12ZM22,38.12V36.26h3v1.86Zm3,1.49V43H22V39.61Zm18.26,7.82H17.88V45.2a.76.76,0,0,1,.75-.75H42.47a.76.76,0,0,1,.75.75Z"/><path class="cls-2" d="M39.12,20.61a3,3,0,1,0-3-3A3,3,0,0,0,39.12,20.61Zm0-4.47a1.49,1.49,0,1,1-1.49,1.49A1.49,1.49,0,0,1,39.12,16.14Z"/><rect class="cls-2" x="31.67" y="40.35" width="4.84" height="1.49"/><rect class="cls-2" x="37.63" y="40.35" width="1.49" height="1.49"/></g></g></svg>