<svg xmlns="http://www.w3.org/2000/svg" viewBox="0 0 27 26"><defs><style>.cls-1{fill:#b2b9c4;}.cls-2{fill:none;stroke:#b2b9c4;stroke-linecap:round;stroke-miterlimit:10;stroke-width:2px;}</style></defs><g id="Main"><path class="cls-1" d="M13.81,7.24,10,9.25c0,.06,0-.42,0,7.5l3.81,2a.67.67,0,0,0,1-.59V7.83A.67.67,0,0,0,13.81,7.24Z"/><path class="cls-1" d="M8.12,9.58H5.37a.67.67,0,0,0-.67.66v5.52a.67.67,0,0,0,.67.66H8.12a.66.66,0,0,0,.66-.66V10.24A.66.66,0,0,0,8.12,9.58Z"/><path class="cls-2" d="M17.41,9.8h0a3.71,3.71,0,0,1,.24,6l-.24.2"/><path class="cls-2" d="M19.64,7.9h0a6,6,0,0,1,.4,9.67l-.4.31"/></g></svg>