<svg xmlns="http://www.w3.org/2000/svg" viewBox="0 0 405.74 384.34"><defs><style>.cls-1,.cls-6{fill:#f2f2f2;}.cls-1,.cls-10,.cls-11,.cls-12,.cls-13,.cls-14,.cls-15,.cls-16,.cls-3,.cls-4,.cls-5,.cls-7,.cls-8,.cls-9{fill-rule:evenodd;}.cls-2{opacity:0.7;}.cls-3{fill:#69a1ac;}.cls-4{fill:#89c5cc;}.cls-5{fill:#f9bc60;}.cls-7{fill:#57331f;}.cls-8{fill:#191847;}.cls-9{fill:#273eaf;}.cls-10{fill:#3d2216;}.cls-11{fill:#e4e4e4;}.cls-12{fill:#3f53e0;}.cls-13{fill:none;stroke:#142322;stroke-linecap:round;stroke-linejoin:round;stroke-width:1.4px;}.cls-14{fill:#043f3d;}.cls-15{fill:#dde3e9;}.cls-16{fill:#0a605f;}</style></defs><g id="Layer_2" data-name="Layer 2"><g id="Layer_1-2" data-name="Layer 1"><path id="Leaf-Bottom" class="cls-1" d="M126.2,53.12c-3.74-1.85-8.72.3-6.64,5.2,2.23,5.24,10.45,5.3,15.1,5.2-.47,0-2-4.83-2.48-5.56A15.8,15.8,0,0,0,126.2,53.12Zm-3.6,23.72a4.44,4.44,0,0,0-.51,6.62c2.13,2.38,6,2.29,8.91,2.06,1.31-.11,8.31-.67,6.65-1.81a5.11,5.11,0,0,1,.68.32c.16.56.32,1.12.49,1.68l-.12.07.12-.06A64,64,0,0,0,146,101.53a15.47,15.47,0,0,0-3.63-1c-3.65-.46-11.33,2.38-7.25,7.24,3.92,4.66,10-.34,14.46-1a209,209,0,0,0,14,17.36,1.2,1.2,0,0,0-.72.61c-2-1-4.09-2.47-5.94-2.86-2.67-.57-8.14-.91-10.16,1.48-2.48,2.94.18,5.32,3.11,5.89,4.26.81,9.82-1.26,13.91-2.67a1.33,1.33,0,0,0,1.28-.42l.27-.09c5.05,5.55,10.29,10.91,15.49,16.16h-.17a14.22,14.22,0,0,0-4.39-2c-3.65-.89-7.95-.89-10.91,1.75s-4,7.24-.95,10.19c6.12,5.92,15.12-7.57,18.21-8.13,5.29,5.27,10.88,10.2,16.57,15a10.34,10.34,0,0,0-2-.41c-5.58-.53-18.66,6.3-11.82,13,6,5.86,12.86-5.41,17.66-9.35,5.36,4.5,10.74,9,16,13.61a15.15,15.15,0,0,0-8.67.06c-3.16,1-8.27,3.35-6.27,7.62s8.17,2.37,11.36,1c1.75-.75,5.24-3.29,8.31-4.36A105.07,105.07,0,0,1,244.88,207a92.18,92.18,0,0,1,7.84,20.22c1.16,4.48,3.46,12,3,17.82,2.19-11.66-1.77-25.66-6-36.09A87.72,87.72,0,0,0,233,183.4c1.73-5.19,16.26-12.68,7.57-17.51-4.61-2.55-9.34,1.69-10.34,6.17-.7,3.08.36,6.95,1.48,9.94q-3.26-3.47-6.73-6.71c-3.21-3-6.49-5.88-9.8-8.74,5.46-5.13,10.62-19.79,3.31-22.18-10.81-3.53-5.61,16.46-4.85,20.21a.61.61,0,0,0,.5-.19c-.06.34-.13.71-.22,1.08-6.34-5.46-12.77-10.8-19-16.38a28.39,28.39,0,0,0,2.15-2.84,31.8,31.8,0,0,0,4.2-6.1c1.75-3.52,3.43-9.12-1.2-11.18-5-2.25-7.42,4.08-7.46,7.86,0,2.61.69,5.1,1.06,7.66.12.8-.33,4.4.76,2.85a7.25,7.25,0,0,0,0,1.28q-1.68-1.51-3.33-3.05a1.42,1.42,0,0,0,.1-.44,1.31,1.31,0,0,0-1.87-1.23c-1.46-1.38-2.89-2.78-4.31-4.2-3-3-6-6.13-9.05-9.3.66-.57.4-1.35,1-1.94a29,29,0,0,1,2.53-1.48,17.23,17.23,0,0,0,4.39-5.42c1.79-3.3,4.11-10.22-1.12-11.79-5.39-1.63-8.13,5-8.48,9.2-.06.81.54,8.08,1,10.72-5.58-5.9-11.07-12-16.05-18.24,1.51,0,5.79-3.11,6.65-4,2.11-2.06,5.47-6.6,1.77-9-3.29-2.13-7.35,1-8.75,4a41.85,41.85,0,0,0-1.11,7.16c-2.06-2.64-4-5.29-5.85-8-1.22-1.77-2.36-3.59-3.43-5.44a2.48,2.48,0,0,0,.73-.72c5.48-.93,12.48-9.49,6-12.46-3.06-1.42-6.39,1.5-7.89,3.9a30.7,30.7,0,0,0-1.21,4.89A103.05,103.05,0,0,1,139,72.48a1.2,1.2,0,0,0,.94-1.11c2.66-1.52,4.76-2.79,6.62-5.71,1.16-1.81,3.24-5.95-.15-7-4.42-1.31-7.19,5.44-7.56,8.76,0,.39,0,1.51,0,2.54a1.42,1.42,0,0,0-.46,0c-1-4.13-1.83-8.32-2.47-12.51,2.41-.78,2.83-13.44,1.22-15.24-3.59-4-6.12,1.79-5.92,4.88A20.31,20.31,0,0,0,135,57c.21.31.15.29.2-.14a1,1,0,0,0,.21.49,53.74,53.74,0,0,0-.2,5.56,128.42,128.42,0,0,0,1.65,14.5c.2,1.17.43,2.32.69,3.46A28.22,28.22,0,0,0,132,77.3C129.32,76.11,125.23,74.83,122.6,76.84ZM256,245.08a13.48,13.48,0,0,1-1,4.51A34.38,34.38,0,0,0,256,245.08Z"/><g id="Plant-Right" class="cls-2"><path id="Leaf-Me-Alone_" data-name="Leaf-Me-Alone!" class="cls-3" d="M198.86,167.59c10.38-.54,23.21,5.52,24.31,16.79.81,8.2.56,16.37,1.8,24.55a66.32,66.32,0,0,0,6,18.77c2.76,5.73,8.49,10.6,10,16.72a26.34,26.34,0,0,1-.89,13.2c-1.6,4.64-.75,4.27,2.42,8.16,6.22,7.63,11.81,15.44,15.77,24.55,5.7,13.12,9.43,28.45,7.32,42.81-.27,1.82-.59,8.36-3.1,8.82-2.8.51-1.49-3.23-1.34-4.44.95-7.71,1.8-14.45.65-22.29-4.44-30.22-26.12-50.13-40.24-75.78-.78-1.33-2.42-4.48-3.55-6.55-1.8-3.28-3.61-9.53-6.05-12-4.58-4.58-.37,4.63.53,6.39,1.13,2.22,2.37,4.59,3.53,6.54,5.29,9,11.21,18.9,16.68,28.22C209,267.48,192.33,239,186,220.33c-5.23-15.4-11.49-51.42,12.88-52.74"/><path id="Leaf-Me-Alone_2" data-name="Leaf-Me-Alone!" class="cls-4" d="M337.92,139c-17.35,1.37-28.48,12.82-33.67,28.83-2.79,8.62-3.11,17.48-4.66,26.35-2.34,13.34-7.36,23.44-17.18,32.94a33.5,33.5,0,0,0-6.88,9.2,39.37,39.37,0,0,0-7.94,11.35c-2.58,5.7-3.31,12.54-.33,18.23.81,1.52,2.81,4.59,4.88,6-7.76,16.53-12,34.64-11.55,52.73.29,10.92.82,21.84,1.44,32.75.17,2.92,1.12,7.76,2.56,2.85,1.31-4.49-.34-11.54-.49-16.24-.74-22.86-1.37-43.64,8-65q1.49-3.36,3.12-6.66l.18-.12.13.09c.07-.12.16-.27.27-.43a6.14,6.14,0,0,0,.85-1.19c.83-1.15,1.78-2.51,1.78-3.26v0a305.58,305.58,0,0,1,19.31-27.3c0,.06,7.39-10.07,6.24-4.47-.55,2.7-6,7.85-8.24,10.71a265.29,265.29,0,0,0-15.41,22.23c-.64.37-1.55,2.18-2.2,3.53-.37.68-.71,1.37-1,2,16.92,5.59,30.07-5.67,39-18.76,0,0,0,0,0-.05a57.31,57.31,0,0,1,9-10.06c5.82-4.78,12.07-5.62,18.94-8,18.74-6.4,26.71-30.69,29.24-48.71C376.27,168.15,362.3,137,337.92,139"/><path id="Leaf-Me-Alone_3" data-name="Leaf-Me-Alone!" class="cls-4" d="M303.66,82c-17.8,18.52-26.4,44.22-33.21,68.38-7.61,27-12.63,54.37-12.82,82.42-.13,18.43-.63,37,.44,55.39.38,6.54,1,13.09,2.07,19.55.09.53,2.41,15,4.62,11.61,1.27-1.91-2.37-15-2.65-17.16a283.14,283.14,0,0,1-1.83-37c.13-20.33-.47-40.55,1.59-60.81a68.5,68.5,0,0,1,1.27-9.15c.76-3.15-.21-1.78,2.27-3s5.4-1,7.9-2.56c9.94-6,15-21.49,19-31.65,4.53-11.61,7.28-24,9.47-36.2a252.79,252.79,0,0,0,3.42-27,72,72,0,0,1,.78-8.68,21,21,0,0,0,.89-2.77c-.06-1.43-.92-2.27-1-3.46-.75.67-1.48,1.36-2.19,2.06"/><path id="Base" class="cls-5" d="M206.6,328.87a55.48,55.48,0,0,0,111,0"/><path id="Leaf-Me-Alone_4" data-name="Leaf-Me-Alone!" class="cls-3" d="M266.52,329h-2.93a96.27,96.27,0,0,1,1.09-11c2.35-13.91,9.7-34.34,25.83-36.6a41.63,41.63,0,0,1,5.43.06,9.76,9.76,0,0,1,4.15-1.22c13.73-1,29.06,10.06,35.68,21.59,5.34,9.29,4.44,21.49,1.14,31.37-2.2,6.61-7,16-15.06,16.12-10.06.12-10.54-12.31-10.73-19.57-.26-9.66-1.48-18.08-9.09-24.66-1.78-1.53-3.72-2.88-5.51-4.4-2.8-2.36-5.9-4.79-6.27-8.7-.5-5.41,2.55-6.38,7.21-5.38.8.17,8.79,3.76,7.61.93-.36-.87-1.68-1.56-3.35-2.07-4.31-.47-9.45-1-10.93-.69-16,3.5-22.17,25.6-23.82,39.64C266.79,326,266.65,327.52,266.52,329Z"/></g><circle class="cls-6" cx="189.81" cy="15.2" r="2.88" transform="translate(133.64 197.15) rotate(-77.42)"/><circle class="cls-6" cx="190.25" cy="2.88" r="2.88" transform="translate(146.01 187.94) rotate(-77.42)"/><circle class="cls-6" cx="202.13" cy="15.64" r="2.88" transform="translate(142.85 209.51) rotate(-77.42)"/><circle class="cls-6" cx="202.57" cy="3.32" r="2.88" transform="translate(155.21 200.31) rotate(-77.42)"/><circle class="cls-6" cx="214.45" cy="16.08" r="2.88" transform="translate(152.05 221.88) rotate(-77.42)"/><circle class="cls-6" cx="214.89" cy="3.76" r="2.88" transform="translate(164.42 212.67) rotate(-77.42)"/><circle class="cls-6" cx="226.76" cy="16.52" r="2.88" transform="translate(161.26 234.24) rotate(-77.42)"/><circle class="cls-6" cx="227.2" cy="4.2" r="2.88" transform="translate(173.63 225.04) rotate(-77.42)"/><circle class="cls-6" cx="239.08" cy="16.96" r="2.88" transform="translate(170.47 246.61) rotate(-77.42)"/><circle class="cls-6" cx="239.52" cy="4.64" r="2.88" transform="translate(182.83 237.4) rotate(-77.42)"/><circle class="cls-6" cx="251.4" cy="17.4" r="2.88" transform="translate(179.67 258.97) rotate(-77.42)"/><circle class="cls-6" cx="251.84" cy="5.08" r="2.88" transform="translate(192.04 249.77) rotate(-77.42)"/><path id="Path_9" data-name="Path 9" class="cls-6" d="M380.5,223.28l20.51-.34a2.06,2.06,0,0,0,2-2.09l-.33-20.51a2.07,2.07,0,0,0-2.1-2l-20.51.33a2.07,2.07,0,0,0-2,2.1l.34,20.51a2.05,2.05,0,0,0,2.09,2Zm-1.21-22.57a.83.83,0,0,1,.83-.85h0l20.51-.34a.84.84,0,0,1,.86.83h0l.33,20.52a.85.85,0,0,1-.83.86h0l-20.51.33a.85.85,0,0,1-.86-.83h0l-.33-20.52Z"/><path id="Path_10" data-name="Path 10" class="cls-6" d="M311.73,95.44a1.43,1.43,0,0,0,2,0h0L318,91l4.36,4.22a1.43,1.43,0,1,0,2-2.05h0L320,89l4.22-4.36a1.44,1.44,0,0,0-1.05-2.43,1.44,1.44,0,0,0-1,.44L317.91,87l-4.37-4.22a1.36,1.36,0,0,0-1-.4,1.43,1.43,0,0,0-1,2.45h0l4.37,4.23-4.23,4.36A1.45,1.45,0,0,0,311.73,95.44Z"/><path id="Path_10-2" data-name="Path 10" class="cls-6" d="M396.68,121.86a1,1,0,0,0,1.41,0h0l2.93-3,3,2.94a1,1,0,0,0,1.4,0,1,1,0,0,0,0-1.41h0l-3-2.94,2.93-3a1,1,0,0,0,0-1.4.94.94,0,0,0-.71-.28,1,1,0,0,0-.7.3L401,116l-3-2.94a1,1,0,0,0-1.4,0,1,1,0,0,0,0,1.4h0l3,2.94-2.93,3A1,1,0,0,0,396.68,121.86Z"/><path id="Path_11" data-name="Path 11" class="cls-6" d="M387.64,211.89l2.58,0,0,2.59a.61.61,0,1,0,1.22,0l0-2.59,2.58,0a.61.61,0,1,0,0-1.21l-2.58,0-.05-2.59a.61.61,0,1,0-1.21,0l0,2.59-2.58,0a.61.61,0,0,0-.6.62.61.61,0,0,0,.62.6Z"/><path id="Path_9-2" data-name="Path 9" class="cls-6" d="M265.41,77.66l20.52-.34a2.06,2.06,0,0,0,2-2.09l-.33-20.51a2.07,2.07,0,0,0-2.1-2L265,53a2.06,2.06,0,0,0-2,2.1l.33,20.51a2.06,2.06,0,0,0,2.09,2ZM264.2,55.09a.83.83,0,0,1,.83-.85h0l20.51-.34a.84.84,0,0,1,.86.83h0l.34,20.52a.86.86,0,0,1-.83.86h0l-20.51.33a.83.83,0,0,1-.86-.83h0l-.34-20.52Z"/><path id="Path_11-2" data-name="Path 11" class="cls-6" d="M272.55,66.27l2.58,0,.05,2.58a.61.61,0,1,0,1.21,0l0-2.58,2.58,0a.61.61,0,1,0,0-1.21l-2.58,0,0-2.59a.61.61,0,0,0-.62-.59.6.6,0,0,0-.6.61l0,2.59-2.58,0a.61.61,0,0,0-.6.62.61.61,0,0,0,.62.6Z"/><path id="Path_12" data-name="Path 12" class="cls-6" d="M360.08,97.28,375.52,97a1.73,1.73,0,1,0,0-3.45L360,93.83a1.73,1.73,0,1,0,0,3.45Z"/><path id="Path_13" data-name="Path 13" class="cls-6" d="M360.22,105.74l15.44-.25a1.73,1.73,0,0,0-.06-3.45l-15.43.26a1.72,1.72,0,1,0,.05,3.44Z"/><path id="Path_10-3" data-name="Path 10" class="cls-6" d="M234.86,175.52a1,1,0,0,0,1.4,0h0l2.94-3,3,2.94a1,1,0,0,0,1.39-1.43h0l-3-2.94,2.94-3a1,1,0,0,0,0-1.4,1,1,0,0,0-.71-.28,1,1,0,0,0-.7.3l-2.94,3-3-2.94a1,1,0,0,0-.71-.27,1,1,0,0,0-.67,1.7h0l3,2.94-2.94,3A1,1,0,0,0,234.86,175.52Z"/><path id="Path_10-4" data-name="Path 10" class="cls-6" d="M294.55,227.88a1,1,0,0,0,1.4,0h0l2.94-3,3,2.93a1,1,0,1,0,1.38-1.42h0l-3-2.94,2.94-3a1,1,0,0,0,0-1.41,1,1,0,0,0-1.41,0l-2.94,3-3-2.94a1,1,0,0,0-.71-.28,1.09,1.09,0,0,0-.7.3,1,1,0,0,0,0,1.41h0l3,2.94-2.94,3A1,1,0,0,0,294.55,227.88Z"/><path id="Path_12-2" data-name="Path 12" class="cls-6" d="M248,202.91l8.89-.15a1,1,0,0,0,0-2l-8.88.14a1,1,0,1,0,0,2Z"/><path id="Path_13-2" data-name="Path 13" class="cls-6" d="M248.07,207.78l8.89-.15a1,1,0,0,0,0-2l-8.88.14a1,1,0,0,0,0,2Z"/><path id="Path_14" data-name="Path 14" class="cls-6" d="M147.32,275.8a1,1,0,1,0,0,2h0l8.89-.15a1,1,0,0,0,0-2h0Z"/><g id="Head_Front_Pony" data-name="Head/Front/Pony"><g id="Head"><path class="cls-7" d="M146.57,87.17c-2-5.47-2.59-11.46-.1-17C153.64,54,175.3,66,176.74,76s-6.79,30.91-13.11,30.3c-2.52-.25-6.9-3.49-10.8-8.32l-4.94,23.33-18.51-6.74Z"/></g><path id="hair" class="cls-8" d="M153.4,88.34c-3.9,3.57-8.29,5.73-11.46,4.58-6-2.19-7.38-11.81-4.23-20.47.12-.31.23-.61.35-.9-8,2-16,8.88-24.45,5.81-11.48-4.17-7.61-29,8.42-23.14,10.91,4,15.69,7.51,19.46,11.54A16,16,0,0,1,147.76,61a6.63,6.63,0,0,1,2.32-.64,9.66,9.66,0,0,1,1.77-.1,40.94,40.94,0,0,1,12,2.22c.86.28,1.69.57,2.49.88A8.21,8.21,0,1,1,171.69,74a41.1,41.1,0,0,1-9.16-1.68,17.36,17.36,0,0,1-1,4.32,25,25,0,0,1-2,4.15,3.86,3.86,0,0,0-2.14-2.38,4.93,4.93,0,0,0-6.32,3C150,84.41,150.91,87.24,153.4,88.34Z"/></g><path class="cls-9" d="M170.92,262.94l0,0-.27.19q-1.57,1.08-3.18,2.07c-1.08.67-2.18,1.31-3.28,1.92a67.66,67.66,0,0,1-33,8.52q-5.37,0-11.25-.52a187.79,187.79,0,0,1-22.15-3.41c-5.6-1.18-9.46-3.62-15.58-5.34l2.25-1.17c2.35-1.2,2.66-1.31,4.93-2.33h0q4-1.81,7.89-3.22,14.2-5.21,26.07-5.21h1.09c2.78,0,5.73.21,8.84.51a191.55,191.55,0,0,1,29.61,5.71c2.61.69,5.28,1.43,8,2.24Z"/><path id="Leg" class="cls-10" d="M148.15,283.61a4.53,4.53,0,0,1-.48-.93c-2.63-7-44.8-82.08-49-95.81h47.49c3.19,10.44,17.57,76,19.59,89,6.39,20.62,19.53,87.41,21.21,92,1.76,4.87-8.17,9.94-10.82,4-4.21-9.52-14.24-35.87-18.71-51.95C153.23,304.87,149.82,291.3,148.15,283.61Z"/><path id="Leg-2" data-name="Leg" class="cls-7" d="M109.3,292.78C90,297.66,19.5,306.47,14.66,307.85S5.31,299,11.47,296.78c9.79-3.53,36.77-11.71,53.13-15,13.16-2.68,25.16-4.87,33.22-6.15-.68-22.65-3.8-77-1.75-88.72h42c-2,11.25-18.55,93.37-21.63,101.59C115.47,291.39,112.55,292.69,109.3,292.78Z"/><g id="Accessories_Shoe_Flat-Sneaker" data-name="Accessories/Shoe/Flat-Sneaker"><path id="shoe" class="cls-11" d="M11.92,294.05a17.65,17.65,0,0,0-5.66-.4A41.5,41.5,0,0,0,0,295.51l8,45.6c4.13.5,6.12-.56,6-3.17s-.23-4.78-.28-6.51l5.71-22.87a.82.82,0,0,0-.6-1h0l-3.54-.78a14.74,14.74,0,0,1-2.67-5.47,13.19,13.19,0,0,1,.57-5.23h0a1.63,1.63,0,0,0-1.17-2Z"/></g><g id="Accessories_Shoe_Flat-Sneaker-2" data-name="Accessories/Shoe/Flat-Sneaker"><path id="shoe-2" data-name="shoe" class="cls-11" d="M173.12,371.12a17.6,17.6,0,0,0-1.38,5.51,41.59,41.59,0,0,0,.74,6.48h46.31q1.82-6-2.08-6.44c-2.59-.32-4.75-.61-6.46-.86l-21.53-9.6a.82.82,0,0,0-1.08.42v0L186.25,370a14.8,14.8,0,0,1-5.86,1.68,13.3,13.3,0,0,1-5-1.47h0a1.63,1.63,0,0,0-2.17.8Z"/></g><path class="cls-12" d="M170.92,263.7c-1.16.57-2.32,1.08-3.5,1.53s-2.28.82-3.44,1.14c-7.67,2.2-15.74,2.16-24,1.31-5.92-.62-11.92-1.66-17.92-2.6-8.33-1.31-16.64-2.43-24.73-2a48.16,48.16,0,0,0-15,3.12c2.35-1.2-2.44.83-.17-.19-2.2.63,1-1,0-1-6.17-14.23-.63-43.2,7.8-63.65l-1.93-.52a62.85,62.85,0,0,1,8-13.81l.16-.2.92-.26h0l.92-.25q22.28-6,42.59-1.64,1.37.28,2.73.63c.36.08.72.18,1.08.27l.14,0c1.39.36,2.78.77,4.16,1.21.42,1.92.88,3.75,1.39,5.52.24.86.49,1.7.74,2.53h0c.73,2.34,1.53,4.57,2.37,6.74,6.52,16.95,15.57,30,17.61,61.28v0a.22.22,0,0,1,0,.08C170.89,263.27,170.91,263.48,170.92,263.7Z"/><path class="cls-13" d="M165.41,223.38c.72,1.84,1.42,3.74,2.09,5.73"/><path class="cls-13" d="M169.17,234.46a134.83,134.83,0,0,1,4.75,29.24c-1,.5-2,.95-3,1.35l-.28.11a41.27,41.27,0,0,1-6.86,2c-8.05,1.66-16.49,1.14-25.06,0-5.33-.71-10.7-1.65-16.07-2.46-8.55-1.29-17.06-2.24-25.31-1.34a49.47,49.47,0,0,0-8,1.53h0a45,45,0,0,0-6.6,2.64c-6.17-14.23-1.13-43.7,7.3-64.15a83.17,83.17,0,0,1,5.72-11.57c.65-1,1.3-2,2-3l.06-.09c.1-.14.2-.29.31-.42.38-.52.76-1,1.15-1.49q21.9-6.26,41.93-2.64c.33.05.65.11,1,.18l.91.18c.66.13,1.31.27,2,.43,2.28.52,4.53,1.13,6.77,1.85a93.35,93.35,0,0,0,2.74,9.89c.25.78.52,1.54.79,2.3.39,1.09.79,2.15,1.21,3.2,2.44,6.26,5.22,12,7.84,18.42"/><g id="Body_Jacket-2" data-name="Body/Jacket-2"><path id="Skin" class="cls-7" d="M240.48,169.51A70.72,70.72,0,0,0,222.79,177l-8.25,1.24-.32,0-23.64,3.55,5.95,13.85.13.31,3.19-1.31.07,0,11.86-4.85,4.06-1.66,6.82-2.79q17,1.38,16.37-1c-.61-2.43-4-1.79-4.64-3.37s2.93-4.92,6.49-8S242,169.45,240.48,169.51ZM73.05,154q-14.36,19.77-22.51,30.36h0q-7.89,10.23-10,11.85c-2.1,1.62-13.13,4.28-20.4,5.34-2.91.42-2.94,2.76-2.36,3.67,4.71,7.37,11.52,4.66,18.65,4.81,7.81.16,3.21,8.19,9.36,8.4.13-4.2-.36-12.36,3.42-15.74q.59-.53,3.08-3.08,8.09-8.31,36.22-38Z"/><path class="cls-14" d="M211.84,186.13l-4.06,1.66a80.3,80.3,0,0,1-11.86,4.85l-.07,0L192.66,194l-.13-.31c-12.42,3.5-25.88,4.56-35.21,2l0,.62c0,.39-.07.85-.13,1.34a22.29,22.29,0,0,1-6.28-2.74,14.41,14.41,0,0,1-2.26-1.87c-.4-.41-.78-.83-1.14-1.27a28.24,28.24,0,0,1-3.3-4.86l0,0c-.27-.49-.53-1-.78-1.52a40.38,40.38,0,0,1-1.93-4.8c-2.4-7.19-3.3-15.77-3.22-24.72a175.72,175.72,0,0,1,4.62-36.36c.82-3.57,1.69-6.95,2.58-10,.16-.57.33-1.12.49-1.67l3.48.33,1.28.12,2.43.23a39.12,39.12,0,0,1,2.25,4.38c8.48,19.27,6.37,50.87,14.48,57.6,8.28,6.86,22.8,6.25,40.23,4.85l.16,1,1.52,9.3Z"/><path class="cls-13" d="M212,185.38l-.3.18c-1.25.78-2.58,1.52-4,2.23a80.3,80.3,0,0,1-11.86,4.85l-.07,0c-1.1.36-2.2.69-3.32,1-12.42,3.5-25.88,4.56-35.21,2a21.09,21.09,0,0,1-7.18-3.31,13.11,13.11,0,0,1-1.52-1.34,24.21,24.21,0,0,1-1.92-2.23c-.48-.62-.94-1.28-1.37-1.95-.26-.4-.5-.8-.74-1.21l-.11-.19a37.07,37.07,0,0,1-2.81-6.25c-2.39-6.8-3.39-14.89-3.45-23.39a169.61,169.61,0,0,1,4.21-36.51c.92-4.22,1.93-8.19,2.95-11.76.18-.61.35-1.21.53-1.79l3.44.33.55,0,1.19.11,2,.19c.29.48.57,1,.84,1.48a38.52,38.52,0,0,1,1.71,3.6c8.13,19.33,6.17,50.25,14.18,56.9,8.28,6.86,22.8,6.25,40.23,4.85l.48,2.95Z"/><path class="cls-15" d="M157.32,195.69l0,.62c0,.39-.07.85-.13,1.34-.29,2.13-1.07,4.76-3.34,4.15l-.56-.15-3.62-1-8.6-2.3-3.67-1c-.41-.11-.82-.23-1.23-.33L98.73,187l-.65-.17-1-.26-4.2-1.12c12-34.38,23.69-60.08,41.51-79q2-2.13,4.11-4.12c.3-.3.6-.59.91-.87l.77.34,5.09,2.25,4,1.78.55.25,1.11.49,2.93,1.29,2.35,1c-.23.86-.44,1.71-.64,2.56-.11.43-.21.87-.3,1.3C148.37,144,158.62,172.32,157.32,195.69Z"/><path class="cls-16" d="M145.53,120.44q.06,35.63-3.86,58.77h0c-.08.45-.15.89-.23,1.32h0c-.1.56-.2,1.12-.31,1.67-.15.85-.32,1.67-.49,2.49s-.29,1.44-.44,2.15q-1.27,5.73-2.83,10.54a73.22,73.22,0,0,1-2.71,7.16,0,0,0,0,0,0,0,46.86,46.86,0,0,1-4.23,7.63l-23-6.16-12.05-3.23L90,201.39l-1.93-.52L79,198.43c4.34-12.74,10.8-25.71,18.19-38.06q-4.89,5-9.42,9.49c1.14-2.11-.7.43-1.54,1.52h0c-.28.34-.44.54-.37.36s.17-.32.4-.71c-2.16,2.22-4.13,4.23-5.93,6l-.19.18C67.44,189.93,62.68,193.36,53.2,200l-2.56-1.25-2.36-1.15L40.88,194q2.7-6,5.65-11.64h0q31.2-59.71,90.08-79.37l1.92-.62,1.68-.53.23-.07,4.83,1.29,0,1c0,1.15.05,2.3.07,3.43h0c0,.63,0,1.26,0,1.88h0Q145.51,115.08,145.53,120.44Z"/><path class="cls-13" d="M113.15,113a155.89,155.89,0,0,1,23.47-10l1.92-.62,1.68-.53.23-.07c.62-.2,1.24-.39,1.87-.57l.2,0,6.76,1.81c0,.94.05,1.88.07,2.81v.2c0,.67,0,1.34,0,2q.06,2.93.09,5.76.5,43.2-4.5,69.16c-.16.83-.32,1.65-.5,2.45,0,0,0,0,0,0a.32.32,0,0,1,0,.14c-.08.42-.17.84-.26,1.25,0,0,0,0,0,0A109,109,0,0,1,141,198.38a52.85,52.85,0,0,1-7.27,14.74l-.78-.21-2.57-.69-23-6.16-12.05-3.23L90,201.39l-1.93-.52L79,198.43c4.34-12.74,10.8-25.71,18.19-38.06q-4.89,5-9.42,9.49l-1.54,1.52h0l-.37.36q-2.83,2.77-5.53,5.33l-.19.18q-16,15.15-27.09,22.67"/><path class="cls-13" d="M43.16,195.15,40.88,194q2.7-6,5.65-11.64h0q20.73-39.67,53.69-61.67"/></g></g></g></svg>