<svg xmlns="http://www.w3.org/2000/svg" viewBox="0 0 346.86 428.63"><defs><style>.cls-1{fill:#f2f2f2;}.cls-2,.cls-9{fill:#0a605f;}.cls-3,.cls-4{fill:#fffffe;}.cls-3{stroke:#061e1d;stroke-width:2.1px;}.cls-14,.cls-3{stroke-linecap:round;stroke-linejoin:round;}.cls-5{fill:#061e1d;}.cls-6{fill:#001e1d;}.cls-7{fill:#b28b67;}.cls-10,.cls-11,.cls-12,.cls-13,.cls-14,.cls-15,.cls-16,.cls-17,.cls-18,.cls-7,.cls-8,.cls-9{fill-rule:evenodd;}.cls-8{fill:#2c2c2c;}.cls-10{fill-opacity:0.2;}.cls-11{fill:#997659;}.cls-12{fill:#e4e4e4;}.cls-13{fill:#eda443;}.cls-14{fill:none;stroke:#142322;stroke-width:1.4px;}.cls-15{fill:#f9bc60;}.cls-16{fill:#c5cfd6;}.cls-17{fill:#323337;}.cls-18{fill:#dde3e9;}</style></defs><g id="Layer_2" data-name="Layer 2"><g id="Layer_1-2" data-name="Layer 1"><circle class="cls-1" cx="2.88" cy="71.1" r="2.88" transform="translate(-67.14 58.43) rotate(-77.42)"/><circle class="cls-1" cx="3.32" cy="58.78" r="2.88" transform="translate(-54.77 49.22) rotate(-77.42)"/><circle class="cls-1" cx="15.2" cy="71.54" r="2.88" transform="translate(-57.93 70.8) rotate(-77.42)"/><circle class="cls-1" cx="15.64" cy="59.22" r="2.88" transform="translate(-45.57 61.59) rotate(-77.42)"/><circle class="cls-1" cx="27.52" cy="71.98" r="2.88" transform="translate(-48.73 83.16) rotate(-77.42)"/><circle class="cls-1" cx="27.96" cy="59.66" r="2.88" transform="translate(-36.36 73.95) rotate(-77.42)"/><circle class="cls-1" cx="39.83" cy="72.42" r="2.88" transform="translate(-39.52 95.52) rotate(-77.42)"/><circle class="cls-1" cx="40.27" cy="60.1" r="2.88" transform="translate(-27.16 86.32) rotate(-77.42)"/><circle class="cls-1" cx="52.15" cy="72.86" r="2.88" transform="translate(-30.32 107.89) rotate(-77.42)"/><circle class="cls-1" cx="52.59" cy="60.54" r="2.88" transform="translate(-17.95 98.68) rotate(-77.42)"/><circle class="cls-1" cx="64.47" cy="73.3" r="2.88" transform="translate(-21.11 120.25) rotate(-77.42)"/><circle class="cls-1" cx="64.91" cy="60.98" r="2.88" transform="translate(-8.75 111.05) rotate(-77.42)"/><path id="Path_9" data-name="Path 9" class="cls-1" d="M193.57,279.18l20.51-.34a2.06,2.06,0,0,0,2-2.09l-.33-20.51a2.07,2.07,0,0,0-2.1-2l-20.51.33a2.07,2.07,0,0,0-2,2.1l.34,20.51a2.05,2.05,0,0,0,2.09,2Zm-1.21-22.57a.83.83,0,0,1,.83-.85h0l20.51-.34a.85.85,0,0,1,.86.83h0l.33,20.52a.85.85,0,0,1-.83.86h0l-20.51.33a.85.85,0,0,1-.86-.83h0l-.33-20.52Z"/><path id="Path_10" data-name="Path 10" class="cls-1" d="M124.8,151.34a1.43,1.43,0,0,0,2,0h0l4.23-4.36,4.36,4.23a1.43,1.43,0,0,0,2-2.06h0L133,144.88l4.22-4.36a1.44,1.44,0,0,0-1-2.43,1.44,1.44,0,0,0-1,.44L131,142.89l-4.37-4.22a1.38,1.38,0,0,0-1-.4,1.43,1.43,0,0,0-1,2.45h0L129,145l-4.23,4.36A1.45,1.45,0,0,0,124.8,151.34Z"/><path id="Path_10-2" data-name="Path 10" class="cls-1" d="M209.75,177.76a1,1,0,0,0,1.41,0h0l2.93-3,3,2.94a1,1,0,1,0,1.39-1.43h0l-3-2.94,2.94-3a1,1,0,0,0,0-1.4.94.94,0,0,0-.71-.28,1,1,0,0,0-.7.3l-2.93,3L211,169a1,1,0,0,0-1.4,0,1,1,0,0,0,0,1.4h0l3,2.94-2.93,3A1,1,0,0,0,209.75,177.76Z"/><path id="Path_11" data-name="Path 11" class="cls-1" d="M200.71,267.79l2.58-.05,0,2.59a.62.62,0,0,0,.62.6.61.61,0,0,0,.6-.62l0-2.59,2.58,0a.61.61,0,1,0,0-1.21l-2.58,0-.05-2.59a.61.61,0,0,0-1.21,0l0,2.59-2.58,0a.61.61,0,0,0-.6.62.61.61,0,0,0,.62.6Z"/><path id="Path_9-2" data-name="Path 9" class="cls-1" d="M78.48,133.56,99,133.23a2.07,2.07,0,0,0,2-2.1l-.33-20.51a2.07,2.07,0,0,0-2.1-2l-20.51.33a2.06,2.06,0,0,0-2,2.1l.33,20.51a2.06,2.06,0,0,0,2.09,2ZM77.27,111a.83.83,0,0,1,.83-.85h0l20.51-.34a.85.85,0,0,1,.86.83h0l.34,20.52A.86.86,0,0,1,99,132h0l-20.51.33a.83.83,0,0,1-.85-.83h0L77.27,111Z"/><path id="Path_11-2" data-name="Path 11" class="cls-1" d="M85.62,122.17l2.58,0,0,2.58a.61.61,0,1,0,1.21,0l0-2.58,2.58,0a.61.61,0,1,0,0-1.21l-2.58,0,0-2.59a.61.61,0,0,0-.62-.59.6.6,0,0,0-.6.61l0,2.59-2.58,0a.61.61,0,0,0-.6.62.61.61,0,0,0,.62.6Z"/><path id="Path_12" data-name="Path 12" class="cls-1" d="M173.15,153.18l15.44-.25a1.73,1.73,0,1,0-.06-3.45l-15.42.26a1.72,1.72,0,1,0,0,3.44Z"/><path id="Path_13" data-name="Path 13" class="cls-1" d="M173.29,161.64l15.44-.25a1.73,1.73,0,0,0-.06-3.45l-15.43.26a1.72,1.72,0,1,0,0,3.44Z"/><path id="Path_10-3" data-name="Path 10" class="cls-1" d="M47.93,231.42a1,1,0,0,0,1.4,0h0l2.94-3,3,2.94a1,1,0,1,0,1.39-1.43h0l-3-2.94,2.94-3a1,1,0,0,0,0-1.4,1,1,0,0,0-1.41,0l-2.94,3-3-2.94a1,1,0,0,0-.71-.27,1,1,0,0,0-.67,1.7h0l3,2.94-2.94,3A1,1,0,0,0,47.93,231.42Z"/><path id="Path_10-4" data-name="Path 10" class="cls-1" d="M107.62,283.79a1,1,0,0,0,1.4,0h0l2.94-3,3,2.94a1,1,0,0,0,1.41,0,1,1,0,0,0,0-1.4h0l-3-2.94,2.94-3a1,1,0,0,0,0-1.41,1,1,0,0,0-1.41,0l-2.94,3-3-2.94a1,1,0,0,0-.71-.28,1.09,1.09,0,0,0-.7.3,1,1,0,0,0,0,1.41h0l3,2.94-2.94,3A1,1,0,0,0,107.62,283.79Z"/><path id="Path_12-2" data-name="Path 12" class="cls-1" d="M61.06,258.81l8.89-.15a1,1,0,1,0,0-2l-8.88.14a1,1,0,1,0,0,2Z"/><path id="Path_13-2" data-name="Path 13" class="cls-1" d="M61.14,263.68l8.89-.15a1,1,0,1,0,0-2l-8.88.14a1,1,0,0,0-1,1,1,1,0,0,0,1,1Z"/><path class="cls-2" d="M345.81,12.13V207.57a12.13,12.13,0,0,1-12.13,12.12h-94.6V59.1A12.13,12.13,0,0,0,227,47H51.54V12.13A12.13,12.13,0,0,1,63.67,0h270A12.14,12.14,0,0,1,345.81,12.13Z"/><path class="cls-3" d="M22.72,139.67V239.92A12.12,12.12,0,0,0,34.84,252h270A12.12,12.12,0,0,0,317,239.92V44.48a12.12,12.12,0,0,0-12.12-12.12h-270A12.12,12.12,0,0,0,22.72,44.48v66.2M239.08,220.22A12.14,12.14,0,0,1,227,232.36H46.22A12.14,12.14,0,0,1,34.1,220.22V59.1A12.13,12.13,0,0,1,46.22,47H227A12.13,12.13,0,0,1,239.08,59.1Z"/><circle class="cls-4" cx="69.3" cy="12.25" r="3.76"/><path class="cls-5" d="M69.3,17.05a4.81,4.81,0,1,1,4.8-4.8A4.81,4.81,0,0,1,69.3,17.05Zm0-7.51A2.71,2.71,0,1,0,72,12.25,2.72,2.72,0,0,0,69.3,9.54Z"/><circle class="cls-4" cx="86.06" cy="12.25" r="3.76"/><path class="cls-5" d="M86.06,17.05a4.81,4.81,0,1,1,4.81-4.8A4.8,4.8,0,0,1,86.06,17.05Zm0-7.51a2.71,2.71,0,1,0,2.71,2.71A2.71,2.71,0,0,0,86.06,9.54Z"/><circle class="cls-4" cx="102.82" cy="12.25" r="3.76"/><path class="cls-5" d="M102.82,17.05a4.81,4.81,0,1,1,4.81-4.8A4.8,4.8,0,0,1,102.82,17.05Zm0-7.51a2.71,2.71,0,1,0,2.71,2.71A2.71,2.71,0,0,0,102.82,9.54Z"/><rect class="cls-4" x="248.29" y="46.97" width="56.71" height="183.24" rx="15.38"/><path class="cls-5" d="M289.61,231.27H263.67a16.45,16.45,0,0,1-16.43-16.43V62.35a16.45,16.45,0,0,1,16.43-16.43h25.94A16.45,16.45,0,0,1,306,62.35V214.84A16.45,16.45,0,0,1,289.61,231.27ZM263.67,48a14.34,14.34,0,0,0-14.33,14.33V214.84a14.34,14.34,0,0,0,14.33,14.33h25.94a14.35,14.35,0,0,0,14.33-14.33V62.35A14.35,14.35,0,0,0,289.61,48Z"/><rect class="cls-2" x="256.37" y="66.94" width="16.42" height="18.75" rx="3.7"/><path class="cls-6" d="M269.08,86.74h-9A4.75,4.75,0,0,1,255.32,82V70.64a4.75,4.75,0,0,1,4.75-4.75h9a4.75,4.75,0,0,1,4.75,4.75V82A4.75,4.75,0,0,1,269.08,86.74Zm-9-18.75a2.65,2.65,0,0,0-2.65,2.65V82a2.65,2.65,0,0,0,2.65,2.65h9A2.65,2.65,0,0,0,271.73,82V70.64A2.65,2.65,0,0,0,269.08,68Z"/><line class="cls-4" x1="280.34" y1="76.31" x2="295.33" y2="76.31"/><path class="cls-5" d="M295.33,77.36h-15a1,1,0,0,1,0-2.1h15a1,1,0,1,1,0,2.1Z"/><line class="cls-4" x1="51.54" y1="24.08" x2="345.81" y2="24.08"/><path class="cls-5" d="M345.81,25.13H51.54a1.05,1.05,0,1,1,0-2.1H345.81a1.05,1.05,0,1,1,0,2.1Z"/><rect class="cls-4" x="256.37" y="92.88" width="16.42" height="18.75" rx="3.7"/><path class="cls-5" d="M269.08,112.68h-9a4.75,4.75,0,0,1-4.75-4.75V96.58a4.75,4.75,0,0,1,4.75-4.75h9a4.75,4.75,0,0,1,4.75,4.75v11.35A4.75,4.75,0,0,1,269.08,112.68Zm-9-18.75a2.65,2.65,0,0,0-2.65,2.65v11.35a2.65,2.65,0,0,0,2.65,2.65h9a2.65,2.65,0,0,0,2.65-2.65V96.58a2.65,2.65,0,0,0-2.65-2.65Z"/><rect class="cls-4" x="256.37" y="195.25" width="40.53" height="18.75" rx="3.7"/><path class="cls-5" d="M293.19,215.05H260.07a4.75,4.75,0,0,1-4.75-4.75V199a4.76,4.76,0,0,1,4.75-4.76h33.12A4.76,4.76,0,0,1,298,199V210.3A4.76,4.76,0,0,1,293.19,215.05ZM260.07,196.3a2.66,2.66,0,0,0-2.65,2.66V210.3a2.65,2.65,0,0,0,2.65,2.65h33.12a2.66,2.66,0,0,0,2.66-2.65V199a2.66,2.66,0,0,0-2.66-2.66Z"/><line class="cls-4" x1="280.34" y1="102.25" x2="295.33" y2="102.25"/><path class="cls-5" d="M295.33,103.3h-15a1,1,0,1,1,0-2.09h15a1,1,0,1,1,0,2.09Z"/><g id="Head_Front_Hijab-1" data-name="Head/Front/Hijab-1"><g id="Head"><path class="cls-7" d="M154.14,125.71c-2.09-5.6-2.65-11.73-.1-17.44,7.34-16.47,29.51-4.19,31,6s-6.94,31.64-13.41,31c-2.58-.25-7.07-3.57-11.06-8.51l-5.05,23.88-19-6.9Z"/></g><g id="Hijab"><path id="Front" class="cls-8" d="M182.8,107.09c-.34-.41-1.05-1.29-1.44-1.66-.09-.08-.65-.9-.68-.91-.64,0-2.58.1-3,.67l-.11.11c-.39.34-.77.7-1.14,1.07-.81.82-1.58,1.7-2.32,2.58-1.46,1.71-2.83,3.51-4.15,5.33s-2.61,3.76-3.93,5.63c-1.9,2.69-4,5.22-5.9,7.92a18.87,18.87,0,0,0-2.77,5.55.25.25,0,0,0,0,.07v0c-.09.31-.17.63-.23,1s-.11.55-.17.82c1.27-1.2,2.42-2.61,3.58-3.93.11-.13.23-.26.33-.4l.93-.71c2-1.49,3.92-3,5.84-4.51a114.09,114.09,0,0,1,10.66-8c1.11-.69,2.23-1.36,3.33-2.06.63-.4,1.25-.81,1.85-1.24.44-.3,2.2-1.28,2.07-2.3A25.58,25.58,0,0,0,182.8,107.09Z"/><path id="Turban" class="cls-9" d="M181.47,105.56c.37.29.49-.66.19-1.12-1.37-2.12-8.42-5.28-15.2-6.26a32.49,32.49,0,0,0-14.64,1.31c-4,1.42-7.53,4.71-10,8.24a32.47,32.47,0,0,0-5.27,12.37c-.19,1-.22,2-.38,2.93a22,22,0,0,0-.48,3.22c0,.68.11,1.41.06,2.08a4.42,4.42,0,0,1-.81,2,23.75,23.75,0,0,1-2.19,3.07c-1.23,1.43-2.55,2.71-3.65,4.26-1.46,2.06-6.82,8.56-5.63,11.29l36.74,13.37c0-2.86-1.7-6.84-1.28-9.74.25-1.72,1.35-5.25,1.37-5.39,1.25-6,.62-9.32,0-10.68s-1.89-2.15-1.65-3c1-3.66,3.65-6.54,5.89-9.48,2.67-3.5,5.05-7.21,7.75-10.68C173.43,111.81,179.55,104,181.47,105.56Z"/><path id="Shade" class="cls-10" d="M151.94,146.72c-.6-.75-1.11-1.46-1.56-2.15l0-.06a27.71,27.71,0,0,1-1.61-2.85c-.77-1.58-1.29-3-1.86-4.37a14.88,14.88,0,0,0-5.11-6.8l-.8.48c2.61,1.62,3.76,4.41,5.1,7.61.36.87.74,1.76,1.17,2.67a27.52,27.52,0,0,0,1.34,2.57,22.5,22.5,0,0,0,1.54,2.3l.56.7a20.78,20.78,0,0,0,2,2.05l1-.19C153,148,152.42,147.35,151.94,146.72ZM157.32,107l-.62-.17c-2,6.19-3.37,11.7-2.75,18.34,0,.24,0,.48.07.72a43.6,43.6,0,0,0,1.58,7.55l.72,0C153.75,121.53,155.26,116.33,157.32,107Zm-12.93,2.52-.63.06c-.57,6.89-.25,12.49,5.43,19.15l.7-.19C144.53,120.86,144.7,116.73,144.39,109.53Zm21.87-4.89c-2,1.25-5.06,6.17-5.85,12.3l.67.25c1.89-6.11,3-8.35,6-12.24Z"/></g></g><polygon id="Leg" class="cls-11" points="110.73 227.76 173.18 332.17 220 420.43 230.08 420.43 151.63 227.76 110.73 227.76"/><g id="Accessories_Shoe_Flat-Sneaker" data-name="Accessories/Shoe/Flat-Sneaker"><path id="shoe" class="cls-12" d="M213.83,416.36a18.07,18.07,0,0,0-1.41,5.63,41.66,41.66,0,0,0,.76,6.64h47.4c1.23-4.08.52-6.27-2.13-6.6s-4.86-.62-6.62-.88l-22-9.82a.84.84,0,0,0-1.11.42v0l-1.41,3.43a15.1,15.1,0,0,1-6,1.72,13.51,13.51,0,0,1-5.17-1.51h0a1.67,1.67,0,0,0-2.23.83A1.17,1.17,0,0,0,213.83,416.36Z"/></g><path class="cls-13" d="M226.45,400.41l-15.71,4.76A665.1,665.1,0,0,1,154.54,325a863.74,863.74,0,0,1-49.83-97.28h50.56q21.3,42.67,39.85,88.56T226.45,400.41Z"/><path class="cls-14" d="M199.12,315.5l2.17,5.4"/><path class="cls-14" d="M203.05,325.3q16,40.21,27.4,74.3L211,405.48l-.26-.31A665.1,665.1,0,0,1,154.54,325a863.74,863.74,0,0,1-49.83-97.28l-.36-.82h54.92q19.13,38.32,36,79.25"/><path class="cls-7" d="M148.71,230.94c-.37,1.36-.76,2.76-1.17,4.18q-.78,2.72-1.66,5.57c-2.9,9.43-6.52,19.8-10.35,30.05-1.59,4.29-3.23,8.55-4.86,12.71q-1.5,3.82-3,7.52c-5.07,12.56-9.9,23.69-13.38,31a78.16,78.16,0,0,1-4.35,8.38q-4.33,6.42-76.39,17.46l-.11,0Q25.8,349,17.39,350.26l-3.17.46L12,341.83l3.7-1.19,14.64-4.71q34.86-11.25,49.09-16.19,9.45-3.28,9.82-3.79a2.57,2.57,0,0,0,.25-.57c1.89-5.41,11.67-46.2,17.4-80.26.06-.34.12-.68.17-1,.18-1.06.35-2.12.52-3.16Z"/><path class="cls-15" d="M150.9,227.76c-.29,1.41-.58,2.8-.87,4.18-.45,2.12-.89,4.2-1.34,6.25q-4.58,21.29-8.93,38.1-2.12,8.18-4.16,15.28a256.71,256.71,0,0,1-9.83,28.69c-.25.59-.49,1.16-.74,1.72q-4.69,10.56-9,14.69c-10.21,9.72-38.42,15.24-83.72,11.27l-1-3-2-9h0c23.24-7.5,39.71-16.09,49.2-19.38q6.68-3,7.17-4.12a7.62,7.62,0,0,0,.3-.94l-4.28-1.15c1.78-.94,2.77-1.63,3-2.09q1.47-3.24,13.89-80.5Z"/><path class="cls-14" d="M150.9,232.44q-.69,3.31-1.37,6.54-4.78,22.54-9.32,40.24-2.11,8.29-4.18,15.52-10.8,37.83-20,46.62Q100.68,355.92,32.73,350l-1.28-4.78-2.55-9.54.11,0q35.62-12.78,48.46-18.55,6.68-3,7.17-4.12a7.62,7.62,0,0,0,.3-.94q2.11-8.25,13.59-79.56Z"/><g id="Accessories_Shoe_Flat-Sneaker-2" data-name="Accessories/Shoe/Flat-Sneaker"><path id="shoe-2" data-name="shoe" class="cls-12" d="M14.53,338.13a18,18,0,0,0-5.8-.41,41.17,41.17,0,0,0-6.4,1.9l8.23,46.68c4.23.51,6.27-.58,6.13-3.25s-.24-4.89-.28-6.66L22.25,353a.84.84,0,0,0-.61-1h0l-3.63-.8a14.94,14.94,0,0,1-2.73-5.6,13.49,13.49,0,0,1,.59-5.35h0a1.69,1.69,0,0,0-1.2-2Z"/></g><g id="Body_Lab-Coat" data-name="Body/Lab-Coat"><path id="Skin" class="cls-7" d="M74.74,189q-20.44,28.68-29,39.59c-.78,1-1.48,1.88-2.11,2.65a34.69,34.69,0,0,1-3.33,3.73c-2.06,1.76-13.19,5.08-20.56,6.54-3,.59-2.86,3-2.22,3.88,5.21,7.29,12,4.16,19.32,3.93,8-.26,3.73,8.2,10,8.1-.09-4.3-1-12.63,2.65-16.29q.67-.66,3.88-4.41l.94-1.09q9-10.51,34.26-40.69Zm142.94,78.88A72.19,72.19,0,0,0,202.76,255l-5.45-7.79h0l-13.6-19.47-10.38,11.85,16.78,14.76,4.84,4.26q6.39,16.11,8.38,14.48c2-1.63-.14-4.41,1-5.73s5.88.49,10.3,2.39S218.43,269.2,217.68,267.84Z"/><path class="cls-16" d="M198.43,246.1l-9.9,9.8c-22.4-22.64-44.32-41.43-48.29-67.44-1.29-8.44,8-31.8,11.14-41.71l9-.5C164.48,179.55,174.79,213.45,198.43,246.1Z"/><path class="cls-14" d="M180,212.2a200.77,200.77,0,0,0,19.42,32.91l-1,1-9.9,9.8c-22.4-22.64-44.32-41.43-48.29-67.44-1.29-8.44,8-31.8,11.14-41.71q.17-.51.3-1l9.73-.54a234,234,0,0,0,8.84,41.8"/><path id="Shirt" class="cls-17" d="M97.31,223.12q37.34,14.32,60.48,16.2c1.91.16,3-2.79,2.72-5.07-4.6-35.5-6.15-65.81-.2-88q-4.11.84-12.82-2.85C125.13,161.92,110.64,186.17,97.31,223.12Z"/><path class="cls-18" d="M150.73,142.19c0,.49-.16,1.27-.34,2.33h0a.06.06,0,0,1,0,0l-.27,1.55c-.27,1.52-.63,3.4-1.05,5.61a0,0,0,0,1,0,0c-.35,1.82-.75,3.87-1.18,6.11-1.89,9.62-4.52,22.85-7.31,37.79h0c-1.84,9.86-3.76,20.46-5.58,31.27,0,.28-.09.55-.14.82l-.69,4.18c-.17,1-.33,2-.5,3.05-1.35,8.31-2.62,16.67-3.74,24.84-.78,5.72-1.49,11.34-2.1,16.79q-.65,5.73-1.13,11.17c-1.13,12.64-1.55,23.86-.91,32.47,0,.4.06.79.1,1.17l-9.69-2.6L91.42,312.2l-2.6-.7-4.28-1.15L45.87,300c11.78-36.77,38-77.72,62.36-111.32-1.62.83-3.25,1.75-4.88,2.78.66-.93,1.33-1.86,2-2.78Q82,200.66,57.22,237.2l-.79,1.17-3-1.69-9.76-5.48c.63-.77,1.33-1.66,2.11-2.65q31.17-57.23,80.4-80.5a155.52,155.52,0,0,1,18.75-7.42l2.32.62,1.5.41Z"/><path class="cls-14" d="M142.4,201.29c-1.52,8.22-3.06,16.87-4.54,25.65-.05.28-.09.55-.14.82l-.69,4.18c-.17,1-.33,2-.5,3.05,0,.23-.08.47-.11.7-1.31,8.08-2.54,16.2-3.63,24.14-.78,5.72-1.49,11.34-2.1,16.79"/><path class="cls-14" d="M129.56,287.79c-1.13,12.64-1.55,23.86-.91,32.47,0,.67.11,1.32.17,2l-.91-.24-2-.55-9.69-2.6L91.42,312.2l-2.6-.7-4.28-1.15L45.87,300c11.78-36.77,38-77.72,62.36-111.32-1.62.83-3.25,1.75-4.88,2.78Q82,204.7,59.31,238.37l-2.09-1.17-.93-.52-1.94-1.09-7.82-4.39-1.7-.95c.3-.57.61-1.14.93-1.7q31.17-57.23,80.4-80.5a155.52,155.52,0,0,1,18.75-7.42l.33-.11c.13-.16.25-.32.38-.47l.6.16L147,140l-.14.42.82.22,2.44.65,1.5.41,2,.53c0,.49-.16,1.27-.34,2.33h0a.06.06,0,0,1,0,0c0,.27-.1.56-.15.86s-.08.45-.12.69-.06.36-.1.55c-.25,1.41-.58,3.11-.95,5.06a0,0,0,0,1,0,0c-.35,1.82-.75,3.87-1.18,6.11-1.89,9.62-4.52,22.85-7.31,37.79"/></g></g></g></svg>