<svg xmlns="http://www.w3.org/2000/svg" viewBox="0 0 407.75 581.89"><defs><style>.cls-1,.cls-4{fill:#c1dee2;}.cls-1,.cls-12,.cls-13,.cls-14,.cls-15,.cls-16,.cls-18,.cls-19,.cls-20,.cls-3,.cls-4,.cls-5,.cls-6{fill-rule:evenodd;}.cls-1{opacity:0.2;isolation:isolate;}.cls-2{opacity:0.5;}.cls-3{fill:#69a1ac;}.cls-5{fill:#89c5cc;}.cls-6{fill:#f2f2f2;}.cls-19,.cls-7{fill:#f9bc60;}.cls-8,.cls-9{fill:#fffffe;}.cls-8{stroke:#061e1d;stroke-width:2.1px;}.cls-17,.cls-18,.cls-8{stroke-linecap:round;stroke-linejoin:round;}.cls-10{fill:#061e1d;}.cls-11{fill:#001e1d;}.cls-12{fill:#b28b67;}.cls-13{fill:#191847;}.cls-14{fill:#043f3d;}.cls-15{fill:#0a605f;}.cls-16{fill:#e4e4e4;}.cls-17,.cls-18{fill:none;stroke:#142322;stroke-width:1.4px;}.cls-20{fill:#dde3e9;}</style></defs><g id="Layer_2" data-name="Layer 2"><g id="Layer_1-2" data-name="Layer 1"><path id="Leaf-Top" class="cls-1" d="M210.22,11.33c3.51-1.74,8.19.28,6.24,4.88-2.1,4.93-9.83,5-14.2,4.9.44,0,1.85-4.55,2.33-5.23A14.92,14.92,0,0,1,210.22,11.33Zm4.08,22.89a4.19,4.19,0,0,1,.48,6.3c-2.05,2.26-5.78,2.18-8.56,2-1.26-.1-8-.63-6.39-1.72a4.81,4.81,0,0,0-.65.31c-.15.53-.31,1.06-.47,1.59l.12.07-.12-.06a60.94,60.94,0,0,1-6.94,15,14.54,14.54,0,0,1,3.48-.92c3.51-.44,10.89,2.25,7,6.88-3.77,4.44-9.62-.32-13.89-1a199.69,199.69,0,0,1-13.51,16.53,1.16,1.16,0,0,1,.7.57c1.92-1,3.92-2.35,5.7-2.72,2.56-.54,7.82-.87,9.76,1.4,2.38,2.8-.17,5.07-3,5.61-4.09.78-9.43-1.2-13.36-2.53a1.28,1.28,0,0,1-1.23-.41l-.26-.08c-4.85,5.28-9.89,10.39-14.89,15.38h.16a13.88,13.88,0,0,1,4.22-1.91c3.51-.84,7.64-.85,10.49,1.66s3.84,6.88.9,9.7c-5.88,5.63-14.53-7.2-17.49-7.73-5.09,5-10.46,9.71-15.93,14.31a10.21,10.21,0,0,1,1.92-.39c5.35-.51,17.91,6,11.34,12.39-5.73,5.57-12.35-5.15-17-8.9-5.15,4.29-10.32,8.54-15.35,13a14.76,14.76,0,0,1,8.33.05c3,.91,7.95,3.19,6,7.25s-7.85,2.26-10.92.95c-1.67-.72-5-3.13-8-4.15a100.29,100.29,0,0,0-20.24,25.51,86.51,86.51,0,0,0-7.54,19.25c-1.13,4.26-3.34,11.41-2.9,16.95C84.21,183.26,88,169.93,92.13,160a83.6,83.6,0,0,1,16-24.34c-1.66-4.94-15.61-12.06-7.27-16.66,4.44-2.43,9,1.6,9.94,5.86.67,2.93-.35,6.62-1.43,9.46,2.08-2.2,4.25-4.32,6.47-6.38,3.08-2.84,6.24-5.6,9.42-8.33-5.24-4.87-10.2-18.82-3.16-21.1,10.38-3.37,5.37,15.66,4.64,19.23a.56.56,0,0,1-.48-.19c.06.33.13.68.21,1,6.09-5.19,12.28-10.28,18.25-15.59a27.78,27.78,0,0,1-2.06-2.7,30.15,30.15,0,0,1-4-5.81c-1.68-3.34-3.29-8.67,1.16-10.63,4.83-2.15,7.13,3.88,7.16,7.48,0,2.48-.67,4.84-1,7.28-.11.76.31,4.19-.73,2.72a7.5,7.5,0,0,1,0,1.21l3.2-2.9a1.36,1.36,0,0,1-.1-.42,1.26,1.26,0,0,1,1.8-1.17q2.1-2,4.14-4c2.88-2.88,5.8-5.84,8.7-8.86-.63-.53-.38-1.27-1-1.84s-1.74-.88-2.43-1.41a16.43,16.43,0,0,1-4.22-5.15c-1.72-3.14-3.93-9.72,1.09-11.22,5.18-1.55,7.81,4.79,8.14,8.75a100.36,100.36,0,0,1-1,10.2c5.37-5.61,10.65-11.44,15.43-17.37-1.45,0-5.55-3-6.39-3.75-2-2-5.24-6.28-1.69-8.57,3.16-2,7.06.91,8.41,3.76a39.93,39.93,0,0,1,1.06,6.82c2-2.51,3.87-5,5.63-7.58,1.17-1.68,2.26-3.41,3.29-5.18a2.35,2.35,0,0,1-.7-.68c-5.27-.88-12-9-5.79-11.86,2.95-1.35,6.14,1.43,7.58,3.71a29.08,29.08,0,0,1,1.17,4.65,97.14,97.14,0,0,0,6.92-18.41,1.14,1.14,0,0,1-.9-1.05c-2.56-1.45-4.58-2.65-6.36-5.43-1.11-1.72-3.11-5.66.15-6.62,4.25-1.25,6.91,5.17,7.25,8.33,0,.37,0,1.43,0,2.41a1.31,1.31,0,0,1,.44,0c1-3.94,1.76-7.92,2.38-11.91-2.32-.74-2.71-12.78-1.17-14.5,3.45-3.84,5.88,1.7,5.69,4.64a19.23,19.23,0,0,1-3.69,9.39c-.2.3-.14.28-.19-.13a.85.85,0,0,1-.2.46c.09,1.82.28,3.69.19,5.3a120.71,120.71,0,0,1-1.6,13.8c-.19,1.11-.41,2.2-.66,3.29a27.5,27.5,0,0,1,5.36-3.4C207.84,33.53,211.77,32.3,214.3,34.22ZM85.9,193.92a8.41,8.41,0,0,0,1.2,3.94A22.41,22.41,0,0,1,85.9,193.92Z"/><g id="Plant-Left" class="cls-2"><path id="Leaf" class="cls-3" d="M178.22,162.33c4.21-6,12-21.21,17.92-23.35,3.81-1.38,2.7,12.89,2.74,15.61a227.65,227.65,0,0,1-2.1,31.41c-2.28,18.82-9.74,35.59-20,51.6-5.26,8.25-11.43,16.59-20,21.73-3.94,2.37-8.67,2.77-12.56,4.81-4.52,2.37-2.06.45-4.1,5.17-2.83,6.54-3.73,15-5,22-6,32.06-20.58,201.55-18.06,234.17.23,2.89-3.8,3.58-4,0-1.07-18.71,8.18-148.29,12.85-190.67s9.39-79.81,14.13-94.47c5.75-17.78,16.13-39.17,24.77-55.76A196.9,196.9,0,0,1,178.22,162.33Z"/><path id="Leaf-2" data-name="Leaf" class="cls-4" d="M209.41,370.17c10.94-8,22.78,7.12,12.88,15.15-5.47,4.44-11.19,2.86-14.41-.84-2.09,2.55-4,5.21-5.92,7.46-5.73,6.86-11.14,13.88-16.32,21.06-10.74,14.92-19.95,30.69-29.58,46.17-9.5,15.27-18.93,30.63-27.54,46.29-7.3,13.27-17,28.88-19.52,43.43,3.79-30.86,18.17-60.51,35.3-87.71,17-27,36.48-56.44,62.78-77.73A9.31,9.31,0,0,1,209.41,370.17Z"/><path id="Leaf-3" data-name="Leaf" class="cls-3" d="M1.91,294.92C8,296.12,18,310,23.08,315.23a197.42,197.42,0,0,1,16.55,19.95A336.7,336.7,0,0,1,68.93,383a443.17,443.17,0,0,1,32.6,84.84,348.88,348.88,0,0,1,9.89,55.64c.36,3.53,4,30.69-1.27,31.42-4.79.66-3.31-20.62-3.54-23.52C104,498.69,96.18,466.9,85.3,436.11c-2.37-6.7-4.57-14.92-8.36-20.95-2.73-4.35,0-2.83-4.82-4.48-4.12-1.41-8.81-1.07-13-2.8-9.16-3.76-16.5-11.05-22.93-18.38-12.49-14.26-22.4-29.68-27.56-47.95a231.45,231.45,0,0,1-6.95-30.76C1.28,308.09-2,294.15,1.91,294.92Z"/><path id="Leaf-4" data-name="Leaf" class="cls-5" d="M26.06,64.6c23.05,40,42,83.89,54.22,128.36,7.41,26.95,12.6,54.6,17.74,82,8,42.51,15.52,85,17.66,128.27,2.16,43.51,6.43,93.7-7.82,135.61,7.12-42.55.34-87.84-.86-130.65-.57-20.44-2.23-40.68-4.41-61-2.12-19.71-5.57-39.32-8.79-58.88q-2.35-14.28-4.89-28.54c-.5-2.83-.71-11.25-2.51-13.18s-11.05-2.75-14-4.18a74.58,74.58,0,0,1-16.19-11.3c-9.32-8.29-17.43-19.12-23.82-29.8C17.63,176.65,11.71,146.5,12,117.88c.06-5.55,9-65.38,5.4-66.21a9.22,9.22,0,0,0,.62-.78Q22.1,57.72,26.06,64.6Z"/><path id="Leaf-5" data-name="Leaf" class="cls-5" d="M274.85,208.78c.35-.52,2.67-4.09,1.5-3.86,2.37-.46-3.26,3.94,2.65,1.24-2.81,2.65-1.19,6.09-1.15,9.66a86.68,86.68,0,0,1-2,17.21,117.71,117.71,0,0,1-8,26c-8.13,18.16-21.93,35.65-38.31,47-8.09,5.61-16,7.52-25.24,10.1-5.83,1.63-6.29,4.64-9.38,10.3-6.44,11.77-12.76,23.51-18.44,35.68-6.78,14.54-13.37,29.09-19.57,43.88C136,455.85,119,507.47,110,560.89c-.21-31.48,7.07-63.91,16.26-93.91C133,445.11,141.66,424,151,403.18c2.25-5.06,5.66-11.56,6.62-17.14.67-3.91-1.38-7.67-2.31-11.78-3.66-16-3.4-34-.19-50.13,3.54-17.78,13.77-26,31.08-28.55,6.32-.92,14.37-.59,20.17-3.28,6.33-2.94,8.93-12.6,12.53-18.8a255.71,255.71,0,0,1,34.31-46.67A110.94,110.94,0,0,1,264.89,216C267.51,213.94,273.06,211.36,274.85,208.78Z"/><path id="Base" class="cls-4" d="M80.79,526.89h61.42a5,5,0,0,1,5,5,6,6,0,0,1-.05.73l-4.75,32.19a20,20,0,0,1-19.79,17.08H100.38a20,20,0,0,1-19.79-17.08l-4.75-32.19a5,5,0,0,1,4.22-5.68A6,6,0,0,1,80.79,526.89Z"/></g><g id="Maceta"><path id="Base-2" data-name="Base" class="cls-6" d="M25.42,543.34c0,21.29,1.68,38.55,24.23,38.55s24.22-17.26,24.22-38.55"/><path id="Fill-27" class="cls-6" d="M56.35,530.06a45.9,45.9,0,0,0-2.21,4.37,60.11,60.11,0,0,1,.6-9.23c.79-5.33,2-10.63,3.12-15.92.81-3.81.76-10.64,3.84-13.67.84-.66,1,.63,1,1.19,0,.11,0-2.28-.82-1.86-4.88,2.51-6.45,10.42-8,14.38a76.09,76.09,0,0,0-5,17.71,40.79,40.79,0,0,0-.34,4.55c-.16-.41-.32-.81-.49-1.22a82.46,82.46,0,0,0-11.34-19c-1.16-1.46-15.81-15.86-17-13.66a1.51,1.51,0,0,0,.71.8s0,0,0,0c.86,1.39,3.3,3.54,4.07,4.76a94,94,0,0,1,4.92,9.5c3.19,6.74,6.16,13.55,9,20.37.67,1.59,1.37,3.17,2.08,4.74-7.34-10.59-17.14-20.2-30.62-25.71,4.6,2.35,7.62,6.76,10.73,10.13,3.75,4.07,7.71,8,11.46,12.1,4.44,4.79,9.65,9.85,13.91,15.15,4.13,8.67,8.15,17.35,10.62,26.47-1-3.15-.08-7.5-.25-10.81a73.71,73.71,0,0,0-.87-7.84,16.52,16.52,0,0,1,1.18,3.44q-.28-2.74-.63-5.47c.59-1.69,1.17-3.28,1.56-4.58a117.52,117.52,0,0,1,7.64-19.68,176.51,176.51,0,0,1,10.22-17.46c1.75-2.64,3.53-5.28,5.3-7.92,1.15-1.73,2.25-4.5,3.86-6.15-10.4,9.51-21.77,19.1-28.38,30.51"/></g><path class="cls-7" d="M406.7,164.08V359.51a12.12,12.12,0,0,1-12.12,12.12H300V211a12.12,12.12,0,0,0-12.12-12.12H112.43V164.08a12.14,12.14,0,0,1,12.13-12.14h270A12.14,12.14,0,0,1,406.7,164.08Z"/><path class="cls-8" d="M83.61,291.61V391.86A12.13,12.13,0,0,0,95.74,404h270a12.12,12.12,0,0,0,12.12-12.13V196.43a12.11,12.11,0,0,0-12.12-12.12h-270a12.12,12.12,0,0,0-12.13,12.12v66.19M300,372.17a12.13,12.13,0,0,1-12.12,12.13H107.11A12.13,12.13,0,0,1,95,372.17V211a12.12,12.12,0,0,1,12.12-12.12H287.85A12.12,12.12,0,0,1,300,211Z"/><circle class="cls-9" cx="130.19" cy="164.19" r="3.76"/><path class="cls-10" d="M130.19,169a4.81,4.81,0,1,1,4.81-4.81A4.82,4.82,0,0,1,130.19,169Zm0-7.51a2.71,2.71,0,1,0,2.71,2.7A2.71,2.71,0,0,0,130.19,161.49Z"/><circle class="cls-9" cx="146.95" cy="164.19" r="3.76"/><path class="cls-10" d="M147,169a4.81,4.81,0,1,1,4.81-4.81A4.81,4.81,0,0,1,147,169Zm0-7.51a2.71,2.71,0,1,0,2.71,2.7A2.7,2.7,0,0,0,147,161.49Z"/><circle class="cls-9" cx="163.72" cy="164.19" r="3.76"/><path class="cls-10" d="M163.72,169a4.81,4.81,0,1,1,4.8-4.81A4.82,4.82,0,0,1,163.72,169Zm0-7.51a2.71,2.71,0,1,0,2.7,2.7A2.7,2.7,0,0,0,163.72,161.49Z"/><rect class="cls-9" x="309.18" y="198.92" width="56.71" height="183.24" rx="15.38"/><path class="cls-10" d="M350.5,383.21H324.56a16.45,16.45,0,0,1-16.43-16.43V214.3a16.45,16.45,0,0,1,16.43-16.43H350.5a16.45,16.45,0,0,1,16.43,16.43V366.78A16.45,16.45,0,0,1,350.5,383.21ZM324.56,200a14.35,14.35,0,0,0-14.33,14.33V366.78a14.35,14.35,0,0,0,14.33,14.33H350.5a14.34,14.34,0,0,0,14.33-14.33V214.3A14.34,14.34,0,0,0,350.5,200Z"/><rect class="cls-7" x="317.26" y="218.88" width="16.42" height="18.75" rx="3.7"/><path class="cls-11" d="M330,238.68h-9a4.75,4.75,0,0,1-4.75-4.75V222.59a4.76,4.76,0,0,1,4.75-4.76h9a4.77,4.77,0,0,1,4.76,4.76v11.34A4.76,4.76,0,0,1,330,238.68Zm-9-18.75a2.66,2.66,0,0,0-2.65,2.66v11.34a2.65,2.65,0,0,0,2.65,2.65h9a2.66,2.66,0,0,0,2.66-2.65V222.59a2.66,2.66,0,0,0-2.66-2.66Z"/><line class="cls-9" x1="341.23" y1="228.26" x2="356.22" y2="228.26"/><path class="cls-10" d="M356.22,229.31h-15a1,1,0,1,1,0-2.1h15a1,1,0,0,1,0,2.1Z"/><line class="cls-9" x1="112.43" y1="176.02" x2="406.7" y2="176.02"/><path class="cls-10" d="M406.7,177.07H112.43a1,1,0,0,1,0-2.1H406.7a1.05,1.05,0,0,1,0,2.1Z"/><rect class="cls-9" x="317.26" y="244.82" width="16.42" height="18.75" rx="3.7"/><path class="cls-10" d="M330,264.62h-9a4.75,4.75,0,0,1-4.75-4.75V248.53a4.76,4.76,0,0,1,4.75-4.76h9a4.77,4.77,0,0,1,4.76,4.76v11.34A4.76,4.76,0,0,1,330,264.62Zm-9-18.75a2.66,2.66,0,0,0-2.65,2.66v11.34a2.65,2.65,0,0,0,2.65,2.65h9a2.66,2.66,0,0,0,2.66-2.65V248.53a2.66,2.66,0,0,0-2.66-2.66Z"/><rect class="cls-9" x="317.26" y="347.2" width="40.53" height="18.75" rx="3.7"/><path class="cls-10" d="M354.09,367H321a4.76,4.76,0,0,1-4.75-4.76V350.9a4.75,4.75,0,0,1,4.75-4.75h33.13a4.75,4.75,0,0,1,4.75,4.75v11.34A4.76,4.76,0,0,1,354.09,367ZM321,348.25a2.65,2.65,0,0,0-2.65,2.65v11.34A2.66,2.66,0,0,0,321,364.9h33.13a2.66,2.66,0,0,0,2.65-2.66V350.9a2.65,2.65,0,0,0-2.65-2.65Z"/><line class="cls-9" x1="341.23" y1="254.2" x2="356.22" y2="254.2"/><path class="cls-10" d="M356.22,255.25h-15a1,1,0,1,1,0-2.1h15a1,1,0,0,1,0,2.1Z"/><g id="Head_Front_Short-Beard" data-name="Head/Front/Short-Beard"><g id="Head"><path class="cls-12" d="M223.33,279.17c-.07,1.38-.19,2.71-.37,4a26.94,26.94,0,0,1-1.18,5.21c-.85,2.45-2.05,4.14-3.59,4.54-2.34.6-7.15-.74-12.2-3.59q-.51-.29-1-.6l1.12,7.9v.1l2.26,16H188.31l1.51-7,2.14-10,.3-1.37,2.64-12.3.32-1.49c-3.85-4.52-6.46-10.06-6-16.26a17.76,17.76,0,0,1,.26-2,12.23,12.23,0,0,1,3.55-6.82c7.33-7,22.89-3.25,27,3.58.07.11.13.22.19.33C222.63,263.94,223.69,272.06,223.33,279.17Z"/></g><path id="Hair" class="cls-13" d="M206,266.27q1.16,16,6.09,16c4.94,0,9.13-3.14,11.3-3.14,1.58,0,1.22,2,.18,3.44-.87,1.21-5.07,2.38-5.07,4.25s3.32.43,3.32,1.54c0,1.84.58,5.3-2.61,5.3s-12.49-1.18-14.08-6q-1.54-4.65-2-19.24a3.86,3.86,0,0,0-.6,0,5,5,0,0,0-3.5,8.6c-1.16,1.64-2.46,3.35-3.95,5.11-5.59-3.36-9.75-13.18-4.28-22.62,1.52-4.63,4.94-7.1,9-8.25a14.57,14.57,0,0,1,9.55-.7c5.62.48,10.65,2.2,12.07,3.22,0,5.32-1,6.9-9.85,6.76C209.37,261.72,207.7,263.69,206,266.27Z"/></g><polygon class="cls-14" points="250 565.7 237.02 565.7 214.92 487.36 184.91 382.07 226.65 382.07 250 565.7"/><path class="cls-15" d="M226.74,382.07l-.06.22c-.46,1.6-.9,3.18-1.34,4.74Q218.8,410,213.69,426.81h0c-.7,2.28-1.36,4.48-2,6.59q-4.89,15.91-8.15,25.52c-2.12,6.3-3.68,10.56-4.64,12.78-.3.7-.72,1.62-1.24,2.77q-7.36,16-43.66,90.25l-1,2H136.34c.31-.84.62-1.67.92-2.5h3Q168,489,172,474.48h-3a24.1,24.1,0,0,0,.66-2.77c.72-4.83,3-33.14,3.77-84.94,0-1.55,0-3.11.06-4.7Z"/><g id="Accessories_Shoe_Flat-Pointy" data-name="Accessories/Shoe/Flat-Pointy"><path class="cls-16" d="M185.81,578.4v3.34H154.06l-10.86-1.67v1.67h-8.36l.84-17.54h17.54l.77.53c.74.51,1.5,1,2.28,1.49Q168.06,573.62,185.81,578.4Z"/></g><g id="Accessories_Shoe_Flat-Pointy-2" data-name="Accessories/Shoe/Flat-Pointy"><path id="Shoe" class="cls-16" d="M231.75,581.74l.84-17.54h17.54q12.48,8.76,32.59,14.2v3.34H251l-10.86-1.67v1.67Z"/></g><line class="cls-17" x1="232.53" y1="403.71" x2="234.2" y2="416.82"/><polyline class="cls-18" points="234.93 422.58 253.13 565.7 237.02 565.7 214.92 487.36 184.91 382.07 184.63 381.07 229.65 381.07 232.04 399.88"/><path class="cls-18" d="M162,554.54l-5.71,11.68-.24.48H139.34c.31-.84.62-1.67.92-2.5Q168,489,172,474.48a24.1,24.1,0,0,0,.66-2.77c.72-4.82,3-33,3.76-84.67,0-1.63,0-3.29.07-5h53.21l-1.27,4.49c-.29,1-.58,2-.86,3q-7.41,25.92-12.93,43.83c-.68,2.2-1.33,4.32-2,6.34-3.23,10.39-5.86,18.38-7.81,24-1.31,3.73-2.32,6.39-3,8-.3.7-.72,1.62-1.24,2.77q-3.32,7.22-12.45,26.15-6.25,13-15.25,31.41-2.73,5.64-5.74,11.78"/><g id="Body_Lab-Coat" data-name="Body/Lab-Coat"><path id="Skin" class="cls-12" d="M294.89,398.29a71.56,71.56,0,0,0-17.57-8.53l-6.64-5.63-.56-.48-18-15.27L245.45,382l-.24.49,7.42,3.7,0,0,12.39,6.18.65.32,5.07,2.53q10.26,13.9,11.73,11.81c1.47-2.08-1.26-4.22-.49-5.79s5.75-1,10.47-.35S296,399.41,294.89,398.29Zm-157-39.16q-11.08,29.94-16.53,43.19c-.91,2.22-1.71,4.09-2.38,5.61a34.88,34.88,0,0,1-2.23,4.46c-1.52,2.23-11.32,8.31-18,11.62-2.67,1.34-2,3.62-1.12,4.32,6.85,5.69,12.56.91,19.49-1.2,7.58-2.32,5.66,6.95,11.66,5.22-1.19-4.13-4.22-11.92-1.64-16.4q.48-.82,2.59-5.26c.11-.22.21-.45.32-.69q5.81-12.19,22.64-48.72Z"/><path class="cls-19" d="M270.9,382.3l-.78,1.35-5.07,8.75-.44.75c-4-2.37-8-4.66-12-6.93l0,0-7.42-3.7.24-.49c-6.35-3.76-12.4-7.54-17.94-11.56.6,1.56,1.22,3.14,1.86,4.72-9.27-6.31-17.35-13.1-23.36-21.34h0a54.42,54.42,0,0,1-3.4-5.23h0a53.23,53.23,0,0,1-2.86-5.64c-2.34-5.39-1.68-18.92-.9-30.21.22-3.16.45-6.14.62-8.72h0v0s0,0,0,0c.14-2,.24-3.74.28-5.14l1.95-.65.33-.11,4.07-1.34.69-.24,1.78-.59.26-.08.09,0C221.36,326.84,239.91,356.91,270.9,382.3Z"/><path class="cls-18" d="M232,334.83A199.49,199.49,0,0,0,272.9,380.3l-2.22,3.83-5,8.59-.46.8-.63-.37c-4-2.37-8-4.66-12-6.93l0,0c-2.43-1.4-4.83-2.79-7.18-4.19-6.35-3.76-12.4-7.54-17.94-11.56C218.58,364,211,356.89,205.57,348.2a54.24,54.24,0,0,1-3.47-6.48c-.12-.26-.24-.52-.35-.78-1.86-4.29-1.83-13.73-1.34-23.09v0c.09-1.71.2-3.41.3-5.08.38-5.67.82-10.94,1-14.57,0-.46,0-.89.05-1.29v-.06l.16-.05,4-1.33,5-1.66a244.39,244.39,0,0,0,13.51,28.49"/><path class="cls-18" d="M226.74,326.28c1.24,2.1,2.52,4.2,3.84,6.28"/><path class="cls-20" d="M230.28,386.25q-1.49.27-3,.51c-.63.1-1.26.19-1.91.27a151.18,151.18,0,0,1-16.27,1.23l-3,.05q-10.44.13-22.87-.74c-3.14-.22-6.39-.48-9.73-.8-1.71-.16-3.45-.33-5.21-.52,2.86-34,9-59,21.56-80.54h0c1.86-3.19,3.86-6.3,6-9.36,1.08.15,2.11.27,3.08.36s2,.15,2.84.17h.17a22.75,22.75,0,0,0,4.17-.26c.24,0,.48-.08.7-.14a8.26,8.26,0,0,0,1.78-.59l.26-.11v0c0,20.57,7.43,45.85,18.68,74.65.6,1.56,1.22,3.14,1.86,4.72q1.08,2.71,2.21,5.48C232.44,382.78,232.15,385.9,230.28,386.25Z"/><path class="cls-19" d="M221.05,474.48H139c1.85-38.53,16.39-84.82,31.13-123.55-1.64,1.5-3.25,3.13-4.85,4.9.62-1.65,1.23-3.28,1.85-4.9q-19.38,17.74-33.83,59.9l-.24.71-3.31-.85L119,407.93c.67-1.52,1.47-3.39,2.38-5.61q18.17-71.81,70.58-106.6l.3-1.37h6.37c.08.48.17,1.27.28,2.35.16,1.72.35,4.18.56,7.25,0,0,0,0,0,0v0h0c.19,2.53.38,5.44.6,8.72.11,1.61.22,3.3.34,5.06v.06c.47,6.92,1,15,1.69,23.86h0q.24,3.36.51,6.86h0c.8,10.55,1.74,21.93,2.85,33.48q.3,3.12.61,6.24c1.56,15.47,3.41,31,5.61,45.1.34,2.15.68,4.27,1,6.34C215.09,453.76,217.84,465.91,221.05,474.48Z"/><path class="cls-18" d="M152.71,333.17A154.07,154.07,0,0,1,192,295.72l1.23-.82.24-.55H194l.68-.43,0,.43h6.93c.09.49.17,1.3.28,2.41,0,0,0,.07,0,.11,0,.36.07.76.11,1.18.27,3.28.62,8.32,1,14.68.63,9.42,1.46,21.73,2.5,35.47h0c.15,1.85.29,3.72.44,5.61h0c.71,9,1.52,18.57,2.45,28.24q.3,3.09.61,6.19c1.32,13.11,2.84,26.28,4.62,38.55h0q.48,3.35,1,6.59c2.6,16.67,5.7,31.24,9.37,41.07H139c1.85-38.53,16.39-84.82,31.13-123.55-1.64,1.5-3.25,3.13-4.85,4.9q-16.51,18.38-29.22,55.71l-2.76-.71-3.23-.83-9.94-2.55c.4-1.73.81-3.43,1.25-5.13a224.7,224.7,0,0,1,12.71-37"/></g></g></g></svg>