<svg xmlns="http://www.w3.org/2000/svg" viewBox="0 0 601.5 416.06"><defs><style>.cls-1{fill:#142322;}.cls-2{opacity:0.1;}.cls-27,.cls-3{fill:#001e1d;}.cls-11,.cls-12,.cls-13,.cls-14,.cls-15,.cls-16,.cls-17,.cls-18,.cls-19,.cls-20,.cls-21,.cls-22,.cls-23,.cls-24,.cls-25,.cls-3,.cls-4,.cls-6,.cls-7,.cls-8,.cls-9{fill-rule:evenodd;}.cls-4,.cls-7{fill:#c1dee2;}.cls-4{opacity:0.2;isolation:isolate;}.cls-5{opacity:0.5;}.cls-6{fill:#69a1ac;}.cls-31,.cls-8{fill:#89c5cc;}.cls-9{fill:#f2f2f2;}.cls-10{fill:#004643;}.cls-11{fill:#997659;}.cls-12{fill:#e4e4e4;}.cls-13{fill:#c4414e;}.cls-14{fill:none;stroke:#142322;stroke-width:1.4px;}.cls-14,.cls-28{stroke-linecap:round;stroke-linejoin:round;}.cls-15{fill:#b28b67;}.cls-16{fill:#e16162;}.cls-17{fill:#eda443;}.cls-18{fill:#dde3e9;}.cls-19,.cls-26{fill:#f9bc60;}.cls-20{fill-opacity:0.1;}.cls-21{fill:#273eaf;}.cls-22{fill:#3f53e0;}.cls-23{fill:#23374c;}.cls-24{fill:#2f4664;}.cls-25{fill:#fff;fill-opacity:0.2;}.cls-28,.cls-29{fill:#fffffe;}.cls-28{stroke:#061e1d;stroke-width:2.1px;}.cls-30{fill:#061e1d;}</style></defs><g id="Layer_2" data-name="Layer 2"><g id="Layer_1-2" data-name="Layer 1"><path class="cls-1" d="M576.09,415.18h-7.82a.7.7,0,0,1,0-1.4h7.82a.7.7,0,0,1,0,1.4Z"/><g class="cls-2"><path id="Leaf-Bottom" class="cls-3" d="M159.3,79.11c-3.44-1.71-8,.27-6.12,4.78,2,4.83,9.63,4.89,13.91,4.79-.43,0-1.81-4.45-2.28-5.12A14.53,14.53,0,0,0,159.3,79.11ZM156,101a4.07,4.07,0,0,0-.46,6.09c2,2.19,5.53,2.11,8.2,1.9,1.21-.1,7.65-.62,6.13-1.67a4.52,4.52,0,0,1,.62.3c.14.52.29,1,.45,1.54l-.11.07.11-.06a59.11,59.11,0,0,0,6.65,14.56,14.23,14.23,0,0,0-3.34-.89c-3.36-.42-10.44,2.19-6.68,6.67,3.61,4.29,9.23-.32,13.32-1a192.4,192.4,0,0,0,12.94,16,1,1,0,0,0-.67.55c-1.84-.93-3.76-2.27-5.47-2.63-2.45-.52-7.49-.84-9.35,1.36-2.29,2.71.16,4.91,2.86,5.43,3.92.75,9-1.16,12.81-2.46a1.24,1.24,0,0,0,1.18-.39l.25-.08c4.64,5.11,9.47,10.05,14.26,14.88h-.15a13.16,13.16,0,0,0-4.05-1.85c-3.36-.82-7.32-.82-10,1.61s-3.68,6.67-.87,9.39c5.63,5.45,13.93-7,16.77-7.49,4.87,4.85,10,9.39,15.26,13.84a9.53,9.53,0,0,0-1.84-.37c-5.13-.49-17.17,5.8-10.88,12,5.49,5.39,11.84-5,16.27-8.62,4.93,4.14,9.88,8.26,14.7,12.54a14,14,0,0,0-8,.05c-2.92.88-7.62,3.08-5.78,7s7.52,2.18,10.47.91c1.6-.69,4.82-3,7.64-4a97,97,0,0,1,19.4,24.68,84.89,84.89,0,0,1,7.21,18.62c1.08,4.12,3.19,11.05,2.77,16.41,2-10.74-1.63-23.64-5.56-33.23a80.79,80.79,0,0,0-15.36-23.56c1.59-4.78,15-11.67,7-16.12-4.25-2.34-8.6,1.55-9.53,5.68-.63,2.84.34,6.4,1.37,9.15q-3-3.18-6.2-6.17c-2.95-2.75-6-5.42-9-8.05,5-4.73,9.78-18.22,3-20.43-9.95-3.25-5.16,15.16-4.46,18.61a.54.54,0,0,0,.46-.18c-.05.32-.12.66-.2,1-5.84-5-11.76-9.94-17.49-15.08a25.36,25.36,0,0,0,2-2.61,29.31,29.31,0,0,0,3.87-5.63c1.61-3.23,3.16-8.39-1.1-10.29-4.64-2.07-6.84,3.76-6.87,7.24a45.28,45.28,0,0,0,1,7.05c.11.74-.3,4.06.7,2.63a6.16,6.16,0,0,0,0,1.18c-1-.93-2.05-1.87-3.06-2.81a1.24,1.24,0,0,0,.08-.4,1.2,1.2,0,0,0-1.72-1.14c-1.33-1.27-2.66-2.56-4-3.87-2.76-2.78-5.56-5.64-8.34-8.57.61-.51.37-1.23.93-1.78s1.67-.85,2.33-1.36a15.93,15.93,0,0,0,4-5c1.65-3,3.78-9.41-1-10.86s-7.48,4.64-7.8,8.47a97.07,97.07,0,0,0,.92,9.87c-5.14-5.43-10.2-11.06-14.78-16.8,1.39,0,5.33-2.85,6.12-3.63,1.94-1.9,5-6.08,1.63-8.3-3-2-6.77.88-8.06,3.65a39.28,39.28,0,0,0-1,6.6c-1.9-2.44-3.71-4.88-5.39-7.33q-1.68-2.46-3.15-5a2.29,2.29,0,0,0,.66-.66c5.06-.85,11.5-8.74,5.56-11.48-2.82-1.3-5.89,1.39-7.27,3.59a30.45,30.45,0,0,0-1.12,4.51,94.75,94.75,0,0,1-6.62-17.81,1.11,1.11,0,0,0,.86-1c2.45-1.4,4.39-2.57,6.1-5.26,1.07-1.67,3-5.48-.14-6.41-4.07-1.2-6.62,5-7,8.07,0,.35,0,1.39,0,2.33a1.48,1.48,0,0,0-.42,0c-.94-3.81-1.68-7.66-2.28-11.53,2.22-.71,2.61-12.37,1.13-14-3.3-3.71-5.64,1.65-5.46,4.49a18.78,18.78,0,0,0,3.53,9.09c.19.29.14.27.19-.12a.78.78,0,0,0,.19.44c-.09,1.76-.27,3.57-.19,5.13a117.3,117.3,0,0,0,1.53,13.35c.18,1.08.39,2.14.63,3.19a25.91,25.91,0,0,0-5.13-3.29C162.17,100.27,158.41,99.09,156,101ZM278.86,255.88a12.8,12.8,0,0,1-.92,4.15A34.74,34.74,0,0,0,278.86,255.88Z"/><path id="Leaf-Top" class="cls-4" d="M147.11,8.4c2.46-1.22,5.73.19,4.37,3.41-1.47,3.45-6.88,3.5-9.94,3.43.31,0,1.29-3.18,1.63-3.66A10.4,10.4,0,0,1,147.11,8.4Zm2.85,16a2.94,2.94,0,0,1,.34,4.41c-1.43,1.58-4,1.53-6,1.37-.88-.07-5.59-.44-4.47-1.2a3.38,3.38,0,0,0-.46.22c-.1.37-.21.74-.32,1.11l.08.05-.08,0a43,43,0,0,1-4.86,10.53,10.53,10.53,0,0,1,2.43-.65c2.46-.3,7.62,1.58,4.88,4.82s-6.74-.22-9.73-.68a139.94,139.94,0,0,1-9.45,11.57.75.75,0,0,1,.49.4,20,20,0,0,1,4-1.91c1.79-.37,5.48-.6,6.83,1,1.67,2-.12,3.54-2.09,3.92-2.86.54-6.6-.84-9.35-1.77a.91.91,0,0,1-.86-.29l-.19,0c-3.39,3.69-6.91,7.27-10.42,10.76h.12a9.46,9.46,0,0,1,3-1.33c2.46-.6,5.35-.6,7.34,1.16s2.69,4.81.63,6.78c-4.11,3.94-10.16-5-12.24-5.41-3.56,3.52-7.32,6.8-11.14,10a6.63,6.63,0,0,1,1.34-.27c3.74-.36,12.53,4.19,7.93,8.66-4,3.91-8.64-3.6-11.87-6.22-3.6,3-7.22,6-10.74,9.07a10.33,10.33,0,0,1,5.83,0c2.13.63,5.56,2.22,4.22,5.07s-5.5,1.58-7.65.66c-1.17-.5-3.52-2.19-5.58-2.9A70.24,70.24,0,0,0,67.7,111.14a60.88,60.88,0,0,0-5.27,13.47c-.79,3-2.34,8-2,11.87-1.47-7.77,1.2-17.1,4.07-24a58.47,58.47,0,0,1,11.23-17C74.54,92,64.77,87,70.61,83.75c3.1-1.7,6.28,1.12,7,4.1.46,2.05-.25,4.63-1,6.62,1.45-1.54,3-3,4.53-4.46,2.15-2,4.36-3.93,6.59-5.83C84,80.77,80.55,71,85.47,69.41c7.27-2.36,3.76,11,3.25,13.45a.38.38,0,0,1-.33-.12c0,.23.08.47.14.72,4.26-3.63,8.59-7.2,12.78-10.91a19,19,0,0,1-1.45-1.89A21.43,21.43,0,0,1,97,66.59c-1.17-2.34-2.3-6.06.81-7.44,3.38-1.5,5,2.72,5,5.23a32.43,32.43,0,0,1-.71,5.1c-.08.53.22,2.93-.51,1.9a5.15,5.15,0,0,1,0,.85l2.24-2a.86.86,0,0,1,1.19-1.11c1-.92,1.94-1.85,2.9-2.8,2-2,4.05-4.08,6.08-6.2-.44-.37-.26-.89-.67-1.29a19.68,19.68,0,0,0-1.71-1,11.71,11.71,0,0,1-3-3.61c-1.2-2.2-2.75-6.8.77-7.85s5.46,3.35,5.69,6.12a69.49,69.49,0,0,1-.68,7.14c3.76-3.93,7.45-8,10.8-12.15-1,0-3.89-2.07-4.47-2.63-1.42-1.37-3.67-4.39-1.18-6,2.21-1.42,4.93.64,5.88,2.64a28.13,28.13,0,0,1,.74,4.77c1.39-1.76,2.71-3.53,3.94-5.31.82-1.18,1.59-2.39,2.3-3.62a1.68,1.68,0,0,1-.48-.48c-3.69-.62-8.39-6.31-4.06-8.3,2.07-.94,4.3,1,5.31,2.6a20.27,20.27,0,0,1,.81,3.25A67.27,67.27,0,0,0,139,21.51a.79.79,0,0,1-.63-.74A10.89,10.89,0,0,1,133.88,17c-.78-1.21-2.18-4,.1-4.64,3-.87,4.84,3.62,5.08,5.83,0,.26,0,1,0,1.69a1.07,1.07,0,0,1,.31,0c.68-2.75,1.22-5.54,1.66-8.33-1.62-.52-1.9-8.95-.82-10.15,2.42-2.69,4.12,1.2,4,3.25a13.52,13.52,0,0,1-2.59,6.57c-.14.21-.1.2-.13-.09a.56.56,0,0,1-.14.32,36.83,36.83,0,0,1,.13,3.71,82.58,82.58,0,0,1-1.12,9.66c-.13.77-.28,1.54-.46,2.3a19.21,19.21,0,0,1,3.75-2.38C145.44,23.93,148.19,23.07,150,24.41ZM60.11,136.17a5.9,5.9,0,0,0,.85,2.76A15.47,15.47,0,0,1,60.11,136.17Z"/><g id="Plant-Left" class="cls-5"><path id="Leaf" class="cls-6" d="M124.72,114.07c2.94-4.2,8.4-14.85,12.54-16.34,2.66-1,1.89,9,1.92,10.92a158.52,158.52,0,0,1-1.48,22c-1.59,13.17-6.81,24.9-14,36.11-3.68,5.77-8,11.61-14,15.21-2.75,1.65-6.06,1.93-8.78,3.36-3.17,1.66-1.45.32-2.87,3.62-2,4.58-2.62,10.49-3.53,15.37-4.21,22.44-14.41,141.05-12.64,163.87.16,2-2.66,2.51-2.8,0-.75-13.09,5.72-103.77,9-133.43s6.58-55.85,9.89-66.11c4-12.45,11.29-27.41,17.34-39A137.35,137.35,0,0,1,124.72,114.07Z"/><path id="Leaf-2" data-name="Leaf" class="cls-7" d="M146.55,259.51c7.65-5.62,15.93,5,9,10.6-3.83,3.11-7.83,2-10.08-.59-1.47,1.79-2.84,3.65-4.15,5.23-4,4.79-7.8,9.71-11.42,14.73-7.52,10.45-14,21.48-20.7,32.31S96,343.23,89.94,354.19C84.83,363.47,78,374.4,76.28,384.58,78.93,363,89,342.23,101,323.2c11.89-18.88,25.53-39.5,43.94-54.39A6.51,6.51,0,0,1,146.55,259.51Z"/><path id="Leaf-3" data-name="Leaf" class="cls-6" d="M1.34,206.85c4.28.84,11.28,10.52,14.81,14.22a139.39,139.39,0,0,1,11.59,14,236.51,236.51,0,0,1,20.5,33.45,310.32,310.32,0,0,1,22.81,59.37A243.6,243.6,0,0,1,78,366.78c.25,2.46,2.84,21.47-.89,22-3.35.46-2.31-14.44-2.48-16.46-1.82-22.86-7.3-45.11-14.91-66.65C58,301,56.49,295.22,53.84,291c-1.91-3,0-2-3.37-3.13-2.88-1-6.16-.75-9.11-2-6.42-2.63-11.55-7.73-16-12.86-8.74-10-15.67-20.77-19.28-33.56A160.55,160.55,0,0,1,1.16,218C.9,216.07-1.42,206.31,1.34,206.85Z"/><path id="Leaf-4" data-name="Leaf" class="cls-8" d="M18.24,45.68A388,388,0,0,1,56.18,135.5c5.19,18.86,8.81,38.21,12.42,57.42,5.58,29.75,10.85,59.49,12.35,89.76,1.52,30.45,4.5,65.57-5.47,94.9,5-29.78.24-61.47-.6-91.43-.4-14.3-1.56-28.46-3.09-42.68-1.48-13.8-3.9-27.52-6.15-41.21-1.09-6.66-2.25-13.32-3.42-20-.35-2-.5-7.87-1.76-9.23s-7.73-1.92-9.76-2.92a52.51,52.51,0,0,1-11.33-7.91c-6.52-5.8-12.19-13.38-16.67-20.85C12.34,124.09,8.2,103,8.41,83c0-3.89,6.29-45.76,3.78-46.33.15-.18.29-.36.43-.55C14.52,39.26,16.38,42.47,18.24,45.68Z"/><path id="Leaf-5" data-name="Leaf" class="cls-8" d="M192.34,146.57c.25-.36,1.87-2.86,1-2.7,1.66-.32-2.28,2.75,1.85.87-2,1.85-.83,4.26-.8,6.76a61,61,0,0,1-1.4,12,82.75,82.75,0,0,1-5.61,18.21c-5.69,12.71-15.35,24.95-26.81,32.9-5.66,3.92-11.21,5.26-17.67,7.06-4.07,1.14-4.4,3.25-6.56,7.21-4.51,8.24-8.93,16.45-12.91,25-4.74,10.17-9.35,20.36-13.69,30.71C95.15,319.47,83.24,355.59,77,393c-.15-22,4.94-44.73,11.37-65.72C93,312,99.13,297.21,105.63,282.61c1.58-3.54,4-8.09,4.64-12,.47-2.74-1-5.37-1.62-8.25a86.18,86.18,0,0,1-.13-35.08c2.47-12.44,9.63-18.22,21.74-20,4.43-.64,10.06-.41,14.12-2.3,4.43-2,6.25-8.81,8.77-13.15a178.88,178.88,0,0,1,24-32.66,78.23,78.23,0,0,1,8.21-7.55C187.21,150.18,191.09,148.37,192.34,146.57Z"/><path id="Base" class="cls-7" d="M56.54,369.18h43a3.5,3.5,0,0,1,3.5,3.5,4.38,4.38,0,0,1,0,.51l-3.32,22.53a14,14,0,0,1-13.85,11.95H70.24A14,14,0,0,1,56.4,395.72l-3.32-22.53a3.49,3.49,0,0,1,3-4A2.92,2.92,0,0,1,56.54,369.18Z"/></g><g id="Maceta"><path id="Base-2" data-name="Base" class="cls-9" d="M17.79,380.7c0,14.89,1.17,27,17,27s17-12.08,17-27"/><path id="Fill-27" class="cls-9" d="M39.44,371.4a29.28,29.28,0,0,0-1.55,3.06,41.63,41.63,0,0,1,.42-6.46c.55-3.73,1.39-7.44,2.18-11.14.57-2.66.53-7.45,2.69-9.57.59-.46.73.44.73.83,0,.09,0-1.59-.57-1.3-3.41,1.76-4.52,7.3-5.61,10.07a53,53,0,0,0-3.5,12.39,28.35,28.35,0,0,0-.24,3.19c-.11-.29-.22-.57-.34-.86a58,58,0,0,0-7.94-13.27c-.81-1-11.06-11.1-11.86-9.55a1,1,0,0,0,.5.55s0,0,0,0c.6,1,2.31,2.47,2.85,3.32a65.51,65.51,0,0,1,3.44,6.65C22.88,364,25,368.78,27,373.56c.47,1.11,1,2.21,1.45,3.32-5.13-7.41-12-14.14-21.42-18,3.22,1.64,5.33,4.72,7.51,7.08,2.62,2.85,5.39,5.62,8,8.47,3.1,3.35,6.75,6.89,9.73,10.6,2.89,6.07,5.7,12.14,7.43,18.52-.71-2.2,0-5.25-.17-7.56a50.64,50.64,0,0,0-.61-5.49,10.91,10.91,0,0,1,.82,2.41c-.13-1.28-.28-2.56-.44-3.83.41-1.18.82-2.29,1.09-3.2a83,83,0,0,1,5.35-13.77,123.9,123.9,0,0,1,7.15-12.22l3.71-5.55c.81-1.21,1.58-3.14,2.71-4.3C52,356.71,44.06,363.41,39.44,371.4"/></g><path class="cls-10" d="M38.69,143.64c.46-.25,24.74,24.46,25.73,30.58,0,0-8.68-26.9-16.1-34.58S38.69,143.64,38.69,143.64Z"/><path class="cls-10" d="M73.32,146.49c.51,0,11.17,32.95,9.31,38.87,0,0,4.29-28,1.09-38.13S73.32,146.49,73.32,146.49Z"/><path class="cls-10" d="M18.79,176.43C19,176,53,182.81,57.31,187.32c0,0-22.32-17.4-32.78-19.59S18.79,176.43,18.79,176.43Z"/><g id="Bottom_Standing_Jogging" data-name="Bottom/Standing/Jogging"><polygon class="cls-11" points="350.92 406.38 341.18 406.38 338.95 402.18 333.19 391.33 295.92 321.06 263.62 267.06 261.41 263.36 258.56 258.61 237.05 222.65 235.56 220.14 275.09 220.14 276.02 222.4 343.53 388.21 348.54 400.52 350.92 406.38"/><g id="Accessories_Shoe_Flat-Sneaker" data-name="Accessories/Shoe/Flat-Sneaker"><path id="shoe" class="cls-12" d="M335.22,402.44a17.48,17.48,0,0,0-1.37,5.45,40.77,40.77,0,0,0,.74,6.41h45.82q1.79-5.91-2.07-6.37t-6.39-.85l-21.3-9.5a.81.81,0,0,0-1.07.41v0l-1.37,3.32a14.57,14.57,0,0,1-5.79,1.67,13,13,0,0,1-5-1.47h0a1.64,1.64,0,0,0-2.16.8S335.23,402.41,335.22,402.44Z"/></g><path class="cls-13" d="M344,388.06l-15.4,4.66A641.46,641.46,0,0,1,274,315a830,830,0,0,1-47.29-92l48.83-1.4c13.72,27.49,26.79,57.44,38.74,87Q331.83,351.85,344,388.06Z"/><path class="cls-14" d="M292.2,248.34q1.17,2.52,2.33,5"/><path class="cls-14" d="M290.27,244.21q-5.72-12.17-11.66-24.07H225.52l1.23,2.8c1.05,2.37,2.11,4.74,3.16,7.08q10.76,23.82,22.09,45.55,2,3.81,4,7.56c.68,1.29,1.37,2.56,2.07,3.84q7.85,14.47,16,28a641.46,641.46,0,0,0,54.57,77.75l4.58-1.38,10.34-3.13.48-.15,3.39-1q-12.34-36.93-30.28-81.29-9.57-23.69-19.91-46.49"/><path class="cls-15" d="M271.3,220.14l0,.11c-.12.47-.26.94-.39,1.42-3,11-7.51,24.07-12.32,36.94-2.14,5.76-4.36,11.48-6.56,17-8,20.14-15.69,37-18.17,40.7q-4.11,6.09-71.35,16.51l-2.48.37c-5,.77-10.17,1.54-15.63,2.34l-3.06.44-2.11-8.6,3.58-1.15,11.9-3.82,2.23-.73q56-18.11,57-19.32c.94-1.27,10.1-38.83,16-72.29.43-2.42.85-4.83,1.24-7.2.15-.9.3-1.79.44-2.68Z"/><path class="cls-16" d="M271.29,220.14l0,.11c-.1.47-.19.94-.3,1.42q-4.92,23.47-9.56,41.69-2.76,10.81-5.41,19.77Q246.25,316,237.84,324q-8.16,7.77-31.77,9.5-17.53,1.29-43.59-.74l-2.64-.22-2.48-.21-2.68-10,2.23-.73-.46-1.73q52.47-18.81,53.89-21.95t13.42-77.81Z"/><g id="Accessories_Shoe_Flat-Sneaker-2" data-name="Accessories/Shoe/Flat-Sneaker"><path id="shoe-2" data-name="shoe" class="cls-12" d="M141.6,323.75a17.84,17.84,0,0,0-5.6-.4,41.78,41.78,0,0,0-6.19,1.84l8,45.12c4.08.49,6.06-.55,5.92-3.13s-.23-4.73-.27-6.45l5.65-22.62a.82.82,0,0,0-.59-1h0l-3.51-.77a14.41,14.41,0,0,1-2.64-5.41,13.12,13.12,0,0,1,.57-5.18h0a1.63,1.63,0,0,0-1.16-2Z"/></g><path class="cls-14" d="M274.39,220.14c-.1.49-.21,1-.3,1.44q-5.41,25.89-10.47,45.48Q260.79,278,258.07,287q-9.33,30.75-17.43,38.45-14.8,14.08-80.48,8.33l-.16-.6-.16-.59-2.93-10.93-.46-1.73q52.47-18.81,53.89-21.95t13.42-77.81Z"/></g><g id="Head_Front_Short-Beard" data-name="Head/Front/Short-Beard"><g id="Head"><path class="cls-15" d="M245.06,109.87c-3.75-5-6.13-11-5.27-17.48,2.48-18.7,28.38-13,32.88-3.16s2.41,33.82-4.27,35.1c-2.66.52-8.14-1.48-13.62-5.26l2,25.47-21.07-1.31Z"/></g><path id="Hair" class="cls-3" d="M257.29,95.56q.16,16.92,5.36,17.25c5.19.32,9.8-2.71,12.08-2.57,1.66.11,1.16,2.16,0,3.63-1,1.22-5.48,2.17-5.6,4.14s3.46.66,3.39,1.83c-.12,1.93.27,5.61-3.08,5.4s-13.06-2-14.41-7.19q-1.32-5-.84-20.35a4.5,4.5,0,0,0-.63-.07,5.27,5.27,0,0,0-4.24,8.8c-1.32,1.65-2.8,3.36-4.48,5.12-5.66-3.89-10.23-15.2-3.87-24.76,1.89-4.77,6.49-6.43,10.81-7.37a15.3,15.3,0,0,1,10.08-.12c5.88.87,11.05,3,12.48,4.16-.35,5.6-1.54,7.19-10.79,6.47C261.16,91,259.28,93,257.29,95.56Z"/></g><g id="Body_Hoodie" data-name="Body/Hoodie"><path id="Skin" class="cls-15" d="M300.65,203.08l27.69,20.33A74.51,74.51,0,0,1,347.16,231c1.19,1.08,2.63,3.28-2.31,2.9S334.71,233.32,334,235s2.31,3.7.93,6q-1.38,2.28-13-11.39l-27.42-11.37Zm-106.3.7,18.14.08q-16.8,54.22-18.14,57.54c-2,5,2.24,12.56,4.06,16.64-5.92,2.64-5.29-7.17-12.75-3.69-6.82,3.17-12,8.92-19.88,4.06-1-.6-2-2.85.53-4.61,6.39-4.38,15.59-12,16.84-14.56Q185.69,254.08,194.35,203.78Z"/><path class="cls-17" d="M326.55,221.47l-7.94,9.85c-58-7.17-73.25-61.32-72.76-101.08l6.16-1.06C279.82,153.21,293,203.92,326.55,221.47Z"/><path class="cls-14" d="M326.82,221.14l-.27.33-7.94,9.85c-58-7.17-73.25-61.32-72.76-101.08,0-.86,0-1.72.05-2.57l7.51-1.29c6.85,5.92,12.71,13.18,18.15,21.13,2,2.91,3.93,5.91,5.84,9C291.5,179,304.16,204.88,326.82,221.14Z"/><path id="Shirt" class="cls-18" d="M213.18,222h66.41c3,0,2.46-4.38,2-6.59-5.06-25.52-24.82-53-24.82-89.35l-19.16-3C221.79,148.53,216.31,179.9,213.18,222Z"/><path class="cls-19" d="M255.92,240.22c-.16.48-.34.95-.52,1.4H203.13a181,181,0,0,1-8.1,16.83H182.8q-2-65,30.91-110.36a10.93,10.93,0,0,1-6.6-5.59c-5.8-10.48-5.07-17-.38-20.28l.59-.2c7.48-2.28,14.15,2.43,26.07,2.43a13.82,13.82,0,0,1,1.78.11l6,.35Q266.39,210.34,255.92,240.22Z"/><path class="cls-14" d="M203.31,132.92c-1-5.08.37-8.59,3.42-10.7a12.5,12.5,0,0,1,3.39-1.6"/><path class="cls-14" d="M187.71,205.44a158,158,0,0,1,26-57.35"/><path class="cls-14" d="M183,239.66c0-.68.07-1.37.12-2"/><path class="cls-14" d="M238,123.17l6,.34Q269.77,211,258.2,240.22H205.93c-.2.47-.4.94-.61,1.4a172.62,172.62,0,0,1-8.27,16.83H182.8q-.26-8.61.08-16.88"/><path id="Shade" class="cls-20" d="M217.32,210.27q2.46,20.64,8,29.95h-19.4Q211.36,227.59,217.32,210.27Z"/></g><g id="humaaans_sitting-4" data-name="humaaans/sitting-4"><g id="A-Human_Sitting" data-name="A-Human/Sitting"><g id="Head_Front_Curly" data-name="Head/Front/Curly"><g id="Head-2" data-name="Head"><path class="cls-15" d="M126.12,237.61h16.79l-2.84-20.12c4.53,2.73,9,4,11.07,3.51,5.24-1.35,5.73-20.52,1.67-28.08s-24.9-10.86-25.95,4.12c-.37,5.2,1.82,9.84,5,13.62Z"/></g><path id="hair-2" data-name="hair" class="cls-3" d="M159.29,186.91a7.34,7.34,0,0,1-1.62,1.76,3.8,3.8,0,0,1,1.17,1,2.14,2.14,0,0,1,.28,1.36,6,6,0,0,1-.51,1.75,4.36,4.36,0,0,1-1,1.34,1.48,1.48,0,0,1,.91.73,2.1,2.1,0,0,1,.19.6c.06.25.16.48.21.73a1.86,1.86,0,0,1-.16,1.25,3.18,3.18,0,0,1-1.42,1.23,4.32,4.32,0,0,1-2.6-.19,8.06,8.06,0,0,1-1-2.29,13.87,13.87,0,0,0-1.54-2.73,8.16,8.16,0,0,0-2.31-2.3c-.19-.12-.51-.45-.72-.32s-.23.32-.32.45a3.38,3.38,0,0,1-.4.44,6.2,6.2,0,0,1-2.33,1.28,13.43,13.43,0,0,0-2.52,1,3.66,3.66,0,0,0-1.46,1.89c-.29.77-.44,1.59-.66,2.38a14.7,14.7,0,0,1-1.21,3,4.23,4.23,0,0,1-.88,1.17c-.22.19-.71.56-1,.35-.14-.1-.12-.29-.16-.43s-1.36-2.77-2.51-3a10.08,10.08,0,0,0-4.75.25c-2,1.07-2.22,3.42-1.62,5.37a6,6,0,0,0,1.32,2.47,2.65,2.65,0,0,0,1.05.74,3.15,3.15,0,0,0,1.36.17,2.79,2.79,0,0,0-.08.7,7.18,7.18,0,0,1,.06.8,4.23,4.23,0,0,1-.32,1.49,3.63,3.63,0,0,0-.29.75c0,.2,0,.4,0,.6a3.27,3.27,0,0,1-.34,1.1,2.53,2.53,0,0,1-4,.53,6,6,0,0,1-3.79,3.13c-1.35.36-3.24.4-4.16-.84a5.79,5.79,0,0,1-1.2.82,5.36,5.36,0,0,1-5.38-.15,4.35,4.35,0,0,1-1.72-2.32,7.32,7.32,0,0,1-.09-3.16c0-.11.09-.33,0-.43s-.18-.13-.28-.17a3.36,3.36,0,0,1-.57-.35,3,3,0,0,1-.86-1,4.85,4.85,0,0,1-.35-3,10.69,10.69,0,0,1,.38-1.58q.12-.37.27-.75a7.6,7.6,0,0,0,.31-.73c0-.18,0-.08-.06-.2a1.66,1.66,0,0,0-.14-.13,2.73,2.73,0,0,1-.23-.25,3,3,0,0,1-.36-.52,3.87,3.87,0,0,1-.42-1.18,7.33,7.33,0,0,1,.09-2.68,6.5,6.5,0,0,1,.49-1.55c.07-.15.18-.3.24-.45s0-.14,0-.28a4.27,4.27,0,0,1-.35-.67,6.79,6.79,0,0,1-.1-4.64,5.71,5.71,0,0,1,2.79-3.34,5.46,5.46,0,0,1,1.09-.39,4.48,4.48,0,0,1,.62-.11c.06,0,.22,0,.26,0s0-.23.05-.28a4.77,4.77,0,0,1,1.06-2.26,4.87,4.87,0,0,1,2.07-1.39c.16-.05.21-.05.3-.18a2.07,2.07,0,0,0,.15-.34c.11-.22.22-.44.35-.65a6.54,6.54,0,0,1,.92-1.24,6.26,6.26,0,0,1,2.48-1.77,2.83,2.83,0,0,1,1.58-.05,5.31,5.31,0,0,1,1.12.49c0-.11.19-.2.27-.28s.23-.32.35-.48a3.48,3.48,0,0,1,1-.89,6.86,6.86,0,0,1,2.64-1,5.28,5.28,0,0,1,2.7.25,3.09,3.09,0,0,0,.65.29c.15,0,.49-.25.64-.32a5.21,5.21,0,0,1,1.35-.38,3.56,3.56,0,0,1,2.23.5c.18.11.16.06.28-.09a2.85,2.85,0,0,1,.23-.26,5.29,5.29,0,0,1,.41-.41,9.16,9.16,0,0,1,.84-.7,7.58,7.58,0,0,1,4.68-1.12,6.66,6.66,0,0,1,4.15,1.26c.09.07.33.37.45.39s.46-.25.56-.3a8.87,8.87,0,0,1,1.1-.47,5.56,5.56,0,0,1,2.25-.31,6.23,6.23,0,0,1,3.76,1.78,5.25,5.25,0,0,1,1.24,1.84,5,5,0,0,1,.19.63,1.08,1.08,0,0,0,0,.27c.06.08.09.05.2.05a3,3,0,0,1,.94.09,3.64,3.64,0,0,1,2.54,2.58A5.48,5.48,0,0,1,159.29,186.91Z"/></g><g id="Bottom_Sitting_Sweat-Pants" data-name="Bottom/Sitting/Sweat-Pants"><g id="Objects_Seat_Cube-2" data-name="Objects/Seat/Cube-2"><path id="Seat" class="cls-3" d="M68,336.28v64.38a11.19,11.19,0,0,0,11.19,11.2h80.48a11.2,11.2,0,0,0,11.2-11.2V336.28a11.2,11.2,0,0,0-11.2-11.19H79.23A11.19,11.19,0,0,0,68,336.28Zm80.47,8.4a2.8,2.8,0,0,1,2.8,2.8v42a2.8,2.8,0,0,1-2.8,2.8H90.43a2.8,2.8,0,0,1-2.8-2.8v-42a2.8,2.8,0,0,1,2.8-2.8Z"/></g><path id="Skin-2" data-name="Skin" class="cls-15" d="M229.47,407c-7.46-45.67-13.66-75.9-17.21-85.1-2.35-6.08-20.11-5.37-18.07,6.86.86,5.13,4.25,18.87,8.7,34.48,2.61,9.12,9.09,26.4,18.06,46.24ZM119.52,355.61c3.14-.43,39.92-4.29,65.86-8,10.41-1.5,4.81-21-6-18.94-3.64.69-7.51,1.46-11.51,2.29-13.89,2.88-42.7,13.05-50.93,16.3C111.77,349.29,115.11,356.22,119.52,355.61Z"/><path class="cls-21" d="M227.13,390.44l-15.26,2.27c-6.26-23.19-26.27-39.34-25.73-67.11a8.82,8.82,0,0,1-.13-2.32l-44.49-22.65v-2.14h3.89q64.58,16.47,66,21.09a.3.3,0,0,0,0,.1l.07.09C219.21,330.39,224.18,378.32,227.13,390.44Z"/><path class="cls-14" d="M224.92,368.58c.38,2.71.73,5.29,1.06,7.66"/><path class="cls-14" d="M227,383.37a53.14,53.14,0,0,0,1.24,6.91l-1.08.16-15.26,2.27c-6.26-23.19-26.27-39.34-25.73-67.11a8.82,8.82,0,0,1-.13-2.32l-44.49-22.65v-4.94h5.29q64.58,16.47,66,21.1l0,.09.07.09c5,6.95,8.91,29.92,11.56,48.36"/><path class="cls-22" d="M203.16,346.23a.58.58,0,0,1,0,.14c-32.73,12.7-58.47,5.75-67.21,8l-4-12.67,10.52-3.61-.81-.16,3.61-1.24c-4.07-.81-7.82-1.54-11-2.11-20.31-3.56-26.53-14.29-23.39-37.53h35.58c6.24,1.79,38.65,15.39,55.47,22.62C213,324.5,209.47,341.75,203.16,346.23Z"/><path class="cls-14" d="M134.2,349l-2.31-7.25-.12-.4L141.6,338l3.61-1.24c-4.07-.81-7.82-1.54-11-2.11-20.31-3.56-26.53-14.29-23.39-37.53.07-.46.13-.93.2-1.4h38.18c6.24,1.8,38.65,15.39,55.47,22.62,4.92,2.12,7.19,7.1,7.22,12.24a21.66,21.66,0,0,1-1.35,7.77,16.32,16.32,0,0,1-3.57,5.74,9.7,9.7,0,0,1-.92.81,18.89,18.89,0,0,1-5.4,2.41"/><path class="cls-14" d="M194.21,349.38a114.48,114.48,0,0,1-13.14,3.11l-.67.12a131.85,131.85,0,0,1-21.09,1.7c-5.24,0-10.47-.28-15.7-.39a28.31,28.31,0,0,0-7.69.49l-.64-2"/><g id="Accessories_Shoe_Flat-Sneaker-3" data-name="Accessories/Shoe/Flat-Sneaker"><path id="shoe-3" data-name="shoe" class="cls-12" d="M119.86,345.16a1.4,1.4,0,0,1,1.43,1.37h0A11.48,11.48,0,0,0,122,351a12.66,12.66,0,0,0,3.48,3.85l3.09-.19h0a.69.69,0,0,1,.72.67l.69,20.08q.66,2.1,1.76,5.27c.72,2.1-.66,3.44-4.16,4l-17.3-35.47a34.93,34.93,0,0,1,4.68-3,14.88,14.88,0,0,1,4.74-1Z"/></g><g id="Accessories_Shoe_Flat-Sneaker-4" data-name="Accessories/Shoe/Flat-Sneaker"><path id="shoe-4" data-name="shoe" class="cls-12" d="M216.91,405.75a1.4,1.4,0,0,1,1.85-.69h0a11.3,11.3,0,0,0,4.31,1.26,12.6,12.6,0,0,0,5-1.43l1.18-2.86v0a.7.7,0,0,1,.93-.35l18.34,8.18c1.46.21,3.3.46,5.51.73s2.8,2.1,1.77,5.49H216.32a35.12,35.12,0,0,1-.63-5.52,14.9,14.9,0,0,1,1.18-4.7A.36.36,0,0,1,216.91,405.75Z"/></g></g><g id="Body_Jacket" data-name="Body/Jacket"><path id="Skin-3" data-name="Skin" class="cls-15" d="M175.55,296l20.61,12.15q7.76,12.21,9.11,10.55c1.36-1.66-.8-3.6-.07-4.87s4.87-.54,8.77.32,3-1.06,2.17-2.06A60.28,60.28,0,0,0,202,303.92l-21.55-19.4ZM85.11,332c-1,2-8.42,8.21-13.57,11.74-2.07,1.42-1.21,3.23-.43,3.72,6.35,3.91,10.53-.72,16-3.28,6-2.8,5.51,5.11,10.29,3-1.47-3.29-4.9-9.4-3.28-13.41q1.08-2.68,14.63-46.4l-14.63-.06Q87.17,327.85,85.11,332Z"/><path class="cls-23" d="M194.92,297.25l-18.34,22.29c-25.57-29.87-41.44-60.68-40.91-92.43l4.68-.8Q156,265.34,194.92,297.25Z"/><path class="cls-14" d="M196.32,295.85,176.7,319.68l-.12-.14c-25.57-29.87-41.44-60.68-40.91-92.43,0-.39,0-.77,0-1.17l6.05-1Q157.38,263.94,196.32,295.85Z"/><path id="Shirt-2" data-name="Shirt" class="cls-18" d="M128.23,222.22l16.25,2.42q0,31.82,18.73,77.35H109.32C111.85,268.06,115.45,242.76,128.23,222.22Z"/><path class="cls-24" d="M143.86,316.41H108.53c.1,2.87.25,5.76.47,8.68H84.83a233.67,233.67,0,0,1,3.91-26.86A184.37,184.37,0,0,1,95,275.53a151.55,151.55,0,0,1,9.69-22.24,128.32,128.32,0,0,1,23.2-31l4.82.2,3.92,11.23Q137.21,254.2,143.86,316.41Z"/><path class="cls-14" d="M110.63,316.41c.1,2.87.25,5.76.47,8.68H84.83a233.67,233.67,0,0,1,3.91-26.86A184.37,184.37,0,0,1,95,275.53a151.55,151.55,0,0,1,9.69-22.24,128.32,128.32,0,0,1,23.2-31l0,0v0H129l5.81.24,3.92,11.23c.06,2.23.19,4.84.37,7.82q.24,4.11.62,9.18,1.72,23.06,6.29,65.73H137.6"/><path id="Shade-2" data-name="Shade" class="cls-20" d="M110.65,316.69h9.87q-6-10.14-7.55-36.93A184.22,184.22,0,0,0,110.65,316.69Z"/><polygon id="Light" class="cls-25" points="135.92 294.99 135.92 286.9 118.5 294.99 135.92 294.99"/></g></g></g></g><path class="cls-26" d="M580,12.13V207.57a12.13,12.13,0,0,1-12.13,12.12h-94.6V59.1A12.13,12.13,0,0,0,461.19,47H285.77V12.13A12.13,12.13,0,0,1,297.9,0h270A12.14,12.14,0,0,1,580,12.13Z"/><path class="cls-27" d="M509,313.75c24-71.79-9-186.38-9-186.38s-74.55,94.83-108,171.75S509,313.75,509,313.75Z"/><path class="cls-27" d="M601.5,255.88c-.17.36-5.82,11.78-15.61,28.33h0c-13.83,9.11-35.95,22.63-45.3,24.86,5.55-.78,19.91-2.92,33.77-6.21-7,10.82-15.11,22.57-24.16,34.24-13.54,1.13-27.69,1.69-34.13.21,4.64,1.56,15.6,5.14,27.45,8.19-17.68,21.58-38.38,42-60.58,54.46,0,0-153.22-54.9-76.8-89.43,25.89-11.69,56.65-21.73,86-29.89-6.36,14.78-15.15,33.3-20.77,39.49,7-6.36,32.31-29.8,40.23-44.71,7.29-1.87,14.39-3.62,21.21-5.24-4.52,9.32-9.13,17.69-12.56,21.47,4.2-3.8,14.94-13.72,24.58-24.27C577.59,259.94,601.13,255.93,601.5,255.88Z"/><path class="cls-28" d="M257,139.67V239.92A12.12,12.12,0,0,0,269.07,252h270a12.12,12.12,0,0,0,12.12-12.12V44.48A12.12,12.12,0,0,0,539.1,32.36h-270A12.12,12.12,0,0,0,257,44.48v66.2M473.31,220.22a12.14,12.14,0,0,1-12.12,12.14H280.45a12.14,12.14,0,0,1-12.12-12.14V59.1A12.13,12.13,0,0,1,280.45,47H461.19A12.13,12.13,0,0,1,473.31,59.1Z"/><circle class="cls-29" cx="303.53" cy="12.25" r="3.76"/><path class="cls-30" d="M303.53,17.05a4.81,4.81,0,1,1,4.8-4.8A4.81,4.81,0,0,1,303.53,17.05Zm0-7.51a2.71,2.71,0,1,0,2.7,2.71A2.72,2.72,0,0,0,303.53,9.54Z"/><circle class="cls-29" cx="320.29" cy="12.25" r="3.76"/><path class="cls-30" d="M320.29,17.05a4.81,4.81,0,1,1,4.81-4.8A4.8,4.8,0,0,1,320.29,17.05Zm0-7.51A2.71,2.71,0,1,0,323,12.25,2.71,2.71,0,0,0,320.29,9.54Z"/><circle class="cls-29" cx="337.05" cy="12.25" r="3.76"/><path class="cls-30" d="M337.05,17.05a4.81,4.81,0,1,1,4.81-4.8A4.8,4.8,0,0,1,337.05,17.05Zm0-7.51a2.71,2.71,0,1,0,2.71,2.71A2.71,2.71,0,0,0,337.05,9.54Z"/><rect class="cls-29" x="482.52" y="46.97" width="56.71" height="183.24" rx="15.38"/><path class="cls-30" d="M523.84,231.27H497.9a16.45,16.45,0,0,1-16.43-16.43V62.35A16.45,16.45,0,0,1,497.9,45.92h25.94a16.45,16.45,0,0,1,16.43,16.43V214.84A16.45,16.45,0,0,1,523.84,231.27ZM497.9,48a14.34,14.34,0,0,0-14.33,14.33V214.84a14.34,14.34,0,0,0,14.33,14.33h25.94a14.35,14.35,0,0,0,14.33-14.33V62.35A14.35,14.35,0,0,0,523.84,48Z"/><rect class="cls-26" x="490.6" y="66.94" width="16.42" height="18.75" rx="3.7"/><path class="cls-27" d="M503.31,86.74h-9A4.75,4.75,0,0,1,489.55,82V70.64a4.75,4.75,0,0,1,4.75-4.75h9a4.75,4.75,0,0,1,4.75,4.75V82A4.75,4.75,0,0,1,503.31,86.74ZM494.3,68a2.65,2.65,0,0,0-2.65,2.65V82a2.65,2.65,0,0,0,2.65,2.65h9A2.65,2.65,0,0,0,506,82V70.64A2.65,2.65,0,0,0,503.31,68Z"/><line class="cls-29" x1="514.56" y1="76.31" x2="529.56" y2="76.31"/><path class="cls-30" d="M529.56,77.36h-15a1.05,1.05,0,1,1,0-2.1h15a1,1,0,0,1,0,2.1Z"/><line class="cls-29" x1="285.77" y1="24.08" x2="580.04" y2="24.08"/><path class="cls-30" d="M580,25.13H285.77a1.05,1.05,0,0,1,0-2.1H580a1.05,1.05,0,0,1,0,2.1Z"/><rect class="cls-29" x="490.6" y="92.88" width="16.42" height="18.75" rx="3.7"/><path class="cls-30" d="M503.31,112.68h-9a4.75,4.75,0,0,1-4.75-4.75V96.58a4.75,4.75,0,0,1,4.75-4.75h9a4.75,4.75,0,0,1,4.75,4.75v11.35A4.75,4.75,0,0,1,503.31,112.68Zm-9-18.75a2.65,2.65,0,0,0-2.65,2.65v11.35a2.65,2.65,0,0,0,2.65,2.65h9a2.65,2.65,0,0,0,2.65-2.65V96.58a2.65,2.65,0,0,0-2.65-2.65Z"/><rect class="cls-29" x="490.6" y="195.25" width="40.53" height="18.75" rx="3.7"/><path class="cls-30" d="M527.42,215.05H494.3a4.75,4.75,0,0,1-4.75-4.75V199a4.76,4.76,0,0,1,4.75-4.76h33.12a4.76,4.76,0,0,1,4.76,4.76V210.3A4.76,4.76,0,0,1,527.42,215.05ZM494.3,196.3a2.66,2.66,0,0,0-2.65,2.66V210.3A2.65,2.65,0,0,0,494.3,213h33.12a2.66,2.66,0,0,0,2.66-2.65V199a2.66,2.66,0,0,0-2.66-2.66Z"/><line class="cls-29" x1="514.56" y1="102.25" x2="529.56" y2="102.25"/><path class="cls-30" d="M529.56,103.3h-15a1,1,0,1,1,0-2.09h15a1,1,0,1,1,0,2.09Z"/><path class="cls-10" d="M371.88,180.24c.89-.06,21.4,55.65,18.65,65.91,0,0,5.36-48.13-.82-65.35S371.88,180.24,371.88,180.24Z"/><path class="cls-31" d="M484.51,290.37a9.22,9.22,0,0,1-2.36.32Z"/><path class="cls-31" d="M460,318.6a9.23,9.23,0,0,1-2.33-.8S458.52,318.1,460,318.6Z"/><path class="cls-31" d="M464.2,273a9.73,9.73,0,0,1-1.8,1.62Z"/><path class="cls-31" d="M415.32,301.43a9.73,9.73,0,0,1-1.8,1.62C413.65,302.93,414.29,302.37,415.32,301.43Z"/><g id="Head_Front_Airy" data-name="Head/Front/Airy"><g id="Head-3" data-name="Head"><path class="cls-15" d="M385.21,144.29c4.22-4.95,7.07-11,6.59-17.8-1.37-19.57-28.61-15.26-33.91-5.39s-4.67,34.93,2.18,36.69c2.73.71,8.55-1,14.47-4.59l-3.72,26.3h21.95Z"/></g><g id="hair-3" data-name="hair"><path class="cls-3" d="M370.4,109.72c2.89-.47,10.68-.8,12.11-.8.92,0,1.92.21,2.46-.63s.28-1.86.42-2.66.37-1.85.59-2.76a27.91,27.91,0,0,1,2.92-7.42,22.75,22.75,0,0,1,10.8-9.78,34.6,34.6,0,0,1,16.4-2.25c5.88.47,11.21,2.42,16.77,4.25a35.19,35.19,0,0,0,16.38,1.57c5.58-.85,9.8-3.88,14.5-6.75s10.33-4.86,16-4.42a30.88,30.88,0,0,1,14.61,5.54c4.11,2.75,7.51,6,9.42,10.69,2.07,5,2.06,10.49-1.33,14.91-4.91,6.4-14,8.06-21.62,7.89A41.16,41.16,0,0,1,468,114.75c-5.53-2-10.3-5.24-15.47-7.92a40.52,40.52,0,0,0-7.57-3c-2.55-.72-5.06-1-7.37.49a35.1,35.1,0,0,1-7.43,4.25,24,24,0,0,1-8.38,1.51c-5.56,0-11-1.78-16.44-2.94-4.4-1-9.12-1.89-13.6-1-1.88.38-4.61,1.16-5.29,3.11,11.39,2.06,15.86,16.15,12.65,26.48-1.73,5.58-12.15,12.11-16.2,9.17-2.56-1.85-1-4.29,0-5.91,1.93-3.08,2.59-7-1-9.19-3.08-1.85-6.32,2.55-6.38,2.54-.85-.06-8.16-4.2-13.21-10.24-5,.29-5.72-3-4.54-5.67S366.4,110.38,370.4,109.72Z"/></g></g><g id="Bottom_Sitting_Sweat-Pants-2" data-name="Bottom/Sitting/Sweat-Pants"><g id="Objects_Seat_Ball" data-name="Objects/Seat/Ball"><g id="Ballsy-Ball"><path class="cls-19" d="M523.34,413.81c0-89.2-75.75-161.51-169.2-161.51s-169.2,72.31-169.2,161.51"/></g></g><g id="Objects_Seat_Ball-2" data-name="Objects/Seat/Ball"><g id="Ballsy-Ball-2" data-name="Ballsy-Ball"><ellipse class="cls-27" cx="401.91" cy="347.27" rx="70.4" ry="67.2"/></g></g><g id="Skin-4" data-name="Skin"><path class="cls-15" d="M268.87,404.1c11.72-25.93,20.19-48.5,23.59-60.42,5.82-20.39,10.25-38.34,11.37-45,2.67-16-20.54-16.91-23.6-9-4.65,12-12.75,51.52-22.49,111.18Zm135.88-81.37c-10.74-4.25-48.38-17.54-66.54-21.3-5.21-1.08-10.27-2.09-15-3-14.13-2.69-21.45,22.8-7.84,24.76,33.89,4.87,81.93,9.91,86,10.47C407.15,334.46,411.51,325.4,404.75,322.73Z"/></g><g id="Leg-Back"><path class="cls-21" d="M316.61,294.92l58.14-29.6v-6.44h-6.91q-84.37,21.5-86.23,27.56l0,.13-.09.11c-11.14,15.33-17.82,90.17-20,95.77l21.36,3.19c8.17-30.3,34.31-51.4,33.62-87.69A12.12,12.12,0,0,0,316.61,294.92Z"/></g><g id="Leg-Back-2" data-name="Leg-Back"><path class="cls-1" d="M280.74,382.84h-.1l-21.36-3.18a.68.68,0,0,1-.5-.35.67.67,0,0,1,0-.6c.59-1.51,1.61-9,2.91-18.42,3.4-24.83,9.1-66.39,17.19-77.51v0c.84-2.76,10.75-8.67,86.72-28l.17,0h6.91a.7.7,0,0,1,.7.7v6.44a.71.71,0,0,1-.38.63l-57.73,29.39a13.47,13.47,0,0,1-.18,2.66c.4,22.1-9.14,38.75-18.36,54.85-5.94,10.37-12.08,21.08-15.28,33A.71.71,0,0,1,280.74,382.84Zm-20.46-4.46,20,3c3.29-11.83,9.37-22.44,15.25-32.7,9.14-16,18.59-32.45,18.18-54.2a.57.57,0,0,1,0-.13,11.54,11.54,0,0,0,.15-2.85.66.66,0,0,1,.38-.68L372,261.4v-5.32h-6.12c-73,18.61-85,24.94-85.65,27.06l0,.1a.66.66,0,0,1-.11.24l-.65-.3.57.41c-7.88,10.83-13.55,52.18-16.93,76.88C261.79,369.51,260.92,375.85,260.28,378.38Z"/></g><g id="Leg-Front"><path class="cls-22" d="M367.82,307.14c5.32-1.07,10.22-2,14.41-2.75,27.08-4.75,35-19.24,30.3-50.87H362.65c-8.15,2.34-50.5,20.1-72.47,29.55-14.55,6.25-10,28.79-1.73,34.66a.83.83,0,0,0,.46.71c44.3,18.36,79.35,8.73,91.06,11.8l5.41-17.08Z"/></g><g id="Leg-Front-2" data-name="Leg-Front"><path class="cls-1" d="M380,332.8l-.18,0c-3.36-.88-8.9-.68-15.91-.43-17.47.64-43.87,1.59-75.24-11.41a1.43,1.43,0,0,1-.82-.95c-5.09-3.84-8.51-13.43-7.64-21.57.72-6.73,4.17-11.75,9.72-14.13,20-8.59,64-27.13,72.55-29.58a.69.69,0,0,1,.2,0h49.88a.71.71,0,0,1,.7.6c4.78,32.44-3.87,46.92-30.88,51.66-3.16.55-7,1.27-11.85,2.24l15.11,5.18a.7.7,0,0,1,.44.87l-5.42,17.08A.69.69,0,0,1,380,332.8Zm-7.64-2.06a36.56,36.56,0,0,1,7.17.53l5-15.81-16.92-5.8a.72.72,0,0,1-.47-.71.69.69,0,0,1,.56-.64c6.15-1.23,10.73-2.1,14.43-2.75,26.21-4.6,34.33-18,29.82-49.48H362.75c-7.89,2.31-47.73,18.93-72.3,29.49-6.49,2.79-8.41,8.61-8.88,13-.83,7.81,2.44,17,7.29,20.44a.74.74,0,0,1,.29.49.63.63,0,0,0,0,.16c31.07,12.87,57.29,11.92,74.64,11.29C367,330.84,369.82,330.74,372.33,330.74Z"/></g><g id="Accessories_Shoe_Flat-Sneaker-5" data-name="Accessories/Shoe/Flat-Sneaker"><g id="shoe-5" data-name="shoe"><path class="cls-12" d="M401.08,320a19.6,19.6,0,0,1,6.18,1.3,46.81,46.81,0,0,1,6.13,3.91l-22.61,46.35q-6.86-1.11-5.43-5.23t2.29-6.89l.91-26.23a.91.91,0,0,1,.94-.88h0l4,.26a16.4,16.4,0,0,0,4.54-5,14.81,14.81,0,0,0,1-5.78h0A1.82,1.82,0,0,1,401,320Z"/></g></g><g id="Accessories_Shoe_Flat-Sneaker-6" data-name="Accessories/Shoe/Flat-Sneaker"><g id="shoe-6" data-name="shoe"><path class="cls-12" d="M274.2,399.29a19.51,19.51,0,0,1,1.54,6.13,45.93,45.93,0,0,1-.83,7.22H223.35q-2-6.64,2.32-7.17t7.19-1l24-10.69a.92.92,0,0,1,1.21.47v0l1.54,3.74a16.53,16.53,0,0,0,6.51,1.87,14.72,14.72,0,0,0,5.63-1.65h0a1.82,1.82,0,0,1,2.42.9A.61.61,0,0,1,274.2,399.29Z"/></g></g></g><g id="Skin-5" data-name="Skin"><path class="cls-15" d="M316,230.35,282.84,215.8A78.44,78.44,0,0,0,266,202.61c-1.61-.51-4.37-.67-1.43,3.63s5.85,9,4.68,10.47-4.59-.15-5.94,2.3q-1.33,2.44,17.25,5.86l24.81,19Zm133.93,4-18.73,3.72q28.26,52.67,30.31,55.83c3.08,4.74.21,13.43-.85,18,6.65,1.55,4-8.46,12.44-6.37,7.68,1.91,14.2,6.81,21.36.2.88-.81,1.53-3.35-1.47-4.65-7.49-3.24-18.54-9.31-20.33-11.67Q469,284.59,449.9,234.35Z"/></g><path class="cls-13" d="M352.85,255.64c-14.34,8.67-49.73-6.51-66.35-24.48l4.08-9.12c18.28,6.56,36.58,12.23,47.44,7.21,11.47-5.31,18.5-45.45,35.72-62.15l6.58,1.13C380.56,196.74,374.74,242.42,352.85,255.64Z"/><path class="cls-1" d="M342.06,258.85c-17.18,0-42.59-12.63-56.07-27.22a.68.68,0,0,1-.12-.76l5.59-12.51a.7.7,0,0,1,.88-.37c1.58.56,3.13,1.12,4.66,1.65a.7.7,0,1,1-.46,1.32c-1.34-.46-2.69-1-4.06-1.44L287.33,231c16.35,17.39,51.32,32.39,65.15,24,20.46-12.37,27.41-54.5,27.14-86.82,0-1.16,0-2.28-.06-3.38l-7-1.2c-8.6,8.5-14.66,23-20,35.83-5.27,12.61-9.82,23.5-15.66,26.2-9.43,4.36-22.23,1.52-38.55-4.09a.7.7,0,0,1,.46-1.32c16,5.5,28.5,8.31,37.5,4.14,5.35-2.47,9.8-13.13,15-25.47,5.45-13.07,11.64-27.88,20.58-36.54a.67.67,0,0,1,.6-.19l7.9,1.36a.68.68,0,0,1,.58.66c0,1.29.07,2.62.08,4,.27,32.69-6.85,75.36-27.81,88A21.46,21.46,0,0,1,342.06,258.85Z"/><g id="Shirt-3" data-name="Shirt"><path class="cls-18" d="M414.71,263.61H344.76c-3.2,0-2.6-4.62-2.14-6.94,5.34-26.89,26.15-55.86,26.15-94.13L389,159.38C405.64,186.22,411.41,219.27,414.71,263.61Z"/></g><path class="cls-16" d="M459.75,288.46q-14.58-17-36-55.57c1.24,4.41,2.39,8.85,3.42,13.29-1.8-3.14-1.79-7.46-3.67-10.85a245.54,245.54,0,0,1,7.7,44.09l-61.85-.11q-12-30.22,14-119.93h6.92Q457,200.51,471.81,286.09Z"/><path class="cls-1" d="M432.35,280h-63a.69.69,0,0,1-.65-.44c-8-20.2-3.3-60.7,13.94-120.38l1-3.51a.71.71,0,0,1,.67-.5h8a.66.66,0,0,1,.36.11,173.15,173.15,0,0,1,36,29.31.7.7,0,0,1-1,1,172,172,0,0,0-35.53-29h-7.27l-.88,3c-17,58.94-21.78,99-14.15,119H431.6c-.16-2.31-.38-4.69-.66-7.1a.7.7,0,0,1,.62-.77.69.69,0,0,1,.77.62c.31,2.68.55,5.34.72,7.91a.72.72,0,0,1-.19.52A.7.7,0,0,1,432.35,280Z"/><path class="cls-1" d="M459.75,289.16a.69.69,0,0,1-.53-.25C450.16,278.36,439,261.32,426,238.2q1.05,4,1.93,7.82c1.45,6.22,2.62,12.31,3.5,18.1a.7.7,0,0,1-1.39.2c-.87-5.75-2-11.8-3.47-18-1-4.26-2.14-8.72-3.41-13.25a.69.69,0,0,1,.41-.83.7.7,0,0,1,.88.3c14,25.34,26,43.89,35.61,55.14l13.6-2.66a238.63,238.63,0,0,0-5.33-24.56.7.7,0,1,1,1.35-.37,239.68,239.68,0,0,1,5.47,25.37.71.71,0,0,1-.56.8l-14.66,2.87Z"/><path class="cls-1" d="M464.25,246a.7.7,0,0,1-.66-.47,190.46,190.46,0,0,0-8.42-19.94.7.7,0,0,1,1.26-.62,191.14,191.14,0,0,1,8.47,20.09.7.7,0,0,1-.42.9A1,1,0,0,1,464.25,246Z"/><path class="cls-1" d="M508.21,415.18H469.44a.7.7,0,1,1,0-1.4h38.77a.7.7,0,0,1,0,1.4Z"/><path class="cls-1" d="M563.62,415.18H107.92a.7.7,0,0,1,0-1.4h455.7a.7.7,0,0,1,0,1.4Z"/><circle class="cls-30" cx="236.17" cy="309.24" r="2.88" transform="translate(-127 169.54) rotate(-31.59)"/><circle class="cls-30" cx="227.45" cy="317.95" r="2.88" transform="translate(-132.85 166.26) rotate(-31.59)"/><circle class="cls-30" cx="227.45" cy="300.52" r="2.88" transform="translate(-123.72 163.68) rotate(-31.59)"/><circle class="cls-30" cx="218.74" cy="309.24" r="2.88" transform="translate(-129.58 160.41) rotate(-31.59)"/><circle class="cls-30" cx="218.74" cy="291.81" r="2.88" transform="translate(-120.45 157.82) rotate(-31.59)"/><circle class="cls-30" cx="210.02" cy="300.52" r="2.88" transform="translate(-126.3 154.55) rotate(-31.59)"/><circle class="cls-30" cx="210.02" cy="283.09" r="2.88" transform="translate(-117.17 151.97) rotate(-31.59)"/><circle class="cls-30" cx="201.31" cy="291.81" r="2.88" transform="translate(-123.03 148.69) rotate(-31.59)"/><circle class="cls-30" cx="201.31" cy="274.38" r="2.88" transform="translate(-113.9 146.11) rotate(-31.59)"/><circle class="cls-30" cx="192.59" cy="283.09" r="2.88" transform="translate(-119.76 142.84) rotate(-31.59)"/><circle class="cls-30" cx="192.59" cy="265.67" r="2.88" transform="translate(-110.63 140.25) rotate(-31.59)"/><circle class="cls-30" cx="183.88" cy="274.38" r="2.88" transform="matrix(0.85, -0.52, 0.52, 0.85, -116.48, 136.98)"/><g id="Path_9" data-name="Path 9"><path d="M238.4,27,223.16,13.28a2.07,2.07,0,0,0-2.92.15L206.51,28.67a2.07,2.07,0,0,0,.15,2.91L221.9,45.31a2.08,2.08,0,0,0,2.92-.15l13.73-15.24A2.06,2.06,0,0,0,238.4,27ZM223.91,44.35a.83.83,0,0,1-1.19.06h0L207.48,30.68a.84.84,0,0,1-.07-1.19h0l13.74-15.25a.85.85,0,0,1,1.19-.06h0l15.24,13.73a.84.84,0,0,1,.06,1.2h0L223.91,44.35Z"/></g><g id="Path_10" data-name="Path 10"><path d="M201.62,167.44a1.44,1.44,0,0,0-1.5-1.36h0l-6.06.32-.32-6.07a1.43,1.43,0,0,0-2.86.15h0l.32,6.07-6.07.31a1.42,1.42,0,0,0-1.35,1.5,1.35,1.35,0,0,0,.47,1,1.44,1.44,0,0,0,1,.37l6.07-.31.31,6.06a1.43,1.43,0,0,0,.47,1,1.53,1.53,0,0,0,1,.37,1.44,1.44,0,0,0,1.35-1.5h0l-.32-6.06,6.07-.32A1.44,1.44,0,0,0,201.62,167.44Z"/></g><g id="Path_10-2" data-name="Path 10"><path d="M157.45,90.21a1,1,0,0,0-1-.94h0l-4.21.22L152,85.27a1,1,0,0,0-2,.11h0l.22,4.21-4.22.22a1,1,0,0,0,.11,2l4.21-.22.22,4.21a1.05,1.05,0,0,0,.33.69,1,1,0,0,0,1.66-.79h0l-.22-4.22,4.21-.21A1,1,0,0,0,157.45,90.21Z"/></g><g id="Path_11" data-name="Path 11"><path d="M225.41,30.48l-1.92-1.73,1.73-1.92a.6.6,0,0,0,0-.86.61.61,0,0,0-.86.05l-1.73,1.92-1.92-1.73a.6.6,0,0,0-.86,0,.62.62,0,0,0,0,.86l1.92,1.73L220,30.76a.61.61,0,0,0,.05.86.6.6,0,0,0,.86,0l1.73-1.92,1.92,1.73a.61.61,0,1,0,.81-.91Z"/></g><g id="Path_9-2" data-name="Path 9"><path d="M223.4,212l-15.24-13.73a2.07,2.07,0,0,0-2.92.15l-13.73,15.24a2.07,2.07,0,0,0,.15,2.91l15.24,13.73a2.08,2.08,0,0,0,2.92-.15l13.73-15.24a2.06,2.06,0,0,0-.15-2.91Zm-14.49,17.34a.83.83,0,0,1-1.19.06h0l-15.24-13.73a.84.84,0,0,1-.07-1.19h0l13.74-15.25a.85.85,0,0,1,1.19-.06h0l15.24,13.73a.84.84,0,0,1,.06,1.2h0l-13.73,15.24Z"/></g><g id="Path_11-2" data-name="Path 11"><path d="M210.41,215.48l-1.92-1.73,1.73-1.92a.6.6,0,0,0,0-.86.61.61,0,0,0-.86.05l-1.73,1.92-1.92-1.73a.6.6,0,0,0-.86,0,.62.62,0,0,0,0,.86l1.92,1.73L205,215.76a.61.61,0,0,0,.05.86.6.6,0,0,0,.86,0l1.73-1.92,1.92,1.73a.61.61,0,0,0,.81-.91Z"/></g><g id="Path_12" data-name="Path 12"><path d="M167.49,133.14,156,122.8a1.72,1.72,0,1,0-2.3,2.56l11.46,10.33a1.72,1.72,0,0,0,2.32-2.55Z"/></g><g id="Path_13" data-name="Path 13"><path d="M173.15,126.85l-11.47-10.34a1.72,1.72,0,1,0-2.31,2.56l11.46,10.33a1.72,1.72,0,1,0,2.32-2.55Z"/></g><g id="Path_10-3" data-name="Path 10"><path d="M312.45,161.21a1,1,0,0,0-1.05-.94h0l-4.21.22-.22-4.22a1,1,0,1,0-2,.11h0l.22,4.21-4.22.22a1,1,0,0,0,.11,2l4.21-.22.22,4.21a1.05,1.05,0,0,0,.33.69,1,1,0,0,0,1.66-.79h0l-.22-4.22,4.21-.21A1,1,0,0,0,312.45,161.21Z"/></g><g id="Path_10-4" data-name="Path 10"><path d="M304.45,82.21a1,1,0,0,0-1.05-.94h0l-4.21.22L299,77.27a1,1,0,1,0-2,.11h0l.22,4.21-4.22.22a1,1,0,0,0,.11,2l4.21-.22.22,4.21a1.05,1.05,0,0,0,.33.69,1,1,0,0,0,1.66-.79h0l-.22-4.22,4.21-.21A1,1,0,0,0,304.45,82.21Z"/></g><g id="Path_12-2" data-name="Path 12"><path d="M321.5,132.22l-6.6-6a1,1,0,1,0-1.33,1.47l6.59,6a1,1,0,0,0,1.41-.07,1,1,0,0,0-.07-1.4Z"/></g><g id="Path_13-2" data-name="Path 13"><path d="M324.76,128.6l-6.6-5.95a1,1,0,1,0-1.33,1.47l6.6,5.95a1,1,0,1,0,1.33-1.47Z"/></g><g id="Path_14" data-name="Path 14"><path d="M444.85,147.47a1,1,0,0,0,1.41-.07,1,1,0,0,0-.08-1.4h0l-6.6-6a1,1,0,0,0-1.33,1.48h0Z"/></g></g></g></svg>