<svg xmlns="http://www.w3.org/2000/svg" viewBox="0 0 1015.61 577.16"><defs><style>.cls-1{fill:#d4a181;}.cls-1,.cls-10,.cls-11,.cls-12,.cls-13,.cls-14,.cls-15,.cls-16,.cls-17,.cls-18,.cls-19,.cls-2,.cls-20,.cls-21,.cls-22,.cls-23,.cls-24,.cls-3,.cls-4,.cls-6,.cls-7,.cls-8,.cls-9{fill-rule:evenodd;}.cls-2{fill:#dba052;}.cls-3{fill:none;stroke:#000;stroke-linecap:round;stroke-linejoin:round;}.cls-4{fill:#f6fafc;}.cls-5,.cls-8{opacity:0.5;}.cls-6{fill:#89c5cc;}.cls-7{fill:#69a1ac;}.cls-8,.cls-9{fill:#c1dee2;}.cls-8{isolation:isolate;}.cls-10{fill:#191847;}.cls-11{fill:#1f28cf;}.cls-12{fill:#ba8b72;}.cls-13{fill:#e4e4e4;}.cls-14{fill:#2b44ff;}.cls-15{fill:#f9bc60;}.cls-16{fill-opacity:0.1;}.cls-17{fill:#915b3c;}.cls-18{fill:#c5cfd6;}.cls-19{fill:#b28b67;}.cls-20{fill:#1f3144;}.cls-21{fill:#2f4664;}.cls-22{fill:#084442;}.cls-23{fill:#dde3e9;}.cls-24{fill:#0a605f;}</style></defs><g id="Layer_2" data-name="Layer 2"><g id="Layer_1-2" data-name="Layer 1"><path id="Skin" class="cls-1" d="M214.16,242l39.49-5.39a85.88,85.88,0,0,1,21.79-8.92c1.87-.06,4.84.62.42,4.31s-8.92,7.77-8.13,9.74,4.9,1.23,5.58,4.26q.69,3-20,1l-32,12.71Zm-124,9.13,21.9.09q-36,81-37.56,84.87c-2.31,5.74,2.58,14.47,4.68,19.16-6.82,3-6.1-8.25-14.7-4.25-7.85,3.66-13.83,10.28-22.9,4.68-1.11-.69-2.34-3.28.62-5.31,7.35-5,18-13.87,19.39-16.78Q64.49,327.63,90.13,251.11Z"/><path class="cls-2" d="M252.33,282.21c-47.93,6-89.89-13.28-98.51-65.28-2-11.87-3.56-24.16-3.72-34.92,0-.29,0-.57,0-.85l17.15,1.14c4.22,38.2,27.22,62.33,78.71,54.16Z"/><path id="Skirt" class="cls-3" d="M117.16,277.65q33.83-9.67,64,0c7,31.94,24,44.61,27,93.58-34,16.89-76-12.05-111,4.42C87.16,352.61,101.16,297.11,117.16,277.65Z"/><g id="Scene_Whiteboard" data-name="Scene/Whiteboard"><path id="Background-Shape" class="cls-4" d="M169.13,464.89c18.85-97.07,209.58-41.77,334.62-71.78s273-169.77,370.89-101.31-6.27,234-230.82,271.3S150.28,562,169.13,464.89Z"/><g id="Cells" class="cls-5"><path id="Fill-5" class="cls-6" d="M261.1,63.37c-1.57,1.57-1,7.15-1,9.22-.05,3.21.15,6.4.42,9.6.18,2.15,1.2,22.62,4,21,1.6-.89.6-6.81.6-8.68,0-4.17-.18-8.32-.46-12.48a108.19,108.19,0,0,1-.27-11.53c0-.94.92-11.41-3.31-7.18"/><path id="Fill-7" class="cls-6" d="M329.6,60.85c-13.51.1-27,.77-40.53,1.18-6.5.2-13,.45-19.49.81-2.21.12-6.95-.59-8.8.59-4.09,2.62,2.51,3.23,4.27,3.16,26.73-1,53.47-2.24,80.22-2.3,13.13,0,26.24.34,39.37.26,5,0,10.57-2.19,11.84,3.65,1.43,6.58-.21,13.92-.66,20.54a115.73,115.73,0,0,0,0,13.17c.12,2.83-.21,6,.29,8.79s2.4,4.28,4.17,1.29c1-1.79.52-6.21.6-8.29.09-2.79,0-5.58,0-8.37,0-6.82,1-13.61.83-20.43-.08-4.39-.31-12.36-5.85-13.41-6.11-1.17-13.61,0-19.86-.07-15.47-.18-30.93-.69-46.41-.57"/><path id="Fill-9" class="cls-6" d="M292.36,103.48q-7.64,0-15.28.12c-4.37.07-11.24-.84-15.31.72-2.78,1.07-3.52,4.18,0,5,3.84.9,9.64-.57,13.66-.64,20.16-.36,40.52-.82,60.66.45,18.86,1.2,38.09,2.35,57,1.09,1.59-.1,9.7-.42,6-3.46-2.16-1.78-10.91-.61-13.71-.7-9.9-.29-19.8-.36-29.69-.74s-19.49-1.46-29.25-1.74c-11.35-.31-22.72-.11-34.07-.11"/><path id="face" class="cls-6" d="M287.27,74.5c7.94.35,15.8,11.87,7.76,17.43-7.54,5.23-21.67-.5-17.48-10.63-.6,1.47.77-1.59.78-1.61A22,22,0,0,1,281.54,77a12.79,12.79,0,0,1,3.66-2.2c.89-.28.75.77,2.07-.27m-3.87-4.15c-3.72,1.45-5.42,3.09-8,6.05-1.77,2-4,3.13-4,5.9,0,.61.79,1.29.93,1.88.19.81,0,1.86.12,2.73,1.53,8.94,12.21,12,20,10.27,6.81-1.47,11.9-8,10.32-15.11s-12.2-14.55-19.43-11.72"/><path id="Fill-13" class="cls-6" d="M280.09,82.84c0,3.22,5.08,3.22,5.08,0s-5.08-3.32-5.08,0"/><path id="Fill-15" class="cls-6" d="M286.45,82.19c0,2.56,4,2.56,4,0s-4-2.64-4,0"/><path id="Fill-17" class="cls-6" d="M287.7,87.47c-1.29.49-2.93-.54-4,.14-1.88,1.21,0,2.29,1,2.78,4.54,2.18,5.34-3.83,3-2.92"/><path id="Fill-19" class="cls-6" d="M357,80.33h0m-19.77-2.89c-3.4.77-6.27,3.94-10,3.52-2.83-.33-4.75-3.06-7.54-3.46-3.57-.5-13.3,7.65-8.18,9,3,.81,4.63-4.64,7.27-4.93,2.08-.23,4.92,2.33,7.08,2.69,4,.68,6.8-1.54,10.33-3,3.85-1.56,6-.16,9.38,1.57,2.64,1.37,5.12,2.26,8.14,1.69,2.84-.52,6.4-3.44,9.25-3.14s4.79,3.21,7.66,3.48c1.19.11,2.95.52,2.75-1.31-.16-1.47-1.79-1.22-2.81-1.75-2.63-1.37-5.09-3.79-8.26-3.59-2.39.16-4.56,1.84-6.76,2.64-7.2,2.62-11.24-5.08-18.35-3.49"/><path id="Fill-21" class="cls-7" d="M343.28,123.81c-13.89.13-27.82.33-41.67,1.45-3.28.26-36.81,3.43-36.75,3.65.12.43,4.43,1.07,4.41,1.17-.29-.72-1-1-2-.89,31.8,0,63.5-2.85,95.34-2.34,8,.13,16,.07,24,.33,2,.06,6.94,1.49,8.51.59,4.11-2.37-3.36-2.64-4.6-2.74-15.67-1.25-31.54-1.38-47.26-1.22"/><path id="Fill-23" class="cls-7" d="M260.75,130.56c-2.08,2.08-.17,9.57-.09,12.38.12,4.07,0,8.17.38,12.23a82.35,82.35,0,0,0,2.26,14.07c.67,2.48,3,6.42,3.95,1.92.67-3.22-.34-7.49-.69-10.76a127.55,127.55,0,0,1-.61-13.11c0-3.84-.09-7.7-.4-11.52-.16-2-1.16-8.83-4.8-5.21"/><path id="Fill-25" class="cls-7" d="M313,168.7c-9.86.17-19.74.4-29.58,1-4,.26-8.06.63-12.08,1.06-.82.09-9.89.45-5.84,3.8,1.83,1.51,9.36-.58,11.85-.79,4.18-.37,8.36-.61,12.56-.79,9.72-.41,19.46-.77,29.19-.6,17.77.3,35.42.44,53.19.05,2.53-.06,22.31.47,23-2.16.54-2.12-6.53-1.14-7.82-1.11-4.74.14-9.47.11-14.2.09-20.05-.1-40.22-.9-60.25-.56"/><path id="Fill-27" class="cls-7" d="M391.91,127.05c.31,8.77,1.81,17.54,2.28,26.34.22,4,.48,8,.68,12.07.06,1.29-.46,4.42,1.07,5.17,2.11,1,2.39-1,2.79-2.44,1.14-4,.37-9.27.26-13.41s-.1-8-.4-12-1.13-8.11-1.51-12.18c-.16-1.73.4-4.6-1.43-5.67a2.51,2.51,0,0,0-3.74,2.15"/><path id="face-2" data-name="face" class="cls-7" d="M295,141.64l.11.09-.11-.09m-8.38-2.6c3.12.89,5.69.56,8.67,2.84,2.48,1.88,5,4.64,5.83,7.69,1.9,7-4.53,10.9-10.55,11-6.17.07-15.3-1.36-15-9.27.24-6.07,4.68-12,11-12.24m.22-4c-8.1.41-14.63,9.5-14.56,17.16.08,9.28,10.6,11.67,18.06,11.73,8.43.07,16.84-5.75,14.58-15.23-1.81-7.59-10.29-14.06-18.08-13.66"/><path id="Fill-31" class="cls-7" d="M278.73,147.52c0,2.59,4.09,2.59,4.09,0s-4.09-2.67-4.09,0"/><path id="Fill-33" class="cls-7" d="M287.31,146.39c0,2.6,4.12,2.6,4.12,0s-4.12-2.69-4.12,0"/><path id="Fill-35" class="cls-7" d="M282.58,152.29c-2.66,2.65,6.69,7.31,8.89,3.61,1.81-3-2.13-2-3.53-2.19s-4.12-2.66-5.36-1.42"/><path id="Fill-37" class="cls-7" d="M357.32,146.44h0m-35.11-4.33c-2.69.51-11.53,3.49-11.65,6.69-.22,5.81,8.44-.14,10.32-.91,5.11-2.07,7.79,2.16,12.92,2.39,4.46.19,8.56-3.62,12.76-3.17,4.39.47,6.51,5.15,11.59,2.66,2.68-1.31,2.62-3.34-.4-3.53-1.82-.11-3.07.64-5-.14-3-1.23-4.17-3.23-7.73-2.91-2.68.24-5.11,1.75-7.73,2.34-6,1.34-9.32-4.5-15.11-3.42"/><path id="point" class="cls-7" d="M378,149h0m.68-2.42s.23.3,0,0m-3.09-1.84h0m.07,0c.6.36,5.41,3.65,1.91,4.43-1.77.39-3.24-3.18-1.91-4.43m-1.6-3.64c-7.71,3.51.59,16.1,6.64,11,2.55-2.15,2.89-6.5.41-8.74-1.49-1.34-5-3.17-7.05-2.24"/><path id="Fill-41" class="cls-6" d="M301.67,190.62c-9.63,0-19.34-.2-28.95.37-1.62.1-7.78-.21-8.61,1.48-1.53,3.09,4.82,1.56,5.74,1.46,19.13-1.91,39.13-.81,58.33-.26,15.7.44,31.32.72,47,1.53q6.19.31,12.37.7c1.34.08,4.72,1,5-1.18.26-2-3.95-1.53-5-1.59q-12.56-.66-25.11-1.37c-20.15-1.14-40.58-1.14-60.76-1.14"/><path id="Fill-43" class="cls-6" d="M263.8,194.06c-1.8,1.79-.95,8.61-1,10.86-.09,4-.28,7.89-.36,11.83-.09,4.13,0,8.27.28,12.38.1,1.73,1.52,10.08,3.75,5.3,1-2.13,0-8.08,0-10.5,0-4.41.26-8.79.48-13.19.19-3.78.2-7.57.36-11.35.06-1.2.2-9-3.5-5.33"/><path id="Fill-45" class="cls-6" d="M394.17,229.29c-9.37,1-18.88.51-28.28,1.22-8.11.61-16.2.86-24.33,1-18.39.39-36.82.77-55.16,2.3-4.19.35-8.36.72-12.55.91-2.1.09-10.89-.86-11.55,1.35-1.12,3.76,8.29,2.27,10.32,2.21,4.46-.13,8.9-.45,13.35-.79,18.71-1.42,37.48-1.85,56.22-2.44,10.2-.32,20.32-1.07,30.49-1.75,5.07-.33,10.15-.35,15.22-.67,1.33-.09,6,.08,7-1,.65-.73.82-2.52-.71-2.38"/><path id="Fill-47" class="cls-6" d="M391,194.7c.32,9,.82,18,1.13,26.94.09,2.7-.73,7.54.78,9.92,2.42,3.83,4.3-.22,4.75-2.61,1.39-7.53-.11-15.85-.5-23.43-.15-2.89.75-9.33-.65-11.92s-5.63-2.21-5.51,1.1"/><path id="hola-:_" data-name="hola-:)" class="cls-6" d="M375.27,207.49c3.59,1,4.11,8.78.06,9.35-6,.86-3.39-7.74-.06-9.35m-1-3.1c-1.1,0-3.63-.34-4.3.55s0,2.32-.06,3c-.24,2.54-2.3,4-1.38,7a7.33,7.33,0,0,0,4.35,4.66c10.78,3.72,10.65-17.12,1.39-15.24"/><path id="Fill-51" class="cls-6" d="M276.89,205.79l-.08.1.08-.1m8.47-4.51-.12-1.08c5.84,2.76,10.5,7.89,8.56,14.79-1.49,5.25-6.84,7.12-11.83,5.82-5.52-1.44-8.15-6-6.66-11.57.68-2.58,2.79-6.05,5.52-6.87,1.27-.39,4.07.59,4.53-1.09m-3.42-2.18a8.4,8.4,0,0,0-4.12,1.56,6.67,6.67,0,0,1,4.12-1.56m.05-3.4c-3.66.12-6.05,2.33-8.22,5-.68.84-3,3-2.69,4.17.22.89.81,2.19,2.05,1.2-6.5,12.95,10.29,24,20.54,15,9.56-8.41.07-25.73-11.68-25.34"/><path id="Fill-53" class="cls-6" d="M278.67,207.73a1.34,1.34,0,0,0,2.67,0,1.34,1.34,0,0,0-2.67,0"/><path id="Fill-55" class="cls-6" d="M283.24,208a1.36,1.36,0,0,0,2.72,0,1.36,1.36,0,0,0-2.72,0"/><path id="Fill-57" class="cls-6" d="M285.31,214.18c-1.27.11-5.93-.33-6.75.79-1.37,1.86.81,1.93,1.89,2.13s5.15.08,5.75-.78.4-2.25-.89-2.14"/><path id="Fill-59" class="cls-6" d="M341.43,209.35h0m-17.6-1.29c-2.87.22-5.3,1.86-8,2.52-2.92.71-4.19-.59-6.85-1.43a6.45,6.45,0,0,0-7,1.36c-1.26,1.07-4,3.53-3.24,5.43,1.8,4.36,5.89-2.73,7.81-3.06,3-.51,5.66,2.11,9.12,1.36,3.13-.68,5.91-2.83,9.18-2.85,2.73,0,5.31,1.48,8,1.84,4.12.55,6.82-.91,10.63-2,3.31-.94,5.63.3,8.73,1.35,1.42.47,6.16,2.21,5.29-.94-.25-.89-6.49-2.48-7.46-2.78-3.41-1.08-5.58-.66-8.83.58a13.4,13.4,0,0,1-7.9,1c-3.2-.63-6.12-2.6-9.49-2.35"/></g><g id="Big-Cards" class="cls-5"><path id="Fill-67" class="cls-7" d="M455.77,63.71c.46-10,1.1-19.9,1.43-29.86.17-4.94.3-9.88.42-14.81,0-1.1.06-2.2.08-3.3.09-3.74-.36-4,3.4-4.37,16.77-1.48,33.61-2,50.4-3.31,20.24-1.62,40.6-2.73,60.9-3.23,9-.23,18.09-.69,27.11-.41,2,.07,5.93-.45,6.72,1.1.34.67-.38,3-.47,3.76-.28,2.42-.55,4.85-.71,7.28a167.18,167.18,0,0,0,2.39,43.19c-6.51-3.68-14.75-6.84-22.34-6.21-7.75.64-13.54,5.11-19.74,9.23-3.51,2.33-4.69,2.94-8.19.68-3-1.94-5.86-4.16-8.71-6.35-4.39-3.36-8.53-7-12.78-10.55-7.83-6.49-18.61-15.73-29.42-13-7.72,2-14.85,6.19-21.55,10.34-10,6.17-19,13.73-28.94,19.83M590,0C551.5,0,513.31,3.73,475,5.75c-4,.21-8,.52-12,.91-2.66.25-9.16-.83-10.91,1.45-1.16,1.51-.16,1.74,0,3.18a42.79,42.79,0,0,1,0,5.89c-.12,4.64-.26,9.27-.36,13.9-.4,17.51-.65,35,.06,52.52.15,3.82,1.54,9.11.78,12.82-.55,2.68-2.39,4.32,1.86,4.81s9.29-.75,13.47-1.15,8.42-.83,12.63-1.18c18.32-1.51,36.81-1.28,55.18-1.78,18.53-.51,37.07-.54,55.61-.55,7.75,0,16.61.43,24.18-1.7,2.66-.76,3.09-1.13,2.44-3.77-.13-.5-.93-.68-1.17-1.59a22.28,22.28,0,0,1-.23-4c-.24-4.19-.33-8.39-.53-12.58-.33-7-1.53-13.81-2.43-20.75-1-8-1-16.15-1-24.21,0-4.48.11-8.94.47-13.4.23-2.86,1.64-7.13.92-9.8a3.91,3.91,0,0,0-2.32-2.95,7.72,7.72,0,0,0-2.48-.17,23.8,23.8,0,0,1-2.9-.53C601-.1,595.34,0,590,0"/><path id="Fill-69" class="cls-6" d="M568.68,19.05c0,2.79-.44,6.9.85,9.53,1.63,3.33,3.67,2.29,4.21-.84.31-1.79.3-7.1-.28-8.69-.81-2.25-4.78-3.78-4.78,0"/><path id="Fill-71" class="cls-6" d="M573.36,20.13c-2.62.09-10.24-.54-12,1.57-3,3.61,2.25,4.25,4.53,4,2.62-.23,10.74.34,12.5-1.77,3-3.52-3-3.92-5-3.84"/><path id="Fill-73" class="cls-6" d="M471.77,113.28c11.51,2,7.93,19.54-3,15.48-3.79-1.42-9.38-5.51-7.29-10.33,1.57-3.6,6.68-5.5,10.25-5.15M467,107.82c-7.48,1.26-12.6,9.36-10,16.43,2.48,6.81,11.87,11.8,18.79,9.35,6.61-2.34,9.91-11.13,7.68-17.56-2.33-6.73-9.91-9.32-16.43-8.22"/><path id="Fill-75" class="cls-6" d="M537,115.33c-2.87.24-5.34,2.24-8.23,2.6-2.69.33-4.93-.59-7.45-1.33a16.31,16.31,0,0,0-9-.49c-2.38.61-4.73,2.23-7.21,2.42-4.86.39-10.52-5.17-14.33,1.11-1.82,3,.83,5,3.55,3.55s1.45-2,5-1.12c2.94.72,5.31,1.11,8.26.1,2.67-.91,5-2.59,7.91-2.78s5.32,1.11,8,1.67a17.54,17.54,0,0,0,9.46-.88c3-1,4.21-1.54,7.24-.65,1.93.56,6.13,2.35,8,.91,3.24-2.49-1.1-2.85-2.8-3.21-2.75-.57-5.59-2.13-8.44-1.9"/><path id="Fill-77" class="cls-6" d="M602.57,113.66l.07,0-.07,0m-2.81-.59c4.19.27,8.71,7.89,3.17,8.16-3.91.19-8.27-6.48-3.17-8.16m-.58-6.24C586,110.53,592,129.18,604.75,127c5.8-1,7.76-7.69,5.85-12.66a11,11,0,0,0-4.35-5.16c-1.41-.91-5.46-2.82-7.07-2.37"/><path id="Image-Border" class="cls-7" d="M457,226a25.11,25.11,0,0,1-.2-5c-.11-2.87-.14-5.75-.25-8.62-.27-6.85-.44-13.74-1-20.57-.5-6.53-1.78-12.86-1.81-19.44,0-4.45-1.27-15.73,2.63-18.75,6.7-3.91,4,9.88,3.94,12.27a142.86,142.86,0,0,0,.84,21.19c.66,6.54-.1,13.06-.35,19.6-.14,3.48-.21,6.95-.47,10.42-.08,1.08,0,5.95-.52,8.55,1.46-.06,2.84,0,3.62,0,5.43-.17,10.85-.31,16.28-.51,20.87-.79,41.75-.43,62.62-1.42,19.73-.94,39.54-1.14,59.29-1.38a2,2,0,0,1,1.39,3.35c-1.08,1.37-6.11,1.07-7.68,1.2-5.56.44-11.11.64-16.69.7-11.75.11-23.46.61-35.19,1.28-20.84,1.19-41.72,1.09-62.57,1.94-5.06.21-10.13.36-15.19.49-2.67.07-9.67,1.68-11-1.51C453.75,227.53,455.05,226.49,457,226ZM572.4,144.86c6.31-.06,12.59,0,18.9.41,2.79.16,5.59.32,8.39.43,1.61.07,5.31-.46,6.72.29,5.57,2.95-5.77,3.27-7.15,3.25-5.78-.1-11.56-.55-17.34-.69-21.28-.53-42.71.77-64,1.64-10.22.42-20.44.48-30.66,1.05-5.59.32-11.17.68-16.76,1-2.58.14-5.15.27-7.73.33-1.59,0-4.83.7-6.3.1-1.25-.51-2.26-1.22-1.57-2.74s4-.94,5.33-1c4.92-.1,9.83-.38,14.75-.68,11.16-.68,22.29-1.48,33.48-1.67C529.8,146.23,551.08,145.05,572.4,144.86Zm29.31,7.26c0-2.92,3.51-3.51,5.06-1.52s.53,7.65.57,9.93c.12,7.49.83,14.94,1.5,22.4s1.14,14.8,1.65,22.21c.24,3.42,2.87,17.09-1,19.09-4.88,2.54-4-10.41-4.1-12.77q-.66-11.42-1.68-22.8C602.65,176.4,601.7,164.43,601.71,152.12Z"/><path id="Image-X" class="cls-6" d="M537.23,187.31q10,3.57,20,7.42c3.55,1.37,7.07,2.79,10.61,4.18,1.77.69,9.14,2.44,9.57,4.21.59,2.5-7.26-.57-8.51-1-3.53-1.13-7-2.39-10.5-3.65-7.8-2.81-15.57-5.71-23.4-8.43l-2.2-.77q-12.46,5.61-24.88,11.34-6.64,3.08-13.24,6.28c-3.26,1.58-9.16,6.08-12.75,6-1.36,0-2.27-.33-2.41-2-.19-2.11,3.21-3,4.58-3.66q7.05-3.53,14.17-6.9c9.42-4.5,18.93-8.81,28.47-13l.16-.07Q518.95,184.61,511,182c-3-1-24.35-6.24-23.57-9.06.87-3.17,19.74,4.3,22.64,5.22,7.15,2.28,14.28,4.62,21.37,7.07,17-7.65,34.21-15.79,52-21.35,1.12-.35,1.83.8,1.57,1.77-.33,1.29-4.32,2.34-5.42,2.83-4.37,1.95-8.76,3.86-13.13,5.81-9.53,4.26-19.07,8.47-28.59,12.73Z"/><path id="Fill-117" class="cls-6" d="M474.3,240.83a8.58,8.58,0,0,1,6.94,9.31c-.64,5.91-6.53,8.61-12,7.84-6.17-.87-7.47-6.09-4.48-11.11a7.22,7.22,0,0,1,2.63-3c.83-.4,1.88,0,2.55-.37,2.33-1.14.93-2.95,4.33-2.65m-2-3.86c-5.31.68-15.12,6.83-14.63,13a1.78,1.78,0,0,0,1.95.88,9.57,9.57,0,0,0,.2,4A8.46,8.46,0,0,0,462.7,259c2.78,2.27,6.57,2.83,10,2.43,6.46-.74,11.55-5.15,11.91-11.87.35-6.55-5.37-13.42-12.32-12.54"/><path id="Fill-119" class="cls-6" d="M498,245c-2.39,1.27-6.15,3.21-7.55,5.6-1.48,2.54.05,5.31,3.16,4.11,2.47-1,4-4,6.67-4.94,2.33-.86,3.26-.42,5.72.43s4.74,1.72,7.48,1.51c3.44-.27,6.42-2.27,9.78-2.72,2.84-.38,5.17.72,7.89,1.16,3.15.51,5.2-.68,8.15-1.3,2-.43,5.54,1.29,7,.65,3.29-1.45-.19-3.21-2-3.8-3.07-1-5-.11-7.87.7-3.16.89-4.53.22-7.55-.59-6.13-1.64-10.85,2.33-16.66,1.61-5.37-.67-8.58-5.4-14.21-2.42"/><path id="Fill-121" class="cls-6" d="M598.13,242c5.89,5.53-.73,13.39-7.23,9-2.28-1.55-2.32-4.05-.54-6.28C592,242.68,595.56,241.88,598.13,242Zm-2.19-4.46c-5.5,1.07-10.69,3.6-11.19,10-.49,6.2,5.87,9.08,11.21,8.67C608,255.28,607.08,235.42,595.94,237.57Z"/></g><path id="Fill-79" class="cls-8" d="M726.33,31.7c-4.4.09-15.28,1.69-16.89,6.9-1.23,3.95,2.42,3.08,4.37,1.65A18.52,18.52,0,0,1,722,36.54c12.48-2.25,24.46,5.84,36.82,6.86,4.68.39,10.32.64,14.79-.87,3.18-1.08,3.6-3.44,0-3.79-3.09-.31-6.5.65-9.67.62-13.08-.11-24.72-7.9-37.62-7.66"/><g id="Cards" class="cls-5"><path id="Fill-173" class="cls-6" d="M263.7,279.06q-12.63.13-25.25.94c-8,.5-16.67.12-24.54,1.67-2.23.44-5.25,2.47-2.28,4.71,2.09,1.58,9.73-.23,12.22-.39,9.18-.56,18.36-1.24,27.55-1.56,8.71-.31,17.41-.42,26.11-.5,1.33,0,3.54-.44,4.86-.06,1.9.56,1.45.71,1.6,3.12.25,4.38.18,8.77.1,13.14s-.25,8.48-.23,12.72c0,3-1,9,.56,11.66,2.19,3.78,4.45-.33,4.61-2.84.32-4.81.18-9.67.18-14.48,0-4.52,0-9-.13-13.54-.11-3.26.35-9-1.4-11.92s-6.1-2.37-9.24-2.51c-4.9-.23-9.81-.21-14.72-.16"/><path id="Fill-171" class="cls-6" d="M210.1,284.51c0,8.48-1,16.91-1.25,25.38-.12,3.9-.38,8.18.61,12s4.15,4.7,4.52.39c.73-8.73.55-17.78,1.13-26.58.2-3.11,1.52-8.8.29-11.71-1.09-2.57-5.3-3.06-5.3.52"/><path id="Fill-175" class="cls-6" d="M289.1,321.91c-14.63,1.93-29.93,1.23-44.66,1.53-7.07.15-14.14.16-21.21.23-2.47,0-8.73-.91-10.87.47-3.39,2.21.29,3.92,2.54,4,13.95.31,28.06-.33,42-.79,6.27-.2,12.56-.3,18.81-.84a65.94,65.94,0,0,0,11.79-1.68c.79-.22,2.53-.17,2.71-1.26.11-.67-.09-1.77-1.12-1.62"/><path id="Fill-177" class="cls-6" d="M228.26,334.24c-4.06,0-16.32-1.87-18,2.1-2.25,5.29,6.51,4.05,8.87,4,5.35-.14,10.69-.15,16-.15s10.5,0,15.75-.15c1.52,0,5.06.59,5.94-1.24a2.31,2.31,0,0,0-1.09-3.23c-3-1.77-10.62-.74-14.07-.9-4.47-.21-9-.42-13.44-.42"/><path id="Fill-179" class="cls-6" d="M277.73,335.22c-2.33.14-7-.82-9.11.24-2.36,1.21-1.53,3.1.51,3.93,1.42.58,7.22.28,8.6-.39s3.06-4,0-3.78"/><path id="Fill-181" class="cls-6" d="M303.2,285.34c-2.48.68-1.73,14.77-1.79,17-.17,6.12-.86,13.81,1.17,19.71,1.3,3.75,3.79,3.24,3.36-.71-.37-3.47-1-6.91-1.28-10.4-.63-7.91-1.48-16.34-.89-24.25.25.46,2.61,4.72,3.16,4.4-.17.1-2.72-6-3.73-5.76"/><path id="Fill-183" class="cls-6" d="M331.12,280.15c-5,.08-10,.17-15.07.3-4,.12-10.26-.54-13.92,1.14-4.36,2-2.29,6.45,1.8,6.55,3.62.08,7.49-.74,11.14-.86,9.87-.34,19.77-.41,29.64-.5,8.94-.07,18.25.88,27.1-.46,1.32,11.66-2.23,23.37-1,35.17.19,1.83.11,4.42,2.44,4.84,2.94.52,3.06-2.39,3.17-4.48.32-6,.15-11.92.59-17.89.4-5.53,1.2-11.18.52-16.72-.82-6.81-4.09-6.27-9.86-6.55-12.19-.6-24.31-.72-36.52-.54"/><path id="Fill-185" class="cls-6" d="M314.29,321.56c-2.56.07-6.81-.72-8.45,1.73s.32,4.79,2.8,5.31c2.93.62,6.76-.23,9.81-.24s6.35,0,9.52,0c13.61.05,27.28.26,40.88-.3,1.9-.08,7.29.55,8.6-1.27,1.17-1.61.35-3.06-1.18-3.89-2.52-1.35-7.7-.83-10.5-.94-3.47-.13-6.93-.17-10.4-.23-13.67-.21-27.41-.54-41.08-.21"/><path id="Fill-187" class="cls-6" d="M325.8,333.37c-5.09.09-10.53-.14-15.57.63-4.43.68-5,5-.2,5.47,4.38.46,9.7-.4,14.1-.68,1.57-.1,3.39,0,4.14-1.69a2.78,2.78,0,0,0-2.47-3.73"/><path id="Fill-189" class="cls-6" d="M364.3,333.82c-2.72.07-10.66-1.1-12,2-2.25,5.17,8.5,3.21,10.56,3.13,2.6-.09,12.73,1.42,12.73-2.71s-8.8-2.48-11.29-2.42"/><path id="Fill-191" class="cls-7" d="M209.66,359.5c0,9.4-.58,18.9.28,28.27.35,3.88.29,11.31,2.54,14.6,1.6,2.34,3.81,2.17,4.68-.63.58-1.87-.35-5.62-.45-7.63s-.22-3.84-.31-5.77c-.23-4.95-.21-9.9-.14-14.86.06-4.26,1.08-9.89.11-14-.9-3.81-6.71-4.7-6.71,0"/><path id="Fill-193" class="cls-7" d="M304.16,351.23c-16.32.41-32.66,0-49,.85-8,.4-16,1.27-24,2.15q-5.88.63-11.77,1.35c-1.19.15-11,.53-7.32,4.27,1.61,1.63,6.75-.08,8.79-.32,3.93-.46,7.88-.87,11.82-1.28,7.51-.8,15-1.55,22.56-2,17.75-1,35.57-.69,53.34-1.34,4.8-.18,9.59-.3,14.4-.12,1.26.05,10.54.53,6.51-2.9-1.9-1.62-9.08-.79-11.46-.83-4.62-.1-9.24,0-13.86.14"/><path id="Wireframy-Stuff" class="cls-7" d="M329.56,400.84h0c-.89,1.31-4.18.94-5.61,1-4.38.3-8.68.8-13,1.45A208.8,208.8,0,0,1,285,405.65c-17.28.43-34.63,0-51.88,1.21a93.87,93.87,0,0,0-11.35,1.43c-2.68.52-7.86,2.28-8.17-2.16-.38-5.34,13-5.33,16.86-5.69,16.46-1.53,33.2-1.21,49.71-1,8,.11,16,.36,23.93-.13s16.21-.36,24.12-1.22c-1-3.95-.87-8.89-1.15-12.93-.74-10.36-.54-20.76-1-31.14-.21-4.57,6-5.26,7.86-1.56s.66,11.15.78,15.3c.28,9.59,2.05,20.33.18,29.82C334.2,400.9,331.42,402.63,329.56,400.84Z"/><path id="Fill-199" class="cls-9" d="M339.6,357.39c-2.2.3-4,2.19-3.06,4.58,1.24,3,4.93,1.83,7.37,1.64,7.75-.6,15.84.61,23.5-.31,2.09-.25,5.12-1.38,3.24-4.19-1.41-2.12-6.55-1.75-8.73-1.95a117.21,117.21,0,0,0-22.32.23"/><path id="Fill-201" class="cls-9" d="M352.68,370.53c-3,.2-10,.05-11.27,3.47-2.27,6.13,6.63,4,9.34,3.62,3.14-.41,10.56.68,12.24-2.37,3-5.46-7.67-4.9-10.31-4.72"/><path id="Fill-203" class="cls-9" d="M345,384a3.93,3.93,0,0,0,0,5.4c1.75,1.74,5.56,1.38,7.86,1.51,3.2.18,12.4,1.87,14-1.9,2.15-5.09-6.18-5-8.92-5.27-3.17-.34-10.3-2.37-12.93.26"/><path id="Fill-205" class="cls-6" d="M232.63,296.86c0,5.47,8.55,5.47,8.55,0s-8.55-5.53-8.55,0"/><path id="Fill-207" class="cls-6" d="M248.84,296.92c0,6.26,9.74,6.24,9.74,0s-9.74-6.3-9.74,0"/><path id="Fill-209" class="cls-6" d="M239,305.24c-4.73,1.31-.37,5.32,1.83,6.23,3.49,1.46,8.26,2.53,11.75.35,1.39-.87,2.52-2,1.5-3.71s-2.57-1-4.22-.83a12.85,12.85,0,0,1-5.81-.5c-1.51-.5-3.4-2-5.05-1.54"/><path id="Fill-211" class="cls-6" d="M324.88,297.2c0,3.71,5.75,3.71,5.75,0s-5.75-3.7-5.75,0"/><path id="Fill-213" class="cls-6" d="M337.59,297.76c0,4.11,6.39,4.11,6.39,0s-6.39-4.11-6.39,0"/><path id="Fill-215" class="cls-6" d="M337.12,306.69c-3.35.43-13.06,1.41-13.6,5.55-.84,6.38,9.79,1.21,12.22.71a34.82,34.82,0,0,1,8.94-.34c1.69.06,3.94.34,3.76-2.24-.29-4.24-8.39-4.06-11.32-3.68"/><path id="Fill-217" class="cls-7" d="M252.78,365.51c-2.43.65-5.61,4.85-3.94,7.43,2.75,4.22,4-2.26,5.1-2.89,2.09-1.13,3.79,3,6,.84,3.45-3.43-5-6-7.13-5.38"/><path id="eye" class="cls-7" d="M280.64,362.39c-2.88,0-9,4.11-9.4,7.13a3,3,0,0,0,2.86,3.53c2.63,0,3.47-3.38,5.74-4.1,2.46-.77,2.1,1,4.22,1.93,1.55.67,3.5.39,4-1.52,1-3.6-4.5-7-7.46-7"/><path id="Fill-221" class="cls-7" d="M258.57,379.65c-4.61,2.7,3,8.5,5.61,9.22,4,1.1,12-.95,12.9-5.8.38-1.93-.83-3.68-3-3.33-1.75.28-2.88,2.48-4.51,3.27a5,5,0,0,1-6-.61c-1.52-1.3-2.33-4.33-5-2.75"/><path id="Fill-223" class="cls-9" d="M261.91,419.58c-4.12.88-8.31.29-12.45,1.12s-6.74,2.44-10.66.83l-.56-.23c-3-1.31-6.21-1.7-9.39.39-1.88,1.23-7.59,5.49-6.9,8.1,1.49,5.64,7.91-3.21,9.55-4.07,3.12-1.65,5.27.46,8.48,1,3.85.71,7-1.33,10.58-2.14a132.3,132.3,0,0,1,13.34-1.78c1.7-.2,8.16,1.15,8.75-1,1-3.64-9.12-2.63-10.74-2.29"/><path id="Fill-225" class="cls-9" d="M291.64,431c.27.2.05,0,0,0m11.54-11.59c3.53-.35,14.81-2.87,17.13.77,1.51,2.37-.89,11.14-3.17,12.27-1.83.91-6.08-.1-8.08-.17-3.73-.13-7.47-.19-11.19-.42-1.25-.08-5.27.15-6.25-.95-1.16-1.31-1.11-8.27-1.38-10,3.25,1.05,9.55-1.16,12.94-1.51m7.53-3.57c-4.52.2-9,.53-13.52,1.14-2.5.34-5,1.24-7.34,1.66-.74.14-2-.24-2.86.2-2.67,1.29-.33,10,.31,12.32,1,3.58,3.47,4.16,7,4.49a125.8,125.8,0,0,0,13.87.25c4.43-.05,10.41.93,12.9-3.52,1.61-2.88,3.34-9.58,2-12.79-1.81-4.22-8.56-3.91-12.28-3.75"/><path id="quare" class="cls-6" d="M361.3,433.34h0m1-1.19c-.07.11-.42.48,0,0m-10.77-.33,6-1.11c-1.89,2.64-3.88,1.55-7.11,1.32l1.13-.21m-9.5-.93,1.51-.51a2.15,2.15,0,0,0,.25,1.08l-2.59-.3.83-.27m-4.41-3.26c0-.69,1-.21,1.62-.26-1.16,1-1.69,1.1-1.62.26m15.75-7.86q.22-.28.6,0c-.27.09-1.32.54-.6,0m10.21-1.2s.59.76,0,0m-.29-.25h0m-1.27-.15c2.09.35,1.93,2.8,0,0M337.48,418c-.42.36-.28,0,0,0m8-5.21c-3.55.2-10.05,0-13,1.88-3.87,2.47-1.84,10.95-1.49,14.67.51,5.5,3.1,7.07,8.28,7.65a139.6,139.6,0,0,0,18.74.65c5.59-.15,8.78-2.07,9.8-8,.32-1.8,1.11-4.59,1.09-6.32,0-1.2-.62-1.74-.84-2.76-1.29-5.8-3.43-6.48-9.38-6.74-4.37-.18-8.9-1.3-13.19-1.07"/></g><g id="Profile" class="cls-5"><path id="face-3" data-name="face" class="cls-6" d="M533.22,279.61c9,.19,19.24,5.18,17.81,15.75a17.15,17.15,0,0,1-15.5,14.56c-8.34.58-17.16-5.82-18.3-14.31-1.27-9.55,7.18-16.19,16-16m-4.42-4.3c-3.65.55-7.14,2.46-10.36,4.18-1.23.66-7.45,4.66-2.57,5.65-11.76,19,15.92,36.6,31.49,24.27,7-5.54,10.67-16,6.15-24.25-4.67-8.5-15.75-11.19-24.71-9.85"/><path id="Fill-231" class="cls-6" d="M526.65,291.46c0,3.54,5.5,3.54,5.5,0s-5.5-3.54-5.5,0"/><path id="Fill-233" class="cls-6" d="M536.85,292c0,3.84,6,3.84,6,0s-6-3.84-6,0"/><path id="Fill-235" class="cls-6" d="M530,299.63c-.81,2.91,8.34,4.41,8.65,1,.14-1.61-8.1-3.07-8.65-1"/><path id="Fill-237" class="cls-6" d="M556.79,297.82c10.53-1.26,21.39-.68,32-.37,2.64.07,5.29.15,7.94.19,1.68,0,5.32.84,6.79.05,6-3.23-5.79-4.79-7.46-4.93a362.94,362.94,0,0,0-37.32-.77c-3.12.12-3.8,6.06-1.92,5.83"/><path id="Hola-:_2" data-name="Hola-:)" class="cls-9" d="M604.17,350.17c.09-11,.49-22.14,1.33-33.14.35-4.48.76-9,1.11-13.45.16-2.11.91-5.06-.33-6.92a3.79,3.79,0,0,0-5.78-.61c-2,2.62-1.43,7-1.68,10.19-.39,4.87-.86,9.74-1.09,14.62a224.15,224.15,0,0,0,.2,28.51,87.33,87.33,0,0,0,2.17,13.15c.48,2,4.22,10.78,3.44,12-1.23,1.88-10.25,1.17-12.21,1.22-5,.14-10.05.22-15.07.32q-6.45.12-12.91.18c-1.71,0-11.74-.29-9.52,2.24-24.9,1.74-50.27-1.16-75-2.15-1.25-.05-3.3-.41-5.18-.51a15.29,15.29,0,0,1-.46-2.29c-.33-4-.41-8-.76-11.95-.65-7.27-1.9-14.47-2.65-21.74s-.66-14.53-1.1-21.8c-.07-1.25-.24-11.46-2.82-13.94a11.35,11.35,0,0,0,4.32.43c9.18-.74,18.3-2.33,27.4-3.7,2.6-.39,8.51-.11,10.67-1.42,1.87-1.12,2.61-5.07-.64-4.75-9.08,1-18.1,2.48-27.11,4q-3.62.6-7.21,1.26c-1.6.29-5.84.27-7.08,1.23-1.51,1.18-1.67,2-1.16,2.51-.71-.2-1.57.11-2.59,1.13-1.94,2.53-.12,8.74.11,11.69.28,3.55.42,7.1.58,10.66a175.66,175.66,0,0,0,2.14,20.45c1.24,7.61,2.29,15.25,3.53,22.86a53.84,53.84,0,0,0,1.29,5.82c-3.35,1.72-1.07,4.44,1.58,4.92h.06c.83,2,2,3.89,2.89,1.19a2.7,2.7,0,0,0,.11-.75c6.86.77,14.4.29,21.15.57,14.63.6,29.35,1.49,44,1a171,171,0,0,0,17.36-1.47c3.37-.45,6.75-1,10.06-1.74.24-.06.6-.11,1-.18h.2q7.61-.1,15.21-.42c4.26-.18,8.53-.27,12.78-.67,2.63-.25,8.2-.2,9.82-2.85,1.47-2.41-1-8.62-1.34-11.33a106.16,106.16,0,0,1-.81-14.37"/><path id="Fill-241" class="cls-6" d="M552.75,318.31c-4.06.35-7.81,2.25-11.9,2.28-3.43,0-6.82-1-10.27-.86-4.05.18-6.28,2.8-9.83,3.68-2.82.69-4.6-1.47-7.09-2.43-3.13-1.2-5.45-.58-8.14,1.25-2,1.34-6.58,4.35-6.55,7.07.11,8.22,9.7-3.14,11.64-3.28,2.57-.18,5.44,2.75,8.18,2.92,3.61.22,5.93-2.11,9.26-3s7,.19,10.38.52c3.85.37,7.22-.49,11-1.41a22.12,22.12,0,0,1,10.36-.09c2.47.5,8.64,3.44,9.73-.34,1.47-5.14-13.89-6.59-16.72-6.35"/><path id="Fill-243" class="cls-6" d="M554,334c-8.31.81-16.67,1.51-25,1.74-3.62.1-17.51-1.45-16.28,3.14,1.06,3.94,20,1.46,23.82,1.16,4.25-.33,8.5-.79,12.73-1.33,1.5-.19,5.12,0,6.18-1.25s.51-3.65-1.44-3.46"/><path id="have-a-nice-day-:_" data-name="have-a-nice-day-:)" class="cls-6" d="M496.67,354.92h0m1.75,0c2.07-.07,1.63-1.16,3.69-.59,1,.26,1.05-.13,1.79.78,1.44,1.78.09,5.65-1.34,7.08-5.26,5.3-11.57-7-4.14-7.27m0-5.21c-14.4.49-8.38,22.74,4.16,18.19,5.17-1.87,8.43-10.32,5.38-15.07-1.48-2.31-3.37-2.72-5.85-2.88-.57,0-1.3.8-1.66.76-.85-.09-.77-1-2-1"/><path id="espero" class="cls-6" d="M532.86,355.68c-.25-.08,4.55,1.32,4,.77,1.13,1.17-.38,3.93-1.65,4.41-3.07,1.17-4.8-3.61-2.37-5.18m2.13-6c-4.51.64-8,2.52-8.6,7.53-.57,4.63,2.56,9.32,7.49,9.41,10.75.19,11.08-18.33,1.11-16.94"/><path id="hola" class="cls-6" d="M584.08,355.88c.63,8.22-7.89.7,0,0m-3.65-8.79a2.49,2.49,0,0,0,1,3.37c-10.05,2.12-7.78,17.25,2.45,15,5.21-1.14,6.16-6.61,5.39-11.13-.37-2.15-5.72-12.61-8.85-7.26"/></g><path id="Fill-251" class="cls-8" d="M604.21,355c-3,.54-10.08,3.85-10,7.4.1,5.55,6.12-.51,7.46-1.32,7.19-4.38,16.51,1.29,24,2.5,3.43.55,10.15,1.57,13.19-.73,5.39-4.09-7.09-3.07-8.68-3.23-8.64-.89-17.23-6.17-26-4.62"/><g id="List" class="cls-5"><path id="Fill-253" class="cls-9" d="M745.78,316c0,5.67-.29,11.47.75,17.08.32,1.7.57,4.95,2.36,5.83a2.73,2.73,0,0,0,4-1.95c.53-2.15-.62-5.36-.73-7.61-.16-3.08-.17-6.16-.18-9.25,0-2.22.74-5.8-1.89-6.95a3.16,3.16,0,0,0-4.3,2.85"/><path id="Fill-255" class="cls-9" d="M835.54,307c-18.81,1.88-37.89,2.28-56.77,3.26-8.73.46-19.28-.12-27.5,3.25-1.53.63-7,4.12-2.56,5.54,1.39.45,2.79-1,3.93-1.54a24.93,24.93,0,0,1,6.1-1.41c17.16-2.76,35.1-2.28,52.43-3.57,4.45-.33,8.89-.67,13.32-1.1,3.17-.31,9.82-2.6,12.75-1.43,5,2,4.87,15,5,19.41,0,2.31-2.19,10.58,2.26,9.74,3.56-.67,2.27-9.26,2-11.62-.73-6.16-2-21.44-10.93-20.53"/><path id="Fill-257" class="cls-6" d="M842.48,338.84c-16.34,1.48-33.06,0-49.46.61-8.61.31-17.2.79-25.8,1.08-3.72.12-7.44.12-11.16.15-1.78,0-9.89,1.09-4.87,4.62,2.21,1.56,9.29.3,11.83.27,3.83,0,7.65-.2,11.47-.35,8.85-.35,17.7-.83,26.56-1.06,8.47-.23,17-.28,25.42-.51a109.27,109.27,0,0,0,12.66-.86c1-.14,4-.25,4.66-1.3s.19-2.79-1.31-2.65"/><path id="Fill-259" class="cls-9" d="M762.17,326.58h0m7.08-2.16h0m-.34-.06c3.82,3.89-2,8.53-5.62,4.74-3.79-4,3.17-4.72,5.62-4.74m-4-5.88c-13.14,2.34-8.48,19.85,3.78,17.32a8.85,8.85,0,0,0,6.62-11.75c-.73-2-2.31-4.27-4.51-4.91-1.09-.32-2.06.18-3.11.06s-1.54-.94-2.78-.72"/><path id="Fill-261" class="cls-9" d="M815.14,323.41c-7.92,0-15.84.36-23.76.51-2.43.05-8.67-1-8.68,2.79,0,4.09,6.94,2.58,9.25,2.53,7.86-.19,15.74-.53,23.56-1.28,2-.19,8.82.13,8.81-2.55,0-2.85-7.58-2-9.18-2"/><path id="Fill-263" class="cls-6" d="M834.06,350.12c-19.59.53-39.15.71-58.73,1.71-7.32.38-14.63.66-22,.66-1.41,0-4.26-.55-5.59.34-3.6,2.41.5,4.48,2.86,4.61,16.08.89,32.39-1.33,48.46-1.83,9.41-.29,18.82-.38,28.22-.86,2.57-.13,5.13-.28,7.69-.48,1.48-.11,5.37.2,6.56-.66,5.2-3.76-5.76-3.54-7.51-3.49"/><path id="Fill-265" class="cls-6" d="M744.18,359.7a88.8,88.8,0,0,0,.46,15.12c.26,2,.38,4.24,2.71,4.75,2.11.46,3.19-1.14,3.63-2.92,1.07-4.33.12-10.57.11-15.07,0-2.22,0-4.72-2.76-5.22a3.5,3.5,0,0,0-4.15,3.34"/><path id="Fill-267" class="cls-6" d="M854.82,371.94q-47.57,2.51-95.11,4.47c-2.48.11-21.7-.1-15,6.6,2.08,2.08,7.42.67,10.11.54,4-.2,8.07-.35,12.1-.55,16-.82,32-1,48-1.95,8.8-.5,17.58-1.29,26.33-2.32,4.16-.48,9.33-.43,13.23-2.06,2-.84,4.16-4.93.3-4.73"/><path id="Fill-269" class="cls-6" d="M836.59,346.18c-2.41,2.4-1.17,7.14-1,10.11.25,4.08.55,8.17,1.06,12.23.34,2.64.16,6.75,1.57,9a3.9,3.9,0,0,0,6.77-.21c1.32-2.28.65-7.08.62-9.6,0-3.5-.27-7-.48-10.49-.17-2.91.49-7.59-1.11-10.08a4.79,4.79,0,0,0-7.44-1"/><path id="Fill-271" class="cls-6" d="M764.11,364.82h0m5.63-.71c5.26,1.06-3.24,7.19-5.93,3-.42-.65-.64-1.46,0-2s1,.41,1.58.16a14,14,0,0,1,4.31-1.1m-.72-5c-3.59.29-8.53.51-10.3,4.11-2.39,4.83,1.69,9.56,6.41,10.29,4.55.71,11.33-1.8,11.69-7.1.29-4.27-3.77-7.62-7.8-7.3"/><path id="Fill-273" class="cls-6" d="M799,361.63c-3.71.06-11-1-14.25.77s-1.77,5,1.15,5.75c1.93.5,5.08-.31,7.09-.4,2.65-.1,5.3-.13,7.94-.16,4.45-.06,8.9,0,13.35,0s9.17.12,13.71-.21c5.74-.43,5.58-4.72,0-5.26-9.54-.91-19.39-.63-29-.48"/><path id="Fill-275" class="cls-6" d="M789.48,409.78c0,2,1.82,0,1.8,0s-1.8-2-1.8,0"/><path id="Fill-277" class="cls-6" d="M748.49,393.34c.11,5.93.19,11.88.45,17.81.08,1.87-.46,5.54,1.81,6.49,2.53,1.07,3.32-1.59,3.61-3.38.92-5.7,0-12.2-.07-18,0-1.93.39-4.63-1.81-5.59a2.92,2.92,0,0,0-4,2.64"/><path id="Fill-279" class="cls-6" d="M846.13,393.43h0m.21-.06h0m-48-4.8c-9.11.14-18.23.25-27.34.64-3.89.17-7.82.3-11.69.67-2.75.26-9.56.37-11.34,2.61-3.68,4.63,4.11,3.36,5.79,3a55.66,55.66,0,0,1,9.29-1.07c6.76-.36,13.53-.55,20.31-.68,18.37-.37,36.76-.32,55.14-.4,1.78,0,5-.72,6.64,0s1.55,2.49,1.72,4.55c.23,2.74-1.58,8-.2,10.27,2.14,3.57,5.24.54,5.72-2.07.65-3.6-.39-7.93-1.4-11.37-1.44-4.85-3.43-5-8.13-5.43-5.49-.44-11-.71-16.46-.76-9.35-.09-18.7-.1-28,.05"/><path id="Fill-281" class="cls-6" d="M834.42,413.11c-19.76,2.3-40.1.95-60,1-4.83,0-9.67.06-14.5.29-2.55.12-8.6-.58-10.34,1.39-3.69,4.14,2.95,4.75,5.37,4.58,4.9-.35,9.81-.51,14.71-.55,17.3-.13,34.69.67,52-.18a150.37,150.37,0,0,0,21.42-3c1.57-.3,12.35-2.35,6.2-4.81-3.63-1.45-11,.79-14.86,1.23"/><path id="Fill-284" class="cls-6" d="M776.7,405.52h0m-.13,0c-.05.13-.19.44,0,0m-1.25-1.61h0m0,0a4.69,4.69,0,0,1,1,1.9c-4.1,1.11-5.68-2.2-1-1.9m-.26-.16h0m-6.73-4.93c-2.65,3.3-4.84,7.15-1.54,10.92,3,3.37,8.9,3.8,12.65,1.55s3.53-7.2.84-10.39c-1.74-2.05-3.14-2-5.66-2.33-1.71-.22-4.84-1.56-6.29.25"/><path id="Fill-286" class="cls-6" d="M795.69,404.89c0,4.39,19,2.5,22.36,2.5,2.83,0,19.93,1.55,18.7-3-1-3.72-17.85-1.87-21.44-1.88-3.1,0-19.62-2.13-19.62,2.35"/></g><g id="Checkmark_" data-name="Checkmark!" class="cls-5"><path id="Fill-292" class="cls-6" d="M547.89,446.07c9.51,1.38,19.4,5.86,19.31,16.92-.07,9.3-7.87,19.2-17.89,18.65-9-.5-17.51-10.36-18.64-18.81a18.08,18.08,0,0,1,3.09-12.69c3.37-4.72,8.73-4.72,14.13-4.07m-4.49-6a19.47,19.47,0,0,0-16.16,7.77,42.29,42.29,0,0,0-4.46,6.05c-1.09,2-.9,7.05,2.83,4.68-.92,9.8,4.81,19.32,13,24.34,9,5.47,19.08,4.4,26.53-3.25,6.82-7,9.22-18.85,4.23-27.52s-16.55-12.16-26-12.07"/><path id="Fill-294" class="cls-6" d="M564,437.43a61.37,61.37,0,0,0-11.76,11.79c-3.27,4.21-5.42,9.47-9.34,13.14-2-2.16-4.3-8-8.25-5.67-3.28,1.92-1.17,5.21.43,7.38,4.12,5.59,8.7,7.84,14,2.31,4.8-5,7.53-11.7,12-17,2-2.32,5-4.63,6.57-7.2,1.42-2.33-.33-7.18-3.65-4.74"/></g><g id="Whiteboard-Stuff" class="cls-5"><path id="Wireframy-Stuff-2" data-name="Wireframy-Stuff" class="cls-6" d="M685,116.72l.43,0c3.67-.23,7.39-.13,11.06-.22,7.53-.17,15.36.24,22.85-.64,1.52-.2,2,1.75,1.37,2.76s-3.22,1.08-4.35,1.25a99.35,99.35,0,0,1-10,.81c-3.52.16-7,.27-10.57.37-3,.09-9.82,1.36-12.64.09-2.2-1-2.15-2.1-1.26-3-.54-1.2-.45-3.16-.57-4.1a97.06,97.06,0,0,1-.79-11.81c0-7.78,0-15.87,2.16-23.41a1.91,1.91,0,0,1-1.38-1.73c0-4.77,17.5-3.63,21-3.73,4.36-.11,8.72-.12,13.08-.1,2.88,0,6.77-.61,9.64.06,5.59,1.3,5.23,10.87,5.35,15.5a245.93,245.93,0,0,1-.59,25.32c-.23,2.86-2.31,6.49-4.69,2.54-1.32-2.2-.73-7.33-.73-9.76,0-8.64,1.34-17.53,0-26.13-.43-2.81-.33-3-3.2-2.94-2.27,0-4.54.12-6.82.17-4.62.09-9.25.16-13.88.33-1.76.06-8.07,1.17-13,1.16a.49.49,0,0,1,0,.12C687.61,83,686,87,685.75,90.49c-.53,8.43.11,17.05-.68,25.43C685,116.18,685,116.45,685,116.72Z"/><path id="Wireframy-Stuff-3" data-name="Wireframy-Stuff" class="cls-6" d="M751.31,119.16a6.32,6.32,0,0,1-1.42-2.52c-1.19-3.84-1.3-8-1.39-12-.18-8.52-.09-17.06-.14-25.58-.77-1-.32-2.22.65-3,2.6-2.24,10.11-1.67,13.42-1.84,4.75-.26,9.52-.31,14.28-.33,5,0,10.1.06,15.14.22,1.87.06,14.88.38,9.07,3.54a6,6,0,0,1-1.12.45,18.5,18.5,0,0,1,.23,3.63c-.24,4.53-.35,9.08-.55,13.62q-.35,7.59-.61,15.19c-.1,2.68.82,8.91-1.3,10.84-1.43,1.31-2.4,1-3.06.16-5.08,1.47-16.78.52-18.91.52-3.82,0-24.57,2.46-24.61-2A1.47,1.47,0,0,1,751.31,119.16Zm3.37-1.57c5.79-1.23,16.58-.41,18.85-.42,4.23,0,8.46,0,12.69.22,1.32,0,4.54-.2,7.08.08,0-.23,0-.44,0-.63-.23-4.56,0-9.17.17-13.73s.38-9.19.55-13.78c.1-2.37-.5-7.3.14-10.71-3.07-.05-6.29-.42-8.36-.43-4.87,0-9.73,0-14.59,0a141,141,0,0,0-15.78.85c-.28,0-.63.12-1,.2.8,3.33-.17,8.67-.17,11.74,0,8.63.31,17.2.5,25.78A6.54,6.54,0,0,1,754.68,117.59Z"/><path id="Fill-135" class="cls-9" d="M702.48,120.82c-3.13,1.83-1.45,9.14-.36,11.66,1.78,4.16,5.39,7.41,9.29,9.57,7.88,4.36,19.25,3.2,25.21,10.76.06.08,2.12,2.12,2.59-.52.38-2.17-3.46-5.48-5-6.57-4.24-3.09-9.68-4.08-14.58-5.63-5.23-1.64-11-4.68-13.16-10.07-.78-1.91.7-12-4-9.2"/><path id="Fill-137" class="cls-9" d="M774,124.34c-2.87.79-1,4.73-1,6.7a11.7,11.7,0,0,1-2.32,7c-3.85,5-11.38,5.73-17,7.16-4.1,1-13.92,3.27-14.3,8.82-.43,6.2,8.24-1.35,9-1.65,8.1-3,18.58-3.55,24.84-10.09a16.14,16.14,0,0,0,4.35-10c.13-2.09.16-8.93-3.53-7.92"/><path id="Fill-139" class="cls-6" d="M735.58,158.3c11.93-3.14,23,5.21,24.45,17.24,1.48,12.69-8.08,22.9-20.69,23.46-11.09.49-24.52-7.45-24.59-19.69C714.69,167.85,725.66,160.91,735.58,158.3Zm5.75,8.55c-2,1.19-2.42-1.89-3.86-2.3s-3.78,1.12-5,2c-2.05,1.51-7.73,10.3-10.49,5.52-8.35,14.43,12.48,25.23,24.33,19.77,13-6,10.47-27.92-4.92-28C742,164.69,742.63,166.09,741.33,166.85Z"/><path id="Fill-141" class="cls-6" d="M730.48,175.48c0,2.63,4.16,2.63,4.16,0s-4.16-2.72-4.16,0"/><path id="Fill-143" class="cls-6" d="M737.79,175c0,3.23,5.1,3.23,5.1,0s-5.1-3.32-5.1,0"/><path id="Fill-145" class="cls-6" d="M732.56,182.49c-4.17,2.45,7.75,7.32,8.22,2.35.2-2.15-1.88-1.57-3.26-1.73s-3.7-1.35-5-.62"/><path id="Fill-147" class="cls-9" d="M730.75,199.88c.18,6.26.1,12.51,1.28,18.69.23,1.17.39,5.42,1.31,6.29,2.28,2.14,2.32-2,2.41-3.54.31-5.63-.28-11.44-.41-17.09,0-1.22.3-3.73-.28-4.91-.91-1.87-4.4-2.42-4.31.56"/><path id="Fill-149" class="cls-9" d="M726.3,194.8c-9.14,10.26-21.71,9.5-34.38,10.4-6.7.47-13.47,1.45-18.85,5.78a22.71,22.71,0,0,0-6.12,7.41c-.64,1.26-3.64,8.51.88,6.79,1.6-.61,3.18-5.41,4.21-6.83a20.23,20.23,0,0,1,7.54-6.38c5.84-2.8,12.83-2.75,19.16-3.1,6.63-.37,13.75-.72,19.84-3.6a30.28,30.28,0,0,0,7.86-5.23c.82-.78,2.59-2.1,2.72-3.29.15-1.36-1.16-3.85-2.86-1.95"/><path id="Fill-151" class="cls-6" d="M680.19,226.27c-8.58.28-17.15.63-25.71,1.17-1.76.12-7.61-.24-6.12,3.36,1.19,2.88,8.33,1,10.69.83,8.93-.53,17.89-.71,26.8-1.51,2-.18,11-.11,7.31-3.66-1.77-1.69-10.51-.28-13-.19"/><path id="Fill-153" class="cls-6" d="M642.91,230.41c-2.7,3.55-1.46,12.18-1.26,16.45s-.6,11.7,4.8,12.34c-1.72-.22,1.3.11,1.79.13,1.1.06,2.2.08,3.3.09,2.53,0,5.07,0,7.61-.05,5.74-.12,11.5-.29,17.24-.6,2.41-.14,15.5,0,16-2.53.66-3.2-11.89-1.39-14.13-1.29-5.47.25-10.95.31-16.43.38-2.71,0-5.42.06-8.14,0-1.12,0-5.55.43-6.24-.31s-.12-6.49-.14-7.38c0-2.92,0-5.85.07-8.76.07-2,1.13-5.7.27-7.54a3,3,0,0,0-4.76-.94"/><path id="Fill-155" class="cls-6" d="M687.09,230.57c.15,6.5.2,13.13,1.74,19.48.51,2.12,1.22,6.48,3.35,7.57s4.15-.49,4.3-2.7c.18-2.78-1.31-6.42-1.61-9.27-.36-3.33-.56-6.66-.69-10-.09-2.51.67-6.28-1.72-7.9a3.45,3.45,0,0,0-5.37,2.82"/><path id="Fill-157" class="cls-6" d="M704.16,229c-2.67,2.65-1.48,11.07-1.14,14.48.24,2.5,3,14.81,7.08,8.39,1.82-2.84-.49-10.34-.47-13.65,0-2.11.75-4.77.39-6.8-.47-2.67-3.44-4.84-5.86-2.42"/><path id="Wireframy-Stuff-4" data-name="Wireframy-Stuff" class="cls-6" d="M766.92,251a2.23,2.23,0,0,1,.47,2.43c-.92,2.13-4.29,1.67-6.13,1.82-6.12.51-12.26.85-18.4.9-5.94.06-11.87-.1-17.8,0-4.95.05-10.09,1.05-15,.85-2-.08-4.23-.75-3.71-3.39.46-2.35,2.82-2.37,4.74-2.56a165.88,165.88,0,0,1,17.41-.78c12.23,0,24.45,0,36.68-.09a2.74,2.74,0,0,1,1.37.53c-.64-.78-.33-1.93-.45-3.05-.32-3-.53-6-1.1-9-.46-2.42-.81-6.53-3-8.06-2.45-1.66-7.88-1.11-10.8-1.18a202.19,202.19,0,0,0-23.6,1.06c-3.57.33-7.18.58-10.71,1.22-2,.35-7.73,3.24-9.3,1.46-3.78-4.27,12.83-6,15.08-6.26,8-.83,16-1.45,24.1-1.52,5.44,0,14.76-.51,18.76,4,2.4,2.68,3.24,7.09,4.18,10.44.72,2.57,2.67,7.2,1.29,9.85-.63,1.21-1.64,2.23-3.18,1.8A2.88,2.88,0,0,1,766.92,251Z"/><path id="Line" class="cls-9" d="M807.9,217.06h0m-54.24-26.47c-4.86,2.86,4.15,11.25,6.44,12.55,5.16,2.92,12.26,3.36,18,4.18,7.29,1,15.24,1.43,22.25,3.82a14.09,14.09,0,0,1,6.85,5.05c1,1.24,3.37,6.58,5.55,5.31,4.38-2.54-7.42-13.22-10-14.37-5.91-2.61-12.89-3.34-19.21-4.35-5.87-.94-11.87-1.64-17.6-3.31a11.76,11.76,0,0,1-7.21-5.2c-1.13-1.76-2.06-5.45-5.08-3.68"/><path id="Wireframy-Stuff-5" data-name="Wireframy-Stuff" class="cls-6" d="M779.78,252.39c-1.46-2.79-2.13-8.15-2.26-9.21a97.34,97.34,0,0,1-.52-13.66,3,3,0,0,1,4.8-2.31c2.5-1,6.72-1.2,9-1.43,3.73-.38,7.5-.52,11.24-.74,8.75-.52,17.48-1.47,26.24-1.66,2.62,0,6.13-.29,8.23,1.64,2.39,2.21,2.86,7.67,3.58,10.62a73.74,73.74,0,0,1,2,9.73,19.42,19.42,0,0,1,.19,3.28,2,2,0,0,1,1.63,2.36c-.2,2.14-3.18,2.44-4.92,2.78-5.78,1.12-12,.87-17.82,1-12.27.35-25.38,2.33-37.6,1.15C781.51,255.77,779.26,255,779.78,252.39Zm4.41-2.52h1.42c6.16-.11,12.33-.3,18.49-.53s12.58-.52,18.87-.59c5-.05,10.15.38,15.19.18-1.09-2.83-.92-7.29-1.5-10.23s-.79-6.37-2-9.11c-1.32-3.08-2.47-2.37-5.9-2.13s-7.06.57-10.59.86c-7.76.64-15.52,1.05-23.28,1.59-4,.28-7.88,1.43-11.82,1.88-.06,1.4-.25,2.82-.23,3.85.06,3,.36,6,.62,9C783.61,245.9,784.12,248,784.19,249.87Z"/></g></g><g id="Head_Front_Long" data-name="Head/Front/Long"><path id="Hair-Back" class="cls-10" d="M177.92,135.94c3.45,12.7,7.94,41.25,3.36,45.73h-29v-.15a21.51,21.51,0,0,1-19.11-21.37v-21a21.5,21.5,0,0,1,21.5-21.5h2A21.5,21.5,0,0,1,177.92,135.94Z"/><g id="Head"><path class="cls-1" d="M144.42,156.14c-4.6-5.41-7.72-12-7.2-19.47,1.5-21.4,31.29-16.69,37.09-5.89s5.1,38.2-2.39,40.13c-3,.77-9.35-1.11-15.82-5l4.06,28.76h-24Z"/></g><path id="Hair-Front" class="cls-10" d="M150.91,152.52c1.11,11.88.67,25.45-2.63,28.67h-29c-1.62-28.08,14-17.21,14-43.64,1-1,1.89-1.89,2.8-2.7l0-.78q7.53-15.42,19.11-15.42c11.58,0,15.24,5.39,18.35,10-2.33,8-11.36,9.17-19.38,14.15a5.5,5.5,0,1,0-3.47,9.77Z"/></g><g id="Bottom_Standing_Skirt" data-name="Bottom/Standing/Skirt"><path id="Skirt-Shadow" class="cls-11" d="M97.05,376.11c24,6.71,41.7,12.06,59.11,12.06s33.57-5.17,48.5-15.5q-35.22-10.34-58-10.33C131.47,362.34,116.93,365.6,97.05,376.11Z"/><path id="Leg" class="cls-12" d="M180.43,395.47a5.47,5.47,0,0,1-.58-1.13c-3.21-8.48-54.57-100-59.69-116.69H178c3.89,12.71,21.4,92.52,23.86,108.44,7.78,25.11,23.79,106.45,25.83,112.09,2.15,5.93-10,12.1-13.17,4.81-5.13-11.59-17.35-43.68-22.79-63.27C186.62,421.36,182.46,404.83,180.43,395.47Z"/><path id="Leg-2" data-name="Leg" class="cls-1" d="M133.12,406.64C109.64,412.58,23.75,423.31,17.85,425c-6.06,1.73-11.38-10.77-3.88-13.48,11.92-4.3,44.78-14.26,64.7-18.32,16-3.26,30.65-5.93,40.47-7.49-.83-27.58-4.63-93.76-2.14-108h51.16c-2.39,13.7-22.59,113.72-26.34,123.73C140.63,405,137.07,406.53,133.12,406.64Z"/><g id="Accessories_Shoe_Flat-Sneaker" data-name="Accessories/Shoe/Flat-Sneaker"><path id="shoe" class="cls-13" d="M14.51,408.19a21.19,21.19,0,0,0-6.89-.49A48.79,48.79,0,0,0,0,410L9.79,465.5q7.55.9,7.29-3.86t-.33-7.93l7-27.85a1,1,0,0,0-.72-1.21h0l-4.32-.95A17.85,17.85,0,0,1,15.38,417a16,16,0,0,1,.7-6.37h0a2,2,0,0,0-1.43-2.44Z"/></g><g id="Accessories_Shoe_Flat-Sneaker-2" data-name="Accessories/Shoe/Flat-Sneaker"><path id="shoe-2" data-name="shoe" class="cls-13" d="M210.84,502.05a21.47,21.47,0,0,0-1.68,6.7,50.22,50.22,0,0,0,.9,7.9h56.41q2.19-7.27-2.54-7.85c-3.16-.39-5.78-.73-7.87-1.05l-26.22-11.68a1,1,0,0,0-1.32.5v0l-1.68,4.09a18.06,18.06,0,0,1-7.13,2,16.07,16.07,0,0,1-6.15-1.8h0a2,2,0,0,0-2.65,1Z"/></g><path class="cls-3" d="M208.73,372c-1.07.54-2.72.24-3.81.69-33.4,13.64-73.86-13-107.76,3-9.85-22.69,3.57-76.83,19.26-97.08.24-.32.49-.63.74-.93q33.83-9.67,64,0C188.16,309.59,205.74,323.05,208.73,372Z"/></g><path class="cls-14" d="M204.92,372.7c-33.4,13.64-73.86-13-107.76,3-9.85-22.69,3.57-76.83,19.26-97.08,21.71-5.77,43.24-5.76,62.62.45C186,310.94,201.91,323.85,204.92,372.7Z"/><path class="cls-3" d="M191.35,225C204,233.51,221.84,236.78,246,233l6.84,49.2-.48.06c-47.93,6-89.89-13.28-98.51-65.28-2-11.87-3.56-24.16-3.72-34.92,0-1.48,0-2.94,0-4.36l17.15,1.14c1.14,10.34,3.66,19.65,7.75,27.57"/><path class="cls-15" d="M184.36,282.91H114.2c-1,11.35-1.59,23-1.91,36.74H64.9a308.33,308.33,0,0,1,11.19-45.19,270.35,270.35,0,0,1,18.84-44,220.21,220.21,0,0,1,31.93-44.89q6.26-6.77,13.08-12.93h1.7v0l21.18,4.85C163,221.83,177.1,250.22,184.36,282.91Z"/><path class="cls-3" d="M183.05,261.64c2.24,7.61,4.37,15.19,6.11,23H119c-1,11.35-1.59,23-1.91,35H64.56c.11-.58.22-1.16.34-1.74a347.06,347.06,0,0,1,11.19-43.45Q78,268.79,80,263.31q2.7-7.2,5.71-14.05"/><path class="cls-3" d="M132.87,179.35q3.45-3.43,7.07-6.7h1.7v0l21.18,4.85,4.8,1.1a211.55,211.55,0,0,0,6.86,52.93c2,7.88,4.2,15.4,6.4,22.81"/><path class="cls-3" d="M123.88,188.87q2.48-2.79,5-5.49"/><path class="cls-3" d="M94.93,230.47a230.1,230.1,0,0,1,13.32-21.69q4.25-6.1,8.83-11.84"/><path id="Shade" class="cls-16" d="M130.07,220.91q-2.7,41.76,3.19,63.74H119C121,262.16,124.42,240.92,130.07,220.91Z"/><g id="humaaans_sitting-8" data-name="humaaans/sitting-8"><g id="A-Human_Sitting" data-name="A-Human/Sitting"><g id="Head_Front_Short-2" data-name="Head/Front/Short-2"><g id="Head-2" data-name="Head"><path class="cls-17" d="M911.87,185.59c5.24-6.15,8.78-13.69,8.19-22.13-1.71-24.33-35.57-19-42.16-6.7s-5.8,43.43,2.71,45.62c3.39.88,10.63-1.27,18-5.7L894,229.37h27.28Z"/></g><path id="Hair" class="cls-10" d="M914,191.06c3.43-15.23,13.18-25.61,11.69-32.42q-1.49-6.81-7.94-8.47-3.33-13.5-21.52-11.48c-18.19,2-29.29,9.56-24.5,26.18,4.41,0,9.73-1.59,17.09,1.14q3.5,1.31,5,8.06h3.32q4.85-8,9.54-5.9t2.14,10.33l1.64,12.56Z"/></g><g id="Bottom_Sitting_Baggy-Pants" data-name="Bottom/Sitting/Baggy-Pants"><g id="Objects_Seat_Cube-2" data-name="Objects/Seat/Cube-2"><path id="Seat" class="cls-18" d="M997.43,371.46H866.7a18.19,18.19,0,0,0-18.19,18.19V494.23a18.18,18.18,0,0,0,18.19,18.19H997.43a18.18,18.18,0,0,0,18.18-18.19V389.65A18.19,18.19,0,0,0,997.43,371.46Zm-18.19,31.83a4.55,4.55,0,0,1,4.54,4.55v68.21a4.54,4.54,0,0,1-4.54,4.54H884.88a4.54,4.54,0,0,1-4.54-4.54V407.84a4.55,4.55,0,0,1,4.54-4.55Z"/></g><path id="LegLower" class="cls-19" d="M735.79,506.74q33.62-41.06,45.49-60.87c13.56-22.62,24.65-42.75,28.15-50.44,8.35-18.33-19.22-26.92-25.46-18.37q-14.16,19.43-60.51,122.2Z"/><path class="cls-20" d="M819.42,394.79,778.61,497.52,728,477c4.43-6,39.81-85.8,54.7-106a5.74,5.74,0,0,1,2.34-1.78C798.78,367.69,826.77,379,819.42,394.79Z"/><path class="cls-3" d="M785.9,488.23l-4.19,10.55-3.1-1.26L728,477c4.43-6,39.81-85.8,54.7-106a5.74,5.74,0,0,1,2.34-1.78c11-5,46.55,7.05,38.37,24.6L797.47,459.1"/><g id="Lower-Leg"><path id="LegLower-2" data-name="LegLower" class="cls-17" d="M892.8,477.73C884.68,465.87,855.12,426,839,409.5c-4.63-4.74-9.14-9.29-13.41-13.53-12.69-12.61-38,8.58-25.29,20.06,31.54,28.59,77.56,67.19,81.41,70.63C887.13,491.48,897.91,485.17,892.8,477.73Z"/></g><g id="Accessories_Shoe_Flat-Sneaker-3" data-name="Accessories/Shoe/Flat-Sneaker"><path id="shoe-3" data-name="shoe" class="cls-13" d="M890.9,472.37a24.72,24.72,0,0,1,5.47,5.65,57.68,57.68,0,0,1,3.6,8.28l-55.53,32.06q-6.3-5.91-2-9.17t7.15-5.5l19.17-26.41a1.12,1.12,0,0,1,1.58-.25l0,0,4,3.07c3.66-.32,6.38-1,8.18-2a18.38,18.38,0,0,0,5-5.27h0a2.28,2.28,0,0,1,3.17-.54Z"/></g><g id="Accessories_Shoe_Flat-Sneaker-4" data-name="Accessories/Shoe/Flat-Sneaker"><path id="shoe-4" data-name="shoe" class="cls-13" d="M745.43,502.65a24.33,24.33,0,0,1,1.9,7.62,57.21,57.21,0,0,1-1,9H682.19q-2.49-8.25,2.89-8.92c3.59-.44,6.57-.83,8.94-1.19l29.81-13.28a1.13,1.13,0,0,1,1.5.57v0l1.91,4.65q5,2.32,8.11,2.33a18.44,18.44,0,0,0,7-2.05h0a2.27,2.27,0,0,1,3,1.12A1,1,0,0,1,745.43,502.65Z"/></g><path class="cls-21" d="M905,386.55q-17.65,3.12-69.66,11.59c-1.16.32-1.19,1.59-.09,3.79L878.16,457l-49,31.2q-54.66-93.55-54.78-93.87c-2-5.22-4-21.07,6.84-26.45q90.3-40.31,102.57-43.85h58.89C948.22,362.84,938.34,380.67,905,386.55Z"/><path class="cls-3" d="M864,435.81,879.77,456l-1.61,1-49,31.2q-54.66-93.55-54.78-93.87c-2-5.22-4-21.07,6.84-26.45q90.3-40.31,102.57-43.85h61.84c5.78,39.41-4,57.47-37.56,63.39q-13.71,2.42-48.07,8.05-9.93,1.63-21.6,3.53-1.74.5-.09,3.8l15.21,19.51"/></g><g id="Body_Hoodie" data-name="Body/Hoodie"><path id="Skin-2" data-name="Skin" class="cls-17" d="M834,309.18l-36.26,26.63q-14.76,4-24.65,9.9c-1.56,1.42-3.45,4.3,3,3.8s13.28-.73,14.18,1.48-3,4.84-1.22,7.81q1.8,3,17-14.91L842,329Zm139.22.92-23.75.09q22,71,23.75,75.38c2.63,6.51-2.93,16.44-5.31,21.78,7.75,3.47,6.92-9.38,16.7-4.83,8.93,4.15,15.72,11.68,26,5.31,1.27-.78,2.66-3.72-.7-6-8.36-5.73-24-16.8-25.59-20.1C982.11,377.19,980.77,354,973.2,310.1Z"/><path id="Coat-Back" class="cls-22" d="M905.69,210.42l-9.83-1.69c-36.47,31.51-51.45,92-96.15,124.1l10.76,13.34C888,336.56,907.24,262.74,905.69,210.42Z"/><path id="Coat-Back-2" data-name="Coat-Back" class="cls-3" d="M868.83,241.26c-5.4,8.24-10.54,16.93-15.79,25.69"/><path id="Coat-Back-3" data-name="Coat-Back" class="cls-3" d="M844.55,280.91c-12.2,19.51-25.84,38.29-44.84,51.92l10.76,13.34c77.55-9.61,96.77-83.43,95.22-135.75l-9.83-1.69a118.1,118.1,0,0,0-13.66,14.14"/><path id="Shirt" class="cls-23" d="M948.54,334h-87c-4,0-3.23-5.74-2.65-8.64,6.63-33.42,32.51-69.44,32.51-117l25.09-3.93C937.27,237.73,944.45,278.82,948.54,334Z"/><path class="cls-24" d="M984.33,381.7H969.68A233.8,233.8,0,0,1,958,357.82H889.58Q874.42,319.53,908.22,205l7.85-.45a15.37,15.37,0,0,1,2.34-.16c11.46,0,19.22-3.32,26.41-3.9a17.91,17.91,0,0,1,3.74.73c9.79,3,13.11,12.1,3.94,28.65a14.36,14.36,0,0,1-8.66,7.32Q987,296.56,984.33,381.7Z"/><path class="cls-3" d="M985.94,334q1.51,10.85,2.12,22.19.68,12.48.27,25.56H969.68A233.8,233.8,0,0,1,958,357.82H889.58Q874.42,319.53,908.22,205l7.85-.45a15.37,15.37,0,0,1,2.34-.16c11.46,0,19.22-3.32,26.41-3.9a20,20,0,0,1,7.74.73,14.64,14.64,0,0,1,5.79,3.17"/><path class="cls-3" d="M972,280.78q3.53,8.73,6.29,17.9"/><path class="cls-3" d="M956.5,229.84a14.33,14.33,0,0,1-8.66,7.32A202.86,202.86,0,0,1,967.25,270"/><path id="Shade-2" data-name="Shade" class="cls-16" d="M943.13,318.6q-3.24,27-10.5,39.22H958Q950.94,341.28,943.13,318.6Z"/></g></g></g></g></g></svg>