<svg xmlns="http://www.w3.org/2000/svg" viewBox="0 0 1133.5 425.71"><defs><style>.cls-1,.cls-25{fill:#001e1d;}.cls-1,.cls-10,.cls-11,.cls-12,.cls-13,.cls-14,.cls-15,.cls-16,.cls-17,.cls-18,.cls-19,.cls-2,.cls-20,.cls-21,.cls-22,.cls-23,.cls-33,.cls-34,.cls-35,.cls-36,.cls-37,.cls-4,.cls-5,.cls-6,.cls-7,.cls-9{fill-rule:evenodd;}.cls-2,.cls-5{fill:#c1dee2;}.cls-2{opacity:0.2;isolation:isolate;}.cls-3{opacity:0.5;}.cls-4{fill:#69a1ac;}.cls-29,.cls-6{fill:#89c5cc;}.cls-32,.cls-7{fill:#f2f2f2;}.cls-8{fill:#004643;}.cls-9{fill:#997659;}.cls-10{fill:#e4e4e4;}.cls-11{fill:#c4414e;}.cls-12{fill:none;stroke:#142322;stroke-width:1.4px;}.cls-12,.cls-26{stroke-linecap:round;stroke-linejoin:round;}.cls-13{fill:#b28b67;}.cls-14{fill:#e16162;}.cls-15{fill:#eda443;}.cls-16{fill:#dde3e9;}.cls-17,.cls-24{fill:#f9bc60;}.cls-18{fill-opacity:0.1;}.cls-19{fill:#273eaf;}.cls-20{fill:#3f53e0;}.cls-21{fill:#23374c;}.cls-22{fill:#2f4664;}.cls-23{fill:#fff;fill-opacity:0.2;}.cls-26,.cls-27{fill:#fffffe;}.cls-26{stroke:#061e1d;stroke-width:2.1px;}.cls-28{fill:#061e1d;}.cls-30{fill:#142322;}.cls-31{opacity:0.7;}.cls-33{fill:#57331f;}.cls-34{fill:#191847;}.cls-35{fill:#3d2216;}.cls-36{fill:#043f3d;}.cls-37{fill:#0a605f;}</style></defs><g id="Layer_2" data-name="Layer 2"><g id="Layer_1-2" data-name="Layer 1"><path id="Leaf-Bottom" class="cls-1" d="M159.3,78.64c-3.44-1.71-8,.27-6.12,4.78,2,4.83,9.63,4.89,13.91,4.79-.43,0-1.81-4.45-2.28-5.12A14.53,14.53,0,0,0,159.3,78.64ZM156,100.48a4.09,4.09,0,0,0-.46,6.1c2,2.18,5.53,2.1,8.2,1.89,1.21-.1,7.65-.61,6.13-1.67.11,0,.36.16.62.3.14.52.29,1,.45,1.55l-.11.06.11-.06a59.18,59.18,0,0,0,6.65,14.57,14.26,14.26,0,0,0-3.34-.9c-3.36-.42-10.44,2.19-6.68,6.67,3.61,4.29,9.23-.31,13.32-1a190.77,190.77,0,0,0,12.94,16,1.06,1.06,0,0,0-.67.56c-1.84-.94-3.76-2.27-5.47-2.64-2.45-.52-7.49-.83-9.35,1.37-2.29,2.7.16,4.9,2.86,5.42,3.92.75,9-1.16,12.81-2.45a1.24,1.24,0,0,0,1.18-.4l.25-.08c4.64,5.11,9.47,10.05,14.26,14.88h-.15a12.91,12.91,0,0,0-4.05-1.84c-3.36-.82-7.32-.83-10,1.61s-3.68,6.66-.87,9.38c5.63,5.45,13.93-7,16.77-7.49,4.87,4.86,10,9.4,15.26,13.85a8.85,8.85,0,0,0-1.84-.38c-5.13-.49-17.17,5.8-10.88,12,5.49,5.4,11.84-5,16.27-8.62,4.93,4.15,9.88,8.27,14.7,12.54a14.08,14.08,0,0,0-8,.05c-2.92.89-7.62,3.09-5.78,7s7.52,2.18,10.47.91c1.6-.69,4.82-3,7.64-4a96.91,96.91,0,0,1,19.4,24.67A85.09,85.09,0,0,1,275.8,239c1.08,4.13,3.19,11.05,2.77,16.41,2-10.73-1.63-23.63-5.56-33.23a80.61,80.61,0,0,0-15.36-23.55c1.59-4.78,15-11.68,7-16.12-4.25-2.35-8.6,1.55-9.53,5.67-.63,2.84.34,6.41,1.37,9.16q-3-3.19-6.2-6.18c-2.95-2.74-6-5.41-9-8,5-4.72,9.78-18.22,3-20.43-9.95-3.25-5.16,15.16-4.46,18.61a.51.51,0,0,0,.46-.17c-.05.31-.12.65-.2,1-5.84-5-11.76-9.94-17.49-15.08a25.36,25.36,0,0,0,2-2.61,29.56,29.56,0,0,0,3.87-5.62c1.61-3.24,3.16-8.39-1.1-10.3-4.64-2.07-6.84,3.76-6.87,7.24a45.41,45.41,0,0,0,1,7.06c.11.73-.3,4.05.7,2.62a6.17,6.17,0,0,0,0,1.18c-1-.93-2.05-1.87-3.06-2.81a1.24,1.24,0,0,0,.08-.4,1.19,1.19,0,0,0-1.72-1.13c-1.33-1.27-2.66-2.56-4-3.88-2.76-2.78-5.56-5.64-8.34-8.56.61-.52.37-1.24.93-1.79s1.67-.85,2.33-1.36a15.93,15.93,0,0,0,4-5c1.65-3,3.78-9.41-1-10.86s-7.48,4.64-7.8,8.48a97.32,97.32,0,0,0,.92,9.87c-5.14-5.43-10.2-11.07-14.78-16.8,1.39,0,5.33-2.86,6.12-3.64,1.94-1.89,5-6.08,1.63-8.29-3-2-6.77.88-8.06,3.64a39.45,39.45,0,0,0-1,6.6c-1.9-2.43-3.71-4.88-5.39-7.33-1.12-1.63-2.17-3.31-3.15-5a2.24,2.24,0,0,0,.66-.65c5.06-.86,11.5-8.74,5.56-11.48-2.82-1.31-5.89,1.38-7.27,3.59a30.23,30.23,0,0,0-1.12,4.5,94.49,94.49,0,0,1-6.62-17.81,1.1,1.1,0,0,0,.86-1c2.45-1.4,4.39-2.56,6.1-5.25,1.07-1.67,3-5.49-.14-6.41-4.07-1.21-6.62,5-7,8.06,0,.36,0,1.39,0,2.34a1.48,1.48,0,0,0-.42,0c-.94-3.8-1.68-7.66-2.28-11.52,2.22-.72,2.61-12.37,1.13-14-3.3-3.72-5.64,1.65-5.46,4.49a18.82,18.82,0,0,0,3.53,9.09c.19.28.14.27.19-.13a.81.81,0,0,0,.19.45c-.09,1.76-.27,3.56-.19,5.12A117.74,117.74,0,0,0,169.12,101c.18,1.07.39,2.13.63,3.19a26.06,26.06,0,0,0-5.13-3.3C162.17,99.81,158.41,98.63,156,100.48ZM278.86,255.41a12.86,12.86,0,0,1-.92,4.16A34.48,34.48,0,0,0,278.86,255.41Z"/><path id="Leaf-Top" class="cls-2" d="M147.11,7.93c2.46-1.22,5.73.2,4.37,3.42-1.47,3.45-6.88,3.49-9.94,3.42.31,0,1.29-3.18,1.63-3.66A10.4,10.4,0,0,1,147.11,7.93ZM150,24a2.93,2.93,0,0,1,.34,4.4c-1.43,1.59-4,1.53-6,1.38-.88-.07-5.59-.44-4.47-1.21-.09,0-.26.11-.46.22-.1.37-.21.74-.32,1.12l.08,0-.08,0a42.79,42.79,0,0,1-4.86,10.53,10.51,10.51,0,0,1,2.43-.64c2.46-.31,7.62,1.58,4.88,4.82s-6.74-.23-9.73-.69a138.29,138.29,0,0,1-9.45,11.57.78.78,0,0,1,.49.4,19.92,19.92,0,0,1,4-1.9c1.79-.38,5.48-.61,6.83,1,1.67,2-.12,3.54-2.09,3.92-2.86.55-6.6-.83-9.35-1.77a.88.88,0,0,1-.86-.28l-.19-.06c-3.39,3.7-6.91,7.27-10.42,10.76h.12a9.49,9.49,0,0,1,3-1.34c2.46-.59,5.35-.6,7.34,1.16s2.69,4.82.63,6.79c-4.11,3.94-10.16-5-12.24-5.41-3.56,3.51-7.32,6.8-11.14,10a7.4,7.4,0,0,1,1.34-.27c3.74-.35,12.53,4.19,7.93,8.67-4,3.9-8.64-3.6-11.87-6.23-3.6,3-7.22,6-10.74,9.08a10.24,10.24,0,0,1,5.83,0c2.13.64,5.56,2.23,4.22,5.07s-5.5,1.58-7.65.67c-1.17-.51-3.52-2.2-5.58-2.91A70.41,70.41,0,0,0,67.7,110.67a61.08,61.08,0,0,0-5.27,13.47c-.79,3-2.34,8-2,11.87-1.47-7.77,1.2-17.09,4.07-24a58.6,58.6,0,0,1,11.23-17c-1.16-3.46-10.93-8.44-5.09-11.65,3.1-1.7,6.28,1.11,7,4.1.46,2-.25,4.62-1,6.62,1.45-1.54,3-3,4.53-4.47,2.15-2,4.36-3.92,6.59-5.83C84,80.3,80.55,70.54,85.47,68.94c7.27-2.35,3.76,11,3.25,13.46a.39.39,0,0,1-.33-.13c0,.23.08.47.14.72,4.26-3.63,8.59-7.19,12.78-10.91a19,19,0,0,1-1.45-1.89A21,21,0,0,1,97,66.13c-1.17-2.34-2.3-6.07.81-7.45,3.38-1.5,5,2.72,5,5.24a32.6,32.6,0,0,1-.71,5.1c-.08.53.22,2.93-.51,1.89a5.27,5.27,0,0,1,0,.86c.75-.68,1.5-1.35,2.24-2a.82.82,0,0,1-.07-.29.88.88,0,0,1,1.26-.82c1-.92,1.94-1.85,2.9-2.8,2-2,4.05-4.08,6.08-6.19-.44-.38-.26-.9-.67-1.3s-1.22-.61-1.71-1a11.71,11.71,0,0,1-3-3.61c-1.2-2.19-2.75-6.8.77-7.85S115,49.24,115.2,52a69.74,69.74,0,0,1-.68,7.14c3.76-3.93,7.45-8,10.8-12.16-1,0-3.89-2.06-4.47-2.63-1.42-1.36-3.67-4.39-1.18-6,2.21-1.42,4.93.63,5.88,2.63a28.13,28.13,0,0,1,.74,4.77c1.39-1.76,2.71-3.53,3.94-5.3.82-1.18,1.59-2.39,2.3-3.63a1.68,1.68,0,0,1-.48-.48c-3.69-.61-8.39-6.31-4.06-8.3,2.07-.94,4.3,1,5.31,2.6a20.18,20.18,0,0,1,.81,3.26A67.78,67.78,0,0,0,139,21.05a.8.8,0,0,1-.63-.74,10.84,10.84,0,0,1-4.45-3.8c-.78-1.21-2.18-4,.1-4.63,3-.88,4.84,3.61,5.08,5.82,0,.26,0,1,0,1.69a1.09,1.09,0,0,1,.31,0c.68-2.76,1.22-5.54,1.66-8.34-1.62-.51-1.9-8.94-.82-10.14,2.42-2.69,4.12,1.19,4,3.24a13.59,13.59,0,0,1-2.59,6.58c-.14.2-.1.19-.13-.1a.59.59,0,0,1-.14.33,36.64,36.64,0,0,1,.13,3.7,82.33,82.33,0,0,1-1.12,9.66c-.13.78-.28,1.54-.46,2.31a19.36,19.36,0,0,1,3.75-2.39C145.44,23.46,148.19,22.6,150,24ZM60.11,135.7a5.86,5.86,0,0,0,.85,2.76A15.22,15.22,0,0,1,60.11,135.7Z"/><g id="Plant-Left" class="cls-3"><path id="Leaf" class="cls-4" d="M124.72,113.6c2.94-4.19,8.4-14.84,12.54-16.34,2.66-1,1.89,9,1.92,10.92a158.67,158.67,0,0,1-1.48,22c-1.59,13.17-6.81,24.9-14,36.1-3.68,5.77-8,11.61-14,15.21-2.75,1.66-6.06,1.93-8.78,3.36-3.17,1.66-1.45.32-2.87,3.62-2,4.58-2.62,10.49-3.53,15.38-4.21,22.43-14.41,141-12.64,163.87.16,2-2.66,2.5-2.8,0-.75-13.09,5.72-103.77,9-133.42S94.71,178.46,98,168.2c4-12.44,11.29-27.41,17.34-39A137.35,137.35,0,0,1,124.72,113.6Z"/><path id="Leaf-2" data-name="Leaf" class="cls-5" d="M146.55,259c7.65-5.62,15.93,5,9,10.61-3.83,3.1-7.83,2-10.08-.59-1.47,1.78-2.84,3.64-4.15,5.22-4,4.8-7.8,9.71-11.42,14.74-7.52,10.44-14,21.47-20.7,32.3S96,342.76,89.94,353.72C84.83,363,78,373.93,76.28,384.11,78.93,362.52,89,341.77,101,322.73c11.89-18.88,25.53-39.49,43.94-54.39A6.51,6.51,0,0,1,146.55,259Z"/><path id="Leaf-3" data-name="Leaf" class="cls-4" d="M1.34,206.38c4.28.84,11.28,10.53,14.81,14.22a139.51,139.51,0,0,1,11.59,14A235.84,235.84,0,0,1,48.24,268a310.83,310.83,0,0,1,22.81,59.37A243.8,243.8,0,0,1,78,366.31c.25,2.47,2.84,21.48-.89,22-3.35.46-2.31-14.43-2.48-16.46-1.82-22.86-7.3-45.1-14.91-66.65-1.66-4.69-3.2-10.44-5.85-14.66-1.91-3,0-2-3.37-3.14-2.88-1-6.16-.74-9.11-2-6.42-2.62-11.55-7.73-16-12.86C16.57,262.59,9.64,251.8,6,239a160.34,160.34,0,0,1-4.87-21.53C.9,215.6-1.42,205.84,1.34,206.38Z"/><path id="Leaf-4" data-name="Leaf" class="cls-6" d="M18.24,45.21A387.94,387.94,0,0,1,56.18,135c5.19,18.85,8.81,38.2,12.42,57.41C74.18,222.2,79.45,251.94,81,282.22c1.52,30.45,4.5,65.57-5.47,94.89,5-29.77.24-61.47-.6-91.43-.4-14.3-1.56-28.46-3.09-42.68-1.48-13.79-3.9-27.52-6.15-41.2-1.09-6.67-2.25-13.32-3.42-20-.35-2-.5-7.87-1.76-9.22s-7.73-1.92-9.76-2.93a52.46,52.46,0,0,1-11.33-7.9c-6.52-5.8-12.19-13.39-16.67-20.86C12.34,123.62,8.2,102.52,8.41,82.49c0-3.88,6.29-45.75,3.78-46.33.15-.18.29-.36.43-.55C14.52,38.79,16.38,42,18.24,45.21Z"/><path id="Leaf-5" data-name="Leaf" class="cls-6" d="M192.34,146.1c.25-.36,1.87-2.85,1-2.7,1.66-.32-2.28,2.76,1.85.87-2,1.85-.83,4.27-.8,6.76a61.08,61.08,0,0,1-1.4,12.05,82.66,82.66,0,0,1-5.61,18.2c-5.69,12.71-15.35,24.95-26.81,32.9-5.66,3.92-11.21,5.26-17.67,7.07-4.07,1.14-4.4,3.25-6.56,7.2-4.51,8.24-8.93,16.46-12.91,25-4.74,10.18-9.35,20.36-13.69,30.71C95.15,319,83.24,355.12,77,392.51c-.15-22,4.94-44.72,11.37-65.72,4.69-15.3,10.78-30.05,17.28-44.65,1.58-3.53,4-8.08,4.64-12,.47-2.73-1-5.36-1.62-8.25a86.18,86.18,0,0,1-.13-35.08c2.47-12.44,9.63-18.21,21.74-20,4.43-.65,10.06-.41,14.12-2.3,4.43-2.06,6.25-8.82,8.77-13.16a179.15,179.15,0,0,1,24-32.65,78.33,78.33,0,0,1,8.21-7.56C187.21,149.72,191.09,147.91,192.34,146.1Z"/><path id="Base" class="cls-5" d="M56.54,368.72h43a3.5,3.5,0,0,1,3.5,3.49,4.38,4.38,0,0,1,0,.52l-3.32,22.52A14,14,0,0,1,85.81,407.2H70.24A14,14,0,0,1,56.4,395.25l-3.32-22.52a3.5,3.5,0,0,1,3-4Z"/></g><g id="Maceta"><path id="Base-2" data-name="Base" class="cls-7" d="M17.79,380.23c0,14.9,1.17,27,17,27s17-12.07,17-27"/><path id="Fill-27" class="cls-7" d="M39.44,370.94A30.16,30.16,0,0,0,37.89,374a41.63,41.63,0,0,1,.42-6.46c.55-3.72,1.39-7.43,2.18-11.14.57-2.66.53-7.44,2.69-9.56.59-.46.73.44.73.83,0,.08,0-1.6-.57-1.3-3.41,1.76-4.52,7.29-5.61,10.06a53.1,53.1,0,0,0-3.5,12.39A28.71,28.71,0,0,0,34,372c-.11-.28-.22-.57-.34-.85a57.55,57.55,0,0,0-7.94-13.27c-.81-1-11.06-11.1-11.86-9.56a1.07,1.07,0,0,0,.5.56s0,0,0,0c.6,1,2.31,2.47,2.85,3.33a63.47,63.47,0,0,1,3.44,6.65c2.24,4.71,4.32,9.48,6.33,14.25.47,1.11,1,2.22,1.45,3.32-5.13-7.41-12-14.14-21.42-18,3.22,1.64,5.33,4.72,7.51,7.09,2.62,2.84,5.39,5.62,8,8.46,3.1,3.36,6.75,6.89,9.73,10.61,2.89,6.06,5.7,12.14,7.43,18.52-.71-2.21,0-5.25-.17-7.57a50.46,50.46,0,0,0-.61-5.48,10.74,10.74,0,0,1,.82,2.41c-.13-1.29-.28-2.56-.44-3.83.41-1.19.82-2.3,1.09-3.21a83.73,83.73,0,0,1,5.35-13.77,123.9,123.9,0,0,1,7.15-12.22c1.23-1.85,2.47-3.69,3.71-5.54.81-1.21,1.58-3.15,2.71-4.31C52,356.24,44.06,363,39.44,370.94"/></g><path class="cls-8" d="M38.69,143.17c.46-.24,24.74,24.46,25.73,30.59,0,0-8.68-26.91-16.1-34.59S38.69,143.17,38.69,143.17Z"/><path class="cls-8" d="M73.32,146c.51,0,11.17,32.95,9.31,38.87,0,0,4.29-27.94,1.09-38.13S73.32,146,73.32,146Z"/><path class="cls-8" d="M18.79,176c.24-.46,34.25,6.38,38.52,10.89,0,0-22.32-17.41-32.78-19.6S18.79,176,18.79,176Z"/><g id="Bottom_Standing_Jogging" data-name="Bottom/Standing/Jogging"><polygon class="cls-9" points="350.92 405.91 341.18 405.91 338.95 401.72 333.19 390.87 295.92 320.6 263.62 266.59 261.41 262.9 258.56 258.14 237.05 222.18 235.56 219.68 275.09 219.68 276.02 221.94 343.53 387.74 348.54 400.06 350.92 405.91"/><g id="Accessories_Shoe_Flat-Sneaker" data-name="Accessories/Shoe/Flat-Sneaker"><path id="shoe" class="cls-10" d="M335.22,402a17.43,17.43,0,0,0-1.37,5.44,40.65,40.65,0,0,0,.74,6.41h45.82q1.79-5.9-2.07-6.37c-2.56-.31-4.69-.6-6.39-.85l-21.3-9.5a.81.81,0,0,0-1.07.42v0l-1.37,3.32a14.53,14.53,0,0,1-5.79,1.66,13.16,13.16,0,0,1-5-1.46h0a1.62,1.62,0,0,0-2.16.8S335.23,401.94,335.22,402Z"/></g><path class="cls-11" d="M344,387.59l-15.4,4.66A640.68,640.68,0,0,1,274,314.5a829.82,829.82,0,0,1-47.29-92l48.83-1.41c13.72,27.49,26.79,57.44,38.74,87Q331.83,351.37,344,387.59Z"/><path class="cls-12" d="M292.2,247.88q1.17,2.51,2.33,5"/><path class="cls-12" d="M290.27,243.74q-5.72-12.17-11.66-24.06H225.52l1.23,2.8c1.05,2.37,2.11,4.73,3.16,7.08q10.76,23.81,22.09,45.55,2,3.81,4,7.56c.68,1.28,1.37,2.56,2.07,3.83q7.85,14.47,16,28a640.68,640.68,0,0,0,54.57,77.75l4.58-1.38,10.34-3.13.48-.15,3.39-1q-12.34-36.93-30.28-81.29-9.57-23.7-19.91-46.5"/><path class="cls-13" d="M271.3,219.68l0,.1c-.12.47-.26.95-.39,1.42-3,11-7.51,24.08-12.32,36.94-2.14,5.76-4.36,11.49-6.56,17-8,20.14-15.69,37-18.17,40.69q-4.11,6.1-71.35,16.51l-2.48.38q-7.44,1.14-15.63,2.33l-3.06.45-2.11-8.6,3.58-1.15,11.9-3.83c.75-.25,1.5-.48,2.23-.73q56-18.09,57-19.31c.94-1.28,10.1-38.83,16-72.29.43-2.43.85-4.84,1.24-7.21.15-.9.3-1.79.44-2.67Z"/><path class="cls-14" d="M271.29,219.68l0,.1c-.1.48-.19.95-.3,1.42q-4.92,23.48-9.56,41.7-2.76,10.8-5.41,19.77-9.75,32.9-18.16,40.89-8.16,7.76-31.77,9.5-17.53,1.28-43.59-.75l-2.64-.22-2.48-.21-2.68-10c.75-.25,1.5-.48,2.23-.73l-.46-1.73q52.47-18.81,53.89-21.94t13.42-77.81Z"/><g id="Accessories_Shoe_Flat-Sneaker-2" data-name="Accessories/Shoe/Flat-Sneaker"><path id="shoe-2" data-name="shoe" class="cls-10" d="M141.6,323.29a17.25,17.25,0,0,0-5.6-.4,40.29,40.29,0,0,0-6.19,1.83l8,45.13c4.08.49,6.06-.56,5.92-3.14s-.23-4.73-.27-6.44l5.65-22.63a.81.81,0,0,0-.59-1h0l-3.51-.77a14.34,14.34,0,0,1-2.64-5.41,13.13,13.13,0,0,1,.57-5.18h0a1.63,1.63,0,0,0-1.16-2Z"/></g><path class="cls-12" d="M274.39,219.68c-.1.48-.21,1-.3,1.43q-5.41,25.9-10.47,45.48-2.83,10.94-5.55,19.91-9.33,30.75-17.43,38.45-14.8,14.1-80.48,8.33l-.16-.59-.16-.6-2.93-10.93-.46-1.73q52.47-18.81,53.89-21.94t13.42-77.81Z"/></g><g id="Head_Front_Short-Beard" data-name="Head/Front/Short-Beard"><g id="Head"><path class="cls-13" d="M245.06,109.41c-3.75-5-6.13-11-5.27-17.48,2.48-18.71,28.38-13,32.88-3.16s2.41,33.81-4.27,35.1c-2.66.51-8.14-1.49-13.62-5.27l2,25.47-21.07-1.3Z"/></g><path id="Hair" class="cls-1" d="M257.29,95.09q.16,16.93,5.36,17.25c5.19.32,9.8-2.7,12.08-2.56,1.66.1,1.16,2.15,0,3.63-1,1.21-5.48,2.16-5.6,4.13s3.46.67,3.39,1.84c-.12,1.93.27,5.6-3.08,5.39s-13.06-2-14.41-7.19q-1.32-5-.84-20.34a4.52,4.52,0,0,0-.63-.08,5.28,5.28,0,0,0-4.24,8.81c-1.32,1.64-2.8,3.36-4.48,5.11-5.66-3.89-10.23-15.19-3.87-24.76,1.89-4.76,6.49-6.43,10.81-7.37a15.3,15.3,0,0,1,10.08-.12c5.88.87,11.05,3,12.48,4.16-.35,5.6-1.54,7.2-10.79,6.48C261.16,90.53,259.28,92.49,257.29,95.09Z"/></g><g id="Body_Hoodie" data-name="Body/Hoodie"><path id="Skin" class="cls-13" d="M300.65,202.62,328.34,223a74.15,74.15,0,0,1,18.82,7.56c1.19,1.08,2.63,3.28-2.31,2.9s-10.14-.56-10.82,1.13,2.31,3.69.93,6q-1.38,2.27-13-11.4l-27.42-11.36Zm-106.3.7,18.14.07q-16.8,54.23-18.14,57.55c-2,5,2.24,12.56,4.06,16.63-5.92,2.65-5.29-7.16-12.75-3.69-6.82,3.17-12,8.92-19.88,4.06-1-.6-2-2.85.53-4.6,6.39-4.38,15.59-12,16.84-14.57Q185.69,253.61,194.35,203.32Z"/><path class="cls-15" d="M326.55,221l-7.94,9.84c-58-7.17-73.25-61.32-72.76-101.08l6.16-1.05C279.82,152.75,293,203.46,326.55,221Z"/><path class="cls-12" d="M326.82,220.67l-.27.34-7.94,9.84c-58-7.17-73.25-61.32-72.76-101.08,0-.86,0-1.72.05-2.56l7.51-1.29c6.85,5.92,12.71,13.18,18.15,21.12,2,2.91,3.93,5.91,5.84,9C291.5,178.58,304.16,204.41,326.82,220.67Z"/><path id="Shirt" class="cls-16" d="M213.18,221.53h66.41c3,0,2.46-4.38,2-6.6-5.06-25.51-24.82-53-24.82-89.35l-19.16-3C221.79,148.06,216.31,179.44,213.18,221.53Z"/><path class="cls-17" d="M255.92,239.75c-.16.48-.34.95-.52,1.4H203.13A179.82,179.82,0,0,1,195,258H182.8q-2-65,30.91-110.35a10.91,10.91,0,0,1-6.6-5.6c-5.8-10.47-5.07-17-.38-20.28l.59-.19c7.48-2.29,14.15,2.42,26.07,2.42a12.16,12.16,0,0,1,1.78.12l6,.34Q266.39,209.86,255.92,239.75Z"/><path class="cls-12" d="M203.31,132.46c-1-5.09.37-8.6,3.42-10.71a12.19,12.19,0,0,1,3.39-1.59"/><path class="cls-12" d="M187.71,205a157.89,157.89,0,0,1,26-57.34"/><path class="cls-12" d="M183,239.2c0-.69.07-1.37.12-2.06"/><path class="cls-12" d="M238,122.7l6,.34q25.8,87.48,14.23,116.71H205.93c-.2.47-.4.94-.61,1.4A172.62,172.62,0,0,1,197.05,258H182.8q-.26-8.61.08-16.87"/><path id="Shade" class="cls-18" d="M217.32,209.81q2.46,20.63,8,29.94h-19.4Q211.36,227.12,217.32,209.81Z"/></g><g id="humaaans_sitting-4" data-name="humaaans/sitting-4"><g id="A-Human_Sitting" data-name="A-Human/Sitting"><g id="Head_Front_Curly" data-name="Head/Front/Curly"><g id="Head-2" data-name="Head"><path class="cls-13" d="M126.12,237.14h16.79L140.07,217c4.53,2.73,9,4,11.07,3.51,5.24-1.35,5.73-20.52,1.67-28.08s-24.9-10.85-25.95,4.12c-.37,5.2,1.82,9.84,5,13.63Z"/></g><path id="hair-2" data-name="hair" class="cls-1" d="M159.29,186.45a7.73,7.73,0,0,1-1.62,1.76,3.63,3.63,0,0,1,1.17,1,2.19,2.19,0,0,1,.28,1.37,5.9,5.9,0,0,1-.51,1.74,4.41,4.41,0,0,1-1,1.35,1.41,1.41,0,0,1,.91.73,2,2,0,0,1,.19.59c.06.25.16.48.21.74a1.86,1.86,0,0,1-.16,1.25,3.3,3.3,0,0,1-1.42,1.23,4.39,4.39,0,0,1-2.6-.2,8,8,0,0,1-1-2.28,13.94,13.94,0,0,0-1.54-2.74,8.43,8.43,0,0,0-2.31-2.3c-.19-.12-.51-.45-.72-.32s-.23.32-.32.45a4.28,4.28,0,0,1-.4.45,6.49,6.49,0,0,1-2.33,1.28,12.21,12.21,0,0,0-2.52,1,3.64,3.64,0,0,0-1.46,1.88c-.29.77-.44,1.59-.66,2.38a14.47,14.47,0,0,1-1.21,3,4.28,4.28,0,0,1-.88,1.18c-.22.18-.71.55-1,.34-.14-.1-.12-.28-.16-.43s-1.36-2.77-2.51-3a10.08,10.08,0,0,0-4.75.25c-2,1.08-2.22,3.42-1.62,5.38a6.1,6.1,0,0,0,1.32,2.47,2.87,2.87,0,0,0,1.05.74,3.31,3.31,0,0,0,1.36.17,2.74,2.74,0,0,0-.08.7,7.18,7.18,0,0,1,.06.8,4.18,4.18,0,0,1-.32,1.48,3.86,3.86,0,0,0-.29.75c0,.2,0,.4,0,.6a3.27,3.27,0,0,1-.34,1.1,2.53,2.53,0,0,1-4,.53,6,6,0,0,1-3.79,3.14c-1.35.35-3.24.39-4.16-.85a5.84,5.84,0,0,1-1.2.83,5.39,5.39,0,0,1-5.38-.16,4.35,4.35,0,0,1-1.72-2.32,7.28,7.28,0,0,1-.09-3.15c0-.12.09-.33,0-.44s-.18-.12-.28-.17a3.36,3.36,0,0,1-.57-.35,2.92,2.92,0,0,1-.86-1,4.87,4.87,0,0,1-.35-3.06,10.56,10.56,0,0,1,.38-1.57c.08-.26.17-.51.27-.76a6.66,6.66,0,0,0,.31-.73c0-.18,0-.08-.06-.2a1.66,1.66,0,0,0-.14-.13l-.23-.24a3.1,3.1,0,0,1-.36-.53,3.87,3.87,0,0,1-.42-1.18,7.27,7.27,0,0,1,.09-2.67,6.36,6.36,0,0,1,.49-1.55c.07-.16.18-.31.24-.46s0-.14,0-.27a4.86,4.86,0,0,1-.35-.68,6.79,6.79,0,0,1-.1-4.64,5.69,5.69,0,0,1,2.79-3.33,4.93,4.93,0,0,1,1.09-.4c.21-.05.41-.08.62-.11a.72.72,0,0,0,.26,0,1.16,1.16,0,0,0,.05-.28,4.76,4.76,0,0,1,1.06-2.27,4.94,4.94,0,0,1,2.07-1.38c.16-.06.21-.06.3-.19a1.75,1.75,0,0,0,.15-.34c.11-.22.22-.44.35-.65a6.87,6.87,0,0,1,.92-1.24,6.23,6.23,0,0,1,2.48-1.76,2.74,2.74,0,0,1,1.58-.06,5.87,5.87,0,0,1,1.12.49c0-.11.19-.19.27-.28s.23-.32.35-.48a3.63,3.63,0,0,1,1-.89,7.19,7.19,0,0,1,2.64-1,5.51,5.51,0,0,1,2.7.25,3.09,3.09,0,0,0,.65.29c.15,0,.49-.25.64-.31a4.53,4.53,0,0,1,1.35-.38,3.43,3.43,0,0,1,2.23.5c.18.1.16.05.28-.1s.15-.17.23-.26l.41-.41c.27-.25.55-.48.84-.7a7.65,7.65,0,0,1,4.68-1.12,6.66,6.66,0,0,1,4.15,1.26c.09.08.33.37.45.39s.46-.24.56-.3a8.87,8.87,0,0,1,1.1-.47,5.39,5.39,0,0,1,2.25-.3,6.22,6.22,0,0,1,3.76,1.77,5.29,5.29,0,0,1,1.24,1.85,4.19,4.19,0,0,1,.19.63,1.17,1.17,0,0,0,0,.27c.06.08.09,0,.2,0a3.7,3.7,0,0,1,.94.09,3.64,3.64,0,0,1,2.54,2.58A5.5,5.5,0,0,1,159.29,186.45Z"/></g><g id="Bottom_Sitting_Sweat-Pants" data-name="Bottom/Sitting/Sweat-Pants"><g id="Objects_Seat_Cube-2" data-name="Objects/Seat/Cube-2"><path id="Seat" class="cls-1" d="M68,335.82V400.2a11.19,11.19,0,0,0,11.19,11.19h80.48a11.2,11.2,0,0,0,11.2-11.19V335.82a11.2,11.2,0,0,0-11.2-11.2H79.23A11.19,11.19,0,0,0,68,335.82Zm80.47,8.39a2.8,2.8,0,0,1,2.8,2.8v42a2.8,2.8,0,0,1-2.8,2.8H90.43a2.8,2.8,0,0,1-2.8-2.8V347a2.8,2.8,0,0,1,2.8-2.8Z"/></g><path id="Skin-2" data-name="Skin" class="cls-13" d="M229.47,406.57c-7.46-45.66-13.66-75.9-17.21-85.1-2.35-6.08-20.11-5.37-18.07,6.87.86,5.13,4.25,18.86,8.7,34.47,2.61,9.12,9.09,26.4,18.06,46.25ZM119.52,355.15c3.14-.44,39.92-4.29,65.86-8,10.41-1.49,4.81-21-6-18.94-3.64.69-7.51,1.46-11.51,2.29-13.89,2.88-42.7,13.06-50.93,16.31C111.77,348.82,115.11,355.75,119.52,355.15Z"/><path class="cls-19" d="M227.13,390l-15.26,2.28c-6.26-23.19-26.27-39.35-25.73-67.12a8.8,8.8,0,0,1-.13-2.32l-44.49-22.65V298h3.89q64.58,16.46,66,21.09a.44.44,0,0,0,0,.1l.07.08C219.21,329.92,224.18,377.85,227.13,390Z"/><path class="cls-12" d="M224.92,368.11c.38,2.71.73,5.29,1.06,7.66"/><path class="cls-12" d="M227,382.9a53.14,53.14,0,0,0,1.24,6.91l-1.08.16-15.26,2.28c-6.26-23.19-26.27-39.35-25.73-67.12a8.8,8.8,0,0,1-.13-2.32l-44.49-22.65v-4.93h5.29q64.58,16.45,66,21.09l0,.1.07.08c5,7,8.91,29.93,11.56,48.37"/><path class="cls-20" d="M203.16,345.77a.7.7,0,0,1,0,.14c-32.73,12.7-58.47,5.74-67.21,8l-4-12.68,10.52-3.61-.81-.16,3.61-1.24c-4.07-.81-7.82-1.54-11-2.1-20.31-3.56-26.53-14.3-23.39-37.53h35.58c6.24,1.79,38.65,15.39,55.47,22.61C213,324,209.47,341.28,203.16,345.77Z"/><path class="cls-12" d="M134.2,348.52l-2.31-7.25-.12-.39,9.83-3.38,3.61-1.24c-4.07-.81-7.82-1.54-11-2.1-20.31-3.56-26.53-14.3-23.39-37.53.07-.46.13-.93.2-1.4h38.18c6.24,1.79,38.65,15.39,55.47,22.61,4.92,2.12,7.19,7.11,7.22,12.25a21.65,21.65,0,0,1-1.35,7.76,16.23,16.23,0,0,1-3.57,5.74,8.47,8.47,0,0,1-.92.81,18.62,18.62,0,0,1-5.4,2.41"/><path class="cls-12" d="M194.21,348.91A114.52,114.52,0,0,1,181.07,352l-.67.11a131.85,131.85,0,0,1-21.09,1.7c-5.24,0-10.47-.27-15.7-.38a28.31,28.31,0,0,0-7.69.49l-.64-2"/><g id="Accessories_Shoe_Flat-Sneaker-3" data-name="Accessories/Shoe/Flat-Sneaker"><path id="shoe-3" data-name="shoe" class="cls-10" d="M119.86,344.69a1.4,1.4,0,0,1,1.43,1.37h0a11.44,11.44,0,0,0,.75,4.42,12.79,12.79,0,0,0,3.48,3.86l3.09-.2h0a.7.7,0,0,1,.72.68l.69,20.07q.66,2.12,1.76,5.27c.72,2.1-.66,3.44-4.16,4l-17.3-35.47a34.93,34.93,0,0,1,4.68-3,15.16,15.16,0,0,1,4.74-1Z"/></g><g id="Accessories_Shoe_Flat-Sneaker-4" data-name="Accessories/Shoe/Flat-Sneaker"><path id="shoe-4" data-name="shoe" class="cls-10" d="M216.91,405.29a1.38,1.38,0,0,1,1.85-.69h0a11.3,11.3,0,0,0,4.31,1.26,12.47,12.47,0,0,0,5-1.44l1.18-2.86v0a.7.7,0,0,1,.93-.35l18.34,8.18q2.19.33,5.51.73t1.77,5.49H216.32a35.12,35.12,0,0,1-.63-5.52,14.85,14.85,0,0,1,1.18-4.69A.36.36,0,0,1,216.91,405.29Z"/></g></g><g id="Body_Jacket" data-name="Body/Jacket"><path id="Skin-3" data-name="Skin" class="cls-13" d="M175.55,295.51l20.61,12.15q7.76,12.22,9.11,10.56c1.36-1.66-.8-3.6-.07-4.87s4.87-.54,8.77.31,3-1.05,2.17-2.05A59.93,59.93,0,0,0,202,303.46l-21.55-19.41Zm-90.44,36c-1,2-8.42,8.22-13.57,11.75-2.07,1.41-1.21,3.23-.43,3.71,6.35,3.92,10.53-.72,16-3.27,6-2.8,5.51,5.11,10.29,3-1.47-3.28-4.9-9.4-3.28-13.41q1.08-2.67,14.63-46.4l-14.63-.06Q87.17,327.4,85.11,331.55Z"/><path class="cls-21" d="M194.92,296.79l-18.34,22.28C151,289.2,135.14,258.4,135.67,226.65l4.68-.81Q156,264.89,194.92,296.79Z"/><path class="cls-12" d="M196.32,295.39,176.7,319.22l-.12-.15C151,289.2,135.14,258.4,135.67,226.65l0-1.17,6.05-1Q157.38,263.49,196.32,295.39Z"/><path id="Shirt-2" data-name="Shirt" class="cls-16" d="M128.23,221.75l16.25,2.42q0,31.83,18.73,77.36H109.32C111.85,267.59,115.45,242.29,128.23,221.75Z"/><path class="cls-22" d="M143.86,316H108.53c.1,2.86.25,5.75.47,8.67H84.83a233.67,233.67,0,0,1,3.91-26.86A184.21,184.21,0,0,1,95,275.07a150.62,150.62,0,0,1,9.69-22.24,128.18,128.18,0,0,1,23.2-31.05l4.82.21,3.92,11.22Q137.21,253.73,143.86,316Z"/><path class="cls-12" d="M110.63,316c.1,2.86.25,5.75.47,8.67H84.83a233.67,233.67,0,0,1,3.91-26.86A184.21,184.21,0,0,1,95,275.07a150.62,150.62,0,0,1,9.69-22.24,128.18,128.18,0,0,1,23.2-31.05l0,0H129c1.27,0,3.2.12,5.81.24l3.92,11.22c.06,2.23.19,4.84.37,7.82q.24,4.13.62,9.19,1.72,23,6.29,65.73H137.6"/><path id="Shade-2" data-name="Shade" class="cls-18" d="M110.65,316.22h9.87q-6-10.14-7.55-36.92A184.16,184.16,0,0,0,110.65,316.22Z"/><polygon id="Light" class="cls-23" points="135.92 294.53 135.92 286.43 118.5 294.53 135.92 294.53"/></g></g></g><path class="cls-24" d="M1112,22.67V218.1a12.12,12.12,0,0,1-12.13,12.12h-94.6V69.63a12.12,12.12,0,0,0-12.12-12.12H817.77V22.67A12.13,12.13,0,0,1,829.9,10.53h270A12.14,12.14,0,0,1,1112,22.67Z"/><path class="cls-25" d="M1041,324.29c24-71.8-9-186.39-9-186.39s-74.55,94.83-108,171.76S1041,324.29,1041,324.29Z"/><path class="cls-25" d="M1133.5,266.41c-.17.36-5.82,11.79-15.61,28.33h0c-13.83,9.11-36,22.62-45.3,24.85,5.55-.77,19.91-2.92,33.77-6.2-7,10.81-15.11,22.57-24.16,34.24-13.54,1.12-27.69,1.68-34.13.2,4.64,1.57,15.6,5.14,27.45,8.2-17.68,21.57-38.38,42-60.58,54.45,0,0-153.22-54.9-76.8-89.42,25.89-11.7,56.65-21.74,86-29.9-6.36,14.79-15.15,33.3-20.77,39.5,7-6.37,32.31-29.81,40.23-44.71,7.29-1.88,14.39-3.63,21.21-5.24-4.52,9.31-9.13,17.69-12.56,21.47,4.2-3.81,14.94-13.73,24.58-24.27C1109.59,270.47,1133.13,266.47,1133.5,266.41Z"/><path class="cls-26" d="M789,150.2V250.45a12.12,12.12,0,0,0,12.12,12.12h270a12.12,12.12,0,0,0,12.12-12.12V55A12.12,12.12,0,0,0,1071.1,42.9h-270A12.12,12.12,0,0,0,789,55v66.19m216.36,109.55a12.13,12.13,0,0,1-12.12,12.13H812.45a12.13,12.13,0,0,1-12.12-12.13V69.63a12.12,12.12,0,0,1,12.12-12.12H993.19a12.12,12.12,0,0,1,12.12,12.12Z"/><circle class="cls-27" cx="835.53" cy="22.78" r="3.76"/><path class="cls-28" d="M835.53,27.59a4.81,4.81,0,1,1,4.8-4.81A4.82,4.82,0,0,1,835.53,27.59Zm0-7.51a2.71,2.71,0,1,0,2.7,2.7A2.71,2.71,0,0,0,835.53,20.08Z"/><circle class="cls-27" cx="852.29" cy="22.78" r="3.76"/><path class="cls-28" d="M852.29,27.59a4.81,4.81,0,1,1,4.81-4.81A4.81,4.81,0,0,1,852.29,27.59Zm0-7.51a2.71,2.71,0,1,0,2.71,2.7A2.7,2.7,0,0,0,852.29,20.08Z"/><circle class="cls-27" cx="869.05" cy="22.78" r="3.76"/><path class="cls-28" d="M869.05,27.59a4.81,4.81,0,1,1,4.81-4.81A4.81,4.81,0,0,1,869.05,27.59Zm0-7.51a2.71,2.71,0,1,0,2.71,2.7A2.7,2.7,0,0,0,869.05,20.08Z"/><rect class="cls-27" x="1014.52" y="57.51" width="56.71" height="183.24" rx="15.38"/><path class="cls-28" d="M1055.84,241.8H1029.9a16.45,16.45,0,0,1-16.43-16.43V72.89a16.45,16.45,0,0,1,16.43-16.43h25.94a16.45,16.45,0,0,1,16.43,16.43V225.37A16.45,16.45,0,0,1,1055.84,241.8ZM1029.9,58.56a14.34,14.34,0,0,0-14.33,14.33V225.37a14.34,14.34,0,0,0,14.33,14.33h25.94a14.35,14.35,0,0,0,14.33-14.33V72.89a14.35,14.35,0,0,0-14.33-14.33Z"/><rect class="cls-24" x="1022.6" y="77.47" width="16.42" height="18.75" rx="3.7"/><path class="cls-25" d="M1035.31,97.27h-9a4.75,4.75,0,0,1-4.75-4.75V81.18a4.76,4.76,0,0,1,4.75-4.76h9a4.76,4.76,0,0,1,4.75,4.76V92.52A4.75,4.75,0,0,1,1035.31,97.27Zm-9-18.75a2.66,2.66,0,0,0-2.65,2.66V92.52a2.65,2.65,0,0,0,2.65,2.65h9a2.65,2.65,0,0,0,2.65-2.65V81.18a2.66,2.66,0,0,0-2.65-2.66Z"/><line class="cls-27" x1="1046.56" y1="86.85" x2="1061.56" y2="86.85"/><path class="cls-28" d="M1061.56,87.9h-15a1.05,1.05,0,1,1,0-2.1h15a1.05,1.05,0,0,1,0,2.1Z"/><line class="cls-27" x1="817.77" y1="34.61" x2="1112.04" y2="34.61"/><path class="cls-28" d="M1112,35.66H817.77a1,1,0,1,1,0-2.1H1112a1.05,1.05,0,0,1,0,2.1Z"/><rect class="cls-27" x="1022.6" y="103.41" width="16.42" height="18.75" rx="3.7"/><path class="cls-28" d="M1035.31,123.21h-9a4.75,4.75,0,0,1-4.75-4.75V107.12a4.76,4.76,0,0,1,4.75-4.76h9a4.76,4.76,0,0,1,4.75,4.76v11.34A4.75,4.75,0,0,1,1035.31,123.21Zm-9-18.75a2.66,2.66,0,0,0-2.65,2.66v11.34a2.65,2.65,0,0,0,2.65,2.65h9a2.65,2.65,0,0,0,2.65-2.65V107.12a2.66,2.66,0,0,0-2.65-2.66Z"/><rect class="cls-27" x="1022.6" y="205.79" width="40.53" height="18.75" rx="3.7"/><path class="cls-28" d="M1059.42,225.58H1026.3a4.75,4.75,0,0,1-4.75-4.75V209.49a4.76,4.76,0,0,1,4.75-4.76h33.12a4.77,4.77,0,0,1,4.76,4.76v11.34A4.76,4.76,0,0,1,1059.42,225.58Zm-33.12-18.75a2.66,2.66,0,0,0-2.65,2.66v11.34a2.65,2.65,0,0,0,2.65,2.65h33.12a2.66,2.66,0,0,0,2.66-2.65V209.49a2.66,2.66,0,0,0-2.66-2.66Z"/><line class="cls-27" x1="1046.56" y1="112.79" x2="1061.56" y2="112.79"/><path class="cls-28" d="M1061.56,113.84h-15a1,1,0,1,1,0-2.1h15a1,1,0,0,1,0,2.1Z"/><path class="cls-8" d="M903.88,190.78c.89-.06,21.4,55.64,18.65,65.9,0,0,5.36-48.12-.82-65.34S903.88,190.78,903.88,190.78Z"/><path class="cls-29" d="M1016.51,300.91a9.62,9.62,0,0,1-2.36.31S1015,301.12,1016.51,300.91Z"/><path class="cls-29" d="M992,329.14a9.64,9.64,0,0,1-2.33-.8Z"/><path class="cls-29" d="M996.2,283.48a9.38,9.38,0,0,1-1.8,1.62C994.53,285,995.17,284.42,996.2,283.48Z"/><path class="cls-29" d="M947.32,312a9.47,9.47,0,0,1-1.8,1.63Z"/><g id="Head_Front_Airy" data-name="Head/Front/Airy"><g id="Head-3" data-name="Head"><path class="cls-13" d="M917.21,154.82c4.22-4.95,7.07-11,6.59-17.8-1.37-19.56-28.61-15.26-33.91-5.38s-4.67,34.92,2.18,36.69c2.73.7,8.55-1,14.47-4.59L902.82,190h21.95Z"/></g><g id="hair-3" data-name="hair"><path class="cls-1" d="M902.4,120.25c2.89-.47,10.68-.8,12.11-.8.92,0,1.92.21,2.46-.63.45-.69.28-1.86.42-2.66s.37-1.84.59-2.76A27.72,27.72,0,0,1,920.9,106a22.75,22.75,0,0,1,10.8-9.78A34.73,34.73,0,0,1,948.1,94c5.88.48,11.21,2.42,16.77,4.25a35.19,35.19,0,0,0,16.38,1.58c5.58-.86,9.8-3.89,14.5-6.76s10.33-4.86,16-4.41a30.78,30.78,0,0,1,14.61,5.54c4.11,2.74,7.51,6,9.42,10.69,2.07,5,2.06,10.48-1.33,14.9-4.91,6.4-14,8.06-21.62,7.9a41.46,41.46,0,0,1-12.85-2.36c-5.53-1.94-10.3-5.24-15.47-7.91a39.89,39.89,0,0,0-7.57-3c-2.55-.72-5.06-1-7.37.49a35.1,35.1,0,0,1-7.43,4.25,24,24,0,0,1-8.38,1.51c-5.56,0-11-1.78-16.44-2.94-4.4-.94-9.12-1.89-13.6-1-1.88.38-4.61,1.17-5.29,3.11,11.39,2.07,15.86,16.15,12.65,26.49-1.73,5.58-12.15,12.1-16.2,9.17-2.56-1.86-1-4.3,0-5.91,1.93-3.09,2.59-7.05-1-9.19-3.08-1.86-6.32,2.54-6.38,2.54-.85-.07-8.16-4.21-13.21-10.25-5,.3-5.72-3-4.54-5.66S898.4,120.91,902.4,120.25Z"/></g></g><g id="Bottom_Sitting_Sweat-Pants-2" data-name="Bottom/Sitting/Sweat-Pants"><g id="Objects_Seat_Ball" data-name="Objects/Seat/Ball"><g id="Ballsy-Ball"><path class="cls-17" d="M1055.34,424.35c0-89.2-75.75-161.51-169.2-161.51s-169.2,72.31-169.2,161.51"/></g></g><g id="Objects_Seat_Ball-2" data-name="Objects/Seat/Ball"><g id="Ballsy-Ball-2" data-name="Ballsy-Ball"><ellipse class="cls-25" cx="933.91" cy="357.8" rx="70.4" ry="67.2"/></g></g><g id="Skin-4" data-name="Skin"><path class="cls-13" d="M800.87,414.63c11.72-25.92,20.19-48.5,23.59-60.41,5.82-20.4,10.25-38.34,11.37-45.05,2.67-16-20.54-16.91-23.6-9-4.65,12-12.75,51.52-22.49,111.19Zm135.88-81.36C926,329,888.37,315.72,870.21,312c-5.21-1.08-10.27-2.08-15-3-14.13-2.7-21.45,22.79-7.84,24.75,33.89,4.88,81.93,9.91,86,10.48C939.15,345,943.51,335.94,936.75,333.27Z"/></g><g id="Leg-Back"><path class="cls-19" d="M848.61,305.45l58.14-29.59v-6.45h-6.91Q815.47,290.92,813.61,297l0,.13-.09.11c-11.14,15.33-17.82,90.17-20,95.78l21.36,3.18c8.17-30.29,34.31-51.4,33.62-87.69A12.08,12.08,0,0,0,848.61,305.45Z"/></g><g id="Leg-Back-2" data-name="Leg-Back"><path class="cls-30" d="M812.74,393.37h-.1l-21.36-3.19a.71.71,0,0,1-.55-.95c.59-1.51,1.61-9,2.91-18.41,3.4-24.84,9.1-66.4,17.19-77.52h0v0c.84-2.77,10.75-8.68,86.72-28a.47.47,0,0,1,.17,0h6.91a.7.7,0,0,1,.7.7v6.44a.71.71,0,0,1-.38.62l-57.73,29.39a13.57,13.57,0,0,1-.18,2.67c.4,22.1-9.14,38.75-18.36,54.85-5.94,10.36-12.08,21.07-15.28,33A.7.7,0,0,1,812.74,393.37Zm-20.46-4.46,20,3c3.29-11.82,9.37-22.43,15.25-32.7,9.14-15.95,18.59-32.45,18.18-54.19a.61.61,0,0,1,0-.14,11.54,11.54,0,0,0,.15-2.85.68.68,0,0,1,.38-.68L904,271.93v-5.31h-6.12c-73,18.6-85,24.93-85.65,27.06l0,.1a.74.74,0,0,1-.11.24l-.65-.31.57.41C804.08,305,798.41,346.3,795,371,793.79,380,792.92,386.38,792.28,388.91Z"/></g><g id="Leg-Front"><path class="cls-20" d="M899.82,317.67c5.32-1.06,10.22-2,14.41-2.75,27.08-4.75,35-19.24,30.3-50.86H894.65c-8.15,2.34-50.5,20.1-72.47,29.54-14.55,6.26-10,28.79-1.73,34.66a.82.82,0,0,0,.46.71c44.3,18.36,79.35,8.73,91.06,11.81l5.41-17.08Z"/></g><g id="Leg-Front-2" data-name="Leg-Front"><path class="cls-30" d="M912,343.34l-.18,0c-3.36-.88-8.9-.68-15.91-.42-17.47.63-43.87,1.59-75.24-11.41a1.45,1.45,0,0,1-.82-1c-5.09-3.83-8.51-13.42-7.64-21.57.72-6.73,4.17-11.75,9.72-14.13,20-8.59,64-27.12,72.55-29.58l.2,0h49.88a.7.7,0,0,1,.7.59c4.78,32.44-3.87,46.92-30.88,51.66-3.16.55-7,1.27-11.85,2.24l15.11,5.18a.71.71,0,0,1,.44.88l-5.42,17.08A.71.71,0,0,1,912,343.34Zm-7.64-2.07a35.72,35.72,0,0,1,7.17.54l5-15.82-16.92-5.8a.7.7,0,0,1,.09-1.35c6.15-1.23,10.73-2.1,14.43-2.75,26.21-4.6,34.33-18,29.82-49.47H894.75c-7.89,2.3-47.73,18.92-72.3,29.48-6.49,2.8-8.41,8.61-8.88,13-.83,7.82,2.44,17,7.29,20.45a.72.72,0,0,1,.29.48.63.63,0,0,0,0,.17c31.07,12.87,57.29,11.92,74.64,11.29C899,341.37,901.82,341.27,904.33,341.27Z"/></g><g id="Accessories_Shoe_Flat-Sneaker-5" data-name="Accessories/Shoe/Flat-Sneaker"><g id="shoe-5" data-name="shoe"><path class="cls-10" d="M933.08,330.55a19.54,19.54,0,0,1,6.18,1.31,45.46,45.46,0,0,1,6.13,3.9l-22.61,46.35q-6.85-1.11-5.43-5.23c.95-2.75,1.71-5,2.29-6.89l.91-26.22a.92.92,0,0,1,.94-.89h0l4,.25a16.29,16.29,0,0,0,4.54-5,14.75,14.75,0,0,0,1-5.77h0a1.83,1.83,0,0,1,1.87-1.79Z"/></g></g><g id="Accessories_Shoe_Flat-Sneaker-6" data-name="Accessories/Shoe/Flat-Sneaker"><g id="shoe-6" data-name="shoe"><path class="cls-10" d="M806.2,409.83a19.45,19.45,0,0,1,1.54,6.13,46,46,0,0,1-.83,7.21H755.35q-2-6.65,2.32-7.17t7.19-1l24-10.68a.92.92,0,0,1,1.21.46v0l1.54,3.74a16.36,16.36,0,0,0,6.51,1.87,14.85,14.85,0,0,0,5.63-1.64h0a1.82,1.82,0,0,1,2.42.9A.61.61,0,0,1,806.2,409.83Z"/></g></g></g><g id="Skin-5" data-name="Skin"><path class="cls-13" d="M848,240.88l-33.13-14.55A78.76,78.76,0,0,0,798,213.14c-1.61-.51-4.37-.67-1.43,3.64s5.85,9,4.68,10.47-4.59-.16-5.94,2.29Q794,232,812.58,235.41l24.81,19Zm133.93,4-18.73,3.71q28.26,52.68,30.31,55.83c3.08,4.75.21,13.43-.85,18,6.65,1.55,4-8.46,12.44-6.37,7.68,1.9,14.2,6.8,21.36.2.88-.82,1.53-3.35-1.47-4.65-7.49-3.25-18.54-9.32-20.33-11.68Q1001,295.13,981.9,244.89Z"/></g><path class="cls-11" d="M884.85,266.18c-14.34,8.67-49.73-6.52-66.35-24.49l4.08-9.12c18.28,6.56,36.58,12.23,47.44,7.21,11.47-5.31,18.5-45.44,35.72-62.15l6.58,1.13C912.56,207.27,906.74,253,884.85,266.18Z"/><path class="cls-30" d="M874.06,269.38c-17.18,0-42.59-12.63-56.07-27.21a.69.69,0,0,1-.12-.76l5.59-12.52a.71.71,0,0,1,.88-.37l4.66,1.66a.69.69,0,0,1,.43.89.7.7,0,0,1-.89.43l-4.06-1.44-5.15,11.49c16.35,17.39,51.32,32.39,65.15,24,20.46-12.36,27.41-54.49,27.14-86.81q0-1.74-.06-3.39l-7-1.2c-8.6,8.5-14.66,23-20,35.84-5.27,12.61-9.82,23.5-15.66,26.2-9.43,4.36-22.23,1.51-38.55-4.09a.7.7,0,0,1,.46-1.33c16,5.5,28.5,8.31,37.5,4.15,5.35-2.48,9.8-13.13,15-25.47,5.45-13.07,11.64-27.89,20.58-36.55a.73.73,0,0,1,.6-.19l7.9,1.36a.7.7,0,0,1,.58.67c0,1.28.07,2.61.08,4,.27,32.69-6.85,75.36-27.81,88A21.55,21.55,0,0,1,874.06,269.38Z"/><g id="Shirt-3" data-name="Shirt"><path class="cls-16" d="M946.71,274.14h-70c-3.2,0-2.6-4.61-2.14-6.94,5.34-26.88,26.15-55.86,26.15-94.12L921,169.91C937.64,196.76,943.41,229.8,946.71,274.14Z"/></g><path class="cls-14" d="M991.75,299q-14.58-17-36-55.56c1.24,4.41,2.39,8.84,3.42,13.28-1.8-3.14-1.79-7.46-3.67-10.85a245.85,245.85,0,0,1,7.7,44.09l-61.85-.1q-12-30.23,14-119.94h6.92Q989,211,1003.81,296.63Z"/><path class="cls-30" d="M964.35,290.55h-63a.7.7,0,0,1-.65-.45c-8-20.2-3.3-60.7,13.94-120.38l1-3.5a.71.71,0,0,1,.67-.51h8a.66.66,0,0,1,.36.11,173.47,173.47,0,0,1,36,29.31.71.71,0,0,1,0,1,.7.7,0,0,1-1,0,172,172,0,0,0-35.53-29h-7.27l-.88,3c-17,58.94-21.78,99-14.15,119H963.6c-.16-2.32-.38-4.7-.66-7.1a.71.71,0,0,1,.62-.78.7.7,0,0,1,.77.62c.31,2.68.55,5.34.72,7.91a.72.72,0,0,1-.7.75Z"/><path class="cls-30" d="M991.75,299.69a.71.71,0,0,1-.53-.24C982.16,288.9,971,271.85,958,248.74c.7,2.65,1.34,5.27,1.93,7.81,1.45,6.22,2.62,12.31,3.5,18.1a.71.71,0,0,1-.59.8.71.71,0,0,1-.8-.59c-.87-5.75-2-11.81-3.47-18-1-4.26-2.14-8.72-3.41-13.25a.7.7,0,0,1,.41-.84.71.71,0,0,1,.88.31c14,25.33,26,43.88,35.61,55.14l13.6-2.67a238.63,238.63,0,0,0-5.33-24.56.7.7,0,1,1,1.35-.37A240.22,240.22,0,0,1,1007.1,296a.7.7,0,0,1-.56.8l-14.66,2.88Z"/><path class="cls-30" d="M996.25,256.53a.7.7,0,0,1-.66-.46,190.46,190.46,0,0,0-8.42-19.94.71.71,0,0,1,.32-.94.7.7,0,0,1,.94.32,191.14,191.14,0,0,1,8.47,20.09.7.7,0,0,1-.42.89A.66.66,0,0,1,996.25,256.53Z"/><path class="cls-30" d="M1040.21,425.71h-38.77a.7.7,0,0,1,0-1.4h38.77a.7.7,0,1,1,0,1.4Z"/><path class="cls-30" d="M1108.09,425.71h-7.82a.7.7,0,0,1,0-1.4h7.82a.7.7,0,1,1,0,1.4Z"/><path class="cls-30" d="M1095.62,425.71H639.92a.7.7,0,1,1,0-1.4h455.7a.7.7,0,1,1,0,1.4Z"/><circle class="cls-28" cx="768.17" cy="319.77" r="2.88" transform="translate(-53.68 449.78) rotate(-31.59)"/><circle class="cls-28" cx="759.45" cy="328.49" r="2.88" transform="translate(-59.54 446.5) rotate(-31.59)"/><circle class="cls-28" cx="759.45" cy="311.06" r="2.88" transform="translate(-50.41 443.92) rotate(-31.59)"/><circle class="cls-28" cx="750.74" cy="319.77" r="2.88" transform="translate(-56.26 440.65) rotate(-31.59)"/><circle class="cls-28" cx="750.74" cy="302.34" r="2.88" transform="translate(-47.13 438.06) rotate(-31.59)"/><circle class="cls-28" cx="742.02" cy="311.06" r="2.88" transform="translate(-52.99 434.79) rotate(-31.59)"/><circle class="cls-28" cx="742.02" cy="293.63" r="2.88" transform="translate(-43.86 432.21) rotate(-31.59)"/><circle class="cls-28" cx="733.31" cy="302.34" r="2.88" transform="translate(-49.72 428.93) rotate(-31.59)"/><circle class="cls-28" cx="733.31" cy="284.91" r="2.88" transform="translate(-40.59 426.35) rotate(-31.59)"/><circle class="cls-28" cx="724.59" cy="293.63" r="2.88" transform="translate(-46.44 423.08) rotate(-31.59)"/><circle class="cls-28" cx="724.59" cy="276.2" r="2.88" transform="translate(-37.31 420.5) rotate(-31.59)"/><circle class="cls-28" cx="715.88" cy="284.91" r="2.88" transform="matrix(0.85, -0.52, 0.52, 0.85, -43.17, 417.22)"/><g id="Path_9" data-name="Path 9"><path d="M770.4,37.54,755.16,23.81a2.08,2.08,0,0,0-2.92.15L738.51,39.2a2.07,2.07,0,0,0,.15,2.91L753.9,55.85a2.07,2.07,0,0,0,2.92-.16l13.73-15.24a2.06,2.06,0,0,0-.15-2.91ZM755.91,54.88a.84.84,0,0,1-1.19.07h0L739.48,41.21a.84.84,0,0,1-.07-1.19h0l13.74-15.24a.83.83,0,0,1,1.19-.06h0l15.24,13.73a.83.83,0,0,1,.06,1.19h0L755.91,54.88Z"/></g><g id="Path_10" data-name="Path 10"><path d="M733.62,178a1.43,1.43,0,0,0-1.5-1.35h0l-6.06.31-.32-6.07a1.43,1.43,0,0,0-2.86.15h0l.32,6.07-6.07.32a1.42,1.42,0,0,0-1.35,1.49,1.39,1.39,0,0,0,.47,1,1.43,1.43,0,0,0,1,.36l6.07-.31.31,6.07a1.43,1.43,0,0,0,2.86-.15h0l-.32-6.07,6.07-.31A1.45,1.45,0,0,0,733.62,178Z"/></g><g id="Path_10-2" data-name="Path 10"><path d="M689.45,100.74a1,1,0,0,0-1.05-.94h0l-4.21.22L684,95.81a1,1,0,0,0-1.05-.94,1,1,0,0,0-.94,1h0l.22,4.22-4.22.21a1,1,0,0,0-.94,1,1,1,0,0,0,.33.68,1,1,0,0,0,.72.26l4.21-.22.22,4.22a1,1,0,0,0,.33.68,1,1,0,0,0,1.66-.79h0l-.22-4.21,4.21-.22A1,1,0,0,0,689.45,100.74Z"/></g><g id="Path_11" data-name="Path 11"><path d="M757.41,41l-1.92-1.73,1.73-1.92a.61.61,0,0,0-.9-.82l-1.73,1.92-1.92-1.73a.61.61,0,0,0-.86,0,.62.62,0,0,0,0,.86l1.92,1.73L752,41.3a.61.61,0,0,0,.91.81l1.73-1.92,1.92,1.73a.6.6,0,0,0,.86,0,.61.61,0,0,0-.05-.86Z"/></g><g id="Path_9-2" data-name="Path 9"><path d="M755.4,222.54l-15.24-13.73a2.08,2.08,0,0,0-2.92.15L723.51,224.2a2.07,2.07,0,0,0,.15,2.91l15.24,13.74a2.07,2.07,0,0,0,2.92-.16l13.73-15.24a2.06,2.06,0,0,0-.15-2.91Zm-14.49,17.34a.84.84,0,0,1-1.19.07h0l-15.24-13.74a.84.84,0,0,1-.07-1.19h0l13.74-15.24a.83.83,0,0,1,1.19-.06h0l15.24,13.73a.83.83,0,0,1,.06,1.19h0l-13.73,15.24Z"/></g><g id="Path_11-2" data-name="Path 11"><path d="M742.41,226l-1.92-1.73,1.73-1.92a.61.61,0,0,0-.9-.82l-1.73,1.92-1.92-1.73a.61.61,0,0,0-.86,0,.62.62,0,0,0,0,.86l1.92,1.73L737,226.3a.61.61,0,0,0,.91.81l1.73-1.92,1.92,1.73a.6.6,0,0,0,.86,0,.61.61,0,0,0-.05-.86Z"/></g><g id="Path_12" data-name="Path 12"><path d="M699.49,143.67,688,133.33a1.72,1.72,0,1,0-2.3,2.56l11.46,10.33a1.72,1.72,0,0,0,2.32-2.55Z"/></g><g id="Path_13" data-name="Path 13"><path d="M705.15,137.39l-11.47-10.34a1.72,1.72,0,1,0-2.31,2.56l11.46,10.33a1.72,1.72,0,1,0,2.32-2.55Z"/></g><g id="Path_10-3" data-name="Path 10"><path d="M844.45,171.74a1,1,0,0,0-1.05-.94h0l-4.21.22-.22-4.21a1,1,0,0,0-1.05-.94,1,1,0,0,0-.94,1h0l.22,4.22-4.22.21a1,1,0,0,0-.94,1,1,1,0,0,0,.33.68,1,1,0,0,0,.72.26l4.21-.22.22,4.22a1,1,0,0,0,.33.68,1,1,0,0,0,1.66-.79h0l-.22-4.21,4.21-.22A1,1,0,0,0,844.45,171.74Z"/></g><g id="Path_10-4" data-name="Path 10"><path d="M836.45,92.74a1,1,0,0,0-1.05-.94h0l-4.21.22L831,87.81a1,1,0,0,0-1.05-.94,1,1,0,0,0-.94,1h0l.22,4.22-4.22.21a1,1,0,0,0-.94,1,1,1,0,0,0,.33.68,1,1,0,0,0,.72.26l4.21-.22.22,4.22a1,1,0,0,0,.33.68,1,1,0,0,0,1.66-.79h0L831.29,94l4.21-.22A1,1,0,0,0,836.45,92.74Z"/></g><g id="Path_12-2" data-name="Path 12"><path d="M853.5,142.75l-6.6-5.95a1,1,0,0,0-1.41.07,1,1,0,0,0,.08,1.4l6.59,5.95a1,1,0,0,0,1.41-.07,1,1,0,0,0-.07-1.4Z"/></g><g id="Path_13-2" data-name="Path 13"><path d="M856.76,139.13l-6.6-5.95a1,1,0,1,0-1.33,1.48l6.6,5.94a1,1,0,1,0,1.33-1.47Z"/></g><g id="Path_14" data-name="Path 14"><path d="M976.85,158a1,1,0,1,0,1.33-1.47h0l-6.6-5.95a1,1,0,1,0-1.33,1.47h0Z"/></g><path id="Leaf-Bottom-2" data-name="Leaf-Bottom" class="cls-7" d="M343.5,93.56c-3.74-1.86-8.72.29-6.64,5.19,2.22,5.24,10.45,5.31,15.1,5.2-.47,0-2-4.83-2.48-5.56A15.77,15.77,0,0,0,343.5,93.56Zm-3.6,23.71a4.44,4.44,0,0,0-.51,6.62c2.13,2.38,6,2.29,8.91,2.06,1.31-.1,8.31-.66,6.65-1.81a5.51,5.51,0,0,1,.68.33c.16.56.32,1.12.49,1.67l-.13.08.13-.07A64,64,0,0,0,363.34,142a15,15,0,0,0-3.63-1c-3.65-.47-11.33,2.37-7.25,7.23,3.92,4.67,10-.34,14.46-1A210.5,210.5,0,0,0,381,164.56a1.25,1.25,0,0,0-.73.61c-2-1-4.08-2.46-5.93-2.86-2.67-.56-8.14-.91-10.16,1.48-2.48,2.94.18,5.33,3.11,5.89,4.25.82,9.82-1.26,13.91-2.66a1.35,1.35,0,0,0,1.28-.43l.27-.09c5,5.55,10.29,10.91,15.49,16.16H398a14,14,0,0,0-4.39-2c-3.65-.89-7.95-.9-10.92,1.74s-4,7.24-.94,10.19c6.12,5.92,15.12-7.57,18.21-8.13,5.29,5.28,10.88,10.2,16.57,15a10.32,10.32,0,0,0-2-.4c-5.58-.53-18.66,6.3-11.82,13,6,5.86,12.86-5.42,17.66-9.36,5.36,4.5,10.74,9,16,13.62a15.24,15.24,0,0,0-8.67,0c-3.16,1-8.27,3.35-6.27,7.62s8.17,2.37,11.36,1c1.75-.75,5.24-3.29,8.31-4.36a105.12,105.12,0,0,1,21.06,26.8A92,92,0,0,1,470,267.68c1.16,4.47,3.46,12,3,17.82,2.19-11.66-1.77-25.67-6-36.09a87.77,87.77,0,0,0-16.68-25.58c1.73-5.19,16.26-12.68,7.57-17.5-4.61-2.55-9.34,1.68-10.34,6.16-.7,3.08.36,6.95,1.48,9.94q-3.25-3.47-6.73-6.7c-3.21-3-6.49-5.89-9.8-8.75,5.46-5.13,10.62-19.78,3.3-22.18-10.8-3.53-5.6,16.46-4.84,20.21a.59.59,0,0,0,.5-.19c-.06.34-.13.71-.22,1.08-6.34-5.45-12.77-10.79-19-16.38a27.27,27.27,0,0,0,2.15-2.84,32,32,0,0,0,4.2-6.1c1.74-3.51,3.43-9.11-1.2-11.18-5-2.25-7.42,4.09-7.46,7.87,0,2.61.69,5.09,1.06,7.65.12.8-.33,4.4.76,2.85a7.26,7.26,0,0,0,0,1.28q-1.68-1.5-3.33-3.05a1.43,1.43,0,0,0,.1-.43,1.31,1.31,0,0,0-1.87-1.23q-2.19-2.07-4.31-4.21c-3-3-6-6.13-9.05-9.3.65-.56.39-1.34,1-1.94s1.81-.92,2.53-1.48a17.23,17.23,0,0,0,4.39-5.42c1.79-3.3,4.11-10.22-1.12-11.79-5.39-1.62-8.13,5-8.48,9.21-.06.8.54,8.07,1,10.71-5.58-5.89-11.07-12-16.05-18.24,1.51,0,5.79-3.1,6.65-3.95,2.11-2.05,5.47-6.6,1.77-9-3.29-2.13-7.35,1-8.75,4a42,42,0,0,0-1.11,7.17c-2.06-2.64-4-5.3-5.85-8q-1.83-2.66-3.43-5.45a2.44,2.44,0,0,0,.73-.71c5.48-.93,12.48-9.49,6-12.47-3.06-1.42-6.39,1.51-7.89,3.9a31.88,31.88,0,0,0-1.22,4.89,103.46,103.46,0,0,1-7.19-19.34,1.2,1.2,0,0,0,.94-1.11c2.66-1.52,4.76-2.78,6.62-5.7,1.16-1.81,3.24-6-.16-7-4.41-1.31-7.19,5.43-7.55,8.75,0,.39,0,1.51,0,2.54a1.41,1.41,0,0,0-.46,0c-1-4.14-1.83-8.32-2.47-12.52,2.41-.77,2.83-13.43,1.22-15.24-3.59-4-6.12,1.8-5.93,4.88a20.39,20.39,0,0,0,3.84,9.87c.21.31.15.3.2-.14a.83.83,0,0,0,.21.49,53.74,53.74,0,0,0-.2,5.56,128.59,128.59,0,0,0,1.65,14.51c.2,1.16.43,2.31.69,3.46a28.09,28.09,0,0,0-5.58-3.58C346.62,116.54,342.53,115.26,339.9,117.27ZM473.33,285.52a13.54,13.54,0,0,1-1,4.51A34.38,34.38,0,0,0,473.33,285.52Z"/><g id="Plant-Right" class="cls-31"><path id="Leaf-Me-Alone_" data-name="Leaf-Me-Alone!" class="cls-4" d="M416.16,208c10.38-.54,23.21,5.52,24.31,16.8.81,8.19.56,16.36,1.8,24.54a66.48,66.48,0,0,0,6,18.78c2.76,5.72,8.49,10.6,10,16.72a26.31,26.31,0,0,1-.9,13.19c-1.59,4.64-.74,4.27,2.43,8.17,6.21,7.62,11.81,15.44,15.77,24.54,5.7,13.12,9.43,28.45,7.32,42.81-.27,1.82-.59,8.37-3.1,8.82-2.8.51-1.49-3.23-1.34-4.44,1-7.71,1.8-14.45.65-22.28-4.44-30.23-26.12-50.14-40.24-75.79-.78-1.32-2.42-4.47-3.56-6.55-1.79-3.28-3.6-9.52-6-12-4.58-4.58-.37,4.63.53,6.39,1.13,2.23,2.37,4.59,3.53,6.54,5.29,9,11.21,18.9,16.68,28.22-23.66,5.39-40.32-23-46.67-41.75-5.23-15.41-11.49-51.43,12.88-52.75"/><path id="Leaf-Me-Alone_2" data-name="Leaf-Me-Alone!" class="cls-6" d="M555.21,179.41c-17.34,1.38-28.47,12.82-33.66,28.83-2.79,8.63-3.11,17.49-4.66,26.35-2.34,13.34-7.36,23.45-17.18,33a33.2,33.2,0,0,0-6.88,9.2,39.18,39.18,0,0,0-7.94,11.34c-2.58,5.7-3.31,12.54-.33,18.23.8,1.53,2.81,4.6,4.88,6-7.77,16.54-12,34.65-11.55,52.73.29,10.92.82,21.85,1.44,32.75.17,2.93,1.12,7.76,2.56,2.85,1.31-4.49-.34-11.54-.49-16.23-.74-22.86-1.37-43.65,8-65,1-2.24,2-4.46,3.12-6.66l.18-.13a1.27,1.27,0,0,1,.12.1c.07-.13.17-.27.28-.44a6.06,6.06,0,0,0,.85-1.18c.83-1.16,1.77-2.52,1.78-3.26v0a305.73,305.73,0,0,1,19.31-27.31c-.05.07,7.39-10.07,6.24-4.46-.55,2.7-6,7.84-8.24,10.7A267,267,0,0,0,497.67,309c-.64.37-1.55,2.18-2.21,3.53-.36.69-.7,1.38-1,2,16.92,5.58,30.07-5.67,39-18.76l0-.05a57,57,0,0,1,9-10.07c5.83-4.77,12.08-5.61,19-8,18.74-6.41,26.71-30.7,29.24-48.72,2.86-20.33-11.11-51.51-35.5-49.51"/><path id="Leaf-Me-Alone_3" data-name="Leaf-Me-Alone!" class="cls-6" d="M521,122.47c-17.81,18.53-26.4,44.22-33.21,68.38-7.61,27-12.63,54.38-12.83,82.43-.12,18.43-.62,37,.45,55.38.38,6.54,1,13.09,2.07,19.56.09.53,2.41,15,4.62,11.6,1.27-1.91-2.37-15-2.65-17.15a283.38,283.38,0,0,1-1.83-37c.13-20.32-.47-40.55,1.59-60.8a67.05,67.05,0,0,1,1.27-9.16c.76-3.14-.21-1.77,2.27-3s5.4-1,7.9-2.55c9.94-6,15-21.5,19-31.65,4.53-11.61,7.28-24,9.47-36.21a255.53,255.53,0,0,0,3.42-27,71.77,71.77,0,0,1,.78-8.68,21.12,21.12,0,0,0,.89-2.78c-.06-1.42-.92-2.26-1-3.46-.75.67-1.48,1.36-2.19,2.06"/><path id="Base-3" data-name="Base" class="cls-17" d="M423.9,369.3a55.47,55.47,0,0,0,110.94,0"/><path id="Leaf-Me-Alone_4" data-name="Leaf-Me-Alone!" class="cls-4" d="M483.82,369.48h-2.93a96.44,96.44,0,0,1,1.09-11c2.35-13.91,9.7-34.34,25.83-36.59a40.91,40.91,0,0,1,5.43.05,9.86,9.86,0,0,1,4.15-1.22c13.73-1,29.06,10.06,35.68,21.59,5.34,9.29,4.44,21.5,1.14,31.37-2.2,6.61-7,16-15.06,16.13-10.06.11-10.54-12.32-10.74-19.58-.25-9.66-1.47-18.07-9.09-24.66-1.77-1.53-3.71-2.88-5.5-4.39-2.81-2.37-5.91-4.79-6.27-8.71-.5-5.4,2.55-6.38,7.21-5.37.79.17,8.79,3.76,7.61.92-.36-.87-1.68-1.55-3.35-2.07-4.31-.47-9.46-1-10.93-.68-16,3.5-22.17,25.6-23.82,39.64C484.09,366.43,484,368,483.82,369.48Z"/></g><circle class="cls-32" cx="407.11" cy="55.63" r="2.88" transform="translate(264.16 440.86) rotate(-77.42)"/><circle class="cls-32" cx="407.55" cy="43.32" r="2.88" transform="translate(276.52 431.66) rotate(-77.42)"/><circle class="cls-32" cx="419.43" cy="56.07" r="2.88" transform="translate(273.36 453.23) rotate(-77.42)"/><circle class="cls-32" cx="419.87" cy="43.76" r="2.88" transform="translate(285.73 444.02) rotate(-77.42)"/><circle class="cls-32" cx="431.75" cy="56.51" r="2.88" transform="translate(282.57 465.59) rotate(-77.42)"/><circle class="cls-32" cx="432.19" cy="44.2" r="2.88" transform="translate(294.93 456.38) rotate(-77.42)"/><circle class="cls-32" cx="444.06" cy="56.95" r="2.88" transform="translate(291.78 477.96) rotate(-77.42)"/><circle class="cls-32" cx="444.5" cy="44.64" r="2.88" transform="translate(304.14 468.75) rotate(-77.42)"/><circle class="cls-32" cx="456.38" cy="57.39" r="2.88" transform="translate(300.98 490.32) rotate(-77.42)"/><circle class="cls-32" cx="456.82" cy="45.08" r="2.88" transform="translate(313.35 481.11) rotate(-77.42)"/><circle class="cls-32" cx="468.7" cy="57.83" r="2.88" transform="translate(310.19 502.68) rotate(-77.42)"/><circle class="cls-32" cx="469.13" cy="45.51" r="2.88" transform="translate(322.55 493.48) rotate(-77.42)"/><path id="Path_9-3" data-name="Path 9" class="cls-32" d="M597.8,263.71l20.51-.33a2.07,2.07,0,0,0,2-2.1L620,240.77a2.07,2.07,0,0,0-2.1-2l-20.51.34a2.06,2.06,0,0,0-2,2.09l.34,20.51a2.05,2.05,0,0,0,2.09,2Zm-1.21-22.56a.84.84,0,0,1,.83-.86h0l20.51-.34a.86.86,0,0,1,.86.84h0l.33,20.51a.84.84,0,0,1-.83.86h0l-20.51.33a.85.85,0,0,1-.86-.83h0l-.33-20.51Z"/><path id="Path_10-5" data-name="Path 10" class="cls-32" d="M529,135.87a1.42,1.42,0,0,0,2,0h0l4.23-4.37,4.36,4.23a1.43,1.43,0,0,0,2-2.06h0l-4.36-4.22,4.22-4.37a1.43,1.43,0,0,0-2-2l-4.23,4.37-4.37-4.23a1.42,1.42,0,0,0-1-.4,1.48,1.48,0,0,0-1,.43,1.45,1.45,0,0,0,0,2h0l4.37,4.22L529,133.85A1.43,1.43,0,0,0,529,135.87Z"/><path id="Path_10-6" data-name="Path 10" class="cls-32" d="M614,162.29a1,1,0,0,0,1.4,0h0l2.93-3,3,2.93a1,1,0,0,0,1.39-1.43h0l-3-2.93,2.94-3a1,1,0,0,0,0-1.4,1,1,0,0,0-1.41,0l-2.93,3-3-2.93a1,1,0,0,0-.71-.28,1,1,0,0,0-.67,1.71h0l3,2.93-2.93,3A1,1,0,0,0,614,162.29Z"/><path id="Path_11-3" data-name="Path 11" class="cls-32" d="M604.94,252.32l2.58,0,0,2.58a.61.61,0,1,0,1.22,0l0-2.58,2.58,0a.62.62,0,0,0,.6-.62.61.61,0,0,0-.62-.6l-2.58,0-.05-2.58a.61.61,0,1,0-1.21,0l0,2.58-2.59,0a.61.61,0,0,0-.59.62.6.6,0,0,0,.61.6Z"/><path id="Path_9-4" data-name="Path 9" class="cls-32" d="M482.71,118.09l20.51-.33a2.07,2.07,0,0,0,2-2.1l-.33-20.51a2.07,2.07,0,0,0-2.1-2l-20.51.34a2.08,2.08,0,0,0-2,2.09l.34,20.51a2.06,2.06,0,0,0,2.09,2ZM481.5,95.53a.84.84,0,0,1,.83-.86h0l20.51-.33a.84.84,0,0,1,.86.83h0l.34,20.51a.86.86,0,0,1-.84.86h0l-20.51.34a.85.85,0,0,1-.85-.84h0l-.34-20.51Z"/><path id="Path_11-4" data-name="Path 11" class="cls-32" d="M489.85,106.7l2.58,0,0,2.58a.61.61,0,0,0,.62.6.6.6,0,0,0,.6-.62l0-2.58,2.58,0a.61.61,0,1,0,0-1.22l-2.58,0,0-2.58a.61.61,0,0,0-.62-.6.61.61,0,0,0-.6.62l0,2.58-2.58,0a.61.61,0,0,0-.6.62.6.6,0,0,0,.62.6Z"/><path id="Path_12-3" data-name="Path 12" class="cls-32" d="M577.38,137.72l15.44-.25a1.73,1.73,0,1,0-.06-3.45l-15.42.25a1.73,1.73,0,1,0,0,3.45Z"/><path id="Path_13-3" data-name="Path 13" class="cls-32" d="M577.52,146.18l15.44-.25a1.73,1.73,0,0,0-.06-3.45l-15.43.25a1.73,1.73,0,0,0,0,3.45Z"/><path id="Path_10-7" data-name="Path 10" class="cls-32" d="M452.16,216a1,1,0,0,0,1.4,0h0l2.94-3,3,2.93a1,1,0,1,0,1.38-1.43h0l-3-2.93,2.94-3a1,1,0,0,0,0-1.4,1,1,0,0,0-.71-.28,1,1,0,0,0-.7.3l-2.94,3-3-2.93a1,1,0,0,0-.71-.28,1,1,0,0,0-.7.3,1,1,0,0,0,0,1.41h0l3,2.93-2.94,3A1,1,0,0,0,452.16,216Z"/><path id="Path_10-8" data-name="Path 10" class="cls-32" d="M511.84,268.32a1,1,0,0,0,1.41,0h0l2.94-3,3,2.94a1,1,0,1,0,1.38-1.43h0l-3-2.94,2.94-3a1,1,0,0,0,0-1.4,1,1,0,0,0-1.41,0l-2.94,3-3-2.94a1,1,0,0,0-1.39,1.43h0l3,2.94-2.94,3A1,1,0,0,0,511.84,268.32Z"/><path id="Path_12-4" data-name="Path 12" class="cls-32" d="M465.29,243.34l8.89-.14a1,1,0,0,0,0-2l-8.88.15a1,1,0,1,0,0,2Z"/><path id="Path_13-4" data-name="Path 13" class="cls-32" d="M465.37,248.21l8.89-.14a1,1,0,0,0,0-2l-8.88.15a1,1,0,0,0-1,1,1,1,0,0,0,1,1Z"/><path id="Path_14-2" data-name="Path 14" class="cls-32" d="M364.61,316.24a1,1,0,0,0,0,2h0l8.89-.14a1,1,0,0,0,0-2h0Z"/><g id="Head_Front_Pony" data-name="Head/Front/Pony"><g id="Head-4" data-name="Head"><path class="cls-33" d="M363.87,127.6c-2-5.47-2.59-11.46-.1-17,7.17-16.09,28.83-4.09,30.27,5.87s-6.79,30.91-13.11,30.29c-2.52-.24-6.9-3.48-10.8-8.31l-4.94,23.32L346.68,155Z"/></g><path id="hair-4" data-name="hair" class="cls-34" d="M370.7,128.77c-3.9,3.57-8.29,5.74-11.46,4.58-6-2.19-7.38-11.81-4.23-20.47.11-.3.23-.6.35-.9-8,2-16,8.89-24.45,5.82-11.48-4.18-7.61-29,8.42-23.15,10.91,4,15.69,7.51,19.46,11.55a16,16,0,0,1,6.27-4.79,6.78,6.78,0,0,1,2.32-.64,8.83,8.83,0,0,1,1.77-.09,40.72,40.72,0,0,1,12,2.22c.86.27,1.69.57,2.49.87A8.21,8.21,0,1,1,389,114.46a41.79,41.79,0,0,1-9.17-1.67,17.07,17.07,0,0,1-1,4.32,25.28,25.28,0,0,1-2,4.14,3.89,3.89,0,0,0-2.14-2.38,4.94,4.94,0,0,0-6.32,2.95C367.26,124.85,368.21,127.67,370.7,128.77Z"/></g><path class="cls-19" d="M388.22,303.38l-.05,0-.27.19q-1.57,1.08-3.18,2.07c-1.08.67-2.18,1.31-3.28,1.92a67.66,67.66,0,0,1-33,8.52q-5.37,0-11.25-.52A187.79,187.79,0,0,1,315,312.18c-5.6-1.18-9.46-3.62-15.58-5.34l2.25-1.17c2.35-1.2,2.66-1.31,4.93-2.33h0q4-1.81,7.89-3.22,14.21-5.21,26.07-5.21h1.09c2.78,0,5.73.21,8.84.51a191.55,191.55,0,0,1,29.61,5.71c2.61.69,5.28,1.43,8,2.24Z"/><path id="Leg" class="cls-35" d="M365.45,324.05a4.89,4.89,0,0,1-.48-.94c-2.63-7-44.8-82.08-49-95.81h47.48c3.2,10.44,17.58,76,19.6,89,6.38,20.62,19.53,87.41,21.21,92,1.76,4.86-8.17,9.94-10.82,3.95-4.21-9.52-14.24-35.86-18.71-51.95C370.53,345.3,367.12,331.73,365.45,324.05Z"/><path id="Leg-2" data-name="Leg" class="cls-33" d="M326.6,333.22c-19.28,4.87-89.8,13.68-94.64,15.06s-9.35-8.84-3.19-11.06c9.79-3.54,36.77-11.71,53.13-15.05,13.16-2.68,25.16-4.87,33.22-6.15-.68-22.64-3.8-77-1.76-88.72h42c-2,11.26-18.55,93.37-21.63,101.59C332.77,331.83,329.85,333.13,326.6,333.22Z"/><g id="Accessories_Shoe_Flat-Sneaker-7" data-name="Accessories/Shoe/Flat-Sneaker"><path id="shoe-7" data-name="shoe" class="cls-10" d="M209.21,334.49a17.7,17.7,0,0,0-5.66-.41,41.8,41.8,0,0,0-6.25,1.86l8,45.61q6.19.74,6-3.17t-.27-6.52L216.76,349a.83.83,0,0,0-.6-1h0l-3.54-.78a14.81,14.81,0,0,1-2.67-5.47,13.17,13.17,0,0,1,.57-5.23h0a1.64,1.64,0,0,0-1.17-2Z"/></g><g id="Accessories_Shoe_Flat-Sneaker-8" data-name="Accessories/Shoe/Flat-Sneaker"><path id="shoe-8" data-name="shoe" class="cls-10" d="M390.42,411.56a17.56,17.56,0,0,0-1.38,5.5,41.59,41.59,0,0,0,.74,6.48h46.31q1.82-6-2.08-6.44c-2.59-.32-4.75-.6-6.46-.86L406,406.64a.83.83,0,0,0-1.08.42v0l-1.39,3.36a14.76,14.76,0,0,1-5.85,1.68,13.35,13.35,0,0,1-5.05-1.48h0a1.64,1.64,0,0,0-2.18.81S390.43,411.52,390.42,411.56Z"/></g><path class="cls-20" d="M388.22,304.14c-1.16.57-2.32,1.08-3.5,1.53s-2.28.82-3.44,1.14c-7.67,2.2-15.74,2.16-24,1.31-5.92-.62-11.92-1.66-17.92-2.6-8.33-1.31-16.64-2.43-24.73-2a48.16,48.16,0,0,0-15,3.12c2.35-1.2-2.44.83-.17-.19-2.2.63,1-1,0-1-6.17-14.23-.63-43.2,7.8-63.65l-1.93-.52a62.85,62.85,0,0,1,8-13.81l.16-.2.92-.26h0l.92-.25q22.27-6,42.59-1.64,1.37.28,2.73.63l1.08.27.14,0c1.39.36,2.78.77,4.16,1.21.42,1.92.88,3.75,1.39,5.52.24.86.49,1.7.74,2.53h0c.73,2.34,1.53,4.57,2.37,6.74,6.52,17,15.57,30,17.61,61.28v0a.22.22,0,0,1,0,.08C388.19,303.71,388.21,303.92,388.22,304.14Z"/><path class="cls-12" d="M382.71,263.81c.72,1.84,1.42,3.74,2.09,5.73"/><path class="cls-12" d="M386.47,274.89a135.44,135.44,0,0,1,4.75,29.25c-1,.5-2,.95-3,1.35l-.28.11a41.27,41.27,0,0,1-6.86,2c-8.05,1.66-16.49,1.14-25.06,0-5.33-.71-10.7-1.65-16.07-2.46-8.55-1.29-17.06-2.24-25.31-1.34a49.47,49.47,0,0,0-8,1.53h0A45,45,0,0,0,300,308c-6.17-14.23-1.13-43.7,7.3-64.15A83.17,83.17,0,0,1,313,232.26c.65-1,1.3-2,2-3l.06-.09c.1-.14.2-.29.31-.42.38-.52.76-1,1.15-1.49q21.9-6.26,41.93-2.64c.33.05.65.11,1,.18l.91.18c.66.13,1.31.27,2,.43,2.28.52,4.53,1.13,6.77,1.85a93.35,93.35,0,0,0,2.74,9.89c.25.78.52,1.54.79,2.3.39,1.09.79,2.15,1.21,3.2,2.44,6.26,5.22,12,7.84,18.42"/><g id="Body_Jacket-2" data-name="Body/Jacket-2"><path id="Skin-6" data-name="Skin" class="cls-33" d="M457.78,210a70.72,70.72,0,0,0-17.69,7.47l-8.25,1.24-.32,0-23.64,3.55,5.95,13.85.13.31,3.19-1.31.07,0,11.86-4.85,4.06-1.66,6.82-2.79q17,1.38,16.37-1c-.61-2.43-4-1.79-4.64-3.37s2.93-4.92,6.49-8S459.3,209.89,457.78,210ZM290.35,194.46Q276,214.23,267.84,224.82s0,0,0,0q-7.89,10.23-10,11.85c-2.1,1.62-13.13,4.28-20.4,5.34-2.91.42-2.94,2.76-2.36,3.67,4.71,7.37,11.52,4.66,18.65,4.81,7.81.16,3.21,8.19,9.36,8.4.13-4.2-.36-12.36,3.42-15.74q.58-.53,3.08-3.08,8.09-8.31,36.22-38Z"/><path class="cls-36" d="M429.14,226.57l-4.06,1.66a80.3,80.3,0,0,1-11.86,4.85l-.07,0L410,234.41l-.13-.31c-12.42,3.5-25.88,4.56-35.21,2l0,.62c0,.39-.07.85-.13,1.34a22.29,22.29,0,0,1-6.28-2.74,14.41,14.41,0,0,1-2.26-1.87c-.4-.41-.78-.83-1.14-1.27a28.24,28.24,0,0,1-3.3-4.86l0,0c-.27-.49-.53-1-.78-1.52a40.38,40.38,0,0,1-1.93-4.8c-2.4-7.19-3.3-15.77-3.22-24.72a175.72,175.72,0,0,1,4.62-36.36c.82-3.57,1.69-7,2.58-10,.16-.57.33-1.12.49-1.67l3.48.33,1.28.12,2.43.23a39.12,39.12,0,0,1,2.25,4.38c8.48,19.27,6.37,50.87,14.48,57.6,8.28,6.86,22.8,6.25,40.23,4.85l.16,1L429,226Z"/><path class="cls-12" d="M429.34,225.82l-.3.18c-1.25.78-2.58,1.52-4,2.23a80.3,80.3,0,0,1-11.86,4.85l-.07,0c-1.1.36-2.2.69-3.32,1-12.42,3.5-25.88,4.56-35.21,2a21.09,21.09,0,0,1-7.18-3.31,13.11,13.11,0,0,1-1.52-1.34,24.21,24.21,0,0,1-1.92-2.23c-.48-.62-.94-1.28-1.37-1.95-.26-.4-.5-.8-.74-1.21l-.11-.19a37.07,37.07,0,0,1-2.81-6.25c-2.39-6.8-3.39-14.89-3.45-23.39a169.61,169.61,0,0,1,4.21-36.51c.92-4.22,1.93-8.19,2.95-11.76.18-.61.35-1.21.53-1.79l3.44.33.55.05,1.19.11,2,.19c.29.48.57,1,.84,1.48A38.52,38.52,0,0,1,373,152c8.13,19.33,6.17,50.25,14.18,56.9,8.28,6.86,22.8,6.25,40.23,4.85l.48,2.95Z"/><path class="cls-16" d="M374.62,236.13l0,.62c0,.39-.07.85-.13,1.34-.29,2.13-1.07,4.76-3.34,4.15l-.56-.15-3.62-1-8.6-2.3-3.67-1-1.23-.33-37.41-10-.65-.17-1-.26-4.2-1.12c12-34.38,23.69-60.08,41.51-79q2-2.13,4.11-4.12c.3-.3.6-.59.91-.87l.77.34,5.09,2.25,4,1.78.55.25,1.11.49,2.93,1.29,2.35,1c-.23.86-.44,1.71-.64,2.56-.11.43-.21.87-.3,1.3C365.67,184.48,375.92,212.76,374.62,236.13Z"/><path class="cls-37" d="M362.83,160.88q.06,35.63-3.86,58.77h0c-.08.45-.15.89-.23,1.32h0c-.1.56-.2,1.12-.31,1.67-.15.85-.32,1.67-.49,2.49s-.29,1.44-.44,2.15q-1.28,5.73-2.83,10.54A73.22,73.22,0,0,1,352,245a0,0,0,0,0,0,0,46.86,46.86,0,0,1-4.23,7.63l-23-6.16-12.05-3.23-5.38-1.44-1.93-.52-9.12-2.44c4.34-12.74,10.8-25.71,18.19-38.06q-4.89,5-9.42,9.49c1.14-2.11-.7.43-1.54,1.52a0,0,0,0,0,0,0c-.28.34-.44.54-.37.36s.17-.32.4-.71c-2.16,2.22-4.13,4.23-5.93,6l-.19.18c-12.64,12.67-17.4,16.1-26.88,22.78l-2.56-1.25-2.36-1.15-7.4-3.61q2.7-6,5.65-11.64s0,0,0,0q31.2-59.71,90.08-79.37l1.92-.62,1.68-.53.23-.07,4.83,1.29,0,1c0,1.15.05,2.3.07,3.43h0c0,.63,0,1.26,0,1.88h0Q362.81,155.52,362.83,160.88Z"/><path class="cls-12" d="M330.45,153.45a154.88,154.88,0,0,1,23.47-10l1.92-.62,1.68-.53.23-.07c.62-.2,1.24-.39,1.87-.57l.2.05,6.76,1.81c0,.94.05,1.88.07,2.81v.2c0,.67,0,1.34,0,2q.06,2.92.09,5.76.5,43.2-4.5,69.16c-.16.83-.32,1.65-.5,2.45,0,0,0,0,0,0a.32.32,0,0,1,0,.14c-.08.42-.17.84-.26,1.25,0,0,0,0,0,0a109,109,0,0,1-3.14,11.47,52.85,52.85,0,0,1-7.27,14.74l-.78-.21-2.57-.69-23-6.16-12.05-3.23-5.38-1.44-1.93-.52-9.12-2.44c4.34-12.74,10.8-25.71,18.19-38.06q-4.89,5-9.42,9.49l-1.54,1.52a0,0,0,0,0,0,0l-.37.36q-2.84,2.77-5.53,5.33l-.19.18q-16,15.15-27.09,22.67"/><path class="cls-12" d="M260.46,235.58l-2.28-1.11q2.7-6,5.65-11.64s0,0,0,0q20.73-39.69,53.69-61.68"/></g></g></g></svg>