<svg xmlns="http://www.w3.org/2000/svg" viewBox="0 0 27 26"><defs><style>.cls-1{fill:#dfdfdf;}</style></defs><g id="Main"><g id="Group_39" data-name="Group 39"><g id="Group_38" data-name="Group 38"><path id="Path_28" data-name="Path 28" class="cls-1" d="M5.89,10.85v9.76H21.11V10.85Zm10.67,8.43H10.44V18.12a1.57,1.57,0,0,0,1.09-.44.58.58,0,0,1,.82-.06l.06.06a1.57,1.57,0,0,0,2.17,0,.59.59,0,0,1,.83-.06l.06.06a1.57,1.57,0,0,0,1.09.44v1.16Zm0-2.16a.62.62,0,0,1-.45-.21,1.57,1.57,0,0,0-2.17,0,.58.58,0,0,1-.82.07l-.06-.07a1.57,1.57,0,0,0-2.17,0,.6.6,0,0,1-.45.21V16.3h0a.84.84,0,0,1,.84-.83H13v-.79a1,1,0,0,1-.53-.9,2,2,0,0,1,1-1.6,2,2,0,0,1,1,1.61,1,1,0,0,1-.53.9v.79h1.72a.85.85,0,0,1,.84.84v.8Z"/></g></g><g id="Group_41" data-name="Group 41"><g id="Group_40" data-name="Group 40"><path id="Path_29" data-name="Path 29" class="cls-1" d="M19.46,6.38H18.8v1a1.49,1.49,0,0,1-3,0h0v-1H11.19v1a1.49,1.49,0,0,1-3,0h0v-1H7.54A1.67,1.67,0,0,0,5.89,8V9.86H21.11V8A1.67,1.67,0,0,0,19.46,6.38Z"/></g></g><g id="Group_43" data-name="Group 43"><g id="Group_42" data-name="Group 42"><path id="Path_30" data-name="Path 30" class="cls-1" d="M9.7,5.39a.49.49,0,0,0-.49.5V7.38a.5.5,0,0,0,1,0V5.89a.5.5,0,0,0-.5-.5Z"/></g></g><g id="Group_45" data-name="Group 45"><g id="Group_44" data-name="Group 44"><path id="Path_31" data-name="Path 31" class="cls-1" d="M17.31,5.39a.5.5,0,0,0-.5.5V7.38a.5.5,0,0,0,1,0V5.89a.5.5,0,0,0-.5-.5Z"/></g></g></g></svg>