<svg xmlns="http://www.w3.org/2000/svg" viewBox="0 0 32.92 31.7"><defs><style>.cls-1{fill:#dfdfdf;}</style></defs><g id="Main"><g id="Group_46" data-name="Group 46"><g id="Ellipse_2" data-name="Ellipse 2"><path class="cls-1" d="M22.22,9.48a5.71,5.71,0,0,1-.46,2.26h0a5.8,5.8,0,1,1,.46-2.27Z"/></g></g><path class="cls-1" d="M11.1,11.76a5.5,5.5,0,0,1,2.46-.58h5.76a5.54,5.54,0,0,1,2.44.56h0a5.79,5.79,0,0,1-10.66,0Z"/><path class="cls-1" d="M24.89,16.75V28.08H8V16.75a5.51,5.51,0,0,1,2.25-4.46,6.79,6.79,0,0,0,12.38,0A5.53,5.53,0,0,1,24.89,16.75Z"/></g></svg>