<?xml version="1.0" encoding="iso-8859-1"?>
<!-- Generator: Adobe Illustrator 18.0.0, SVG Export Plug-In . SVG Version: 6.00 Build 0)  -->
<!DOCTYPE svg PUBLIC "-//W3C//DTD SVG 1.1//EN" "http://www.w3.org/Graphics/SVG/1.1/DTD/svg11.dtd">
<svg version="1.1" id="Capa_1" xmlns="http://www.w3.org/2000/svg" xmlns:xlink="http://www.w3.org/1999/xlink" x="0px" y="0px"
	 viewBox="0 0 307.414 307.414" style="enable-background:new 0 0 307.414 307.414;" xml:space="preserve">
<g>
	<path d="M290.705,14.461c-2.148-2.149-5.633-2.149-7.781,0l-29.465,29.463l-29.463-29.463c-2.15-2.149-5.635-2.149-7.783,0
		c-2.148,2.148-2.148,5.633,0,7.781l29.465,29.464L216.213,81.17c-2.148,2.148-2.148,5.633,0,7.781
		c1.074,1.075,2.482,1.612,3.891,1.612s2.818-0.537,3.893-1.612l29.463-29.463l29.465,29.463c1.074,1.075,2.482,1.612,3.891,1.612
		s2.816-0.537,3.891-1.612c2.148-2.148,2.148-5.633,0-7.781l-29.463-29.464l29.463-29.464
		C292.853,20.094,292.853,16.609,290.705,14.461z"/>
	<path d="M100.352,266.063c1.408,0,2.816-0.537,3.891-1.611c2.148-2.148,2.148-5.633,0-7.782l-29.461-29.464l29.461-29.463
		c2.148-2.149,2.148-5.634,0-7.783c-2.149-2.148-5.633-2.148-7.781,0l-29.463,29.464l-29.461-29.464
		c-2.149-2.148-5.633-2.148-7.781,0c-2.15,2.149-2.15,5.634,0,7.783l29.461,29.463l-29.461,29.464c-2.15,2.149-2.15,5.634,0,7.782
		c1.074,1.074,2.483,1.611,3.891,1.611s2.816-0.537,3.891-1.611l29.461-29.463l29.463,29.463
		C97.535,265.525,98.943,266.063,100.352,266.063z"/>
	<path d="M54.75,95.128c26.227,0,47.564-21.337,47.564-47.563C102.314,21.338,80.977,0,54.75,0C28.529,0,7.195,21.338,7.195,47.564
		C7.195,73.791,28.529,95.128,54.75,95.128z M54.75,11.006c20.158,0,36.559,16.4,36.559,36.559s-16.4,36.558-36.559,36.558
		c-20.152,0-36.549-16.399-36.549-36.558S34.598,11.006,54.75,11.006z"/>
	<path d="M18.142,163.234c23.33-22.138,53.896-34.329,86.07-34.329c42.613,0,81.791,21.481,104.771,56.753l-34.959-5.723
		c-2.996-0.49-5.828,1.543-6.32,4.543c-0.49,2.998,1.543,5.828,4.543,6.318l46.545,7.618c0.301,0.05,0.6,0.073,0.895,0.073
		c0.166,0,0.33-0.008,0.492-0.022c0.307-0.027,0.605-0.08,0.896-0.157c2.037-0.534,3.674-2.222,4.035-4.436l0,0
		c0-0.001,0-0.001,0-0.002l7.615-46.552c0.49-2.999-1.543-5.828-4.543-6.319c-2.998-0.49-5.828,1.543-6.318,4.543l-5.201,31.793
		c-25.188-36.999-67.023-59.437-112.451-59.437c-35.004,0-68.262,13.265-93.646,37.351c-2.205,2.093-2.297,5.576-0.203,7.78
		C12.455,165.234,15.938,165.326,18.142,163.234z"/>
	<path d="M289.213,220.82c0,3.039,2.465,5.503,5.504,5.503c3.039,0,5.502-2.464,5.502-5.503c0-14.25-12.564-26.1-28.961-28.298
		v-6.452c0-3.039-2.465-5.504-5.504-5.504c-3.039,0-5.502,2.465-5.502,5.504v6.452c-16.393,2.198-28.955,14.049-28.955,28.298
		c0,14.25,12.563,26.101,28.955,28.3v35.206c-10.285-1.871-17.949-8.855-17.949-17.166c0-3.039-2.463-5.504-5.502-5.504
		c-3.039,0-5.504,2.465-5.504,5.504c0,14.249,12.563,26.099,28.955,28.297v6.453c0,3.039,2.463,5.504,5.502,5.504
		c3.039,0,5.504-2.465,5.504-5.504v-6.452c16.396-2.198,28.961-14.049,28.961-28.298c0-14.254-12.564-26.106-28.961-28.306v-35.2
		C281.545,205.523,289.213,212.509,289.213,220.82z M242.303,220.82c0-8.311,7.664-15.296,17.949-17.166v34.334
		C249.967,236.118,242.303,229.133,242.303,220.82z M289.213,267.16c0,8.312-7.668,15.297-17.955,17.166v-34.34
		C281.545,251.856,289.213,258.844,289.213,267.16z"/>
</g>
<g>
</g>
<g>
</g>
<g>
</g>
<g>
</g>
<g>
</g>
<g>
</g>
<g>
</g>
<g>
</g>
<g>
</g>
<g>
</g>
<g>
</g>
<g>
</g>
<g>
</g>
<g>
</g>
<g>
</g>
</svg>
