<?xml version="1.0" encoding="iso-8859-1"?>
<!-- Generator: Adobe Illustrator 17.1.0, SVG Export Plug-In . SVG Version: 6.00 Build 0)  -->
<!DOCTYPE svg PUBLIC "-//W3C//DTD SVG 1.1//EN" "http://www.w3.org/Graphics/SVG/1.1/DTD/svg11.dtd">
<svg version="1.1" id="Capa_1" xmlns="http://www.w3.org/2000/svg" xmlns:xlink="http://www.w3.org/1999/xlink" x="0px" y="0px"
	 viewBox="0 0 442 442" style="enable-background:new 0 0 442 442;" xml:space="preserve">
<g>
	<path d="M120.586,248.59c-3.906-3.903-10.237-3.903-14.143,0l-54.972,54.972c-3.905,3.905-3.905,10.237,0,14.143
		c1.953,1.952,4.512,2.929,7.071,2.929c2.559,0,5.119-0.977,7.071-2.929l54.972-54.972
		C124.491,258.827,124.491,252.495,120.586,248.59z"/>
	<path d="M158.054,308.206c-3.906-3.904-10.237-3.904-14.143,0l-43.898,43.898c-3.905,3.905-3.905,10.237,0,14.143
		c1.953,1.952,4.512,2.929,7.071,2.929s5.119-0.977,7.071-2.929l43.898-43.898C161.959,318.443,161.959,312.111,158.054,308.206z"/>
	<path d="M98.427,319.291c-3.905-3.904-10.237-3.904-14.143,0l-8.542,8.542c-3.905,3.905-3.905,10.237,0,14.143
		c1.953,1.952,4.512,2.929,7.071,2.929s5.119-0.977,7.071-2.929l8.542-8.542C102.333,329.528,102.333,323.196,98.427,319.291z"/>
	<path d="M78.17,242.464c-3.905-3.903-10.237-3.904-14.142,0L27.2,279.29c-3.905,3.905-3.905,10.237,0,14.143
		c1.953,1.952,4.512,2.929,7.071,2.929c2.559,0,5.119-0.977,7.071-2.929l36.827-36.826C82.074,252.701,82.075,246.369,78.17,242.464
		z"/>
	<path d="M442,44.882c0-11.992-4.669-23.266-13.149-31.744c-17.503-17.502-45.984-17.502-63.488,0L254.158,124.344l-44.483-44.482
		c-12.244-12.243-32.167-12.243-44.411,0l-13.405,13.404c-3.683,3.683-3.892,9.524-0.628,13.453l-5.849,5.848
		c-3.929-3.264-9.77-3.054-13.453,0.629c-3.683,3.684-3.892,9.524-0.628,13.453L2.929,255.019c-3.905,3.905-3.905,10.237,0,14.143
		c3.905,3.904,10.237,3.904,14.143,0L145.413,140.82l34.4,34.4l-52.156,52.155c-3.905,3.905-3.905,10.237,0,14.143
		c3.906,3.904,10.238,3.905,14.142,0l52.156-52.155l58.671,58.671l-17.51,17.51c-3.905,3.905-3.905,10.237,0,14.143
		c3.905,3.904,10.237,3.904,14.143,0l17.51-17.511l34.401,34.401L172.828,424.918c-3.906,3.905-3.906,10.237,0,14.143
		c1.952,1.952,4.512,2.929,7.071,2.929s5.119-0.977,7.071-2.929l128.372-128.372c3.929,3.264,9.77,3.053,13.453-0.629
		c3.683-3.684,3.892-9.524,0.629-13.452l5.848-5.849c1.786,1.48,4.042,2.301,6.381,2.301c2.652,0,5.196-1.054,7.071-2.929
		l13.404-13.404c5.931-5.932,9.198-13.818,9.198-22.206c0-8.389-3.267-16.274-9.198-22.206l-44.483-44.482L428.852,76.626
		C437.331,68.146,442,56.873,442,44.882z M315.312,282.434L201.067,168.19c-0.013-0.014-0.027-0.027-0.041-0.041
		c-0.014-0.014-0.028-0.027-0.042-0.041l-41.43-41.43l5.787-5.787l155.756,155.756L315.312,282.434z M414.709,62.483
		L296.432,180.761c-3.906,3.905-3.906,10.237,0,14.143l51.553,51.554c0,0,0,0,0,0c2.154,2.153,3.34,5.018,3.34,8.063
		s-1.186,5.909-3.34,8.063l-6.333,6.333l-78.436-78.435l-90.145-90.146l6.333-6.333c4.447-4.446,11.682-4.446,16.127,0
		l51.554,51.554c0.008,0.008,0.016,0.016,0.024,0.023l15.79,15.79c3.905,3.904,10.237,3.904,14.143,0
		c3.905-3.905,3.905-10.237,0-14.143l-8.743-8.742L379.506,27.28c9.706-9.705,25.498-9.705,35.204,0
		C419.411,31.981,422,38.232,422,44.882C422,51.53,419.411,57.782,414.709,62.483z"/>
	<path d="M220.974,293.828c-3.904-3.904-10.237-3.904-14.142,0l-82.547,82.547c-3.905,3.905-3.905,10.237,0,14.143
		c1.953,1.952,4.512,2.929,7.071,2.929s5.119-0.977,7.071-2.929l82.546-82.547C224.88,304.065,224.88,297.733,220.974,293.828z"/>
	<path d="M387.504,35.28c-5.292,5.295-5.292,13.908,0.002,19.205c2.647,2.646,6.124,3.969,9.601,3.969s6.954-1.322,9.601-3.969
		c0.001-0.001,0.001-0.002,0.002-0.003c5.292-5.294,5.292-13.907-0.002-19.204C401.414,29.985,392.801,29.987,387.504,35.28z
		 M401.646,49.423c-2.503,2.502-6.575,2.5-9.08-0.002c-2.502-2.503-2.502-6.575,0-9.077l0.002-0.003
		c2.502-2.503,6.574-2.502,9.08,0.003C404.151,42.846,404.151,46.918,401.646,49.423z"/>
	<path d="M199.526,363.82c-3.905-3.903-10.236-3.904-14.143,0l-36.826,36.826c-3.905,3.905-3.905,10.237,0,14.143
		c1.953,1.952,4.512,2.929,7.071,2.929c2.559,0,5.119-0.977,7.071-2.929l36.827-36.826
		C203.43,374.057,203.431,367.725,199.526,363.82z"/>
</g>
<g>
</g>
<g>
</g>
<g>
</g>
<g>
</g>
<g>
</g>
<g>
</g>
<g>
</g>
<g>
</g>
<g>
</g>
<g>
</g>
<g>
</g>
<g>
</g>
<g>
</g>
<g>
</g>
<g>
</g>
</svg>
