<?xml version="1.0" encoding="iso-8859-1"?>
<!-- Generator: Adobe Illustrator 19.0.0, SVG Export Plug-In . SVG Version: 6.00 Build 0)  -->
<svg version="1.1" id="Layer_1" xmlns="http://www.w3.org/2000/svg" xmlns:xlink="http://www.w3.org/1999/xlink" x="0px" y="0px"
	 viewBox="0 0 490 490" style="enable-background:new 0 0 490 490;" xml:space="preserve">
<g>
	<g>
		<g>
			<path d="M405,410h-5V127.957c19.133-12.975,30.8-34.665,30.8-57.957c0-38.598-31.402-70-70-70H115c-5.523,0-10,4.477-10,10v130
				c0,5.523,4.477,10,10,10h10v25c0,5.523,4.477,10,10,10h30c5.523,0,10-4.477,10-10v-25h10c5.523,0,10-4.477,10-10V70h95.8
				c0,22.548,11.059,43.801,29.2,56.789V340h-65c-16.542,0-30,13.458-30,30v40h-35v-90h70c11.028,0,20-8.972,20-20v-25
				c0-5.523-4.477-10-10-10H75c-5.523,0-10,4.477-10,10v25c0,11.028,8.972,20,20,20h25v90H85c-16.542,0-30,13.458-30,30v40
				c0,5.523,4.477,10,10,10h360c5.523,0,10-4.477,10-10v-40C435,423.458,421.542,410,405,410z M155,165h-10v-15h10V165z M175,130
				h-50V95h50V130z M175,75h-50V20h50V75z M195,50V20h116.713c-8.279,8.138-14.544,18.377-17.953,30H195z M310.8,70
				c0-2.833,0.245-5.577,0.729-8.157c0.013-0.07,0.025-0.14,0.037-0.21C315.558,37.509,336.264,20,360.8,20c27.57,0,50,22.43,50,50
				c0,18.071-9.842,34.806-25.75,43.711c-7.221,4.114-15.606,6.289-24.25,6.289c-9.102,0-17.949-2.466-25.585-7.133
				c-0.035-0.021-0.07-0.043-0.105-0.064C320.114,103.893,310.8,87.491,310.8,70z M380,137.338V340h-40V136.829
				c6.677,2.091,13.687,3.171,20.8,3.171C367.36,140,373.83,139.088,380,137.338z M245,370c0-5.514,4.486-10,10-10h125v50H245V370z
				 M85,300v-15h175v15H85z M130,345v-25h40v25H130z M170,365v45h-40v-45H170z M415,470H75v-30c0-5.514,4.486-10,10-10h320
				c5.514,0,10,4.486,10,10V470z"/>
			<path d="M360,110c22.056,0,40-17.944,40-40c0-22.056-17.944-40-40-40c-22.056,0-40,17.944-40,40C320,92.056,337.944,110,360,110z
				 M360,50c11.028,0,20,8.972,20,20s-8.972,20-20,20s-20-8.972-20-20S348.972,50,360,50z"/>
			<rect x="260" y="375" width="65" height="20"/>
			<rect x="340" y="375" width="20" height="20"/>
		</g>
	</g>
</g>
<g>
</g>
<g>
</g>
<g>
</g>
<g>
</g>
<g>
</g>
<g>
</g>
<g>
</g>
<g>
</g>
<g>
</g>
<g>
</g>
<g>
</g>
<g>
</g>
<g>
</g>
<g>
</g>
<g>
</g>
</svg>
