<svg xmlns="http://www.w3.org/2000/svg" viewBox="0 0 2330.04 495.12"><defs><style>.cls-1{isolation:isolate;}.cls-2{fill:#fff;}</style></defs><g id="Layer_2" data-name="Layer 2"><g id="Layer_1-2" data-name="Layer 1"><g class="cls-1"><g class="cls-1"><path class="cls-2" d="M446,291q0-16.29-11.5-25t-41.39-18.4q-29.91-9.67-47.34-19.07-47.54-25.68-47.53-69.18A67.37,67.37,0,0,1,311,118.94q12.75-17.72,36.61-27.69t53.56-10q29.91,0,53.28,10.83t36.32,30.57q12.94,19.74,12.94,44.85h-57.5q0-19.17-12.07-29.8t-33.92-10.64q-21.09,0-32.78,8.91a28.12,28.12,0,0,0-11.69,23.48q0,13.61,13.71,22.8t40.34,17.25q49.07,14.76,71.48,36.61t22.43,54.43q0,36.21-27.41,56.82T402.52,368q-32.2,0-58.65-11.78t-40.34-32.3q-13.9-20.51-13.9-47.53h57.69q0,46.2,55.2,46.19,20.5,0,32-8.33T446,291Z"/></g><g class="cls-1"><path class="cls-2" d="M596.65,105.82v51h35.46v40.63H596.65v103.5q0,11.49,4.41,16.48t16.87,5A88.76,88.76,0,0,0,634.22,321v42a114.09,114.09,0,0,1-33.54,5q-58.26,0-59.41-58.83V197.42H511V156.79h30.28v-51Z"/></g><g class="cls-1"><path class="cls-2" d="M767.71,208.73a150.89,150.89,0,0,0-19.93-1.53q-31.44,0-41.21,21.27V364.16H651.18V156.79H703.5L705,181.52Q721.71,153,751.22,153a58,58,0,0,1,17.25,2.49Z"/></g><g class="cls-1"><path class="cls-2" d="M874.38,368q-45.61,0-74.27-28t-28.65-74.55v-5.37q0-31.23,12.07-55.86t34.21-37.95Q839.88,153,868.24,153q42.56,0,67,26.83t24.44,76.09v22.61h-132q2.68,20.33,16.2,32.58T878,323.34q32,0,50-23.19l27.21,30.47q-12.46,17.64-33.73,27.5T874.38,368Zm-6.33-170.37q-16.49,0-26.73,11.16t-13.13,32h77v-4.43q-.39-18.48-10-28.59T868.05,197.62Z"/></g><g class="cls-1"><path class="cls-2" d="M1099.49,364.16a61.35,61.35,0,0,1-5.56-18.59Q1073.8,368,1041.61,368q-30.48,0-50.5-17.63t-20-44.46q0-33,24.44-50.6t70.62-17.82h25.49V225.6q0-14.39-7.38-23T1061,194q-14,0-22,6.71t-8,18.4H975.68a55.67,55.67,0,0,1,11.12-33.35q11.12-15.33,31.43-24t45.61-8.72q38.33,0,60.85,19.26t22.52,54.14v89.89q.18,29.5,8.24,44.65v3.26Zm-45.81-38.52a47.73,47.73,0,0,0,22.62-5.46,35.86,35.86,0,0,0,15.33-14.66V269.87h-20.7q-41.58,0-44.27,28.75l-.19,3.25a22.16,22.16,0,0,0,7.28,17.06Q1041,325.64,1053.68,325.64Z"/></g><g class="cls-1"><path class="cls-2" d="M1222.06,156.79l1.73,23.19q22-27,59.6-27,40,0,55,31.62Q1360.25,153,1400.68,153q33.72,0,50.21,19.65t16.48,59.12V364.16h-55.58V231.62q0-17.69-6.9-25.84t-24.34-8.16q-24.91,0-34.49,23.81l.19,142.73h-55.39V231.81q0-18.06-7.09-26.13t-24.15-8.06q-23.56,0-34.11,19.59v147h-55.39V156.79Z"/></g><g class="cls-1"><path class="cls-2" d="M1712.06,283.67l37.56-198.55h57.3l-61.9,279h-57.88l-45.42-186.67L1596.3,364.16h-57.88l-61.9-279h57.3l37.76,198.16,46-198.16h48.68Z"/></g><g class="cls-1"><path class="cls-2" d="M1793.14,258.56q0-30.85,11.88-55a86.9,86.9,0,0,1,34.21-37.37Q1861.55,153,1891.07,153q42,0,68.52,25.68t29.61,69.76l.38,14.19q0,47.71-26.64,76.56T1891.46,368q-44.85,0-71.59-28.74t-26.73-78.2Zm55.39,3.93q0,29.56,11.11,45.21t31.82,15.64q20.11,0,31.43-15.45t11.3-49.43q0-29-11.3-44.91t-31.82-15.93q-20.31,0-31.43,15.83T1848.53,262.49Z"/></g><g class="cls-1"><path class="cls-2" d="M2123,208.73A150.89,150.89,0,0,0,2103,207.2q-31.44,0-41.21,21.27V364.16h-55.39V156.79h52.32l1.54,24.73Q2076.94,153,2106.46,153a58,58,0,0,1,17.25,2.49Z"/><path class="cls-2" d="M2213.13,281l-19.93,19.94v63.24h-55.39V69.79h55.39V232.88l10.73-13.8L2257,156.79h66.5l-74.94,86.44L2330,364.16h-63.63Z"/></g></g><path class="cls-2" d="M19.42,114.22a18.66,18.66,0,0,0,0,37.32H199.25a18.65,18.65,0,0,0,18.64-18.66V76.32a18.65,18.65,0,0,0-18.66-18.64h-160V37.32h160a18.66,18.66,0,0,0,0-37.32H20.53A18.65,18.65,0,0,0,1.89,18.66v57.7A18.65,18.65,0,0,0,20.57,95h160v19.22Z"/><path class="cls-2" d="M.36,207.52H37.68v-.16h0l145.31.06v.1h37.31V188.73a18.65,18.65,0,0,0-18.65-18.65l-183-.08h0A18.65,18.65,0,0,0,0,188.68a18,18,0,0,0,.36,3.43Z"/><path class="cls-2" d="M183,225.62v87.83l-54,93.44V234a18.54,18.54,0,0,0-2-8.39H93.68a18.67,18.67,0,0,0-2,8.39V406.88l-54-93.43V225.62H.36v92.84a18.63,18.63,0,0,0,2.5,9.33L93.92,485.44l0,.1a14.23,14.23,0,0,0,1,1.56c.18.26.31.4.56.77a10.3,10.3,0,0,0,.8,1c.27.31.55.62.84.9s.58.55.89.81a.17.17,0,0,0,.11.09c.26.23.52.44.79.65a18.5,18.5,0,0,0,8,3.53,5.9,5.9,0,0,0,1,.15,1.15,1.15,0,0,0,.37,0,13.34,13.34,0,0,0,2,.12h0a17.39,17.39,0,0,0,2.16-.13c.52-.06,1.14-.18,1.52-.25s.87-.19,1.12-.26.51-.14.76-.23l.59-.19a8.36,8.36,0,0,0,.83-.32c.35-.13.65-.27,1.06-.46s.94-.49,1.25-.66.6-.36.89-.55a9.64,9.64,0,0,0,.84-.58,16,16,0,0,0,1.73-1.45c.18-.17.35-.32.52-.5l.53-.57c.11-.11.2-.21.3-.33a5.32,5.32,0,0,0,.37-.46,4.3,4.3,0,0,0,.29-.36c.16-.21.31-.41.45-.61l.39-.57c.18-.27.35-.55.52-.85l91.32-158a18.63,18.63,0,0,0,2.5-9.33V225.62Z"/></g></g></svg>