<svg xmlns="http://www.w3.org/2000/svg" viewBox="0 0 27 26"><defs><style>.cls-1{fill:#fff;}</style></defs><g id="Main"><path class="cls-1" d="M11.93,11.8a2,2,0,1,0-2-2h0A2,2,0,0,0,11.93,11.8Zm0-3.06a1.05,1.05,0,1,1-1.06,1,1,1,0,0,1,1.06-1Z"/><path class="cls-1" d="M15.9,13.55a.49.49,0,0,0-.69,0l-1,1a.48.48,0,0,0,0,.68l1,1a.5.5,0,0,0,.69,0,.49.49,0,0,0,0-.68l0,0-.63-.63.63-.62A.5.5,0,0,0,15.9,13.55Z"/><path class="cls-1" d="M15.39,11.48a3.36,3.36,0,0,0-2.7,1.37A3.69,3.69,0,0,0,8.31,15.7a3.84,3.84,0,0,0-.08.76.48.48,0,0,0,.48.48h4a3.37,3.37,0,1,0,2.64-5.46ZM9.24,16a2.73,2.73,0,0,1,2.69-2.25l.28,0a3.41,3.41,0,0,0,0,2.23Zm6.15,1.29a2.41,2.41,0,1,1,2.41-2.41h0a2.4,2.4,0,0,1-2.41,2.4Z"/></g></svg>