<svg xmlns="http://www.w3.org/2000/svg" viewBox="0 0 27 26"><defs><style>.cls-1{fill:#fff;}</style></defs><g id="Main"><g id="Group_124" data-name="Group 124"><g id="Group_87" data-name="Group 87"><g id="Path_48" data-name="Path 48"><path class="cls-1" d="M13.11,8.6A2,2,0,0,0,11.68,8a2,2,0,1,0,1.43.58Zm-1.43,2.55A1.12,1.12,0,1,1,12.81,10,1.12,1.12,0,0,1,11.68,11.15Z"/></g></g></g><g id="Group_125" data-name="Group 125"><g id="Group_89" data-name="Group 89"><g id="Path_49" data-name="Path 49"><path class="cls-1" d="M12.13,13.64a3.52,3.52,0,0,1,1.26.46v-1a3.93,3.93,0,0,0-1.74-.4,4.08,4.08,0,0,0-4,4.12.44.44,0,0,0,.44.44h5.34v-.89H8.53A3.18,3.18,0,0,1,12.13,13.64Z"/></g></g></g><g id="Rectangle_791" data-name="Rectangle 791"><path class="cls-1" d="M13.39,12v6h6V12Zm5,5h-4V13h4Z"/></g><g id="Path_69" data-name="Path 69"><rect class="cls-1" x="15.03" y="14.66" width="2.64" height="1"/></g><g id="Path_69-2" data-name="Path 69"><rect class="cls-1" x="15.85" y="13.84" width="1" height="2.64"/></g></g></svg>