<svg xmlns="http://www.w3.org/2000/svg" viewBox="0 0 27 26"><defs><style>.cls-1{fill:#fff;}</style></defs><g id="Main"><g id="question-svgrepo-com"><g id="Group_88" data-name="Group 88"><g id="Group_87" data-name="Group 87"><path id="Path_48" data-name="Path 48" class="cls-1" d="M9.59,11.76a2,2,0,1,0,2,2h0A2,2,0,0,0,9.59,11.76Zm0,3.15a1.13,1.13,0,1,1,1.12-1.13h0a1.13,1.13,0,0,1-1.12,1.13Z"/></g></g><g id="Group_90" data-name="Group 90"><g id="Group_89" data-name="Group 89"><path id="Path_49" data-name="Path 49" class="cls-1" d="M13.66,20.48a4.08,4.08,0,1,0-8.15.07A.44.44,0,0,0,6,21h7.27a.44.44,0,0,0,.45-.42A.28.28,0,0,0,13.66,20.48Zm-7.23-.37a3.18,3.18,0,0,1,6.31,0Z"/></g></g><g id="Group_92" data-name="Group 92"><g id="Group_91" data-name="Group 91"><path id="Path_50" data-name="Path 50" class="cls-1" d="M16.86,5A4.63,4.63,0,0,0,13.2,12.5l-.54,2.77a.43.43,0,0,0,.2.46.52.52,0,0,0,.5,0l2.18-1.61a4.42,4.42,0,0,0,1.31.19,4.64,4.64,0,0,0,0-9.28Zm0,8.39a3.54,3.54,0,0,1-1.25-.22.43.43,0,0,0-.41.07l-1.45,1.07.35-1.86a.42.42,0,0,0-.1-.37,3.77,3.77,0,1,1,2.86,1.31Z"/></g></g><g id="Group_94" data-name="Group 94"><g id="Group_93" data-name="Group 93"><path id="Path_51" data-name="Path 51" class="cls-1" d="M16.88,6.62h0A1.79,1.79,0,0,0,15.08,8.4a.45.45,0,1,0,.89,0h0a.89.89,0,0,1,.88-.89h0a.9.9,0,0,1,.87.88.88.88,0,0,1-.42.77,1.86,1.86,0,0,0-.91,1.59.45.45,0,0,0,.89,0,1,1,0,0,1,.49-.84,1.76,1.76,0,0,0,.84-1.53A1.79,1.79,0,0,0,16.88,6.62Z"/></g></g><g id="Group_96" data-name="Group 96"><g id="Group_95" data-name="Group 95"><path id="Path_52" data-name="Path 52" class="cls-1" d="M16.85,11.61a.45.45,0,0,0-.44.45h0v.17a.45.45,0,0,0,.89,0h0v-.17a.45.45,0,0,0-.45-.45Z"/></g></g></g></g></svg>