<?xml version="1.0" encoding="utf-8"?>
<!-- Generator: Adobe Illustrator 24.2.0, SVG Export Plug-In . SVG Version: 6.00 Build 0)  -->
<svg version="1.1" id="Layer_2" xmlns="http://www.w3.org/2000/svg" xmlns:xlink="http://www.w3.org/1999/xlink" x="0px" y="0px"
	 viewBox="0 0 1810 452" style="enable-background:new 0 0 1810 452;" xml:space="preserve">
<style type="text/css">
	.st0{fill:#003936;}
	.st1{opacity:0.2;}
	.st2{fill:#050505;}
</style>
<g>
	<g>
		<rect y="0" class="st0" width="1810" height="452"/>
	</g>
	<g id="Logomark_2_" class="st1">
		<path class="st2" d="M35.3,60.3c-2.8,0.5-4.6,3.3-4.1,6.1c0.5,2.8,3.3,4.6,6.1,4.1L96,59c2.8-0.5,4.6-3.3,4.1-6.1l-3.5-18.1
			c-0.5-2.8-3.3-4.6-6.1-4.1L38.3,40.9l-1.6-8.3l53.3-10.4c2.8-0.5,4.6-3.3,4.1-6.1c-0.5-2.8-3.3-4.6-6.1-4.1L29.6,23.5
			c-2.8,0.5-4.6,3.3-4.1,6.1L29.1,48c0.5,2.8,3.3,4.6,6.1,4.1l52.2-10.2l1.6,8L35.3,60.3z"/>
		<path class="st2" d="M67.4,83.9l-30.7,6l-1.1-5.7c-0.5-2.8,1.3-5.5,4.1-6.1l25.6-5l7.3-1.4l25.7-5c2.8-0.5,5.5,1.3,6.1,4.1
			l1.1,5.7l-30.8,6L67.4,83.9z"/>
		<path class="st2" d="M97.1,87.8l4.9,25.1l-12.7,36.8L78,91.5l-10.1,2l11.4,58.2l-25.6-29.3l-4.9-25.1l-10.1,2l5.2,26.5
			c0.2,0.9,0.6,1.7,1.2,2.4L84.1,173c2.6,2.9,7.5,2,8.8-1.7l19.4-56.3c0.3-0.9,0.4-1.8,0.2-2.7l-5.2-26.5L97.1,87.8z"/>
	</g>
	<g id="Logomark_3_" class="st1">
		<path class="st2" d="M229.8,32.9l-58.7,11.5c-2.8,0.6-5.5-1.3-6.1-4.1c-0.5-2.8,1.3-5.5,4.1-6.1l53.6-10.5l-1.6-8L169,25.9
			c-2.8,0.5-5.5-1.3-6.1-4.1l-3.6-18.5c-0.2-1.2,0-2.4,0.5-3.4h43.8l-33.1,6.5l1.6,8.3l52.2-10.2c2.8-0.5,5.5,1.3,6.1,4.1l3.5,18.1
			C234.4,29.6,232.6,32.3,229.8,32.9z"/>
		<path class="st2" d="M201.2,57.7l-30.7,6l-1.1-5.7c-0.5-2.8,1.3-5.5,4.1-6.1l25.6-5l7.3-1.4l25.7-5c2.8-0.5,5.5,1.3,6.1,4.1
			l1.1,5.7l-30.8,6L201.2,57.7z"/>
		<path class="st2" d="M230.9,61.6l4.9,25.1l-12.7,36.8l-11.4-58.2l-10.1,2l11.4,58.2l-25.6-29.3l-4.9-25.1l-10.1,2l5.2,26.5
			c0.2,0.9,0.6,1.7,1.2,2.4l39.1,44.9c2.6,2.9,7.5,2,8.8-1.7l19.4-56.3c0.3-0.9,0.4-1.8,0.2-2.7l-5.2-26.5L230.9,61.6z"/>
	</g>
	<g id="Logomark_4_" class="st1">
		<path class="st2" d="M363.6,6.7l-58.7,11.5c-2.8,0.5-5.5-1.3-6.1-4.1c-0.6-2.8,1.3-5.5,4.1-6.1L344.2,0h23.3l0.1,0.7
			C368.2,3.5,366.4,6.2,363.6,6.7z"/>
		<path class="st2" d="M335,31.6l-30.7,6l-1.1-5.7c-0.5-2.8,1.3-5.5,4.1-6.1l25.6-5l7.3-1.4l25.7-5c2.8-0.5,5.5,1.3,6.1,4.1l1.1,5.7
			l-30.8,6L335,31.6z"/>
		<path class="st2" d="M364.8,35.5l4.9,25.1L357,97.4l-11.4-58.2l-10.1,2l11.4,58.2l-25.6-29.3l-4.9-25.1l-10.1,2l5.2,26.5
			c0.2,0.9,0.6,1.7,1.2,2.4l39.1,44.9c2.6,2.9,7.5,2,8.8-1.7l19.4-56.3c0.3-0.9,0.4-1.8,0.2-2.7l-5.2-26.5L364.8,35.5z"/>
	</g>
	<g id="Logomark_5_" class="st1">
		<path class="st2" d="M496.8,0l-20.6,4l-7.3,1.4l-30.7,6l-1.1-5.7c-0.5-2.4,0.8-4.8,3-5.7H496.8z"/>
		<path class="st2" d="M498.6,9.3l4.9,25.1l-12.7,36.8l-11.4-58.2l-10.1,2l11.4,58.2l-25.6-29.3l-4.9-25.1l-10.1,2l5.2,26.5
			c0.2,0.9,0.6,1.7,1.2,2.4l39.1,44.9c2.6,2.9,7.5,2,8.8-1.7l19.4-56.3c0.3-0.9,0.4-1.8,0.2-2.7l-5.2-26.5L498.6,9.3z"/>
	</g>
	<g id="Logomark_6_" class="st1">
		<path class="st2" d="M647.5,10.4l-19.4,56.3c-1.3,3.7-6.2,4.7-8.8,1.7l-39.2-44.9c-0.6-0.7-1-1.5-1.2-2.4L575,0h10.5l3.5,17.8
			l25.6,29.3L605.3,0h10.5l8.8,45.1l12.7-36.8L635.7,0h10.5l1.5,7.7C647.9,8.6,647.8,9.5,647.5,10.4z"/>
	</g>
	<g id="Logomark_7_" class="st1">
		<path class="st2" d="M776,0l-14,40.6c-1.3,3.7-6.2,4.7-8.8,1.7L716.3,0h13.7l18.3,21l-4.1-21h10.5l3.7,19L765,0H776z"/>
	</g>
	<g id="Logomark_8_" class="st1">
		<path class="st2" d="M900.8,0l-5,14.4c-1.3,3.7-6.2,4.6-8.8,1.7L873,0H900.8z"/>
	</g>
	<g id="Logomark_30_" class="st1">
		<path class="st2" d="M0,275.3V252l3.4,17.5C3.9,272,2.4,274.5,0,275.3z"/>
		<path class="st2" d="M8.8,292.9L0,294.6v-11.2l1.6-0.3c2.8-0.5,5.5,1.3,6.1,4.1L8.8,292.9z"/>
		<path class="st2" d="M15.6,331.4L0,376.8V345l5.4-15.7l-4.9-25.1l10.1-2l5.2,26.5C16,329.6,15.9,330.6,15.6,331.4z"/>
	</g>
	<g id="Logomark_29_" class="st1">
		<path class="st2" d="M72.5,250.7c-2.8,0.5-4.6,3.3-4.1,6.1c0.5,2.8,3.3,4.6,6.1,4.1l58.7-11.5c2.8-0.5,4.6-3.3,4.1-6.1l-3.5-18.1
			c-0.5-2.8-3.3-4.6-6.1-4.1l-52.2,10.2l-1.6-8.3l53.3-10.4c2.8-0.5,4.6-3.3,4.1-6.1c-0.5-2.8-3.3-4.6-6.1-4.1l-58.3,11.4
			c-2.8,0.5-4.6,3.3-4.1,6.1l3.6,18.5c0.5,2.8,3.3,4.6,6.1,4.1l52.2-10.2l1.6,8L72.5,250.7z"/>
		<path class="st2" d="M104.6,274.2l-30.7,6l-1.1-5.7c-0.5-2.8,1.3-5.5,4.1-6.1l25.6-5l7.3-1.4l25.7-5c2.8-0.5,5.5,1.3,6.1,4.1
			l1.1,5.7l-30.8,6L104.6,274.2z"/>
		<path class="st2" d="M134.3,278.1l4.9,25.1L126.5,340l-11.4-58.2l-10.1,2l11.4,58.2l-25.6-29.3l-4.9-25.1l-10.1,2L81,316
			c0.2,0.9,0.6,1.7,1.2,2.4l39.1,44.9c2.6,2.9,7.5,2,8.8-1.7l19.4-56.3c0.3-0.9,0.4-1.8,0.2-2.7l-5.2-26.5L134.3,278.1z"/>
	</g>
	<g id="Logomark_28_" class="st1">
		<path class="st2" d="M206.3,224.5c-2.8,0.5-4.6,3.3-4.1,6.1c0.5,2.8,3.3,4.6,6.1,4.1l58.7-11.5c2.8-0.5,4.6-3.3,4.1-6.1l-3.5-18.1
			c-0.5-2.8-3.3-4.6-6.1-4.1l-52.2,10.2l-1.6-8.3l53.3-10.4c2.8-0.5,4.6-3.3,4.1-6.1c-0.5-2.8-3.3-4.6-6.1-4.1l-58.3,11.4
			c-2.8,0.5-4.6,3.3-4.1,6.1l3.6,18.5c0.5,2.8,3.3,4.6,6.1,4.1l52.2-10.2l1.6,8L206.3,224.5z"/>
		<path class="st2" d="M238.4,248.1l-30.7,6l-1.1-5.7c-0.5-2.8,1.3-5.5,4.1-6.1l25.6-5l7.3-1.4l25.7-5c2.8-0.5,5.5,1.3,6.1,4.1
			l1.1,5.7l-30.8,6L238.4,248.1z"/>
		<path class="st2" d="M268.1,252l4.9,25.1l-12.7,36.8L249,255.7l-10.1,2l11.4,58.2l-25.6-29.3l-4.9-25.1l-10.1,2l5.2,26.5
			c0.2,0.9,0.6,1.7,1.2,2.4l39.1,44.9c2.6,2.9,7.5,2,8.8-1.7l19.4-56.3c0.3-0.9,0.4-1.8,0.2-2.7l-5.2-26.5L268.1,252z"/>
	</g>
	<g id="Logomark_27_" class="st1">
		<path class="st2" d="M340.1,198.4c-2.8,0.5-4.6,3.3-4.1,6.1c0.5,2.8,3.3,4.6,6.1,4.1l58.7-11.5c2.8-0.5,4.6-3.3,4.1-6.1l-3.5-18.1
			c-0.5-2.8-3.3-4.6-6.1-4.1L343.1,179l-1.6-8.3l53.3-10.4c2.8-0.5,4.6-3.3,4.1-6.1c-0.5-2.8-3.3-4.6-6.1-4.1l-58.3,11.4
			c-2.8,0.5-4.6,3.3-4.1,6.1l3.6,18.5c0.5,2.8,3.3,4.6,6.1,4.1l52.2-10.2l1.6,8L340.1,198.4z"/>
		<path class="st2" d="M372.2,221.9l-30.7,6l-1.1-5.7c-0.5-2.8,1.3-5.5,4.1-6.1l25.6-5l7.3-1.4l25.7-5c2.8-0.5,5.5,1.3,6.1,4.1
			l1.1,5.7l-30.8,6L372.2,221.9z"/>
		<path class="st2" d="M401.9,225.8l4.9,25.1l-12.7,36.8l-11.4-58.2l-10.1,2l11.4,58.2l-25.6-29.3l-4.9-25.1l-10.1,2l5.2,26.5
			c0.2,0.9,0.6,1.7,1.2,2.4l39.1,44.9c2.6,2.9,7.5,2,8.8-1.7l19.4-56.3c0.3-0.9,0.4-1.8,0.2-2.7l-5.2-26.5L401.9,225.8z"/>
	</g>
	<g id="Logomark_26_" class="st1">
		<path class="st2" d="M473.9,172.3c-2.8,0.5-4.6,3.3-4.1,6.1c0.5,2.8,3.3,4.6,6.1,4.1l58.7-11.5c2.8-0.5,4.6-3.3,4.1-6.1l-3.5-18.1
			c-0.5-2.8-3.3-4.6-6.1-4.1l-52.2,10.2l-1.6-8.3l53.3-10.4c2.8-0.5,4.6-3.3,4.1-6.1c-0.5-2.8-3.3-4.6-6.1-4.1l-58.3,11.4
			c-2.8,0.5-4.6,3.3-4.1,6.1l3.6,18.5c0.5,2.8,3.3,4.6,6.1,4.1l52.2-10.2l1.6,8L473.9,172.3z"/>
		<path class="st2" d="M506,195.8l-30.7,6l-1.1-5.7c-0.5-2.8,1.3-5.5,4.1-6.1l25.6-5l7.3-1.4l25.7-5c2.8-0.5,5.5,1.3,6.1,4.1
			l1.1,5.7l-30.8,6L506,195.8z"/>
		<path class="st2" d="M535.8,199.7l4.9,25.1L528,261.6l-11.4-58.2l-10.1,2l11.4,58.2l-25.6-29.3l-4.9-25.1l-10.1,2l5.2,26.5
			c0.2,0.9,0.6,1.7,1.2,2.4l39.1,44.9c2.6,2.9,7.5,2,8.8-1.7l19.4-56.3c0.3-0.9,0.4-1.8,0.2-2.7l-5.2-26.5L535.8,199.7z"/>
	</g>
	<g id="Logomark_25_" class="st1">
		<path class="st2" d="M607.8,146.1c-2.8,0.5-4.6,3.3-4.1,6.1c0.5,2.8,3.3,4.6,6.1,4.1l58.7-11.5c2.8-0.5,4.6-3.3,4.1-6.1l-3.5-18.1
			c-0.5-2.8-3.3-4.6-6.1-4.1l-52.2,10.2l-1.6-8.3l53.3-10.4c2.8-0.5,4.6-3.3,4.1-6.1c-0.5-2.8-3.3-4.6-6.1-4.1l-58.3,11.4
			c-2.8,0.5-4.6,3.3-4.1,6.1l3.6,18.5c0.5,2.8,3.3,4.6,6.1,4.1l52.2-10.2l1.6,8L607.8,146.1z"/>
		<path class="st2" d="M639.9,169.7l-30.7,6l-1.1-5.7c-0.5-2.8,1.3-5.5,4.1-6.1l25.6-5l7.3-1.4l25.7-5c2.8-0.5,5.5,1.3,6.1,4.1
			l1.1,5.7l-30.8,6L639.9,169.7z"/>
		<path class="st2" d="M669.6,173.6l4.9,25.1l-12.7,36.8l-11.4-58.2l-10.1,2l11.4,58.2l-25.6-29.3l-4.9-25.1l-10.1,2l5.2,26.5
			c0.2,0.9,0.6,1.7,1.2,2.4l39.1,44.9c2.6,2.9,7.5,2,8.8-1.7l19.4-56.3c0.3-0.9,0.4-1.8,0.2-2.7l-5.2-26.5L669.6,173.6z"/>
	</g>
	<g id="Logomark_24_" class="st1">
		<path class="st2" d="M741.6,120c-2.8,0.5-4.6,3.3-4.1,6.1c0.5,2.8,3.3,4.6,6.1,4.1l58.7-11.5c2.8-0.5,4.6-3.3,4.1-6.1l-3.5-18.1
			c-0.5-2.8-3.3-4.6-6.1-4.1l-52.2,10.2l-1.6-8.3l53.3-10.4c2.8-0.5,4.6-3.3,4.1-6.1c-0.5-2.8-3.3-4.6-6.1-4.1l-58.3,11.4
			c-2.8,0.5-4.6,3.3-4.1,6.1l3.6,18.5c0.5,2.8,3.3,4.6,6.1,4.1l52.2-10.2l1.6,8L741.6,120z"/>
		<path class="st2" d="M773.7,143.5l-30.7,6l-1.1-5.7c-0.5-2.8,1.3-5.5,4.1-6.1l25.6-5l7.3-1.4l25.7-5c2.8-0.5,5.5,1.3,6.1,4.1
			l1.1,5.7l-30.8,6L773.7,143.5z"/>
		<path class="st2" d="M803.4,147.4l4.9,25.1l-12.7,36.8l-11.4-58.2l-10.1,2l11.4,58.2L759.9,182l-4.9-25.1l-10.1,2l5.2,26.5
			c0.2,0.9,0.6,1.7,1.2,2.4l39.1,44.9c2.6,2.9,7.5,2,8.8-1.7l19.4-56.3c0.3-0.9,0.4-1.8,0.2-2.7l-5.2-26.5L803.4,147.4z"/>
	</g>
	<g id="Logomark_23_" class="st1">
		<path class="st2" d="M875.4,93.9c-2.8,0.5-4.6,3.3-4.1,6.1c0.5,2.8,3.3,4.6,6.1,4.1l58.7-11.5c2.8-0.5,4.6-3.3,4.1-6.1l-3.5-18.1
			c-0.5-2.8-3.3-4.6-6.1-4.1l-52.2,10.2l-1.6-8.3L930,55.7c2.8-0.5,4.6-3.3,4.1-6.1c-0.5-2.8-3.3-4.6-6.1-4.1L869.7,57
			c-2.8,0.5-4.6,3.3-4.1,6.1l3.6,18.5c0.5,2.8,3.3,4.6,6.1,4.1l52.2-10.2l1.6,8L875.4,93.9z"/>
		<path class="st2" d="M907.5,117.4l-30.7,6l-1.1-5.7c-0.5-2.8,1.3-5.5,4.1-6.1l25.6-5l7.3-1.4l25.7-5c2.8-0.5,5.5,1.3,6.1,4.1
			l1.1,5.7l-30.8,6L907.5,117.4z"/>
		<path class="st2" d="M937.2,121.3l4.9,25.1l-12.7,36.8L918.1,125l-10.1,2l11.4,58.2l-25.6-29.3l-4.9-25.1l-10.1,2l5.2,26.5
			c0.2,0.9,0.6,1.7,1.2,2.4l39.1,44.9c2.6,2.9,7.5,2,8.8-1.7l19.4-56.3c0.3-0.9,0.4-1.8,0.2-2.7l-5.2-26.5L937.2,121.3z"/>
	</g>
	<g id="Logomark_22_" class="st1">
		<path class="st2" d="M1009.2,67.7c-2.8,0.5-4.6,3.3-4.1,6.1c0.5,2.8,3.3,4.6,6.1,4.1l58.7-11.5c2.8-0.5,4.6-3.3,4.1-6.1l-3.5-18.1
			c-0.5-2.8-3.3-4.6-6.1-4.1l-52.2,10.2l-1.6-8.3l53.3-10.4c2.8-0.5,4.6-3.3,4.1-6.1c-0.5-2.8-3.3-4.6-6.1-4.1l-58.3,11.4
			c-2.8,0.5-4.6,3.3-4.1,6.1l3.6,18.5c0.5,2.8,3.3,4.6,6.1,4.1l52.2-10.2l1.6,8L1009.2,67.7z"/>
		<path class="st2" d="M1041.3,91.3l-30.7,6l-1.1-5.7c-0.5-2.8,1.3-5.5,4.1-6.1l25.6-5l7.3-1.4l25.7-5c2.8-0.5,5.5,1.3,6.1,4.1
			l1.1,5.7l-30.8,6L1041.3,91.3z"/>
		<path class="st2" d="M1071.1,95.1l4.9,25.1l-12.7,36.8l-11.4-58.2l-10.1,2l11.4,58.2l-25.6-29.3l-4.9-25.1l-10.1,2l5.2,26.5
			c0.2,0.9,0.6,1.7,1.2,2.4l39.1,44.9c2.6,2.9,7.5,2,8.8-1.7l19.4-56.3c0.3-0.9,0.4-1.8,0.2-2.7l-5.2-26.5L1071.1,95.1z"/>
	</g>
	<g id="Logomark_21_" class="st1">
		<path class="st2" d="M1203.7,40.3L1145,51.7c-2.8,0.5-5.5-1.3-6.1-4.1c-0.5-2.8,1.3-5.5,4.1-6.1l53.6-10.5l-1.6-8l-52.2,10.2
			c-2.8,0.5-5.5-1.3-6.1-4.1l-3.6-18.5c-0.6-2.8,1.3-5.5,4.1-6.1l24.1-4.7h40.1c-0.6,1.7-2,3.1-3.9,3.5l-53.3,10.4l1.6,8.3
			l52.2-10.2c2.8-0.6,5.5,1.3,6.1,4.1l3.5,18.1C1208.3,37,1206.5,39.7,1203.7,40.3z"/>
		<path class="st2" d="M1175.2,65.1l-30.7,6l-1.1-5.7c-0.5-2.8,1.3-5.5,4.1-6.1l25.6-5l7.3-1.4l25.7-5c2.8-0.5,5.5,1.3,6.1,4.1
			l1.1,5.7l-30.8,6L1175.2,65.1z"/>
		<path class="st2" d="M1204.9,69l4.9,25.1l-12.7,36.8l-11.4-58.2l-10.1,2l11.4,58.2l-25.6-29.3l-4.9-25.1l-10.1,2l5.2,26.5
			c0.2,0.9,0.6,1.7,1.2,2.4l39.1,44.9c2.6,2.9,7.5,2,8.8-1.7l19.4-56.3c0.3-0.9,0.4-1.8,0.2-2.7L1215,67L1204.9,69z"/>
	</g>
	<g id="Logomark_20_" class="st1">
		<path class="st2" d="M1270.7,3.1l-0.6-3.1h43.5l-36.9,7.2C1274,7.8,1271.3,5.9,1270.7,3.1z"/>
		<path class="st2" d="M1337.6,14.1l-58.7,11.5c-2.8,0.5-5.5-1.3-6.1-4.1c-0.6-2.8,1.3-5.5,4.1-6.1L1330.5,5l-1-5h10.5l1.6,8.1
			C1342.2,10.9,1340.3,13.6,1337.6,14.1z"/>
		<path class="st2" d="M1309,39l-30.7,6l-1.1-5.7c-0.5-2.8,1.3-5.5,4.1-6.1l25.6-5l7.3-1.4l25.7-5c2.8-0.5,5.5,1.3,6.1,4.1l1.1,5.7
			l-30.8,6L1309,39z"/>
		<path class="st2" d="M1338.7,42.9l4.9,25.1l-12.7,36.8l-11.4-58.2l-10.1,2l11.4,58.2l-25.6-29.3l-4.9-25.1l-10.1,2l5.2,26.5
			c0.2,0.9,0.6,1.7,1.2,2.4l39.1,44.9c2.6,2.9,7.5,2,8.8-1.7l19.4-56.3c0.3-0.9,0.4-1.8,0.2-2.7l-5.2-26.5L1338.7,42.9z"/>
	</g>
	<g id="Logomark_19_" class="st1">
		<path class="st2" d="M1480.8,5.4l-30.8,6l-7.3,1.4l-30.7,6l-1.1-5.7c-0.5-2.8,1.3-5.5,4.1-6.1l25.6-5l7.3-1.4l3.2-0.6h28.7
			L1480.8,5.4z"/>
		<path class="st2" d="M1472.5,16.7l4.9,25.1l-12.7,36.8l-11.4-58.2l-10.1,2l11.4,58.2l-25.6-29.3l-4.9-25.1l-10.1,2l5.2,26.5
			c0.2,0.9,0.6,1.7,1.2,2.4l39.1,44.9c2.6,2.9,7.5,2,8.8-1.7l19.4-56.3c0.3-0.9,0.4-1.8,0.2-2.7l-5.2-26.5L1472.5,16.7z"/>
	</g>
	<g id="Logomark_18_" class="st1">
		<path class="st2" d="M1621.5,17.8l-19.4,56.3c-1.3,3.7-6.2,4.7-8.8,1.7l-39.1-44.9c-0.6-0.7-1-1.5-1.2-2.4L1547.8,2l10.1-2
			l4.9,25.1l25.6,29.3L1577.8,0h10.5l10.3,52.5l12.7-36.8L1608.2,0h10.5l2.9,15.1C1621.8,16,1621.8,16.9,1621.5,17.8z"/>
	</g>
	<g id="Logomark_17_" class="st1">
		<path class="st2" d="M1752.4,0l-16.5,48c-1.3,3.7-6.2,4.7-8.8,1.7L1688,4.8c-0.6-0.7-1-1.5-1.2-2.4l-0.5-2.4h11.2l24.7,28.4
			L1716.7,0h10.5l5.1,26.4l9.1-26.4H1752.4z"/>
	</g>
	<g id="Logomark_46_" class="st1">
		<path class="st2" d="M30.4,429L0,435v-10.5l28.5-5.6c2.8-0.5,5.5,1.3,6.1,4.1S33.2,428.5,30.4,429z"/>
		<path class="st2" d="M39.1,452H28.5l-0.6-3.3L11.2,452H0v-8.4l31-6.1c2.8-0.5,5.5,1.3,6.1,4.1L39.1,452z"/>
	</g>
	<g id="Logomark_45_" class="st1">
		<path class="st2" d="M109.6,441c-2.8,0.5-4.6,3.3-4.1,6.1c0.5,2.8,3.3,4.6,6.1,4.1l58.7-11.5c2.8-0.5,4.6-3.3,4.1-6.1l-3.5-18.1
			c-0.5-2.8-3.3-4.6-6.1-4.1l-52.2,10.2l-1.6-8.3l53.3-10.4c2.8-0.5,4.6-3.3,4.1-6.1c-0.5-2.8-3.3-4.6-6.1-4.1l-58.3,11.4
			c-2.8,0.5-4.6,3.3-4.1,6.1l3.6,18.5c0.5,2.8,3.3,4.6,6.1,4.1l52.2-10.2l1.6,8L109.6,441z"/>
		<path class="st2" d="M178.8,452h-30.2l24-4.7c2.8-0.5,5.5,1.3,6.1,4.1L178.8,452z"/>
	</g>
	<g id="Logomark_44_" class="st1">
		<path class="st2" d="M243.5,414.9c-2.8,0.5-4.6,3.3-4.1,6.1c0.5,2.8,3.3,4.6,6.1,4.1l58.7-11.5c2.8-0.5,4.6-3.3,4.1-6.1l-3.5-18.1
			c-0.5-2.8-3.3-4.6-6.1-4.1l-52.2,10.2l-1.6-8.3l53.3-10.4c2.8-0.5,4.6-3.3,4.1-6.1c-0.5-2.8-3.3-4.6-6.1-4.1L237.8,378
			c-2.8,0.5-4.6,3.3-4.1,6.1l3.6,18.5c0.5,2.8,3.3,4.6,6.1,4.1l52.2-10.2l1.6,8L243.5,414.9z"/>
		<path class="st2" d="M275.6,438.4l-30.7,6l-1.1-5.7c-0.5-2.8,1.3-5.5,4.1-6.1l25.6-5l7.3-1.4l25.7-5c2.8-0.5,5.5,1.3,6.1,4.1
			l1.1,5.7l-30.8,6L275.6,438.4z"/>
		<polygon class="st2" points="256.9,451.8 257,452 255.7,452 		"/>
		<polygon class="st2" points="286.2,446.1 287.3,452 276.8,452 276,448 		"/>
		<polygon class="st2" points="317.7,452 307.2,452 305.3,442.3 315.4,440.3 		"/>
	</g>
	<g id="Logomark_43_" class="st1">
		<path class="st2" d="M377.3,388.8c-2.8,0.5-4.6,3.3-4.1,6.1c0.5,2.8,3.3,4.6,6.1,4.1l58.7-11.5c2.8-0.5,4.6-3.3,4.1-6.1l-3.5-18.1
			c-0.5-2.8-3.3-4.6-6.1-4.1l-52.2,10.2l-1.6-8.3l53.3-10.4c2.8-0.5,4.6-3.3,4.1-6.1c-0.5-2.8-3.3-4.6-6.1-4.1l-58.3,11.4
			c-2.8,0.5-4.6,3.3-4.1,6.1l3.6,18.5c0.5,2.8,3.3,4.6,6.1,4.1l52.2-10.2l1.6,8L377.3,388.8z"/>
		<path class="st2" d="M409.4,412.3l-30.7,6l-1.1-5.7c-0.5-2.8,1.3-5.5,4.1-6.1l25.6-5l7.3-1.4l25.7-5c2.8-0.5,5.5,1.3,6.1,4.1
			l1.1,5.7l-30.8,6L409.4,412.3z"/>
		<polygon class="st2" points="395.7,450.8 396.8,452 385.4,452 380.6,427.6 390.8,425.6 		"/>
		<polygon class="st2" points="420,419.9 426.3,452 415.7,452 409.9,421.9 		"/>
		<path class="st2" d="M454.3,443.4l-3,8.6h-10.9l3.7-10.7l-4.9-25.1l10.1-2l5.2,26.5C454.6,441.6,454.5,442.5,454.3,443.4z"/>
	</g>
	<g id="Logomark_42_" class="st1">
		<path class="st2" d="M511.1,362.6c-2.8,0.5-4.6,3.3-4.1,6.1c0.5,2.8,3.3,4.6,6.1,4.1l58.7-11.5c2.8-0.5,4.6-3.3,4.1-6.1l-3.5-18.1
			c-0.5-2.8-3.3-4.6-6.1-4.1l-52.2,10.2l-1.6-8.3l53.3-10.4c2.8-0.5,4.6-3.3,4.1-6.1c-0.5-2.8-3.3-4.6-6.1-4.1l-58.3,11.4
			c-2.8,0.5-4.6,3.3-4.1,6.1l3.6,18.5c0.5,2.8,3.3,4.6,6.1,4.1l52.2-10.2l1.6,8L511.1,362.6z"/>
		<path class="st2" d="M543.2,386.2l-30.7,6l-1.1-5.7c-0.5-2.8,1.3-5.5,4.1-6.1l25.6-5l7.3-1.4l25.7-5c2.8-0.5,5.5,1.3,6.1,4.1
			l1.1,5.7l-30.8,6L543.2,386.2z"/>
		<path class="st2" d="M529.5,424.6l23.9,27.4h-13.7l-18.9-21.6c-0.6-0.7-1-1.5-1.2-2.4l-5.2-26.5l10.1-2L529.5,424.6z"/>
		<path class="st2" d="M588.1,417.2l-12,34.8h-21.4l-11-56.2l10.2-2l11.4,58.2l12.7-36.8l-4.9-25.1l10.2-2l5.2,26.5
			C588.4,415.4,588.4,416.4,588.1,417.2z"/>
	</g>
	<g id="Logomark_41_" class="st1">
		<path class="st2" d="M644.9,336.5c-2.8,0.5-4.6,3.3-4.1,6.1c0.5,2.8,3.3,4.6,6.1,4.1l58.7-11.5c2.8-0.5,4.6-3.3,4.1-6.1l-3.5-18.1
			c-0.5-2.8-3.3-4.6-6.1-4.1l-52.2,10.2l-1.6-8.3l53.3-10.4c2.8-0.5,4.6-3.3,4.1-6.1c-0.5-2.8-3.3-4.6-6.1-4.1l-58.3,11.4
			c-2.8,0.5-4.6,3.3-4.1,6.1l3.6,18.5c0.5,2.8,3.3,4.6,6.1,4.1L697,318l1.6,8L644.9,336.5z"/>
		<path class="st2" d="M677,360l-30.7,6l-1.1-5.7c-0.5-2.8,1.3-5.5,4.1-6.1l25.6-5l7.3-1.4l25.7-5c2.8-0.5,5.5,1.3,6.1,4.1l1.1,5.7
			l-30.8,6L677,360z"/>
		<path class="st2" d="M706.8,363.9l4.9,25.1L699,425.8l-11.4-58.2l-10.1,2l11.4,58.2l-25.6-29.3l-4.9-25.1l-10.1,2l5.2,26.5
			c0.2,0.9,0.6,1.7,1.2,2.4l39.1,44.9c2.6,2.9,7.5,2,8.8-1.7l19.4-56.3c0.3-0.9,0.4-1.8,0.2-2.7l-5.2-26.5L706.8,363.9z"/>
	</g>
	<g id="Logomark_40_" class="st1">
		<path class="st2" d="M778.8,310.4c-2.8,0.5-4.6,3.3-4.1,6.1c0.5,2.8,3.3,4.6,6.1,4.1l58.7-11.5c2.8-0.5,4.6-3.3,4.1-6.1l-3.5-18.1
			c-0.5-2.8-3.3-4.6-6.1-4.1L781.7,291l-1.6-8.3l53.3-10.4c2.8-0.5,4.6-3.3,4.1-6.1c-0.5-2.8-3.3-4.6-6.1-4.1l-58.3,11.4
			c-2.8,0.5-4.6,3.3-4.1,6.1l3.6,18.5c0.5,2.8,3.3,4.6,6.1,4.1l52.2-10.2l1.6,8L778.8,310.4z"/>
		<path class="st2" d="M810.9,333.9l-30.7,6l-1.1-5.7c-0.5-2.8,1.3-5.5,4.1-6.1l25.6-5l7.3-1.4l25.7-5c2.8-0.5,5.5,1.3,6.1,4.1
			l1.1,5.7l-30.8,6L810.9,333.9z"/>
		<path class="st2" d="M840.6,337.8l4.9,25.1l-12.7,36.8l-11.4-58.2l-10.1,2l11.4,58.2l-25.6-29.3l-4.9-25.1l-10.1,2l5.2,26.5
			c0.2,0.9,0.6,1.7,1.2,2.4l39.1,44.9c2.6,2.9,7.5,2,8.8-1.7l19.4-56.3c0.3-0.9,0.4-1.8,0.2-2.7l-5.2-26.5L840.6,337.8z"/>
	</g>
	<g id="Logomark_39_" class="st1">
		<path class="st2" d="M912.6,284.2c-2.8,0.5-4.6,3.3-4.1,6.1c0.5,2.8,3.3,4.6,6.1,4.1l58.7-11.5c2.8-0.5,4.6-3.3,4.1-6.1l-3.5-18.1
			c-0.5-2.8-3.3-4.6-6.1-4.1l-52.2,10.2l-1.6-8.3l53.3-10.4c2.8-0.5,4.6-3.3,4.1-6.1c-0.5-2.8-3.3-4.6-6.1-4.1l-58.3,11.4
			c-2.8,0.5-4.6,3.3-4.1,6.1l3.6,18.5c0.5,2.8,3.3,4.6,6.1,4.1l52.2-10.2l1.6,8L912.6,284.2z"/>
		<path class="st2" d="M944.7,307.7l-30.7,6l-1.1-5.7c-0.5-2.8,1.3-5.5,4.1-6.1l25.6-5l7.3-1.4l25.7-5c2.8-0.5,5.5,1.3,6.1,4.1
			l1.1,5.7l-30.8,6L944.7,307.7z"/>
		<path class="st2" d="M974.4,311.6l4.9,25.1l-12.7,36.8l-11.4-58.2l-10.1,2l11.4,58.2l-25.6-29.3l-4.9-25.1l-10.1,2l5.2,26.5
			c0.2,0.9,0.6,1.7,1.2,2.4l39.1,44.9c2.6,2.9,7.5,2,8.8-1.7l19.4-56.3c0.3-0.9,0.4-1.8,0.2-2.7l-5.2-26.5L974.4,311.6z"/>
	</g>
	<g id="Logomark_38_" class="st1">
		<path class="st2" d="M1046.4,258.1c-2.8,0.5-4.6,3.3-4.1,6.1c0.5,2.8,3.3,4.6,6.1,4.1l58.7-11.5c2.8-0.5,4.6-3.3,4.1-6.1
			l-3.5-18.1c-0.5-2.8-3.3-4.6-6.1-4.1l-52.2,10.2l-1.6-8.3L1101,220c2.8-0.5,4.6-3.3,4.1-6.1c-0.5-2.8-3.3-4.6-6.1-4.1l-58.3,11.4
			c-2.8,0.5-4.6,3.3-4.1,6.1l3.6,18.5c0.5,2.8,3.3,4.6,6.1,4.1l52.2-10.2l1.6,8L1046.4,258.1z"/>
		<path class="st2" d="M1078.5,281.6l-30.7,6l-1.1-5.7c-0.5-2.8,1.3-5.5,4.1-6.1l25.6-5l7.3-1.4l25.7-5c2.8-0.5,5.5,1.3,6.1,4.1
			l1.1,5.7l-30.8,6L1078.5,281.6z"/>
		<path class="st2" d="M1108.2,285.5l4.9,25.1l-12.7,36.8l-11.4-58.2l-10.1,2l11.4,58.2l-25.6-29.3l-4.9-25.1l-10.1,2l5.2,26.5
			c0.2,0.9,0.6,1.7,1.2,2.4l39.1,44.9c2.6,2.9,7.5,2,8.8-1.7l19.4-56.3c0.3-0.9,0.4-1.8,0.2-2.7l-5.2-26.5L1108.2,285.5z"/>
	</g>
	<g id="Logomark_37_" class="st1">
		<path class="st2" d="M1180.2,231.9c-2.8,0.5-4.6,3.3-4.1,6.1c0.5,2.8,3.3,4.6,6.1,4.1l58.7-11.5c2.8-0.5,4.6-3.3,4.1-6.1
			l-3.5-18.1c-0.5-2.8-3.3-4.6-6.1-4.1l-52.2,10.2l-1.6-8.3l53.3-10.4c2.8-0.5,4.6-3.3,4.1-6.1c-0.5-2.8-3.3-4.6-6.1-4.1l-58.3,11.4
			c-2.8,0.5-4.6,3.3-4.1,6.1l3.6,18.5c0.5,2.8,3.3,4.6,6.1,4.1l52.2-10.2l1.6,8L1180.2,231.9z"/>
		<path class="st2" d="M1212.3,255.5l-30.7,6l-1.1-5.7c-0.5-2.8,1.3-5.5,4.1-6.1l25.6-5l7.3-1.4l25.7-5c2.8-0.5,5.5,1.3,6.1,4.1
			l1.1,5.7l-30.8,6L1212.3,255.5z"/>
		<path class="st2" d="M1242.1,259.4l4.9,25.1l-12.7,36.8l-11.4-58.2l-10.1,2l11.4,58.2l-25.6-29.3l-4.9-25.1l-10.1,2l5.2,26.5
			c0.2,0.9,0.6,1.7,1.2,2.4l39.1,44.9c2.6,2.9,7.5,2,8.8-1.7l19.4-56.3c0.3-0.9,0.4-1.8,0.2-2.7l-5.2-26.5L1242.1,259.4z"/>
	</g>
	<g id="Logomark_36_" class="st1">
		<path class="st2" d="M1314,205.8c-2.8,0.5-4.6,3.3-4.1,6.1c0.5,2.8,3.3,4.6,6.1,4.1l58.7-11.5c2.8-0.5,4.6-3.3,4.1-6.1l-3.5-18.1
			c-0.5-2.8-3.3-4.6-6.1-4.1l-52.2,10.2l-1.6-8.3l53.3-10.4c2.8-0.5,4.6-3.3,4.1-6.1c-0.5-2.8-3.3-4.6-6.1-4.1l-58.3,11.4
			c-2.8,0.5-4.6,3.3-4.1,6.1l3.6,18.5c0.5,2.8,3.3,4.6,6.1,4.1l52.2-10.2l1.6,8L1314,205.8z"/>
		<path class="st2" d="M1346.2,229.3l-30.7,6l-1.1-5.7c-0.5-2.8,1.3-5.5,4.1-6.1l25.6-5l7.3-1.4l25.7-5c2.8-0.5,5.5,1.3,6.1,4.1
			l1.1,5.7l-30.8,6L1346.2,229.3z"/>
		<path class="st2" d="M1375.9,233.2l4.9,25.1l-12.7,36.8l-11.4-58.2l-10.1,2l11.4,58.2l-25.6-29.3l-4.9-25.1l-10.1,2l5.2,26.5
			c0.2,0.9,0.6,1.7,1.2,2.4l39.1,44.9c2.6,2.9,7.5,2,8.8-1.7l19.4-56.3c0.3-0.9,0.4-1.8,0.2-2.7l-5.2-26.5L1375.9,233.2z"/>
	</g>
	<g id="Logomark_35_" class="st1">
		<path class="st2" d="M1447.9,179.7c-2.8,0.5-4.6,3.3-4.1,6.1c0.5,2.8,3.3,4.6,6.1,4.1l58.7-11.5c2.8-0.5,4.6-3.3,4.1-6.1
			l-3.5-18.1c-0.5-2.8-3.3-4.6-6.1-4.1l-52.2,10.2l-1.6-8.3l53.3-10.4c2.8-0.5,4.6-3.3,4.1-6.1c-0.5-2.8-3.3-4.6-6.1-4.1l-58.3,11.4
			c-2.8,0.5-4.6,3.3-4.1,6.1l3.6,18.5c0.5,2.8,3.3,4.6,6.1,4.1l52.2-10.2l1.6,8L1447.9,179.7z"/>
		<path class="st2" d="M1480,203.2l-30.7,6l-1.1-5.7c-0.5-2.8,1.3-5.5,4.1-6.1l25.6-5l7.3-1.4l25.7-5c2.8-0.5,5.5,1.3,6.1,4.1
			l1.1,5.7l-30.8,6L1480,203.2z"/>
		<path class="st2" d="M1509.7,207.1l4.9,25.1L1502,269l-11.4-58.2l-10.1,2l11.4,58.2l-25.6-29.3l-4.9-25.1l-10.1,2l5.2,26.5
			c0.2,0.9,0.6,1.7,1.2,2.4l39.1,44.9c2.6,2.9,7.5,2,8.8-1.7l19.4-56.3c0.3-0.9,0.4-1.8,0.2-2.7l-5.2-26.5L1509.7,207.1z"/>
	</g>
	<g id="Logomark_34_" class="st1">
		<path class="st2" d="M1581.7,153.5c-2.8,0.5-4.6,3.3-4.1,6.1c0.5,2.8,3.3,4.6,6.1,4.1l58.7-11.5c2.8-0.5,4.6-3.3,4.1-6.1
			l-3.5-18.1c-0.5-2.8-3.3-4.6-6.1-4.1l-52.2,10.2l-1.6-8.3l53.3-10.4c2.8-0.5,4.6-3.3,4.1-6.1c-0.5-2.8-3.3-4.6-6.1-4.1l-58.3,11.4
			c-2.8,0.5-4.6,3.3-4.1,6.1l3.6,18.5c0.5,2.8,3.3,4.6,6.1,4.1l52.2-10.2l1.6,8L1581.7,153.5z"/>
		<path class="st2" d="M1613.8,177.1l-30.7,6l-1.1-5.7c-0.5-2.8,1.3-5.5,4.1-6.1l25.6-5l7.3-1.4l25.7-5c2.8-0.5,5.5,1.3,6.1,4.1
			l1.1,5.7l-30.8,6L1613.8,177.1z"/>
		<path class="st2" d="M1643.5,181l4.9,25.1l-12.7,36.8l-11.4-58.2l-10.1,2l11.4,58.2l-25.6-29.3l-4.9-25.1l-10.1,2l5.2,26.5
			c0.2,0.9,0.6,1.7,1.2,2.4l39.1,44.9c2.6,2.9,7.5,2,8.8-1.7l19.4-56.3c0.3-0.9,0.4-1.8,0.2-2.7l-5.2-26.5L1643.5,181z"/>
	</g>
	<g id="Logomark_33_" class="st1">
		<path class="st2" d="M1715.5,127.4c-2.8,0.5-4.6,3.3-4.1,6.1c0.5,2.8,3.3,4.6,6.1,4.1l58.7-11.5c2.8-0.5,4.6-3.3,4.1-6.1
			l-3.5-18.1c-0.5-2.8-3.3-4.6-6.1-4.1l-52.2,10.2l-1.6-8.3l53.3-10.4c2.8-0.5,4.6-3.3,4.1-6.1c-0.5-2.8-3.3-4.6-6.1-4.1l-58.3,11.4
			c-2.8,0.5-4.6,3.3-4.1,6.1l3.6,18.5c0.5,2.8,3.3,4.6,6.1,4.1l52.2-10.2l1.6,8L1715.5,127.4z"/>
		<path class="st2" d="M1747.6,150.9l-30.7,6l-1.1-5.7c-0.5-2.8,1.3-5.5,4.1-6.1l25.6-5l7.3-1.4l25.7-5c2.8-0.5,5.5,1.3,6.1,4.1
			l1.1,5.7l-30.8,6L1747.6,150.9z"/>
		<path class="st2" d="M1777.3,154.8l4.9,25.1l-12.7,36.8l-11.4-58.2l-10.1,2l11.4,58.2l-25.6-29.3l-4.9-25.1l-10.1,2l5.2,26.5
			c0.2,0.9,0.6,1.7,1.2,2.4l39.1,44.9c2.6,2.9,7.5,2,8.8-1.7l19.4-56.3c0.3-0.9,0.4-1.8,0.2-2.7l-5.2-26.5L1777.3,154.8z"/>
	</g>
	<g id="Logomark_55_" class="st1">
		<path class="st2" d="M1006.6,448l-20.6,4h-43.4c0.7-1.4,2-2.5,3.6-2.8l58.3-11.4c2.8-0.5,5.5,1.3,6.1,4.1
			C1011.3,444.7,1009.4,447.4,1006.6,448z"/>
	</g>
	<g id="Logomark_54_" class="st1">
		<path class="st2" d="M1126.6,452l12.8-2.5l-1.6-8l-52.2,10.2c-2.8,0.6-5.5-1.3-6.1-4.1l-3.6-18.5c-0.6-2.8,1.3-5.5,4.1-6.1
			l58.3-11.4c2.8-0.6,5.5,1.3,6.1,4.1c0.6,2.8-1.3,5.5-4.1,6.1l-53.3,10.4l1.6,8.3l52.2-10.2c2.8-0.6,5.5,1.3,6.1,4.1l3.4,17.5
			H1126.6z"/>
	</g>
	<g id="Logomark_53_" class="st1">
		<path class="st2" d="M1219.7,433.8c-2.8,0.5-4.6,3.3-4.1,6.1c0.5,2.8,3.3,4.6,6.1,4.1l58.7-11.5c2.8-0.5,4.6-3.3,4.1-6.1
			l-3.5-18.1c-0.5-2.8-3.3-4.6-6.1-4.1l-52.2,10.2l-1.6-8.3l53.3-10.4c2.8-0.5,4.6-3.3,4.1-6.1c-0.5-2.8-3.3-4.6-6.1-4.1L1214,397
			c-2.8,0.5-4.6,3.3-4.1,6.1l3.6,18.5c0.5,2.8,3.3,4.6,6.1,4.1l52.2-10.2l1.6,8L1219.7,433.8z"/>
		<path class="st2" d="M1289.8,449.9l-10.6,2.1h-56.5c0.4-0.2,0.8-0.4,1.3-0.4l25.6-5l7.3-1.4l25.7-5c2.8-0.5,5.5,1.3,6.1,4.1
			L1289.8,449.9z"/>
	</g>
	<g id="Logomark_52_" class="st1">
		<path class="st2" d="M1353.5,407.7c-2.8,0.5-4.6,3.3-4.1,6.1c0.5,2.8,3.3,4.6,6.1,4.1l58.7-11.5c2.8-0.5,4.6-3.3,4.1-6.1
			l-3.5-18.1c-0.5-2.8-3.3-4.6-6.1-4.1l-52.2,10.2l-1.6-8.3l53.3-10.4c2.8-0.5,4.6-3.3,4.1-6.1c-0.5-2.8-3.3-4.6-6.1-4.1l-58.3,11.4
			c-2.8,0.5-4.6,3.3-4.1,6.1l3.6,18.5c0.5,2.8,3.3,4.6,6.1,4.1l52.2-10.2l1.6,8L1353.5,407.7z"/>
		<path class="st2" d="M1385.6,431.2l-30.7,6l-1.1-5.7c-0.5-2.8,1.3-5.5,4.1-6.1l25.6-5l7.3-1.4l25.7-5c2.8-0.5,5.5,1.3,6.1,4.1
			l1.1,5.7l-30.8,6L1385.6,431.2z"/>
		<polygon class="st2" points="1366.9,444.6 1368.4,452 1357.9,452 1356.8,446.5 		"/>
		<polygon class="st2" points="1396.2,438.8 1398.8,452 1388.2,452 1386.1,440.8 		"/>
		<polygon class="st2" points="1429.1,452 1418.6,452 1415.3,435.1 1425.4,433.1 		"/>
	</g>
	<g id="Logomark_51_" class="st1">
		<path class="st2" d="M1487.3,381.6c-2.8,0.5-4.6,3.3-4.1,6.1c0.5,2.8,3.3,4.6,6.1,4.1l58.7-11.5c2.8-0.5,4.6-3.3,4.1-6.1
			l-3.5-18.1c-0.5-2.8-3.3-4.6-6.1-4.1l-52.2,10.2l-1.6-8.3l53.3-10.4c2.8-0.5,4.6-3.3,4.1-6.1c-0.5-2.8-3.3-4.6-6.1-4.1l-58.3,11.4
			c-2.8,0.5-4.6,3.3-4.1,6.1l3.6,18.5c0.5,2.8,3.3,4.6,6.1,4.1l52.2-10.2l1.6,8L1487.3,381.6z"/>
		<path class="st2" d="M1519.4,405.1l-30.7,6l-1.1-5.7c-0.5-2.8,1.3-5.5,4.1-6.1l25.6-5l7.3-1.4l25.7-5c2.8-0.5,5.5,1.3,6.1,4.1
			l1.1,5.7l-30.8,6L1519.4,405.1z"/>
		<path class="st2" d="M1505.7,443.6l7.4,8.4h-13.7l-2.4-2.7c-0.6-0.7-1-1.5-1.2-2.4l-5.2-26.5l10.2-2L1505.7,443.6z"/>
		<polygon class="st2" points="1530,412.7 1537.7,452 1527.2,452 1519.9,414.7 		"/>
		<path class="st2" d="M1564.3,436.1l-5.4,15.9h-10.9l6.2-17.9l-4.9-25.1l10.2-2l5.2,26.5C1564.6,434.4,1564.6,435.3,1564.3,436.1z"
			/>
	</g>
	<g id="Logomark_50_" class="st1">
		<path class="st2" d="M1621.1,355.4c-2.8,0.5-4.6,3.3-4.1,6.1c0.5,2.8,3.3,4.6,6.1,4.1l58.7-11.5c2.8-0.5,4.6-3.3,4.1-6.1
			l-3.5-18.1c-0.5-2.8-3.3-4.6-6.1-4.1l-52.2,10.2l-1.6-8.3l53.3-10.4c2.8-0.5,4.6-3.3,4.1-6.1c-0.5-2.8-3.3-4.6-6.1-4.1l-58.3,11.4
			c-2.8,0.5-4.6,3.3-4.1,6.1l3.6,18.5c0.5,2.8,3.3,4.6,6.1,4.1l52.2-10.2l1.6,8L1621.1,355.4z"/>
		<path class="st2" d="M1653.2,379l-30.7,6l-1.1-5.7c-0.5-2.8,1.3-5.5,4.1-6.1l25.6-5l7.3-1.4l25.7-5c2.8-0.5,5.5,1.3,6.1,4.1
			l1.1,5.7l-30.8,6L1653.2,379z"/>
		<path class="st2" d="M1698.1,410l-14.4,42h-27.7l-25.1-28.8c-0.6-0.7-1-1.5-1.2-2.4l-5.2-26.5l10.1-2l4.9,25.1l25.6,29.3
			l-11.4-58.2l10.1-2l11.4,58.2l12.7-36.8l-4.9-25.1l10.2-2l5.2,26.5C1698.4,408.2,1698.4,409.2,1698.1,410z"/>
	</g>
	<g id="Logomark_49_" class="st1">
		<path class="st2" d="M1809.6,291.2l-53.3,10.4l1.6,8.3l52.1-10.2v29.4l-53.1,10.4c-2.8,0.6-5.5-1.3-6.1-4.1s1.3-5.5,4.1-6.1
			l53.6-10.5l-1.6-8l-52.2,10.2c-2.8,0.5-5.5-1.3-6.1-4.1l-3.6-18.5c-0.5-2.8,1.3-5.5,4.1-6.1l58.3-11.4c0.8-0.2,1.7-0.1,2.4,0.1
			v9.9C1809.9,291.1,1809.7,291.1,1809.6,291.2z"/>
		<path class="st2" d="M1810,337.1v11.2l-15.7,3.1l-7.3,1.4l-30.7,6l-1.1-5.7c-0.6-2.8,1.3-5.5,4.1-6.1l25.6-5l7.3-1.4L1810,337.1z"
			/>
		<path class="st2" d="M1810,415.8v27.3c-2,1-4.6,0.7-6.3-1.2l-39.1-44.9c-0.6-0.7-1-1.5-1.2-2.4l-5.2-26.5l10.1-2l4.9,25.1
			l25.6,29.3l-11.4-58.2l10.1-2l11.4,58.2L1810,415.8z"/>
	</g>
</g>
</svg>
