<svg xmlns="http://www.w3.org/2000/svg" viewBox="0 0 32.92 31.7"><defs><style>.cls-1{fill:#004643;}</style></defs><g id="Main"><path class="cls-1" d="M28.59,30.06a.7.7,0,0,0,.71-.7V8.63a.69.69,0,0,0-.25-.54L22.21,2.24l0,0-.05,0-.06,0-.05,0-.08,0-.05,0H2a.71.71,0,0,0-.71.71V29.37a.71.71,0,0,0,.71.71H28.59v0Zm-5.14-1.41H7.15V18.05a.37.37,0,0,1,.38-.38H23.07a.37.37,0,0,1,.38.38ZM10.62,3.49H21v7.36a.07.07,0,0,1-.08.08H10.71a.08.08,0,0,1-.08-.08V3.49Zm-7.9,0h6.5v7.36a1.49,1.49,0,0,0,1.49,1.49H21a1.5,1.5,0,0,0,1.5-1.49V4.31L27.88,9V28.65h-3V18.05a1.8,1.8,0,0,0-1.79-1.8H7.53a1.8,1.8,0,0,0-1.79,1.8V28.66h-3Z"/><path class="cls-1" d="M14.4,6.55h3.1V8.43a.71.71,0,0,0,1.42,0V5.85a.71.71,0,0,0-.71-.71H14.4a.71.71,0,1,0,0,1.41Z"/><path class="cls-1" d="M18.84,20.68H11.76a.71.71,0,1,0,0,1.42h7.08a.71.71,0,1,0,0-1.42Z"/><path class="cls-1" d="M18.84,24.42H11.76a.71.71,0,1,0,0,1.42h7.08a.71.71,0,0,0,0-1.42Z"/></g></svg>