<svg xmlns="http://www.w3.org/2000/svg" viewBox="0 0 27 26"><defs><style>.cls-1{fill:#fff;}</style></defs><g id="Main"><g id="video-svgrepo-com"><path id="Path_53" data-name="Path 53" class="cls-1" d="M21.86,10a.51.51,0,0,0-.53,0l-3.06,1.77a.41.41,0,0,0-.11.07V10a1.24,1.24,0,0,0-1.24-1.24H5.41a.52.52,0,0,0-.53.53h0v1.46a.53.53,0,0,0,.53.53H7V16.2a.53.53,0,0,0,.53.54H8.81v.85a.54.54,0,0,0,.54.53h6.41a.53.53,0,0,0,.53-.53v-.85h1.34a.54.54,0,0,0,.53-.54V13.65l.11.08,3.06,1.77a.54.54,0,0,0,.73-.2.48.48,0,0,0,.07-.26V10.45A.52.52,0,0,0,21.86,10Zm-15.92.22v-.4h1v.4Zm9.29,6.85H9.88v-.32h5.35Zm1.86-1.39H8V9.81h8.9a.18.18,0,0,1,.18.18v5.68Zm4-1.56L18.8,12.8a.08.08,0,0,1,0-.1l0,0,2.27-1.31Z"/><path id="Path_54" data-name="Path 54" class="cls-1" d="M11.22,10.54H9.15a.54.54,0,1,0,0,1.07h2.07a.54.54,0,0,0,0-1.07Z"/></g></g></svg>