<svg xmlns="http://www.w3.org/2000/svg" viewBox="0 0 16.86 16.86"><defs><style>.cls-1{fill:#b2b9c4;}</style></defs><g id="Layer_2" data-name="Layer 2"><g id="Main"><path class="cls-1" d="M0,6.05V16.86H16.86V6.05Zm11.82,9.34H5V14.11a1.68,1.68,0,0,0,1.2-.49c.19-.15.27-.23.49-.23s.31.08.5.23a1.66,1.66,0,0,0,1.2.49,1.68,1.68,0,0,0,1.2-.49c.19-.15.27-.23.49-.23s.31.08.5.23a1.66,1.66,0,0,0,1.2.49v1.28Zm0-2.38a.63.63,0,0,1-.49-.23,1.73,1.73,0,0,0-2.41,0,.64.64,0,0,1-1,0,1.73,1.73,0,0,0-2.41,0A.63.63,0,0,1,5,13V12.1H5A.93.93,0,0,1,6,11.18H7.88V10.3a1.14,1.14,0,0,1-.59-1A2.2,2.2,0,0,1,8.43,7.51,2.2,2.2,0,0,1,9.57,9.3a1.14,1.14,0,0,1-.59,1v.88h1.91a.93.93,0,0,1,.93.92V13Z"/><path class="cls-1" d="M15,1.1h-.73V2.2a1.65,1.65,0,1,1-3.3,0V1.1H5.86V2.2a1.65,1.65,0,1,1-3.29,0V1.1H1.83A1.83,1.83,0,0,0,0,2.93V5H16.86v-2A1.84,1.84,0,0,0,15,1.1Z"/><path class="cls-1" d="M4.21,0a.55.55,0,0,0-.55.55V2.2a.55.55,0,0,0,.55.55.55.55,0,0,0,.55-.55V.55A.55.55,0,0,0,4.21,0Z"/><path class="cls-1" d="M12.64,0a.55.55,0,0,0-.55.55V2.2a.55.55,0,0,0,.55.55.55.55,0,0,0,.55-.55V.55A.55.55,0,0,0,12.64,0Z"/></g></g></svg>