<svg xmlns="http://www.w3.org/2000/svg" viewBox="0 0 27 26"><defs><style>.cls-1{fill:#fff;}</style></defs><g id="Main"><path id="tv-monitor-svgrepo-com" class="cls-1" d="M18.6,7.11H8.4A1.21,1.21,0,0,0,7.19,8.32v7.6A1.22,1.22,0,0,0,8.4,17.14h3.1v.94H10.14a.41.41,0,0,0,0,.81h6.72a.41.41,0,1,0,0-.81H15.5v-.94h3.1a1.21,1.21,0,0,0,1.21-1.21V8.33A1.22,1.22,0,0,0,18.6,7.11ZM8.4,7.92H18.6a.41.41,0,0,1,.4.4v6H8v-6A.4.4,0,0,1,8.4,7.92Zm6.29,10.16H12.31v-.94h2.38Zm3.91-1.75H8.4a.41.41,0,0,1-.4-.4v-.8H19v.79a.4.4,0,0,1-.4.41Z"/></g></svg>