<svg xmlns="http://www.w3.org/2000/svg" viewBox="0 0 456.46 414.47"><defs><style>.cls-1,.cls-10{fill:#f9bc60;}.cls-2,.cls-9{fill:#001e1d;}.cls-3,.cls-4{fill:#fffffe;}.cls-3{stroke:#061e1d;stroke-linecap:round;stroke-linejoin:round;stroke-width:2.1px;}.cls-5{fill:#061e1d;}.cls-6{fill:#004643;}.cls-7{fill:#89c5cc;}.cls-8{fill:#b28b67;}.cls-10,.cls-11,.cls-13,.cls-14,.cls-15,.cls-16,.cls-17,.cls-8,.cls-9{fill-rule:evenodd;}.cls-11{fill:#273eaf;}.cls-12{fill:#142322;}.cls-13{fill:#3f53e0;}.cls-14{fill:#e4e4e4;}.cls-15{fill:#c4414e;}.cls-16{fill:#dde3e9;}.cls-17{fill:#e16162;}</style></defs><g id="Layer_2" data-name="Layer 2"><g id="Layer_1-2" data-name="Layer 1"><path class="cls-1" d="M435,12.13V207.57a12.12,12.12,0,0,1-12.12,12.12h-94.6V59.1A12.13,12.13,0,0,0,316.15,47H140.73V12.13A12.13,12.13,0,0,1,152.86,0h270A12.13,12.13,0,0,1,435,12.13Z"/><path class="cls-2" d="M364,313.75c23.95-71.79-9-186.38-9-186.38S280.44,222.2,247,299.12,364,313.75,364,313.75Z"/><path class="cls-2" d="M456.46,255.88c-.17.36-5.82,11.78-15.62,28.33h0c-13.82,9.11-35.94,22.63-45.29,24.86,5.55-.78,19.91-2.92,33.77-6.21-7,10.82-15.11,22.57-24.16,34.24-13.54,1.13-27.69,1.69-34.13.21,4.64,1.56,15.6,5.14,27.45,8.19-17.69,21.58-38.38,42-60.58,54.46,0,0-153.22-54.9-76.8-89.43,25.89-11.69,56.65-21.73,86-29.89-6.36,14.78-15.15,33.3-20.77,39.49,7-6.36,32.31-29.8,40.23-44.71,7.29-1.87,14.39-3.62,21.21-5.24-4.52,9.32-9.13,17.69-12.56,21.47,4.2-3.8,14.94-13.72,24.58-24.27C432.54,259.94,456.09,255.93,456.46,255.88Z"/><path class="cls-3" d="M111.91,139.67V239.92A12.12,12.12,0,0,0,124,252h270a12.12,12.12,0,0,0,12.12-12.12V44.48a12.12,12.12,0,0,0-12.12-12.12H124a12.12,12.12,0,0,0-12.12,12.12v66.2M328.27,220.22a12.14,12.14,0,0,1-12.12,12.14H135.41a12.13,12.13,0,0,1-12.12-12.14V59.1A12.12,12.12,0,0,1,135.41,47H316.15A12.13,12.13,0,0,1,328.27,59.1Z"/><circle class="cls-4" cx="158.49" cy="12.25" r="3.76"/><path class="cls-5" d="M158.49,17.05a4.81,4.81,0,1,1,4.8-4.8A4.81,4.81,0,0,1,158.49,17.05Zm0-7.51a2.71,2.71,0,1,0,2.7,2.71A2.71,2.71,0,0,0,158.49,9.54Z"/><circle class="cls-4" cx="175.25" cy="12.25" r="3.76"/><path class="cls-5" d="M175.25,17.05a4.81,4.81,0,1,1,4.8-4.8A4.81,4.81,0,0,1,175.25,17.05Zm0-7.51A2.71,2.71,0,1,0,178,12.25,2.72,2.72,0,0,0,175.25,9.54Z"/><circle class="cls-4" cx="192.01" cy="12.25" r="3.76"/><path class="cls-5" d="M192,17.05a4.81,4.81,0,1,1,4.81-4.8A4.8,4.8,0,0,1,192,17.05Zm0-7.51a2.71,2.71,0,1,0,2.71,2.71A2.71,2.71,0,0,0,192,9.54Z"/><rect class="cls-4" x="337.47" y="46.97" width="56.71" height="183.24" rx="15.38"/><path class="cls-5" d="M378.8,231.27H352.85a16.45,16.45,0,0,1-16.43-16.43V62.35a16.45,16.45,0,0,1,16.43-16.43H378.8a16.45,16.45,0,0,1,16.43,16.43V214.84A16.45,16.45,0,0,1,378.8,231.27ZM352.85,48a14.35,14.35,0,0,0-14.33,14.33V214.84a14.35,14.35,0,0,0,14.33,14.33H378.8a14.35,14.35,0,0,0,14.33-14.33V62.35A14.35,14.35,0,0,0,378.8,48Z"/><rect class="cls-1" x="345.56" y="66.94" width="16.42" height="18.75" rx="3.7"/><path class="cls-2" d="M358.27,86.74h-9A4.75,4.75,0,0,1,344.51,82V70.64a4.75,4.75,0,0,1,4.75-4.75h9A4.75,4.75,0,0,1,363,70.64V82A4.75,4.75,0,0,1,358.27,86.74Zm-9-18.75a2.65,2.65,0,0,0-2.65,2.65V82a2.65,2.65,0,0,0,2.65,2.65h9A2.65,2.65,0,0,0,360.92,82V70.64A2.65,2.65,0,0,0,358.27,68Z"/><line class="cls-4" x1="369.52" y1="76.31" x2="384.52" y2="76.31"/><path class="cls-5" d="M384.52,77.36h-15a1.05,1.05,0,0,1,0-2.1h15a1,1,0,1,1,0,2.1Z"/><line class="cls-4" x1="140.73" y1="24.08" x2="434.99" y2="24.08"/><path class="cls-5" d="M435,25.13H140.72a1.05,1.05,0,0,1,0-2.1H435a1.05,1.05,0,1,1,0,2.1Z"/><rect class="cls-4" x="345.56" y="92.88" width="16.42" height="18.75" rx="3.7"/><path class="cls-5" d="M358.27,112.68h-9a4.75,4.75,0,0,1-4.75-4.75V96.58a4.75,4.75,0,0,1,4.75-4.75h9A4.75,4.75,0,0,1,363,96.58v11.35A4.75,4.75,0,0,1,358.27,112.68Zm-9-18.75a2.65,2.65,0,0,0-2.65,2.65v11.35a2.65,2.65,0,0,0,2.65,2.65h9a2.65,2.65,0,0,0,2.65-2.65V96.58a2.65,2.65,0,0,0-2.65-2.65Z"/><rect class="cls-4" x="345.56" y="195.25" width="40.53" height="18.75" rx="3.7"/><path class="cls-5" d="M382.38,215.05H349.26a4.75,4.75,0,0,1-4.75-4.75V199a4.76,4.76,0,0,1,4.75-4.76h33.12a4.76,4.76,0,0,1,4.76,4.76V210.3A4.76,4.76,0,0,1,382.38,215.05ZM349.26,196.3a2.66,2.66,0,0,0-2.65,2.66V210.3a2.65,2.65,0,0,0,2.65,2.65h33.12A2.66,2.66,0,0,0,385,210.3V199a2.66,2.66,0,0,0-2.66-2.66Z"/><line class="cls-4" x1="369.52" y1="102.25" x2="384.52" y2="102.25"/><path class="cls-5" d="M384.52,103.3h-15a1,1,0,1,1,0-2.09h15a1,1,0,1,1,0,2.09Z"/><path class="cls-6" d="M226.84,180.24c.89-.06,21.4,55.65,18.64,65.91,0,0,5.37-48.13-.81-65.35S226.84,180.24,226.84,180.24Z"/><path class="cls-7" d="M339.46,290.37a9.15,9.15,0,0,1-2.35.32Z"/><path class="cls-7" d="M315,318.6a9.46,9.46,0,0,1-2.34-.8S313.47,318.1,315,318.6Z"/><path class="cls-7" d="M319.16,273a9.73,9.73,0,0,1-1.8,1.62Z"/><path class="cls-7" d="M270.28,301.43a9.73,9.73,0,0,1-1.8,1.62C268.61,302.93,269.25,302.37,270.28,301.43Z"/><g id="Head_Front_Airy" data-name="Head/Front/Airy"><g id="Head"><path class="cls-8" d="M240.17,144.29c4.21-4.95,7.07-11,6.59-17.8-1.37-19.57-28.61-15.26-33.91-5.39S208.18,156,215,157.79c2.73.71,8.55-1,14.47-4.59l-3.72,26.3h21.95Z"/></g><g id="hair"><path class="cls-9" d="M225.36,109.72c2.89-.47,10.68-.8,12.11-.8.92,0,1.92.21,2.46-.63s.28-1.86.41-2.66.38-1.85.6-2.76a27.91,27.91,0,0,1,2.92-7.42,22.75,22.75,0,0,1,10.8-9.78,34.6,34.6,0,0,1,16.4-2.25c5.88.47,11.21,2.42,16.77,4.25a35.17,35.17,0,0,0,16.38,1.57c5.58-.85,9.8-3.88,14.5-6.75s10.33-4.86,16-4.42a30.88,30.88,0,0,1,14.62,5.54c4.11,2.75,7.51,6,9.42,10.69,2.07,5,2.06,10.49-1.33,14.91-4.91,6.4-14,8.06-21.62,7.89A41.16,41.16,0,0,1,323,114.75c-5.53-2-10.3-5.24-15.47-7.92a40.52,40.52,0,0,0-7.57-3c-2.55-.72-5.06-1-7.37.49a35.1,35.1,0,0,1-7.43,4.25,24,24,0,0,1-8.38,1.51c-5.56,0-11-1.78-16.44-2.94-4.41-1-9.12-1.89-13.61-1-1.87.38-4.61,1.16-5.28,3.11,11.39,2.06,15.86,16.15,12.65,26.48-1.74,5.58-12.15,12.11-16.2,9.17-2.56-1.85-1-4.29,0-5.91,1.93-3.08,2.59-7-1-9.19-3.08-1.85-6.32,2.55-6.38,2.54-.85-.06-8.17-4.2-13.21-10.24-5,.29-5.72-3-4.54-5.67S221.36,110.38,225.36,109.72Z"/></g></g><g id="Bottom_Sitting_Sweat-Pants" data-name="Bottom/Sitting/Sweat-Pants"><g id="Objects_Seat_Ball" data-name="Objects/Seat/Ball"><g id="Ballsy-Ball"><path class="cls-10" d="M378.3,413.81c0-89.2-75.76-161.51-169.2-161.51S39.9,324.61,39.9,413.81"/></g></g><g id="Objects_Seat_Ball-2" data-name="Objects/Seat/Ball"><g id="Ballsy-Ball-2" data-name="Ballsy-Ball"><ellipse class="cls-2" cx="256.87" cy="347.27" rx="70.4" ry="67.2"/></g></g><g id="Skin"><path class="cls-8" d="M123.83,404.1c11.71-25.93,20.19-48.5,23.59-60.42,5.82-20.39,10.25-38.34,11.37-45,2.67-16-20.54-16.91-23.61-9-4.64,12-12.74,51.52-22.48,111.18Zm135.88-81.37c-10.74-4.25-48.38-17.54-66.54-21.3-5.21-1.08-10.27-2.09-15-3-14.13-2.69-21.45,22.8-7.85,24.76,33.89,4.87,81.94,9.91,86.05,10.47C262.11,334.46,266.47,325.4,259.71,322.73Z"/></g><g id="Leg-Back"><path class="cls-11" d="M171.57,294.92l58.14-29.6v-6.44H222.8q-84.37,21.5-86.23,27.56l0,.13-.09.11c-11.14,15.33-17.82,90.17-20,95.77l21.36,3.19c8.17-30.3,34.31-51.4,33.62-87.69A12.12,12.12,0,0,0,171.57,294.92Z"/></g><g id="Leg-Back-2" data-name="Leg-Back"><path class="cls-12" d="M135.7,382.84h-.1l-21.36-3.18a.71.71,0,0,1-.51-.35.7.7,0,0,1,0-.6c.59-1.51,1.61-9,2.91-18.42,3.4-24.83,9.1-66.39,17.19-77.51v0c.85-2.76,10.76-8.67,86.72-28l.18,0h6.91a.7.7,0,0,1,.7.7v6.44a.71.71,0,0,1-.38.63L170.2,291.84a13.47,13.47,0,0,1-.18,2.66c.4,22.1-9.14,38.75-18.36,54.85-5.94,10.37-12.08,21.08-15.29,33A.69.69,0,0,1,135.7,382.84Zm-20.46-4.46,20,3c3.29-11.83,9.37-22.44,15.25-32.7,9.14-16,18.59-32.45,18.18-54.2a.57.57,0,0,1,0-.13,11.54,11.54,0,0,0,.15-2.85.66.66,0,0,1,.38-.68l57.75-29.4v-5.32h-6.13c-73,18.61-85,24.94-85.64,27.06l0,.1a.66.66,0,0,1-.11.24l-.65-.3.57.41C127,294.42,121.37,335.77,118,360.47,116.75,369.51,115.88,375.85,115.24,378.38Z"/></g><g id="Leg-Front"><path class="cls-13" d="M222.78,307.14c5.32-1.07,10.22-2,14.41-2.75,27.08-4.75,35-19.24,30.3-50.87H217.61c-8.15,2.34-50.5,20.1-72.47,29.55-14.55,6.25-10,28.79-1.73,34.66a.83.83,0,0,0,.46.71c44.3,18.36,79.35,8.73,91.06,11.8l5.41-17.08Z"/></g><g id="Leg-Front-2" data-name="Leg-Front"><path class="cls-12" d="M234.93,332.8l-.18,0c-3.36-.88-8.9-.68-15.91-.43-17.47.64-43.87,1.59-75.24-11.41a1.43,1.43,0,0,1-.82-.95c-5.1-3.84-8.51-13.43-7.64-21.57.72-6.73,4.17-11.75,9.72-14.13,20-8.59,64-27.13,72.55-29.58a.69.69,0,0,1,.2,0h49.88a.72.72,0,0,1,.7.6c4.78,32.44-3.87,46.92-30.88,51.66-3.16.55-7,1.27-11.85,2.24l15.11,5.18a.7.7,0,0,1,.44.87l-5.42,17.08A.69.69,0,0,1,234.93,332.8Zm-7.64-2.06a36.39,36.39,0,0,1,7.16.53l5-15.81-16.92-5.8a.7.7,0,0,1-.47-.71.69.69,0,0,1,.56-.64c6.15-1.23,10.73-2.1,14.43-2.75,26.21-4.6,34.33-18,29.82-49.48H217.71c-7.89,2.31-47.73,18.93-72.3,29.49-6.49,2.79-8.41,8.61-8.88,13-.83,7.81,2.43,17,7.29,20.44a.74.74,0,0,1,.29.49.36.36,0,0,0,0,.16c31.07,12.87,57.29,11.92,74.64,11.29C221.93,330.84,224.78,330.74,227.29,330.74Z"/></g><g id="Accessories_Shoe_Flat-Sneaker" data-name="Accessories/Shoe/Flat-Sneaker"><g id="shoe"><path class="cls-14" d="M256,320a19.6,19.6,0,0,1,6.18,1.3,47.49,47.49,0,0,1,6.13,3.91l-22.61,46.35q-6.86-1.11-5.43-5.23t2.29-6.89l.91-26.23a.91.91,0,0,1,.94-.88h0l4,.26a16.53,16.53,0,0,0,4.54-5,15,15,0,0,0,1-5.78h0a1.82,1.82,0,0,1,1.87-1.78Z"/></g></g><g id="Accessories_Shoe_Flat-Sneaker-2" data-name="Accessories/Shoe/Flat-Sneaker"><g id="shoe-2" data-name="shoe"><path class="cls-14" d="M129.16,399.29a19.8,19.8,0,0,1,1.54,6.13,45.93,45.93,0,0,1-.83,7.22H78.3q-2-6.64,2.32-7.17t7.2-1l24-10.69a.92.92,0,0,1,1.21.47v0l1.54,3.74a16.53,16.53,0,0,0,6.51,1.87,14.77,14.77,0,0,0,5.63-1.65h0a1.82,1.82,0,0,1,2.42.9A.61.61,0,0,1,129.16,399.29Z"/></g></g></g><g id="Skin-2" data-name="Skin"><path class="cls-8" d="M170.92,230.35,137.8,215.8A78.44,78.44,0,0,0,121,202.61c-1.61-.51-4.37-.67-1.43,3.63s5.85,9,4.68,10.47-4.59-.15-5.94,2.3q-1.35,2.44,17.24,5.86l24.82,19Zm133.94,4-18.73,3.72q28.26,52.67,30.31,55.83c3.08,4.74.21,13.43-.85,18,6.65,1.55,4-8.46,12.44-6.37,7.68,1.91,14.2,6.81,21.36.2.88-.81,1.53-3.35-1.48-4.65-7.48-3.24-18.53-9.31-20.32-11.67Q323.91,284.59,304.86,234.35Z"/></g><path class="cls-15" d="M207.8,255.64c-14.33,8.67-49.72-6.51-66.34-24.48l4.08-9.12c18.28,6.56,36.58,12.23,47.44,7.21,11.47-5.31,18.5-45.45,35.72-62.15l6.58,1.13C235.52,196.74,229.69,242.42,207.8,255.64Z"/><path class="cls-12" d="M197,258.85c-17.18,0-42.59-12.63-56.07-27.22a.68.68,0,0,1-.12-.76l5.59-12.51a.7.7,0,0,1,.88-.37c1.57.56,3.13,1.12,4.66,1.65a.7.7,0,0,1-.46,1.32c-1.34-.46-2.69-1-4.06-1.44L142.29,231c16.35,17.39,51.32,32.39,65.15,24,20.46-12.37,27.41-54.5,27.14-86.82,0-1.16,0-2.28-.06-3.38l-7-1.2c-8.59,8.5-14.65,23-20,35.83-5.27,12.61-9.82,23.5-15.66,26.2-9.43,4.36-22.23,1.52-38.55-4.09a.7.7,0,0,1,.45-1.32c16,5.5,28.51,8.31,37.51,4.14,5.35-2.47,9.8-13.13,14.95-25.47,5.46-13.07,11.65-27.88,20.58-36.54a.69.69,0,0,1,.61-.19l7.9,1.36a.68.68,0,0,1,.58.66c0,1.29.06,2.62.08,4,.27,32.69-6.85,75.36-27.81,88A21.46,21.46,0,0,1,197,258.85Z"/><g id="Shirt"><path class="cls-16" d="M269.67,263.61h-70c-3.19,0-2.59-4.62-2.13-6.94,5.34-26.89,26.15-55.86,26.15-94.13l20.18-3.16C260.6,186.22,266.37,219.27,269.67,263.61Z"/></g><path class="cls-17" d="M314.71,288.46q-14.58-17-36-55.57c1.24,4.41,2.39,8.85,3.42,13.29-1.8-3.14-1.79-7.46-3.67-10.85a246.43,246.43,0,0,1,7.7,44.09l-61.85-.11q-12-30.22,14-119.93h6.92q66.72,41.13,81.55,126.71Z"/><path class="cls-12" d="M287.31,280h-63a.69.69,0,0,1-.65-.44c-8-20.2-3.3-60.7,13.94-120.38l1-3.51a.71.71,0,0,1,.67-.5h8a.66.66,0,0,1,.36.11,173.15,173.15,0,0,1,36,29.31.7.7,0,0,1-1,1,172,172,0,0,0-35.53-29h-7.27l-.88,3c-17,58.94-21.78,99-14.15,119h61.74c-.17-2.31-.39-4.69-.66-7.1a.7.7,0,0,1,.62-.77.69.69,0,0,1,.77.62c.31,2.68.55,5.34.72,7.91a.72.72,0,0,1-.19.52A.7.7,0,0,1,287.31,280Z"/><path class="cls-12" d="M314.71,289.16a.71.71,0,0,1-.54-.25c-9.05-10.55-20.23-27.59-33.26-50.71.69,2.66,1.34,5.27,1.93,7.82,1.44,6.22,2.62,12.31,3.49,18.1a.69.69,0,0,1-.58.79.7.7,0,0,1-.8-.59c-.87-5.75-2-11.8-3.47-18-1-4.26-2.14-8.72-3.41-13.25a.7.7,0,0,1,1.28-.53c14,25.34,26,43.89,35.62,55.14l13.6-2.66a238.63,238.63,0,0,0-5.33-24.56.7.7,0,0,1,1.35-.37,239.68,239.68,0,0,1,5.47,25.37.71.71,0,0,1-.56.8l-14.66,2.87Z"/><path class="cls-12" d="M319.2,246a.69.69,0,0,1-.65-.47,190.46,190.46,0,0,0-8.42-19.94.7.7,0,0,1,1.26-.62,191.14,191.14,0,0,1,8.47,20.09.7.7,0,0,1-.42.9A1,1,0,0,1,319.2,246Z"/><circle class="cls-5" cx="91.12" cy="309.24" r="2.88" transform="translate(-148.49 93.56) rotate(-31.59)"/><circle class="cls-5" cx="82.41" cy="317.95" r="2.88" transform="translate(-154.34 90.28) rotate(-31.59)"/><circle class="cls-5" cx="82.41" cy="300.52" r="2.88" transform="translate(-145.21 87.7) rotate(-31.59)"/><circle class="cls-5" cx="73.7" cy="309.24" r="2.88" transform="translate(-151.07 84.43) rotate(-31.59)"/><circle class="cls-5" cx="73.7" cy="291.81" r="2.88" transform="translate(-141.94 81.84) rotate(-31.59)"/><circle class="cls-5" cx="64.98" cy="300.52" r="2.88" transform="translate(-147.8 78.57) rotate(-31.59)"/><circle class="cls-5" cx="64.98" cy="283.09" r="2.88" transform="translate(-138.67 75.99) rotate(-31.59)"/><circle class="cls-5" cx="56.27" cy="291.81" r="2.88" transform="translate(-144.52 72.71) rotate(-31.59)"/><circle class="cls-5" cx="56.27" cy="274.38" r="2.88" transform="translate(-135.39 70.13) rotate(-31.59)"/><circle class="cls-5" cx="47.55" cy="283.09" r="2.88" transform="translate(-141.25 66.86) rotate(-31.59)"/><circle class="cls-5" cx="47.55" cy="265.67" r="2.88" transform="translate(-132.12 64.28) rotate(-31.59)"/><circle class="cls-5" cx="38.84" cy="274.38" r="2.88" transform="translate(-137.98 61) rotate(-31.59)"/><g id="Path_9" data-name="Path 9"><path d="M93.36,27,78.12,13.28a2.07,2.07,0,0,0-2.92.15L61.47,28.67a2.07,2.07,0,0,0,.15,2.91L76.86,45.31a2.07,2.07,0,0,0,2.91-.15L93.51,29.92A2.07,2.07,0,0,0,93.36,27ZM78.87,44.35a.83.83,0,0,1-1.19.06h0L62.43,30.68a.85.85,0,0,1-.06-1.19h0L76.11,14.24a.85.85,0,0,1,1.19-.06h0L92.54,27.91a.85.85,0,0,1,.06,1.2h0L78.87,44.35Z"/></g><g id="Path_10" data-name="Path 10"><path d="M56.58,167.44a1.44,1.44,0,0,0-1.51-1.36h0L49,166.4l-.31-6.07a1.43,1.43,0,0,0-2.86.15h0l.32,6.07-6.07.31a1.43,1.43,0,0,0-1.36,1.5,1.4,1.4,0,0,0,.48,1,1.44,1.44,0,0,0,1,.37l6.07-.31.31,6.06a1.43,1.43,0,0,0,.47,1,1.52,1.52,0,0,0,1,.37,1.44,1.44,0,0,0,1.36-1.5h0l-.32-6.06,6.07-.32A1.44,1.44,0,0,0,56.58,167.44Z"/></g><g id="Path_10-2" data-name="Path 10"><path d="M12.4,90.21a1,1,0,0,0-1-.94h0l-4.22.22-.21-4.22a1,1,0,0,0-2,.11h0l.22,4.21-4.22.22a1,1,0,0,0-.94,1,1,1,0,0,0,.33.69,1,1,0,0,0,.72.26l4.21-.22.22,4.21a1,1,0,0,0,.33.69,1,1,0,0,0,1.66-.79h0l-.22-4.22,4.21-.21A1,1,0,0,0,12.4,90.21Z"/></g><g id="Path_11" data-name="Path 11"><path d="M80.37,30.48l-1.92-1.73,1.73-1.92a.6.6,0,0,0,0-.86.61.61,0,0,0-.86.05l-1.73,1.92-1.92-1.73a.61.61,0,1,0-.82.9l1.92,1.73L75,30.76a.61.61,0,0,0,0,.86.6.6,0,0,0,.86,0l1.73-1.92,1.92,1.73a.61.61,0,0,0,.81-.91Z"/></g><g id="Path_9-2" data-name="Path 9"><path d="M78.36,212,63.12,198.28a2.07,2.07,0,0,0-2.92.15L46.47,213.67a2.07,2.07,0,0,0,.15,2.91l15.24,13.73a2.07,2.07,0,0,0,2.91-.15l13.74-15.24a2.07,2.07,0,0,0-.15-2.91ZM63.87,229.35a.83.83,0,0,1-1.19.06h0L47.43,215.68a.85.85,0,0,1-.06-1.19h0l13.74-15.25a.85.85,0,0,1,1.19-.06h0l15.24,13.73a.85.85,0,0,1,.06,1.2h0L63.87,229.35Z"/></g><g id="Path_11-2" data-name="Path 11"><path d="M65.37,215.48l-1.92-1.73,1.73-1.92a.6.6,0,0,0,0-.86.61.61,0,0,0-.86.05l-1.73,1.92-1.92-1.73a.61.61,0,0,0-.82.9l1.92,1.73L60,215.76a.61.61,0,0,0,0,.86.6.6,0,0,0,.86,0l1.73-1.92,1.92,1.73a.61.61,0,1,0,.81-.91Z"/></g><g id="Path_12" data-name="Path 12"><path d="M22.44,133.14,11,122.8a1.72,1.72,0,0,0-2.31,2.56l11.47,10.33a1.72,1.72,0,0,0,2.32-2.55Z"/></g><g id="Path_13" data-name="Path 13"><path d="M28.11,126.85,16.64,116.51a1.73,1.73,0,0,0-2.44.13,1.71,1.71,0,0,0,.13,2.43L25.79,129.4a1.72,1.72,0,1,0,2.32-2.55Z"/></g><g id="Path_10-3" data-name="Path 10"><path d="M167.4,161.21a1,1,0,0,0-1-.94h0l-4.22.22-.21-4.22a1,1,0,1,0-2,.11h0l.22,4.21-4.22.22a1,1,0,0,0-.94,1,1,1,0,0,0,.33.69,1,1,0,0,0,.72.26l4.21-.22.22,4.21a1,1,0,0,0,.33.69,1,1,0,0,0,1.66-.79h0l-.22-4.22,4.21-.21A1,1,0,0,0,167.4,161.21Z"/></g><g id="Path_10-4" data-name="Path 10"><path d="M159.4,82.21a1,1,0,0,0-1-.94h0l-4.22.22-.21-4.22a1,1,0,0,0-2,.11h0l.22,4.21-4.22.22a1,1,0,0,0-.94,1,1,1,0,0,0,.33.69,1,1,0,0,0,.72.26l4.21-.22.22,4.21a1,1,0,0,0,.33.69,1,1,0,0,0,1.66-.79h0l-.22-4.22,4.21-.21A1,1,0,0,0,159.4,82.21Z"/></g><g id="Path_12-2" data-name="Path 12"><path d="M176.46,132.22l-6.61-6a1,1,0,1,0-1.32,1.47l6.59,6a1,1,0,1,0,1.34-1.47Z"/></g><g id="Path_13-2" data-name="Path 13"><path d="M179.72,128.6l-6.6-5.95a1,1,0,1,0-1.33,1.47l6.59,5.95a1,1,0,0,0,1.41-.07,1,1,0,0,0-.07-1.4Z"/></g><g id="Path_14" data-name="Path 14"><path d="M299.81,147.47a1,1,0,1,0,1.33-1.47h0l-6.6-6a1,1,0,0,0-1.33,1.48h0Z"/></g></g></g></svg>