<svg xmlns="http://www.w3.org/2000/svg" viewBox="0 0 247 154"><defs><style>.cls-1{fill:#f8c5dc;}.cls-2{fill:none;stroke:#707070;stroke-width:0.3px;}.cls-3,.cls-4{isolation:isolate;}.cls-4{font-size:14px;font-family:RobotoSlab-SemiBold, Roboto Slab;font-weight:600;}.cls-5{letter-spacing:0.01em;}.cls-6{letter-spacing:0em;}.cls-7{stroke:#f8c5dc;stroke-miterlimit:10;stroke-width:0.21px;}</style></defs><g id="Layer_2" data-name="Layer 2"><g id="Layer_1-2" data-name="Layer 1"><g id="Rectangle_791" data-name="Rectangle 791"><rect class="cls-1" width="247" height="154" rx="19"/><rect class="cls-2" x="0.15" y="0.15" width="246.7" height="153.7" rx="18.85"/></g><g id="Art_Design" data-name="Art Design" class="cls-3"><text class="cls-4" transform="translate(84 139)">A<tspan class="cls-5" x="10.36" y="0">r</tspan><tspan x="16.55" y="0">t / D</tspan><tspan class="cls-6" x="43.59" y="0">e</tspan><tspan x="50.94" y="0">sign</tspan></text></g><path class="cls-7" d="M147.08,40.73h2.27V35.31A1.38,1.38,0,0,0,148,33.93H126.61a1.07,1.07,0,0,1-1.07-1.08V30.46a1.07,1.07,0,0,0-1.07-1.07h-6.93a1.07,1.07,0,0,0-1.07,1.07v2.39a1.07,1.07,0,0,1-1.07,1.08H94a1.38,1.38,0,0,0-1.38,1.38v5.42h2.27V72.47H92.66v5.42A1.38,1.38,0,0,0,94,79.28h5.69A1.38,1.38,0,0,1,101.08,81L97.29,98a1.38,1.38,0,0,0,1.35,1.68h4A1.38,1.38,0,0,0,104,98.6l4.06-18.24a1.38,1.38,0,0,1,1.35-1.08h6.8a1.37,1.37,0,0,1,1.38,1.38V98.3A1.38,1.38,0,0,0,119,99.68h4a1.38,1.38,0,0,0,1.39-1.38V80.66a1.38,1.38,0,0,1,1.38-1.38h6.8a1.38,1.38,0,0,1,1.35,1.08L138,98.6a1.38,1.38,0,0,0,1.35,1.08h4A1.38,1.38,0,0,0,144.72,98l-3.79-17a1.38,1.38,0,0,1,1.35-1.68H148a1.38,1.38,0,0,0,1.38-1.39V72.47h-2.27Zm-28.34-9.07h4.53v2.27h-4.53ZM94.93,36.19h52.15v2.27H94.93Zm49.88,5.92v29a1.38,1.38,0,0,1-1.38,1.38H98.58a1.38,1.38,0,0,1-1.38-1.38v-29a1.38,1.38,0,0,1,1.38-1.38h44.85A1.38,1.38,0,0,1,144.81,42.11ZM102,97.42H99.74l4-18.14H106Zm20.18,0h-2.27V79.28h2.27Zm20.13,0h-2.22l-4-18.14h2.22ZM147.08,77H94.93V74.74h52.15Z"/><path class="cls-7" d="M135.74,67.94H101.86a.13.13,0,0,1-.13-.13V45.39a.13.13,0,0,1,.13-.13h38.29a.13.13,0,0,1,.13.13V67.94H138v2.27h4.41a.13.13,0,0,0,.13-.13v-27a.12.12,0,0,0-.13-.12H99.59a.12.12,0,0,0-.13.12v27a.13.13,0,0,0,.13.13h36.15Z"/><path class="cls-7" d="M130.69,58.87l6.46,7.54,1.72-1.48-7.14-8.33H130a8.62,8.62,0,0,0,.1-1.13,7.93,7.93,0,0,0-15.53-2.27h-2L103.11,65l1.78,1.42,8.69-10.87a.11.11,0,0,1,.09,0h7.81a.16.16,0,0,1,.11.05l7.56,10.8L131,65l-4.12-5.89.26-.26ZM126.2,56.6l-.64.64-2.79-4a.14.14,0,0,0-.11,0H117a5.62,5.62,0,0,1,5.17-3.4,5.68,5.68,0,0,1,5.67,5.67,5.44,5.44,0,0,1-.13,1.13Z"/><path class="cls-7" d="M161.81,40.94l-3.88-5.82a.11.11,0,0,0-.11-.06h-3.34a.14.14,0,0,0-.11.06l-3.88,5.82a6.74,6.74,0,0,0-1.14,3.77v.55a6.79,6.79,0,0,0,2.23,5,.12.12,0,0,1,0,.08V94.79a4.79,4.79,0,0,0,3.86,4.85,4.55,4.55,0,0,0,5.21-4.49V50.37a.11.11,0,0,1,0-.08,6.79,6.79,0,0,0,2.23-5v-.55A6.74,6.74,0,0,0,161.81,40.94Zm-3.39,54.21a2.27,2.27,0,1,1-4.54,0V92.88h4.54Zm-.13-4.54H154a.12.12,0,0,1-.13-.12V56.73a.13.13,0,0,1,.13-.13h4.28a.13.13,0,0,1,.13.13V90.49A.12.12,0,0,1,158.29,90.61Zm.13-36.28h-4.54V51.67a6.9,6.9,0,0,0,2.27.4,6.81,6.81,0,0,0,2.27-.4Zm2.27-9.07a4.55,4.55,0,0,1-5.21,4.49,4.78,4.78,0,0,1-3.86-4.84v-.2a4.47,4.47,0,0,1,.76-2.51l2.64-4v5.89h2.27V38.24l2.63,4a4.48,4.48,0,0,1,.77,2.51Z"/></g></g></svg>