<svg xmlns="http://www.w3.org/2000/svg" viewBox="0 0 12.62 11.79"><g id="Layer_2" data-name="Layer 2"><g id="Layer_1-2" data-name="Layer 1"><g id="Main"><path id="tv-monitor-svgrepo-com" d="M11.41,0H1.21A1.21,1.21,0,0,0,0,1.21v7.6A1.22,1.22,0,0,0,1.21,10h3.1V11H3a.41.41,0,0,0,0,.81H9.67a.41.41,0,0,0,.47-.34A.42.42,0,0,0,9.8,11H8.31V10h3.1a1.21,1.21,0,0,0,1.21-1.21h0V1.22A1.22,1.22,0,0,0,11.41,0ZM1.21.81h10.2a.41.41,0,0,1,.4.4v6H.81v-6A.4.4,0,0,1,1.21.81ZM7.5,11H5.12V10H7.5Zm3.91-1.75H1.21a.41.41,0,0,1-.4-.4V8h11v.79a.4.4,0,0,1-.39.41Z"/></g></g></g></svg>