<svg xmlns="http://www.w3.org/2000/svg" viewBox="0 0 247 154"><defs><style>.cls-1{fill:#46a86e;}.cls-2{fill:none;stroke:#707070;stroke-width:0.3px;}.cls-3,.cls-4{isolation:isolate;}.cls-4{font-size:14px;font-family:RobotoSlab-SemiBold, Roboto Slab;font-weight:600;}.cls-5{letter-spacing:-0.01em;}.cls-6{letter-spacing:0em;}.cls-7{stroke:#5cb85c;stroke-miterlimit:10;stroke-width:0.21px;}</style></defs><g id="Layer_2" data-name="Layer 2"><g id="Layer_1-2" data-name="Layer 1"><g id="Rectangle_790" data-name="Rectangle 790"><rect class="cls-1" width="247" height="154" rx="19"/><rect class="cls-2" x="0.15" y="0.15" width="246.7" height="153.7" rx="18.85"/></g><g id="Business_" data-name="Business " class="cls-3"><text class="cls-4" transform="translate(93.63 138)">Busi<tspan class="cls-5" x="29.38" y="0">n</tspan><tspan class="cls-6" x="38.29" y="0">e</tspan><tspan x="45.64" y="0">ss</tspan></text></g><path class="cls-7" d="M168.29,67a1.19,1.19,0,0,0-1.69-.1L164.26,69,151.54,56.39a1.2,1.2,0,0,0-1.68,1.7L162.48,70.6l-6.25,5.61-20.78-21L156.1,35.62a1.2,1.2,0,0,0-1.64-1.74L132.92,54.26a1.24,1.24,0,0,0-.38.85,1.21,1.21,0,0,0,.35.86l1.91,1.94-4.21,4.41-8.13-.87a1.19,1.19,0,0,0-1,.34l-3.31,3.28L112,59l2.07-2.1a1.18,1.18,0,0,0,.34-.86,1.17,1.17,0,0,0-.37-.84L92.54,34.82a1.2,1.2,0,0,0-1.64,1.74L105.43,50.3,84.15,71.19,80.4,67.83a1.2,1.2,0,0,0-1.6,1.78L90,79.68a1.19,1.19,0,0,0,.8.31,1.17,1.17,0,0,0,.85-.36l2-2.06,11.17,11-2,2.08a1.2,1.2,0,0,0,0,1.69L107,96.56h0l4.19,4.15,4.19,4.18,4.19,4.19a1.2,1.2,0,0,0,1.69,0l2.17-2.16,2.2,2.17a1.21,1.21,0,0,0,1.69,0l3.34-3.34.5.49a1.14,1.14,0,0,0,.84.35,1.18,1.18,0,0,0,.85-.35l3.34-3.34.49.49a1.22,1.22,0,0,0,.85.35,1.18,1.18,0,0,0,.84-.35l3.35-3.35.49.5a1.22,1.22,0,0,0,.85.35,1.2,1.2,0,0,0,.84-.35l4.19-4.19a1.19,1.19,0,0,0,0-1.69l-6.22-6.23,11.25-11.93,2.18,2.21a1.17,1.17,0,0,0,.85.36,1.24,1.24,0,0,0,.8-.31L168.2,68.68A1.2,1.2,0,0,0,168.29,67Zm-60.45.66a5.23,5.23,0,0,1-8.38,4.17l7.32-7.32A5.22,5.22,0,0,1,107.84,67.65Zm.64-4.84,2-2,1.08,1.07-2.2,2.25A7.17,7.17,0,0,0,108.48,62.81ZM90.77,77.14l-4.84-4.35L107.17,52l4.38,4.14Zm7-3.62a7.29,7.29,0,0,0,1.36.9L98,75.62l-1.39,1.43L95.4,75.89Zm8.81,16.75,2.52,2.48L107.86,94l-2.5-2.5Zm5.48,7.9-2.5-2.47,1.25-1.26,2.51,2.47Zm3,.42,2.51,2.48-1.28,1.29-2.5-2.5Zm5.42,8-2.5-2.5,1.3-1.3,2.51,2.49ZM143.09,98l-.5-.49h0l-4.82-4.83h0L136.3,91.2a1.21,1.21,0,0,0-1.69,0,1.19,1.19,0,0,0,0,1.69l5.45,5.45-2.5,2.5-6.79-6.79a1.2,1.2,0,0,0-1.69,1.69l1.47,1.47,4,4-2.5,2.5-3.92-3.92-1.4-1.39h0l-1.47-1.47a1.19,1.19,0,0,0-1.69,0,1.21,1.21,0,0,0,0,1.69l2.75,2.74,2.7,2.71-2.5,2.5L98.28,78.73l1.4-1.45,2-2.07a6.84,6.84,0,0,0,.91.06,7.63,7.63,0,0,0,7.62-7.62c0-.31,0-.62-.06-.93l3.08-3.16,3.24,3.19L105.2,77.94a1.2,1.2,0,0,0,.1,1.79c.28.22,6.82,5.18,18.19-6.34l22.1,22.1Zm-2.88-11.26L124.32,70.84a1.13,1.13,0,0,0-.87-.35,1.19,1.19,0,0,0-.85.37c-7.33,7.81-12.24,8-14.46,7.53l14.63-14.5,5.73.61-.86.9a1.2,1.2,0,1,0,1.73,1.65l6.87-7.18,15.08,15.07Zm2.09-34.31A3.74,3.74,0,1,0,146,48.68,3.74,3.74,0,0,0,142.3,52.42Zm5.08,0A1.35,1.35,0,1,1,146,51.07,1.34,1.34,0,0,1,147.38,52.42Z"/></g></g></svg>