<svg xmlns="http://www.w3.org/2000/svg" viewBox="0 0 32.92 31.7"><defs><style>.cls-1{fill:#004643;}</style></defs><g id="Main"><g id="Rectangle_779" data-name="Rectangle 779"><path class="cls-1" d="M24,8.26s-.08-.08-.1-.1a4.22,4.22,0,0,0-5.91,0L8.34,17.6a.87.87,0,0,0-.21.37L7,23.8a.73.73,0,0,0,.61.87.39.39,0,0,0,.26,0l6-1.13a1.13,1.13,0,0,0,.4-.18l9.71-9.45A4,4,0,0,0,24,8.26ZM13.33,22.14,8.69,23l.89-4.54L17.29,11,21,14.65Zm9.58-9.34a.05.05,0,0,1-.05,0l-.77.77L18.34,10l.77-.74a2.63,2.63,0,0,1,3.72,0s0,0,0,0A2.5,2.5,0,0,1,22.91,12.8Z"/><path class="cls-1" d="M2.7,2.09V29.64H30.24V2.09ZM29.14,28.53H3.81V3.2H29.14Z"/><path class="cls-1" d="M2.57,2V29.74H30.35V2ZM29.14,28.53H3.81V3.2H29.14Z"/></g><g id="pencil-svgrepo-com"><g id="Path_63" data-name="Path 63"><path class="cls-1" d="M24,8.26s-.08-.08-.1-.1a4.22,4.22,0,0,0-5.91,0L8.34,17.6a.87.87,0,0,0-.21.37L7,23.8a.73.73,0,0,0,.61.87.39.39,0,0,0,.26,0l6-1.13a1.13,1.13,0,0,0,.4-.18l9.71-9.45A4,4,0,0,0,24,8.26ZM13.33,22.14,8.69,23l.89-4.54L17.29,11,21,14.65Zm9.58-9.34a.05.05,0,0,1-.05,0l-.77.77L18.34,10l.77-.74a2.63,2.63,0,0,1,3.72,0s0,0,0,0A2.5,2.5,0,0,1,22.91,12.8Z"/></g></g></g></svg>