<svg xmlns="http://www.w3.org/2000/svg" viewBox="0 0 247 154"><defs><style>.cls-1{fill:#74b9ff;}.cls-2{fill:none;stroke:#707070;stroke-width:0.3px;}.cls-3,.cls-4{isolation:isolate;}.cls-4{font-size:14px;font-family:RobotoSlab-SemiBold, Roboto Slab;font-weight:600;}.cls-5{letter-spacing:-0.01em;}.cls-6{letter-spacing:0em;}.cls-7{letter-spacing:0.01em;}</style></defs><g id="Layer_2" data-name="Layer 2"><g id="Layer_1-2" data-name="Layer 1"><g id="Rectangle_792" data-name="Rectangle 792"><rect class="cls-1" width="247" height="154" rx="19"/><rect class="cls-2" x="0.15" y="0.15" width="246.7" height="153.7" rx="18.85"/></g><g id="Engineering" class="cls-3"><text class="cls-4" transform="translate(84 139)">E<tspan class="cls-5" x="8.93" y="0">n</tspan><tspan x="17.85" y="0">gi</tspan><tspan class="cls-5" x="30.49" y="0">n</tspan><tspan class="cls-6" x="39.4" y="0">e</tspan><tspan x="46.81" y="0">e</tspan><tspan class="cls-7" x="54.15" y="0">r</tspan><tspan x="60.23" y="0">i</tspan><tspan class="cls-5" x="64.74" y="0">n</tspan><tspan x="73.65" y="0">g</tspan></text></g><path d="M161.41,61.39l-6.77-.68a31.65,31.65,0,0,0-3.34-8.05l4.31-5.27a1.23,1.23,0,0,0-.08-1.65l-8.62-8.62a1.23,1.23,0,0,0-1.65-.08L140,41.35A31.29,31.29,0,0,0,131.94,38l-.68-6.77A1.23,1.23,0,0,0,130,30.13h-12.2a1.23,1.23,0,0,0-1.22,1.11L115.94,38a31.29,31.29,0,0,0-8,3.34L102.63,37a1.23,1.23,0,0,0-1.65.08l-8.63,8.62a1.24,1.24,0,0,0-.08,1.65l4.31,5.27a32,32,0,0,0-3.34,8.05l-6.77.68a1.23,1.23,0,0,0-1.1,1.22v12.2A1.23,1.23,0,0,0,86.47,76l6.77.68a32,32,0,0,0,3.34,8.05L92.27,90a1.24,1.24,0,0,0,.08,1.65L101,100.3a1.24,1.24,0,0,0,1.65.08l5.26-4.31a32,32,0,0,0,8,3.34l.68,6.76a1.23,1.23,0,0,0,1.22,1.11H130a1.23,1.23,0,0,0,1.22-1.11l.68-6.76A32,32,0,0,0,140,96.07l5.27,4.31a1.24,1.24,0,0,0,1.65-.08l8.62-8.63a1.23,1.23,0,0,0,.08-1.65l-4.31-5.26a31.65,31.65,0,0,0,3.34-8.05l6.77-.68a1.23,1.23,0,0,0,1.11-1.22V62.61A1.23,1.23,0,0,0,161.41,61.39Zm-1.36,12.3-6.52.65a1.25,1.25,0,0,0-1.08,1,29.07,29.07,0,0,1-3.7,8.92,1.23,1.23,0,0,0,.09,1.43L153,90.72l-7.05,7-5.08-4.16a1.23,1.23,0,0,0-1.43-.09,29.11,29.11,0,0,1-8.91,3.7,1.22,1.22,0,0,0-.95,1.08l-.66,6.52H119l-.65-6.52a1.25,1.25,0,0,0-1-1.08,29.07,29.07,0,0,1-8.92-3.7,1.23,1.23,0,0,0-1.43.09l-5.08,4.16-7.05-7L99,85.64a1.23,1.23,0,0,0,.09-1.43,29.07,29.07,0,0,1-3.7-8.92,1.25,1.25,0,0,0-1.08-1l-6.52-.65v-10l6.52-.66a1.22,1.22,0,0,0,1.08-1,29.11,29.11,0,0,1,3.7-8.91A1.23,1.23,0,0,0,99,51.78L94.88,46.7l7.05-7.05L107,43.81a1.23,1.23,0,0,0,1.43.09,29.07,29.07,0,0,1,8.92-3.7,1.25,1.25,0,0,0,1-1.08L119,32.6h10l.66,6.52a1.22,1.22,0,0,0,.95,1.08,29.11,29.11,0,0,1,8.91,3.7,1.23,1.23,0,0,0,1.43-.09L146,39.65,153,46.7l-4.16,5.08a1.23,1.23,0,0,0-.09,1.43,29.11,29.11,0,0,1,3.7,8.91,1.22,1.22,0,0,0,1.08,1l6.52.66v10Z"/><path d="M123.94,41.87A26.85,26.85,0,0,0,97.23,66.13a1.23,1.23,0,0,0,2.45.23,24.38,24.38,0,1,1,0,4.69,1.23,1.23,0,0,0-2.45.24,26.84,26.84,0,1,0,26.71-29.42Z"/><path d="M123.94,46.8a21.91,21.91,0,1,0,21.91,21.91A21.94,21.94,0,0,0,123.94,46.8Zm8.61,39.35a19.46,19.46,0,0,1-7.38,2V77.56a1.23,1.23,0,1,0-2.46,0V88.12a19.46,19.46,0,0,1-7.38-2V73.87h17.22V86.15ZM128.1,64l3.69,7.38h-15.7L119.78,64ZM121,61.56h0l2.93-5.86,2.93,5.86Zm14,23.13V72.47a.43.43,0,0,0,0-.11v0a.36.36,0,0,0,0-.1l0,0a.36.36,0,0,0,0-.09v0L125,52.4a1.23,1.23,0,0,0-2.2,0L113,72.08v0a.36.36,0,0,0,0,.09v0l0,.1v0s0,.07,0,.11v0a.57.57,0,0,0,0,.13V84.69a19.45,19.45,0,1,1,22.14,0Z"/></g></g></svg>