<svg xmlns="http://www.w3.org/2000/svg" viewBox="0 0 247 154"><defs><style>.cls-1{fill:#ff7775;}.cls-2,.cls-7{fill:none;}.cls-2{stroke:#707070;stroke-width:0.3px;}.cls-3,.cls-4{isolation:isolate;}.cls-4{font-size:14px;font-family:RobotoSlab-SemiBold, Roboto Slab;font-weight:600;}.cls-5{letter-spacing:0.01em;}.cls-6{letter-spacing:0em;}</style></defs><g id="Layer_2" data-name="Layer 2"><g id="Layer_1-2" data-name="Layer 1"><g id="Rectangle_792" data-name="Rectangle 792"><rect class="cls-1" width="247" height="154" rx="19"/><rect class="cls-2" x="0.15" y="0.15" width="246.7" height="153.7" rx="18.85"/></g><g id="Humanities" class="cls-3"><text class="cls-4" transform="translate(84 138)">Humani<tspan class="cls-5" x="54.11" y="0">t</tspan><tspan x="59.26" y="0">i</tspan><tspan class="cls-6" x="63.77" y="0">e</tspan><tspan x="71.11" y="0">s</tspan></text></g><rect class="cls-7" x="139.69" y="80.68" height="11.26"/><polygon class="cls-7" points="134.25 80.72 134.25 91.94 134.26 91.94 134.26 80.72 134.25 80.72"/><polygon class="cls-7" points="126.11 91.94 126.11 91.94 126.11 82.89 126.11 82.89 126.11 91.94"/><polygon class="cls-7" points="114.08 76.77 114.08 76.77 114.08 76.77 114.08 76.77"/><polygon class="cls-7" points="113.88 91.94 113.89 91.94 113.89 87.31 113.88 87.31 113.88 91.94"/><polygon class="cls-7" points="116.59 86.37 116.59 91.94 116.6 91.94 116.6 86.36 116.59 86.37"/><polygon class="cls-7" points="122.03 83.21 122.03 91.94 122.03 91.94 122.03 83.21 122.03 83.21"/><rect class="cls-7" x="108.44" y="87.04" height="4.9"/><path d="M149.2,97.38h-2.72V93.3a1.35,1.35,0,0,0-1.36-1.36h-2.7V80.83h-.11l-.48,0-.43,0-1.7-.1V91.94h-5.45V80.71c-.87.09-1.68.19-2.42.31l-.3.09V91.94h-2.7V81.78a19.52,19.52,0,0,0-2,.76h0l-.06,0-.65.31v9.06H122V83.21l-.28-.14-.46-.22c-.78-.37-1.4-.62-2-.83v9.92h-2.72V86.38a3.9,3.9,0,0,1-.71.62,2.88,2.88,0,0,1-1.44.39,3.47,3.47,0,0,1-.55-.08v4.63h-5.44V87.05h-.06a2.75,2.75,0,0,1-1.32.33,3.13,3.13,0,0,1-1.35-.34v4.89H103a1.36,1.36,0,0,0-1.36,1.36v4.08h-2.7a1.35,1.35,0,0,0-1.36,1.36v5.42a1.35,1.35,0,0,0,1.36,1.36H149.2a1.35,1.35,0,0,0,1.36-1.36V98.74A1.35,1.35,0,0,0,149.2,97.38Zm-44.84-2.72h39.42v2.72H104.36Zm43.48,8.14H100.3v-2.7h47.54Z"/><path d="M150.46,75.8a1.19,1.19,0,0,0-.78-.31,1.16,1.16,0,0,0-.84.38c-.76.83-2.14,1-3.93,1-.76,0-1.6,0-2.49-.09l-.78,0-1.94-.1c-.68,0-1.38-.06-2.11-.06s-1.27,0-1.92,0c-.47,0-.93,0-1.42,0-.87.07-1.79.15-2.72.31-.34,0-.68.12-1,.19-.19,0-.36.09-.55.12-.38.09-.74.15-1.12.26-.89.24-1.81.55-2.72.89s-1.58.66-2.39,1.07c-.57-.29-1.12-.52-1.69-.76l-.21-.07c-.84-.34-1.68-.65-2.51-.91s-1.83-.5-2.72-.67-1.69-.29-2.51-.36l-.19,0a32.84,32.84,0,0,0-3.38-.14h-.19c-.64,0-1.27,0-1.87,0l-2.66.14h-.07c-1.17.07-2.27.14-3.23.14-1.78,0-3.14-.23-3.89-1a1.19,1.19,0,0,0-.85-.38,1.16,1.16,0,0,0-.77.31,1.14,1.14,0,0,0,0,1.62c1.32,1.43,3.23,1.79,5.59,1.79,1,0,2.07-.07,3.2-.13l.19,0v5.46a1.19,1.19,0,0,0,.57,1,1.23,1.23,0,0,0,.59.15,1.18,1.18,0,0,0,.55-.14l.83-.46,2.29-1.28,3.11,1.74h0a1.18,1.18,0,0,0,.55.14,1.12,1.12,0,0,0,.56-.15,1.16,1.16,0,0,0,.56-1V79.27c.34,0,.68.13,1,.2.76.16,1.51.35,2.27.57l.45.14A23.69,23.69,0,0,1,122,81.3c.38.19.76.34,1.14.55a.78.78,0,0,0,.36.08.7.7,0,0,0,.19.06,1.32,1.32,0,0,0,.55-.14l.39-.19c.49-.24,1-.47,1.45-.67a19.72,19.72,0,0,1,2.72-1,26.25,26.25,0,0,1,2.7-.64,27.29,27.29,0,0,1,2.72-.34c1-.07,2-.1,2.91-.1s1.71,0,2.54.07l1.8.1.92,0c.89,0,1.73.09,2.53.09,2.36,0,4.25-.35,5.58-1.78A1.15,1.15,0,0,0,150.46,75.8Zm-37.19,6.77-.93-.52-1-.56a1,1,0,0,0-.56-.14,1,1,0,0,0-.56.14l-1.73,1-.23.12V78.94h.23c.7,0,1.41,0,2.15,0s1.75,0,2.67.1Z"/><path d="M150.27,35.93a1.12,1.12,0,0,0-.59-.17,1.08,1.08,0,0,0-.55.15,25.76,25.76,0,0,1-12.69,3c-1.6,0-3.13-.08-4.54-.17-1.24-.09-2.4-.16-3.47-.16a8.26,8.26,0,0,0-4.71,1.07,8.22,8.22,0,0,0-4.7-1.07c-1.07,0-2.24.07-3.48.16-1.41.09-3,.17-4.55.17a25.83,25.83,0,0,1-12.69-3,1,1,0,0,0-.53-.15,1.19,1.19,0,0,0-.6.17,1.12,1.12,0,0,0-.55,1V71.79a1.18,1.18,0,0,0,.25.71l.06.07c1.32,1.43,3.23,1.79,5.59,1.79,1,0,2.07-.07,3.2-.14a1,1,0,0,0,.23,0c.79,0,1.63-.08,2.5-.12.63,0,1.29,0,2,0a34.55,34.55,0,0,1,3.47.15c.87.11,1.79.24,2.7.43.27.06.53.14.81.21s.84.21,1.27.34l.64.19A25.29,25.29,0,0,1,122,76.46c.28.14.53.26.81.38l.31.15a.81.81,0,0,0,.22.07,1.46,1.46,0,0,0,.35.07,1.06,1.06,0,0,0,.51-.12s0,0,0,0c.24-.12.46-.22.7-.32s.76-.38,1.14-.54a22.6,22.6,0,0,1,2.72-1,21.9,21.9,0,0,1,2.7-.64h.06a25.91,25.91,0,0,1,2.66-.35c1-.06,2-.1,2.91-.1s1.71,0,2.54.07l1.8.1.92,0c.89.06,1.73.09,2.53.09,2.36,0,4.25-.34,5.58-1.77a.36.36,0,0,1,0-.07,1.07,1.07,0,0,0,.26-.71V36.91A1.14,1.14,0,0,0,150.27,35.93Zm-27.71,38.2a5.47,5.47,0,0,1-.53-.22c-.53-.22-1-.41-1.58-.6s-.76-.28-1.14-.38l-.55-.16c-.35-.08-.67-.19-1-.27h0a32.46,32.46,0,0,0-7.29-.76c-1.67,0-3.23.09-4.65.17-1.2.07-2.3.14-3.29.14a6.13,6.13,0,0,1-3.59-.76V38.77A28.75,28.75,0,0,0,111,41.16c1.67,0,3.22-.08,4.64-.17,1.2-.07,2.3-.14,3.29-.14a6.13,6.13,0,0,1,3.59.76Zm26-2.84a6.15,6.15,0,0,1-3.6.76c-1,0-2.08-.07-3.29-.14-1.41-.08-3-.17-4.63-.17a32.17,32.17,0,0,0-7.27.76h0a3.75,3.75,0,0,0-.43.12l-.47.14a2.17,2.17,0,0,0-.24.07,24.27,24.27,0,0,0-2.41.8.1.1,0,0,0-.07,0,4.47,4.47,0,0,0-.46.19,8.21,8.21,0,0,0-.78.29V41.61a6.15,6.15,0,0,1,3.6-.76c1,0,2.08.07,3.29.14,1.41.09,3,.19,4.65.19a28.81,28.81,0,0,0,12.12-2.41Z"/><path d="M116.92,57.11a1.21,1.21,0,0,1-1.16,1.13h-10a1.09,1.09,0,0,1-.89-.45,1,1,0,0,1-.26-.68A1.16,1.16,0,0,1,105.72,56h10A1.16,1.16,0,0,1,116.92,57.11Z"/><path d="M116.92,52.28a1.16,1.16,0,0,1-1.16,1.16h-10a1.16,1.16,0,0,1-1.15-1.16,1.28,1.28,0,0,1,.09-.44,1.14,1.14,0,0,1,1.06-.71h10A1.16,1.16,0,0,1,116.92,52.28Z"/><path d="M140.49,61.91a1.21,1.21,0,0,1-.35.83,1.16,1.16,0,0,1-.81.32h-5.26a1.17,1.17,0,0,1-1.07-.7,1.29,1.29,0,0,1-.09-.45,1.11,1.11,0,0,1,.33-.78,1.14,1.14,0,0,1,.83-.36h5.26a1.12,1.12,0,0,1,.81.33A1.16,1.16,0,0,1,140.49,61.91Z"/><path d="M142.86,57.11a1.13,1.13,0,0,1-1.13,1.13H131.67A1.22,1.22,0,0,1,131,58l-.15-.15a1.06,1.06,0,0,1-.29-.74,1.16,1.16,0,0,1,.43-.9,1.18,1.18,0,0,1,.7-.26h10.06a1.27,1.27,0,0,1,.43.09A1.15,1.15,0,0,1,142.86,57.11Z"/><path d="M142.86,52.28a1.14,1.14,0,0,1-1.13,1.16H131.67a1.15,1.15,0,0,1-.88-1.86,1.14,1.14,0,0,1,.88-.45h10.06a1.2,1.2,0,0,1,.81.35A1.12,1.12,0,0,1,142.86,52.28Z"/><path d="M114.52,61.88v0a1.14,1.14,0,0,1-1.15,1.15H108.1a1.38,1.38,0,0,1-.45-.08l-.07,0a1.16,1.16,0,0,1-.62-1,1.14,1.14,0,0,1,1.14-1.14h5.27A1.16,1.16,0,0,1,114.52,61.88Z"/></g></g></svg>