<svg xmlns="http://www.w3.org/2000/svg" viewBox="0 0 247 154"><defs><style>.cls-1{fill:#f0ad4e;}.cls-2{fill:none;stroke:#707070;stroke-width:0.3px;}.cls-3,.cls-4{isolation:isolate;}.cls-4{font-size:14px;font-family:RobotoSlab-SemiBold, Roboto Slab;font-weight:600;}.cls-5{letter-spacing:0em;}.cls-6{letter-spacing:-0.02em;}.cls-7{stroke:#f0ad4e;stroke-miterlimit:10;stroke-width:0.36px;}</style></defs><g id="Layer_2" data-name="Layer 2"><g id="Layer_1-2" data-name="Layer 1"><g id="Rectangle_791" data-name="Rectangle 791"><rect class="cls-1" width="247" height="154" rx="19"/><rect class="cls-2" x="0.15" y="0.15" width="246.7" height="153.7" rx="18.85"/></g><g id="Law" class="cls-3"><text class="cls-4" transform="translate(109.33 138)"><tspan class="cls-5">L</tspan><tspan class="cls-6" x="8.24" y="0">a</tspan><tspan x="15.88" y="0">w</tspan></text></g><path class="cls-7" d="M157.93,97.47a1.14,1.14,0,0,0,1.14-1.14v-34a1.14,1.14,0,0,0-1.14-1.14h-4.54a1.14,1.14,0,0,0,0,2.27h3.41V67.2H150V57.36h3a1.14,1.14,0,0,0,1.14-1.13V50.17a1.14,1.14,0,0,0-2.27,0v.38h-5.25L124.08,37.09a1.1,1.1,0,0,0-1.16,0L100.37,50.55H95.12v-.38a1.14,1.14,0,0,0-2.27,0v6.06A1.14,1.14,0,0,0,94,57.36h3V67.2H90.2V63.41h3.41a1.14,1.14,0,0,0,0-2.27H89.07a1.14,1.14,0,0,0-1.14,1.14V96.33a1.14,1.14,0,1,0,2.27,0V69.47H97V93.68H94a1.14,1.14,0,0,0-1.14,1.14v4.92H89.07a1.14,1.14,0,0,0-1.14,1.13v6.06a1.14,1.14,0,0,0,1.14,1.13h68.86a1.14,1.14,0,0,0,1.14-1.13v-6.06a1.14,1.14,0,0,0-1.14-1.13h-3.78V94.82A1.14,1.14,0,0,0,153,93.68h-3V69.47h6.81V96.33A1.14,1.14,0,0,0,157.93,97.47ZM123.5,39.39l18.7,11.16H138l-13.9-8.18a1.15,1.15,0,0,0-1.16,0L109,50.55H104.8Zm10,11.16h-20l10-5.88ZM156.8,102v3.78H90.2V102ZM151.88,96v3.78H95.12V96ZM99.28,61.14V57.36h48.44v3.78Zm48.44,2.27V87.63h-2.27V63.41ZM134.6,67.2V63.41h8.58V67.2Zm8.58,2.27V87.63H134.6V69.47Zm-10.85-6.06V87.63h-2.27V63.41ZM123.5,82.33a1.14,1.14,0,0,0-1.14,1.14v4.16h-3.15V69.47h8.58V87.63h-3.15V83.47A1.14,1.14,0,0,0,123.5,82.33ZM119.21,67.2V63.41h8.58V67.2Zm-2.27-3.79V87.63h-2.27V63.41ZM103.82,67.2V63.41h8.58V67.2Zm8.58,2.27V87.63h-8.58V69.47Zm-10.85-6.06V87.63H99.28V63.41ZM147.72,89.9v3.78H99.28V89.9ZM95.12,55.09V52.82h56.76v2.27Z"/></g></g></svg>