<svg xmlns="http://www.w3.org/2000/svg" viewBox="0 0 247 154"><defs><style>.cls-1{fill:#aee8fe;}.cls-2{fill:none;stroke:#707070;stroke-width:0.3px;}.cls-3,.cls-4{isolation:isolate;}.cls-4{font-size:14px;font-family:RobotoSlab-SemiBold, Roboto Slab;font-weight:600;}.cls-5{letter-spacing:-0.01em;}.cls-6{letter-spacing:-0.01em;}.cls-7{letter-spacing:0.01em;}</style></defs><g id="Layer_2" data-name="Layer 2"><g id="Layer_1-2" data-name="Layer 1"><g id="Rectangle_790" data-name="Rectangle 790"><rect class="cls-1" width="247" height="154" rx="19"/><rect class="cls-2" x="0.15" y="0.15" width="246.7" height="153.7" rx="18.85"/></g><g id="Mathematics" class="cls-3"><text class="cls-4" transform="translate(80 139)">M<tspan class="cls-5" x="14" y="0">a</tspan><tspan x="21.66" y="0">t</tspan><tspan class="cls-6" x="26.68" y="0">h</tspan><tspan x="35.53" y="0">em</tspan><tspan class="cls-5" x="56.06" y="0">a</tspan><tspan class="cls-7" x="63.72" y="0">t</tspan><tspan x="68.87" y="0">ics</tspan></text></g><g id="Group_17" data-name="Group 17"><path id="Path_9" data-name="Path 9" d="M148.22,34.19H97.68a5.1,5.1,0,0,0-5.09,5.08V89.8a5.09,5.09,0,0,0,5.09,5.08h50.53a5.09,5.09,0,0,0,5.08-5.08V39.27a5.08,5.08,0,0,0-5.07-5.08Zm2.08,55.62a2.08,2.08,0,0,1-2.08,2.08H97.68a2.09,2.09,0,0,1-2.09-2.08h0V39.27a2.09,2.09,0,0,1,2.09-2.08h50.53a2.08,2.08,0,0,1,2.08,2.08h0V89.81Z"/><path id="Path_10" data-name="Path 10" d="M116.69,71.72a1.51,1.51,0,0,0-2.12,0h0l-4.51,4.51-4.5-4.51a1.51,1.51,0,0,0-2.13,2.13h0l4.51,4.5-4.51,4.51a1.5,1.5,0,0,0,1.06,2.56,1.54,1.54,0,0,0,1.07-.44l4.5-4.51L114.57,85a1.5,1.5,0,0,0,2.12-2.12h0l-4.51-4.51,4.51-4.5A1.52,1.52,0,0,0,116.69,71.72Z"/><path id="Path_11" data-name="Path 11" d="M117.94,50.63h-6.37V44.27a1.5,1.5,0,1,0-3,0v6.36h-6.37a1.5,1.5,0,0,0,0,3h6.37V60a1.5,1.5,0,1,0,3,0V53.63h6.37a1.5,1.5,0,0,0,0-3Z"/><path id="Path_12" data-name="Path 12" d="M143,80.52H129.6a1.5,1.5,0,0,0,0,3H143a1.5,1.5,0,0,0,0-3Z"/><path id="Path_13" data-name="Path 13" d="M143,73.17H129.6a1.5,1.5,0,0,0,0,3H143a1.5,1.5,0,0,0,0-3Z"/><path id="Path_14" data-name="Path 14" d="M141.86,53.63a1.5,1.5,0,0,0,0-3H128.44a1.5,1.5,0,0,0,0,3h13.42Z"/></g></g></g></svg>