<svg xmlns="http://www.w3.org/2000/svg" viewBox="0 0 247 154"><defs><style>.cls-1{fill:#a29cfe;}.cls-2{fill:none;stroke:#707070;stroke-width:0.3px;}.cls-3,.cls-4{isolation:isolate;}.cls-4{font-size:14px;font-family:RobotoSlab-SemiBold, Roboto Slab;font-weight:600;}.cls-5{letter-spacing:-0.01em;}.cls-6{letter-spacing:0em;}</style></defs><g id="Layer_2" data-name="Layer 2"><g id="Layer_1-2" data-name="Layer 1"><g id="Rectangle_793" data-name="Rectangle 793"><rect class="cls-1" width="247" height="154" rx="19"/><rect class="cls-2" x="0.15" y="0.15" width="246.7" height="153.7" rx="18.85"/></g><g id="Science" class="cls-3"><text class="cls-4" transform="translate(98 139)">Scie<tspan class="cls-5" x="27.69" y="0">n</tspan><tspan class="cls-6" x="36.6" y="0">c</tspan><tspan x="44.01" y="0">e</tspan></text></g><path d="M148.39,97.28h-1.07V53.71l.13-.09a10.39,10.39,0,0,0-5.82-19H104.07a1.22,1.22,0,0,0-1.22,1.22V55.71a1.22,1.22,0,0,0,1.22,1.22h1.84v4.13a1.22,1.22,0,0,0,1.22,1.22h4.58a1.22,1.22,0,0,0,1.22-1.22V56.93h1.84A1.22,1.22,0,0,0,116,55.71v-11h15.25V45a10.36,10.36,0,0,0,4.34,8.42l.13.1v33H125.47a4.28,4.28,0,0,0-4.28,4.28v6.42h-6V82.91h11A2.75,2.75,0,0,0,129,80.16V76.34a1.22,1.22,0,0,0-1.22-1.22H98a1.22,1.22,0,0,0-1.22,1.22v3.82a2.75,2.75,0,0,0,2.75,2.75h4.13V97.28H99.49a4.28,4.28,0,0,0-4.28,4.28v6.11a1.22,1.22,0,0,0,1.22,1.22h55a1.22,1.22,0,0,0,1.22-1.22v-6.11A4.28,4.28,0,0,0,148.39,97.28Zm-37.9-37.44h-2.14V56.93h2.14Zm3.06-5.35h-8.26v-6h8.26Zm0-8.4h-8.26v-9h8.26Zm18.07-3.82H116v-5.2h18.89l-.53.52a10.4,10.4,0,0,0-2.67,4.46ZM133.68,45a6.86,6.86,0,0,1,.12-1.31A7.94,7.94,0,1,1,145.49,52a7.74,7.74,0,0,1-3.86,1,7.85,7.85,0,0,1-4.07-1.13A8,8,0,0,1,133.68,45Zm11.19,9.88V86.58h-6.72V54.81l.4.12a10.41,10.41,0,0,0,5.93.08Zm-21.24,36A1.84,1.84,0,0,1,125.47,89h19.4v8.26H123.63ZM99.18,80.47V77.56h27.36v2.91Zm6.88,6.88V82.91h6.72v4.44Zm6.72,2.44v7.49h-6.72V89.79Zm37.44,16.66H97.65v-4.89a1.84,1.84,0,0,1,1.84-1.84h48.9a1.83,1.83,0,0,1,1.83,1.84Z"/><path d="M141.51,39.21A5.81,5.81,0,1,0,147.32,45,5.81,5.81,0,0,0,141.51,39.21Zm0,9.17A3.37,3.37,0,1,1,144.87,45,3.37,3.37,0,0,1,141.51,48.38Z"/><rect x="126.54" y="91.93" width="9.31" height="2.44"/><rect x="138.76" y="91.93" width="2.44" height="2.44"/></g></g></svg>