<svg xmlns="http://www.w3.org/2000/svg" viewBox="0 0 283 102.36"><defs><style>.cls-1{fill:#fff;}</style></defs><g id="Layer_2" data-name="Layer 2"><g id="Layer_1-2" data-name="Layer 1"><path class="cls-1" d="M103.46,2.64v.64h-1.25V6.53h-.77V3.28h-1.25V2.64Zm4.21,3.89-.14-2.29c0-.3,0-.67,0-1.09h0c-.1.35-.21.8-.33,1.16l-.7,2.17h-.8l-.7-2.22c-.07-.31-.19-.76-.27-1.11h-.05c0,.36,0,.73,0,1.09l-.14,2.29h-.74L104,2.64h1.16l.68,1.9c.08.3.15.59.25,1h0c.1-.36.18-.69.27-1L107,2.64h1.12l.3,3.89Z"/><path class="cls-1" d="M75.83,102.36H26.53A26.56,26.56,0,0,1,0,75.83V26.53A26.56,26.56,0,0,1,26.53,0h49.3a26.56,26.56,0,0,1,26.53,26.53v49.3A26.56,26.56,0,0,1,75.83,102.36ZM26.53,5.21A21.34,21.34,0,0,0,5.21,26.53v49.3A21.34,21.34,0,0,0,26.53,97.15h49.3A21.34,21.34,0,0,0,97.15,75.83V26.53A21.34,21.34,0,0,0,75.83,5.21Z"/><path class="cls-1" d="M77.34,80.65,75.62,54.91A3.17,3.17,0,0,0,75,53.17L56.37,29.23l0,0L51.29,33.1,33.58,46.85l-2.81-3.61c-5.33-7.89-.68-13.66,2-15.73a11.23,11.23,0,0,1,15.72,2l5-3.91v0A17.61,17.61,0,0,0,25.7,47.17l6.6,8.5,5.62-4.07,17.3-13.43L69.29,56.32l1,15.42L51.78,46.66l-5.09,3.73L64.35,74.26,51.59,70.07,40.08,55.23,34.89,59,47.12,74.77a3.19,3.19,0,0,0,1.53,1.08l24.5,8.06a3.37,3.37,0,0,0,3-.52A3.09,3.09,0,0,0,77.34,80.65Z"/><path class="cls-1" d="M115.28,73.88l16.28-11.72c1.06,1.37,1.74,2.28,2.05,2.73a2.33,2.33,0,0,1,.45,1.25l-.34,1.14-1.48,2.28-.11.8q0,5.24,5.23,9a21.32,21.32,0,0,0,12.75,3.75q7.63,0,12.47-3.7a11.6,11.6,0,0,0,4.84-9.64,10.16,10.16,0,0,0-3.19-8,15.11,15.11,0,0,0-4.9-2.74A107.62,107.62,0,0,0,149,56c-3.56-.91-5.42-1.41-5.57-1.48q-2.85-.8-6.61-2.17a27.82,27.82,0,0,1-7.28-3.08A17,17,0,0,1,123,42.4a20.39,20.39,0,0,1-2.39-9.8,20.74,20.74,0,0,1,8.08-17q8.08-6.5,21.17-6.5a40.94,40.94,0,0,1,19.93,4.78A27.08,27.08,0,0,1,176,18.56a37.2,37.2,0,0,1,5.24,7.74l-10.7,10-1.8-1.71a3.74,3.74,0,0,1-.85-1c-.14-.26-.28-.51-.42-.74V30.06q0-4.56-5-7.63T150,19.36q-15,0-15,10.49a7.69,7.69,0,0,0,3.87,6.95,7.31,7.31,0,0,0,1.77,1q1.08.45,2.67,1a34.21,34.21,0,0,0,3.53,1q3.52.91,7.23,1.77c2.47.57,4.59,1.12,6.38,1.65s3.58,1.14,5.4,1.82q17.53,6.39,17.53,22.23a25.08,25.08,0,0,1-4,13.23q-8.53,13.68-30.17,13.68-11.83,0-20.37-4.78A25.51,25.51,0,0,1,121.94,84,62.31,62.31,0,0,1,115.28,73.88Z"/><path class="cls-1" d="M204.23,92.67,183.05,22.32c-1.06-3.65-1.93-5.58-2.62-5.81l-.91-.57a2.2,2.2,0,0,1-1.25-2v-3.3h25.16v3.3a2.06,2.06,0,0,1-1.37,2l-.8.57A3.52,3.52,0,0,0,199,19.93a5.75,5.75,0,0,0,.57,2.39l14.12,48.73,11-38.94-3.08-9.79-.46-1.6c-.68-2.27-1.59-3.68-2.73-4.21l-.91-.57c-1-.53-1.49-1.17-1.49-1.93V10.59h25.05V13.9a2.06,2.06,0,0,1-1.37,2l-.91.57c-.76.38-1.14,1.37-1.14,3l.34,2.85L250.46,69.4l13.11-47.07L264,20a3.61,3.61,0,0,0-2.62-3.53l-.69-.57a2.06,2.06,0,0,1-1.37-2v-3.3H283v3.3a2.33,2.33,0,0,1-1.48,2l-.91.57c-1.59.68-2.89,2.62-3.87,5.81L256.25,92.67h-14.8l-10.7-41.33L219,92.67Z"/></g></g></svg>