<svg xmlns="http://www.w3.org/2000/svg" viewBox="0 0 155.71 145.29"><defs><style>.cls-1{fill:#fff;}</style></defs><g id="Layer_2" data-name="Layer 2"><g id="Layer_1-2" data-name="Layer 1"><path class="cls-1" d="M148.63,3.74v.92h-1.77V9.27h-1.1V4.66H144V3.74Zm6,5.53L154.41,6c0-.43,0-1,0-1.55h-.06c-.15.49-.31,1.14-.47,1.65l-1,3.07H151.7l-1-3.15c-.1-.43-.27-1.08-.39-1.57h-.06c0,.51,0,1,0,1.55L150,9.27H149l.4-5.53H151l1,2.71c.12.42.22.83.36,1.4h0c.15-.51.27-1,.39-1.38l1-2.73h1.58l.43,5.53Z"/><path class="cls-1" d="M107.64,145.29h-70A37.7,37.7,0,0,1,0,107.63v-70A37.7,37.7,0,0,1,37.66,0h70a37.7,37.7,0,0,1,37.65,37.66v70A37.7,37.7,0,0,1,107.64,145.29Zm-70-137.9A30.31,30.31,0,0,0,7.39,37.66v70A30.31,30.31,0,0,0,37.66,137.9h70a30.3,30.3,0,0,0,30.26-30.27v-70A30.3,30.3,0,0,0,107.64,7.39Z"/><path class="cls-1" d="M109.78,114.48l-2.45-36.54a4.42,4.42,0,0,0-.94-2.47L80,41.49l0,0L72.8,47,47.66,66.5l-4-5.13c-7.57-11.19-1-19.39,2.81-22.32a15.94,15.94,0,0,1,22.32,2.81L76,36.32l0,0A25,25,0,0,0,36.48,67L45.85,79l8-5.78L78.38,54.18l20,25.75,1.48,21.89L73.5,66.23l-7.22,5.3,25,33.87-18.1-6-16.34-21-7.37,5.35,17.37,22.38a4.55,4.55,0,0,0,2.16,1.53l34.78,11.43a4.75,4.75,0,0,0,4.2-.73A4.44,4.44,0,0,0,109.78,114.48Z"/></g></g></svg>