<svg xmlns="http://www.w3.org/2000/svg" viewBox="0 0 833.92 145.29"><defs><style>.cls-1{fill:#fff;}</style></defs><g id="Layer_2" data-name="Layer 2"><g id="Layer_1-2" data-name="Layer 1"><path class="cls-1" d="M146.84,3.74v.92h-1.77V9.27H144V4.66H142.2V3.74Zm6,5.53L152.62,6c0-.43,0-1,0-1.55h-.06c-.15.49-.31,1.14-.47,1.65l-1,3.07h-1.14l-1-3.15c-.11-.43-.27-1.08-.39-1.57h-.06c0,.51,0,1,0,1.55l-.2,3.25h-1.06l.4-5.53h1.65l1,2.71c.12.42.22.83.36,1.4h0c.15-.51.27-1,.39-1.38l1-2.73h1.58l.43,5.53Z"/><path class="cls-1" d="M826.84,33.74v.92h-1.77v4.61H824V34.66h-1.76v-.92Zm6,5.53-.2-3.25c0-.43,0-1,0-1.55h-.06c-.14.49-.31,1.14-.47,1.65l-1,3.07h-1.14l-1-3.15c-.11-.43-.27-1.08-.39-1.57h-.06c0,.51,0,1,0,1.55l-.21,3.25h-1.05l.4-5.53h1.65l1,2.71c.12.42.22.83.36,1.4h0c.15-.51.27-1,.39-1.38l1-2.73h1.58l.43,5.53Z"/><path class="cls-1" d="M107.64,145.29h-70A37.7,37.7,0,0,1,0,107.63v-70A37.7,37.7,0,0,1,37.66,0h70a37.7,37.7,0,0,1,37.65,37.66v70A37.7,37.7,0,0,1,107.64,145.29Zm-70-137.9A30.31,30.31,0,0,0,7.39,37.66v70A30.31,30.31,0,0,0,37.66,137.9h70a30.3,30.3,0,0,0,30.26-30.27v-70A30.3,30.3,0,0,0,107.64,7.39Z"/><path class="cls-1" d="M109.78,114.48l-2.45-36.54a4.42,4.42,0,0,0-.94-2.47L80,41.49l0,0L72.8,47,47.66,66.5l-4-5.13c-7.57-11.19-1-19.39,2.81-22.32a15.94,15.94,0,0,1,22.32,2.81L76,36.32l0,0A25,25,0,0,0,36.48,67L45.85,79l8-5.78L78.38,54.18l20,25.75,1.48,21.89L73.5,66.23l-7.22,5.3,25,33.87-18.1-6-16.34-21-7.37,5.35,17.37,22.38a4.55,4.55,0,0,0,2.16,1.53l34.78,11.43a4.75,4.75,0,0,0,4.2-.73A4.44,4.44,0,0,0,109.78,114.48Z"/><path class="cls-1" d="M178.16,97.89l17.38-12.52c1.13,1.46,1.86,2.43,2.18,2.91a2.46,2.46,0,0,1,.49,1.34l-.36,1.22-1.58,2.43-.13.85q0,5.59,5.6,9.6a22.73,22.73,0,0,0,13.61,4q8.15,0,13.31-4a12.38,12.38,0,0,0,5.16-10.29q0-5.47-3.4-8.52A16.17,16.17,0,0,0,225.19,82q-3.52-1.33-11.06-3.28-5.72-1.45-5.95-1.59-3-.84-7.05-2.31a29.82,29.82,0,0,1-7.78-3.28,18.25,18.25,0,0,1-6.93-7.31,21.74,21.74,0,0,1-2.55-10.47,22.16,22.16,0,0,1,8.63-18.14q8.63-6.93,22.61-6.94a43.73,43.73,0,0,1,21.27,5.11,29.13,29.13,0,0,1,6.56,5,39.87,39.87,0,0,1,5.59,8.27L237.11,57.77,235.18,56a4.17,4.17,0,0,1-.9-1c-.15-.28-.31-.55-.46-.79v-3q0-4.86-5.32-8.14t-13.33-3.29q-16,0-16,11.2a8.21,8.21,0,0,0,4.14,7.43,7.06,7.06,0,0,0,1.88,1.09c.77.33,1.72.69,2.86,1.1a35.46,35.46,0,0,0,3.76,1.1c2.52.65,5.09,1.27,7.72,1.88s4.9,1.2,6.81,1.77,3.83,1.22,5.77,2Q250.84,74,250.84,90.91A26.76,26.76,0,0,1,246.59,105q-9.12,14.61-32.21,14.61-12.65,0-21.76-5.1a27,27,0,0,1-7.35-5.84A65.2,65.2,0,0,1,178.16,97.89Z"/><path class="cls-1" d="M249.58,67.26V57.41h7.29V37.82L272.55,33V57.41h14.58v9.85H272.55v35.1c0,4.64,1.47,7,4.41,7q3.06,0,4.9-4a8.16,8.16,0,0,1,.49-1.42,6.18,6.18,0,0,1,.55-.69c.28-.33,1.41-.49,3.37-.49h2v13.1a31.11,31.11,0,0,1-14,3.79q-8.21,0-13.39-4.51a10.63,10.63,0,0,1-3.08-4.81,28.83,28.83,0,0,1-.9-8.22V67.26Z"/><path class="cls-1" d="M288,117.94v-3.16a2.07,2.07,0,0,1,1.94-2.19l1.46-.48c.49-.16.93-.73,1.34-1.7l.36-3.16V68.11q0-4.5-1.21-4.87l-1.95-.48c-1.3-.41-1.94-1.14-1.94-2.19V57.41h20.05v5.35a38.15,38.15,0,0,1,4.13-4.38A15.81,15.81,0,0,1,316,56.07,16.1,16.1,0,0,1,323,54.49a43,43,0,0,1,5.84.73v17H324.7c-1.13,0-1.82-.12-2.06-.37a4.06,4.06,0,0,1-.73-1.58q-1.1-3.77-3.65-3.76A9.37,9.37,0,0,0,311.94,69a7.36,7.36,0,0,0-2.79,5.71v32.58c0,2.83.64,4.45,1.94,4.86l1.46.36q2.07.61,2.07,2.31v3.16Z"/><path class="cls-1" d="M384.53,87.92H344.42l-.24,1.68A19,19,0,0,0,350,103.42a18.7,18.7,0,0,0,13.74,5.89,16.83,16.83,0,0,0,14.7-7.58,5.44,5.44,0,0,1,1.46-1.54,4,4,0,0,1,1.95-.36h3.89v13.89l-3.53,2.06q-8,3.85-19.2,3.86-15.45,0-25-9t-9.61-23.54A30.67,30.67,0,0,1,337,65.05a28.11,28.11,0,0,1,21-9q13.62,0,21,10.5a31.46,31.46,0,0,1,4.19,9A47.91,47.91,0,0,1,384.53,87.92ZM357.18,66.28q-10.69,0-12.28,12.4h23.59q0-6.25-2.92-9.33C363.62,67.31,360.83,66.28,357.18,66.28Z"/><path class="cls-1" d="M428.67,74.43V72.12q0-7.91-11.18-7.9a24.81,24.81,0,0,0-3.95.24q-1.4.24-5.59,1.46c-2.79.81-4.68,1.86-5.65,3.16L401,71a3.58,3.58,0,0,1-3.4,1.71l-4.13-.13V59.23l6.8-1.82a85.29,85.29,0,0,1,9.3-1.82,71.81,71.81,0,0,1,9.06-.49q26.13,0,26.13,18v33.06q0,5.23,1.7,5.71l1.58.61a2.35,2.35,0,0,1,1.95,2.31v3.16H429.28v-5a19.16,19.16,0,0,1-4,2.43,23.16,23.16,0,0,1-7,2.79,36.11,36.11,0,0,1-8.44,1q-9.49,0-15.26-5.17t-5.77-13.79A18.57,18.57,0,0,1,396,84.88a36.47,36.47,0,0,1,12-6.14A135.46,135.46,0,0,1,428.67,74.43Zm0,27.1V84.27c-1.62.25-3.24.51-4.86.79s-3.28.63-5,1a36.43,36.43,0,0,0-9.12,4,10,10,0,0,0-4.62,8.75,9.19,9.19,0,0,0,2.8,7.17,10.94,10.94,0,0,0,7.66,2.55,15.62,15.62,0,0,0,7.35-1.82A15.85,15.85,0,0,0,428.67,101.53Z"/><path class="cls-1" d="M451.21,117.94v-3.16a2.1,2.1,0,0,1,1.82-2.31l1.7-.36c1-.25,1.46-1.87,1.46-4.86V67.86c0-3-.48-4.57-1.46-4.74l-1.58-.36a2.3,2.3,0,0,1-1.94-2.43V57.41h21v5.83l3.51-2.67a27.73,27.73,0,0,1,16.11-5.23,25.89,25.89,0,0,1,9,1.7q4.6,1.71,8.48,7.06a49.57,49.57,0,0,1,6-4.38,28.31,28.31,0,0,1,5.22-2.43,31.55,31.55,0,0,1,10-1.46q19.81,0,19.81,19v32.46q0,4.25,1.83,4.86l1.21.36q2.19.61,2.19,2.31v3.16H530.09v-3.16q0-1.45,1.95-2.31l1-.36q1.22-.61,1.22-4.86V77.34c0-1.94-.06-3.58-.19-4.92a7.21,7.21,0,0,0-1.29-3.58c-1.47-2-3.89-3-7.24-3A18.73,18.73,0,0,0,519.36,67,20.89,20.89,0,0,0,511,73.45v33.8q0,4.13,1.63,4.74l.87.48c1.33.49,2,1.26,2,2.31v3.16h-24.8v-3.16q0-1.57,2-2.19l.73-.48q1.58-.49,1.58-4.86V77q0-10.82-9.12-10.82a12.9,12.9,0,0,0-5.35,1.1,14.34,14.34,0,0,0-3.89,1.82,39.48,39.48,0,0,0-4.37,3.77v34.4c0,2.67.56,4.29,1.7,4.86l1,.36q1.95.86,1.95,2.31v3.16Z"/><path class="cls-1" d="M575.13,117.94,552.52,42.82q-1.71-5.84-2.8-6.19l-1-.61a2.36,2.36,0,0,1-1.34-2.19V30.3h26.87v3.53A2.2,2.2,0,0,1,572.82,36l-.85.61a3.74,3.74,0,0,0-2.43,3.64,6.23,6.23,0,0,0,.6,2.56l15.08,52L597,53.28l-3.29-10.45-.48-1.71q-1.11-3.65-2.92-4.49l-1-.61c-1.06-.57-1.58-1.26-1.58-2.07V30.3h26.74v3.53A2.19,2.19,0,0,1,613.05,36l-1,.61c-.81.41-1.22,1.46-1.22,3.16l.37,3.05,13.26,50.25,14-50.25L639,40.4a3.85,3.85,0,0,0-2.81-3.77l-.73-.61A2.18,2.18,0,0,1,634,33.83V30.3h25.28v3.53A2.52,2.52,0,0,1,657.66,36l-1,.61c-1.7.72-3.08,2.79-4.14,6.19l-21.88,75.12h-15.8L603.45,73.82l-12.52,44.12Z"/><path class="cls-1" d="M651.35,87.62q0-14.81,8.75-23.54t23.7-8.74q14.84,0,23.52,8.68T716,87.62q0,14.79-8.63,23.53t-23.58,8.74q-14.94,0-23.7-8.74T651.35,87.62ZM683.8,65c-5.26,0-9.28,1.94-12,5.82s-4.13,9.49-4.13,16.85,1.4,12.87,4.19,16.79,6.79,5.87,12,5.87,9.18-2,12-5.87S700,94.89,700,87.62s-1.4-12.87-4.19-16.79S689,65,683.8,65Z"/><path class="cls-1" d="M717,117.94v-3.16a2.08,2.08,0,0,1,2-2.19l1.46-.48c.48-.16.93-.73,1.33-1.7l.37-3.16V68.11q0-4.5-1.22-4.87L719,62.76q-2-.61-2-2.19V57.41h20.06v5.35a38.15,38.15,0,0,1,4.13-4.38A15.61,15.61,0,0,1,745,56.07a16.1,16.1,0,0,1,7-1.58,42.71,42.71,0,0,1,5.83.73v17h-4.13c-1.13,0-1.82-.12-2.06-.37a3.92,3.92,0,0,1-.73-1.58q-1.1-3.77-3.65-3.76A9.37,9.37,0,0,0,741,69a7.34,7.34,0,0,0-2.8,5.71v32.58q0,4.25,2,4.86l1.46.36c1.37.41,2.06,1.18,2.06,2.31v3.16Z"/><path class="cls-1" d="M755,117.94v-3.16c0-1,.72-1.74,2.18-2.31l.85-.36q2.07-.73,2.07-4.86V41.12q0-4.24-1.94-4.86l-1.22-.49c-1.3-.4-1.94-1.13-1.94-2.18V30.3H776.1V82l16.12-14,1.62-1.41a3.27,3.27,0,0,0,1.46-2.31,3.51,3.51,0,0,0-1.46-1.1l-.66-.24a2.44,2.44,0,0,1-1.77-2.31V57.41h27.47v3.16c0,1.06-.69,1.79-2.06,2.2l-.85.36-1.82.85a14.8,14.8,0,0,0-3,1.58A26.94,26.94,0,0,0,808.08,68l-10.85,9.92,17.27,29.32q2.31,4,4.38,4.74l.73.49c1.3.48,1.94,1.26,1.94,2.31v3.16H793.84v-3.16a2.35,2.35,0,0,1,1.46-2.19l1.08-.48c.41-.08.62-.45.62-1.1v-.6l-.48-1.71-.73-1.45-10.94-19.7-8.75,7.66v12q0,4.25,1.53,4.86l1,.48q1.89.61,1.89,2.19v3.16Z"/></g></g></svg>