<svg xmlns="http://www.w3.org/2000/svg" viewBox="0 0 20.76 15.92"><g id="Layer_2" data-name="Layer 2"><g id="Main"><path d="M20.39,5.11,10.7.08a.64.64,0,0,0-.63,0l-9.7,5A.68.68,0,0,0,0,5.72H0V8.35A.68.68,0,0,0,.69,9a.67.67,0,0,0,.68-.68V6.85l1.47.76v5.47a.73.73,0,0,0,.13.4c.07.09,1.81,2.44,7.41,2.44s7.34-2.35,7.41-2.44a.66.66,0,0,0,.13-.4V7.61l2.47-1.28a.69.69,0,0,0,0-1.22Zm-3.84,7.7c-.46.44-2.15,1.74-6.17,1.74s-5.71-1.3-6.16-1.74V8.32l5.85,3a.68.68,0,0,0,.31.08.72.72,0,0,0,.32-.08l5.85-3ZM10.38,10,2.18,5.72l8.2-4.26,8.21,4.26Z"/><path d="M.69,9.64a.68.68,0,0,0-.69.68v.83a.69.69,0,0,0,.69.69.68.68,0,0,0,.68-.69v-.83A.67.67,0,0,0,.69,9.64Z"/></g></g></svg>