<svg xmlns="http://www.w3.org/2000/svg" viewBox="0 0 54.51 54.51"><defs><style>.cls-1{fill:#d5d5d5;}</style></defs><g id="Layer_2" data-name="Layer 2"><g id="Main"><g id="Group_142" data-name="Group 142"><g id="Group_141" data-name="Group 141"><path id="Path_74" data-name="Path 74" class="cls-1" d="M20,33.61a.9.9,0,0,0,.9.91h3.64a.91.91,0,0,0,.91-.91V28.16a.91.91,0,0,0-.91-.91H20.89a.9.9,0,0,0-.9.91Zm1.81-4.54h1.82V32.7H21.8Z"/><path id="Path_75" data-name="Path 75" class="cls-1" d="M20.89,23.62h3.64a.91.91,0,0,0,.91-.91V17.26a.91.91,0,0,0-.91-.91H20.89a.9.9,0,0,0-.9.91v5.45A.9.9,0,0,0,20.89,23.62Zm.91-5.45h1.82V21.8H21.8Z"/><path id="Path_76" data-name="Path 76" class="cls-1" d="M14.1,17.13l13.15-7.9,13.16,7.91a.92.92,0,0,0,1.25-.32.9.9,0,0,0-.31-1.24L28.16,7.66V1.82H32.7V3.63H30a.91.91,0,1,0,0,1.82h3.63a.91.91,0,0,0,.91-.91V.91A.91.91,0,0,0,33.61,0H27.25a.91.91,0,0,0-.91.91V7.66L13.16,15.57a.91.91,0,0,0-.31,1.25.9.9,0,0,0,1.24.31Z"/><path id="Path_77" data-name="Path 77" class="cls-1" d="M10,34.52a.91.91,0,0,0,.91-.91V28.16a.9.9,0,0,0-.91-.9H6.36a.9.9,0,0,0-.91.9V30a.91.91,0,1,0,1.82,0v-.91H9.09v4.54A.9.9,0,0,0,10,34.52Z"/><path id="Path_78" data-name="Path 78" class="cls-1" d="M16.35,46.33V20a.91.91,0,0,0-1.82,0V46.33a.91.91,0,1,0,1.82,0Z"/><path id="Path_79" data-name="Path 79" class="cls-1" d="M11.81,50.87H42.7a.91.91,0,1,0,0-1.81H34.52V40h.91a.91.91,0,1,0,0-1.82H19.08a.91.91,0,1,0,0,1.82H20v9.08H11.81a.91.91,0,0,0,0,1.82Zm16.35-5.45a.91.91,0,1,0,0-1.81V40H32.7v9.08H28.16ZM21.8,40h4.54v3.64a.91.91,0,0,0,0,1.81h0v3.63H21.8Z"/><path id="Path_80" data-name="Path 80" class="cls-1" d="M48.15,39.06H44.51a.9.9,0,0,0-.9.91v5.45a.9.9,0,0,0,.9.91h3.64a.91.91,0,0,0,.91-.91V40A.91.91,0,0,0,48.15,39.06Zm-.91,5.45H45.42V40.88h1.82Z"/><path id="Path_81" data-name="Path 81" class="cls-1" d="M48.15,28.16H44.51a.9.9,0,0,0-.9.91v5.45a.9.9,0,0,0,.9.91h3.64a.91.91,0,0,0,.91-.91V29.07A.91.91,0,0,0,48.15,28.16Zm-.91,5.45H45.42V30h1.82Z"/><path id="Path_82" data-name="Path 82" class="cls-1" d="M46.33,52.69H8.18a.91.91,0,0,0,0,1.82H46.33a.91.91,0,1,0,0-1.82Z"/><path id="Path_83" data-name="Path 83" class="cls-1" d="M53.6,20a.9.9,0,0,0-.91.9v.91h-10a.91.91,0,0,0,0,1.82h10v30a.91.91,0,0,0,1.82,0V20.9A.91.91,0,0,0,53.6,20Z"/><path id="Path_84" data-name="Path 84" class="cls-1" d="M29.07,33.61a.91.91,0,0,0,.91.91h3.63a.91.91,0,0,0,.91-.91V28.16a.91.91,0,0,0-.91-.91H30a.91.91,0,0,0-.91.91Zm1.82-4.54H32.7V32.7H30.89Z"/><path id="Path_85" data-name="Path 85" class="cls-1" d="M9.08,44.51C9.08,44.4,9,32.7,4.54,32.7S0,44.4,0,44.51A4.54,4.54,0,0,0,3.63,49V53.6a.91.91,0,0,0,1.82,0V49A4.54,4.54,0,0,0,9.08,44.51ZM4.54,47.24a2.72,2.72,0,0,1-2.72-2.73c0-4.52,1.21-10,2.72-10s2.73,5.47,2.73,10a2.73,2.73,0,0,1-2.73,2.73Z"/><path id="Path_86" data-name="Path 86" class="cls-1" d="M40,46.33V19.08a.91.91,0,1,0-1.82,0V46.33a.91.91,0,1,0,1.82,0Z"/><path id="Path_87" data-name="Path 87" class="cls-1" d="M30,23.62h3.63a.91.91,0,0,0,.91-.91V17.26a.91.91,0,0,0-.91-.91H30a.91.91,0,0,0-.91.91v5.45A.91.91,0,0,0,30,23.62Zm.91-5.45H32.7V21.8H30.89Z"/><path id="Path_88" data-name="Path 88" class="cls-1" d="M.91,31.8a.91.91,0,0,0,.91-.91V23.62h10a.91.91,0,1,0,0-1.82h-10v-.91A.9.9,0,0,0,.91,20a.9.9,0,0,0-.91.9v10A.91.91,0,0,0,.91,31.8Z"/></g></g></g></g></svg>