<svg xmlns="http://www.w3.org/2000/svg" viewBox="0 0 1280 720"><defs><style>.cls-1{fill:#dfdfdf;}.cls-2{fill:#050505;opacity:0.07;isolation:isolate;}.cls-3{opacity:0.08;}</style></defs><g id="Layer_2" data-name="Layer 2"><g id="Main"><rect class="cls-1" width="1280" height="720"/><path class="cls-2" d="M698.45,442.49a8.66,8.66,0,0,1-7.63,1.33L627.63,423a8.06,8.06,0,0,1-3.94-2.78l-31.56-40.67,13.38-9.72,29.7,38.27,32.91,10.81-45.57-61.55,13.13-9.63,47.85,64.7-2.74-39.77-36.28-46.8-44.65,34.63L585.46,371l-17-21.87a45.43,45.43,0,0,1,71.78-55.7h0l-13,10.07a29,29,0,0,0-40.56-5.11c-6.88,5.32-18.88,20.22-5.11,40.56l7.23,9.33,45.68-35.47,13.06-9.94h0l47.93,61.75a8.12,8.12,0,0,1,1.72,4.5l4.44,66.38C701.7,436,701.85,440.23,698.45,442.49Z"/><g class="cls-3"><path d="M1250.45,685.52h-.78V641.6a10.9,10.9,0,0,0-6.11-19.93h-38.27a1.56,1.56,0,0,0-1.56,1.56v20.24a1.56,1.56,0,0,0,1.56,1.56h1.55v3.89a1.56,1.56,0,0,0,1.56,1.56h4.67a1.56,1.56,0,0,0,1.56-1.56V645h1.56a1.55,1.55,0,0,0,1.55-1.56v-10.9h14.92a10.93,10.93,0,0,0,4.55,8.84v33.21h-10.12a4.67,4.67,0,0,0-4.67,4.67v6.23H1217v-14h10.9a3.11,3.11,0,0,0,3.11-3.11V664.5a1.56,1.56,0,0,0-1.56-1.56h-30.36a1.56,1.56,0,0,0-1.56,1.56v3.89a3.11,3.11,0,0,0,3.11,3.11h3.9v14h-3.9a4.68,4.68,0,0,0-4.67,4.67v6.23a1.56,1.56,0,0,0,1.56,1.56h56.06a1.56,1.56,0,0,0,1.56-1.56v-6.23A4.68,4.68,0,0,0,1250.45,685.52Zm-38.94-38.16H1210V645h1.55Zm3.12-5.45h-7.79v-5.45h7.79Zm0-8.56h-7.79v-8.57h7.79Zm3.11-3.89v-4.68h18.18a10.84,10.84,0,0,0-2.8,4.68Zm18,3.11a7.41,7.41,0,0,1,.11-1.27v0a7.78,7.78,0,0,1,15.45,1.3,7.82,7.82,0,0,1-4,6.81,7.73,7.73,0,0,1-7.76-.13h0A7.81,7.81,0,0,1,1235.78,632.57Zm10.77,10.49v31.56h-6.22V643a11,11,0,0,0,6.22.08Zm-21,36.23a1.56,1.56,0,0,1,1.56-1.56h19.46v7.79h-21Zm-24.92-10.9v-2.34h27.26v2.34Zm7,7v-3.9h6.23v3.9Zm6.23,3.11v7h-6.23v-7ZM1252,694.86h-53v-4.67a1.55,1.55,0,0,1,1.55-1.56h49.84a1.56,1.56,0,0,1,1.56,1.56Z"/><path d="M1243.44,638.8a6.23,6.23,0,1,0-6.23-6.23A6.24,6.24,0,0,0,1243.44,638.8Zm0-9.34a3.11,3.11,0,1,1-3.11,3.11A3.11,3.11,0,0,1,1243.44,629.46Z"/><rect x="1227.87" y="680.07" width="10.12" height="3.11"/><rect x="1240.33" y="680.07" width="3.11" height="3.11"/></g><g class="cls-3"><path d="M106.31,651.83l-7.38-.73a34.3,34.3,0,0,0-3.64-8.79l4.7-5.74a1.35,1.35,0,0,0-.09-1.81l-9.41-9.4a1.34,1.34,0,0,0-1.8-.09L82.94,630a34.24,34.24,0,0,0-8.78-3.64l-.74-7.39a1.35,1.35,0,0,0-1.34-1.21H58.78a1.35,1.35,0,0,0-1.34,1.21l-.74,7.39A34.38,34.38,0,0,0,47.92,630l-5.75-4.7a1.34,1.34,0,0,0-1.8.09L31,634.76a1.36,1.36,0,0,0-.09,1.8l4.71,5.75a34.3,34.3,0,0,0-3.64,8.79l-7.39.73a1.35,1.35,0,0,0-1.21,1.34v13.31a1.34,1.34,0,0,0,1.21,1.33l7.39.74a34.24,34.24,0,0,0,3.64,8.78l-4.71,5.75a1.36,1.36,0,0,0,.09,1.8l9.41,9.41a1.34,1.34,0,0,0,1.8.09l5.75-4.7a34.38,34.38,0,0,0,8.78,3.64l.74,7.39a1.34,1.34,0,0,0,1.34,1.2h13.3a1.34,1.34,0,0,0,1.34-1.2l.74-7.39a34.24,34.24,0,0,0,8.78-3.64l5.75,4.7a1.34,1.34,0,0,0,1.8-.09l9.41-9.41a1.34,1.34,0,0,0,.09-1.8l-4.7-5.75a34.24,34.24,0,0,0,3.64-8.78l7.38-.74a1.34,1.34,0,0,0,1.21-1.33V653.17A1.35,1.35,0,0,0,106.31,651.83Zm-1.47,13.43-7.12.71a1.35,1.35,0,0,0-1.18,1,31.78,31.78,0,0,1-4,9.73,1.32,1.32,0,0,0,.1,1.56l4.53,5.54-7.69,7.69L83.91,687a1.32,1.32,0,0,0-1.56-.1,31.88,31.88,0,0,1-9.73,4,1.35,1.35,0,0,0-1,1.18l-.71,7.12H60l-.71-7.12a1.33,1.33,0,0,0-1-1.18,31.67,31.67,0,0,1-9.73-4A1.32,1.32,0,0,0,47,687l-5.55,4.53-7.69-7.69,4.54-5.54a1.36,1.36,0,0,0,.1-1.56,31.55,31.55,0,0,1-4-9.73,1.35,1.35,0,0,0-1.17-1L26,665.26V654.39l7.12-.72a1.33,1.33,0,0,0,1.17-1,31.7,31.7,0,0,1,4-9.73,1.35,1.35,0,0,0-.1-1.56l-4.54-5.55,7.69-7.68L47,632.65a1.34,1.34,0,0,0,1.56.1,31.7,31.7,0,0,1,9.73-4,1.32,1.32,0,0,0,1-1.17l.72-7.12H70.87l.71,7.12a1.34,1.34,0,0,0,1,1.17,31.74,31.74,0,0,1,9.72,4,1.34,1.34,0,0,0,1.57-.1l5.54-4.53,7.69,7.68-4.53,5.55a1.32,1.32,0,0,0-.1,1.56,31.67,31.67,0,0,1,4,9.73,1.33,1.33,0,0,0,1.18,1l7.12.72v10.87Z"/><path d="M65.43,630.54A29.28,29.28,0,0,0,36.28,657a1.35,1.35,0,0,0,2.68.25,26.6,26.6,0,1,1,0,5.12,1.35,1.35,0,0,0-2.68.26,29.29,29.29,0,1,0,29.15-32.1Z"/><path d="M65.43,635.91a23.92,23.92,0,1,0,23.91,23.91A23.94,23.94,0,0,0,65.43,635.91Zm9.4,42.94a21,21,0,0,1-8,2.15V669.48a1.35,1.35,0,1,0-2.69,0V681A21,21,0,0,1,56,678.85v-13.4H74.83v13.4ZM70,654.71l4,8H56.87l4-8ZM62.24,652h0l3.19-6.39,3.2,6.4Zm15.27,25.23V663.92a.52.52,0,0,0,0-.11v0l0-.1v0s0-.07-.05-.1v0L66.63,642a1.34,1.34,0,0,0-2.4,0L53.49,663.51v0l0,.1,0,0,0,.1s0,0,0,0a.36.36,0,0,1,0,.11v0a.76.76,0,0,0,0,.15v13.15a21.23,21.23,0,1,1,24.16,0Z"/></g><g id="Group_17" data-name="Group 17" class="cls-3"><g id="Path_9" data-name="Path 9"><path d="M89.52,29H35.29a5.46,5.46,0,0,0-5.45,5.45V88.68a5.46,5.46,0,0,0,5.45,5.45H89.5A5.47,5.47,0,0,0,95,88.68V34.46A5.45,5.45,0,0,0,89.52,29Zm2.23,59.68a2.23,2.23,0,0,1-2.23,2.23H35.29a2.23,2.23,0,0,1-2.23-2.23h0V34.46a2.23,2.23,0,0,1,2.23-2.23H89.5a2.23,2.23,0,0,1,2.24,2.23h0V88.69Z"/></g><g id="Path_10" data-name="Path 10"><path d="M55.69,69.28a1.61,1.61,0,0,0-2.28,0h0l-4.83,4.84-4.84-4.84a1.61,1.61,0,0,0-2.27,2.28h0l4.83,4.83-4.83,4.84A1.61,1.61,0,0,0,42.6,84a1.7,1.7,0,0,0,1.14-.47l4.84-4.84,4.83,4.84a1.62,1.62,0,0,0,2.28,0,1.61,1.61,0,0,0,0-2.28h0l-4.83-4.84,4.83-4.83A1.62,1.62,0,0,0,55.69,69.28Z"/></g><g id="Path_11" data-name="Path 11"><path d="M57,46.66H50.2V39.82a1.61,1.61,0,0,0-3.22,0v6.84H40.15a1.61,1.61,0,0,0,0,3.21H47V56.7a1.61,1.61,0,1,0,3.22,0V49.87H57a1.61,1.61,0,1,0,0-3.21Z"/></g><g id="Path_12" data-name="Path 12"><path d="M83.94,78.72H69.54a1.61,1.61,0,0,0,0,3.22H83.93a1.61,1.61,0,1,0,0-3.22Z"/></g><g id="Path_13" data-name="Path 13"><path d="M83.94,70.83H69.54a1.61,1.61,0,0,0,0,3.22H83.93a1.61,1.61,0,1,0,0-3.22Z"/></g><g id="Path_14" data-name="Path 14"><path d="M82.7,49.87a1.61,1.61,0,0,0,0-3.22H68.3a1.61,1.61,0,0,0,0,3.22H82.7Z"/></g></g><g class="cls-3"><path d="M1237,37.82h2.26V32.41a1.38,1.38,0,0,0-1.38-1.38h-21.31a1.07,1.07,0,0,1-1.07-1.07V27.57a1.06,1.06,0,0,0-1.07-1.06h-6.91a1.06,1.06,0,0,0-1.07,1.06V30a1.07,1.07,0,0,1-1.07,1.07h-21.31a1.38,1.38,0,0,0-1.38,1.38v5.41h2.26V69.5h-2.26v5.41a1.38,1.38,0,0,0,1.38,1.38h5.67a1.38,1.38,0,0,1,1.35,1.68l-3.78,17a1.38,1.38,0,0,0,1.35,1.68h4a1.38,1.38,0,0,0,1.35-1.08l4-18.2a1.38,1.38,0,0,1,1.34-1.08h6.79a1.38,1.38,0,0,1,1.38,1.38v17.6a1.38,1.38,0,0,0,1.38,1.38h4a1.38,1.38,0,0,0,1.38-1.38V77.67a1.38,1.38,0,0,1,1.38-1.38h6.79a1.38,1.38,0,0,1,1.34,1.08l4.05,18.2a1.38,1.38,0,0,0,1.35,1.08h4a1.37,1.37,0,0,0,1.34-1.68l-3.78-17a1.38,1.38,0,0,1,1.35-1.68h5.67a1.38,1.38,0,0,0,1.38-1.38V69.5H1237Zm-28.29-9h4.53V31h-4.53Zm-23.76,4.52h52v2.27h-52Zm49.78,5.91V68.12a1.37,1.37,0,0,1-1.37,1.38h-44.77a1.37,1.37,0,0,1-1.37-1.38V39.2a1.37,1.37,0,0,1,1.37-1.38h44.77A1.37,1.37,0,0,1,1234.71,39.2ZM1192,94.39h-2.21l4-18.1H1196Zm20.14,0h-2.27V76.29h2.27Zm20.08,0H1230l-4-18.1h2.21ZM1237,74h-52V71.76h52Z"/><path d="M1225.66,65h-33.81a.12.12,0,0,1-.13-.12V42.47a.12.12,0,0,1,.13-.12h38.21a.12.12,0,0,1,.13.12V65h-2.26v2.27h4.4a.12.12,0,0,0,.12-.13V40.21a.12.12,0,0,0-.12-.13h-42.75a.12.12,0,0,0-.12.13v26.9a.12.12,0,0,0,.12.13h36.08Z"/><path d="M1220.62,55.92l6.45,7.53,1.72-1.48-7.13-8.31h-1.75a8.62,8.62,0,0,0,.1-1.13,7.91,7.91,0,0,0-15.5-2.26h-2L1193.1,62l1.77,1.42,8.67-10.84a.12.12,0,0,1,.1,0h7.79a.12.12,0,0,1,.1,0l7.55,10.78,1.85-1.3-4.11-5.88.26-.26Zm-4.48-2.26-.64.64-2.79-4a.12.12,0,0,0-.1,0h-5.68a5.64,5.64,0,0,1,10.81,2.26,5.44,5.44,0,0,1-.13,1.13Z"/><path d="M1251.68,38l-3.88-5.81a.11.11,0,0,0-.1-.06h-3.34a.11.11,0,0,0-.1.06L1240.38,38a6.82,6.82,0,0,0-1.14,3.77v.55a6.76,6.76,0,0,0,2.23,5,.11.11,0,0,1,0,.08V91.77a4.76,4.76,0,0,0,3.86,4.83,4.52,4.52,0,0,0,5.19-4.47V47.44a.12.12,0,0,1,0-.08,6.76,6.76,0,0,0,2.23-5V41.8A6.82,6.82,0,0,0,1251.68,38Zm-3.39,54.1a2.26,2.26,0,1,1-4.52,0V89.86h4.52Zm-.12-4.53h-4.28a.12.12,0,0,1-.12-.12V53.78a.12.12,0,0,1,.12-.12h4.28a.12.12,0,0,1,.12.12v33.7A.12.12,0,0,1,1248.17,87.6Zm.12-36.2h-4.52V48.74a6.74,6.74,0,0,0,4.52,0Zm2.26-9a4.53,4.53,0,0,1-5.19,4.47A4.77,4.77,0,0,1,1241.5,42V41.8a4.6,4.6,0,0,1,.76-2.52l2.64-4v5.88h2.26V35.33l2.63,4a4.52,4.52,0,0,1,.76,2.52Z"/></g></g></g></svg>