<svg id="svg" version="1.1" xmlns="http://www.w3.org/2000/svg" xmlns:xlink="http://www.w3.org/1999/xlink" width="400" height="167.6995305164319" viewBox="0, 0, 400,167.6995305164319"><g id="svgg"><path id="path0" d="M239.030 13.878 C 233.384 20.858,230.856 23.981,229.350 25.835 C 228.428 26.971,226.654 29.162,225.409 30.702 C 220.412 36.883,219.862 37.556,219.743 37.630 C 219.674 37.672,218.714 37.373,217.608 36.966 C 202.585 31.429,186.028 32.144,179.455 38.611 C 176.004 42.007,175.328 48.210,177.960 52.327 C 180.987 57.063,187.669 60.880,202.432 66.307 C 206.900 67.949,212.501 70.183,217.191 72.194 C 220.333 73.541,226.138 76.579,229.266 78.513 C 233.678 81.241,238.903 85.702,241.419 88.889 C 246.019 94.715,248.178 99.077,249.508 105.230 C 249.676 106.006,249.369 105.889,253.920 106.909 C 257.966 107.816,263.857 109.141,268.176 110.116 C 275.910 111.863,278.099 112.359,279.959 112.789 C 282.135 113.292,282.771 113.186,282.765 112.323 C 282.760 111.703,282.619 111.611,279.748 110.356 C 278.226 109.691,276.340 108.861,275.556 108.513 C 274.771 108.164,273.224 107.486,272.117 107.006 C 271.010 106.526,269.463 105.846,268.679 105.496 C 267.895 105.146,266.348 104.468,265.241 103.989 C 264.134 103.509,262.662 102.862,261.971 102.551 C 260.041 101.681,256.087 99.958,256.022 99.958 C 255.990 99.958,255.259 99.632,254.397 99.233 C 253.535 98.834,252.395 98.334,251.863 98.122 C 250.809 97.702,250.598 97.511,250.879 97.230 C 251.064 97.045,252.573 97.116,266.164 97.955 C 269.069 98.135,271.824 98.320,272.285 98.368 C 273.279 98.471,283.501 99.096,285.216 99.158 C 286.523 99.206,286.960 99.008,286.960 98.370 C 286.960 97.752,286.455 97.478,284.354 96.959 C 280.287 95.954,252.838 88.862,252.710 88.783 C 251.943 88.308,252.569 88.154,256.688 87.799 C 258.348 87.656,260.725 87.427,261.971 87.290 C 263.216 87.153,267.178 86.777,270.776 86.454 C 274.373 86.131,277.920 85.795,278.658 85.706 C 279.396 85.617,281.725 85.390,283.833 85.201 C 288.384 84.792,288.889 84.606,288.220 83.585 C 287.886 83.075,288.027 83.098,282.264 82.603 C 279.543 82.369,276.335 82.066,275.136 81.930 C 273.937 81.795,271.145 81.527,268.931 81.335 C 266.717 81.144,263.396 80.839,261.551 80.658 C 259.706 80.477,257.027 80.216,255.597 80.078 C 254.168 79.940,252.904 79.793,252.788 79.751 C 252.351 79.593,252.590 79.171,253.208 79.013 C 253.553 78.924,254.893 78.576,256.184 78.240 C 259.304 77.429,263.821 76.262,266.918 75.467 C 268.302 75.112,270.604 74.520,272.034 74.151 C 273.463 73.783,275.954 73.142,277.568 72.728 C 287.554 70.166,286.960 70.365,286.960 69.578 C 286.960 68.588,286.470 68.586,273.375 69.516 C 270.133 69.747,261.970 70.245,255.430 70.611 C 253.816 70.701,252.191 70.809,251.820 70.851 C 250.011 71.054,250.529 70.424,253.070 69.330 C 253.953 68.950,255.562 68.251,256.646 67.778 C 257.730 67.305,259.465 66.548,260.503 66.095 C 261.541 65.642,263.069 64.973,263.899 64.607 C 266.652 63.394,269.418 62.184,270.692 61.636 C 271.384 61.338,272.327 60.923,272.788 60.713 C 273.249 60.503,274.230 60.069,274.968 59.749 C 275.706 59.429,277.140 58.806,278.155 58.364 C 279.170 57.923,280.566 57.317,281.258 57.019 C 282.630 56.426,282.761 56.310,282.765 55.673 C 282.770 54.762,282.166 54.647,280.112 55.170 C 279.405 55.350,277.392 55.812,275.639 56.198 C 273.887 56.584,271.019 57.221,269.266 57.614 C 265.960 58.357,259.949 59.705,256.604 60.454 C 255.543 60.692,253.354 61.194,251.740 61.571 C 246.552 62.781,246.243 62.591,249.727 60.336 C 251.065 59.471,253.140 58.119,254.340 57.332 C 255.539 56.545,257.652 55.161,259.036 54.256 C 260.419 53.351,262.495 51.993,263.648 51.237 C 264.801 50.481,266.728 49.220,267.930 48.434 C 276.392 42.907,276.059 43.146,276.059 42.609 C 276.059 42.098,275.691 41.761,275.131 41.761 C 274.978 41.761,271.634 43.053,267.699 44.632 C 263.764 46.211,259.602 47.877,258.449 48.335 C 254.883 49.752,253.343 50.369,247.926 52.553 C 241.326 55.214,241.109 55.204,244.151 52.390 C 245.235 51.388,247.332 49.435,248.812 48.051 C 252.915 44.214,255.885 41.451,257.275 40.177 C 257.966 39.544,259.061 38.525,259.706 37.915 C 260.810 36.871,263.965 33.935,265.968 32.088 C 266.993 31.143,267.111 30.481,266.331 30.053 C 265.794 29.758,265.724 29.790,262.474 31.787 C 261.044 32.666,259.270 33.749,258.532 34.195 C 257.795 34.640,255.983 35.742,254.507 36.644 C 253.031 37.546,251.296 38.602,250.650 38.991 C 250.004 39.379,247.702 40.775,245.535 42.092 C 243.367 43.409,240.650 45.051,239.497 45.741 C 238.344 46.431,237.196 47.138,236.946 47.313 C 236.463 47.651,235.807 47.740,235.807 47.467 C 235.807 47.377,237.411 45.180,239.371 42.584 C 243.586 37.003,242.437 38.534,248.802 30.021 C 254.976 21.764,255.597 20.898,255.597 20.569 C 255.597 20.173,255.113 19.790,254.612 19.790 C 254.108 19.790,254.502 19.463,243.032 29.434 C 241.122 31.094,238.253 33.585,236.657 34.969 C 235.061 36.352,232.613 38.484,231.217 39.705 C 228.764 41.852,228.390 42.107,228.183 41.773 C 228.130 41.687,230.586 36.573,233.640 30.410 C 242.267 13.001,242.390 12.747,242.390 12.295 C 242.390 11.786,242.108 11.578,241.412 11.575 C 240.949 11.573,240.700 11.813,239.030 13.878 M124.447 30.270 C 124.152 30.583,124.093 30.764,124.208 31.001 C 124.336 31.265,130.996 37.610,133.282 39.647 L 133.985 40.273 134.098 39.633 C 134.160 39.282,134.353 38.287,134.527 37.424 C 134.701 36.560,134.843 35.794,134.843 35.721 C 134.843 35.648,134.031 35.099,133.040 34.501 C 132.048 33.903,130.709 33.090,130.063 32.693 C 124.867 29.501,125.082 29.594,124.447 30.270 M115.164 42.107 C 114.764 42.679,115.026 43.064,116.456 44.003 C 117.206 44.495,118.801 45.539,120.000 46.322 C 121.199 47.105,123.312 48.487,124.696 49.392 C 126.080 50.298,128.193 51.677,129.392 52.457 C 130.591 53.237,132.057 54.205,132.650 54.609 C 133.243 55.012,133.742 55.324,133.759 55.302 C 133.776 55.280,133.706 53.769,133.603 51.944 L 133.417 48.626 129.644 47.101 C 127.568 46.263,125.153 45.294,124.277 44.950 C 123.400 44.605,121.267 43.746,119.536 43.042 C 116.193 41.681,115.558 41.545,115.164 42.107 M108.512 55.010 C 107.647 55.875,108.760 56.690,113.069 58.346 C 113.284 58.428,113.912 58.704,114.465 58.959 C 115.982 59.658,118.642 60.832,120.335 61.550 C 121.166 61.902,122.713 62.581,123.774 63.059 C 124.834 63.536,126.457 64.252,127.379 64.650 C 128.302 65.047,129.849 65.726,130.818 66.158 C 131.786 66.591,133.293 67.247,134.165 67.617 C 135.038 67.987,136.111 68.472,136.550 68.694 C 137.649 69.252,137.719 69.214,137.278 68.299 C 136.687 67.074,135.424 63.462,135.094 62.055 C 134.740 60.541,134.722 60.519,133.620 60.256 C 131.840 59.832,119.855 57.123,115.639 56.192 C 113.979 55.825,111.875 55.334,110.964 55.100 C 108.970 54.589,108.935 54.587,108.512 55.010 M104.654 68.730 C 104.139 68.901,103.945 69.895,104.361 70.236 C 104.545 70.387,108.444 71.420,119.665 74.291 C 122.763 75.084,125.786 75.864,131.824 77.426 C 133.438 77.844,135.551 78.376,136.520 78.608 C 138.755 79.142,139.479 79.805,137.862 79.835 C 137.418 79.843,133.709 80.192,130.901 80.490 C 129.979 80.588,126.621 80.897,123.438 81.175 C 120.256 81.454,116.218 81.830,114.465 82.011 C 112.713 82.192,109.468 82.495,107.254 82.684 C 103.047 83.044,102.642 83.155,102.642 83.941 C 102.642 84.683,103.112 84.826,106.499 85.110 C 108.298 85.261,111.128 85.528,112.788 85.703 C 114.449 85.878,117.618 86.180,119.832 86.373 C 122.046 86.567,125.367 86.875,127.212 87.059 C 129.057 87.243,132.189 87.540,134.172 87.719 C 138.402 88.102,138.573 88.133,138.500 88.514 C 138.462 88.713,138.096 88.881,137.273 89.078 C 136.628 89.233,130.063 90.921,122.683 92.830 C 115.304 94.738,108.216 96.558,106.933 96.873 C 104.152 97.557,103.504 98.070,104.352 98.918 C 104.664 99.230,110.384 98.992,119.413 98.291 C 127.936 97.630,139.957 96.993,140.176 97.191 C 140.489 97.473,140.249 97.632,138.189 98.508 C 137.225 98.918,135.719 99.570,134.843 99.957 C 132.649 100.925,128.721 102.638,124.360 104.529 C 123.622 104.849,122.641 105.284,122.180 105.495 C 121.719 105.706,120.851 106.087,120.252 106.342 C 119.181 106.797,116.025 108.177,113.543 109.274 C 112.851 109.580,111.417 110.202,110.356 110.657 C 106.869 112.153,107.423 113.598,111.140 112.701 C 112.706 112.324,117.123 111.335,122.683 110.118 C 124.528 109.714,126.510 109.260,127.088 109.110 C 127.665 108.960,129.024 108.654,130.107 108.430 C 131.987 108.041,133.565 107.685,140.251 106.143 C 144.686 105.120,144.773 105.310,141.006 107.780 C 139.507 108.763,137.224 110.261,135.933 111.109 C 134.642 111.957,131.962 113.712,129.979 115.010 C 127.996 116.308,125.279 118.087,123.941 118.963 C 114.164 125.366,114.626 125.007,115.164 125.775 C 115.560 126.340,116.157 126.203,119.940 124.673 C 123.403 123.273,124.294 122.916,128.805 121.123 C 129.958 120.664,134.773 118.733,139.504 116.832 C 144.235 114.931,148.212 113.375,148.341 113.375 C 148.901 113.375,148.790 113.803,148.060 114.455 C 147.641 114.830,145.844 116.495,144.068 118.155 C 142.292 119.816,140.183 121.778,139.381 122.516 C 138.579 123.254,136.833 124.876,135.499 126.122 C 134.166 127.367,131.058 130.262,128.592 132.556 C 123.877 136.942,123.672 137.201,124.482 137.768 C 125.137 138.227,124.735 138.427,131.572 134.256 C 133.048 133.356,135.350 131.960,136.688 131.155 C 138.025 130.349,139.648 129.364,140.294 128.966 C 141.857 128.004,152.281 121.695,153.487 120.982 C 154.437 120.420,155.136 120.258,155.136 120.601 C 155.136 120.700,150.966 126.329,145.870 133.109 C 135.314 147.153,135.514 146.878,135.514 147.343 C 135.514 148.425,136.672 148.363,137.984 147.212 C 138.536 146.727,141.161 144.444,143.816 142.138 C 146.472 139.832,149.860 136.884,151.345 135.586 C 162.858 125.528,162.485 125.832,162.758 126.274 C 162.810 126.358,160.881 130.415,158.472 135.289 C 147.455 157.578,148.325 155.678,148.902 156.200 C 149.670 156.896,149.860 156.747,152.648 153.271 C 153.878 151.737,155.941 149.188,157.233 147.605 C 158.524 146.022,159.807 144.438,160.084 144.084 C 160.620 143.399,164.110 139.088,165.367 137.558 C 165.782 137.053,166.310 136.395,166.541 136.096 C 168.031 134.163,170.961 130.650,171.083 130.650 C 171.163 130.650,171.777 130.865,172.448 131.129 C 177.666 133.177,181.254 134.000,185.504 134.122 C 200.488 134.553,210.835 128.050,209.804 118.851 C 209.102 112.590,205.561 108.557,197.149 104.435 C 193.717 102.754,190.687 101.579,181.719 98.452 C 174.138 95.809,172.758 95.312,169.979 94.227 C 154.196 88.063,145.213 81.609,139.450 72.292 C 138.872 71.357,138.403 70.775,138.229 70.773 C 138.073 70.772,136.889 70.699,135.597 70.611 C 134.306 70.523,130.646 70.297,127.463 70.110 C 124.281 69.922,120.621 69.695,119.329 69.605 C 116.986 69.442,107.818 68.830,105.912 68.709 C 105.358 68.674,104.792 68.683,104.654 68.730 M250.134 108.763 C 250.247 109.667,250.554 115.932,250.503 116.287 C 250.492 116.366,251.086 116.683,251.824 116.990 C 253.270 117.593,255.525 118.494,261.971 121.048 C 263.124 121.505,265.199 122.337,266.583 122.896 C 274.830 126.231,275.062 126.308,275.734 125.948 C 276.720 125.420,276.163 124.871,271.756 122.020 C 270.479 121.195,268.000 119.580,266.247 118.433 C 264.495 117.285,262.306 115.854,261.384 115.251 C 259.244 113.853,254.897 111.009,252.411 109.380 C 251.350 108.685,250.376 108.036,250.245 107.937 C 250.044 107.784,250.027 107.910,250.134 108.763 M250.227 122.222 C 250.226 122.660,250.118 123.811,249.988 124.780 C 249.859 125.748,249.701 126.925,249.638 127.393 L 249.524 128.246 252.770 130.226 C 254.556 131.315,256.470 132.486,257.023 132.829 C 257.917 133.383,262.136 135.948,264.657 137.470 C 265.679 138.087,266.173 138.163,266.571 137.766 C 267.143 137.194,266.904 136.792,264.869 134.905 C 263.788 133.902,261.807 132.056,260.466 130.801 C 259.126 129.547,257.342 127.887,256.502 127.112 C 255.662 126.336,253.955 124.740,252.708 123.564 C 250.109 121.111,250.232 121.177,250.227 122.222 M247.471 137.142 C 247.408 137.399,247.059 138.347,246.697 139.249 C 246.334 140.150,246.038 140.950,246.038 141.027 C 246.038 141.104,247.033 142.027,248.250 143.078 C 249.467 144.129,251.260 145.686,252.234 146.538 C 254.226 148.280,255.051 148.572,255.459 147.677 C 255.688 147.173,255.891 147.481,251.275 141.314 C 247.600 136.404,247.642 136.450,247.471 137.142 " stroke="none" fill="#fbcb24" fill-rule="evenodd"></path><path id="path1" d="M390.860 0.148 C 384.167 1.917,384.646 13.062,391.449 13.868 C 391.914 13.923,392.335 14.033,392.384 14.112 C 392.500 14.300,393.748 14.299,393.865 14.110 C 393.914 14.030,394.315 13.916,394.755 13.857 C 398.020 13.417,399.916 10.884,399.916 6.960 C 399.916 3.573,398.879 1.707,396.350 0.543 C 395.327 0.072,392.041 -0.164,390.860 0.148 M23.438 0.349 C 22.798 0.721,23.084 1.358,24.597 2.935 C 27.008 5.448,28.275 6.834,31.111 10.067 C 31.958 11.032,33.509 13.731,33.892 14.906 C 34.091 15.517,34.351 16.243,34.468 16.520 C 35.399 18.709,35.439 25.022,34.539 27.673 C 34.367 28.180,33.951 29.841,33.615 31.363 C 33.278 32.885,32.944 34.205,32.872 34.298 C 32.800 34.390,32.467 35.711,32.133 37.233 C 31.798 38.755,31.451 40.151,31.363 40.335 C 31.274 40.520,30.935 41.878,30.610 43.354 C 30.285 44.830,29.951 46.157,29.869 46.302 C 29.786 46.447,29.401 47.995,29.011 49.740 C 28.622 51.486,28.245 52.990,28.173 53.082 C 28.102 53.174,27.761 54.532,27.417 56.101 C 27.072 57.669,26.727 59.074,26.650 59.224 C 26.573 59.373,26.241 60.694,25.912 62.159 C 25.583 63.623,25.267 64.935,25.210 65.073 C 25.031 65.510,25.008 65.599,24.320 68.595 C 23.949 70.210,23.570 71.681,23.478 71.866 C 23.386 72.050,23.045 73.409,22.720 74.885 C 22.395 76.361,22.049 77.770,21.951 78.017 C 21.853 78.263,21.476 79.735,21.113 81.287 C 20.426 84.224,20.411 84.285,20.239 84.696 C 20.182 84.834,19.867 86.155,19.539 87.631 C 19.211 89.107,18.871 90.465,18.783 90.650 C 18.694 90.834,18.355 92.193,18.029 93.669 C 17.703 95.145,17.361 96.527,17.270 96.740 C 17.143 97.038,16.308 100.523,15.734 103.153 C 15.705 103.287,15.636 103.434,15.581 103.480 C 15.527 103.526,15.196 104.847,14.847 106.415 C 14.498 107.983,14.149 109.389,14.072 109.538 C 13.995 109.688,13.663 111.009,13.336 112.473 C 13.008 113.938,12.665 115.311,12.574 115.524 C 12.483 115.738,12.107 117.247,11.738 118.879 C 11.369 120.510,10.995 121.996,10.905 122.180 C 10.816 122.365,10.476 123.723,10.149 125.199 C 9.823 126.675,9.480 128.058,9.388 128.273 C 9.296 128.487,8.956 129.846,8.634 131.291 C 8.312 132.737,7.984 134.034,7.907 134.172 C 7.829 134.310,7.437 135.895,7.036 137.694 C 6.634 139.493,6.254 141.002,6.192 141.048 C 6.130 141.094,5.796 142.415,5.451 143.983 C 5.105 145.551,4.758 146.957,4.681 147.106 C 4.603 147.256,4.271 148.577,3.942 150.041 C 3.614 151.506,3.274 152.855,3.186 153.040 C 3.098 153.224,2.718 154.771,2.341 156.478 C 1.964 158.184,1.583 159.714,1.496 159.876 C 1.293 160.252,0.000 165.968,0.000 166.488 L 0.000 166.876 25.546 166.876 L 51.092 166.876 51.392 165.283 C 51.557 164.407,51.744 163.690,51.808 163.690 C 51.872 163.690,52.018 163.218,52.133 162.642 C 52.679 159.893,53.204 157.536,53.338 157.233 C 53.533 156.793,53.720 156.015,54.263 153.375 C 54.510 152.176,54.758 151.119,54.815 151.027 C 54.871 150.935,54.935 150.784,54.956 150.692 C 55.224 149.535,56.018 145.914,56.188 145.073 C 56.309 144.474,56.460 143.945,56.523 143.899 C 56.644 143.810,57.862 138.261,57.862 137.798 C 57.862 137.649,57.930 137.526,58.015 137.526 C 58.099 137.526,58.219 137.224,58.281 136.855 L 58.394 136.184 82.756 136.184 L 107.118 136.184 107.588 138.323 C 107.847 139.499,108.120 140.574,108.196 140.713 C 108.271 140.851,108.605 142.205,108.938 143.722 C 109.271 145.238,109.647 146.786,109.774 147.160 C 109.901 147.534,110.284 149.086,110.626 150.608 C 110.968 152.130,111.298 153.413,111.358 153.459 C 111.419 153.505,111.757 154.864,112.110 156.478 C 112.463 158.092,112.801 159.451,112.861 159.497 C 112.921 159.543,113.254 160.864,113.600 162.432 C 113.947 164.000,114.356 165.644,114.509 166.086 L 114.788 166.889 155.381 166.830 C 195.389 166.772,200.860 166.699,202.013 166.213 C 202.197 166.135,203.367 165.985,204.612 165.879 C 207.552 165.628,212.538 164.926,213.501 164.627 C 213.916 164.497,214.709 164.307,215.262 164.202 C 216.843 163.905,219.949 163.144,220.042 163.032 C 220.088 162.976,220.956 162.679,221.971 162.372 C 222.985 162.066,224.193 161.639,224.654 161.424 C 225.115 161.209,226.110 160.797,226.865 160.508 C 227.620 160.220,228.261 159.925,228.291 159.853 C 228.320 159.781,228.945 159.434,229.679 159.083 C 230.413 158.731,231.119 158.339,231.248 158.210 C 231.376 158.082,231.794 157.820,232.177 157.629 C 232.559 157.437,233.023 157.137,233.208 156.961 C 233.392 156.785,233.958 156.366,234.465 156.030 C 234.973 155.693,235.727 155.090,236.143 154.690 C 236.558 154.290,236.946 153.962,237.006 153.962 C 237.235 153.962,240.112 150.830,241.101 149.504 C 241.371 149.143,241.635 148.809,241.689 148.763 C 241.743 148.717,241.979 148.392,242.214 148.042 L 242.642 147.404 243.166 148.117 C 243.454 148.509,243.690 148.900,243.690 148.987 C 243.690 149.073,244.143 149.777,244.696 150.551 C 245.249 151.325,245.702 152.027,245.702 152.112 C 245.702 152.197,245.844 152.366,246.018 152.487 C 246.192 152.609,246.633 153.085,246.998 153.545 C 247.762 154.506,249.363 156.141,250.326 156.943 C 250.689 157.245,251.287 157.745,251.656 158.054 C 252.635 158.873,254.978 160.439,255.984 160.946 C 256.463 161.188,256.894 161.446,256.942 161.520 C 257.055 161.695,259.144 162.683,259.401 162.683 C 259.510 162.683,259.701 162.786,259.827 162.911 C 259.952 163.037,260.882 163.421,261.893 163.765 C 262.904 164.110,263.920 164.488,264.151 164.606 C 264.635 164.854,267.420 165.587,269.015 165.887 C 269.614 165.999,270.143 166.143,270.189 166.206 C 270.400 166.495,276.256 167.249,280.558 167.540 C 287.240 167.994,299.568 167.593,304.235 166.771 C 305.019 166.633,305.925 166.475,306.247 166.421 C 306.570 166.366,306.872 166.269,306.918 166.205 C 306.964 166.141,307.568 165.952,308.260 165.785 C 309.748 165.426,311.408 164.877,312.648 164.333 C 314.125 163.686,317.724 161.821,317.904 161.610 C 317.996 161.502,318.439 161.189,318.887 160.916 C 320.174 160.133,320.220 160.101,320.824 159.576 C 322.542 158.081,325.011 155.372,325.667 154.261 C 326.090 153.545,326.242 153.746,326.845 155.821 C 328.158 160.341,329.526 162.923,331.236 164.108 C 331.605 164.364,331.908 164.637,331.908 164.715 C 331.908 164.936,335.241 166.478,336.268 166.732 C 337.648 167.073,391.261 167.071,391.672 166.730 C 392.273 166.232,391.723 165.064,390.269 163.750 C 389.902 163.419,389.602 163.071,389.602 162.978 C 389.602 162.884,389.281 162.496,388.889 162.116 C 388.497 161.735,387.497 160.677,386.667 159.764 C 385.836 158.850,384.910 157.854,384.608 157.549 C 384.306 157.245,383.784 156.634,383.449 156.192 C 383.114 155.750,382.795 155.350,382.739 155.304 C 382.537 155.136,381.764 153.864,381.654 153.519 C 381.592 153.323,381.399 152.999,381.224 152.798 C 381.050 152.597,380.699 151.852,380.445 151.143 C 380.192 150.433,379.907 149.665,379.812 149.434 C 379.718 149.203,379.630 148.939,379.616 148.847 C 379.602 148.755,379.543 148.566,379.485 148.428 C 379.067 147.425,379.038 142.601,379.037 73.082 L 379.036 0.168 351.447 0.168 L 323.857 0.168 323.857 58.514 C 323.857 120.922,323.881 119.049,323.089 119.929 C 322.958 120.075,322.851 120.284,322.851 120.395 C 322.851 120.683,321.697 122.935,321.549 122.935 C 321.481 122.936,321.170 123.311,320.857 123.770 C 320.544 124.229,320.091 124.732,319.851 124.888 C 319.610 125.045,319.320 125.303,319.206 125.462 C 319.092 125.621,318.564 125.996,318.032 126.294 C 317.500 126.593,317.027 126.888,316.981 126.950 C 316.860 127.111,315.877 127.551,314.717 127.963 C 314.164 128.159,313.578 128.392,313.415 128.481 C 311.440 129.561,301.551 129.540,301.551 128.456 C 301.551 128.371,301.441 128.302,301.306 128.302 C 300.901 128.302,298.514 127.108,298.418 126.857 C 298.369 126.729,298.236 126.625,298.123 126.625 C 297.834 126.625,295.933 124.592,295.590 123.915 C 295.433 123.607,295.207 123.241,295.087 123.103 C 294.740 122.703,294.186 121.079,293.916 119.672 C 293.701 118.545,293.669 110.697,293.669 59.272 L 293.669 0.168 244.906 0.168 C 198.130 0.168,192.142 0.220,185.912 0.676 C 182.334 0.937,178.571 1.340,178.197 1.501 C 178.013 1.581,176.692 1.810,175.262 2.011 C 172.410 2.412,169.708 2.931,169.260 3.162 C 169.102 3.244,168.369 3.440,167.631 3.599 C 165.881 3.974,163.796 4.563,163.690 4.712 C 163.644 4.776,163.266 4.919,162.851 5.028 C 161.659 5.342,159.589 6.070,159.497 6.208 C 159.451 6.277,159.036 6.461,158.574 6.616 C 157.392 7.014,152.974 9.207,152.598 9.582 C 152.426 9.754,152.209 9.895,152.115 9.895 C 151.857 9.895,148.208 12.422,147.957 12.774 C 147.836 12.943,147.639 13.082,147.519 13.082 C 147.149 13.082,142.596 17.683,141.789 18.872 C 141.541 19.239,141.197 19.637,141.025 19.758 C 140.853 19.878,140.711 20.067,140.708 20.177 C 140.706 20.287,140.479 20.674,140.205 21.036 C 139.931 21.399,139.706 21.768,139.706 21.856 C 139.706 21.945,139.594 22.101,139.456 22.204 C 139.198 22.395,138.443 23.746,137.525 25.660 C 137.237 26.260,136.830 27.109,136.620 27.547 L 136.237 28.344 135.683 25.786 C 135.378 24.380,135.034 23.002,134.918 22.725 C 134.707 22.222,134.261 20.476,133.739 18.113 C 133.587 17.421,133.407 16.780,133.339 16.688 C 133.272 16.595,132.927 15.237,132.573 13.669 C 132.220 12.101,131.881 10.780,131.820 10.734 C 131.760 10.688,131.543 9.895,131.338 8.973 C 130.987 7.396,130.413 5.723,130.159 5.535 C 130.097 5.488,129.798 5.079,129.496 4.626 C 128.861 3.673,127.539 2.435,126.651 1.962 C 126.314 1.782,126.000 1.580,125.954 1.512 C 125.777 1.252,124.200 0.669,123.015 0.424 C 121.493 0.109,23.975 0.036,23.438 0.349 M394.601 1.204 C 395.034 1.313,395.473 1.483,395.577 1.582 C 395.681 1.680,396.103 1.959,396.514 2.201 C 400.081 4.303,399.717 9.983,395.877 12.140 C 392.826 13.855,388.620 12.360,387.671 9.224 C 387.601 8.994,387.460 8.751,387.357 8.685 C 387.120 8.534,387.103 5.403,387.338 5.233 C 387.430 5.166,387.778 4.584,388.112 3.940 C 388.446 3.295,388.861 2.690,389.035 2.596 C 389.208 2.502,389.690 2.205,390.105 1.936 C 391.538 1.006,392.920 0.781,394.601 1.204 M390.311 6.900 L 390.356 10.950 391.153 10.937 C 391.591 10.931,392.025 10.920,392.117 10.913 C 392.214 10.907,392.285 10.334,392.285 9.560 C 392.285 8.103,392.798 7.621,393.311 8.595 C 393.420 8.803,393.555 9.010,393.612 9.057 C 393.668 9.103,393.893 9.530,394.112 10.007 L 394.510 10.874 395.494 10.930 C 396.752 11.001,396.662 10.117,395.208 8.105 C 394.961 7.763,394.969 7.727,395.334 7.540 C 396.606 6.888,396.671 3.354,395.411 3.354 C 395.282 3.354,395.083 3.241,394.969 3.103 C 394.802 2.902,394.306 2.851,392.513 2.851 L 390.267 2.851 390.311 6.900 M394.228 4.816 C 394.859 5.648,394.283 6.541,393.114 6.541 L 392.285 6.541 392.285 5.427 L 392.285 4.314 393.143 4.415 C 393.677 4.479,394.087 4.630,394.228 4.816 M242.390 11.773 C 242.790 12.236,242.769 12.374,242.102 13.693 C 238.916 19.992,228.428 41.348,228.428 41.535 C 228.428 41.884,228.647 41.729,230.801 39.852 C 231.848 38.940,233.976 37.091,235.531 35.743 C 237.085 34.395,239.991 31.870,241.988 30.132 C 243.985 28.394,246.031 26.621,246.535 26.191 C 247.039 25.761,247.794 25.101,248.212 24.724 C 253.794 19.703,254.859 19.019,255.524 20.034 C 255.883 20.582,255.746 20.967,254.687 22.390 C 254.206 23.036,250.422 28.082,246.277 33.605 C 242.133 39.127,238.629 43.804,238.491 43.998 C 238.352 44.192,237.725 45.031,237.098 45.862 C 235.695 47.719,235.836 47.794,238.121 46.402 C 242.603 43.672,245.536 41.890,246.541 41.288 C 247.140 40.929,249.405 39.556,251.572 38.238 C 253.740 36.919,257.325 34.743,259.539 33.401 C 261.753 32.059,263.975 30.712,264.477 30.407 C 265.894 29.547,267.002 29.737,267.002 30.842 C 267.002 31.339,265.527 32.781,256.606 41.006 C 253.708 43.678,243.112 53.548,242.809 53.858 C 242.131 54.552,242.589 54.502,244.726 53.649 C 246.608 52.898,249.471 51.761,252.243 50.663 C 253.212 50.280,254.252 49.851,254.555 49.710 C 254.858 49.570,255.764 49.204,256.568 48.898 C 257.372 48.593,260.784 47.230,264.151 45.869 C 267.518 44.509,270.914 43.148,271.698 42.845 C 272.482 42.541,273.488 42.135,273.934 41.943 C 275.031 41.470,275.646 41.488,275.984 42.003 C 276.594 42.934,276.433 43.086,271.235 46.476 C 267.055 49.204,263.883 51.278,260.210 53.689 C 258.273 54.960,255.593 56.714,254.256 57.587 C 248.093 61.611,247.324 62.139,247.560 62.185 C 247.699 62.211,249.394 61.884,251.327 61.458 C 253.261 61.032,255.862 60.463,257.107 60.195 C 258.352 59.926,260.314 59.482,261.468 59.207 C 263.807 58.649,267.575 57.804,271.614 56.930 C 273.090 56.610,274.864 56.204,275.556 56.025 C 280.635 54.718,282.389 54.533,282.863 55.257 C 283.417 56.103,283.059 56.435,280.324 57.612 C 277.445 58.851,274.939 59.942,273.208 60.710 C 272.331 61.099,270.860 61.743,269.937 62.142 C 267.679 63.118,264.416 64.547,262.474 65.411 C 260.688 66.204,257.861 67.435,255.346 68.513 C 254.423 68.909,253.178 69.455,252.579 69.727 C 251.979 69.998,251.344 70.273,251.167 70.336 C 249.858 70.805,253.962 70.712,261.384 70.106 C 263.331 69.946,265.550 69.807,277.317 69.102 C 280.361 68.920,283.652 68.720,284.630 68.659 C 286.590 68.536,287.128 68.752,287.128 69.660 C 287.128 70.409,286.482 70.675,282.013 71.765 C 280.279 72.188,276.406 73.186,262.977 76.668 C 261.547 77.039,259.094 77.672,257.526 78.075 C 252.799 79.289,252.548 79.365,252.715 79.532 C 252.872 79.690,253.886 79.795,262.893 80.591 C 265.568 80.828,268.247 81.089,268.847 81.173 C 269.447 81.256,270.428 81.365,271.027 81.416 C 277.240 81.943,284.070 82.575,285.697 82.774 C 286.801 82.908,287.758 83.019,287.824 83.019 C 288.109 83.019,288.470 83.586,288.470 84.033 C 288.470 85.017,288.377 85.035,278.658 85.873 C 275.430 86.151,272.260 86.452,271.614 86.541 C 270.658 86.674,264.439 87.254,258.029 87.809 C 254.173 88.143,252.215 88.444,252.764 88.620 C 254.076 89.040,255.019 89.299,257.023 89.791 C 258.314 90.108,260.881 90.757,262.725 91.233 C 264.570 91.710,267.382 92.433,268.973 92.841 C 270.564 93.249,273.168 93.917,274.759 94.326 C 276.350 94.735,279.124 95.445,280.922 95.904 C 287.094 97.478,287.204 97.523,287.093 98.432 C 286.966 99.475,286.674 99.512,281.581 99.131 C 279.051 98.942,274.981 98.671,272.537 98.530 C 262.855 97.970,259.580 97.765,256.604 97.531 C 252.972 97.246,251.108 97.180,250.955 97.333 C 250.813 97.475,250.812 97.474,251.992 97.986 C 252.545 98.226,253.866 98.813,254.927 99.290 C 255.987 99.767,257.535 100.444,258.365 100.795 C 259.195 101.145,260.667 101.787,261.635 102.221 C 262.604 102.655,264.245 103.380,265.283 103.832 C 269.261 105.565,270.998 106.324,272.537 107.004 C 275.228 108.194,278.260 109.526,279.584 110.101 C 282.690 111.449,283.055 111.712,282.942 112.521 C 282.884 112.929,282.206 113.384,281.761 113.313 C 281.078 113.204,276.640 112.230,274.382 111.693 C 272.051 111.139,268.098 110.250,264.654 109.505 C 263.409 109.236,261.447 108.791,260.294 108.516 C 257.657 107.886,253.333 106.909,251.192 106.459 C 249.675 106.141,249.548 106.083,249.470 105.678 C 247.518 95.504,240.418 85.872,229.853 79.068 C 223.362 74.887,215.302 71.243,199.832 65.492 C 198.262 64.909,194.942 63.572,192.201 62.419 C 180.743 57.601,175.574 52.154,176.183 45.538 C 176.941 37.308,184.333 33.153,198.239 33.143 C 204.913 33.138,213.884 34.970,219.382 37.461 C 219.581 37.551,220.218 36.871,221.982 34.686 C 223.267 33.095,224.873 31.111,225.550 30.278 C 226.227 29.445,227.631 27.706,228.671 26.415 C 229.710 25.124,231.118 23.381,231.800 22.543 C 235.187 18.379,235.876 17.528,237.563 15.430 C 241.238 10.859,241.456 10.694,242.390 11.773 M126.301 30.233 C 127.392 30.867,129.278 32.008,131.405 33.322 C 132.235 33.835,133.345 34.511,133.871 34.824 C 135.103 35.559,135.044 35.295,134.583 37.991 C 134.362 39.281,134.180 40.360,134.177 40.390 C 134.146 40.730,124.252 31.643,124.034 31.074 C 123.896 30.713,124.247 30.022,124.652 29.859 C 125.222 29.630,125.292 29.646,126.301 30.233 M83.170 40.084 C 83.233 40.130,83.574 41.448,83.928 43.013 C 84.281 44.578,84.633 45.974,84.709 46.116 C 84.784 46.257,85.129 47.694,85.473 49.308 C 85.818 50.922,86.151 52.281,86.213 52.327 C 86.275 52.373,86.649 53.883,87.044 55.681 C 87.439 57.480,87.811 58.990,87.872 59.036 C 87.932 59.082,88.269 60.403,88.622 61.971 C 88.975 63.539,89.320 64.897,89.390 64.990 C 89.460 65.082,89.805 66.478,90.157 68.092 C 90.508 69.706,90.847 71.065,90.908 71.111 C 90.970 71.157,91.334 72.611,91.716 74.342 C 92.098 76.072,92.479 77.620,92.563 77.780 C 92.646 77.940,93.001 79.392,93.351 81.006 C 93.701 82.621,94.036 83.979,94.095 84.025 C 94.155 84.071,94.450 85.241,94.751 86.625 C 95.052 88.008,95.434 89.556,95.599 90.063 C 95.764 90.570,96.172 92.215,96.506 93.717 C 96.839 95.219,97.183 96.578,97.270 96.736 C 97.357 96.894,97.710 98.306,98.054 99.874 C 98.397 101.442,98.726 102.763,98.784 102.809 C 98.841 102.855,98.980 103.308,99.092 103.816 C 99.203 104.323,99.339 104.908,99.394 105.115 L 99.494 105.493 82.871 105.493 C 68.902 105.493,66.247 105.456,66.247 105.263 C 66.247 104.844,67.264 100.383,67.427 100.088 C 67.515 99.929,67.890 98.419,68.261 96.734 C 68.632 95.048,69.006 93.518,69.091 93.333 C 69.177 93.149,69.531 91.715,69.878 90.147 C 70.225 88.579,70.556 87.258,70.613 87.212 C 70.669 87.166,71.008 85.807,71.366 84.193 C 71.724 82.579,72.065 81.220,72.123 81.174 C 72.181 81.128,72.560 79.581,72.966 77.736 C 73.371 75.891,73.747 74.344,73.801 74.298 C 73.856 74.252,74.188 72.893,74.539 71.279 C 74.891 69.665,75.241 68.265,75.316 68.170 C 75.392 68.074,75.724 66.753,76.055 65.235 C 76.386 63.716,76.727 62.348,76.812 62.194 C 76.897 62.040,77.277 60.493,77.657 58.756 C 78.037 57.019,78.418 55.447,78.504 55.262 C 78.590 55.078,78.925 53.719,79.250 52.243 C 79.574 50.767,79.913 49.409,80.003 49.224 C 80.093 49.040,80.468 47.606,80.838 46.038 C 81.655 42.566,82.516 39.083,82.640 38.742 C 82.692 38.600,82.802 38.820,82.893 39.245 C 82.982 39.660,83.106 40.038,83.170 40.084 M116.976 41.810 C 117.390 42.023,127.278 46.000,130.881 47.402 C 131.699 47.720,132.650 48.124,132.994 48.300 L 133.618 48.618 133.732 51.018 C 133.794 52.337,133.892 53.889,133.948 54.465 C 134.064 55.650,133.938 55.757,133.162 55.136 C 132.903 54.929,132.024 54.333,131.209 53.812 C 129.575 52.769,125.986 50.435,122.306 48.023 C 114.385 42.832,114.588 42.992,114.882 42.180 C 115.131 41.493,116.046 41.331,116.976 41.810 M111.614 55.095 C 112.721 55.325,114.570 55.738,115.723 56.013 C 118.186 56.600,122.022 57.469,126.122 58.368 C 127.736 58.722,129.623 59.158,130.314 59.337 C 131.006 59.516,132.303 59.802,133.196 59.974 L 134.820 60.286 134.925 60.849 C 135.154 62.070,136.428 65.908,137.127 67.485 C 137.533 68.401,137.829 69.187,137.785 69.231 C 137.675 69.341,134.815 68.130,126.792 64.576 C 126.193 64.310,124.721 63.665,123.522 63.142 C 122.323 62.619,120.609 61.859,119.713 61.452 C 118.817 61.045,118.044 60.713,117.994 60.713 C 117.945 60.713,117.433 60.492,116.856 60.223 C 116.279 59.953,114.486 59.154,112.872 58.447 C 111.258 57.740,109.635 57.030,109.266 56.868 C 108.454 56.513,108.134 56.153,108.134 55.597 C 108.134 54.558,108.662 54.481,111.614 55.095 M108.595 68.758 C 109.979 68.852,114.356 69.118,118.323 69.349 C 122.289 69.581,127.572 69.918,130.063 70.100 C 132.553 70.281,135.384 70.474,136.352 70.528 C 138.591 70.652,138.823 70.704,138.951 71.109 C 139.009 71.292,139.508 72.129,140.059 72.968 C 146.563 82.873,156.647 89.446,175.597 96.132 C 180.465 97.849,182.359 98.510,184.151 99.117 C 203.395 105.636,209.921 110.910,209.885 119.916 C 209.855 127.474,203.141 132.757,191.867 134.092 C 185.243 134.876,181.058 134.322,173.432 131.651 C 172.103 131.186,170.963 130.864,170.899 130.937 C 170.597 131.283,167.917 134.606,167.547 135.094 C 167.119 135.658,165.370 137.817,162.948 140.771 C 162.203 141.680,161.405 142.672,161.174 142.976 C 160.943 143.281,160.299 144.084,159.743 144.763 C 158.467 146.317,155.582 149.871,154.046 151.780 C 149.923 156.906,149.917 156.912,149.072 156.467 C 148.596 156.216,148.434 155.991,148.430 155.579 C 148.428 155.255,149.099 153.870,156.985 137.945 C 163.661 124.462,163.369 125.306,160.480 127.841 C 159.507 128.694,157.627 130.335,156.301 131.488 C 154.976 132.642,152.938 134.415,151.773 135.430 C 150.608 136.444,149.435 137.458,149.167 137.683 C 148.727 138.051,143.166 142.901,138.753 146.764 C 136.938 148.353,136.240 148.627,135.609 147.996 C 135.001 147.388,135.196 147.085,142.096 137.912 C 145.809 132.976,148.960 128.777,149.099 128.581 C 149.237 128.385,150.614 126.541,152.159 124.483 C 155.358 120.222,155.491 119.967,154.083 120.799 C 153.143 121.355,145.894 125.747,144.420 126.655 C 143.719 127.087,142.616 127.750,141.971 128.128 C 141.325 128.506,140.117 129.238,139.287 129.754 C 138.457 130.271,137.363 130.938,136.855 131.237 C 136.348 131.536,135.254 132.199,134.423 132.711 C 133.593 133.223,131.857 134.280,130.566 135.061 C 129.275 135.842,127.636 136.834,126.924 137.266 C 125.382 138.201,124.552 138.269,124.121 137.497 C 123.759 136.849,123.930 136.628,126.939 133.849 C 130.447 130.612,133.781 127.513,136.481 124.981 C 137.705 123.834,139.377 122.281,140.197 121.531 C 146.252 115.994,148.543 113.770,148.371 113.598 C 148.280 113.507,143.852 115.193,141.216 116.322 C 140.354 116.691,136.039 118.418,131.405 120.248 C 130.298 120.685,128.335 121.476,127.044 122.005 C 125.753 122.534,124.055 123.216,123.270 123.519 C 122.486 123.822,120.600 124.572,119.078 125.186 C 116.032 126.416,115.302 126.525,114.947 125.807 C 114.570 125.048,114.930 124.620,117.156 123.187 C 118.302 122.449,120.354 121.114,121.716 120.221 C 123.078 119.328,125.249 117.910,126.541 117.069 C 127.832 116.228,130.021 114.796,131.405 113.885 C 132.788 112.974,134.977 111.541,136.268 110.699 C 143.466 106.009,143.665 105.873,143.534 105.742 C 143.444 105.652,141.151 106.131,134.004 107.733 C 132.205 108.136,129.488 108.741,127.966 109.077 C 126.444 109.413,124.067 109.951,122.683 110.272 C 119.339 111.049,113.354 112.377,109.434 113.212 C 108.600 113.389,107.883 112.724,108.077 111.952 C 108.184 111.525,109.179 110.926,110.986 110.198 C 111.424 110.022,112.914 109.375,114.298 108.760 C 115.681 108.145,117.493 107.353,118.323 107.001 C 119.153 106.649,120.625 106.007,121.593 105.574 C 123.241 104.838,124.459 104.305,129.057 102.306 C 130.935 101.489,131.780 101.118,135.933 99.286 C 137.224 98.716,138.677 98.087,139.161 97.888 C 140.463 97.353,140.329 97.071,138.826 97.186 C 133.361 97.604,128.152 97.941,116.730 98.616 C 113.547 98.804,109.600 99.066,107.958 99.199 C 104.654 99.466,104.285 99.410,104.000 98.593 C 103.715 97.776,104.248 97.406,106.583 96.796 C 109.616 96.004,113.003 95.131,115.807 94.419 C 117.191 94.067,119.681 93.428,121.342 92.999 C 125.096 92.030,129.736 90.838,134.004 89.746 C 140.143 88.177,141.013 88.457,125.870 87.122 C 123.287 86.894,120.646 86.635,120.000 86.546 C 119.354 86.457,117.430 86.267,115.723 86.122 C 102.845 85.035,102.629 85.000,102.509 84.008 C 102.379 82.944,102.425 82.934,110.706 82.187 C 116.908 81.628,120.029 81.336,125.031 80.849 C 126.876 80.669,130.611 80.327,133.331 80.088 C 138.342 79.647,139.106 79.496,137.925 79.179 C 136.869 78.896,129.630 77.019,126.457 76.205 C 124.843 75.791,122.201 75.112,120.587 74.697 C 114.542 73.139,111.707 72.416,109.116 71.770 C 104.866 70.711,104.165 70.469,104.052 70.021 C 103.792 68.983,104.391 68.353,105.493 68.506 C 105.816 68.550,107.212 68.664,108.595 68.758 M251.193 108.402 C 251.817 108.802,253.572 109.946,255.094 110.943 C 261.107 114.883,262.625 115.877,264.319 116.982 C 276.028 124.620,276.023 124.616,276.137 125.069 C 276.403 126.129,275.276 126.610,273.915 126.018 C 273.268 125.737,270.148 124.490,267.673 123.524 C 266.889 123.217,264.247 122.159,261.803 121.171 C 256.471 119.017,253.654 117.894,251.740 117.160 L 250.314 116.614 250.214 113.359 C 250.123 110.394,250.050 109.499,249.789 108.134 C 249.669 107.509,249.861 107.545,251.193 108.402 M251.303 122.045 C 252.853 123.470,259.004 129.196,260.547 130.650 C 261.379 131.434,263.172 133.122,264.531 134.402 C 267.152 136.869,267.345 137.183,266.667 137.862 C 266.159 138.370,265.709 138.276,264.151 137.340 C 261.557 135.780,260.404 135.080,257.694 133.419 C 256.218 132.514,254.520 131.480,253.920 131.122 C 251.428 129.632,249.800 128.608,249.622 128.419 C 249.393 128.177,250.041 121.258,250.292 121.258 C 250.377 121.258,250.833 121.612,251.303 122.045 M248.500 137.318 C 248.886 137.848,250.640 140.205,252.399 142.558 C 255.857 147.183,256.068 147.608,255.196 148.180 C 254.421 148.687,254.293 148.596,247.974 143.049 C 245.698 141.051,245.780 141.267,246.530 139.203 C 247.767 135.800,247.547 136.010,248.500 137.318 " stroke="none" fill="#941444" fill-rule="evenodd"></path><path id="path2" d="M237.400 22.977 C 237.257 23.254,237.178 23.480,237.224 23.480 C 237.270 23.480,237.425 23.254,237.568 22.977 C 237.711 22.700,237.791 22.474,237.744 22.474 C 237.698 22.474,237.544 22.700,237.400 22.977 M244.769 27.715 L 244.277 28.260 244.822 27.767 C 245.330 27.308,245.444 27.170,245.314 27.170 C 245.286 27.170,245.040 27.415,244.769 27.715 M124.444 31.583 C 124.444 31.612,124.690 31.857,124.990 32.128 L 125.535 32.621 125.042 32.075 C 124.583 31.567,124.444 31.453,124.444 31.583 M265.819 32.327 L 265.241 32.956 265.870 32.378 C 266.455 31.840,266.576 31.698,266.448 31.698 C 266.420 31.698,266.137 31.981,265.819 32.327 M196.268 33.160 C 196.522 33.198,196.937 33.198,197.191 33.160 C 197.444 33.122,197.237 33.090,196.730 33.090 C 196.222 33.090,196.015 33.122,196.268 33.160 M200.044 33.158 C 200.253 33.199,200.554 33.197,200.715 33.155 C 200.875 33.113,200.704 33.080,200.335 33.082 C 199.966 33.084,199.835 33.118,200.044 33.158 M193.417 33.323 C 193.579 33.365,193.843 33.365,194.004 33.323 C 194.166 33.281,194.034 33.246,193.711 33.246 C 193.388 33.246,193.256 33.281,193.417 33.323 M263.145 34.801 C 262.737 35.216,262.442 35.556,262.488 35.556 C 262.534 35.556,262.905 35.216,263.312 34.801 C 263.720 34.386,264.015 34.046,263.969 34.046 C 263.923 34.046,263.552 34.386,263.145 34.801 M127.463 34.434 C 127.463 34.463,127.709 34.708,128.008 34.979 L 128.553 35.472 128.061 34.927 C 127.602 34.419,127.463 34.304,127.463 34.434 M260.955 36.855 L 260.377 37.484 261.006 36.906 C 261.592 36.368,261.712 36.226,261.584 36.226 C 261.556 36.226,261.273 36.509,260.955 36.855 M130.398 37.233 C 130.853 37.694,131.262 38.071,131.308 38.071 C 131.354 38.071,131.020 37.694,130.566 37.233 C 130.112 36.771,129.702 36.394,129.656 36.394 C 129.610 36.394,129.944 36.771,130.398 37.233 M179.446 38.365 L 178.868 38.994 179.497 38.416 C 180.082 37.878,180.203 37.736,180.075 37.736 C 180.047 37.736,179.764 38.019,179.446 38.365 M258.189 39.455 L 257.526 40.168 258.239 39.505 C 258.631 39.140,258.952 38.819,258.952 38.792 C 258.952 38.665,258.806 38.792,258.189 39.455 M133.082 39.748 C 133.442 40.117,133.775 40.419,133.821 40.419 C 133.867 40.419,133.610 40.117,133.249 39.748 C 132.889 39.379,132.557 39.078,132.511 39.078 C 132.464 39.078,132.721 39.379,133.082 39.748 M230.681 39.958 L 230.189 40.503 230.734 40.011 C 231.242 39.551,231.356 39.413,231.226 39.413 C 231.197 39.413,230.952 39.658,230.681 39.958 M256.006 41.468 L 255.514 42.013 256.059 41.520 C 256.567 41.061,256.681 40.922,256.551 40.922 C 256.522 40.922,256.277 41.168,256.006 41.468 M275.052 41.718 C 275.374 41.757,275.752 41.877,275.890 41.984 C 276.110 42.155,276.113 42.142,275.912 41.887 C 275.759 41.692,275.478 41.602,275.074 41.620 L 274.465 41.647 275.052 41.718 M253.417 43.857 C 253.010 44.273,252.714 44.612,252.760 44.612 C 252.806 44.612,253.178 44.273,253.585 43.857 C 253.992 43.442,254.288 43.103,254.242 43.103 C 254.196 43.103,253.825 43.442,253.417 43.857 M250.901 46.205 C 250.494 46.621,250.199 46.960,250.245 46.960 C 250.291 46.960,250.662 46.621,251.069 46.205 C 251.477 45.790,251.772 45.451,251.726 45.451 C 251.680 45.451,251.309 45.790,250.901 46.205 M176.153 46.541 C 176.154 47.094,176.185 47.301,176.222 46.999 C 176.260 46.698,176.259 46.245,176.220 45.993 C 176.182 45.741,176.152 45.987,176.153 46.541 M248.721 48.218 C 248.314 48.633,248.018 48.973,248.064 48.973 C 248.110 48.973,248.482 48.633,248.889 48.218 C 249.296 47.803,249.592 47.463,249.546 47.463 C 249.500 47.463,249.129 47.803,248.721 48.218 M246.114 50.692 L 245.451 51.405 246.164 50.742 C 246.556 50.377,246.876 50.056,246.876 50.029 C 246.876 49.902,246.730 50.029,246.114 50.692 M133.722 52.495 C 133.722 53.094,133.753 53.340,133.790 53.040 C 133.827 52.740,133.827 52.249,133.790 51.950 C 133.753 51.650,133.722 51.895,133.722 52.495 M243.933 52.704 L 243.270 53.417 243.983 52.754 C 244.375 52.390,244.696 52.069,244.696 52.041 C 244.696 51.915,244.550 52.042,243.933 52.704 M133.882 54.843 C 133.882 55.258,133.915 55.428,133.955 55.220 C 133.995 55.013,133.995 54.673,133.955 54.465 C 133.915 54.258,133.882 54.428,133.882 54.843 M179.958 55.094 C 180.459 55.602,180.907 56.017,180.953 56.017 C 180.999 56.017,180.627 55.602,180.126 55.094 C 179.625 54.587,179.177 54.172,179.131 54.172 C 179.085 54.172,179.457 54.587,179.958 55.094 M277.736 58.616 C 277.505 58.748,277.392 58.856,277.484 58.856 C 277.577 58.856,277.841 58.748,278.071 58.616 C 278.302 58.485,278.415 58.377,278.323 58.377 C 278.231 58.377,277.966 58.485,277.736 58.616 M260.126 66.331 C 259.895 66.463,259.782 66.571,259.874 66.571 C 259.966 66.571,260.231 66.463,260.461 66.331 C 260.692 66.199,260.805 66.092,260.713 66.092 C 260.621 66.092,260.356 66.199,260.126 66.331 M106.627 68.714 C 106.835 68.754,107.137 68.753,107.298 68.711 C 107.458 68.669,107.287 68.636,106.918 68.638 C 106.549 68.640,106.418 68.674,106.627 68.714 M284.403 68.714 C 284.610 68.754,284.950 68.754,285.157 68.714 C 285.365 68.674,285.195 68.641,284.780 68.641 C 284.365 68.641,284.195 68.674,284.403 68.714 M117.528 69.385 C 117.737 69.425,118.039 69.423,118.199 69.381 C 118.359 69.340,118.189 69.307,117.820 69.309 C 117.451 69.310,117.320 69.345,117.528 69.385 M273.333 69.385 C 273.541 69.425,273.881 69.425,274.088 69.385 C 274.296 69.345,274.126 69.312,273.711 69.312 C 273.296 69.312,273.126 69.345,273.333 69.385 M120.294 69.550 C 120.455 69.592,120.719 69.592,120.881 69.550 C 121.042 69.507,120.910 69.473,120.587 69.473 C 120.264 69.473,120.132 69.507,120.294 69.550 M270.734 69.550 C 270.895 69.592,271.159 69.592,271.321 69.550 C 271.482 69.507,271.350 69.473,271.027 69.473 C 270.704 69.473,270.572 69.507,270.734 69.550 M122.725 69.720 C 122.933 69.760,123.273 69.760,123.480 69.720 C 123.688 69.680,123.518 69.647,123.103 69.647 C 122.688 69.647,122.518 69.680,122.725 69.720 M267.966 69.720 C 268.174 69.760,268.514 69.760,268.721 69.720 C 268.929 69.680,268.759 69.647,268.344 69.647 C 267.929 69.647,267.759 69.680,267.966 69.720 M125.493 69.890 C 125.746 69.928,126.161 69.928,126.415 69.890 C 126.669 69.851,126.461 69.820,125.954 69.820 C 125.447 69.820,125.239 69.851,125.493 69.890 M265.201 69.890 C 265.456 69.928,265.834 69.927,266.040 69.887 C 266.246 69.848,266.038 69.816,265.577 69.817 C 265.115 69.819,264.947 69.851,265.201 69.890 M127.841 70.057 C 128.094 70.096,128.509 70.096,128.763 70.057 C 129.017 70.019,128.809 69.987,128.302 69.987 C 127.795 69.987,127.587 70.019,127.841 70.057 M262.853 70.057 C 263.108 70.096,263.486 70.095,263.692 70.055 C 263.898 70.015,263.690 69.984,263.229 69.985 C 262.767 69.986,262.599 70.019,262.853 70.057 M130.191 70.225 C 130.446 70.264,130.823 70.263,131.030 70.223 C 131.236 70.183,131.027 70.152,130.566 70.153 C 130.105 70.154,129.936 70.187,130.191 70.225 M260.587 70.223 C 260.795 70.263,261.134 70.263,261.342 70.223 C 261.549 70.183,261.379 70.151,260.964 70.151 C 260.549 70.151,260.379 70.183,260.587 70.223 M144.738 79.046 C 144.738 79.075,144.983 79.320,145.283 79.591 L 145.828 80.084 145.335 79.539 C 144.876 79.031,144.738 78.917,144.738 79.046 M125.996 80.786 C 126.157 80.829,126.421 80.829,126.583 80.786 C 126.744 80.744,126.612 80.710,126.289 80.710 C 125.966 80.710,125.834 80.744,125.996 80.786 M147.086 81.258 C 147.399 81.581,147.693 81.845,147.739 81.845 C 147.785 81.845,147.567 81.581,147.254 81.258 C 146.941 80.935,146.647 80.671,146.601 80.671 C 146.555 80.671,146.773 80.935,147.086 81.258 M263.943 80.789 C 264.152 80.830,264.454 80.828,264.614 80.786 C 264.774 80.744,264.604 80.711,264.235 80.713 C 263.866 80.715,263.735 80.749,263.943 80.789 M124.235 80.957 C 124.442 80.997,124.782 80.997,124.990 80.957 C 125.197 80.917,125.027 80.884,124.612 80.884 C 124.197 80.884,124.027 80.917,124.235 80.957 M265.618 80.957 C 265.826 80.997,266.166 80.997,266.373 80.957 C 266.581 80.917,266.411 80.884,265.996 80.884 C 265.581 80.884,265.411 80.917,265.618 80.957 M122.560 81.125 C 122.768 81.165,123.070 81.164,123.230 81.122 C 123.391 81.080,123.220 81.047,122.851 81.049 C 122.482 81.050,122.351 81.085,122.560 81.125 M267.379 81.122 C 267.541 81.164,267.805 81.164,267.966 81.122 C 268.128 81.080,267.996 81.045,267.673 81.045 C 267.350 81.045,267.218 81.080,267.379 81.122 M109.895 82.296 C 110.057 82.338,110.321 82.338,110.482 82.296 C 110.644 82.254,110.512 82.219,110.189 82.219 C 109.866 82.219,109.734 82.254,109.895 82.296 M279.958 82.296 C 280.119 82.338,280.384 82.338,280.545 82.296 C 280.706 82.254,280.574 82.219,280.252 82.219 C 279.929 82.219,279.797 82.254,279.958 82.296 M108.136 82.467 C 108.345 82.507,108.647 82.505,108.807 82.463 C 108.967 82.421,108.797 82.388,108.428 82.390 C 108.059 82.392,107.928 82.427,108.136 82.467 M281.721 82.467 C 281.930 82.507,282.232 82.505,282.392 82.463 C 282.552 82.421,282.382 82.388,282.013 82.390 C 281.644 82.392,281.512 82.427,281.721 82.467 M106.459 82.634 C 106.668 82.674,106.969 82.673,107.130 82.631 C 107.290 82.589,107.119 82.556,106.751 82.558 C 106.382 82.560,106.250 82.594,106.459 82.634 M283.398 82.634 C 283.607 82.674,283.909 82.673,284.069 82.631 C 284.229 82.589,284.059 82.556,283.690 82.558 C 283.321 82.560,283.190 82.594,283.398 82.634 M104.864 82.799 C 105.025 82.841,105.289 82.841,105.451 82.799 C 105.612 82.757,105.480 82.722,105.157 82.722 C 104.834 82.722,104.702 82.757,104.864 82.799 M104.696 85.147 C 104.857 85.189,105.122 85.189,105.283 85.147 C 105.444 85.105,105.312 85.070,104.990 85.070 C 104.667 85.070,104.535 85.105,104.696 85.147 M285.996 85.147 C 286.157 85.189,286.421 85.189,286.583 85.147 C 286.744 85.105,286.612 85.070,286.289 85.070 C 285.966 85.070,285.834 85.105,285.996 85.147 M106.459 85.318 C 106.668 85.358,106.969 85.356,107.130 85.314 C 107.290 85.272,107.119 85.240,106.751 85.241 C 106.382 85.243,106.250 85.278,106.459 85.318 M284.235 85.318 C 284.442 85.357,284.782 85.357,284.990 85.318 C 285.197 85.278,285.027 85.245,284.612 85.245 C 284.197 85.245,284.027 85.278,284.235 85.318 M108.218 85.482 C 108.379 85.525,108.644 85.525,108.805 85.482 C 108.966 85.440,108.834 85.406,108.512 85.406 C 108.189 85.406,108.057 85.440,108.218 85.482 M238.574 86.038 C 238.935 86.407,239.267 86.709,239.313 86.709 C 239.359 86.709,239.102 86.407,238.742 86.038 C 238.382 85.669,238.049 85.367,238.003 85.367 C 237.957 85.367,238.214 85.669,238.574 86.038 M282.642 85.482 C 282.803 85.525,283.067 85.525,283.229 85.482 C 283.390 85.440,283.258 85.406,282.935 85.406 C 282.612 85.406,282.480 85.440,282.642 85.482 M120.882 86.659 C 121.091 86.700,121.393 86.698,121.553 86.656 C 121.714 86.614,121.543 86.581,121.174 86.583 C 120.805 86.585,120.674 86.619,120.882 86.659 M270.149 86.659 C 270.357 86.700,270.659 86.698,270.820 86.656 C 270.980 86.614,270.809 86.581,270.440 86.583 C 270.071 86.585,269.940 86.619,270.149 86.659 M122.476 86.829 C 122.731 86.867,123.108 86.866,123.315 86.827 C 123.521 86.787,123.312 86.755,122.851 86.757 C 122.390 86.758,122.221 86.790,122.476 86.829 M268.302 86.827 C 268.509 86.867,268.849 86.867,269.057 86.827 C 269.264 86.787,269.094 86.754,268.679 86.754 C 268.264 86.754,268.094 86.787,268.302 86.827 M124.319 86.992 C 124.480 87.034,124.744 87.034,124.906 86.992 C 125.067 86.950,124.935 86.915,124.612 86.915 C 124.289 86.915,124.157 86.950,124.319 86.992 M266.709 86.992 C 266.870 87.034,267.134 87.034,267.296 86.992 C 267.457 86.950,267.325 86.915,267.002 86.915 C 266.679 86.915,266.547 86.950,266.709 86.992 M254.130 88.166 C 254.291 88.208,254.556 88.208,254.717 88.166 C 254.878 88.124,254.746 88.089,254.423 88.089 C 254.101 88.089,253.969 88.124,254.130 88.166 M164.696 91.992 C 164.927 92.123,165.191 92.231,165.283 92.231 C 165.375 92.231,165.262 92.123,165.031 91.992 C 164.801 91.860,164.537 91.752,164.444 91.752 C 164.352 91.752,164.465 91.860,164.696 91.992 M132.874 97.563 C 133.129 97.601,133.507 97.600,133.713 97.560 C 133.919 97.521,133.711 97.489,133.249 97.490 C 132.788 97.492,132.619 97.524,132.874 97.563 M256.816 97.563 C 257.071 97.601,257.448 97.600,257.654 97.560 C 257.861 97.521,257.652 97.489,257.191 97.490 C 256.730 97.492,256.561 97.524,256.816 97.563 M130.526 97.730 C 130.781 97.769,131.159 97.768,131.365 97.728 C 131.571 97.688,131.363 97.657,130.901 97.658 C 130.440 97.659,130.271 97.692,130.526 97.730 M259.161 97.730 C 259.415 97.769,259.830 97.769,260.084 97.730 C 260.338 97.692,260.130 97.660,259.623 97.660 C 259.115 97.660,258.908 97.692,259.161 97.730 M128.178 97.898 C 128.433 97.937,128.811 97.936,129.017 97.896 C 129.223 97.856,129.015 97.824,128.553 97.826 C 128.092 97.827,127.923 97.860,128.178 97.898 M261.509 97.898 C 261.763 97.936,262.178 97.936,262.432 97.898 C 262.686 97.859,262.478 97.828,261.971 97.828 C 261.463 97.828,261.256 97.859,261.509 97.898 M125.409 98.064 C 125.616 98.104,125.956 98.104,126.164 98.064 C 126.371 98.024,126.201 97.991,125.786 97.991 C 125.371 97.991,125.201 98.024,125.409 98.064 M138.365 98.197 C 138.134 98.329,138.021 98.437,138.113 98.437 C 138.205 98.437,138.470 98.329,138.700 98.197 C 138.931 98.065,139.044 97.957,138.952 97.957 C 138.860 97.957,138.595 98.065,138.365 98.197 M264.363 98.066 C 264.618 98.104,264.995 98.103,265.201 98.064 C 265.408 98.024,265.199 97.992,264.738 97.993 C 264.277 97.995,264.108 98.027,264.363 98.066 M120.212 98.400 C 120.420 98.440,120.722 98.438,120.882 98.396 C 121.043 98.354,120.872 98.321,120.503 98.323 C 120.134 98.325,120.003 98.359,120.212 98.400 M269.813 98.400 C 270.022 98.440,270.324 98.438,270.484 98.396 C 270.644 98.354,270.474 98.321,270.105 98.323 C 269.736 98.325,269.605 98.359,269.813 98.400 M109.142 99.070 C 109.351 99.111,109.653 99.109,109.813 99.067 C 109.974 99.025,109.803 98.992,109.434 98.994 C 109.065 98.996,108.934 99.030,109.142 99.070 M280.713 99.070 C 280.920 99.110,281.260 99.110,281.468 99.070 C 281.675 99.030,281.505 98.997,281.090 98.997 C 280.675 98.997,280.505 99.030,280.713 99.070 M106.709 99.240 C 106.962 99.278,107.377 99.278,107.631 99.240 C 107.885 99.201,107.677 99.170,107.170 99.170 C 106.662 99.170,106.455 99.201,106.709 99.240 M282.979 99.240 C 283.234 99.278,283.612 99.277,283.818 99.238 C 284.024 99.198,283.816 99.166,283.354 99.167 C 282.893 99.169,282.724 99.201,282.979 99.240 M285.241 99.406 C 285.449 99.446,285.788 99.446,285.996 99.406 C 286.203 99.366,286.034 99.333,285.618 99.333 C 285.203 99.333,285.034 99.366,285.241 99.406 M197.065 104.226 C 197.065 104.272,197.291 104.427,197.568 104.570 C 197.845 104.713,198.071 104.793,198.071 104.747 C 198.071 104.700,197.845 104.546,197.568 104.403 C 197.291 104.259,197.065 104.180,197.065 104.226 M116.897 107.589 C 116.667 107.721,116.553 107.829,116.646 107.829 C 116.738 107.829,117.002 107.721,117.233 107.589 C 117.463 107.457,117.577 107.349,117.484 107.349 C 117.392 107.349,117.128 107.457,116.897 107.589 M250.102 110.692 C 250.102 111.015,250.136 111.147,250.179 110.985 C 250.221 110.824,250.221 110.560,250.179 110.398 C 250.136 110.237,250.102 110.369,250.102 110.692 M250.305 114.787 C 250.313 116.267,250.363 116.632,250.566 116.687 C 250.746 116.736,250.759 116.714,250.614 116.611 C 250.484 116.518,250.390 115.835,250.353 114.711 L 250.295 112.956 250.305 114.787 M281.845 113.208 L 281.342 113.336 281.793 113.355 C 282.041 113.366,282.291 113.300,282.348 113.208 C 282.405 113.115,282.428 113.049,282.400 113.060 C 282.371 113.071,282.122 113.137,281.845 113.208 M148.021 114.198 L 147.530 114.801 148.096 114.261 C 148.407 113.964,148.628 113.693,148.587 113.658 C 148.545 113.624,148.291 113.866,148.021 114.198 M145.232 116.855 L 144.654 117.484 145.283 116.906 C 145.868 116.368,145.989 116.226,145.861 116.226 C 145.833 116.226,145.550 116.509,145.232 116.855 M142.971 118.952 L 142.138 119.832 143.019 119.000 C 143.837 118.227,143.976 118.071,143.851 118.071 C 143.825 118.071,143.428 118.468,142.971 118.952 M138.197 123.354 C 137.790 123.769,137.494 124.109,137.540 124.109 C 137.586 124.109,137.957 123.769,138.365 123.354 C 138.772 122.939,139.068 122.600,139.022 122.600 C 138.975 122.600,138.604 122.939,138.197 123.354 M252.495 123.270 C 252.855 123.639,253.188 123.941,253.234 123.941 C 253.280 123.941,253.023 123.639,252.662 123.270 C 252.302 122.901,251.970 122.600,251.924 122.600 C 251.877 122.600,252.134 122.901,252.495 123.270 M254.675 125.283 C 255.035 125.652,255.368 125.954,255.414 125.954 C 255.460 125.954,255.203 125.652,254.843 125.283 C 254.482 124.914,254.150 124.612,254.104 124.612 C 254.058 124.612,254.315 124.914,254.675 125.283 M162.375 126.883 C 162.094 127.500,162.148 127.632,162.452 127.071 C 162.594 126.809,162.678 126.564,162.640 126.525 C 162.602 126.487,162.482 126.648,162.375 126.883 M133.242 128.008 L 132.579 128.721 133.291 128.058 C 133.954 127.442,134.081 127.296,133.954 127.296 C 133.927 127.296,133.606 127.616,133.242 128.008 M257.526 127.966 C 257.886 128.335,258.219 128.637,258.265 128.637 C 258.311 128.637,258.054 128.335,257.694 127.966 C 257.334 127.597,257.001 127.296,256.955 127.296 C 256.909 127.296,257.166 127.597,257.526 127.966 M206.530 128.008 L 206.038 128.553 206.583 128.061 C 207.091 127.602,207.205 127.463,207.075 127.463 C 207.047 127.463,206.801 127.709,206.530 128.008 M131.061 130.021 L 130.398 130.734 131.111 130.071 C 131.774 129.454,131.901 129.308,131.774 129.308 C 131.747 129.308,131.426 129.629,131.061 130.021 M259.958 130.231 C 260.459 130.738,260.907 131.153,260.953 131.153 C 260.999 131.153,260.627 130.738,260.126 130.231 C 259.625 129.723,259.177 129.308,259.131 129.308 C 259.085 129.308,259.457 129.723,259.958 130.231 M155.377 132.201 L 154.885 132.746 155.430 132.254 C 155.730 131.983,155.975 131.738,155.975 131.709 C 155.975 131.579,155.836 131.693,155.377 132.201 M128.378 132.537 L 127.715 133.249 128.428 132.587 C 129.091 131.970,129.218 131.824,129.091 131.824 C 129.063 131.824,128.742 132.145,128.378 132.537 M262.558 132.662 C 262.918 133.031,263.250 133.333,263.297 133.333 C 263.343 133.333,263.086 133.031,262.725 132.662 C 262.365 132.294,262.033 131.992,261.986 131.992 C 261.940 131.992,262.197 132.294,262.558 132.662 M126.195 134.549 L 125.702 135.094 126.247 134.602 C 126.547 134.331,126.792 134.086,126.792 134.057 C 126.792 133.927,126.654 134.041,126.195 134.549 M189.560 134.288 C 189.721 134.330,189.985 134.330,190.147 134.288 C 190.308 134.245,190.176 134.211,189.853 134.211 C 189.530 134.211,189.398 134.245,189.560 134.288 M265.409 135.346 C 265.769 135.715,266.102 136.017,266.148 136.017 C 266.194 136.017,265.937 135.715,265.577 135.346 C 265.216 134.977,264.884 134.675,264.838 134.675 C 264.791 134.675,265.049 134.977,265.409 135.346 M151.520 135.556 L 151.027 136.101 151.572 135.608 C 151.872 135.337,152.117 135.092,152.117 135.063 C 152.117 134.933,151.979 135.047,151.520 135.556 M150.178 136.730 L 149.686 137.275 150.231 136.782 C 150.530 136.511,150.776 136.266,150.776 136.237 C 150.776 136.107,150.637 136.221,150.178 136.730 M156.226 139.371 C 156.083 139.648,156.004 139.874,156.050 139.874 C 156.096 139.874,156.251 139.648,156.394 139.371 C 156.537 139.094,156.617 138.868,156.570 138.868 C 156.524 138.868,156.370 139.094,156.226 139.371 M247.715 142.778 C 247.715 142.807,247.960 143.052,248.260 143.323 L 248.805 143.816 248.312 143.270 C 247.853 142.762,247.715 142.648,247.715 142.778 M141.122 144.612 L 140.629 145.157 141.174 144.665 C 141.474 144.394,141.719 144.148,141.719 144.120 C 141.719 143.990,141.581 144.104,141.122 144.612 M150.021 151.950 C 149.878 152.226,149.799 152.453,149.845 152.453 C 149.891 152.453,150.046 152.226,150.189 151.950 C 150.332 151.673,150.411 151.447,150.365 151.447 C 150.319 151.447,150.164 151.673,150.021 151.950 " stroke="none" fill="#b55138" fill-rule="evenodd"></path><path id="path3" d="M390.903 11.020 C 391.112 11.060,391.414 11.059,391.574 11.017 C 391.735 10.975,391.564 10.942,391.195 10.944 C 390.826 10.946,390.695 10.980,390.903 11.020 M395.181 11.022 C 395.435 11.060,395.813 11.059,396.019 11.020 C 396.225 10.980,396.017 10.948,395.556 10.949 C 395.094 10.951,394.926 10.983,395.181 11.022 M198.026 33.161 C 198.323 33.198,198.852 33.199,199.200 33.162 C 199.548 33.126,199.304 33.096,198.658 33.095 C 198.013 33.094,197.728 33.124,198.026 33.161 M250.273 112.453 C 250.275 112.822,250.309 112.953,250.349 112.744 C 250.389 112.536,250.388 112.234,250.346 112.074 C 250.304 111.913,250.271 112.084,250.273 112.453 M184.361 134.288 C 184.522 134.330,184.786 134.330,184.948 134.288 C 185.109 134.245,184.977 134.211,184.654 134.211 C 184.331 134.211,184.199 134.245,184.361 134.288 " stroke="none" fill="#cc6c34" fill-rule="evenodd"></path><path id="path4" d="M241.006 11.470 C 241.006 11.506,241.265 11.566,241.582 11.603 C 241.898 11.640,242.120 11.610,242.075 11.537 C 241.994 11.406,241.006 11.344,241.006 11.470 M240.922 15.597 C 240.779 15.874,240.700 16.101,240.746 16.101 C 240.792 16.101,240.947 15.874,241.090 15.597 C 241.233 15.321,241.313 15.094,241.266 15.094 C 241.220 15.094,241.066 15.321,240.922 15.597 M125.444 32.411 C 125.855 32.849,126.213 33.208,126.240 33.208 C 126.366 33.208,126.233 33.057,125.493 32.362 L 124.696 31.614 125.444 32.411 M194.594 33.328 C 194.848 33.366,195.226 33.365,195.432 33.326 C 195.638 33.286,195.430 33.254,194.969 33.256 C 194.507 33.257,194.339 33.289,194.594 33.328 M201.386 33.326 C 201.594 33.366,201.896 33.365,202.056 33.323 C 202.217 33.281,202.046 33.248,201.677 33.250 C 201.308 33.252,201.177 33.286,201.386 33.326 M192.746 33.491 C 192.908 33.533,193.172 33.533,193.333 33.491 C 193.495 33.449,193.363 33.414,193.040 33.414 C 192.717 33.414,192.585 33.449,192.746 33.491 M128.295 35.094 C 128.706 35.532,129.065 35.891,129.092 35.891 C 129.217 35.891,129.084 35.740,128.344 35.045 L 127.547 34.298 128.295 35.094 M262.382 35.430 L 261.719 36.143 262.432 35.480 C 262.824 35.115,263.145 34.794,263.145 34.767 C 263.145 34.640,262.999 34.767,262.382 35.430 M179.864 38.113 L 179.371 38.658 179.916 38.166 C 180.424 37.707,180.538 37.568,180.409 37.568 C 180.380 37.568,180.135 37.813,179.864 38.113 M133.318 39.784 C 133.895 40.412,134.188 40.470,134.152 39.948 C 134.136 39.710,134.120 39.715,134.053 39.976 C 133.982 40.251,133.903 40.222,133.360 39.724 L 132.746 39.161 133.318 39.784 M257.518 39.958 L 256.855 40.671 257.568 40.008 C 257.960 39.643,258.281 39.323,258.281 39.295 C 258.281 39.168,258.135 39.295,257.518 39.958 M255.506 41.803 L 254.843 42.516 255.556 41.853 C 255.948 41.488,256.268 41.167,256.268 41.140 C 256.268 41.013,256.122 41.140,255.506 41.803 M252.655 44.486 L 251.992 45.199 252.704 44.536 C 253.096 44.172,253.417 43.851,253.417 43.823 C 253.417 43.697,253.271 43.823,252.655 44.486 M176.311 45.367 C 176.313 45.736,176.347 45.867,176.387 45.658 C 176.427 45.450,176.426 45.148,176.384 44.988 C 176.342 44.827,176.309 44.998,176.311 45.367 M250.642 46.331 L 249.979 47.044 250.692 46.381 C 251.084 46.016,251.405 45.696,251.405 45.668 C 251.405 45.541,251.259 45.668,250.642 46.331 M248.126 48.679 L 247.463 49.392 248.176 48.729 C 248.568 48.364,248.889 48.044,248.889 48.016 C 248.889 47.889,248.743 48.016,248.126 48.679 M133.500 50.029 L 133.582 51.572 133.633 50.162 C 133.660 49.387,133.623 48.692,133.550 48.619 C 133.477 48.545,133.454 49.180,133.500 50.029 M243.263 53.208 L 242.600 53.920 243.312 53.257 C 243.704 52.893,244.025 52.572,244.025 52.545 C 244.025 52.418,243.879 52.545,243.263 53.208 M179.958 54.927 C 180.552 55.526,181.076 56.017,181.122 56.017 C 181.169 56.017,180.720 55.526,180.126 54.927 C 179.532 54.327,179.008 53.836,178.961 53.836 C 178.915 53.836,179.364 54.327,179.958 54.927 M104.048 69.173 C 103.997 69.306,103.984 69.551,104.021 69.718 C 104.062 69.907,104.119 69.816,104.173 69.476 C 104.265 68.905,104.205 68.762,104.048 69.173 M116.017 69.385 C 116.224 69.425,116.564 69.425,116.771 69.385 C 116.979 69.345,116.809 69.312,116.394 69.312 C 115.979 69.312,115.809 69.345,116.017 69.385 M274.843 69.385 C 275.050 69.425,275.390 69.425,275.597 69.385 C 275.805 69.345,275.635 69.312,275.220 69.312 C 274.805 69.312,274.635 69.345,274.843 69.385 M118.283 69.554 C 118.538 69.593,118.916 69.592,119.122 69.552 C 119.328 69.512,119.119 69.481,118.658 69.482 C 118.197 69.483,118.028 69.516,118.283 69.554 M272.413 69.554 C 272.668 69.593,273.046 69.592,273.252 69.552 C 273.458 69.512,273.249 69.481,272.788 69.482 C 272.327 69.483,272.158 69.516,272.413 69.554 M120.964 69.722 C 121.218 69.760,121.633 69.760,121.887 69.722 C 122.140 69.683,121.933 69.652,121.426 69.652 C 120.918 69.652,120.711 69.683,120.964 69.722 M269.730 69.722 C 269.985 69.761,270.362 69.760,270.568 69.720 C 270.775 69.680,270.566 69.648,270.105 69.650 C 269.644 69.651,269.475 69.683,269.730 69.722 M123.396 69.888 C 123.604 69.928,123.943 69.928,124.151 69.888 C 124.358 69.848,124.189 69.815,123.774 69.815 C 123.358 69.815,123.189 69.848,123.396 69.888 M267.382 69.890 C 267.637 69.928,268.014 69.927,268.220 69.887 C 268.427 69.848,268.218 69.816,267.757 69.817 C 267.296 69.819,267.127 69.851,267.382 69.890 M143.732 78.071 C 144.045 78.394,144.338 78.658,144.384 78.658 C 144.431 78.658,144.212 78.394,143.899 78.071 C 143.586 77.748,143.293 77.484,143.247 77.484 C 143.200 77.484,143.419 77.748,143.732 78.071 M130.945 80.454 C 131.154 80.494,131.456 80.493,131.616 80.451 C 131.777 80.409,131.606 80.376,131.237 80.378 C 130.868 80.380,130.737 80.414,130.945 80.454 M129.100 80.622 C 129.309 80.662,129.611 80.660,129.771 80.618 C 129.932 80.576,129.761 80.544,129.392 80.545 C 129.023 80.547,128.892 80.582,129.100 80.622 M260.924 80.622 C 261.133 80.662,261.435 80.660,261.595 80.618 C 261.756 80.576,261.585 80.544,261.216 80.545 C 260.847 80.547,260.716 80.582,260.924 80.622 M127.505 80.786 C 127.667 80.829,127.931 80.829,128.092 80.786 C 128.254 80.744,128.122 80.710,127.799 80.710 C 127.476 80.710,127.344 80.744,127.505 80.786 M262.516 80.786 C 262.677 80.829,262.941 80.829,263.103 80.786 C 263.264 80.744,263.132 80.710,262.809 80.710 C 262.486 80.710,262.354 80.744,262.516 80.786 M112.914 82.128 C 113.075 82.170,113.340 82.170,113.501 82.128 C 113.662 82.086,113.530 82.051,113.208 82.051 C 112.885 82.051,112.753 82.086,112.914 82.128 M276.857 82.131 C 277.066 82.171,277.368 82.170,277.528 82.128 C 277.689 82.086,277.518 82.053,277.149 82.055 C 276.780 82.057,276.649 82.091,276.857 82.131 M236.646 84.109 C 236.959 84.432,237.252 84.696,237.299 84.696 C 237.345 84.696,237.126 84.432,236.813 84.109 C 236.500 83.786,236.207 83.522,236.161 83.522 C 236.114 83.522,236.333 83.786,236.646 84.109 M111.237 85.650 C 111.398 85.692,111.662 85.692,111.824 85.650 C 111.985 85.608,111.853 85.574,111.530 85.574 C 111.208 85.574,111.075 85.608,111.237 85.650 M279.623 85.650 C 279.784 85.692,280.048 85.692,280.210 85.650 C 280.371 85.608,280.239 85.574,279.916 85.574 C 279.593 85.574,279.461 85.608,279.623 85.650 M127.338 87.160 C 127.499 87.202,127.763 87.202,127.925 87.160 C 128.086 87.117,127.954 87.083,127.631 87.083 C 127.308 87.083,127.176 87.117,127.338 87.160 M263.690 87.160 C 263.851 87.202,264.115 87.202,264.277 87.160 C 264.438 87.117,264.306 87.083,263.983 87.083 C 263.660 87.083,263.528 87.117,263.690 87.160 M240.000 87.432 C 240.000 87.461,240.245 87.706,240.545 87.977 L 241.090 88.470 240.598 87.925 C 240.138 87.416,240.000 87.302,240.000 87.432 M261.174 97.726 C 261.335 97.768,261.600 97.768,261.761 97.726 C 261.922 97.683,261.790 97.649,261.468 97.649 C 261.145 97.649,261.013 97.683,261.174 97.726 M125.998 97.898 C 126.253 97.937,126.630 97.936,126.837 97.896 C 127.043 97.856,126.834 97.824,126.373 97.826 C 125.912 97.827,125.743 97.860,125.998 97.898 M263.774 97.896 C 263.981 97.936,264.321 97.936,264.528 97.896 C 264.736 97.856,264.566 97.823,264.151 97.823 C 263.736 97.823,263.566 97.856,263.774 97.896 M123.650 98.066 C 123.905 98.104,124.282 98.103,124.489 98.064 C 124.695 98.024,124.486 97.992,124.025 97.993 C 123.564 97.995,123.395 98.027,123.650 98.066 M266.208 98.066 C 266.463 98.104,266.840 98.103,267.046 98.064 C 267.253 98.024,267.044 97.992,266.583 97.993 C 266.122 97.995,265.953 98.027,266.208 98.066 M120.967 98.234 C 121.222 98.272,121.599 98.271,121.805 98.231 C 122.012 98.191,121.803 98.160,121.342 98.161 C 120.881 98.162,120.712 98.195,120.967 98.234 M268.891 98.234 C 269.146 98.272,269.523 98.271,269.730 98.231 C 269.936 98.191,269.727 98.160,269.266 98.161 C 268.805 98.162,268.636 98.195,268.891 98.234 M118.700 98.399 C 118.908 98.439,119.247 98.439,119.455 98.399 C 119.662 98.359,119.493 98.327,119.078 98.327 C 118.662 98.327,118.493 98.359,118.700 98.399 M271.153 98.399 C 271.361 98.439,271.700 98.439,271.908 98.399 C 272.115 98.359,271.945 98.327,271.530 98.327 C 271.115 98.327,270.945 98.359,271.153 98.399 M104.864 99.235 C 105.025 99.277,105.289 99.277,105.451 99.235 C 105.612 99.193,105.480 99.158,105.157 99.158 C 104.834 99.158,104.702 99.193,104.864 99.235 M250.102 109.518 C 250.102 109.841,250.136 109.973,250.179 109.811 C 250.221 109.650,250.221 109.386,250.179 109.224 C 250.136 109.063,250.102 109.195,250.102 109.518 M250.273 111.279 C 250.275 111.648,250.309 111.779,250.349 111.570 C 250.389 111.362,250.388 111.060,250.346 110.900 C 250.304 110.739,250.271 110.910,250.273 111.279 M148.505 113.515 C 148.584 113.654,148.452 113.939,148.156 114.269 L 147.681 114.801 148.258 114.258 C 148.739 113.807,148.797 113.680,148.607 113.504 C 148.422 113.332,148.403 113.334,148.505 113.515 M145.822 116.436 L 144.990 117.317 145.870 116.484 C 146.354 116.027,146.751 115.630,146.751 115.604 C 146.751 115.479,146.595 115.618,145.822 116.436 M143.555 118.532 L 142.977 119.161 143.606 118.583 C 144.191 118.045,144.312 117.904,144.184 117.904 C 144.156 117.904,143.873 118.187,143.555 118.532 M209.850 119.245 C 209.850 119.568,209.885 119.700,209.927 119.539 C 209.969 119.377,209.969 119.113,209.927 118.952 C 209.885 118.790,209.850 118.922,209.850 119.245 M140.958 120.964 L 140.126 121.845 141.006 121.013 C 141.824 120.239,141.964 120.084,141.839 120.084 C 141.812 120.084,141.416 120.480,140.958 120.964 M250.109 122.767 C 250.109 123.182,250.141 123.352,250.181 123.145 C 250.221 122.937,250.221 122.597,250.181 122.390 C 250.141 122.182,250.109 122.352,250.109 122.767 M251.824 122.767 C 252.184 123.136,252.517 123.438,252.563 123.438 C 252.609 123.438,252.352 123.136,251.992 122.767 C 251.631 122.398,251.299 122.096,251.253 122.096 C 251.207 122.096,251.464 122.398,251.824 122.767 M138.691 123.061 L 138.113 123.690 138.742 123.112 C 139.088 122.794,139.371 122.511,139.371 122.483 C 139.371 122.355,139.229 122.475,138.691 123.061 M254.584 125.325 C 255.279 126.065,255.430 126.199,255.430 126.073 C 255.430 126.046,255.071 125.687,254.633 125.276 L 253.836 124.528 254.584 125.325 M136.093 125.493 L 135.430 126.205 136.143 125.542 C 136.535 125.178,136.855 124.857,136.855 124.830 C 136.855 124.703,136.709 124.830,136.093 125.493 M256.855 127.463 C 257.216 127.832,257.548 128.134,257.594 128.134 C 257.640 128.134,257.383 127.832,257.023 127.463 C 256.663 127.094,256.330 126.792,256.284 126.792 C 256.238 126.792,256.495 127.094,256.855 127.463 M133.827 127.589 L 133.249 128.218 133.878 127.640 C 134.464 127.102,134.584 126.960,134.456 126.960 C 134.428 126.960,134.145 127.243,133.827 127.589 M206.365 128.008 L 205.702 128.721 206.415 128.058 C 207.078 127.442,207.205 127.296,207.078 127.296 C 207.051 127.296,206.730 127.616,206.365 128.008 M131.229 130.021 L 130.566 130.734 131.279 130.071 C 131.942 129.454,132.069 129.308,131.942 129.308 C 131.914 129.308,131.594 129.629,131.229 130.021 M259.616 130.021 C 260.311 130.761,260.461 130.895,260.461 130.769 C 260.461 130.742,260.103 130.383,259.665 129.972 L 258.868 129.224 259.616 130.021 M261.964 132.201 C 262.659 132.942,262.809 133.075,262.809 132.949 C 262.809 132.922,262.451 132.564,262.013 132.152 L 261.216 131.405 261.964 132.201 M128.878 132.201 L 128.386 132.746 128.931 132.254 C 129.231 131.983,129.476 131.738,129.476 131.709 C 129.476 131.579,129.338 131.693,128.878 132.201 M126.533 134.382 L 125.870 135.094 126.583 134.431 C 127.246 133.815,127.373 133.669,127.246 133.669 C 127.218 133.669,126.898 133.990,126.533 134.382 M182.683 134.120 C 182.845 134.162,183.109 134.162,183.270 134.120 C 183.432 134.078,183.300 134.043,182.977 134.043 C 182.654 134.043,182.522 134.078,182.683 134.120 M190.231 134.120 C 190.392 134.162,190.656 134.162,190.818 134.120 C 190.979 134.078,190.847 134.043,190.524 134.043 C 190.201 134.043,190.069 134.078,190.231 134.120 M185.954 134.296 C 186.438 134.329,187.231 134.329,187.715 134.296 C 188.199 134.262,187.803 134.234,186.834 134.234 C 185.866 134.234,185.470 134.262,185.954 134.296 M147.327 139.078 L 146.834 139.623 147.379 139.130 C 147.679 138.859,147.925 138.614,147.925 138.585 C 147.925 138.455,147.786 138.569,147.327 139.078 M251.740 146.132 C 251.740 146.161,251.985 146.406,252.285 146.677 L 252.830 147.170 252.338 146.625 C 251.878 146.117,251.740 146.003,251.740 146.132 M138.270 146.960 L 137.778 147.505 138.323 147.013 C 138.623 146.742,138.868 146.496,138.868 146.468 C 138.868 146.338,138.730 146.452,138.270 146.960 M254.298 148.208 C 254.459 148.250,254.723 148.250,254.885 148.208 C 255.046 148.166,254.914 148.131,254.591 148.131 C 254.268 148.131,254.136 148.166,254.298 148.208 " stroke="none" fill="#cc7c34" fill-rule="evenodd"></path></g></svg>