<svg id="svg" version="1.1" xmlns="http://www.w3.org/2000/svg" xmlns:xlink="http://www.w3.org/1999/xlink" width="400" height="328.7319422150883" viewBox="0, 0, 400,328.7319422150883"><g id="svgg"><path id="path0" d="M62.600 18.938 L 69.181 25.334 193.678 25.347 L 318.174 25.361 326.342 19.078 C 330.835 15.622,334.510 12.733,334.510 12.657 C 334.510 12.582,271.850 12.525,195.265 12.531 L 56.019 12.542 62.600 18.938 M335.072 25.844 L 328.732 32.365 328.732 48.578 L 328.732 64.791 335.072 70.903 L 341.413 77.015 341.496 62.585 C 341.542 54.648,341.542 41.667,341.496 33.739 L 341.413 19.324 335.072 25.844 M203.531 161.316 L 203.531 292.610 209.952 286.196 L 216.372 279.781 216.372 161.316 L 216.372 42.851 209.952 36.437 L 203.531 30.022 203.531 161.316 M243.909 285.743 L 237.578 292.295 237.585 297.592 L 237.592 302.889 243.916 308.779 L 250.241 314.669 250.326 305.809 C 250.373 300.937,250.373 292.954,250.326 288.071 L 250.241 279.191 243.909 285.743 " stroke="none" fill="#fbfbfb" fill-rule="evenodd"></path><path id="path1" d="M43.660 44.302 L 43.660 88.604 74.157 88.604 L 104.655 88.604 104.655 71.910 L 104.655 55.217 136.597 55.217 L 168.539 55.217 168.539 160.835 L 168.539 266.453 151.525 266.453 L 134.510 266.453 134.510 296.790 L 134.510 327.127 198.716 327.127 L 262.921 327.127 262.921 296.790 L 262.921 266.453 245.907 266.453 L 228.892 266.453 228.892 160.835 L 228.892 55.217 260.835 55.217 L 292.777 55.217 292.777 71.910 L 292.777 88.604 323.274 88.604 L 353.772 88.604 353.772 44.302 L 353.772 0.000 198.716 0.000 L 43.660 0.000 43.660 44.302 M334.831 12.499 C 334.831 12.664,331.059 15.698,326.448 19.241 L 318.065 25.682 193.678 25.682 L 69.290 25.682 62.576 19.181 C 58.884 15.606,55.862 12.572,55.861 12.440 C 55.860 12.307,118.628 12.199,195.345 12.199 C 281.641 12.199,334.831 12.313,334.831 12.499 M341.573 48.352 L 341.573 77.443 335.152 71.268 L 328.732 65.093 328.732 48.540 L 328.732 31.987 334.912 25.663 C 338.311 22.184,341.200 19.321,341.332 19.300 C 341.465 19.279,341.573 32.352,341.573 48.352 M216.372 161.316 L 216.372 280.102 209.952 286.517 L 203.531 292.931 203.531 161.316 L 203.531 29.701 209.952 36.116 L 216.372 42.530 216.372 161.316 M44.428 107.089 C 44.535 107.368,44.623 113.724,44.623 121.214 L 44.623 134.831 48.513 134.831 C 52.064 134.831,52.388 134.880,52.241 135.393 C 52.153 135.702,43.887 154.807,33.874 177.849 C 23.861 200.891,15.594 219.924,15.504 220.144 C 15.380 220.449,13.537 220.546,7.831 220.546 L 0.321 220.546 0.321 234.510 L 0.321 248.475 27.448 248.475 L 54.575 248.475 54.575 234.510 L 54.575 220.546 50.701 220.546 C 47.030 220.546,46.837 220.514,47.022 219.931 C 47.129 219.593,48.420 216.450,49.890 212.948 L 52.563 206.581 74.809 206.581 L 97.056 206.581 99.892 213.285 C 101.452 216.973,102.729 220.115,102.729 220.268 C 102.729 220.421,100.995 220.546,98.876 220.546 L 95.024 220.546 95.024 234.350 L 95.024 248.154 122.311 248.154 L 149.599 248.154 149.599 234.195 L 149.599 220.236 141.881 220.150 L 134.164 220.064 115.717 177.555 C 105.572 154.174,97.271 134.997,97.271 134.938 C 97.271 134.879,98.860 134.831,100.803 134.831 L 104.334 134.831 104.334 120.706 L 104.334 106.581 74.283 106.581 C 47.013 106.581,44.251 106.628,44.428 107.089 M249.117 121.346 L 249.117 135.474 254.254 135.474 L 259.390 135.474 259.390 177.849 L 259.390 220.225 254.093 220.225 L 248.796 220.225 248.796 234.350 L 248.796 248.475 273.997 248.475 L 299.197 248.475 299.197 234.350 L 299.197 220.225 293.740 220.225 L 288.283 220.225 288.284 190.449 L 288.286 160.674 305.860 196.869 C 315.526 216.777,323.544 233.029,323.677 232.985 C 323.861 232.924,348.003 183.547,357.462 163.884 L 358.852 160.995 358.880 190.610 L 358.909 220.225 353.612 220.225 L 348.315 220.225 348.315 234.350 L 348.315 248.475 373.515 248.475 L 398.716 248.475 398.716 234.350 L 398.716 220.225 393.419 220.225 L 388.122 220.225 388.122 177.849 L 388.122 135.474 393.419 135.474 L 398.716 135.474 398.716 121.346 L 398.716 107.219 375.721 107.301 L 352.727 107.384 338.976 136.116 C 331.414 151.918,324.817 165.692,324.318 166.724 L 323.410 168.601 308.747 137.992 L 294.084 107.384 271.601 107.301 L 249.117 107.219 249.117 121.346 M80.065 167.095 L 85.005 178.331 79.902 178.419 C 77.096 178.467,72.511 178.467,69.714 178.419 L 64.628 178.331 69.064 168.218 C 74.285 156.318,74.850 155.112,75.007 155.538 C 75.072 155.714,77.348 160.915,80.065 167.095 M250.722 296.950 C 250.722 306.838,250.609 314.928,250.471 314.928 C 250.333 314.928,247.299 312.177,243.729 308.815 L 237.239 302.702 237.239 297.543 L 237.239 292.384 243.702 285.679 C 247.256 281.990,250.290 278.973,250.443 278.973 C 250.598 278.973,250.722 286.982,250.722 296.950 " stroke="none" fill="#530404" fill-rule="evenodd"></path><path id="path2" d="M55.859 12.449 C 55.859 12.587,56.834 13.634,58.026 14.777 L 60.193 16.854 58.116 14.687 L 56.039 12.521 195.515 12.440 L 334.992 12.359 195.425 12.279 C 118.664 12.235,55.859 12.312,55.859 12.449 M68.659 25.120 C 69.077 25.654,75.360 25.678,193.699 25.602 L 318.299 25.522 193.772 25.441 C 94.807 25.377,69.141 25.278,68.732 24.959 C 68.277 24.604,68.268 24.623,68.659 25.120 M330.326 30.417 L 328.571 32.263 330.417 30.509 C 332.132 28.878,332.410 28.571,332.172 28.571 C 332.122 28.571,331.291 29.402,330.326 30.417 M333.387 69.663 C 334.256 70.546,335.040 71.268,335.128 71.268 C 335.217 71.268,334.577 70.546,333.708 69.663 C 332.838 68.780,332.055 68.058,331.966 68.058 C 331.878 68.058,332.517 68.780,333.387 69.663 M250.551 296.950 C 250.551 306.926,250.592 311.007,250.642 306.019 C 250.692 301.031,250.692 292.869,250.642 287.881 C 250.592 282.893,250.551 286.974,250.551 296.950 M245.413 283.868 L 243.820 285.554 245.506 283.961 C 247.072 282.480,247.338 282.183,247.099 282.183 C 247.048 282.183,246.289 282.941,245.413 283.868 M205.931 290.289 L 203.371 292.937 206.019 290.377 C 208.479 287.998,208.814 287.640,208.580 287.640 C 208.532 287.640,207.340 288.832,205.931 290.289 M237.762 291.768 C 237.294 292.285,237.236 293.060,237.320 297.627 L 237.417 302.889 237.488 297.618 C 237.548 293.231,237.649 292.247,238.091 291.759 C 238.384 291.436,238.551 291.172,238.462 291.172 C 238.374 291.172,238.059 291.440,237.762 291.768 M240.770 306.039 C 240.770 306.095,241.240 306.564,241.814 307.083 L 242.857 308.026 241.914 306.982 C 241.035 306.010,240.770 305.791,240.770 306.039 M245.907 310.855 C 245.907 310.910,246.376 311.380,246.950 311.898 L 247.994 312.841 247.051 311.798 C 246.172 310.825,245.907 310.607,245.907 310.855 " stroke="none" fill="#743434" fill-rule="evenodd"></path><path id="path3" d="M63.884 20.385 C 64.843 21.356,65.700 22.151,65.789 22.151 C 65.877 22.151,65.165 21.356,64.205 20.385 C 63.246 19.414,62.390 18.620,62.301 18.620 C 62.213 18.620,62.925 19.414,63.884 20.385 M336.106 24.639 L 334.029 26.806 336.196 24.728 C 338.209 22.799,338.510 22.472,338.273 22.472 C 338.224 22.472,337.249 23.447,336.106 24.639 M212.520 39.005 C 214.545 41.035,216.274 42.697,216.362 42.697 C 216.450 42.697,214.866 41.035,212.841 39.005 C 210.816 36.974,209.088 35.313,208.999 35.313 C 208.911 35.313,210.495 36.974,212.520 39.005 M337.400 73.355 C 337.999 73.973,338.561 74.478,338.649 74.478 C 338.738 74.478,338.320 73.973,337.721 73.355 C 337.122 72.737,336.559 72.231,336.471 72.231 C 336.383 72.231,336.801 72.737,337.400 73.355 M249.257 280.016 L 248.315 281.059 249.358 280.117 C 249.932 279.598,250.401 279.128,250.401 279.073 C 250.401 278.825,250.136 279.044,249.257 280.016 M214.767 281.380 C 213.987 282.175,213.422 282.825,213.510 282.825 C 213.598 282.825,214.308 282.175,215.088 281.380 C 215.868 280.586,216.434 279.936,216.346 279.936 C 216.257 279.936,215.547 280.586,214.767 281.380 M241.413 288.122 C 240.633 288.917,240.067 289.567,240.155 289.567 C 240.244 289.567,240.954 288.917,241.734 288.122 C 242.513 287.327,243.079 286.677,242.991 286.677 C 242.903 286.677,242.192 287.327,241.413 288.122 " stroke="none" fill="#b28c8c" fill-rule="evenodd"></path><path id="path4" d="M66.934 23.435 C 67.624 24.141,68.260 24.719,68.349 24.719 C 68.437 24.719,67.945 24.141,67.255 23.435 C 66.566 22.729,65.929 22.151,65.841 22.151 C 65.753 22.151,66.245 22.729,66.934 23.435 M333.046 27.689 L 332.103 28.732 333.146 27.789 C 334.119 26.910,334.337 26.645,334.089 26.645 C 334.034 26.645,333.564 27.115,333.046 27.689 M204.173 30.586 C 204.173 30.634,205.293 31.754,206.661 33.074 L 209.149 35.474 206.750 32.986 C 204.521 30.675,204.173 30.351,204.173 30.586 M210.915 285.233 C 209.600 286.557,208.596 287.640,208.684 287.640 C 208.772 287.640,209.921 286.557,211.236 285.233 C 212.551 283.909,213.555 282.825,213.467 282.825 C 213.379 282.825,212.230 283.909,210.915 285.233 " stroke="none" fill="#a47c7c" fill-rule="evenodd"></path></g></svg>