<svg id="svg" version="1.1" xmlns="http://www.w3.org/2000/svg" xmlns:xlink="http://www.w3.org/1999/xlink" width="400" height="78.03468208092485" viewBox="0, 0, 400,78.03468208092485"><g id="svgg"><path id="path0" d="M74.833 2.333 C 74.833 2.644,74.722 2.667,73.184 2.667 C 71.873 2.667,71.516 2.718,71.440 2.917 C 71.372 3.093,71.097 3.167,70.505 3.167 C 69.778 3.167,69.667 3.211,69.667 3.500 C 69.667 3.770,69.556 3.833,69.083 3.833 C 68.676 3.833,68.500 3.909,68.500 4.083 C 68.500 4.271,68.298 4.333,67.686 4.333 C 67.012 4.333,66.857 4.391,66.785 4.667 C 66.737 4.850,66.578 5.000,66.432 5.000 C 66.286 5.000,66.167 5.112,66.167 5.250 C 66.167 5.417,65.999 5.500,65.661 5.500 C 65.366 5.500,65.116 5.604,65.060 5.750 C 65.008 5.888,64.860 6.000,64.732 6.000 C 64.604 6.000,64.500 6.150,64.500 6.333 C 64.500 6.556,64.389 6.667,64.167 6.667 C 63.981 6.667,63.833 6.778,63.833 6.917 C 63.833 7.056,63.685 7.167,63.500 7.167 C 63.317 7.167,63.017 7.317,62.833 7.500 C 62.650 7.683,62.425 7.833,62.333 7.833 C 62.242 7.833,62.167 8.096,62.167 8.417 C 62.167 8.889,62.103 9.000,61.833 9.000 C 61.648 9.000,61.500 9.111,61.500 9.250 C 61.500 9.387,61.387 9.500,61.250 9.500 C 61.112 9.500,61.000 9.641,61.000 9.814 C 61.000 9.988,60.851 10.167,60.667 10.215 C 60.424 10.278,60.333 10.442,60.333 10.818 C 60.333 11.165,60.252 11.333,60.083 11.333 C 59.946 11.333,59.833 11.446,59.833 11.583 C 59.833 11.721,59.721 11.833,59.583 11.833 C 59.428 11.833,59.333 11.991,59.333 12.252 C 59.333 12.482,59.183 12.798,59.000 12.955 C 58.763 13.158,58.667 13.447,58.667 13.954 C 58.667 14.476,58.600 14.667,58.417 14.667 C 58.225 14.667,58.167 14.880,58.167 15.583 C 58.167 16.389,58.126 16.500,57.833 16.500 C 57.544 16.500,57.500 16.611,57.500 17.333 C 57.500 17.963,57.439 18.167,57.250 18.167 C 57.046 18.167,57.000 18.444,57.000 19.667 C 57.000 21.056,56.975 21.167,56.667 21.167 C 56.344 21.167,56.333 21.278,56.333 24.583 C 56.333 27.509,56.297 28.000,56.083 28.000 C 55.875 28.000,55.833 28.333,55.833 30.000 C 55.833 31.667,55.875 32.000,56.083 32.000 C 56.297 32.000,56.333 32.465,56.333 35.182 C 56.333 38.224,56.348 38.368,56.667 38.452 C 56.972 38.531,57.000 38.679,57.000 40.186 C 57.000 41.539,57.045 41.833,57.250 41.833 C 57.440 41.833,57.500 42.039,57.500 42.682 C 57.500 43.391,57.555 43.546,57.833 43.618 C 58.109 43.691,58.167 43.846,58.167 44.519 C 58.167 45.132,58.229 45.333,58.417 45.333 C 58.604 45.333,58.667 45.533,58.667 46.127 C 58.667 46.739,58.743 46.967,59.000 47.128 C 59.188 47.246,59.333 47.517,59.333 47.751 C 59.333 48.009,59.428 48.167,59.583 48.167 C 59.758 48.167,59.833 48.343,59.833 48.750 C 59.833 49.157,59.909 49.333,60.083 49.333 C 60.252 49.333,60.333 49.502,60.333 49.849 C 60.333 50.224,60.424 50.388,60.667 50.452 C 60.917 50.517,61.000 50.679,61.000 51.103 C 61.000 51.472,61.080 51.667,61.231 51.667 C 61.357 51.667,61.500 51.817,61.548 52.000 C 61.596 52.183,61.755 52.333,61.901 52.333 C 62.072 52.333,62.167 52.479,62.167 52.741 C 62.167 53.166,62.814 54.000,63.144 54.000 C 63.248 54.000,63.333 54.115,63.333 54.255 C 63.333 54.396,63.446 54.554,63.583 54.606 C 63.721 54.659,63.833 54.807,63.833 54.934 C 63.833 55.062,63.983 55.167,64.167 55.167 C 64.389 55.167,64.500 55.278,64.500 55.500 C 64.500 55.685,64.611 55.833,64.750 55.833 C 64.887 55.833,65.000 55.946,65.000 56.083 C 65.000 56.222,65.148 56.333,65.333 56.333 C 65.519 56.333,65.667 56.444,65.667 56.583 C 65.667 56.721,65.770 56.833,65.897 56.833 C 66.024 56.833,66.167 56.983,66.215 57.167 C 66.278 57.409,66.442 57.500,66.818 57.500 C 67.165 57.500,67.333 57.582,67.333 57.750 C 67.333 57.887,67.475 58.000,67.647 58.000 C 67.821 58.000,68.000 58.149,68.048 58.333 C 68.112 58.576,68.276 58.667,68.651 58.667 C 68.998 58.667,69.167 58.748,69.167 58.917 C 69.167 59.082,69.332 59.167,69.655 59.167 C 69.998 59.167,70.176 59.266,70.250 59.500 C 70.324 59.735,70.502 59.833,70.850 59.833 C 71.135 59.833,71.384 59.939,71.440 60.083 C 71.506 60.257,71.778 60.333,72.332 60.333 C 72.988 60.333,73.143 60.392,73.215 60.667 C 73.291 60.957,73.442 61.000,74.401 61.000 C 75.267 61.000,75.500 61.053,75.500 61.250 C 75.500 61.469,76.472 61.500,83.250 61.500 C 90.028 61.500,91.000 61.469,91.000 61.250 C 91.000 61.047,91.270 61.000,92.432 61.000 C 93.724 61.000,93.873 60.967,93.952 60.667 C 94.027 60.377,94.179 60.333,95.103 60.333 C 95.920 60.333,96.167 60.277,96.167 60.092 C 96.167 59.918,96.412 59.837,97.042 59.800 L 97.917 59.750 97.962 56.875 L 98.008 54.000 97.421 54.000 C 96.944 54.000,96.833 54.063,96.833 54.333 C 96.833 54.622,96.722 54.667,96.000 54.667 C 95.370 54.667,95.167 54.728,95.167 54.917 C 95.167 55.109,94.954 55.167,94.250 55.167 C 93.444 55.167,93.333 55.207,93.333 55.500 C 93.333 55.807,93.222 55.833,91.917 55.833 C 90.769 55.833,90.500 55.881,90.500 56.083 C 90.500 56.299,89.935 56.333,86.417 56.333 C 82.898 56.333,82.333 56.299,82.333 56.083 C 82.333 55.885,82.093 55.833,81.167 55.833 C 80.111 55.833,80.000 55.802,80.000 55.500 C 80.000 55.211,79.889 55.167,79.167 55.167 C 78.537 55.167,78.333 55.106,78.333 54.917 C 78.333 54.744,78.160 54.667,77.769 54.667 C 77.346 54.667,77.184 54.584,77.118 54.333 C 77.055 54.091,76.891 54.000,76.516 54.000 C 76.168 54.000,76.000 53.918,76.000 53.750 C 76.000 53.575,75.824 53.500,75.417 53.500 C 74.944 53.500,74.833 53.437,74.833 53.167 C 74.833 52.981,74.722 52.833,74.583 52.833 C 74.446 52.833,74.333 52.721,74.333 52.583 C 74.333 52.444,74.185 52.333,74.000 52.333 C 73.778 52.333,73.667 52.222,73.667 52.000 C 73.667 51.815,73.556 51.667,73.417 51.667 C 73.279 51.667,73.167 51.554,73.167 51.417 C 73.167 51.278,73.019 51.167,72.833 51.167 C 72.611 51.167,72.500 51.056,72.500 50.833 C 72.500 50.648,72.389 50.500,72.250 50.500 C 72.112 50.500,72.000 50.387,72.000 50.250 C 72.000 50.111,71.852 50.000,71.667 50.000 C 71.444 50.000,71.333 49.889,71.333 49.667 C 71.333 49.481,71.222 49.333,71.083 49.333 C 70.917 49.333,70.833 49.167,70.833 48.833 C 70.833 48.444,70.759 48.333,70.500 48.333 C 70.278 48.333,70.167 48.222,70.167 48.000 C 70.167 47.815,70.056 47.667,69.917 47.667 C 69.742 47.667,69.667 47.491,69.667 47.083 C 69.667 46.611,69.603 46.500,69.333 46.500 C 69.063 46.500,69.000 46.389,69.000 45.917 C 69.000 45.509,68.925 45.333,68.750 45.333 C 68.561 45.333,68.500 45.130,68.500 44.500 C 68.500 43.870,68.439 43.667,68.250 43.667 C 68.065 43.667,68.000 43.472,68.000 42.918 C 68.000 42.350,67.920 42.119,67.667 41.961 C 67.391 41.789,67.333 41.573,67.333 40.710 C 67.333 39.894,67.279 39.667,67.083 39.667 C 66.878 39.667,66.833 39.369,66.833 37.984 C 66.833 36.442,66.806 36.295,66.500 36.215 C 66.065 36.101,65.964 22.833,66.397 22.833 C 66.719 22.833,66.828 22.301,66.831 20.726 C 66.833 19.675,66.890 19.347,67.083 19.273 C 67.270 19.202,67.333 18.905,67.333 18.108 C 67.333 17.179,67.377 17.027,67.667 16.952 C 67.939 16.880,68.000 16.724,68.000 16.099 C 68.000 15.530,68.064 15.333,68.250 15.333 C 68.425 15.333,68.500 15.157,68.500 14.750 C 68.500 14.343,68.575 14.167,68.750 14.167 C 68.925 14.167,69.000 13.991,69.000 13.583 C 69.000 13.111,69.063 13.000,69.333 13.000 C 69.556 13.000,69.667 12.889,69.667 12.667 C 69.667 12.481,69.778 12.333,69.917 12.333 C 70.081 12.333,70.167 12.169,70.167 11.853 C 70.167 11.512,70.264 11.347,70.500 11.285 C 70.683 11.237,70.833 11.078,70.833 10.932 C 70.833 10.786,70.946 10.667,71.083 10.667 C 71.221 10.667,71.333 10.563,71.333 10.436 C 71.333 10.309,71.483 10.166,71.667 10.118 C 71.850 10.070,72.000 9.912,72.000 9.766 C 72.000 9.620,72.112 9.500,72.250 9.500 C 72.387 9.500,72.500 9.387,72.500 9.250 C 72.500 9.075,72.676 9.000,73.083 9.000 C 73.556 9.000,73.667 8.937,73.667 8.667 C 73.667 8.397,73.778 8.333,74.250 8.333 C 74.657 8.333,74.833 8.258,74.833 8.083 C 74.833 7.898,75.027 7.833,75.577 7.833 C 76.151 7.833,76.362 7.757,76.500 7.500 C 76.657 7.207,76.849 7.167,78.089 7.167 C 79.232 7.167,79.500 7.119,79.500 6.917 C 79.500 6.742,79.676 6.667,80.083 6.667 C 80.491 6.667,80.667 6.742,80.667 6.917 C 80.667 7.123,80.972 7.167,82.417 7.167 C 84.056 7.167,84.167 7.188,84.167 7.500 C 84.167 7.789,84.278 7.833,85.000 7.833 C 85.630 7.833,85.833 7.894,85.833 8.083 C 85.833 8.256,86.007 8.333,86.397 8.333 C 86.821 8.333,86.983 8.416,87.048 8.667 C 87.112 8.909,87.276 9.000,87.651 9.000 C 87.998 9.000,88.167 9.082,88.167 9.250 C 88.167 9.387,88.279 9.500,88.417 9.500 C 88.554 9.500,88.667 9.620,88.667 9.766 C 88.667 9.912,88.817 10.070,89.000 10.118 C 89.183 10.166,89.333 10.309,89.333 10.436 C 89.333 10.563,89.448 10.667,89.589 10.667 C 89.729 10.667,89.887 10.779,89.940 10.917 C 89.992 11.054,90.140 11.167,90.268 11.167 C 90.396 11.167,90.500 11.317,90.500 11.500 C 90.500 11.683,90.604 11.833,90.731 11.833 C 90.857 11.833,91.000 11.983,91.048 12.167 C 91.096 12.350,91.255 12.500,91.401 12.500 C 91.585 12.500,91.667 12.654,91.667 13.000 C 91.667 13.333,91.750 13.500,91.917 13.500 C 92.056 13.500,92.167 13.648,92.167 13.833 C 92.167 14.056,92.278 14.167,92.500 14.167 C 92.770 14.167,92.833 14.278,92.833 14.750 C 92.833 15.157,92.909 15.333,93.083 15.333 C 93.269 15.333,93.333 15.530,93.333 16.099 C 93.333 16.724,93.394 16.880,93.667 16.952 C 93.941 17.024,94.000 17.179,94.000 17.835 C 94.000 18.389,94.076 18.660,94.250 18.727 C 94.388 18.780,94.500 18.938,94.500 19.078 C 94.500 19.291,94.790 19.333,96.250 19.333 L 98.000 19.333 98.000 16.234 C 98.000 13.276,97.985 13.132,97.667 13.048 C 97.344 12.964,97.333 12.821,97.333 8.647 L 97.333 4.333 96.500 4.333 C 95.870 4.333,95.667 4.272,95.667 4.083 C 95.667 3.885,95.426 3.833,94.500 3.833 C 93.444 3.833,93.333 3.802,93.333 3.500 C 93.333 3.193,93.222 3.167,91.917 3.167 C 90.769 3.167,90.500 3.119,90.500 2.917 C 90.500 2.708,90.157 2.667,88.417 2.667 C 86.444 2.667,86.333 2.649,86.333 2.333 C 86.333 2.006,86.222 2.000,80.583 2.000 C 74.944 2.000,74.833 2.006,74.833 2.333 M125.715 2.333 C 125.637 2.633,125.488 2.667,124.231 2.667 C 123.100 2.667,122.833 2.714,122.833 2.917 C 122.833 3.106,122.630 3.167,122.000 3.167 C 121.278 3.167,121.167 3.211,121.167 3.500 C 121.167 3.793,121.056 3.833,120.250 3.833 C 119.546 3.833,119.333 3.891,119.333 4.083 C 119.333 4.246,119.171 4.333,118.870 4.333 C 118.614 4.333,118.280 4.482,118.122 4.667 C 117.965 4.850,117.684 5.000,117.496 5.000 C 117.309 5.000,117.113 5.112,117.060 5.250 C 117.008 5.388,116.860 5.500,116.732 5.500 C 116.604 5.500,116.500 5.612,116.500 5.750 C 116.500 5.888,116.380 6.000,116.234 6.000 C 116.088 6.000,115.930 6.150,115.882 6.333 C 115.821 6.566,115.654 6.667,115.332 6.667 C 114.936 6.667,114.855 6.750,114.761 7.250 C 114.695 7.599,114.554 7.833,114.409 7.833 C 114.276 7.833,114.167 7.946,114.167 8.083 C 114.167 8.221,114.054 8.333,113.917 8.333 C 113.779 8.333,113.667 8.475,113.667 8.647 C 113.667 8.821,113.518 9.000,113.333 9.048 C 113.091 9.112,113.000 9.276,113.000 9.651 C 113.000 9.998,112.918 10.167,112.750 10.167 C 112.577 10.167,112.500 10.340,112.500 10.731 C 112.500 11.154,112.417 11.316,112.167 11.382 C 111.876 11.458,111.833 11.609,111.833 12.568 C 111.833 13.433,111.780 13.667,111.583 13.667 C 111.369 13.667,111.333 14.186,111.333 17.339 C 111.333 20.449,111.372 21.025,111.583 21.106 C 111.767 21.177,111.833 21.467,111.833 22.200 C 111.833 23.058,111.880 23.210,112.167 23.285 C 112.417 23.351,112.500 23.512,112.500 23.936 C 112.500 24.326,112.577 24.500,112.750 24.500 C 112.918 24.500,113.000 24.668,113.000 25.016 C 113.000 25.391,113.091 25.555,113.333 25.618 C 113.518 25.667,113.667 25.846,113.667 26.019 C 113.667 26.192,113.779 26.333,113.917 26.333 C 114.054 26.333,114.167 26.446,114.167 26.583 C 114.167 26.721,114.270 26.833,114.397 26.833 C 114.524 26.833,114.667 26.983,114.715 27.167 C 114.763 27.350,114.922 27.500,115.068 27.500 C 115.214 27.500,115.333 27.613,115.333 27.750 C 115.333 27.887,115.437 28.000,115.564 28.000 C 115.691 28.000,115.834 28.150,115.882 28.333 C 115.930 28.517,116.088 28.667,116.234 28.667 C 116.380 28.667,116.500 28.779,116.500 28.917 C 116.500 29.054,116.594 29.167,116.710 29.167 C 116.825 29.167,117.013 29.317,117.128 29.500 C 117.246 29.688,117.517 29.833,117.751 29.833 C 118.009 29.833,118.167 29.928,118.167 30.083 C 118.167 30.222,118.315 30.333,118.500 30.333 C 118.685 30.333,118.833 30.444,118.833 30.583 C 118.833 30.758,119.009 30.833,119.417 30.833 C 119.889 30.833,120.000 30.897,120.000 31.167 C 120.000 31.350,120.104 31.500,120.232 31.500 C 120.360 31.500,120.508 31.612,120.560 31.750 C 120.615 31.893,120.864 32.000,121.142 32.000 C 121.488 32.000,121.653 32.096,121.715 32.333 C 121.778 32.576,121.942 32.667,122.318 32.667 C 122.665 32.667,122.833 32.748,122.833 32.917 C 122.833 33.091,123.009 33.167,123.417 33.167 C 123.889 33.167,124.000 33.230,124.000 33.500 C 124.000 33.770,124.111 33.833,124.583 33.833 C 124.991 33.833,125.167 33.909,125.167 34.083 C 125.167 34.258,125.343 34.333,125.750 34.333 C 126.222 34.333,126.333 34.397,126.333 34.667 C 126.333 34.937,126.444 35.000,126.917 35.000 C 127.324 35.000,127.500 35.075,127.500 35.250 C 127.500 35.425,127.676 35.500,128.083 35.500 C 128.556 35.500,128.667 35.563,128.667 35.833 C 128.667 36.103,128.778 36.167,129.250 36.167 C 129.657 36.167,129.833 36.242,129.833 36.417 C 129.833 36.554,129.946 36.667,130.083 36.667 C 130.221 36.667,130.333 36.771,130.333 36.898 C 130.333 37.031,130.583 37.176,130.917 37.239 C 131.266 37.305,131.500 37.446,131.500 37.591 C 131.500 37.757,131.684 37.833,132.083 37.833 C 132.506 37.833,132.667 37.907,132.667 38.099 C 132.667 38.245,132.817 38.404,133.000 38.452 C 133.183 38.500,133.333 38.643,133.333 38.769 C 133.333 38.915,133.519 39.000,133.833 39.000 C 134.167 39.000,134.333 39.083,134.333 39.250 C 134.333 39.389,134.481 39.500,134.667 39.500 C 134.889 39.500,135.000 39.611,135.000 39.833 C 135.000 40.019,135.111 40.167,135.250 40.167 C 135.387 40.167,135.500 40.279,135.500 40.417 C 135.500 40.556,135.648 40.667,135.833 40.667 C 136.056 40.667,136.167 40.778,136.167 41.000 C 136.167 41.185,136.278 41.333,136.417 41.333 C 136.554 41.333,136.667 41.446,136.667 41.583 C 136.667 41.722,136.815 41.833,137.000 41.833 C 137.270 41.833,137.333 41.944,137.333 42.417 C 137.333 42.824,137.409 43.000,137.583 43.000 C 137.722 43.000,137.833 43.148,137.833 43.333 C 137.833 43.556,137.944 43.667,138.167 43.667 C 138.466 43.667,138.500 43.778,138.500 44.755 C 138.500 45.569,138.563 45.868,138.750 45.940 C 138.904 45.999,139.000 46.252,139.000 46.601 C 139.000 46.993,138.923 47.167,138.750 47.167 C 138.554 47.167,138.500 47.397,138.500 48.239 C 138.500 49.164,138.454 49.325,138.167 49.417 C 137.932 49.491,137.833 49.669,137.833 50.016 C 137.833 50.302,137.728 50.551,137.583 50.606 C 137.441 50.661,137.333 50.910,137.333 51.184 C 137.333 51.515,137.250 51.667,137.068 51.667 C 136.922 51.667,136.763 51.817,136.715 52.000 C 136.667 52.183,136.524 52.333,136.397 52.333 C 136.270 52.333,136.167 52.405,136.167 52.492 C 136.167 52.699,135.366 53.500,135.159 53.500 C 135.072 53.500,135.000 53.604,135.000 53.731 C 135.000 53.857,134.850 54.000,134.667 54.048 C 134.483 54.096,134.333 54.255,134.333 54.401 C 134.333 54.583,134.181 54.667,133.851 54.667 C 133.576 54.667,133.328 54.774,133.273 54.917 C 133.217 55.063,132.967 55.167,132.672 55.167 C 132.278 55.167,132.167 55.240,132.167 55.500 C 132.167 55.793,132.056 55.833,131.250 55.833 C 130.546 55.833,130.333 55.891,130.333 56.083 C 130.333 56.297,129.870 56.333,127.167 56.333 C 124.463 56.333,124.000 56.297,124.000 56.083 C 124.000 55.885,123.759 55.833,122.833 55.833 C 121.778 55.833,121.667 55.802,121.667 55.500 C 121.667 55.230,121.556 55.167,121.083 55.167 C 120.676 55.167,120.500 55.091,120.500 54.917 C 120.500 54.742,120.324 54.667,119.917 54.667 C 119.444 54.667,119.333 54.603,119.333 54.333 C 119.333 54.150,119.229 54.000,119.101 54.000 C 118.973 54.000,118.826 53.887,118.773 53.750 C 118.717 53.604,118.467 53.500,118.172 53.500 C 117.778 53.500,117.667 53.427,117.667 53.167 C 117.667 52.944,117.556 52.833,117.333 52.833 C 117.148 52.833,117.000 52.722,117.000 52.583 C 117.000 52.446,116.888 52.333,116.750 52.333 C 116.582 52.333,116.500 52.165,116.500 51.818 C 116.500 51.442,116.409 51.278,116.167 51.215 C 115.982 51.167,115.833 50.988,115.833 50.814 C 115.833 50.641,115.721 50.500,115.583 50.500 C 115.415 50.500,115.333 50.332,115.333 49.984 C 115.333 49.609,115.243 49.445,115.000 49.382 C 114.724 49.309,114.667 49.154,114.667 48.481 C 114.667 47.868,114.605 47.667,114.417 47.667 C 114.242 47.667,114.167 47.491,114.167 47.083 L 114.167 46.500 112.417 46.500 L 110.667 46.500 110.667 50.833 C 110.667 55.056,110.675 55.167,111.000 55.167 C 111.319 55.167,111.333 55.278,111.333 57.750 L 111.333 60.333 112.750 60.333 C 114.056 60.333,114.167 60.359,114.167 60.667 C 114.167 60.981,114.278 61.000,116.167 61.000 C 117.833 61.000,118.167 61.042,118.167 61.250 C 118.167 61.464,118.665 61.500,121.647 61.500 C 124.988 61.500,125.131 61.513,125.215 61.833 C 125.361 62.393,128.000 62.297,128.000 61.732 C 128.000 61.543,128.535 61.500,130.917 61.500 C 133.398 61.500,133.833 61.463,133.833 61.250 C 133.833 61.053,134.067 61.000,134.932 61.000 C 135.891 61.000,136.042 60.957,136.118 60.667 C 136.191 60.391,136.346 60.333,137.019 60.333 C 137.632 60.333,137.833 60.271,137.833 60.083 C 137.833 59.909,138.009 59.833,138.417 59.833 C 138.889 59.833,139.000 59.770,139.000 59.500 C 139.000 59.230,139.111 59.167,139.583 59.167 C 139.991 59.167,140.167 59.091,140.167 58.917 C 140.167 58.742,140.343 58.667,140.750 58.667 C 141.222 58.667,141.333 58.603,141.333 58.333 C 141.333 58.063,141.444 58.000,141.917 58.000 C 142.324 58.000,142.500 57.925,142.500 57.750 C 142.500 57.612,142.612 57.500,142.750 57.500 C 142.889 57.500,143.000 57.352,143.000 57.167 C 143.000 56.944,143.111 56.833,143.333 56.833 C 143.519 56.833,143.667 56.722,143.667 56.583 C 143.667 56.446,143.779 56.333,143.917 56.333 C 144.054 56.333,144.167 56.221,144.167 56.083 C 144.167 55.944,144.315 55.833,144.500 55.833 C 144.722 55.833,144.833 55.722,144.833 55.500 C 144.833 55.315,144.944 55.167,145.083 55.167 C 145.221 55.167,145.333 55.063,145.333 54.936 C 145.333 54.809,145.483 54.666,145.667 54.618 C 145.909 54.555,146.000 54.391,146.000 54.016 C 146.000 53.668,146.082 53.500,146.250 53.500 C 146.389 53.500,146.500 53.352,146.500 53.167 C 146.500 52.983,146.604 52.833,146.732 52.833 C 147.023 52.833,147.167 52.471,147.167 51.736 C 147.167 51.341,147.243 51.167,147.417 51.167 C 147.608 51.167,147.667 50.956,147.667 50.269 C 147.667 49.512,147.719 49.359,148.000 49.285 C 148.322 49.201,148.333 49.058,148.333 45.100 C 148.333 41.183,148.319 40.994,148.000 40.795 C 147.743 40.634,147.667 40.406,147.667 39.793 C 147.667 39.199,147.604 39.000,147.417 39.000 C 147.248 39.000,147.167 38.832,147.167 38.484 C 147.167 38.109,147.076 37.945,146.833 37.882 C 146.583 37.816,146.500 37.654,146.500 37.231 C 146.500 36.840,146.423 36.667,146.250 36.667 C 146.095 36.667,146.000 36.509,146.000 36.251 C 146.000 36.017,145.855 35.746,145.667 35.628 C 145.483 35.513,145.333 35.325,145.333 35.210 C 145.333 35.094,145.221 35.000,145.083 35.000 C 144.946 35.000,144.833 34.880,144.833 34.734 C 144.833 34.588,144.683 34.430,144.500 34.382 C 144.317 34.334,144.167 34.191,144.167 34.064 C 144.167 33.937,144.054 33.833,143.917 33.833 C 143.779 33.833,143.667 33.714,143.667 33.568 C 143.667 33.422,143.517 33.263,143.333 33.215 C 143.150 33.167,143.000 33.024,143.000 32.897 C 143.000 32.770,142.887 32.667,142.750 32.667 C 142.612 32.667,142.500 32.563,142.500 32.435 C 142.500 32.303,142.251 32.157,141.917 32.094 C 141.567 32.029,141.333 31.888,141.333 31.742 C 141.333 31.609,141.229 31.500,141.101 31.500 C 140.973 31.500,140.830 31.398,140.782 31.274 C 140.734 31.149,140.464 31.001,140.181 30.945 C 139.876 30.884,139.667 30.738,139.667 30.587 C 139.667 30.444,139.521 30.333,139.333 30.333 C 139.148 30.333,139.000 30.222,139.000 30.083 C 139.000 29.909,138.824 29.833,138.417 29.833 C 137.944 29.833,137.833 29.770,137.833 29.500 C 137.833 29.230,137.722 29.167,137.250 29.167 C 136.843 29.167,136.667 29.091,136.667 28.917 C 136.667 28.779,136.559 28.667,136.428 28.667 C 136.297 28.667,136.142 28.517,136.083 28.333 C 136.010 28.104,135.831 28.000,135.507 28.000 C 135.242 28.000,134.994 27.891,134.940 27.750 C 134.885 27.607,134.636 27.500,134.358 27.500 C 134.012 27.500,133.847 27.404,133.785 27.167 C 133.722 26.927,133.558 26.833,133.200 26.833 C 132.911 26.833,132.662 26.728,132.606 26.583 C 132.550 26.437,132.301 26.333,132.005 26.333 C 131.684 26.333,131.500 26.249,131.500 26.101 C 131.500 25.846,131.150 25.667,130.653 25.667 C 130.477 25.667,130.333 25.554,130.333 25.417 C 130.333 25.242,130.157 25.167,129.750 25.167 C 129.363 25.167,129.167 25.089,129.167 24.934 C 129.167 24.680,128.816 24.500,128.320 24.500 C 128.144 24.500,128.000 24.387,128.000 24.250 C 128.000 24.075,127.824 24.000,127.417 24.000 C 127.029 24.000,126.833 23.922,126.833 23.768 C 126.833 23.513,126.483 23.333,125.986 23.333 C 125.811 23.333,125.667 23.221,125.667 23.083 C 125.667 22.909,125.491 22.833,125.083 22.833 C 124.611 22.833,124.500 22.770,124.500 22.500 C 124.500 22.315,124.389 22.167,124.250 22.167 C 124.112 22.167,124.000 22.054,124.000 21.917 C 124.000 21.778,123.852 21.667,123.667 21.667 C 123.481 21.667,123.333 21.556,123.333 21.417 C 123.333 21.279,123.221 21.167,123.083 21.167 C 122.946 21.167,122.833 21.047,122.833 20.901 C 122.833 20.755,122.683 20.596,122.500 20.548 C 122.317 20.500,122.167 20.357,122.167 20.231 C 122.167 20.104,122.054 20.000,121.917 20.000 C 121.779 20.000,121.667 19.917,121.667 19.815 C 121.667 19.559,120.962 18.840,120.708 18.836 C 120.582 18.834,120.500 18.604,120.500 18.250 C 120.500 17.843,120.425 17.667,120.250 17.667 C 120.040 17.667,120.000 17.296,120.000 15.333 C 120.000 13.370,120.040 13.000,120.250 13.000 C 120.423 13.000,120.500 12.826,120.500 12.436 C 120.500 12.012,120.583 11.851,120.833 11.785 C 121.076 11.722,121.167 11.558,121.167 11.182 C 121.167 10.835,121.248 10.667,121.417 10.667 C 121.554 10.667,121.667 10.563,121.667 10.436 C 121.667 10.309,121.817 10.166,122.000 10.118 C 122.183 10.070,122.333 9.912,122.333 9.766 C 122.333 9.620,122.446 9.500,122.583 9.500 C 122.721 9.500,122.833 9.387,122.833 9.250 C 122.833 9.112,122.977 9.000,123.153 9.000 C 123.650 9.000,124.000 8.820,124.000 8.566 C 124.000 8.418,124.184 8.333,124.505 8.333 C 124.801 8.333,125.050 8.229,125.106 8.083 C 125.162 7.938,125.411 7.833,125.700 7.833 C 126.058 7.833,126.222 7.739,126.285 7.500 C 126.365 7.195,126.512 7.167,128.019 7.167 C 129.373 7.167,129.667 7.122,129.667 6.917 C 129.667 6.778,129.815 6.667,130.000 6.667 C 130.185 6.667,130.333 6.778,130.333 6.917 C 130.333 7.123,130.639 7.167,132.083 7.167 C 133.722 7.167,133.833 7.188,133.833 7.500 C 133.833 7.789,133.944 7.833,134.667 7.833 C 135.296 7.833,135.500 7.894,135.500 8.083 C 135.500 8.256,135.674 8.333,136.064 8.333 C 136.488 8.333,136.649 8.416,136.715 8.667 C 136.778 8.909,136.942 9.000,137.318 9.000 C 137.665 9.000,137.833 9.082,137.833 9.250 C 137.833 9.389,137.981 9.500,138.167 9.500 C 138.389 9.500,138.500 9.611,138.500 9.833 C 138.500 10.019,138.611 10.167,138.750 10.167 C 138.887 10.167,139.000 10.279,139.000 10.417 C 139.000 10.556,139.148 10.667,139.333 10.667 C 139.556 10.667,139.667 10.778,139.667 11.000 C 139.667 11.185,139.778 11.333,139.917 11.333 C 140.082 11.333,140.167 11.499,140.167 11.822 C 140.167 12.164,140.266 12.343,140.500 12.417 C 140.734 12.491,140.833 12.669,140.833 13.011 C 140.833 13.335,140.918 13.500,141.083 13.500 C 141.258 13.500,141.333 13.676,141.333 14.083 C 141.333 14.491,141.409 14.667,141.583 14.667 C 141.763 14.667,141.833 14.850,141.833 15.320 C 141.833 16.511,141.813 16.500,144.018 16.500 L 146.000 16.500 146.000 15.151 C 146.000 13.945,145.965 13.793,145.669 13.716 C 145.349 13.632,145.337 13.458,145.294 8.440 L 145.250 3.250 143.542 3.203 C 142.174 3.164,141.833 3.106,141.833 2.911 C 141.833 2.710,141.479 2.667,139.833 2.667 C 137.944 2.667,137.833 2.648,137.833 2.333 C 137.833 2.006,137.722 2.000,131.818 2.000 C 125.942 2.000,125.800 2.008,125.715 2.333 M2.667 4.333 L 2.667 6.000 4.322 6.000 C 5.831 6.000,5.987 6.029,6.083 6.333 C 6.158 6.568,6.336 6.667,6.683 6.667 C 6.968 6.667,7.218 6.772,7.273 6.917 C 7.328 7.059,7.576 7.167,7.851 7.167 C 8.181 7.167,8.333 7.250,8.333 7.432 C 8.333 7.578,8.483 7.737,8.667 7.785 C 8.917 7.851,9.000 8.012,9.000 8.436 C 9.000 8.826,9.077 9.000,9.250 9.000 C 9.470 9.000,9.500 10.900,9.500 25.099 C 9.500 41.058,9.503 41.199,9.833 41.285 C 10.154 41.369,10.167 41.512,10.167 45.103 C 10.167 48.308,10.202 48.833,10.417 48.833 C 10.615 48.833,10.667 49.074,10.667 50.000 C 10.667 51.056,10.698 51.167,11.000 51.167 C 11.289 51.167,11.333 51.278,11.333 52.000 C 11.333 52.630,11.394 52.833,11.583 52.833 C 11.758 52.833,11.833 53.009,11.833 53.417 C 11.833 53.889,11.897 54.000,12.167 54.000 C 12.437 54.000,12.500 54.111,12.500 54.583 C 12.500 54.969,12.578 55.167,12.731 55.167 C 12.857 55.167,13.000 55.317,13.048 55.500 C 13.096 55.683,13.255 55.833,13.401 55.833 C 13.547 55.833,13.667 55.946,13.667 56.083 C 13.667 56.221,13.779 56.333,13.917 56.333 C 14.054 56.333,14.167 56.446,14.167 56.583 C 14.167 56.721,14.270 56.833,14.397 56.833 C 14.524 56.833,14.667 56.983,14.715 57.167 C 14.763 57.350,14.922 57.500,15.068 57.500 C 15.214 57.500,15.333 57.612,15.333 57.750 C 15.333 57.887,15.437 58.000,15.564 58.000 C 15.691 58.000,15.834 58.150,15.882 58.333 C 15.930 58.517,16.088 58.667,16.234 58.667 C 16.380 58.667,16.500 58.779,16.500 58.917 C 16.500 59.091,16.676 59.167,17.083 59.167 C 17.556 59.167,17.667 59.230,17.667 59.500 C 17.667 59.770,17.778 59.833,18.250 59.833 C 18.657 59.833,18.833 59.909,18.833 60.083 C 18.833 60.272,19.037 60.333,19.667 60.333 C 20.268 60.333,20.500 60.398,20.500 60.566 C 20.500 60.885,20.874 61.000,21.912 61.000 C 22.546 61.000,22.825 61.071,22.894 61.250 C 23.039 61.628,38.295 61.628,38.440 61.250 C 38.511 61.063,38.810 61.000,39.617 61.000 C 40.558 61.000,40.709 60.957,40.785 60.667 C 40.857 60.391,41.012 60.333,41.686 60.333 C 42.298 60.333,42.500 60.271,42.500 60.083 C 42.500 59.915,42.668 59.833,43.016 59.833 C 43.391 59.833,43.555 59.743,43.618 59.500 C 43.684 59.250,43.846 59.167,44.269 59.167 C 44.660 59.167,44.833 59.090,44.833 58.917 C 44.833 58.779,44.946 58.667,45.083 58.667 C 45.222 58.667,45.333 58.519,45.333 58.333 C 45.333 58.111,45.444 58.000,45.667 58.000 C 45.852 58.000,46.000 57.889,46.000 57.750 C 46.000 57.612,46.112 57.500,46.250 57.500 C 46.389 57.500,46.500 57.352,46.500 57.167 C 46.500 56.944,46.611 56.833,46.833 56.833 C 47.019 56.833,47.167 56.722,47.167 56.583 C 47.167 56.446,47.279 56.333,47.417 56.333 C 47.554 56.333,47.667 56.230,47.667 56.103 C 47.667 55.976,47.817 55.833,48.000 55.785 C 48.243 55.722,48.333 55.558,48.333 55.182 C 48.333 54.835,48.415 54.667,48.583 54.667 C 48.722 54.667,48.833 54.519,48.833 54.333 C 48.833 54.150,48.937 54.000,49.064 54.000 C 49.317 54.000,49.494 53.505,49.498 52.792 C 49.499 52.496,49.589 52.333,49.750 52.333 C 49.942 52.333,50.000 52.120,50.000 51.417 C 50.000 50.713,50.058 50.500,50.250 50.500 C 50.458 50.500,50.500 50.167,50.500 48.500 C 50.500 46.611,50.519 46.500,50.833 46.500 C 51.165 46.500,51.167 46.389,51.167 28.000 C 51.167 11.667,51.196 9.500,51.417 9.500 C 51.590 9.500,51.667 9.326,51.667 8.936 C 51.667 8.512,51.750 8.351,52.000 8.285 C 52.243 8.222,52.333 8.058,52.333 7.682 C 52.333 7.204,52.376 7.167,52.917 7.167 C 53.324 7.167,53.500 7.091,53.500 6.917 C 53.500 6.731,53.696 6.667,54.266 6.667 C 54.891 6.667,55.047 6.606,55.118 6.333 C 55.198 6.027,55.346 6.000,56.936 6.000 L 58.667 6.000 58.667 4.333 L 58.667 2.667 48.000 2.667 L 37.333 2.667 37.333 4.333 L 37.333 6.000 39.083 6.000 C 40.722 6.000,40.833 6.021,40.833 6.333 C 40.833 6.622,40.944 6.667,41.667 6.667 C 42.296 6.667,42.500 6.728,42.500 6.917 C 42.500 7.054,42.604 7.167,42.731 7.167 C 42.857 7.167,43.000 7.317,43.048 7.500 C 43.096 7.683,43.255 7.833,43.401 7.833 C 43.583 7.833,43.667 7.985,43.667 8.316 C 43.667 8.590,43.774 8.839,43.917 8.894 C 44.103 8.965,44.167 9.263,44.167 10.067 C 44.167 10.998,44.212 11.159,44.500 11.250 C 45.026 11.417,45.026 42.911,44.500 43.048 C 44.187 43.130,44.167 43.276,44.167 45.401 C 44.167 47.304,44.127 47.667,43.917 47.667 C 43.718 47.667,43.667 47.907,43.667 48.833 C 43.667 49.889,43.635 50.000,43.333 50.000 C 43.063 50.000,43.000 50.111,43.000 50.583 C 43.000 50.991,42.925 51.167,42.750 51.167 C 42.575 51.167,42.500 51.343,42.500 51.750 C 42.500 52.163,42.425 52.333,42.245 52.333 C 42.104 52.333,41.946 52.446,41.894 52.583 C 41.841 52.721,41.693 52.833,41.566 52.833 C 41.438 52.833,41.333 52.983,41.333 53.167 C 41.333 53.352,41.222 53.500,41.083 53.500 C 40.946 53.500,40.833 53.612,40.833 53.750 C 40.833 53.889,40.685 54.000,40.500 54.000 C 40.278 54.000,40.167 54.111,40.167 54.333 C 40.167 54.519,40.056 54.667,39.917 54.667 C 39.779 54.667,39.667 54.779,39.667 54.917 C 39.667 55.091,39.491 55.167,39.083 55.167 C 38.611 55.167,38.500 55.230,38.500 55.500 C 38.500 55.770,38.389 55.833,37.917 55.833 C 37.509 55.833,37.333 55.909,37.333 56.083 C 37.333 56.286,37.065 56.333,35.917 56.333 C 34.769 56.333,34.500 56.381,34.500 56.583 C 34.500 56.958,28.704 56.958,28.560 56.583 C 28.489 56.397,28.192 56.333,27.399 56.333 C 26.563 56.333,26.333 56.279,26.333 56.083 C 26.333 55.909,26.157 55.833,25.750 55.833 C 25.278 55.833,25.167 55.770,25.167 55.500 C 25.167 55.230,25.056 55.167,24.583 55.167 C 24.176 55.167,24.000 55.091,24.000 54.917 C 24.000 54.778,23.852 54.667,23.667 54.667 C 23.444 54.667,23.333 54.556,23.333 54.333 C 23.333 54.148,23.222 54.000,23.083 54.000 C 22.946 54.000,22.833 53.887,22.833 53.750 C 22.833 53.612,22.730 53.500,22.603 53.500 C 22.476 53.500,22.333 53.350,22.285 53.167 C 22.237 52.983,22.078 52.833,21.932 52.833 C 21.748 52.833,21.667 52.679,21.667 52.328 C 21.667 52.042,21.563 51.783,21.427 51.731 C 21.295 51.680,21.140 51.426,21.083 51.167 C 21.026 50.907,20.872 50.653,20.740 50.602 C 20.607 50.551,20.500 50.293,20.500 50.023 C 20.500 49.744,20.393 49.495,20.250 49.440 C 20.078 49.374,20.000 49.104,20.000 48.573 C 20.000 47.942,19.939 47.786,19.667 47.715 C 19.357 47.634,19.333 47.488,19.333 45.647 C 19.333 43.998,19.292 43.667,19.083 43.667 C 18.863 43.667,18.833 41.722,18.833 27.167 C 18.833 12.611,18.863 10.667,19.083 10.667 C 19.282 10.667,19.333 10.426,19.333 9.500 C 19.333 8.444,19.365 8.333,19.667 8.333 C 19.852 8.333,20.000 8.222,20.000 8.083 C 20.000 7.946,20.112 7.833,20.250 7.833 C 20.389 7.833,20.500 7.685,20.500 7.500 C 20.500 7.278,20.611 7.167,20.833 7.167 C 21.019 7.167,21.167 7.056,21.167 6.917 C 21.167 6.728,21.370 6.667,22.000 6.667 C 22.722 6.667,22.833 6.622,22.833 6.333 C 22.833 6.021,22.944 6.000,24.583 6.000 L 26.333 6.000 26.333 4.333 L 26.333 2.667 14.500 2.667 L 2.667 2.667 2.667 4.333 M229.833 4.333 L 229.833 6.000 231.564 6.000 C 233.154 6.000,233.302 6.027,233.382 6.333 C 233.453 6.606,233.609 6.667,234.234 6.667 C 234.804 6.667,235.000 6.731,235.000 6.917 C 235.000 7.091,235.176 7.167,235.583 7.167 C 236.139 7.167,236.167 7.194,236.167 7.750 C 236.167 8.157,236.242 8.333,236.417 8.333 C 236.585 8.333,236.667 8.502,236.667 8.849 C 236.667 9.224,236.757 9.388,237.000 9.452 C 237.527 9.589,237.527 54.667,237.000 54.667 C 236.730 54.667,236.667 54.778,236.667 55.250 C 236.667 55.657,236.591 55.833,236.417 55.833 C 236.279 55.833,236.167 55.946,236.167 56.083 C 236.167 56.221,236.071 56.333,235.954 56.333 C 235.837 56.333,235.612 56.483,235.455 56.667 C 235.298 56.850,235.017 57.000,234.830 57.000 C 234.643 57.000,234.446 57.113,234.394 57.250 C 234.316 57.453,233.924 57.500,232.316 57.500 C 230.732 57.500,230.333 57.547,230.333 57.732 C 230.333 57.860,230.218 58.009,230.077 58.063 C 229.868 58.143,229.829 58.421,229.868 59.539 L 229.917 60.917 243.947 60.959 C 257.863 61.002,257.978 60.999,258.083 60.668 C 258.180 60.363,258.334 60.333,259.845 60.333 C 261.205 60.333,261.500 60.289,261.500 60.083 C 261.500 59.885,261.741 59.833,262.667 59.833 C 263.722 59.833,263.833 59.802,263.833 59.500 C 263.833 59.207,263.944 59.167,264.750 59.167 C 265.454 59.167,265.667 59.109,265.667 58.917 C 265.667 58.731,265.863 58.667,266.432 58.667 C 267.058 58.667,267.214 58.606,267.285 58.333 C 267.351 58.083,267.512 58.000,267.936 58.000 C 268.326 58.000,268.500 57.923,268.500 57.750 C 268.500 57.582,268.668 57.500,269.016 57.500 C 269.391 57.500,269.555 57.409,269.618 57.167 C 269.666 56.983,269.809 56.833,269.936 56.833 C 270.063 56.833,270.167 56.721,270.167 56.583 C 270.167 56.409,270.343 56.333,270.750 56.333 C 271.157 56.333,271.333 56.258,271.333 56.083 C 271.333 55.946,271.453 55.833,271.599 55.833 C 271.745 55.833,271.904 55.683,271.952 55.500 C 272.000 55.317,272.143 55.167,272.269 55.167 C 272.396 55.167,272.500 55.054,272.500 54.917 C 272.500 54.778,272.648 54.667,272.833 54.667 C 273.056 54.667,273.167 54.556,273.167 54.333 C 273.167 54.148,273.278 54.000,273.417 54.000 C 273.554 54.000,273.667 53.887,273.667 53.750 C 273.667 53.611,273.815 53.500,274.000 53.500 C 274.222 53.500,274.333 53.389,274.333 53.167 C 274.333 52.981,274.444 52.833,274.583 52.833 C 274.721 52.833,274.833 52.730,274.833 52.603 C 274.833 52.476,274.983 52.333,275.167 52.285 C 275.350 52.237,275.500 52.078,275.500 51.932 C 275.500 51.786,275.612 51.667,275.750 51.667 C 275.925 51.667,276.000 51.491,276.000 51.083 C 276.000 50.611,276.063 50.500,276.333 50.500 C 276.603 50.500,276.667 50.389,276.667 49.917 C 276.667 49.509,276.742 49.333,276.917 49.333 C 277.054 49.333,277.167 49.221,277.167 49.083 C 277.167 48.946,277.279 48.833,277.417 48.833 C 277.606 48.833,277.667 48.630,277.667 48.000 C 277.667 47.278,277.711 47.167,278.000 47.167 C 278.268 47.167,278.333 47.056,278.333 46.601 C 278.333 46.252,278.429 45.999,278.583 45.940 C 278.759 45.872,278.833 45.599,278.833 45.025 C 278.833 44.346,278.890 44.191,279.167 44.118 C 279.465 44.040,279.500 43.891,279.500 42.682 C 279.500 41.594,279.548 41.333,279.750 41.333 C 279.958 41.333,280.000 41.001,280.000 39.339 C 280.000 37.516,280.029 37.330,280.333 37.167 C 280.655 36.994,280.667 36.818,280.667 31.979 C 280.667 27.109,280.657 26.966,280.333 26.882 C 280.021 26.800,280.000 26.654,280.000 24.564 C 280.000 22.692,279.960 22.333,279.750 22.333 C 279.552 22.333,279.500 22.093,279.500 21.167 C 279.500 20.111,279.468 20.000,279.167 20.000 C 278.874 20.000,278.833 19.889,278.833 19.083 C 278.833 18.380,278.775 18.167,278.583 18.167 C 278.394 18.167,278.333 17.963,278.333 17.333 C 278.333 16.611,278.289 16.500,278.000 16.500 C 277.730 16.500,277.667 16.389,277.667 15.917 C 277.667 15.509,277.591 15.333,277.417 15.333 C 277.242 15.333,277.167 15.157,277.167 14.750 C 277.167 14.343,277.091 14.167,276.917 14.167 C 276.748 14.167,276.667 13.998,276.667 13.651 C 276.667 13.276,276.576 13.112,276.333 13.048 C 276.150 13.000,276.000 12.857,276.000 12.731 C 276.000 12.604,275.887 12.500,275.750 12.500 C 275.582 12.500,275.500 12.332,275.500 11.984 C 275.500 11.609,275.409 11.445,275.167 11.382 C 274.982 11.333,274.833 11.154,274.833 10.981 C 274.833 10.808,274.721 10.667,274.583 10.667 C 274.446 10.667,274.333 10.554,274.333 10.417 C 274.333 10.278,274.185 10.167,274.000 10.167 C 273.778 10.167,273.667 10.056,273.667 9.833 C 273.667 9.648,273.556 9.500,273.417 9.500 C 273.279 9.500,273.167 9.387,273.167 9.250 C 273.167 9.111,273.019 9.000,272.833 9.000 C 272.611 9.000,272.500 8.889,272.500 8.667 C 272.500 8.481,272.389 8.333,272.250 8.333 C 272.112 8.333,272.000 8.221,272.000 8.083 C 272.000 7.909,271.824 7.833,271.417 7.833 C 270.944 7.833,270.833 7.770,270.833 7.500 C 270.833 7.278,270.722 7.167,270.500 7.167 C 270.315 7.167,270.167 7.056,270.167 6.917 C 270.167 6.742,269.991 6.667,269.583 6.667 C 269.111 6.667,269.000 6.603,269.000 6.333 C 269.000 6.077,268.889 6.000,268.518 6.000 C 268.243 6.000,267.994 5.893,267.940 5.750 C 267.885 5.607,267.636 5.500,267.356 5.500 C 267.083 5.500,266.828 5.393,266.776 5.257 C 266.720 5.112,266.342 4.968,265.841 4.902 C 265.294 4.829,265.000 4.711,265.000 4.562 C 265.000 4.399,264.761 4.333,264.167 4.333 C 263.537 4.333,263.333 4.272,263.333 4.083 C 263.333 3.880,263.056 3.833,261.833 3.833 C 260.444 3.833,260.333 3.809,260.333 3.500 C 260.333 3.175,260.222 3.167,256.000 3.167 C 252.259 3.167,251.667 3.132,251.667 2.917 C 251.667 2.697,250.343 2.667,240.750 2.667 L 229.833 2.667 229.833 4.333 M254.667 8.083 C 254.667 8.286,254.933 8.333,256.064 8.333 C 257.321 8.333,257.470 8.367,257.548 8.667 C 257.621 8.945,257.776 9.000,258.484 9.000 C 259.128 9.000,259.333 9.060,259.333 9.250 C 259.333 9.438,259.535 9.500,260.147 9.500 C 260.821 9.500,260.976 9.557,261.048 9.833 C 261.112 10.076,261.276 10.167,261.651 10.167 C 261.998 10.167,262.167 10.248,262.167 10.417 C 262.167 10.554,262.271 10.667,262.399 10.667 C 262.527 10.667,262.671 10.772,262.721 10.901 C 262.770 11.030,263.041 11.186,263.322 11.248 C 263.603 11.309,263.833 11.466,263.833 11.597 C 263.833 11.727,263.983 11.833,264.167 11.833 C 264.389 11.833,264.500 11.944,264.500 12.167 C 264.500 12.352,264.611 12.500,264.750 12.500 C 264.887 12.500,265.000 12.612,265.000 12.750 C 265.000 12.889,265.148 13.000,265.333 13.000 C 265.519 13.000,265.667 13.111,265.667 13.250 C 265.667 13.387,265.779 13.500,265.917 13.500 C 266.085 13.500,266.167 13.668,266.167 14.016 C 266.167 14.391,266.257 14.555,266.500 14.618 C 266.684 14.667,266.833 14.846,266.833 15.019 C 266.833 15.192,266.946 15.333,267.083 15.333 C 267.252 15.333,267.333 15.502,267.333 15.849 C 267.333 16.224,267.424 16.388,267.667 16.452 C 267.917 16.517,268.000 16.679,268.000 17.103 C 268.000 17.493,268.077 17.667,268.250 17.667 C 268.439 17.667,268.500 17.870,268.500 18.500 C 268.500 19.130,268.561 19.333,268.750 19.333 C 268.931 19.333,269.000 19.519,269.000 20.000 C 269.000 20.444,269.111 20.778,269.333 21.000 C 269.608 21.274,269.667 21.556,269.667 22.589 C 269.667 23.551,269.725 23.866,269.917 23.940 C 270.123 24.019,270.167 24.462,270.169 26.476 C 270.171 29.114,270.247 29.667,270.603 29.667 C 270.787 29.667,270.833 30.087,270.833 31.750 C 270.833 33.420,270.787 33.833,270.601 33.833 C 270.221 33.833,270.167 34.232,270.167 37.014 C 270.167 39.261,270.128 39.667,269.917 39.667 C 269.714 39.667,269.667 39.935,269.667 41.083 C 269.667 42.217,269.618 42.500,269.422 42.500 C 269.256 42.500,269.144 42.761,269.069 43.323 C 269.008 43.784,268.859 44.185,268.730 44.235 C 268.577 44.293,268.500 44.602,268.500 45.161 C 268.500 45.796,268.439 46.000,268.250 46.000 C 268.075 46.000,268.000 46.176,268.000 46.583 C 268.000 47.056,267.937 47.167,267.667 47.167 C 267.397 47.167,267.333 47.278,267.333 47.750 C 267.333 48.157,267.258 48.333,267.083 48.333 C 266.917 48.333,266.833 48.500,266.833 48.833 C 266.833 49.222,266.759 49.333,266.500 49.333 C 266.278 49.333,266.167 49.444,266.167 49.667 C 266.167 49.852,266.056 50.000,265.917 50.000 C 265.779 50.000,265.667 50.112,265.667 50.250 C 265.667 50.387,265.547 50.500,265.401 50.500 C 265.255 50.500,265.096 50.650,265.048 50.833 C 265.000 51.017,264.857 51.167,264.731 51.167 C 264.604 51.167,264.500 51.279,264.500 51.417 C 264.500 51.554,264.380 51.667,264.234 51.667 C 264.088 51.667,263.930 51.817,263.882 52.000 C 263.834 52.183,263.691 52.333,263.564 52.333 C 263.437 52.333,263.333 52.446,263.333 52.583 C 263.333 52.752,263.165 52.833,262.818 52.833 C 262.442 52.833,262.278 52.924,262.215 53.167 C 262.167 53.351,261.988 53.500,261.814 53.500 C 261.641 53.500,261.500 53.612,261.500 53.750 C 261.500 53.918,261.332 54.000,260.984 54.000 C 260.609 54.000,260.445 54.091,260.382 54.333 C 260.309 54.609,260.154 54.667,259.481 54.667 C 258.868 54.667,258.667 54.729,258.667 54.917 C 258.667 55.114,258.433 55.167,257.568 55.167 C 256.609 55.167,256.458 55.209,256.382 55.500 C 256.301 55.810,256.154 55.833,254.314 55.833 C 252.665 55.833,252.333 55.875,252.333 56.083 C 252.333 56.282,252.093 56.333,251.167 56.333 C 250.241 56.333,250.000 56.282,250.000 56.083 C 250.000 55.885,249.759 55.833,248.833 55.833 C 247.778 55.833,247.667 55.802,247.667 55.500 C 247.667 55.315,247.556 55.167,247.417 55.167 C 247.228 55.167,247.167 54.963,247.167 54.333 C 247.167 53.611,247.122 53.500,246.833 53.500 C 246.307 53.500,246.307 10.256,246.833 10.118 C 247.073 10.056,247.167 9.891,247.167 9.533 C 247.167 9.245,247.272 8.995,247.417 8.940 C 247.554 8.887,247.667 8.729,247.667 8.589 C 247.667 8.444,247.812 8.333,248.000 8.333 C 248.185 8.333,248.333 8.222,248.333 8.083 C 248.333 7.870,248.796 7.833,251.500 7.833 C 254.204 7.833,254.667 7.870,254.667 8.083 M288.833 8.667 C 288.735 8.850,288.545 9.000,288.411 9.000 C 288.277 9.000,288.167 9.112,288.167 9.250 C 288.167 9.387,288.047 9.500,287.901 9.500 C 287.755 9.500,287.596 9.650,287.548 9.833 C 287.500 10.017,287.357 10.167,287.231 10.167 C 287.104 10.167,287.000 10.279,287.000 10.417 C 287.000 10.554,286.887 10.667,286.750 10.667 C 286.538 10.667,286.500 11.093,286.500 13.505 C 286.500 15.875,286.541 16.360,286.750 16.440 C 286.887 16.492,287.000 16.640,287.000 16.768 C 287.000 16.896,287.107 17.000,287.239 17.000 C 287.370 17.000,287.525 17.150,287.583 17.333 C 287.642 17.517,287.797 17.667,287.928 17.667 C 288.059 17.667,288.167 17.779,288.167 17.917 C 288.167 18.105,288.368 18.167,288.981 18.167 C 289.654 18.167,289.809 18.224,289.882 18.500 C 289.958 18.794,290.109 18.833,291.153 18.833 C 292.130 18.833,292.386 18.775,292.622 18.500 C 292.800 18.293,293.114 18.167,293.454 18.167 C 293.828 18.167,294.000 18.088,294.000 17.917 C 294.000 17.748,294.168 17.667,294.516 17.667 C 294.891 17.667,295.055 17.576,295.118 17.333 C 295.166 17.150,295.309 17.000,295.436 17.000 C 295.588 17.000,295.667 16.802,295.667 16.417 C 295.667 16.009,295.742 15.833,295.917 15.833 C 296.128 15.833,296.167 15.435,296.167 13.250 C 296.167 11.065,296.128 10.667,295.917 10.667 C 295.779 10.667,295.667 10.554,295.667 10.417 C 295.667 10.279,295.554 10.167,295.417 10.167 C 295.279 10.167,295.167 10.047,295.167 9.901 C 295.167 9.755,295.017 9.596,294.833 9.548 C 294.650 9.500,294.500 9.357,294.500 9.231 C 294.500 9.078,294.302 9.000,293.917 9.000 C 293.444 9.000,293.333 8.937,293.333 8.667 C 293.333 8.350,293.222 8.333,291.173 8.333 C 289.182 8.333,288.998 8.360,288.833 8.667 M361.000 17.917 C 361.000 18.106,360.796 18.167,360.167 18.167 C 359.444 18.167,359.333 18.211,359.333 18.500 C 359.333 18.722,359.222 18.833,359.000 18.833 C 358.815 18.833,358.667 18.944,358.667 19.083 C 358.667 19.221,358.554 19.333,358.417 19.333 C 358.278 19.333,358.167 19.481,358.167 19.667 C 358.167 19.889,358.056 20.000,357.833 20.000 C 357.648 20.000,357.500 20.111,357.500 20.250 C 357.500 20.387,357.387 20.500,357.250 20.500 C 357.111 20.500,357.000 20.648,357.000 20.833 C 357.000 21.056,356.889 21.167,356.667 21.167 C 356.407 21.167,356.333 21.278,356.333 21.672 C 356.333 21.967,356.229 22.217,356.083 22.273 C 355.944 22.326,355.833 22.574,355.833 22.832 C 355.833 23.154,355.732 23.321,355.500 23.382 C 355.257 23.445,355.167 23.609,355.167 23.984 C 355.167 24.332,355.085 24.500,354.917 24.500 C 354.778 24.500,354.667 24.648,354.667 24.833 C 354.667 25.101,354.556 25.167,354.103 25.167 C 353.679 25.167,353.517 25.084,353.452 24.833 C 353.379 24.555,353.224 24.500,352.516 24.500 C 351.872 24.500,351.667 24.440,351.667 24.250 C 351.667 24.034,351.019 24.000,346.833 24.000 C 342.648 24.000,342.000 24.034,342.000 24.250 C 342.000 24.442,341.787 24.500,341.083 24.500 C 340.278 24.500,340.167 24.540,340.167 24.833 C 340.167 25.122,340.056 25.167,339.333 25.167 C 338.704 25.167,338.500 25.228,338.500 25.417 C 338.500 25.591,338.324 25.667,337.917 25.667 C 337.444 25.667,337.333 25.730,337.333 26.000 C 337.333 26.270,337.222 26.333,336.750 26.333 C 336.364 26.333,336.167 26.412,336.167 26.564 C 336.167 26.691,336.017 26.834,335.833 26.882 C 335.650 26.930,335.500 27.088,335.500 27.234 C 335.500 27.380,335.387 27.500,335.250 27.500 C 335.112 27.500,335.000 27.604,335.000 27.731 C 335.000 27.857,334.850 28.000,334.667 28.048 C 334.483 28.096,334.333 28.255,334.333 28.401 C 334.333 28.547,334.221 28.667,334.083 28.667 C 333.909 28.667,333.833 28.843,333.833 29.250 C 333.833 29.637,333.755 29.833,333.601 29.833 C 333.346 29.833,333.167 30.184,333.167 30.680 C 333.167 30.856,333.054 31.000,332.917 31.000 C 332.720 31.000,332.667 31.232,332.667 32.089 C 332.667 32.902,332.604 33.201,332.417 33.273 C 332.207 33.354,332.167 33.863,332.167 36.434 C 332.167 39.048,332.204 39.500,332.417 39.500 C 332.619 39.500,332.667 39.769,332.667 40.922 C 332.667 41.988,332.725 42.366,332.900 42.433 C 333.029 42.483,333.182 42.780,333.241 43.095 C 333.305 43.435,333.447 43.667,333.591 43.667 C 333.750 43.667,333.833 43.841,333.833 44.172 C 333.833 44.467,333.937 44.717,334.083 44.773 C 334.221 44.826,334.333 44.973,334.333 45.101 C 334.333 45.229,334.483 45.333,334.667 45.333 C 334.889 45.333,335.000 45.444,335.000 45.667 C 335.000 45.852,335.111 46.000,335.250 46.000 C 335.387 46.000,335.500 46.112,335.500 46.250 C 335.500 46.389,335.648 46.500,335.833 46.500 C 336.056 46.500,336.167 46.611,336.167 46.833 C 336.167 47.056,336.056 47.167,335.833 47.167 C 335.648 47.167,335.500 47.278,335.500 47.417 C 335.500 47.554,335.387 47.667,335.250 47.667 C 335.075 47.667,335.000 47.843,335.000 48.250 C 335.000 48.722,334.937 48.833,334.667 48.833 C 334.444 48.833,334.333 48.944,334.333 49.167 C 334.333 49.352,334.222 49.500,334.083 49.500 C 333.894 49.500,333.833 49.704,333.833 50.333 C 333.833 50.929,333.768 51.167,333.604 51.167 C 333.049 51.167,332.949 54.974,333.500 55.118 C 333.776 55.191,333.833 55.346,333.833 56.019 C 333.833 56.632,333.895 56.833,334.083 56.833 C 334.221 56.833,334.333 56.953,334.333 57.099 C 334.333 57.245,334.483 57.404,334.667 57.452 C 334.850 57.500,335.000 57.643,335.000 57.769 C 335.000 57.896,335.112 58.000,335.250 58.000 C 335.389 58.000,335.500 58.148,335.500 58.333 C 335.500 58.519,335.389 58.667,335.250 58.667 C 335.112 58.667,335.000 58.779,335.000 58.917 C 335.000 59.085,334.832 59.167,334.484 59.167 C 334.109 59.167,333.945 59.257,333.882 59.500 C 333.834 59.683,333.688 59.833,333.559 59.833 C 333.429 59.833,333.280 59.946,333.227 60.083 C 333.174 60.221,333.027 60.333,332.899 60.333 C 332.771 60.333,332.667 60.483,332.667 60.667 C 332.667 60.852,332.556 61.000,332.417 61.000 C 332.279 61.000,332.167 61.144,332.167 61.320 C 332.167 61.816,331.987 62.167,331.732 62.167 C 331.578 62.167,331.500 62.363,331.500 62.750 C 331.500 63.157,331.425 63.333,331.250 63.333 C 331.036 63.333,331.000 63.824,331.000 66.750 C 331.000 69.676,331.036 70.167,331.250 70.167 C 331.418 70.167,331.500 70.335,331.500 70.682 C 331.500 71.058,331.591 71.222,331.833 71.285 C 332.018 71.333,332.167 71.512,332.167 71.686 C 332.167 71.859,332.279 72.000,332.417 72.000 C 332.554 72.000,332.667 72.112,332.667 72.250 C 332.667 72.387,332.770 72.500,332.897 72.500 C 333.024 72.500,333.167 72.650,333.215 72.833 C 333.263 73.017,333.422 73.167,333.568 73.167 C 333.714 73.167,333.833 73.279,333.833 73.417 C 333.833 73.554,333.938 73.667,334.066 73.667 C 334.193 73.667,334.341 73.779,334.394 73.917 C 334.450 74.063,334.699 74.167,334.995 74.167 C 335.389 74.167,335.500 74.240,335.500 74.500 C 335.500 74.770,335.611 74.833,336.083 74.833 C 336.491 74.833,336.667 74.909,336.667 75.083 C 336.667 75.256,336.840 75.333,337.231 75.333 C 337.654 75.333,337.816 75.416,337.882 75.667 C 337.958 75.957,338.109 76.000,339.068 76.000 C 339.933 76.000,340.167 76.053,340.167 76.250 C 340.167 76.458,340.498 76.500,342.147 76.500 C 343.988 76.500,344.134 76.524,344.215 76.833 C 344.350 77.350,349.253 77.350,349.417 76.833 C 349.515 76.525,349.669 76.500,351.511 76.500 C 353.168 76.500,353.500 76.458,353.500 76.250 C 353.500 76.054,353.730 76.000,354.572 76.000 C 355.498 76.000,355.659 75.954,355.750 75.667 C 355.829 75.419,356.002 75.333,356.428 75.333 C 356.825 75.333,357.000 75.257,357.000 75.083 C 357.000 74.897,357.196 74.833,357.766 74.833 C 358.391 74.833,358.547 74.772,358.618 74.500 C 358.666 74.317,358.809 74.167,358.936 74.167 C 359.063 74.167,359.167 74.054,359.167 73.917 C 359.167 73.742,359.343 73.667,359.750 73.667 C 360.157 73.667,360.333 73.591,360.333 73.417 C 360.333 73.279,360.453 73.167,360.599 73.167 C 360.745 73.167,360.904 73.017,360.952 72.833 C 361.000 72.650,361.143 72.500,361.269 72.500 C 361.396 72.500,361.500 72.396,361.500 72.269 C 361.500 72.136,361.749 71.990,362.083 71.928 C 362.594 71.832,362.667 71.757,362.667 71.326 C 362.667 70.944,362.742 70.833,363.000 70.833 C 363.222 70.833,363.333 70.722,363.333 70.500 C 363.333 70.315,363.444 70.167,363.583 70.167 C 363.721 70.167,363.833 70.063,363.833 69.936 C 363.833 69.809,363.983 69.666,364.167 69.618 C 364.409 69.555,364.500 69.391,364.500 69.016 C 364.500 68.668,364.582 68.500,364.750 68.500 C 364.925 68.500,365.000 68.324,365.000 67.917 C 365.000 67.531,365.078 67.333,365.231 67.333 C 365.553 67.333,365.662 66.801,365.664 65.208 C 365.666 64.098,365.715 63.833,365.917 63.833 C 366.119 63.833,366.167 63.565,366.167 62.417 C 366.167 61.269,366.119 61.000,365.917 61.000 C 365.720 61.000,365.667 60.767,365.667 59.901 C 365.667 58.942,365.624 58.791,365.333 58.715 C 365.083 58.649,365.000 58.488,365.000 58.064 C 365.000 57.674,364.923 57.500,364.750 57.500 C 364.613 57.500,364.500 57.380,364.500 57.234 C 364.500 57.088,364.350 56.930,364.167 56.882 C 363.983 56.834,363.833 56.691,363.833 56.564 C 363.833 56.437,363.721 56.333,363.583 56.333 C 363.446 56.333,363.333 56.221,363.333 56.083 C 363.333 55.944,363.185 55.833,363.000 55.833 C 362.778 55.833,362.667 55.722,362.667 55.500 C 362.667 55.317,362.562 55.167,362.434 55.167 C 362.307 55.167,362.159 55.054,362.106 54.917 C 362.039 54.740,361.764 54.667,361.172 54.667 C 360.444 54.667,360.333 54.622,360.333 54.333 C 360.333 54.044,360.222 54.000,359.500 54.000 C 358.870 54.000,358.667 53.939,358.667 53.750 C 358.667 53.531,357.593 53.500,350.000 53.500 C 341.444 53.500,341.333 53.496,341.333 53.167 C 341.333 52.897,341.222 52.833,340.750 52.833 C 340.343 52.833,340.167 52.758,340.167 52.583 C 340.167 52.444,340.019 52.333,339.833 52.333 C 339.645 52.333,339.500 52.222,339.500 52.078 C 339.500 51.938,339.387 51.780,339.250 51.727 C 338.860 51.577,338.918 50.249,339.333 49.833 C 339.517 49.650,339.667 49.350,339.667 49.167 C 339.667 48.897,339.778 48.833,340.250 48.833 C 340.657 48.833,340.833 48.909,340.833 49.083 C 340.833 49.300,341.546 49.333,346.250 49.333 C 350.954 49.333,351.667 49.300,351.667 49.083 C 351.667 48.886,351.900 48.833,352.766 48.833 C 353.724 48.833,353.876 48.791,353.952 48.500 C 354.017 48.250,354.179 48.167,354.603 48.167 C 354.993 48.167,355.167 48.090,355.167 47.917 C 355.167 47.749,355.334 47.667,355.672 47.667 C 355.967 47.667,356.217 47.563,356.273 47.417 C 356.326 47.279,356.480 47.167,356.617 47.167 C 356.753 47.167,356.904 47.017,356.952 46.833 C 357.000 46.650,357.143 46.500,357.269 46.500 C 357.396 46.500,357.500 46.387,357.500 46.250 C 357.500 46.112,357.620 46.000,357.766 46.000 C 357.912 46.000,358.070 45.850,358.118 45.667 C 358.166 45.483,358.309 45.333,358.436 45.333 C 358.563 45.333,358.667 45.218,358.667 45.078 C 358.667 44.938,358.779 44.780,358.917 44.727 C 359.056 44.674,359.167 44.426,359.167 44.168 C 359.167 43.846,359.268 43.679,359.500 43.618 C 359.739 43.556,359.833 43.391,359.833 43.033 C 359.833 42.745,359.938 42.495,360.083 42.440 C 360.270 42.368,360.333 42.071,360.333 41.275 C 360.333 40.346,360.377 40.194,360.667 40.118 C 360.983 40.036,361.000 39.891,361.000 37.250 C 361.000 34.609,360.983 34.464,360.667 34.382 C 360.367 34.303,360.333 34.154,360.333 32.897 C 360.333 31.766,360.286 31.500,360.083 31.500 C 359.909 31.500,359.833 31.324,359.833 30.917 C 359.833 30.444,359.770 30.333,359.500 30.333 C 359.230 30.333,359.167 30.222,359.167 29.750 C 359.167 29.343,359.091 29.167,358.917 29.167 C 358.779 29.167,358.667 29.054,358.667 28.917 C 358.667 28.779,358.562 28.667,358.435 28.667 C 358.173 28.667,358.029 27.826,358.135 26.917 C 358.176 26.562,358.294 26.333,358.435 26.333 C 358.562 26.333,358.667 26.183,358.667 26.000 C 358.667 25.817,358.774 25.667,358.904 25.667 C 359.035 25.667,359.177 25.535,359.218 25.375 C 359.291 25.097,359.296 25.097,359.314 25.375 C 359.328 25.591,359.479 25.667,359.897 25.667 C 360.321 25.667,360.483 25.750,360.548 26.000 C 360.630 26.312,360.776 26.333,362.818 26.333 C 364.889 26.333,365.000 26.316,365.000 26.000 C 365.000 25.730,365.111 25.667,365.583 25.667 C 365.904 25.667,366.167 25.592,366.167 25.500 C 366.167 25.408,366.317 25.183,366.500 25.000 C 366.722 24.778,366.833 24.444,366.833 24.000 C 366.833 23.519,366.903 23.333,367.083 23.333 C 367.286 23.333,367.333 23.065,367.333 21.917 C 367.333 20.769,367.286 20.500,367.083 20.500 C 366.915 20.500,366.833 20.332,366.833 19.984 C 366.833 19.609,366.743 19.445,366.500 19.382 C 366.317 19.334,366.167 19.191,366.167 19.064 C 366.167 18.937,366.063 18.833,365.936 18.833 C 365.809 18.833,365.666 18.683,365.618 18.500 C 365.555 18.257,365.391 18.167,365.016 18.167 C 364.668 18.167,364.500 18.085,364.500 17.917 C 364.500 17.710,364.194 17.667,362.750 17.667 C 361.306 17.667,361.000 17.710,361.000 17.917 M160.500 24.250 C 160.500 24.441,160.289 24.500,159.597 24.500 C 158.541 24.500,158.167 24.614,158.167 24.934 C 158.167 25.089,157.971 25.167,157.583 25.167 C 157.176 25.167,157.000 25.242,157.000 25.417 C 157.000 25.591,156.824 25.667,156.417 25.667 C 155.944 25.667,155.833 25.730,155.833 26.000 C 155.833 26.270,155.722 26.333,155.250 26.333 C 154.843 26.333,154.667 26.409,154.667 26.583 C 154.667 26.752,154.498 26.833,154.151 26.833 C 153.776 26.833,153.612 26.924,153.548 27.167 C 153.500 27.350,153.399 27.500,153.322 27.500 C 153.003 27.500,152.333 28.318,152.333 28.708 C 152.333 28.988,152.222 29.157,152.000 29.215 C 151.722 29.288,151.667 29.442,151.667 30.151 C 151.667 30.795,151.606 31.000,151.417 31.000 C 151.228 31.000,151.167 31.204,151.167 31.833 C 151.167 32.431,151.232 32.667,151.397 32.667 C 151.559 32.667,151.648 32.967,151.701 33.689 C 151.751 34.389,151.863 34.776,152.054 34.916 C 152.208 35.028,152.333 35.206,152.333 35.310 C 152.333 35.416,152.591 35.500,152.917 35.500 C 153.389 35.500,153.500 35.563,153.500 35.833 C 153.500 36.150,153.611 36.167,155.766 36.167 C 157.891 36.167,158.037 36.146,158.118 35.833 C 158.180 35.597,158.346 35.500,158.686 35.500 C 159.124 35.500,159.167 35.448,159.167 34.917 C 159.167 34.444,159.230 34.333,159.500 34.333 C 159.789 34.333,159.833 34.222,159.833 33.500 C 159.833 32.870,159.894 32.667,160.083 32.667 C 160.286 32.667,160.333 32.399,160.333 31.261 C 160.333 30.002,160.368 29.845,160.667 29.750 C 160.850 29.692,161.000 29.537,161.000 29.405 C 161.000 29.274,161.112 29.167,161.250 29.167 C 161.387 29.167,161.500 29.054,161.500 28.917 C 161.500 28.748,161.668 28.667,162.016 28.667 C 162.391 28.667,162.555 28.576,162.618 28.333 C 162.730 27.906,166.167 27.807,166.167 28.231 C 166.167 28.363,166.412 28.509,166.734 28.569 C 167.046 28.628,167.344 28.786,167.395 28.921 C 167.450 29.063,167.704 29.167,167.995 29.167 C 168.389 29.167,168.500 29.240,168.500 29.500 C 168.500 29.683,168.603 29.833,168.729 29.833 C 168.855 29.833,169.003 30.058,169.058 30.333 C 169.117 30.627,169.263 30.833,169.412 30.833 C 169.609 30.833,169.667 31.040,169.667 31.750 C 169.667 32.454,169.725 32.667,169.917 32.667 C 170.131 32.667,170.167 33.194,170.167 36.417 L 170.167 40.167 168.500 40.167 C 167.130 40.167,166.833 40.211,166.833 40.417 C 166.833 40.627,166.470 40.667,164.568 40.667 C 162.442 40.667,162.297 40.687,162.215 41.000 C 162.137 41.300,161.988 41.333,160.731 41.333 C 159.600 41.333,159.333 41.381,159.333 41.583 C 159.333 41.754,159.161 41.834,158.792 41.836 C 158.000 41.839,157.500 42.007,157.500 42.269 C 157.500 42.422,157.302 42.500,156.917 42.500 C 156.509 42.500,156.333 42.575,156.333 42.750 C 156.333 42.918,156.165 43.000,155.818 43.000 C 155.442 43.000,155.278 43.091,155.215 43.333 C 155.167 43.517,155.024 43.667,154.897 43.667 C 154.770 43.667,154.667 43.779,154.667 43.917 C 154.667 44.085,154.498 44.167,154.151 44.167 C 153.776 44.167,153.612 44.257,153.548 44.500 C 153.500 44.684,153.321 44.833,153.147 44.833 C 152.975 44.833,152.833 44.946,152.833 45.083 C 152.833 45.221,152.721 45.333,152.583 45.333 C 152.409 45.333,152.333 45.509,152.333 45.917 C 152.333 46.389,152.270 46.500,152.000 46.500 C 151.778 46.500,151.667 46.611,151.667 46.833 C 151.667 47.019,151.556 47.167,151.417 47.167 C 151.228 47.167,151.167 47.370,151.167 48.000 C 151.167 48.598,151.102 48.833,150.936 48.833 C 150.573 48.833,150.505 49.391,150.505 52.333 C 150.505 55.275,150.573 55.833,150.936 55.833 C 151.098 55.833,151.167 56.057,151.167 56.589 C 151.167 57.106,151.245 57.374,151.417 57.440 C 151.554 57.492,151.667 57.640,151.667 57.768 C 151.667 57.896,151.817 58.000,152.000 58.000 C 152.222 58.000,152.333 58.111,152.333 58.333 C 152.333 58.519,152.444 58.667,152.583 58.667 C 152.721 58.667,152.833 58.779,152.833 58.917 C 152.833 59.056,152.981 59.167,153.167 59.167 C 153.389 59.167,153.500 59.278,153.500 59.500 C 153.500 59.685,153.611 59.833,153.750 59.833 C 153.887 59.833,154.000 59.946,154.000 60.083 C 154.000 60.256,154.174 60.333,154.564 60.333 C 154.988 60.333,155.149 60.416,155.215 60.667 C 155.278 60.909,155.442 61.000,155.818 61.000 C 156.165 61.000,156.333 61.082,156.333 61.250 C 156.333 61.466,156.926 61.500,160.667 61.500 C 164.407 61.500,165.000 61.466,165.000 61.250 C 165.000 61.075,165.176 61.000,165.583 61.000 C 166.056 61.000,166.167 60.937,166.167 60.667 C 166.167 60.397,166.278 60.333,166.750 60.333 C 167.157 60.333,167.333 60.258,167.333 60.083 C 167.333 59.909,167.509 59.833,167.917 59.833 C 168.389 59.833,168.500 59.770,168.500 59.500 C 168.500 59.315,168.611 59.167,168.750 59.167 C 168.887 59.167,169.000 59.054,169.000 58.917 C 169.000 58.778,169.148 58.667,169.333 58.667 C 169.556 58.667,169.667 58.556,169.667 58.333 C 169.667 58.150,169.773 58.000,169.903 58.000 C 170.033 58.000,170.177 57.906,170.223 57.792 C 170.290 57.625,170.310 57.625,170.320 57.792 C 170.327 57.906,170.446 58.000,170.583 58.000 C 170.758 58.000,170.833 58.176,170.833 58.583 C 170.833 58.991,170.909 59.167,171.083 59.167 C 171.258 59.167,171.333 59.343,171.333 59.750 C 171.333 60.210,171.400 60.333,171.647 60.333 C 171.821 60.333,172.000 60.482,172.048 60.667 C 172.112 60.909,172.276 61.000,172.651 61.000 C 172.998 61.000,173.167 61.082,173.167 61.250 C 173.167 61.466,173.759 61.500,177.500 61.500 C 181.241 61.500,181.833 61.466,181.833 61.250 C 181.833 61.031,183.066 61.000,191.923 61.000 L 202.013 61.000 201.965 59.542 L 201.917 58.083 200.542 58.035 C 199.470 57.997,199.167 57.933,199.167 57.743 C 199.167 57.576,198.984 57.500,198.583 57.500 C 198.176 57.500,198.000 57.425,198.000 57.250 C 198.000 57.111,197.852 57.000,197.667 57.000 C 197.444 57.000,197.333 56.889,197.333 56.667 C 197.333 56.481,197.222 56.333,197.083 56.333 C 196.894 56.333,196.833 56.130,196.833 55.500 C 196.833 54.778,196.789 54.667,196.500 54.667 C 196.173 54.667,196.167 54.556,196.167 48.853 C 196.167 43.179,196.175 43.037,196.500 42.952 C 196.806 42.872,196.833 42.724,196.833 41.182 C 196.833 39.798,196.878 39.500,197.083 39.500 C 197.249 39.500,197.333 39.334,197.333 39.006 C 197.333 38.682,197.448 38.450,197.667 38.333 C 197.924 38.196,198.000 37.984,198.000 37.411 C 198.000 36.860,198.065 36.667,198.250 36.667 C 198.425 36.667,198.500 36.491,198.500 36.083 C 198.500 35.611,198.563 35.500,198.833 35.500 C 199.103 35.500,199.167 35.389,199.167 34.917 C 199.167 34.509,199.242 34.333,199.417 34.333 C 199.554 34.333,199.667 34.239,199.667 34.123 C 199.667 34.008,199.817 33.820,200.000 33.705 C 200.188 33.588,200.333 33.317,200.333 33.082 C 200.333 32.824,200.428 32.667,200.583 32.667 C 200.722 32.667,200.833 32.519,200.833 32.333 C 200.833 32.111,200.944 32.000,201.167 32.000 C 201.352 32.000,201.500 31.889,201.500 31.750 C 201.500 31.613,201.612 31.500,201.750 31.500 C 201.889 31.500,202.000 31.352,202.000 31.167 C 202.000 30.944,202.111 30.833,202.333 30.833 C 202.519 30.833,202.667 30.722,202.667 30.583 C 202.667 30.446,202.779 30.333,202.917 30.333 C 203.054 30.333,203.167 30.221,203.167 30.083 C 203.167 29.915,203.335 29.833,203.682 29.833 C 204.058 29.833,204.222 29.743,204.285 29.500 C 204.363 29.201,204.512 29.167,205.729 29.167 C 206.906 29.167,207.114 29.211,207.295 29.500 C 207.412 29.688,207.683 29.833,207.918 29.833 C 208.176 29.833,208.333 29.928,208.333 30.083 C 208.333 30.222,208.481 30.333,208.667 30.333 C 208.937 30.333,209.000 30.444,209.000 30.917 C 209.000 31.324,209.075 31.500,209.250 31.500 C 209.470 31.500,209.500 32.963,209.500 43.667 C 209.500 54.370,209.470 55.833,209.250 55.833 C 209.086 55.833,209.000 55.998,209.000 56.314 C 209.000 56.654,208.903 56.820,208.667 56.882 C 208.483 56.930,208.333 57.088,208.333 57.234 C 208.333 57.427,208.173 57.500,207.750 57.500 C 207.343 57.500,207.167 57.575,207.167 57.750 C 207.167 57.953,206.898 58.000,205.750 58.000 C 204.444 58.000,204.333 58.026,204.333 58.333 C 204.333 58.519,204.222 58.667,204.083 58.667 C 203.885 58.667,203.833 58.907,203.833 59.833 L 203.833 61.000 213.340 61.000 L 222.846 61.000 222.798 59.542 L 222.750 58.083 221.419 58.034 C 220.468 57.999,220.049 57.915,219.952 57.742 C 219.878 57.609,219.595 57.500,219.325 57.500 C 219.018 57.500,218.833 57.414,218.833 57.269 C 218.833 57.143,218.683 57.000,218.500 56.952 C 218.317 56.904,218.167 56.745,218.167 56.599 C 218.167 56.453,218.054 56.333,217.917 56.333 C 217.725 56.333,217.667 56.122,217.667 55.430 C 217.667 54.374,217.553 54.000,217.232 54.000 C 217.036 54.000,217.000 52.097,217.000 41.661 C 217.000 30.848,216.969 29.311,216.750 29.227 C 216.596 29.168,216.500 28.914,216.500 28.566 C 216.500 28.111,216.435 28.000,216.167 28.000 C 215.897 28.000,215.833 27.889,215.833 27.417 C 215.833 27.009,215.758 26.833,215.583 26.833 C 215.446 26.833,215.333 26.721,215.333 26.583 C 215.333 26.444,215.185 26.333,215.000 26.333 C 214.778 26.333,214.667 26.222,214.667 26.000 C 214.667 25.815,214.556 25.667,214.417 25.667 C 214.279 25.667,214.167 25.554,214.167 25.417 C 214.167 25.242,213.991 25.167,213.583 25.167 C 213.111 25.167,213.000 25.103,213.000 24.833 C 213.000 24.565,212.889 24.500,212.434 24.500 C 212.086 24.500,211.832 24.404,211.773 24.250 C 211.692 24.038,211.115 24.000,208.005 24.000 C 204.852 24.000,204.333 24.035,204.333 24.250 C 204.333 24.436,204.137 24.500,203.568 24.500 C 202.942 24.500,202.786 24.561,202.715 24.833 C 202.649 25.084,202.488 25.167,202.064 25.167 C 201.674 25.167,201.500 25.244,201.500 25.417 C 201.500 25.554,201.380 25.667,201.234 25.667 C 201.088 25.667,200.930 25.817,200.882 26.000 C 200.823 26.226,200.653 26.334,200.356 26.336 C 199.920 26.339,199.167 26.959,199.167 27.315 C 199.167 27.417,199.096 27.500,199.009 27.500 C 198.663 27.500,198.000 28.306,198.000 28.727 C 198.000 29.018,197.910 29.167,197.734 29.167 C 197.588 29.167,197.430 29.317,197.382 29.500 C 197.334 29.683,197.191 29.833,197.064 29.833 C 196.919 29.833,196.833 30.018,196.833 30.327 C 196.833 30.651,196.718 30.883,196.500 31.000 C 196.171 31.176,196.167 31.127,196.167 27.589 L 196.167 24.000 194.500 24.000 C 193.130 24.000,192.833 24.044,192.833 24.250 C 192.833 24.456,192.535 24.500,191.151 24.500 C 189.609 24.500,189.462 24.528,189.382 24.833 C 189.301 25.143,189.154 25.167,187.314 25.167 C 185.665 25.167,185.333 25.208,185.333 25.417 C 185.333 25.615,185.092 25.667,184.160 25.667 L 182.987 25.667 183.035 27.125 L 183.083 28.583 184.458 28.632 C 185.530 28.669,185.833 28.734,185.833 28.923 C 185.833 29.090,186.016 29.167,186.417 29.167 C 186.812 29.167,187.000 29.244,187.000 29.405 C 187.000 29.537,187.150 29.692,187.333 29.750 C 187.517 29.808,187.667 29.963,187.667 30.095 C 187.667 30.226,187.779 30.333,187.917 30.333 C 188.054 30.333,188.167 30.446,188.167 30.583 C 188.167 30.721,188.279 30.833,188.417 30.833 C 188.637 30.833,188.667 32.333,188.667 43.333 C 188.667 54.333,188.637 55.833,188.417 55.833 C 188.252 55.833,188.167 55.998,188.167 56.314 C 188.167 56.654,188.069 56.820,187.833 56.882 C 187.650 56.930,187.500 57.088,187.500 57.234 C 187.500 57.418,187.346 57.500,187.000 57.500 C 186.681 57.500,186.500 57.585,186.500 57.734 C 186.500 58.011,184.561 58.116,181.042 58.028 C 179.270 57.984,178.833 57.927,178.833 57.737 C 178.833 57.607,178.721 57.500,178.583 57.500 C 178.446 57.500,178.333 57.396,178.333 57.269 C 178.333 57.143,178.183 57.000,178.000 56.952 C 177.670 56.866,177.667 56.724,177.667 44.182 C 177.667 33.020,177.637 31.500,177.417 31.500 C 177.228 31.500,177.167 31.296,177.167 30.667 C 177.167 30.037,177.106 29.833,176.917 29.833 C 176.742 29.833,176.667 29.657,176.667 29.250 C 176.667 28.778,176.603 28.667,176.333 28.667 C 176.063 28.667,176.000 28.556,176.000 28.083 C 176.000 27.676,175.925 27.500,175.750 27.500 C 175.612 27.500,175.500 27.380,175.500 27.234 C 175.500 27.088,175.350 26.930,175.167 26.882 C 174.983 26.834,174.833 26.691,174.833 26.564 C 174.833 26.437,174.723 26.333,174.589 26.333 C 174.455 26.333,174.265 26.183,174.167 26.000 C 174.066 25.811,173.818 25.667,173.595 25.667 C 173.379 25.667,173.159 25.554,173.106 25.417 C 173.054 25.279,172.821 25.167,172.589 25.167 C 172.357 25.167,172.017 25.017,171.833 24.833 C 171.581 24.581,171.278 24.500,170.583 24.500 C 169.880 24.500,169.667 24.442,169.667 24.250 C 169.667 24.034,169.046 24.000,165.083 24.000 C 161.120 24.000,160.500 24.034,160.500 24.250 M291.667 24.250 C 291.667 24.456,291.369 24.500,289.984 24.500 C 288.442 24.500,288.295 24.528,288.215 24.833 C 288.134 25.143,287.988 25.167,286.147 25.167 C 284.498 25.167,284.167 25.208,284.167 25.417 C 284.167 25.609,283.954 25.667,283.250 25.667 C 282.444 25.667,282.333 25.707,282.333 26.000 C 282.333 26.190,282.222 26.333,282.076 26.333 C 281.864 26.333,281.827 26.533,281.867 27.458 L 281.917 28.583 283.292 28.632 C 284.364 28.669,284.667 28.734,284.667 28.923 C 284.667 29.090,284.850 29.167,285.250 29.167 C 285.649 29.167,285.833 29.243,285.833 29.409 C 285.833 29.554,286.067 29.695,286.417 29.761 C 286.923 29.856,287.000 29.934,287.000 30.352 C 287.000 30.669,287.085 30.833,287.250 30.833 C 287.470 30.833,287.500 32.333,287.500 43.333 C 287.500 54.333,287.470 55.833,287.250 55.833 C 287.083 55.833,287.000 56.000,287.000 56.333 C 287.000 56.667,286.917 56.833,286.750 56.833 C 286.611 56.833,286.500 56.981,286.500 57.167 C 286.500 57.437,286.389 57.500,285.917 57.500 C 285.509 57.500,285.333 57.575,285.333 57.750 C 285.333 57.954,285.056 58.000,283.833 58.000 C 282.444 58.000,282.333 58.025,282.333 58.333 C 282.333 58.519,282.222 58.667,282.083 58.667 C 281.885 58.667,281.833 58.907,281.833 59.833 L 281.833 61.000 291.333 61.000 L 300.833 61.000 300.833 59.500 L 300.833 58.000 299.417 58.000 C 298.269 58.000,298.000 57.953,298.000 57.750 C 298.000 57.575,297.824 57.500,297.417 57.500 C 297.031 57.500,296.833 57.422,296.833 57.269 C 296.833 57.143,296.683 57.000,296.500 56.952 C 296.317 56.904,296.167 56.745,296.167 56.599 C 296.167 56.453,296.054 56.333,295.917 56.333 C 295.720 56.333,295.667 56.101,295.667 55.245 C 295.667 54.431,295.604 54.132,295.417 54.060 C 295.197 53.976,295.167 52.146,295.167 38.982 L 295.167 24.000 293.417 24.000 C 291.972 24.000,291.667 24.044,291.667 24.250 M310.727 24.250 C 310.658 24.429,310.377 24.500,309.732 24.500 C 309.056 24.500,308.751 24.582,308.500 24.833 C 308.317 25.017,307.977 25.167,307.745 25.167 C 307.513 25.167,307.280 25.279,307.227 25.417 C 307.173 25.557,306.925 25.667,306.660 25.667 C 306.336 25.667,306.156 25.770,306.083 26.000 C 306.009 26.234,305.831 26.333,305.489 26.333 C 305.165 26.333,305.000 26.418,305.000 26.583 C 305.000 26.722,304.852 26.833,304.667 26.833 C 304.444 26.833,304.333 26.944,304.333 27.167 C 304.333 27.352,304.222 27.500,304.083 27.500 C 303.946 27.500,303.833 27.613,303.833 27.750 C 303.833 27.889,303.685 28.000,303.500 28.000 C 303.278 28.000,303.167 28.111,303.167 28.333 C 303.167 28.519,303.056 28.667,302.917 28.667 C 302.742 28.667,302.667 28.843,302.667 29.250 C 302.667 29.722,302.603 29.833,302.333 29.833 C 302.148 29.833,302.000 29.944,302.000 30.083 C 302.000 30.221,301.887 30.333,301.750 30.333 C 301.577 30.333,301.500 30.507,301.500 30.897 C 301.500 31.321,301.417 31.483,301.167 31.548 C 300.896 31.619,300.833 31.776,300.833 32.383 C 300.833 32.894,300.754 33.161,300.583 33.227 C 300.398 33.298,300.333 33.593,300.333 34.371 C 300.333 35.239,300.276 35.456,300.000 35.628 C 299.677 35.830,299.667 36.017,299.667 41.684 C 299.667 47.391,299.675 47.533,300.000 47.618 C 300.300 47.697,300.333 47.846,300.333 49.103 C 300.333 50.234,300.381 50.500,300.583 50.500 C 300.758 50.500,300.833 50.676,300.833 51.083 C 300.833 51.556,300.897 51.667,301.167 51.667 C 301.455 51.667,301.500 51.778,301.500 52.482 C 301.500 53.053,301.575 53.326,301.750 53.394 C 301.887 53.446,302.000 53.604,302.000 53.745 C 302.000 53.889,302.145 54.000,302.333 54.000 C 302.603 54.000,302.667 54.111,302.667 54.583 C 302.667 54.991,302.742 55.167,302.917 55.167 C 303.054 55.167,303.167 55.286,303.167 55.432 C 303.167 55.578,303.317 55.737,303.500 55.785 C 303.683 55.833,303.833 55.976,303.833 56.103 C 303.833 56.230,303.946 56.333,304.083 56.333 C 304.221 56.333,304.333 56.446,304.333 56.583 C 304.333 56.721,304.441 56.833,304.572 56.833 C 304.703 56.833,304.858 56.983,304.917 57.167 C 304.975 57.350,305.130 57.500,305.261 57.500 C 305.393 57.500,305.500 57.612,305.500 57.750 C 305.500 57.887,305.612 58.000,305.750 58.000 C 305.887 58.000,306.000 58.120,306.000 58.266 C 306.000 58.412,306.150 58.570,306.333 58.618 C 306.517 58.666,306.667 58.809,306.667 58.936 C 306.667 59.088,306.864 59.167,307.250 59.167 C 307.722 59.167,307.833 59.230,307.833 59.500 C 307.833 59.770,307.944 59.833,308.417 59.833 C 308.824 59.833,309.000 59.909,309.000 60.083 C 309.000 60.271,309.202 60.333,309.814 60.333 C 310.488 60.333,310.643 60.391,310.715 60.667 C 310.791 60.957,310.942 61.000,311.901 61.000 C 312.767 61.000,313.000 61.053,313.000 61.250 C 313.000 61.468,313.778 61.500,319.005 61.500 C 324.189 61.500,325.024 61.466,325.106 61.250 C 325.178 61.063,325.476 61.000,326.283 61.000 C 327.224 61.000,327.376 60.957,327.452 60.667 C 327.517 60.415,327.679 60.333,328.108 60.333 L 328.677 60.333 328.630 58.375 L 328.583 56.417 327.588 56.366 C 326.875 56.329,326.544 56.381,326.420 56.550 C 326.320 56.687,325.777 56.836,325.124 56.906 C 324.320 56.992,324.000 57.094,324.000 57.263 C 324.000 57.453,323.651 57.500,322.250 57.500 C 320.838 57.500,320.500 57.454,320.500 57.260 C 320.500 57.085,320.184 56.989,319.333 56.905 C 318.512 56.824,318.167 56.723,318.167 56.562 C 318.167 56.399,317.928 56.333,317.333 56.333 C 316.704 56.333,316.500 56.272,316.500 56.083 C 316.500 55.909,316.324 55.833,315.917 55.833 C 315.444 55.833,315.333 55.770,315.333 55.500 C 315.333 55.278,315.222 55.167,315.000 55.167 C 314.815 55.167,314.667 55.056,314.667 54.917 C 314.667 54.779,314.563 54.667,314.436 54.667 C 314.309 54.667,314.166 54.517,314.118 54.333 C 314.055 54.091,313.891 54.000,313.516 54.000 C 313.168 54.000,313.000 53.918,313.000 53.750 C 313.000 53.612,312.896 53.500,312.769 53.500 C 312.636 53.500,312.490 53.251,312.428 52.917 C 312.362 52.567,312.221 52.333,312.076 52.333 C 311.942 52.333,311.833 52.183,311.833 52.000 C 311.833 51.815,311.722 51.667,311.583 51.667 C 311.446 51.667,311.333 51.554,311.333 51.417 C 311.333 51.278,311.185 51.167,311.000 51.167 C 310.730 51.167,310.667 51.056,310.667 50.583 C 310.667 50.176,310.591 50.000,310.417 50.000 C 310.279 50.000,310.167 49.856,310.167 49.680 C 310.167 49.184,309.987 48.833,309.732 48.833 C 309.578 48.833,309.500 48.637,309.500 48.250 C 309.500 47.843,309.425 47.667,309.250 47.667 C 309.064 47.667,309.000 47.470,309.000 46.901 C 309.000 46.276,308.939 46.120,308.667 46.048 C 308.385 45.975,308.333 45.821,308.333 45.064 C 308.333 44.377,308.275 44.167,308.083 44.167 C 307.878 44.167,307.833 43.872,307.833 42.511 C 307.833 41.002,307.804 40.846,307.500 40.750 C 307.252 40.671,307.167 40.498,307.167 40.072 L 307.167 39.500 318.167 39.500 L 329.167 39.500 329.167 36.083 C 329.167 33.157,329.131 32.667,328.917 32.667 C 328.743 32.667,328.667 32.492,328.667 32.097 C 328.667 31.363,328.523 31.000,328.232 31.000 C 328.078 31.000,328.000 30.804,328.000 30.417 C 328.000 30.009,327.925 29.833,327.750 29.833 C 327.611 29.833,327.500 29.685,327.500 29.500 C 327.500 29.278,327.389 29.167,327.167 29.167 C 326.897 29.167,326.833 29.056,326.833 28.583 C 326.833 28.176,326.758 28.000,326.583 28.000 C 326.446 28.000,326.333 27.887,326.333 27.750 C 326.333 27.611,326.185 27.500,326.000 27.500 C 325.778 27.500,325.667 27.389,325.667 27.167 C 325.667 26.983,325.562 26.833,325.434 26.833 C 325.307 26.833,325.159 26.721,325.106 26.583 C 325.051 26.440,324.803 26.333,324.525 26.333 C 324.179 26.333,324.014 26.237,323.952 26.000 C 323.888 25.757,323.724 25.667,323.349 25.667 C 323.002 25.667,322.833 25.585,322.833 25.417 C 322.833 25.244,322.660 25.167,322.269 25.167 C 321.846 25.167,321.684 25.084,321.618 24.833 C 321.546 24.555,321.391 24.500,320.682 24.500 C 320.039 24.500,319.833 24.440,319.833 24.250 C 319.833 24.034,319.222 24.000,315.328 24.000 C 311.477 24.000,310.809 24.036,310.727 24.250 M376.667 24.250 C 376.667 24.440,376.461 24.500,375.818 24.500 C 375.109 24.500,374.954 24.555,374.882 24.833 C 374.809 25.109,374.654 25.167,373.981 25.167 C 373.368 25.167,373.167 25.229,373.167 25.417 C 373.167 25.554,373.023 25.667,372.847 25.667 C 372.350 25.667,372.000 25.846,372.000 26.101 C 372.000 26.229,371.850 26.333,371.667 26.333 C 371.481 26.333,371.333 26.444,371.333 26.583 C 371.333 26.741,371.174 26.833,370.901 26.833 C 370.609 26.833,370.441 26.941,370.382 27.167 C 370.333 27.351,370.154 27.500,369.981 27.500 C 369.808 27.500,369.667 27.613,369.667 27.750 C 369.667 27.887,369.559 28.000,369.428 28.000 C 369.297 28.000,369.142 28.150,369.083 28.333 C 369.025 28.517,368.870 28.667,368.739 28.667 C 368.607 28.667,368.500 28.779,368.500 28.917 C 368.500 29.054,368.387 29.167,368.250 29.167 C 368.075 29.167,368.000 29.343,368.000 29.750 C 368.000 30.222,367.937 30.333,367.667 30.333 C 367.444 30.333,367.333 30.444,367.333 30.667 C 367.333 30.852,367.222 31.000,367.083 31.000 C 366.909 31.000,366.833 31.176,366.833 31.583 C 366.833 32.056,366.770 32.167,366.500 32.167 C 366.211 32.167,366.167 32.278,366.167 33.000 C 366.167 33.630,366.106 33.833,365.917 33.833 C 365.728 33.833,365.667 34.037,365.667 34.667 C 365.667 35.389,365.622 35.500,365.333 35.500 C 365.032 35.500,365.000 35.611,365.000 36.667 C 365.000 37.593,364.948 37.833,364.750 37.833 C 364.533 37.833,364.500 38.491,364.500 42.750 C 364.500 47.009,364.533 47.667,364.750 47.667 C 364.953 47.667,365.000 47.935,365.000 49.083 C 365.000 50.389,365.026 50.500,365.333 50.500 C 365.622 50.500,365.667 50.611,365.667 51.339 C 365.667 51.930,365.740 52.205,365.917 52.273 C 366.062 52.329,366.167 52.578,366.167 52.867 C 366.167 53.224,366.261 53.389,366.500 53.452 C 366.737 53.514,366.833 53.679,366.833 54.025 C 366.833 54.303,366.940 54.551,367.083 54.606 C 367.221 54.659,367.333 54.807,367.333 54.934 C 367.333 55.062,367.483 55.167,367.667 55.167 C 367.937 55.167,368.000 55.278,368.000 55.750 C 368.000 56.157,368.075 56.333,368.250 56.333 C 368.387 56.333,368.500 56.446,368.500 56.583 C 368.500 56.721,368.613 56.833,368.750 56.833 C 368.887 56.833,369.000 56.953,369.000 57.099 C 369.000 57.245,369.150 57.404,369.333 57.452 C 369.517 57.500,369.667 57.643,369.667 57.769 C 369.667 57.896,369.779 58.000,369.917 58.000 C 370.054 58.000,370.167 58.120,370.167 58.266 C 370.167 58.412,370.317 58.570,370.500 58.618 C 370.683 58.666,370.833 58.809,370.833 58.936 C 370.833 59.088,371.031 59.167,371.417 59.167 C 371.889 59.167,372.000 59.230,372.000 59.500 C 372.000 59.770,372.111 59.833,372.583 59.833 C 372.991 59.833,373.167 59.909,373.167 60.083 C 373.167 60.258,373.343 60.333,373.750 60.333 C 374.222 60.333,374.333 60.397,374.333 60.667 C 374.333 60.956,374.444 61.000,375.167 61.000 C 375.796 61.000,376.000 61.061,376.000 61.250 C 376.000 61.467,376.657 61.500,380.917 61.500 C 385.176 61.500,385.833 61.467,385.833 61.250 C 385.833 61.061,386.037 61.000,386.667 61.000 C 387.389 61.000,387.500 60.956,387.500 60.667 C 387.500 60.378,387.611 60.333,388.339 60.333 C 388.930 60.333,389.205 60.260,389.273 60.083 C 389.326 59.946,389.473 59.833,389.601 59.833 C 389.729 59.833,389.833 59.683,389.833 59.500 C 389.833 59.230,389.944 59.167,390.417 59.167 C 390.824 59.167,391.000 59.091,391.000 58.917 C 391.000 58.778,391.148 58.667,391.333 58.667 C 391.556 58.667,391.667 58.556,391.667 58.333 C 391.667 58.148,391.778 58.000,391.917 58.000 C 392.054 58.000,392.167 57.887,392.167 57.750 C 392.167 57.611,392.315 57.500,392.500 57.500 C 392.722 57.500,392.833 57.389,392.833 57.167 C 392.833 56.981,392.944 56.833,393.083 56.833 C 393.221 56.833,393.333 56.721,393.333 56.583 C 393.333 56.446,393.417 56.333,393.518 56.333 C 393.874 56.333,394.494 55.580,394.497 55.144 C 394.499 54.847,394.608 54.677,394.833 54.618 C 395.076 54.555,395.167 54.391,395.167 54.016 C 395.167 53.668,395.248 53.500,395.417 53.500 C 395.591 53.500,395.667 53.324,395.667 52.917 C 395.667 52.509,395.742 52.333,395.917 52.333 C 396.090 52.333,396.167 52.160,396.167 51.769 C 396.167 51.346,396.250 51.184,396.500 51.118 C 396.790 51.043,396.833 50.891,396.833 49.950 C 396.833 49.143,396.897 48.845,397.083 48.773 C 397.299 48.690,397.333 47.865,397.333 42.750 C 397.333 37.635,397.299 36.810,397.083 36.727 C 396.908 36.660,396.833 36.387,396.833 35.816 C 396.833 35.111,396.788 35.000,396.500 35.000 C 396.207 35.000,396.167 34.889,396.167 34.083 C 396.167 33.380,396.109 33.167,395.917 33.167 C 395.749 33.167,395.667 32.999,395.667 32.661 C 395.667 32.366,395.563 32.116,395.417 32.060 C 395.274 32.006,395.167 31.757,395.167 31.482 C 395.167 31.111,395.090 31.000,394.833 31.000 C 394.563 31.000,394.500 30.889,394.500 30.417 C 394.500 30.031,394.422 29.833,394.269 29.833 C 394.143 29.833,394.000 29.683,393.952 29.500 C 393.904 29.317,393.745 29.167,393.599 29.167 C 393.453 29.167,393.333 29.054,393.333 28.917 C 393.333 28.779,393.230 28.667,393.103 28.667 C 392.976 28.667,392.833 28.517,392.785 28.333 C 392.737 28.150,392.578 28.000,392.432 28.000 C 392.286 28.000,392.167 27.887,392.167 27.750 C 392.167 27.613,392.054 27.500,391.917 27.500 C 391.779 27.500,391.667 27.380,391.667 27.234 C 391.667 27.088,391.517 26.930,391.333 26.882 C 391.150 26.834,391.000 26.691,391.000 26.564 C 391.000 26.412,390.802 26.333,390.417 26.333 C 389.944 26.333,389.833 26.270,389.833 26.000 C 389.833 25.730,389.722 25.667,389.250 25.667 C 388.843 25.667,388.667 25.591,388.667 25.417 C 388.667 25.242,388.491 25.167,388.083 25.167 C 387.696 25.167,387.500 25.089,387.500 24.934 C 387.500 24.621,387.129 24.500,386.171 24.500 C 385.612 24.500,385.340 24.424,385.273 24.250 C 385.191 24.037,384.551 24.000,380.922 24.000 C 377.251 24.000,376.667 24.034,376.667 24.250 M316.548 28.333 C 316.612 28.576,316.776 28.667,317.151 28.667 C 317.498 28.667,317.667 28.748,317.667 28.917 C 317.667 29.054,317.771 29.167,317.899 29.167 C 318.027 29.167,318.174 29.279,318.227 29.417 C 318.280 29.554,318.438 29.667,318.578 29.667 C 318.718 29.667,318.833 29.782,318.833 29.922 C 318.833 30.062,318.946 30.220,319.083 30.273 C 319.221 30.326,319.333 30.473,319.333 30.601 C 319.333 30.729,319.483 30.833,319.667 30.833 C 319.937 30.833,320.000 30.944,320.000 31.417 C 320.000 31.824,320.075 32.000,320.250 32.000 C 320.447 32.000,320.500 32.233,320.500 33.099 C 320.500 34.058,320.543 34.209,320.833 34.285 C 321.084 34.351,321.167 34.512,321.167 34.936 L 321.167 35.500 314.500 35.500 L 307.833 35.500 307.833 34.684 C 307.833 34.113,307.908 33.840,308.083 33.773 C 308.229 33.717,308.333 33.467,308.333 33.172 C 308.333 32.851,308.418 32.667,308.566 32.667 C 308.820 32.667,309.000 32.316,309.000 31.820 C 309.000 31.644,309.112 31.500,309.250 31.500 C 309.389 31.500,309.500 31.352,309.500 31.167 C 309.500 30.983,309.571 30.833,309.658 30.833 C 309.888 30.833,310.667 30.078,310.667 29.856 C 310.667 29.752,310.771 29.667,310.899 29.667 C 311.027 29.667,311.174 29.554,311.227 29.417 C 311.280 29.279,311.438 29.167,311.578 29.167 C 311.718 29.167,311.833 29.054,311.833 28.917 C 311.833 28.748,312.002 28.667,312.349 28.667 C 312.724 28.667,312.888 28.576,312.952 28.333 C 313.032 28.027,313.179 28.000,314.750 28.000 C 316.321 28.000,316.468 28.027,316.548 28.333 M348.333 28.333 C 348.333 28.603,348.444 28.667,348.917 28.667 C 349.324 28.667,349.500 28.742,349.500 28.917 C 349.500 29.054,349.613 29.167,349.750 29.167 C 349.887 29.167,350.000 29.270,350.000 29.397 C 350.000 29.524,350.150 29.667,350.333 29.715 C 350.517 29.763,350.667 29.922,350.667 30.068 C 350.667 30.214,350.779 30.333,350.917 30.333 C 351.054 30.333,351.167 30.446,351.167 30.583 C 351.167 30.721,351.279 30.833,351.417 30.833 C 351.585 30.833,351.667 31.002,351.667 31.349 C 351.667 31.724,351.757 31.888,352.000 31.952 C 352.281 32.025,352.333 32.179,352.333 32.936 C 352.333 33.623,352.392 33.833,352.583 33.833 C 352.797 33.833,352.833 34.322,352.833 37.232 C 352.833 40.100,352.794 40.646,352.583 40.727 C 352.407 40.795,352.333 41.070,352.333 41.661 C 352.333 42.176,352.260 42.500,352.144 42.500 C 351.814 42.500,351.167 43.334,351.167 43.759 C 351.167 44.104,351.087 44.167,350.651 44.167 C 350.276 44.167,350.112 44.257,350.048 44.500 C 349.986 44.737,349.821 44.833,349.475 44.833 C 349.197 44.833,348.949 44.940,348.894 45.083 C 348.815 45.289,348.387 45.333,346.482 45.333 C 344.535 45.333,344.167 45.294,344.167 45.083 C 344.167 44.946,344.063 44.833,343.936 44.833 C 343.809 44.833,343.666 44.683,343.618 44.500 C 343.555 44.257,343.391 44.167,343.016 44.167 C 342.556 44.167,342.500 44.113,342.500 43.678 C 342.500 43.336,342.400 43.157,342.167 43.083 C 341.983 43.025,341.833 42.870,341.833 42.739 C 341.833 42.607,341.721 42.500,341.583 42.500 C 341.409 42.500,341.333 42.324,341.333 41.917 C 341.333 41.509,341.258 41.333,341.083 41.333 C 340.894 41.333,340.833 41.130,340.833 40.500 C 340.833 39.778,340.789 39.667,340.500 39.667 C 340.177 39.667,340.167 39.556,340.167 36.186 C 340.167 32.846,340.180 32.702,340.500 32.618 C 340.739 32.556,340.833 32.391,340.833 32.033 C 340.833 31.745,340.938 31.495,341.083 31.440 C 341.229 31.384,341.333 31.134,341.333 30.839 C 341.333 30.501,341.416 30.333,341.583 30.333 C 341.721 30.333,341.833 30.221,341.833 30.083 C 341.833 29.946,341.953 29.833,342.099 29.833 C 342.245 29.833,342.404 29.683,342.452 29.500 C 342.500 29.317,342.643 29.167,342.769 29.167 C 342.896 29.167,343.000 29.054,343.000 28.917 C 343.000 28.736,343.185 28.667,343.667 28.667 C 344.111 28.667,344.431 28.560,344.625 28.347 C 345.079 27.850,348.333 27.838,348.333 28.333 M382.408 28.267 C 382.518 28.416,382.947 28.573,383.385 28.622 C 383.893 28.679,384.167 28.790,384.167 28.938 C 384.167 29.064,384.279 29.167,384.417 29.167 C 384.554 29.167,384.667 29.279,384.667 29.417 C 384.667 29.556,384.815 29.667,385.000 29.667 C 385.222 29.667,385.333 29.778,385.333 30.000 C 385.333 30.185,385.444 30.333,385.583 30.333 C 385.721 30.333,385.833 30.446,385.833 30.583 C 385.833 30.722,385.981 30.833,386.167 30.833 C 386.389 30.833,386.500 30.944,386.500 31.167 C 386.500 31.352,386.611 31.500,386.750 31.500 C 386.925 31.500,387.000 31.676,387.000 32.083 C 387.000 32.491,387.075 32.667,387.250 32.667 C 387.418 32.667,387.500 32.835,387.500 33.182 C 387.500 33.558,387.591 33.722,387.833 33.785 C 388.122 33.861,388.167 34.012,388.167 34.918 C 388.167 35.694,388.231 35.989,388.417 36.060 C 388.611 36.135,388.667 36.460,388.667 37.510 C 388.667 38.724,388.701 38.874,389.000 38.952 C 389.434 39.065,389.533 46.500,389.101 46.500 C 388.750 46.500,388.667 46.886,388.667 48.514 C 388.667 49.724,388.620 50.000,388.417 50.000 C 388.228 50.000,388.167 50.204,388.167 50.833 C 388.167 51.435,388.102 51.667,387.934 51.667 C 387.683 51.667,387.500 52.016,387.500 52.496 C 387.500 52.662,387.387 52.841,387.250 52.894 C 387.104 52.950,387.000 53.199,387.000 53.495 C 387.000 53.833,386.917 54.000,386.750 54.000 C 386.611 54.000,386.500 54.148,386.500 54.333 C 386.500 54.556,386.389 54.667,386.167 54.667 C 385.897 54.667,385.833 54.778,385.833 55.250 C 385.833 55.657,385.758 55.833,385.583 55.833 C 385.446 55.833,385.333 55.946,385.333 56.083 C 385.333 56.258,385.157 56.333,384.750 56.333 C 384.351 56.333,384.167 56.410,384.167 56.576 C 384.167 56.721,383.933 56.862,383.583 56.928 C 383.249 56.990,383.000 57.136,383.000 57.269 C 383.000 57.454,382.583 57.500,380.917 57.500 C 379.250 57.500,378.833 57.454,378.833 57.269 C 378.833 57.136,378.584 56.990,378.250 56.928 C 377.901 56.862,377.667 56.721,377.667 56.576 C 377.667 56.442,377.554 56.333,377.417 56.333 C 377.279 56.333,377.167 56.221,377.167 56.083 C 377.167 55.944,377.019 55.833,376.833 55.833 C 376.611 55.833,376.500 55.722,376.500 55.500 C 376.500 55.315,376.389 55.167,376.250 55.167 C 376.113 55.167,376.000 55.054,376.000 54.917 C 376.000 54.779,375.896 54.667,375.769 54.667 C 375.643 54.667,375.500 54.517,375.452 54.333 C 375.404 54.150,375.245 54.000,375.099 54.000 C 374.907 54.000,374.833 53.839,374.833 53.417 C 374.833 53.009,374.758 52.833,374.583 52.833 C 374.397 52.833,374.333 52.637,374.333 52.068 C 374.333 51.442,374.272 51.286,374.000 51.215 C 373.710 51.139,373.667 50.988,373.667 50.059 C 373.667 49.262,373.603 48.965,373.417 48.894 C 373.215 48.816,373.167 48.431,373.167 46.883 C 373.167 45.109,373.142 44.962,372.833 44.882 C 372.523 44.800,372.500 44.654,372.500 42.750 C 372.500 40.846,372.523 40.700,372.833 40.618 C 373.142 40.538,373.167 40.391,373.167 38.599 C 373.167 36.992,373.209 36.667,373.417 36.667 C 373.615 36.667,373.667 36.426,373.667 35.500 C 373.667 34.444,373.698 34.333,374.000 34.333 C 374.270 34.333,374.333 34.222,374.333 33.750 C 374.333 33.343,374.409 33.167,374.583 33.167 C 374.758 33.167,374.833 32.991,374.833 32.583 C 374.833 32.184,374.910 32.000,375.076 32.000 C 375.221 32.000,375.362 31.766,375.428 31.417 C 375.490 31.083,375.636 30.833,375.769 30.833 C 375.896 30.833,376.000 30.721,376.000 30.583 C 376.000 30.446,376.083 30.333,376.185 30.333 C 376.441 30.333,377.160 29.629,377.164 29.375 C 377.165 29.260,377.279 29.167,377.417 29.167 C 377.554 29.167,377.667 29.054,377.667 28.917 C 377.667 28.746,377.839 28.666,378.208 28.664 C 379.000 28.661,379.500 28.493,379.500 28.231 C 379.500 27.871,382.143 27.905,382.408 28.267 M170.167 47.066 C 170.167 49.488,170.126 49.980,169.917 50.060 C 169.747 50.126,169.667 50.392,169.667 50.894 C 169.667 51.373,169.585 51.662,169.432 51.721 C 169.304 51.770,169.149 52.035,169.089 52.308 C 169.029 52.582,168.872 52.847,168.740 52.898 C 168.604 52.950,168.500 53.209,168.500 53.495 C 168.500 53.833,168.417 54.000,168.250 54.000 C 168.111 54.000,168.000 54.148,168.000 54.333 C 168.000 54.556,167.889 54.667,167.667 54.667 C 167.481 54.667,167.333 54.778,167.333 54.917 C 167.333 55.054,167.221 55.167,167.083 55.167 C 166.944 55.167,166.833 55.315,166.833 55.500 C 166.833 55.722,166.722 55.833,166.500 55.833 C 166.315 55.833,166.167 55.944,166.167 56.083 C 166.167 56.272,165.963 56.333,165.333 56.333 C 164.704 56.333,164.500 56.394,164.500 56.583 C 164.500 56.781,164.261 56.833,163.351 56.833 C 162.484 56.833,162.179 56.772,162.106 56.583 C 162.050 56.437,161.801 56.333,161.505 56.333 C 161.167 56.333,161.000 56.251,161.000 56.083 C 161.000 55.944,160.852 55.833,160.667 55.833 C 160.444 55.833,160.333 55.722,160.333 55.500 C 160.333 55.315,160.222 55.167,160.083 55.167 C 159.915 55.167,159.833 54.998,159.833 54.651 C 159.833 54.276,159.743 54.112,159.500 54.048 C 159.250 53.983,159.167 53.821,159.167 53.397 C 159.167 53.007,159.090 52.833,158.917 52.833 C 158.714 52.833,158.667 52.565,158.667 51.417 C 158.667 50.269,158.714 50.000,158.917 50.000 C 159.090 50.000,159.167 49.826,159.167 49.436 C 159.167 49.012,159.250 48.851,159.500 48.785 C 159.743 48.722,159.833 48.558,159.833 48.182 C 159.833 47.835,159.915 47.667,160.083 47.667 C 160.221 47.667,160.333 47.563,160.333 47.435 C 160.333 47.303,160.583 47.157,160.917 47.094 C 161.266 47.029,161.500 46.888,161.500 46.742 C 161.500 46.609,161.650 46.500,161.833 46.500 C 162.019 46.500,162.167 46.389,162.167 46.250 C 162.167 46.082,162.335 46.000,162.682 46.000 C 163.058 46.000,163.222 45.909,163.285 45.667 C 163.357 45.391,163.512 45.333,164.186 45.333 C 164.798 45.333,165.000 45.271,165.000 45.083 C 165.000 44.881,165.270 44.833,166.432 44.833 C 167.724 44.833,167.873 44.801,167.952 44.500 C 168.027 44.211,168.179 44.167,169.103 44.167 L 170.167 44.167 170.167 47.066 M355.833 60.667 C 355.833 60.956,355.944 61.000,356.667 61.000 C 357.296 61.000,357.500 61.061,357.500 61.250 C 357.500 61.389,357.648 61.500,357.833 61.500 C 358.056 61.500,358.167 61.611,358.167 61.833 C 358.167 62.019,358.278 62.167,358.417 62.167 C 358.583 62.167,358.667 62.333,358.667 62.667 C 358.667 62.997,358.750 63.167,358.913 63.167 C 359.458 63.167,359.470 66.400,358.927 66.704 C 358.783 66.785,358.667 67.069,358.667 67.342 C 358.667 67.668,358.582 67.833,358.417 67.833 C 358.278 67.833,358.167 67.981,358.167 68.167 C 358.167 68.389,358.056 68.500,357.833 68.500 C 357.648 68.500,357.500 68.611,357.500 68.750 C 357.500 68.887,357.387 69.000,357.250 69.000 C 357.111 69.000,357.000 69.148,357.000 69.333 C 357.000 69.556,356.889 69.667,356.667 69.667 C 356.481 69.667,356.333 69.778,356.333 69.917 C 356.333 70.085,356.165 70.167,355.818 70.167 C 355.442 70.167,355.278 70.257,355.215 70.500 C 355.154 70.732,354.988 70.833,354.665 70.833 C 354.407 70.833,354.160 70.944,354.106 71.083 C 354.049 71.232,353.799 71.333,353.490 71.333 C 353.109 71.333,352.945 71.423,352.882 71.667 C 352.809 71.943,352.654 72.000,351.981 72.000 C 351.368 72.000,351.167 72.062,351.167 72.250 C 351.167 72.453,350.898 72.500,349.750 72.500 C 348.444 72.500,348.333 72.526,348.333 72.833 C 348.333 73.135,348.222 73.167,347.167 73.167 C 346.111 73.167,346.000 73.135,346.000 72.833 C 346.000 72.532,345.889 72.500,344.851 72.500 C 343.984 72.500,343.679 72.439,343.606 72.250 C 343.539 72.074,343.264 72.000,342.672 72.000 C 341.944 72.000,341.833 71.956,341.833 71.667 C 341.833 71.407,341.722 71.333,341.333 71.333 C 341.000 71.333,340.833 71.250,340.833 71.083 C 340.833 70.944,340.685 70.833,340.500 70.833 C 340.278 70.833,340.167 70.722,340.167 70.500 C 340.167 70.317,340.062 70.167,339.934 70.167 C 339.807 70.167,339.659 70.054,339.606 69.917 C 339.554 69.779,339.396 69.667,339.255 69.667 C 339.111 69.667,339.000 69.522,339.000 69.333 C 339.000 69.148,338.889 69.000,338.750 69.000 C 338.612 69.000,338.500 68.887,338.500 68.750 C 338.500 68.611,338.352 68.500,338.167 68.500 C 337.878 68.500,337.833 68.389,337.833 67.667 C 337.833 67.037,337.772 66.833,337.583 66.833 C 337.380 66.833,337.333 66.556,337.333 65.333 C 337.333 64.111,337.380 63.833,337.583 63.833 C 337.758 63.833,337.833 63.657,337.833 63.250 C 337.833 62.929,337.917 62.667,338.018 62.667 C 338.274 62.667,338.994 61.962,338.997 61.708 C 338.999 61.594,339.115 61.500,339.255 61.500 C 339.396 61.500,339.554 61.387,339.606 61.250 C 339.659 61.112,339.807 61.000,339.934 61.000 C 340.062 61.000,340.167 60.850,340.167 60.667 C 340.167 60.338,340.278 60.333,348.000 60.333 C 355.722 60.333,355.833 60.338,355.833 60.667 M2.667 74.000 L 2.667 76.000 14.750 76.000 C 25.380 76.000,26.833 76.030,26.833 76.250 C 26.833 76.631,302.460 76.631,302.606 76.250 C 302.691 76.030,304.456 76.000,317.101 76.000 L 331.500 76.000 331.500 75.417 C 331.500 75.029,331.422 74.833,331.268 74.833 C 331.140 74.833,330.992 74.721,330.940 74.583 C 330.887 74.446,330.738 74.333,330.608 74.333 C 330.478 74.333,330.333 74.183,330.285 74.000 C 330.222 73.757,330.058 73.667,329.682 73.667 C 329.335 73.667,329.167 73.585,329.167 73.417 C 329.167 73.279,329.054 73.167,328.917 73.167 C 328.778 73.167,328.667 73.019,328.667 72.833 C 328.667 72.611,328.556 72.500,328.333 72.500 C 328.148 72.500,328.000 72.389,328.000 72.250 C 328.000 72.028,309.815 72.000,165.333 72.000 L 2.667 72.000 2.667 74.000 M365.667 72.250 C 365.667 72.389,365.519 72.500,365.333 72.500 C 365.111 72.500,365.000 72.611,365.000 72.833 C 365.000 73.093,364.889 73.167,364.495 73.167 C 364.199 73.167,363.950 73.271,363.894 73.417 C 363.841 73.554,363.693 73.667,363.566 73.667 C 363.438 73.667,363.333 73.817,363.333 74.000 C 363.333 74.222,363.222 74.333,363.000 74.333 C 362.815 74.333,362.667 74.444,362.667 74.583 C 362.667 74.721,362.554 74.833,362.417 74.833 C 362.242 74.833,362.167 75.009,362.167 75.417 C 362.167 75.972,362.194 76.000,362.750 76.000 C 363.157 76.000,363.333 76.075,363.333 76.250 C 363.333 76.471,365.333 76.500,380.333 76.500 L 397.333 76.500 397.333 74.250 L 397.333 72.000 381.500 72.000 C 367.537 72.000,365.667 72.030,365.667 72.250 " stroke="none" fill="#044464" fill-rule="evenodd"></path><path id="path1" d="" stroke="none" fill="#084464" fill-rule="evenodd"></path><path id="path2" d="" stroke="none" fill="#084464" fill-rule="evenodd"></path><path id="path3" d="" stroke="none" fill="#084464" fill-rule="evenodd"></path><path id="path4" d="" stroke="none" fill="#084464" fill-rule="evenodd"></path></g></svg>