<svg id="svg" version="1.1" xmlns="http://www.w3.org/2000/svg" xmlns:xlink="http://www.w3.org/1999/xlink" width="400" height="275.66666666666663" viewBox="0, 0, 400,275.66666666666663"><g id="svgg"><path id="path0" d="M1.930 34.321 L 1.930 67.540 17.900 67.540 C 32.873 67.540,33.879 67.570,34.011 68.022 C 34.089 68.287,34.303 69.311,34.488 70.296 C 34.672 71.282,34.908 72.150,35.013 72.226 C 35.117 72.302,35.492 73.790,35.847 75.534 C 36.202 77.278,36.568 78.766,36.662 78.842 C 36.823 78.973,38.078 84.386,38.117 85.114 C 38.126 85.303,38.218 85.458,38.320 85.458 C 38.422 85.458,38.664 86.358,38.857 87.457 C 39.050 88.556,39.435 90.138,39.712 90.972 C 39.990 91.806,40.431 93.604,40.692 94.969 C 40.953 96.334,41.258 97.512,41.369 97.588 C 41.480 97.664,41.853 99.152,42.197 100.896 C 42.541 102.640,42.903 104.128,43.001 104.204 C 43.100 104.280,43.473 105.768,43.832 107.512 C 44.190 109.256,44.564 110.744,44.663 110.820 C 44.762 110.896,45.061 112.070,45.328 113.429 C 45.595 114.788,45.979 116.339,46.182 116.875 C 46.385 117.411,46.767 118.904,47.032 120.193 C 47.296 121.482,47.595 122.598,47.695 122.674 C 47.796 122.750,48.166 124.300,48.518 126.120 C 48.870 127.939,49.250 129.490,49.362 129.566 C 49.474 129.642,49.847 131.130,50.191 132.874 C 50.535 134.618,50.897 136.106,50.996 136.182 C 51.094 136.258,51.468 137.746,51.826 139.490 C 52.185 141.234,52.557 142.722,52.653 142.798 C 52.749 142.874,53.054 144.052,53.330 145.417 C 53.606 146.782,53.982 148.272,54.166 148.728 C 54.350 149.185,54.727 150.766,55.006 152.243 C 55.284 153.719,55.596 154.928,55.700 154.928 C 55.805 154.928,56.174 156.385,56.521 158.167 C 56.868 159.948,57.238 161.468,57.342 161.544 C 57.446 161.620,57.822 163.108,58.176 164.852 C 58.531 166.595,58.900 168.084,58.995 168.160 C 59.091 168.236,59.462 169.724,59.821 171.468 C 60.179 173.212,60.553 174.700,60.652 174.776 C 60.751 174.852,61.050 176.030,61.317 177.395 C 61.584 178.759,61.903 180.000,62.026 180.152 C 62.149 180.303,62.530 181.854,62.874 183.598 C 63.217 185.341,63.582 186.830,63.685 186.906 C 63.788 186.981,64.162 188.470,64.517 190.214 C 64.872 191.957,65.240 193.446,65.336 193.522 C 65.431 193.598,65.803 195.086,66.161 196.830 C 66.520 198.573,66.895 200.062,66.996 200.138 C 67.096 200.214,67.399 201.423,67.669 202.826 C 67.939 204.228,68.264 205.376,68.392 205.376 C 68.520 205.376,68.553 205.563,68.465 205.793 C 68.377 206.022,68.427 206.363,68.576 206.551 C 68.726 206.738,69.072 208.101,69.347 209.580 C 69.622 211.058,69.931 212.267,70.035 212.267 C 70.139 212.267,70.509 213.725,70.856 215.507 C 71.203 217.288,71.573 218.808,71.677 218.884 C 71.781 218.959,72.157 220.448,72.511 222.192 C 72.866 223.935,73.235 225.424,73.330 225.500 C 73.426 225.575,73.797 227.064,74.156 228.808 C 74.514 230.551,74.888 232.040,74.987 232.116 C 75.086 232.192,75.386 233.370,75.654 234.735 C 75.921 236.099,76.232 237.278,76.344 237.354 C 76.457 237.429,76.836 238.980,77.188 240.799 C 77.540 242.619,77.913 244.170,78.017 244.245 C 78.122 244.321,78.497 245.810,78.852 247.553 C 79.206 249.297,79.575 250.786,79.671 250.861 C 79.766 250.937,80.138 252.426,80.496 254.170 C 80.855 255.913,81.225 257.402,81.320 257.478 C 81.414 257.553,81.774 258.980,82.120 260.647 C 82.465 262.315,82.846 263.804,82.965 263.956 C 83.085 264.107,83.407 265.441,83.682 266.919 C 83.956 268.398,84.269 269.607,84.377 269.607 C 84.485 269.607,84.795 270.786,85.066 272.226 L 85.559 274.845 129.412 274.845 C 171.346 274.845,173.279 274.823,173.575 274.349 C 173.745 274.076,174.171 272.494,174.521 270.834 C 174.871 269.174,175.242 267.753,175.344 267.677 C 175.447 267.602,175.810 266.237,176.151 264.645 C 176.493 263.053,176.869 261.626,176.987 261.475 C 177.105 261.323,177.462 260.083,177.779 258.718 C 178.929 253.773,179.781 250.439,180.003 250.018 C 180.127 249.781,180.515 248.292,180.864 246.710 C 181.213 245.127,181.583 243.770,181.686 243.694 C 181.789 243.618,182.157 242.192,182.505 240.524 C 182.852 238.856,183.223 237.429,183.329 237.354 C 183.435 237.278,183.800 235.913,184.139 234.321 C 184.478 232.729,184.868 231.214,185.007 230.955 C 185.146 230.696,185.457 229.517,185.699 228.336 C 185.941 227.155,186.235 226.065,186.351 225.913 C 186.468 225.762,186.842 224.335,187.181 222.743 C 187.521 221.151,187.893 219.724,188.009 219.573 C 188.124 219.421,188.487 218.057,188.814 216.540 C 189.142 215.024,189.512 213.595,189.637 213.364 C 189.762 213.133,190.136 211.707,190.469 210.194 C 190.802 208.681,191.187 207.195,191.324 206.892 C 191.462 206.589,191.841 205.162,192.167 203.722 C 192.494 202.281,192.857 200.979,192.975 200.827 C 193.092 200.675,193.401 199.497,193.660 198.208 C 193.920 196.919,194.209 195.741,194.302 195.589 C 194.512 195.247,194.502 195.287,195.172 192.281 C 195.477 190.917,195.841 189.600,195.981 189.354 C 196.122 189.109,196.510 187.621,196.843 186.046 C 197.177 184.472,197.547 183.060,197.665 182.908 C 197.784 182.757,198.155 181.347,198.491 179.775 C 199.399 175.524,199.705 175.094,200.145 177.452 C 200.337 178.482,200.577 179.387,200.678 179.462 C 200.779 179.538,201.152 181.027,201.507 182.771 C 201.861 184.514,202.234 186.003,202.334 186.079 C 202.434 186.154,202.806 187.643,203.161 189.387 C 203.515 191.130,203.891 192.619,203.996 192.695 C 204.101 192.771,204.409 194.011,204.681 195.451 C 204.952 196.892,205.329 198.453,205.518 198.921 C 205.707 199.389,206.072 200.816,206.329 202.092 C 206.586 203.367,206.904 204.616,207.036 204.866 C 207.169 205.117,207.555 206.668,207.896 208.312 C 208.237 209.957,208.592 211.365,208.686 211.440 C 208.780 211.516,209.146 213.005,209.501 214.748 C 209.856 216.492,210.228 217.981,210.328 218.057 C 210.428 218.132,210.798 219.621,211.151 221.365 C 211.503 223.108,211.887 224.659,212.003 224.810 C 212.120 224.962,212.431 226.203,212.696 227.567 C 212.960 228.932,213.268 230.172,213.380 230.324 C 213.493 230.476,213.870 231.964,214.220 233.632 C 214.569 235.300,214.936 236.726,215.035 236.802 C 215.134 236.878,215.506 238.367,215.861 240.110 C 216.215 241.854,216.583 243.343,216.678 243.418 C 216.773 243.494,217.141 244.983,217.496 246.726 C 217.850 248.470,218.223 249.959,218.324 250.034 C 218.424 250.110,218.735 251.289,219.014 252.653 C 219.293 254.018,219.676 255.582,219.865 256.128 C 220.055 256.675,220.414 258.164,220.665 259.436 C 220.916 260.709,221.281 262.185,221.478 262.715 C 221.675 263.246,222.062 264.797,222.340 266.161 C 222.617 267.526,222.922 268.704,223.017 268.780 C 223.113 268.856,223.343 269.662,223.530 270.572 C 223.717 271.482,224.001 272.815,224.161 273.535 L 224.452 274.845 268.486 274.845 L 312.520 274.845 313.148 271.881 C 313.493 270.252,313.871 268.794,313.988 268.642 C 314.104 268.491,314.478 267.064,314.817 265.472 C 315.157 263.880,315.530 262.453,315.645 262.302 C 315.761 262.150,316.075 260.972,316.344 259.683 C 316.613 258.394,316.923 257.216,317.033 257.064 C 317.143 256.912,317.501 255.548,317.829 254.032 C 318.157 252.516,318.530 251.081,318.658 250.845 C 318.787 250.608,319.178 249.119,319.527 247.537 C 319.876 245.954,320.239 244.597,320.334 244.521 C 320.429 244.445,320.799 243.019,321.158 241.351 C 321.516 239.683,321.889 238.256,321.987 238.181 C 322.085 238.105,322.460 236.678,322.822 235.010 C 323.184 233.343,323.551 231.916,323.639 231.840 C 323.727 231.764,324.020 230.710,324.290 229.497 C 324.559 228.284,324.852 227.105,324.940 226.878 C 325.179 226.263,325.215 226.124,325.843 223.432 C 326.161 222.068,326.520 220.765,326.640 220.538 C 326.761 220.310,327.151 218.822,327.507 217.229 C 327.862 215.637,328.231 214.273,328.327 214.197 C 328.423 214.121,328.791 212.664,329.145 210.958 C 329.499 209.252,329.872 207.857,329.974 207.857 C 330.076 207.857,330.312 207.032,330.497 206.025 C 330.683 205.017,331.066 203.498,331.349 202.648 C 331.631 201.798,332.072 200.110,332.329 198.897 C 332.586 197.684,332.891 196.568,333.008 196.416 C 333.124 196.265,333.494 194.838,333.830 193.246 C 334.167 191.654,334.539 190.227,334.657 190.076 C 334.776 189.924,335.148 188.498,335.484 186.906 C 335.821 185.314,336.193 183.887,336.312 183.735 C 336.430 183.584,336.803 182.157,337.140 180.565 C 337.477 178.973,337.866 177.458,338.005 177.199 C 338.144 176.940,338.455 175.761,338.697 174.580 C 338.939 173.399,339.236 172.309,339.356 172.157 C 339.477 172.006,339.851 170.579,340.187 168.987 C 340.524 167.395,340.907 165.956,341.040 165.789 C 341.172 165.622,341.543 164.196,341.864 162.619 C 342.185 161.042,342.543 159.690,342.660 159.614 C 342.777 159.538,343.136 158.186,343.457 156.609 C 343.777 155.032,344.152 153.606,344.289 153.439 C 344.426 153.272,344.754 152.019,345.018 150.655 C 345.283 149.290,345.654 147.862,345.844 147.482 C 346.034 147.102,346.408 145.675,346.676 144.312 C 346.944 142.949,347.254 141.771,347.365 141.695 C 347.477 141.620,347.844 140.255,348.181 138.663 C 348.518 137.071,348.892 135.644,349.012 135.492 C 349.132 135.341,349.513 133.852,349.858 132.184 C 350.204 130.517,350.574 129.090,350.681 129.014 C 350.788 128.939,351.152 127.574,351.489 125.982 C 351.826 124.390,352.197 122.963,352.313 122.812 C 352.429 122.660,352.733 121.544,352.989 120.331 C 353.244 119.118,353.525 117.939,353.612 117.712 C 353.907 116.942,353.958 116.751,354.573 114.128 C 354.911 112.688,355.268 111.447,355.366 111.371 C 355.464 111.296,355.818 109.931,356.154 108.339 C 356.489 106.747,356.923 105.072,357.119 104.618 C 357.315 104.163,357.700 102.674,357.975 101.309 C 358.250 99.945,358.554 98.766,358.652 98.691 C 358.749 98.615,359.125 97.188,359.486 95.520 C 359.848 93.853,360.226 92.426,360.326 92.350 C 360.426 92.274,360.729 91.158,361.000 89.869 C 361.270 88.580,361.583 87.402,361.694 87.250 C 361.806 87.099,362.183 85.672,362.532 84.080 C 362.881 82.488,363.244 81.123,363.339 81.048 C 363.433 80.972,363.804 79.545,364.163 77.877 C 364.521 76.210,364.900 74.783,365.005 74.707 C 365.109 74.631,365.480 73.205,365.827 71.537 C 366.175 69.869,366.563 68.463,366.689 68.413 C 366.816 68.362,366.919 68.145,366.919 67.930 C 366.919 67.598,369.279 67.540,382.771 67.540 L 398.622 67.540 398.622 34.504 L 398.622 1.469 374.431 1.286 C 361.127 1.185,334.021 1.103,314.197 1.103 L 278.153 1.103 278.153 34.321 L 278.153 67.540 292.488 67.540 C 303.777 67.540,306.821 67.613,306.813 67.884 C 306.808 68.074,306.622 68.911,306.401 69.745 C 306.180 70.579,305.687 72.502,305.305 74.018 C 304.923 75.534,304.505 76.962,304.376 77.192 C 304.248 77.421,303.861 78.910,303.517 80.500 C 303.173 82.090,302.807 83.453,302.705 83.529 C 302.603 83.604,302.251 84.783,301.922 86.147 C 301.004 89.955,299.812 94.386,299.624 94.693 C 299.531 94.845,299.166 96.272,298.814 97.864 C 298.462 99.456,298.094 100.820,297.998 100.896 C 297.901 100.972,297.526 102.398,297.164 104.066 C 296.803 105.734,296.421 107.161,296.316 107.236 C 296.212 107.312,295.849 108.677,295.510 110.269 C 295.171 111.861,294.803 113.225,294.691 113.301 C 294.580 113.377,294.267 114.493,293.997 115.782 C 293.726 117.071,293.413 118.249,293.300 118.401 C 293.187 118.553,292.807 119.979,292.455 121.571 C 292.103 123.163,291.737 124.528,291.641 124.604 C 291.546 124.680,291.400 125.052,291.318 125.431 C 291.236 125.810,290.956 127.112,290.696 128.325 C 290.435 129.538,290.118 130.660,289.990 130.819 C 289.862 130.977,289.491 132.341,289.166 133.851 C 288.840 135.360,288.482 136.720,288.370 136.871 C 288.258 137.023,287.948 138.139,287.681 139.352 C 287.415 140.565,287.035 141.930,286.837 142.385 C 286.638 142.839,286.265 144.266,286.007 145.555 C 285.749 146.844,285.441 148.022,285.321 148.174 C 285.202 148.325,285.055 148.697,284.995 149.001 C 284.935 149.304,284.664 148.449,284.392 147.101 C 284.121 145.753,283.790 144.451,283.657 144.207 C 283.524 143.963,283.145 142.462,282.813 140.872 C 282.482 139.282,282.111 137.793,281.987 137.564 C 281.864 137.335,281.498 135.844,281.173 134.252 C 280.848 132.660,280.487 131.234,280.371 131.082 C 280.255 130.930,279.937 129.628,279.665 128.187 C 279.393 126.747,279.084 125.507,278.979 125.431 C 278.874 125.355,278.498 123.866,278.143 122.123 C 277.789 120.379,277.417 118.890,277.316 118.815 C 277.216 118.739,276.844 117.250,276.489 115.507 C 276.135 113.763,275.767 112.274,275.672 112.198 C 275.577 112.123,275.211 110.634,274.859 108.890 C 274.506 107.147,274.143 105.596,274.052 105.445 C 273.864 105.132,272.934 101.385,271.933 96.899 C 271.560 95.231,271.139 93.618,270.998 93.315 C 270.856 93.012,270.461 91.399,270.120 89.731 C 269.780 88.063,269.421 86.637,269.322 86.561 C 269.223 86.485,268.856 84.997,268.504 83.253 C 268.153 81.509,267.782 80.021,267.680 79.945 C 267.577 79.869,267.261 78.629,266.977 77.188 C 266.692 75.748,266.392 74.507,266.310 74.431 C 266.228 74.356,266.133 74.108,266.099 73.880 C 265.927 72.735,264.879 68.434,264.655 67.953 C 264.515 67.650,264.121 66.037,263.780 64.369 C 263.439 62.702,263.084 61.275,262.990 61.199 C 262.896 61.123,262.527 59.635,262.172 57.891 C 261.816 56.147,261.426 54.535,261.305 54.307 C 261.185 54.080,260.817 52.591,260.489 50.999 C 260.161 49.407,259.802 47.981,259.691 47.829 C 259.580 47.677,259.273 46.437,259.008 45.072 C 258.744 43.708,258.436 42.467,258.323 42.316 C 258.210 42.164,257.827 40.613,257.472 38.870 C 257.117 37.126,256.744 35.637,256.644 35.562 C 256.544 35.486,256.175 33.997,255.824 32.254 C 255.473 30.510,255.102 29.021,255.000 28.946 C 254.898 28.870,254.533 27.381,254.190 25.637 C 253.847 23.894,253.467 22.343,253.345 22.192 C 253.224 22.040,252.919 20.861,252.667 19.573 C 252.415 18.284,252.130 17.043,252.033 16.816 C 251.937 16.589,251.847 16.278,251.835 16.127 C 251.822 15.975,251.740 15.727,251.652 15.575 C 251.564 15.424,251.265 14.183,250.988 12.819 C 250.711 11.454,250.407 10.276,250.311 10.200 C 250.216 10.124,249.849 8.635,249.497 6.892 C 249.145 5.148,248.765 3.598,248.654 3.446 C 248.543 3.294,248.369 2.707,248.267 2.140 L 248.081 1.110 217.011 1.175 L 185.941 1.241 185.525 2.895 C 185.296 3.804,185.021 4.684,184.915 4.850 C 184.808 5.016,184.466 6.319,184.155 7.745 C 183.843 9.171,183.471 10.586,183.326 10.889 C 183.182 11.192,182.797 12.619,182.470 14.059 C 182.143 15.500,181.773 16.875,181.648 17.116 C 181.523 17.357,181.142 18.783,180.801 20.286 C 180.460 21.789,180.105 23.081,180.012 23.156 C 179.918 23.232,179.551 24.597,179.195 26.189 C 178.839 27.781,178.446 29.269,178.321 29.497 C 178.196 29.724,177.849 30.903,177.549 32.116 C 176.164 37.726,175.791 39.146,175.194 41.077 C 174.842 42.216,174.398 43.953,174.207 44.937 C 174.017 45.921,173.769 46.788,173.656 46.864 C 173.544 46.940,173.175 48.305,172.836 49.897 C 172.497 51.489,172.137 52.853,172.036 52.929 C 171.846 53.072,170.617 57.937,170.557 58.787 C 170.538 59.052,170.441 59.269,170.341 59.269 C 170.242 59.269,169.935 60.355,169.661 61.682 C 169.386 63.008,169.079 64.156,168.977 64.232 C 168.876 64.307,168.726 64.680,168.644 65.059 C 168.562 65.438,168.282 66.740,168.022 67.953 C 167.761 69.166,167.451 70.283,167.333 70.434 C 167.214 70.586,166.832 72.012,166.483 73.604 C 166.134 75.196,165.764 76.561,165.662 76.637 C 165.560 76.713,165.196 78.077,164.855 79.669 C 164.514 81.261,164.126 82.699,163.995 82.864 C 163.863 83.029,163.554 84.146,163.308 85.345 C 163.063 86.544,162.766 87.650,162.649 87.802 C 162.532 87.953,162.159 89.318,161.819 90.834 C 161.480 92.350,161.114 93.715,161.005 93.866 C 160.897 94.018,160.522 95.445,160.174 97.037 C 159.825 98.629,159.446 100.055,159.331 100.207 C 159.216 100.358,158.837 101.785,158.488 103.377 C 158.139 104.969,157.771 106.334,157.669 106.409 C 157.568 106.485,157.215 107.780,156.886 109.288 C 156.556 110.795,156.188 112.159,156.067 112.320 C 155.946 112.481,155.620 113.666,155.341 114.955 C 155.063 116.244,154.746 117.422,154.638 117.574 C 154.530 117.726,154.164 119.090,153.825 120.606 C 153.486 122.123,153.116 123.487,153.002 123.639 C 152.889 123.790,152.508 125.217,152.156 126.809 C 151.804 128.401,151.437 129.766,151.340 129.841 C 151.243 129.917,150.868 131.344,150.507 133.012 C 150.145 134.680,149.772 136.106,149.677 136.182 C 149.583 136.258,149.243 137.374,148.922 138.663 C 147.222 145.492,146.870 146.842,146.661 147.347 C 146.535 147.650,146.340 148.146,146.228 148.449 C 146.072 148.872,145.936 148.613,145.647 147.347 C 145.440 146.437,145.154 145.445,145.012 145.141 C 144.870 144.838,144.499 143.323,144.188 141.775 C 143.877 140.227,143.506 138.676,143.363 138.329 C 143.219 137.982,142.907 136.768,142.668 135.631 C 142.430 134.493,142.121 133.315,141.983 133.012 C 141.845 132.708,141.466 131.172,141.142 129.598 C 140.817 128.024,140.440 126.535,140.304 126.290 C 140.168 126.045,139.793 124.490,139.471 122.834 C 139.149 121.179,138.779 119.628,138.649 119.388 C 138.519 119.149,138.151 117.650,137.831 116.058 C 137.512 114.466,137.145 112.915,137.017 112.612 C 136.742 111.961,136.322 110.221,135.885 107.926 C 135.712 107.016,135.474 106.147,135.356 105.996 C 135.238 105.844,134.923 104.604,134.657 103.239 C 134.391 101.875,134.088 100.696,133.984 100.620 C 133.879 100.544,133.513 99.056,133.170 97.312 C 132.827 95.569,132.445 94.018,132.323 93.866 C 132.200 93.715,131.818 92.164,131.475 90.420 C 131.132 88.677,130.771 87.188,130.674 87.112 C 130.576 87.037,130.208 85.548,129.855 83.804 C 129.503 82.061,129.128 80.510,129.021 80.358 C 128.915 80.207,128.604 78.966,128.330 77.602 C 128.056 76.237,127.739 74.997,127.625 74.845 C 127.510 74.693,127.145 73.205,126.812 71.537 C 126.479 69.869,126.095 68.387,125.957 68.243 C 125.819 68.099,125.706 67.881,125.706 67.760 C 125.706 67.639,132.529 67.540,140.868 67.540 L 156.030 67.540 156.030 34.321 L 156.030 1.103 78.980 1.103 L 1.930 1.103 1.930 34.321 M146.246 11.923 C 146.328 12.264,146.362 22.591,146.320 34.873 L 146.244 57.202 129.635 57.273 C 114.056 57.340,113.025 57.374,113.025 57.824 C 113.024 58.088,113.270 59.173,113.571 60.234 C 113.872 61.296,115.298 67.002,116.740 72.915 C 118.183 78.828,119.608 84.597,119.909 85.734 C 120.209 86.871,121.700 92.888,123.221 99.104 C 124.743 105.320,126.172 111.089,126.396 111.923 C 126.620 112.757,128.046 118.525,129.566 124.742 C 131.085 130.958,132.513 136.726,132.738 137.560 C 132.962 138.394,134.390 144.163,135.909 150.379 C 137.429 156.595,138.910 162.550,139.201 163.611 C 139.492 164.673,139.808 165.975,139.904 166.506 C 139.999 167.037,140.315 168.339,140.606 169.400 C 140.896 170.462,142.007 174.928,143.075 179.325 C 144.142 183.722,145.152 187.815,145.320 188.422 C 145.742 189.954,145.571 190.443,148.601 179.049 C 150.359 172.439,150.769 170.916,151.759 167.333 C 152.324 165.286,153.008 162.743,153.278 161.682 C 153.548 160.620,154.227 158.077,154.787 156.030 C 155.347 153.983,156.091 151.192,156.440 149.828 C 157.062 147.402,157.684 145.102,159.758 137.560 C 160.321 135.513,161.001 132.970,161.270 131.909 C 161.539 130.848,162.133 128.615,162.590 126.947 C 164.739 119.103,165.498 116.286,166.082 113.990 C 166.429 112.626,167.177 109.835,167.745 107.788 C 168.312 105.741,168.996 103.198,169.265 102.136 C 169.534 101.075,170.128 98.842,170.585 97.174 C 172.150 91.461,173.438 86.698,174.089 84.218 C 174.448 82.853,175.131 80.310,175.607 78.567 C 176.084 76.823,176.761 74.280,177.112 72.915 C 177.733 70.506,178.301 68.405,180.432 60.648 C 180.994 58.601,181.740 55.810,182.091 54.445 C 182.441 53.081,183.119 50.538,183.598 48.794 C 184.076 47.050,184.755 44.507,185.107 43.143 C 185.734 40.708,186.383 38.308,188.428 30.875 C 188.991 28.828,189.672 26.285,189.942 25.224 C 190.212 24.163,190.891 21.620,191.451 19.573 C 192.010 17.526,192.701 14.932,192.985 13.808 C 193.269 12.683,193.606 11.659,193.734 11.532 C 193.861 11.404,204.372 11.331,217.089 11.370 L 240.213 11.440 240.718 13.370 C 240.996 14.431,241.520 16.540,241.882 18.057 C 242.958 22.560,243.654 25.374,244.234 27.567 C 244.534 28.704,246.709 37.450,249.067 47.002 C 251.424 56.554,253.589 65.238,253.878 66.299 C 254.166 67.360,254.548 68.911,254.726 69.745 C 254.903 70.579,255.223 71.881,255.437 72.640 C 255.650 73.398,257.439 80.593,259.413 88.629 C 261.386 96.664,263.239 104.108,263.529 105.169 C 263.820 106.230,264.136 107.533,264.232 108.063 C 264.327 108.594,264.643 109.897,264.934 110.958 C 265.224 112.019,267.389 120.703,269.744 130.255 C 272.098 139.807,274.204 148.243,274.423 149.001 C 274.642 149.759,275.063 151.433,275.359 152.722 C 276.004 155.527,276.858 158.994,277.599 161.819 C 277.898 162.957,279.521 169.469,281.207 176.292 C 284.595 190.008,284.590 189.993,284.998 188.410 C 285.153 187.810,285.610 186.079,286.014 184.562 C 286.418 183.046,286.970 180.937,287.241 179.876 C 287.512 178.815,288.197 176.272,288.763 174.225 C 289.329 172.178,290.073 169.449,290.416 168.160 C 290.759 166.871,291.419 164.390,291.883 162.646 C 292.347 160.903,293.116 158.050,293.594 156.306 C 294.071 154.562,294.748 152.019,295.100 150.655 C 295.451 149.290,296.112 146.809,296.568 145.141 C 298.096 139.552,299.414 134.687,300.113 132.047 C 300.495 130.606,301.178 128.063,301.631 126.396 C 302.085 124.728,302.743 122.247,303.094 120.882 C 303.446 119.518,304.106 117.037,304.562 115.369 C 306.980 106.527,307.466 104.731,307.917 102.963 C 308.188 101.902,308.874 99.359,309.442 97.312 C 310.010 95.265,310.697 92.722,310.968 91.661 C 311.463 89.728,313.042 83.839,314.589 78.153 C 315.043 76.485,315.637 74.252,315.909 73.191 C 316.181 72.130,316.867 69.586,317.433 67.540 C 318.507 63.653,319.739 59.021,319.979 57.962 L 320.119 57.344 304.167 57.273 L 288.215 57.202 288.139 34.873 C 288.097 22.591,288.131 12.264,288.214 11.922 L 288.364 11.301 338.462 11.371 L 388.560 11.440 388.560 34.321 L 388.560 57.202 373.811 57.340 L 359.063 57.478 358.299 60.372 C 357.879 61.964,357.095 64.941,356.558 66.988 C 356.021 69.035,355.272 71.888,354.893 73.329 C 354.100 76.344,353.254 79.574,352.075 84.080 C 351.619 85.824,350.935 88.429,350.554 89.869 C 350.173 91.309,348.978 95.837,347.898 99.931 C 346.818 104.025,345.623 108.553,345.242 109.993 C 344.861 111.433,344.177 114.039,343.721 115.782 C 343.265 117.526,342.599 120.069,342.241 121.433 C 341.883 122.798,341.283 125.093,340.908 126.533 C 339.872 130.515,338.742 134.804,336.735 142.385 C 335.731 146.175,334.537 150.703,334.082 152.447 C 333.627 154.190,332.944 156.795,332.565 158.236 C 331.814 161.088,331.030 164.077,329.746 168.987 C 329.290 170.731,328.605 173.336,328.225 174.776 C 327.844 176.216,326.649 180.744,325.569 184.838 C 324.489 188.932,323.293 193.460,322.913 194.900 C 322.532 196.340,321.847 198.946,321.391 200.689 C 320.935 202.433,320.262 205.007,319.895 206.409 C 319.528 207.812,318.931 210.107,318.568 211.509 C 318.205 212.912,316.708 218.587,315.243 224.121 C 313.777 229.655,312.206 235.610,311.752 237.354 C 311.297 239.097,310.615 241.702,310.235 243.143 C 309.179 247.155,308.326 250.413,307.422 253.894 C 306.969 255.637,306.153 258.717,305.608 260.737 C 305.063 262.757,304.618 264.463,304.618 264.527 C 304.618 264.592,288.372 264.645,268.516 264.645 L 232.414 264.645 232.129 263.611 C 231.738 262.193,230.531 257.283,229.876 254.445 C 229.579 253.156,229.154 251.482,228.933 250.724 C 228.711 249.966,228.211 248.043,227.821 246.451 C 227.430 244.859,226.811 242.347,226.443 240.868 C 225.537 237.223,224.565 233.283,223.874 230.462 C 223.559 229.173,223.054 227.188,222.752 226.051 C 222.450 224.914,221.881 222.681,221.487 221.089 C 220.665 217.769,219.690 213.836,218.754 210.062 C 218.396 208.622,217.835 206.327,217.506 204.962 C 217.177 203.598,216.683 201.675,216.408 200.689 C 216.134 199.704,215.762 198.215,215.583 197.381 C 215.404 196.547,215.020 194.997,214.730 193.935 C 214.441 192.874,213.883 190.703,213.490 189.111 C 213.097 187.519,212.486 185.038,212.131 183.598 C 211.776 182.157,211.177 179.738,210.799 178.222 C 210.421 176.706,209.854 174.411,209.539 173.122 C 209.224 171.833,208.719 169.848,208.417 168.711 C 208.115 167.574,207.546 165.341,207.152 163.749 C 206.758 162.157,206.135 159.645,205.768 158.167 C 204.862 154.522,203.889 150.582,203.199 147.760 C 202.884 146.471,202.379 144.487,202.077 143.349 C 201.775 142.212,201.219 139.993,200.841 138.419 C 199.827 134.189,200.047 133.942,198.057 141.558 C 197.185 144.893,196.049 149.235,195.531 151.206 C 195.013 153.177,194.299 155.906,193.943 157.271 C 193.588 158.635,192.903 161.241,192.422 163.060 C 191.941 164.879,191.259 167.484,190.906 168.849 C 190.553 170.214,189.870 172.819,189.387 174.638 C 188.904 176.458,188.220 179.063,187.867 180.427 C 187.515 181.792,186.399 186.010,185.389 189.800 C 184.378 193.591,183.180 198.119,182.725 199.862 C 182.271 201.606,181.599 204.180,181.232 205.582 C 180.865 206.985,180.265 209.280,179.898 210.682 C 179.531 212.085,178.859 214.659,178.404 216.402 C 177.949 218.146,176.378 224.101,174.914 229.635 C 173.450 235.169,171.945 240.875,171.571 242.316 C 170.847 245.097,170.107 247.924,168.757 253.067 C 168.299 254.810,167.613 257.431,167.233 258.891 C 166.852 260.350,166.338 262.242,166.090 263.095 L 165.640 264.645 129.552 264.645 L 93.463 264.645 93.327 264.025 C 93.252 263.684,92.868 262.102,92.473 260.510 C 92.079 258.918,91.469 256.437,91.118 254.997 C 89.532 248.480,89.237 247.307,88.766 245.624 C 88.491 244.638,87.995 242.715,87.665 241.351 C 87.335 239.986,86.780 237.691,86.432 236.251 C 85.396 231.969,84.672 229.071,84.089 226.878 C 83.573 224.932,82.762 221.700,81.599 216.954 C 80.233 211.377,79.631 208.968,79.256 207.581 C 78.861 206.119,78.128 203.178,76.783 197.657 C 75.197 191.140,74.902 189.967,74.431 188.284 C 73.953 186.573,73.494 184.742,72.084 178.911 C 70.819 173.683,70.293 171.567,69.754 169.538 C 69.452 168.401,68.883 166.168,68.489 164.576 C 68.095 162.984,67.472 160.472,67.105 158.994 C 66.288 155.706,65.298 151.709,64.528 148.587 C 64.210 147.298,63.706 145.314,63.407 144.176 C 62.650 141.290,61.530 136.751,60.889 133.977 C 60.592 132.688,60.167 131.013,59.945 130.255 C 59.533 128.848,58.872 126.235,57.747 121.571 C 56.545 116.587,55.966 114.257,55.419 112.198 C 55.117 111.061,54.548 108.828,54.154 107.236 C 53.760 105.644,53.144 103.163,52.785 101.723 C 52.167 99.239,51.500 96.546,50.193 91.247 C 49.875 89.959,49.371 87.974,49.072 86.837 C 48.350 84.084,47.504 80.664,45.219 71.261 C 44.887 69.897,44.446 68.218,44.238 67.531 C 44.030 66.843,43.602 65.169,43.286 63.809 C 42.971 62.449,42.491 60.469,42.220 59.407 L 41.727 57.478 26.859 57.340 L 11.992 57.202 11.921 34.597 C 11.881 22.164,11.908 11.837,11.981 11.647 C 12.085 11.373,25.764 11.303,79.104 11.303 L 146.096 11.303 146.246 11.923 " stroke="none" fill="#ebd3a3" fill-rule="evenodd"></path><path id="path1" d="M12.197 34.390 L 12.267 56.926 27.147 57.064 L 42.027 57.202 42.634 59.821 C 42.967 61.261,43.750 64.425,44.374 66.850 C 44.997 69.276,45.684 72.006,45.901 72.915 C 46.117 73.825,46.675 76.088,47.141 77.944 C 47.607 79.800,48.348 82.777,48.789 84.560 C 51.513 95.588,52.451 99.319,52.932 101.034 C 53.229 102.095,53.655 103.770,53.880 104.755 C 54.105 105.741,54.669 108.066,55.135 109.922 C 55.601 111.778,56.343 114.755,56.783 116.538 C 59.382 127.056,60.435 131.235,60.795 132.460 C 61.018 133.218,61.445 134.893,61.744 136.182 C 62.044 137.471,62.657 140.014,63.107 141.833 C 65.926 153.237,66.786 156.656,67.266 158.374 C 67.564 159.435,67.990 161.110,68.215 162.095 C 68.440 163.081,69.012 165.438,69.487 167.333 C 69.961 169.228,70.703 172.205,71.134 173.949 C 74.051 185.734,74.781 188.639,75.261 190.351 C 75.558 191.413,75.985 193.088,76.209 194.073 C 76.761 196.492,77.876 200.984,80.213 210.200 C 81.289 214.445,82.347 218.663,82.564 219.573 C 82.781 220.482,83.339 222.745,83.805 224.601 C 84.271 226.457,85.012 229.435,85.453 231.217 C 88.178 242.245,89.116 245.976,89.596 247.691 C 89.893 248.753,90.320 250.427,90.544 251.413 C 91.011 253.461,92.401 259.088,92.995 261.337 C 93.216 262.171,93.473 263.195,93.568 263.612 L 93.739 264.371 129.640 264.302 L 165.541 264.232 166.282 261.337 C 166.689 259.745,167.403 257.016,167.869 255.272 C 168.334 253.529,169.072 250.737,169.508 249.070 C 169.943 247.402,170.684 244.579,171.154 242.797 C 172.054 239.383,173.248 234.832,174.391 230.462 C 176.360 222.933,176.730 221.527,177.515 218.608 C 177.984 216.864,178.618 214.395,178.925 213.120 C 179.232 211.846,179.537 210.716,179.603 210.609 C 179.669 210.502,180.168 208.692,180.713 206.586 C 181.257 204.480,182.011 201.578,182.387 200.138 C 182.763 198.697,183.425 196.154,183.859 194.487 C 184.293 192.819,185.041 189.966,185.523 188.146 C 186.371 184.941,187.008 182.515,188.398 177.188 C 189.296 173.748,190.529 169.073,191.725 164.576 C 192.269 162.529,193.087 159.428,193.543 157.684 C 193.999 155.941,194.750 153.088,195.211 151.344 C 195.673 149.600,196.340 147.057,196.694 145.693 C 197.049 144.328,197.732 141.723,198.213 139.904 C 198.694 138.084,199.221 136.068,199.384 135.424 C 199.785 133.833,200.019 133.948,200.508 135.975 C 200.897 137.588,204.417 151.618,205.505 155.892 C 206.074 158.125,206.956 161.671,208.111 166.368 C 210.444 175.853,213.437 187.759,213.793 188.973 C 214.016 189.731,214.437 191.406,214.728 192.695 C 215.170 194.645,217.886 205.558,219.840 213.232 C 220.409 215.465,221.291 219.011,222.446 223.708 C 224.779 233.193,227.772 245.099,228.128 246.313 C 228.351 247.071,228.778 248.746,229.077 250.034 C 229.377 251.323,229.994 253.866,230.448 255.686 C 230.903 257.505,231.564 260.172,231.917 261.613 L 232.559 264.232 268.504 264.232 L 304.450 264.232 305.063 261.751 C 305.400 260.386,306.068 257.781,306.548 255.961 C 307.028 254.142,307.764 251.351,308.184 249.759 C 308.603 248.167,309.335 245.406,309.809 243.624 C 310.627 240.551,311.509 237.197,313.054 231.289 C 315.019 223.773,316.445 218.344,317.577 214.059 C 318.058 212.240,318.742 209.635,319.096 208.270 C 319.450 206.906,320.189 204.114,320.738 202.068 C 321.287 200.021,322.091 196.981,322.524 195.314 C 322.958 193.646,323.706 190.793,324.187 188.973 C 325.218 185.072,326.043 181.926,327.223 177.395 C 328.943 170.788,329.396 169.059,330.371 165.403 C 332.593 157.065,333.415 153.948,335.203 147.071 C 335.636 145.403,336.375 142.581,336.845 140.799 C 338.871 133.109,339.440 130.941,340.046 128.601 C 340.399 127.236,341.448 123.267,342.376 119.779 C 343.305 116.292,344.420 112.074,344.853 110.407 C 345.287 108.739,346.035 105.886,346.516 104.066 C 347.577 100.056,348.422 96.831,349.515 92.626 C 349.968 90.882,350.719 88.029,351.183 86.285 C 351.647 84.542,352.386 81.751,352.825 80.083 C 353.263 78.415,354.016 75.562,354.498 73.742 C 356.125 67.598,356.747 65.205,357.292 62.991 C 357.590 61.778,358.090 59.948,358.402 58.925 L 358.971 57.064 373.558 57.064 L 388.146 57.064 388.146 34.459 L 388.146 11.854 338.249 11.854 L 288.353 11.854 288.353 34.459 L 288.353 57.064 304.342 57.064 C 316.954 57.064,320.329 57.137,320.321 57.409 C 320.309 57.868,319.512 61.055,318.271 65.610 C 316.046 73.772,315.583 75.493,314.969 77.877 C 314.618 79.242,313.934 81.785,313.449 83.529 C 312.525 86.851,311.392 91.065,310.298 95.245 C 309.941 96.609,309.185 99.400,308.618 101.447 C 308.052 103.494,307.302 106.285,306.951 107.650 C 306.601 109.014,305.925 111.558,305.448 113.301 C 304.618 116.340,303.728 119.663,302.310 125.017 C 301.949 126.382,301.190 129.173,300.623 131.220 C 300.057 133.267,299.307 136.058,298.957 137.422 C 298.607 138.787,297.930 141.330,297.453 143.074 C 296.477 146.639,295.281 151.097,294.311 154.790 C 293.952 156.154,293.195 158.946,292.628 160.992 C 292.060 163.039,291.375 165.582,291.106 166.644 C 290.836 167.705,290.158 170.248,289.600 172.295 C 288.081 177.869,287.026 181.827,286.403 184.287 C 285.546 187.675,284.737 190.214,284.514 190.214 C 284.402 190.214,284.113 189.376,283.869 188.353 C 283.626 187.329,283.120 185.252,282.745 183.735 C 282.370 182.219,281.805 179.924,281.490 178.635 C 281.175 177.347,280.670 175.362,280.369 174.225 C 280.068 173.088,278.946 168.560,277.875 164.163 C 276.804 159.766,275.682 155.238,275.383 154.101 C 274.734 151.639,273.908 148.317,273.053 144.728 C 272.181 141.070,271.362 137.779,270.721 135.355 C 270.420 134.218,269.301 129.690,268.234 125.293 C 267.166 120.896,266.174 116.926,266.028 116.471 C 265.882 116.017,265.437 114.280,265.040 112.612 C 264.338 109.668,263.668 106.944,261.885 99.793 C 261.412 97.898,260.781 95.293,260.483 94.004 C 260.185 92.715,259.767 91.103,259.554 90.420 C 259.342 89.738,258.964 88.187,258.716 86.975 C 258.467 85.762,258.148 84.459,258.007 84.080 C 257.865 83.701,257.447 82.088,257.077 80.496 C 256.295 77.134,253.849 67.243,253.054 64.232 C 252.408 61.781,251.584 58.468,250.724 54.859 C 249.879 51.317,249.049 47.975,248.395 45.486 C 248.097 44.349,246.977 39.821,245.907 35.424 C 244.836 31.027,243.842 27.057,243.697 26.602 C 243.552 26.147,243.108 24.411,242.710 22.743 C 242.116 20.249,240.952 15.484,240.201 12.474 L 240.046 11.854 216.985 11.854 L 193.924 11.854 193.323 13.853 C 192.993 14.952,192.394 17.092,191.993 18.608 C 191.593 20.124,190.895 22.729,190.442 24.397 C 189.990 26.065,189.329 28.546,188.973 29.910 C 188.617 31.275,187.937 33.818,187.460 35.562 C 186.630 38.603,185.735 41.943,184.323 47.278 C 183.961 48.642,183.207 51.433,182.647 53.480 C 182.087 55.527,181.316 58.380,180.934 59.821 C 180.553 61.261,179.872 63.804,179.422 65.472 C 177.933 70.984,176.978 74.538,176.307 77.050 C 175.943 78.415,175.258 80.958,174.784 82.702 C 174.309 84.445,173.575 87.174,173.151 88.766 C 172.727 90.358,171.979 93.150,171.487 94.969 C 169.960 100.625,169.361 102.855,168.489 106.134 C 168.025 107.877,167.257 110.731,166.782 112.474 C 166.307 114.218,165.573 116.947,165.151 118.539 C 164.728 120.131,163.981 122.922,163.491 124.742 C 161.656 131.553,161.317 132.813,160.495 135.906 C 160.031 137.650,159.263 140.503,158.788 142.247 C 158.313 143.990,157.579 146.720,157.156 148.312 C 156.733 149.904,155.987 152.695,155.496 154.514 C 153.661 161.325,153.323 162.586,152.500 165.679 C 152.037 167.422,151.268 170.276,150.793 172.019 C 149.904 175.283,148.833 179.292,147.625 183.873 C 145.583 191.617,145.732 191.569,144.184 184.976 C 143.881 183.687,143.447 181.950,143.218 181.116 C 142.990 180.283,142.241 177.243,141.555 174.363 C 140.869 171.482,140.189 168.753,140.044 168.298 C 139.899 167.843,139.472 166.168,139.096 164.576 C 137.792 159.066,137.283 156.986,136.734 154.928 C 136.431 153.790,135.684 150.751,135.074 148.174 C 134.464 145.596,133.846 143.115,133.702 142.660 C 133.558 142.205,133.115 140.469,132.717 138.801 C 132.320 137.133,131.641 134.342,131.208 132.598 C 130.775 130.855,130.115 128.151,129.742 126.590 C 129.369 125.028,128.982 123.540,128.882 123.282 C 128.783 123.023,128.403 121.509,128.038 119.917 C 127.673 118.325,126.987 115.472,126.513 113.577 C 125.690 110.288,125.146 108.096,123.229 100.345 C 122.760 98.449,122.129 95.844,121.827 94.555 C 121.525 93.267,121.158 91.839,121.012 91.383 C 120.865 90.927,120.422 89.190,120.027 87.524 C 119.631 85.857,118.955 83.067,118.524 81.323 C 115.152 67.681,114.374 64.523,113.700 61.751 C 113.350 60.310,112.942 58.738,112.794 58.256 C 112.406 56.995,111.449 57.064,129.336 57.064 L 145.830 57.064 145.830 34.459 L 145.830 11.854 78.978 11.854 L 12.126 11.854 12.197 34.390 " stroke="none" fill="#340464" fill-rule="evenodd"></path><path id="path2" d="M19.642 57.271 C 23.697 57.314,30.334 57.314,34.390 57.271 C 38.446 57.228,35.127 57.193,27.016 57.193 C 18.904 57.193,15.586 57.228,19.642 57.271 M121.247 57.271 C 125.844 57.313,133.287 57.313,137.787 57.271 C 142.287 57.228,138.525 57.193,129.428 57.193 C 120.331 57.194,116.649 57.228,121.247 57.271 M296.278 57.271 C 300.713 57.313,307.970 57.313,312.405 57.271 C 316.840 57.228,313.212 57.193,304.342 57.193 C 295.472 57.193,291.844 57.228,296.278 57.271 M366.456 57.271 C 370.523 57.314,377.098 57.314,381.067 57.271 C 385.036 57.228,381.709 57.192,373.673 57.192 C 365.637 57.192,362.390 57.228,366.456 57.271 " stroke="none" fill="#79547e" fill-rule="evenodd"></path><path id="path3" d="M78.978 11.785 L 145.827 11.855 145.900 34.391 L 145.973 56.926 145.971 34.321 L 145.968 11.716 79.049 11.715 L 12.130 11.714 78.978 11.785 M205.307 11.785 C 211.713 11.826,222.195 11.826,228.601 11.785 C 235.007 11.744,229.766 11.710,216.954 11.710 C 204.142 11.710,198.901 11.744,205.307 11.785 M338.179 11.785 L 388.143 11.855 388.216 34.391 L 388.289 56.926 388.286 34.321 L 388.284 11.716 338.249 11.715 L 288.215 11.714 338.179 11.785 M129.566 264.369 L 93.591 264.510 129.481 264.578 C 153.183 264.622,165.428 264.551,165.541 264.369 C 165.635 264.218,165.673 264.124,165.626 264.161 C 165.579 264.198,149.352 264.292,129.566 264.369 M232.572 264.438 C 232.642 264.552,248.812 264.645,268.504 264.645 C 288.197 264.645,304.367 264.552,304.437 264.438 C 304.507 264.325,288.338 264.232,268.504 264.232 C 248.671 264.232,232.502 264.325,232.572 264.438 " stroke="none" fill="#592e74" fill-rule="evenodd"></path><path id="path4" d="M12.038 11.486 C 11.782 11.742,11.805 57.001,12.061 57.159 C 12.174 57.230,12.235 47.003,12.195 34.433 L 12.123 11.579 79.184 11.509 L 146.244 11.439 79.233 11.371 C 42.377 11.333,12.139 11.385,12.038 11.486 M193.702 11.509 C 193.632 11.623,204.095 11.716,216.954 11.716 C 229.813 11.716,240.276 11.623,240.206 11.509 C 240.038 11.239,193.869 11.239,193.702 11.509 M338.390 11.509 L 388.428 11.580 388.356 34.446 C 388.316 47.022,388.378 57.219,388.492 57.104 C 388.607 56.989,388.669 46.668,388.630 34.168 L 388.560 11.440 338.456 11.439 L 288.353 11.438 338.390 11.509 M146.106 34.514 C 146.030 47.053,146.062 57.219,146.177 57.104 C 146.291 56.989,146.353 46.730,146.314 34.306 L 146.244 11.716 146.106 34.514 M288.209 34.459 C 288.209 46.968,288.243 52.085,288.284 45.830 C 288.325 39.576,288.325 29.342,288.284 23.088 C 288.243 16.833,288.209 21.950,288.209 34.459 M185.685 40.681 C 185.583 41.085,185.554 41.469,185.619 41.534 C 185.684 41.599,185.820 41.322,185.921 40.918 C 186.022 40.514,186.052 40.130,185.987 40.065 C 185.922 40.000,185.786 40.277,185.685 40.681 M319.386 59.978 C 319.284 60.382,319.254 60.766,319.319 60.831 C 319.384 60.896,319.521 60.619,319.622 60.215 C 319.723 59.811,319.753 59.427,319.688 59.362 C 319.623 59.297,319.487 59.574,319.386 59.978 M113.616 60.924 C 113.616 61.151,113.722 61.585,113.853 61.888 C 114.002 62.236,114.089 62.287,114.089 62.026 C 114.089 61.799,113.983 61.365,113.853 61.061 C 113.703 60.714,113.616 60.663,113.616 60.924 M43.603 65.059 C 43.617 65.775,44.051 66.951,44.061 66.299 C 44.065 65.996,43.962 65.500,43.832 65.196 C 43.687 64.859,43.598 64.805,43.603 65.059 M177.690 70.454 C 177.589 70.858,177.559 71.242,177.624 71.307 C 177.689 71.372,177.825 71.094,177.927 70.690 C 178.028 70.286,178.058 69.902,177.993 69.837 C 177.928 69.772,177.792 70.050,177.690 70.454 M45.249 71.675 C 45.249 71.902,45.356 72.336,45.486 72.640 C 45.635 72.987,45.723 73.038,45.723 72.777 C 45.723 72.550,45.616 72.116,45.486 71.813 C 45.337 71.465,45.249 71.414,45.249 71.675 M119.956 86.561 C 119.956 86.788,120.063 87.223,120.193 87.526 C 120.342 87.873,120.430 87.924,120.430 87.664 C 120.430 87.436,120.323 87.002,120.193 86.699 C 120.044 86.351,119.956 86.300,119.956 86.561 M49.943 90.420 C 49.958 91.137,50.392 92.313,50.401 91.661 C 50.406 91.358,50.303 90.861,50.172 90.558 C 50.027 90.220,49.939 90.167,49.943 90.420 M51.598 97.037 C 51.612 97.753,52.046 98.929,52.055 98.277 C 52.060 97.974,51.957 97.478,51.826 97.174 C 51.681 96.837,51.593 96.783,51.598 97.037 M303.672 118.421 C 303.571 118.825,303.541 119.209,303.606 119.273 C 303.671 119.338,303.807 119.061,303.909 118.657 C 304.010 118.253,304.040 117.869,303.975 117.804 C 303.910 117.739,303.774 118.017,303.672 118.421 M57.938 122.398 C 57.952 123.115,58.386 124.291,58.396 123.639 C 58.400 123.336,58.297 122.839,58.167 122.536 C 58.022 122.198,57.933 122.145,57.938 122.398 M59.584 129.014 C 59.584 129.242,59.691 129.676,59.821 129.979 C 59.970 130.327,60.058 130.378,60.058 130.117 C 60.058 129.890,59.951 129.456,59.821 129.152 C 59.671 128.805,59.584 128.754,59.584 129.014 M338.407 135.237 C 338.306 135.641,338.276 136.024,338.341 136.089 C 338.406 136.154,338.542 135.877,338.643 135.473 C 338.745 135.069,338.774 134.685,338.710 134.620 C 338.645 134.555,338.508 134.833,338.407 135.237 M157.015 147.366 C 156.913 147.770,156.884 148.154,156.949 148.219 C 157.014 148.284,157.150 148.007,157.251 147.603 C 157.353 147.199,157.382 146.815,157.317 146.750 C 157.252 146.685,157.116 146.962,157.015 147.366 M64.278 147.760 C 64.292 148.476,64.726 149.653,64.736 149.001 C 64.741 148.697,64.638 148.201,64.507 147.898 C 64.362 147.560,64.273 147.507,64.278 147.760 M295.678 148.193 C 295.576 148.597,295.547 148.981,295.612 149.046 C 295.677 149.111,295.813 148.834,295.914 148.430 C 296.016 148.026,296.045 147.642,295.980 147.577 C 295.915 147.512,295.779 147.789,295.678 148.193 M204.595 153.549 C 204.609 154.266,205.043 155.442,205.053 154.790 C 205.058 154.487,204.955 153.990,204.824 153.687 C 204.679 153.349,204.590 153.296,204.595 153.549 M65.932 154.376 C 65.946 155.093,66.380 156.269,66.390 155.617 C 66.395 155.314,66.292 154.817,66.161 154.514 C 66.016 154.176,65.927 154.123,65.932 154.376 M206.241 160.165 C 206.241 160.393,206.348 160.827,206.478 161.130 C 206.628 161.478,206.715 161.529,206.715 161.268 C 206.715 161.041,206.609 160.606,206.478 160.303 C 206.329 159.956,206.241 159.905,206.241 160.165 M67.578 160.992 C 67.578 161.220,67.685 161.654,67.815 161.957 C 67.965 162.305,68.052 162.356,68.052 162.095 C 68.052 161.868,67.946 161.433,67.815 161.130 C 67.666 160.783,67.578 160.732,67.578 160.992 M277.649 162.646 C 277.663 163.363,278.097 164.539,278.106 163.887 C 278.111 163.584,278.008 163.088,277.877 162.784 C 277.732 162.447,277.644 162.393,277.649 162.646 M290.716 166.663 C 290.614 167.067,290.585 167.451,290.650 167.516 C 290.715 167.581,290.851 167.304,290.952 166.900 C 291.053 166.496,291.083 166.112,291.018 166.047 C 290.953 165.982,290.817 166.259,290.716 166.663 M140.640 170.090 C 140.654 170.806,141.088 171.982,141.097 171.330 C 141.102 171.027,140.999 170.531,140.868 170.227 C 140.723 169.890,140.635 169.836,140.640 170.090 M149.020 177.139 C 148.919 177.543,148.889 177.927,148.954 177.992 C 149.019 178.057,149.155 177.779,149.257 177.375 C 149.358 176.971,149.388 176.587,149.323 176.523 C 149.258 176.458,149.122 176.735,149.020 177.139 M327.380 177.139 C 327.279 177.543,327.249 177.927,327.314 177.992 C 327.379 178.057,327.515 177.779,327.616 177.375 C 327.718 176.971,327.748 176.587,327.683 176.523 C 327.618 176.458,327.482 176.735,327.380 177.139 M287.683 177.966 C 287.582 178.370,287.552 178.754,287.617 178.819 C 287.682 178.884,287.818 178.606,287.920 178.202 C 288.021 177.798,288.051 177.415,287.986 177.350 C 287.921 177.285,287.785 177.562,287.683 177.966 M72.273 179.738 C 72.287 180.454,72.721 181.631,72.731 180.979 C 72.735 180.675,72.632 180.179,72.502 179.876 C 72.357 179.538,72.268 179.485,72.273 179.738 M187.063 182.652 C 186.962 183.056,186.932 183.440,186.997 183.505 C 187.062 183.570,187.198 183.293,187.299 182.889 C 187.401 182.485,187.431 182.101,187.366 182.036 C 187.301 181.971,187.165 182.248,187.063 182.652 M73.927 186.354 C 73.941 187.071,74.375 188.247,74.385 187.595 C 74.389 187.292,74.286 186.795,74.156 186.492 C 74.011 186.154,73.922 186.101,73.927 186.354 M145.826 188.996 C 145.823 189.438,145.778 189.457,145.555 189.111 C 145.394 188.862,145.286 188.828,145.283 189.026 C 145.276 189.562,145.820 189.734,146.004 189.254 C 146.098 189.011,146.097 188.734,146.002 188.640 C 145.908 188.545,145.829 188.705,145.826 188.996 M214.236 192.143 C 214.236 192.371,214.342 192.805,214.473 193.108 C 214.622 193.456,214.710 193.507,214.710 193.246 C 214.710 193.019,214.603 192.584,214.473 192.281 C 214.323 191.934,214.236 191.883,214.236 192.143 M218.930 210.889 C 218.944 211.605,219.378 212.782,219.388 212.130 C 219.392 211.826,219.290 211.330,219.159 211.027 C 219.014 210.689,218.925 210.636,218.930 210.889 M80.267 211.716 C 80.281 212.432,80.715 213.609,80.725 212.957 C 80.729 212.653,80.627 212.157,80.496 211.854 C 80.351 211.516,80.262 211.463,80.267 211.716 M317.732 213.803 C 317.630 214.207,317.600 214.591,317.665 214.656 C 317.730 214.721,317.867 214.444,317.968 214.040 C 318.069 213.636,318.099 213.252,318.034 213.187 C 317.969 213.122,317.833 213.399,317.732 213.803 M220.576 217.505 C 220.576 217.733,220.683 218.167,220.813 218.470 C 220.963 218.818,221.050 218.868,221.050 218.608 C 221.050 218.380,220.944 217.946,220.813 217.643 C 220.664 217.295,220.576 217.245,220.576 217.505 M81.913 218.332 C 81.913 218.560,82.020 218.994,82.150 219.297 C 82.300 219.645,82.387 219.696,82.387 219.435 C 82.387 219.207,82.281 218.773,82.150 218.470 C 82.001 218.122,81.913 218.072,81.913 218.332 M177.415 219.317 C 177.313 219.721,177.283 220.104,177.348 220.169 C 177.413 220.234,177.549 219.957,177.651 219.553 C 177.752 219.149,177.782 218.765,177.717 218.700 C 177.652 218.635,177.516 218.913,177.415 219.317 M88.262 243.694 C 88.276 244.410,88.710 245.587,88.720 244.935 C 88.724 244.631,88.621 244.135,88.491 243.832 C 88.346 243.494,88.257 243.441,88.262 243.694 M228.571 249.483 C 228.571 249.711,228.677 250.145,228.808 250.448 C 228.957 250.795,229.045 250.846,229.045 250.586 C 229.045 250.358,228.938 249.924,228.808 249.621 C 228.658 249.273,228.571 249.222,228.571 249.483 M89.908 250.310 C 89.908 250.538,90.014 250.972,90.145 251.275 C 90.294 251.623,90.382 251.673,90.382 251.413 C 90.382 251.185,90.275 250.751,90.145 250.448 C 89.995 250.100,89.908 250.049,89.908 250.310 M306.429 256.808 C 306.328 257.212,306.298 257.596,306.363 257.661 C 306.428 257.726,306.564 257.448,306.665 257.044 C 306.767 256.640,306.797 256.257,306.732 256.192 C 306.667 256.127,306.530 256.404,306.429 256.808 M166.388 261.219 C 166.286 261.623,166.257 262.007,166.321 262.072 C 166.386 262.137,166.523 261.859,166.624 261.455 C 166.725 261.051,166.755 260.667,166.690 260.602 C 166.625 260.537,166.489 260.815,166.388 261.219 " stroke="none" fill="#946c84" fill-rule="evenodd"></path></g></svg>